<svg width="432" height="943" viewBox="0 0 432 943" fill="none" xmlns="http://www.w3.org/2000/svg">
<rect width="432" height="942.376" fill="#E4A10A"/>
<path d="M195.799 46.3111C194.993 46.2372 194.654 46.4862 194.025 47.1976C192.695 49.6204 194.345 52.995 198.015 59.6092L201.559 61.8256L202.889 70.2478C205.194 72.5076 206.996 74.1821 209.129 76.0103M195.799 46.3111C191.693 33.3978 191.307 27.313 196.686 20.1578C200.608 13.8914 203.156 10.8301 211.754 10.4059C223.682 9.51678 227.511 12.83 232.588 21.0444C234.751 26.0307 235.139 28.837 233.918 33.8996M195.799 46.3111L199.786 49.8574C199.805 44.0423 200.718 41.3949 202.889 37.0025C204.87 31.4042 206.813 29.0552 210.424 25.0342C213.01 23.396 214.597 23.0969 217.517 22.8179C219.906 23.1238 221.21 23.3417 223.279 24.1477C225.76 26.5191 227.054 27.7688 230.371 30.7967C231.64 32.2385 232.438 32.8745 233.918 33.8996M233.918 33.8996C234.721 39.1303 234.998 42.1796 234.804 48.0843C236.016 46.4888 236.682 46.0506 237.907 46.7545C239.382 48.2524 239.286 50.1384 238.35 54.2901C236.659 57.7475 235.798 58.6031 234.361 59.6093C232.72 64.0591 232.454 65.656 231.701 68.918C229.588 71.9377 227.808 73.9603 225.629 76.0103M225.629 76.0103C224.308 77.2538 222.84 78.5074 221.063 79.9997C218.365 80.602 216.839 80.6683 213.97 79.9997C212.059 78.4665 210.523 77.2055 209.129 76.0103M225.629 76.0103C225.108 82.9257 225.049 86.807 225.939 93.7411C227.498 101.86 228.81 105.963 234.804 109.699C244.066 112.65 248.598 111.71 256.081 107.039C262.156 103.846 265.614 102.982 272.039 104.823C277.958 107.053 280.406 112.007 279.574 124.327C278.407 134.67 277.443 142.005 276.028 153.583L274.698 177.962M274.698 177.962C300.489 210.717 313.806 229.615 334.097 264.843C345.334 282.041 351.583 291.677 357.59 308.284C363.381 321.163 366.229 328.101 370.445 339.756C341.131 350.565 325.906 358.271 299.522 373.001C288.721 378.181 285.834 378.181 280.018 378.764C263.781 370.87 255.379 367.626 244.556 369.012M274.698 177.962L252.981 157.129M244.556 369.012C228.044 367.352 220.625 366.165 219.733 362.363C217.218 358.417 223.695 356.822 234.804 353.941C239.962 350.336 238.252 349.112 230.815 347.735C213.32 342.771 199.337 342.982 174.519 343.302C170.268 342.989 168.718 343.314 167.427 344.189M244.556 369.012C241.146 371.752 240.267 374.009 240.569 379.207C240.941 385.821 240.834 388.945 238.353 390.289C232.294 391.585 228.914 391.557 222.838 391.175C208.264 388.454 201.742 386.419 197.572 383.092M167.427 344.189C178.985 348.21 183.291 349.993 184.271 351.724C190.967 355.634 189.027 356.78 180.725 357.93C166.363 360.69 158.214 361.661 143.934 362.363C137.525 361.667 135.256 361 134.182 359.26C136.944 355.304 142.179 354.117 153.686 352.611C160.931 350.374 157.917 349.532 150.139 348.178C130.057 344.569 119.105 344.759 99.6067 345.519C91.7362 345.395 86.6075 345.154 86.3086 346.848M167.427 344.189C169.271 315.8 172.269 300.773 178.955 274.595C178.418 263.05 179.061 257.883 180.725 249.329C182.578 238.026 183.739 232.043 186.933 224.506M86.3086 346.848C84.9039 348.377 87.858 349.98 105.369 355.27M86.3086 346.848C92.2028 314.08 96.7751 295.657 108.918 262.627M105.369 355.27C107.978 358.854 89.0306 352.788 69.9101 351.724C65.6962 351.1 63.4511 350.891 59.7148 350.838C63.0665 334.17 67.5498 324.554 75.6726 307.397C86.1911 282.802 92.5262 269.527 105.815 247.999C117.056 228.107 124.125 217.41 139.06 199.683C148.534 187.89 155.786 178.939 161.224 172.772M105.369 355.27C108.879 354.254 110.834 353.593 113.351 348.178C113.633 350.119 113.901 351.261 115.567 353.941C122.906 352.294 126.281 351.832 131.525 351.724C133.198 356.224 132.474 358.431 131.158 362.363M223.725 158.459C217.059 155.936 213.027 155.926 205.551 157.572C200.449 155.517 197.505 155.717 192.253 156.685C183.089 156.576 178.937 157.868 173.192 162.448C171.076 162.495 167.273 165.91 161.224 172.772M223.725 158.459C228.575 156.235 231.931 156.001 238.353 156.242C244.37 155.641 247.509 155.937 252.981 157.129M223.725 158.459L236.136 224.506L238.353 253.762C241.985 286.66 243.728 305.569 244.556 343.302M252.981 157.129C260.158 169.264 263.86 176.209 267.609 189.931C274.55 213.048 278.142 226.02 279.134 249.329M139.503 371.228C149.509 369.235 155.531 369.102 166.1 370.342C171.828 371.425 176.298 372.426 180.725 373.966M139.503 371.228L137.287 372.558C133.461 368.107 131.789 365.698 131.158 362.363M139.503 371.228C143.853 382.941 148.876 395.388 160.337 423.091C167.295 441.516 171.33 452.01 180.725 473.18C183.566 480.734 185.123 484.926 190.036 494.901C190.234 500.202 189.893 503.398 187.82 509.528C181.416 519.847 179.936 527.667 178.068 542.33C176.777 558.42 177.465 568.18 182.501 587.544C184.794 597.042 186.08 602.394 188.706 613.254C189.276 616.65 189.707 617.823 190.48 619.903C190.611 626.991 191.153 631.199 193.582 639.407C195.386 648.239 196.736 653.316 199.345 662.457L214.416 719.639L223.282 766.182L227.714 794.108L231.26 831.343V858.382L226.828 880.546L222.395 894.73V899.163M131.081 361.92C131.105 362.069 131.131 362.217 131.158 362.363M209.129 76.0103C208.636 96.819 208.407 109.105 203.334 111.472C196.244 120.483 191.691 120.945 183.387 121.667C175.921 121.469 172.094 121.657 167.429 123.883C162.66 127.46 160.322 129.841 157.678 135.852C155.363 143.97 155.937 148.394 157.678 156.242L161.224 172.772M222.395 899.163H220.622C218.846 901.968 219.733 903.322 220.622 905.812C221.772 906.493 222.55 906.708 223.282 906.675M222.395 899.163C228.945 896.89 233.757 897.841 241.456 897.833C243.336 898.09 244.66 898.409 245.771 899.163M245.002 906.699C237.207 903.016 232.841 903.625 225.055 906.255C224.391 906.476 223.85 906.65 223.282 906.675M245.002 906.699C246.902 905.275 247.647 904.26 248.105 901.823C247.348 900.57 246.622 899.739 245.771 899.163M245.002 906.699C243.915 912.331 243.085 915.724 240.126 923.1C238.402 925.007 237.278 925.01 235.25 924.873C233.087 925.023 232.051 924.632 230.374 923.543C226.606 918.08 224.567 915.207 222.838 910.688L223.282 906.675M245.771 899.163C243.861 887.778 243.736 885.625 243.229 880.546L241.456 857.939C240.616 839.55 239.608 832.738 237.466 823.364L232.147 793.665L223.282 739.142L220.622 722.298L209.54 675.312M209.54 675.312C214.318 666.851 216.709 661.68 219.292 650.045C226.316 630.929 228.588 619.794 229.044 599.069C230.327 558.634 227.474 548.901 222.838 537.898C220.476 520.307 216.433 513.749 208.21 503.323C208.718 495.75 208.637 492.079 208.21 486.035C212.977 461.863 216.041 449.109 221.952 427.08C227.838 410.845 229.949 402.52 230.97 391.343M209.54 675.312L207.058 654.035M198.015 519.724C197.858 530.563 197.306 536.096 196.242 545.877L198.015 579.122L202.448 633.201L206.437 648.715L207.058 654.035M198.015 519.724C201.195 512.198 202.663 507.809 204.221 499.333V493.571C200.906 483.372 198.766 475.871 196.869 468.304M198.015 519.724C205.51 535.774 209.013 548.002 214.859 571.586L216.189 589.76C216.734 604.116 216.434 612.281 214.859 626.995C211.521 643.548 209.788 650.632 207.058 654.035M180.725 373.966C185.222 375.53 189.674 377.65 195.356 380.98C196.033 381.743 196.758 382.442 197.572 383.092M180.725 373.966L184.717 400.484L192.253 448.357C193.961 456.023 195.336 462.185 196.869 468.304M197.572 383.092C196.497 390.769 196.855 398.651 197.572 412.896C195.924 431.178 196.473 441.952 197.572 461.212L196.869 468.304" stroke="black" stroke-width="2.65962"/>
<path d="M198.213 59.4711C194.543 52.8569 192.894 49.4823 194.224 47.0595C194.852 46.3481 195.192 46.0991 195.997 46.173L199.984 49.7192C200.003 43.9042 200.917 41.2568 203.087 36.8644C205.069 31.266 207.012 28.9171 210.623 24.8961C213.208 23.2579 214.795 22.9588 217.715 22.6798C220.105 22.9857 221.408 23.2036 223.477 24.0096C225.958 26.381 227.253 27.6307 230.57 30.6586C231.839 32.1003 232.637 32.7364 234.116 33.7615C234.919 38.9921 235.196 42.0415 235.002 47.9461C236.214 46.3507 236.881 45.9125 238.105 46.6163C239.58 48.1142 239.484 50.0003 238.549 54.1519C236.858 57.6093 235.997 58.465 234.559 59.4712C232.919 63.921 232.652 65.5179 231.9 68.7798C229.786 71.7996 228.006 73.8222 225.828 75.8722C225.307 82.7876 225.248 86.6689 226.137 93.603C227.697 101.722 229.008 105.825 235.002 109.561C244.265 112.512 248.797 111.572 256.279 106.901C262.355 103.708 265.812 102.844 272.237 104.685C278.156 106.915 280.604 111.869 279.773 124.189C278.606 134.532 277.642 141.867 276.227 153.444L272.237 175.164L253.179 156.991C247.707 155.799 244.568 155.503 238.551 156.104C232.13 155.862 228.774 156.097 223.923 158.32C217.257 155.798 213.225 155.788 205.749 157.434C200.648 155.379 197.704 155.579 192.451 156.547C183.287 156.438 179.136 157.73 173.39 162.31C171.274 162.357 167.472 165.772 161.422 172.634L157.876 156.104C156.135 148.256 155.561 143.832 157.876 135.714C160.52 129.702 162.858 127.322 167.628 123.745C172.293 121.519 176.119 121.331 183.586 121.529C191.889 120.807 196.442 120.345 203.533 111.334C208.544 108.995 208.828 96.9735 209.31 76.6157L209.327 75.8722C207.194 74.044 205.393 72.3695 203.087 70.1097L201.757 61.6875L198.213 59.4711Z" fill="#5B3C2D"/>
<path d="M232.587 21.0469C234.75 26.0332 235.138 28.8395 233.917 33.9021M233.917 33.9021C234.72 39.1328 234.997 42.1821 234.803 48.0868C236.015 46.4913 236.681 46.0531 237.906 46.757C239.381 48.2549 239.285 50.1409 238.349 54.2926C236.658 57.75 235.798 58.6056 234.36 59.6118C232.719 64.0616 232.453 65.6585 231.7 68.9205C229.587 71.9402 227.807 73.9628 225.629 76.0128M233.917 33.9021C232.438 32.877 231.64 32.241 230.371 30.7992C227.053 27.7713 225.759 26.5216 223.278 24.1502C221.209 23.3442 219.905 23.1263 217.516 22.8204C214.596 23.0994 213.009 23.3985 210.423 25.0367C206.813 29.0577 204.869 31.4067 202.888 37.005C200.718 41.3974 199.804 44.0448 199.785 49.8599L195.798 46.3136C194.992 46.2397 194.653 46.4887 194.025 47.2001C192.695 49.6229 194.344 52.9975 198.014 59.6117L201.558 61.8281L202.888 70.2503C205.194 72.5101 206.995 74.1846 209.128 76.0128M225.629 76.0128C224.307 77.2563 222.839 78.5099 221.062 80.0022C218.365 80.6045 216.838 80.6708 213.97 80.0022C212.058 78.469 210.522 77.208 209.128 76.0128M225.629 76.0128C225.108 82.9282 225.049 86.8095 225.938 93.7436C227.497 101.862 228.809 105.965 234.803 109.701C244.065 112.652 248.598 111.712 256.08 107.042C262.156 103.849 265.613 102.985 272.038 104.825C277.957 107.055 280.405 112.009 279.574 124.329C278.406 134.672 277.443 142.007 276.027 153.585M252.98 157.131C247.508 155.939 244.369 155.644 238.352 156.245C231.931 156.003 228.575 156.238 223.724 158.461C217.058 155.939 213.026 155.928 205.55 157.574C200.448 155.52 197.504 155.719 192.252 156.688C183.088 156.578 178.936 157.87 173.191 162.45C171.075 162.498 167.272 165.913 161.223 172.774L157.677 156.245C155.936 148.397 155.362 143.973 157.677 135.854C160.321 129.843 162.659 127.463 167.429 123.886C172.093 121.66 175.92 121.472 183.386 121.67C191.69 120.947 196.243 120.486 203.334 111.474C208.406 109.107 208.635 96.8215 209.128 76.0128" stroke="black" stroke-width="2.65962"/>
<path d="M139.504 371.889C149.509 369.896 155.532 369.763 166.1 371.003C171.828 372.086 176.298 373.087 180.726 374.626L184.717 401.145L192.253 449.018C193.962 456.684 195.336 462.846 196.87 468.965L197.572 461.873C196.473 442.613 195.924 431.839 197.572 413.556C196.856 399.312 196.498 391.43 197.572 383.753C201.742 387.08 208.264 389.115 222.839 391.836L230.97 392.004C229.95 403.181 227.838 411.506 221.952 427.741C216.041 449.77 212.978 462.524 208.211 486.696C208.637 492.74 208.718 496.411 208.211 503.984C216.433 514.41 220.477 520.968 222.839 538.559C227.475 549.562 230.328 559.295 229.044 599.73C228.589 620.455 226.317 631.59 219.293 650.706C216.709 662.341 214.319 667.512 209.541 675.972L220.622 722.959L223.282 739.803L232.147 794.326L237.467 824.025C239.609 833.399 240.616 840.211 241.456 858.6L243.229 881.207C243.736 886.286 243.862 888.438 245.772 899.824C246.622 900.4 247.348 901.231 248.105 902.483C247.647 904.921 246.902 905.936 245.002 907.359C243.915 912.991 243.085 916.385 240.126 923.76C238.402 925.668 237.278 925.671 235.25 925.534C233.088 925.684 232.051 925.293 230.374 924.204L229.941 923.575C226.447 918.514 224.5 915.691 222.839 911.349L223.282 907.336C222.551 907.368 221.772 907.154 220.622 906.473C219.733 903.983 218.846 902.629 220.622 899.824H222.395V895.391L226.828 881.207L231.261 859.043V832.004L227.715 794.769L223.282 766.843L214.417 720.299L199.345 663.118C196.737 653.976 195.387 648.9 193.583 640.068C191.153 631.86 190.611 627.652 190.48 620.564C189.707 618.484 189.276 617.311 188.707 613.915C186.081 603.055 184.795 597.703 182.501 588.205C177.465 568.841 176.778 559.081 178.068 542.991C179.936 528.328 181.416 520.508 187.82 510.189C189.894 504.058 190.235 500.863 190.037 495.561C185.206 485.756 183.62 481.539 180.869 474.223L180.726 473.841C171.331 452.671 167.295 442.177 160.338 423.752C148.877 396.048 143.853 383.602 139.504 371.889Z" fill="#5B3C2D"/>
<path d="M202.448 628.18L206.437 643.695L207.058 649.014C209.788 645.612 211.521 638.527 214.86 621.975C216.434 607.26 216.734 599.095 216.189 584.74L214.86 566.566C209.013 542.982 205.51 530.753 198.015 514.703C197.858 525.542 197.306 531.075 196.242 540.856L198.015 574.101L202.448 628.18Z" fill="#E4A10A"/>
<path d="M196.21 20.1578C190.831 27.313 191.217 33.3978 195.323 46.3111L199.31 49.8574C199.329 44.0423 200.242 41.3949 202.413 37.0025C204.394 31.4042 206.338 29.0552 209.948 25.0342C212.534 23.396 214.121 23.0969 217.041 22.8179C219.43 23.1238 220.734 23.3417 222.803 24.1477C225.284 26.5191 226.578 27.7688 229.895 30.7967C231.165 32.2385 231.962 32.8745 233.442 33.8996C234.663 28.837 234.275 26.0307 232.112 21.0444C227.035 12.83 223.206 9.51678 211.278 10.4059C202.68 10.8301 200.132 13.8914 196.21 20.1578Z" fill="#150A05"/>
<path d="M274.698 177.788C300.489 210.542 313.806 229.441 334.097 264.669C345.334 281.866 351.583 291.502 357.59 308.109C363.381 320.989 366.229 327.926 370.445 339.582C341.131 350.391 325.906 358.097 299.521 372.827C289.782 375.646 285.063 378.639 280.907 378.174C265.725 369.963 257.719 367.298 245.443 370.167C241.358 373.73 243.968 387.179 240.569 389.256C237.17 391.332 199.853 391.929 198.015 379.947C183.816 382.312 189.906 374.247 179.398 372.384C174.97 370.844 171.828 371.251 166.1 370.167C155.531 368.928 149.509 369.061 139.503 371.054L137.287 372.384C133.461 367.933 131.789 365.524 131.158 362.188C132.474 358.257 133.198 356.05 131.525 351.55C126.281 351.657 122.906 352.119 115.567 353.766C113.901 351.087 113.633 349.945 113.351 348.004C110.834 353.418 108.879 354.079 105.369 355.096C107.978 358.68 89.0306 352.613 69.9101 351.55C65.6962 350.926 63.4511 350.717 59.7148 350.663C63.0665 333.996 67.5498 324.379 75.6726 307.223C86.1911 282.628 92.5262 269.352 105.815 247.825C117.056 227.933 124.125 217.236 139.06 199.508C148.534 187.716 155.786 178.764 161.224 172.597C167.273 165.736 171.076 162.321 173.192 162.273C178.937 157.693 183.089 156.401 192.253 156.511C197.505 155.542 200.449 155.343 205.551 157.398C213.027 155.751 217.059 155.762 223.725 158.284C228.575 156.061 231.931 155.826 238.353 156.068C244.37 155.467 247.509 155.762 252.981 156.954L274.698 177.788Z" fill="#1E1809"/>
<path d="M214.527 266.595C216.993 249.384 218.796 240.298 218.813 219.802C226.206 225.364 229.382 230.518 232.426 245.211C235.012 259.704 236.055 267.677 236.729 281.455L229.404 276.042L221.218 269.541L214.527 266.595Z" fill="#E3B45F"/>
<path d="M212.238 267.486C209.773 250.274 207.97 241.188 207.953 220.693C200.56 226.255 197.384 231.409 194.339 246.102C191.754 260.595 190.711 268.568 190.037 282.345L197.362 276.933L205.547 270.431L212.238 267.486Z" fill="#E3B45F"/>
<path d="M248.639 183.839L232.164 156.156L232.446 179.916L238.543 197.102C241.57 210.35 243.9 217.365 243.446 232.888C247.974 240.613 249.17 244.27 251.675 250.978C260.544 269.641 267.249 288.017 270.412 280.625L271.718 271.45L275.634 263.836C273.315 253.839 271.672 248.361 267.327 239.109L267.196 228.092C270.136 227.358 270.915 225.567 271.113 220.479C270.589 213.364 268.684 209.523 264.185 202.772L248.639 183.839Z" fill="#E7BD77"/>
<path d="M279.059 232.982C275.172 227.623 274.568 225.478 275.656 222.838C287.582 229.389 293.201 236.26 303.162 248.7L322.989 279.547C323.394 291.62 321.72 296.693 316.003 303.306L307.971 288.455L294.746 260.704L279.059 232.982Z" fill="#FDC178"/>
<path d="M276.894 261.599C276.025 255.469 275.825 252.45 276.743 248.926C279.686 245.772 286.321 258.062 299.642 284.172L323.602 329.044L306.849 343.107C304.369 332.225 302.474 327.342 298.759 319.436L287.025 287.755C282.417 277.441 280.262 271.724 276.894 261.599Z" fill="#E1A875"/>
<path d="M277.246 311.434L275.703 270.031C277.543 271.999 278.381 272.38 288.993 307.192C295.788 320.139 297.265 328.326 299.699 343.193L279.119 341.319L277.246 311.434Z" fill="#DDAF75"/>
<path d="M255.16 329.127C257.539 312.519 259.279 303.752 259.295 283.976C266.429 289.343 269.493 294.316 272.431 308.494C274.926 322.478 275.932 330.171 276.583 343.465L269.514 338.243L261.616 331.969L255.16 329.127Z" fill="#E3B45F"/>
<path d="M253.586 275.762C245.754 255.954 242.311 247.791 241.248 248.981C238.788 256.742 239.14 264.054 241.619 280.26C240.481 287.464 238.959 291.035 236.878 297.739L232.395 307.296L232.536 319.174C240.225 325.885 244.374 331.681 252.013 331.878C253.328 329.312 253.477 322.931 254.04 314.035C253.557 299.467 253.195 291.414 253.586 275.762Z" fill="#E4A10A"/>
<path d="M243.172 167.393C238.03 162.178 237.402 160.154 241.315 158.548C245.352 159.854 247.792 160.68 252.573 162.385L267.004 177.699L280.302 195.938C285.467 201.318 288.357 205.023 293.467 212.855C292.723 216.787 291.367 218.615 287.141 221.136C280.091 216.409 276.626 213.336 272.017 206.492L257.921 189.851C251.163 182.866 247.782 178.221 243.172 167.393Z" fill="#FEC279"/>
<path d="M177.858 183.319L193.266 155.766L193.542 179.093L188.002 196.102C185.36 209.176 183.253 216.114 184.055 231.34C179.824 239.028 178.743 242.644 176.459 249.286C168.251 267.81 162.145 286.002 158.892 278.82L157.407 269.845L153.415 262.463C155.442 252.597 156.915 247.182 160.934 238.001L160.806 227.184C157.924 226.532 157.124 224.792 156.814 219.803C157.159 212.807 158.926 208.993 163.152 202.262L177.858 183.319Z" fill="#E7BD77"/>
<path d="M149.311 232.261C153.026 226.91 153.573 224.791 152.436 222.225C140.806 228.934 135.415 235.809 125.864 248.252L106.996 278.992C106.879 290.851 108.651 295.791 114.454 302.148L122.042 287.384L134.46 259.837L149.311 232.261Z" fill="#FDC178"/>
<path d="M152.13 260.297C152.845 254.26 152.972 251.292 151.982 247.855C149.001 244.828 142.732 257.046 130.18 282.984L107.554 327.587L124.436 340.997C126.633 330.259 128.392 325.422 131.877 317.576L142.731 286.206C147.043 275.975 149.038 270.313 152.13 260.297Z" fill="#E1A875"/>
<path d="M152.929 309.22L153.492 268.547C151.708 270.521 150.883 270.915 141.144 305.332C134.688 318.199 133.41 326.269 131.338 340.918L151.766 338.597L152.929 309.22Z" fill="#DDAF75"/>
<path d="M174.729 326.071C172.044 309.826 170.159 301.261 169.685 281.85C162.911 287.284 160.062 292.235 157.549 306.219C155.46 320.002 154.664 327.576 154.343 340.639L161.058 335.35L168.551 329.01L174.729 326.071Z" fill="#E3B45F"/>
<path d="M175.337 273.659C182.563 254.035 185.752 245.943 186.823 247.087C189.418 254.647 189.243 261.831 187.187 277.795C188.473 284.84 190.049 288.309 192.249 294.841L196.871 304.116L197.009 315.778C189.618 322.544 185.682 328.33 178.189 328.701C176.838 326.213 176.543 319.953 175.783 311.235C175.917 296.925 176.086 289.013 175.337 273.659Z" fill="#E4A10A"/>
<path d="M182.721 167.052C187.646 161.813 188.215 159.812 184.337 158.327C180.405 159.703 178.029 160.57 173.377 162.355L159.57 177.722L146.943 195.934C141.998 201.335 139.247 205.039 134.415 212.845C135.237 216.687 136.61 218.449 140.817 220.825C147.626 216.021 150.956 212.924 155.32 206.1L168.768 189.438C175.237 182.425 178.448 177.787 182.721 167.052Z" fill="#FEC279"/>
<path d="M129.947 224.14L128.075 218.828C125.345 220.436 124.354 221.669 123.165 224.221C122.618 229.79 122.968 232.275 125.216 235.125C130.396 231.49 131.861 229.068 132.095 224.115L129.947 224.14Z" fill="white"/>
<path d="M115.595 247.125L113.723 241.813C110.993 243.421 110.003 244.653 108.813 247.205C108.267 252.774 108.617 255.26 110.864 258.109C116.045 254.474 117.509 252.053 117.743 247.099L115.595 247.125Z" fill="white"/>
<path d="M104.033 265.395C104.035 262.619 103.91 261.194 102.863 259.513C99.9766 261.77 99.453 264.734 99.4837 267.324C99.5145 269.914 98.0254 271.117 99.5484 272.772L104.033 265.395Z" fill="white"/>
<path d="M98.2661 287.214C98.1951 282.58 97.9373 279.886 94.3678 273.724C91.3024 277.888 90.2974 280.103 91.0975 283.619C93.5552 288.474 95.1559 288.947 98.2661 287.214Z" fill="white"/>
<path d="M106.743 300.167C106.693 296.865 106.509 294.946 103.966 290.555C101.781 293.522 101.065 295.1 101.635 297.606C103.387 301.065 104.527 301.402 106.743 300.167Z" fill="white"/>
<path d="M115.196 338.576C113.173 335.525 111.853 333.87 106.847 331.713C106.577 336.165 106.851 338.191 108.883 340.098C112.592 341.991 113.861 341.432 115.196 338.576Z" fill="white"/>
<path d="M85.0435 338.419C83.8338 336.596 83.0361 335.614 79.9078 334.438C79.6261 337.201 79.7498 338.445 80.994 339.56C83.3037 340.614 84.1241 340.228 85.0435 338.419Z" fill="white"/>
<path d="M103.382 312.238C103.343 309.773 103.185 308.341 100.961 305.067C99.0404 307.285 98.4098 308.464 98.906 310.334C100.437 312.914 101.437 313.164 103.382 312.238Z" fill="white"/>
<path d="M102.812 331.212C105.821 326.359 107.394 323.395 108.579 314.63C103.341 316.909 101.061 318.538 99.3826 322.716C98.1612 329.386 99.1451 330.941 102.812 331.212Z" fill="white"/>
<path d="M111.663 311.97C111.611 308.618 111.419 306.669 108.744 302.213C106.443 305.226 105.689 306.829 106.288 309.372C108.13 312.884 109.33 313.225 111.663 311.97Z" fill="white"/>
<path d="M87.4533 305.872C89.4992 301.428 90.4822 298.746 89.8942 291.252C85.0768 293.818 83.1101 295.468 82.2681 299.18C82.3937 304.924 83.7018 306.104 87.4533 305.872Z" fill="white"/>
<path d="M78.7435 322.306C79.8303 319.942 80.3331 318.506 79.7088 314.375C76.8687 315.611 75.7307 316.446 75.3505 318.452C75.6311 321.606 76.4691 322.3 78.7435 322.306Z" fill="white"/>
<path d="M69.5477 340.11C74.6254 336.862 77.4752 334.758 82.6007 326.954C76.5738 326.735 73.6613 327.246 70.1578 330.458C65.9532 336.251 66.1806 338.18 69.5477 340.11Z" fill="white"/>
<path d="M86.7549 325.827C88.2345 322.612 88.9399 320.669 88.4255 315.206C84.8613 317.026 83.4123 318.208 82.8226 320.902C82.9745 325.085 83.9614 325.958 86.7549 325.827Z" fill="white"/>
<path d="M81.8977 342.801C78.4563 342.426 76.4362 342.369 71.5398 344.446C74.3437 347.102 75.8924 348.051 78.5724 347.783C82.3977 346.409 82.8959 345.266 81.8977 342.801Z" fill="white"/>
<path d="M93.8125 339.882C91.9818 339.684 90.9055 339.669 88.2739 341.015C89.7411 342.643 90.5569 343.219 91.9883 343.024C94.0417 342.127 94.3191 341.409 93.8125 339.882Z" fill="white"/>
<path d="M106.305 340.032C102.985 337.355 100.933 335.915 94.5461 334.229C95.7525 338.322 96.749 340.161 99.6914 341.791C104.522 343.311 105.766 342.725 106.305 340.032Z" fill="white"/>
<path d="M322.112 343.508C325.168 341.164 327.08 339.973 333.322 339.616C332.537 344.207 331.728 346.152 328.941 347.338C324.246 347.901 322.935 346.876 322.112 343.508Z" fill="white"/>
<path d="M310.897 353.41C312.467 352.208 313.469 351.621 316.974 351.825C316.838 354.528 316.511 355.642 315.015 356.167C312.398 356.19 311.588 355.486 310.897 353.41Z" fill="white"/>
<path d="M298.442 364.008C299.759 359.031 300.73 356.204 305.795 350.62C307.597 356.023 307.959 358.71 306.249 362.263C302.596 366.768 300.942 366.802 298.442 364.008Z" fill="white"/>
<path d="M347.438 305.076C346.299 300.704 345.432 298.213 340.627 293.203C338.687 297.856 338.248 300.185 339.818 303.33C343.269 307.359 344.894 307.437 347.438 305.076Z" fill="white"/>
<path d="M350.832 321.915C350.224 319.589 349.743 318.27 346.88 315.684C345.575 318.229 345.25 319.491 346.152 321.147C348.198 323.236 349.203 323.241 350.832 321.915Z" fill="white"/>
<path d="M354.679 340.011C356.406 334.719 357.21 331.548 356.306 322.974C351.872 326.344 350.09 328.413 349.467 332.758C349.853 339.357 351.144 340.602 354.679 340.011Z" fill="white"/>
<path d="M358.616 319.745C357.792 316.582 357.159 314.781 353.595 311.18C352.114 314.565 351.77 316.257 352.925 318.527C355.481 321.427 356.697 321.473 358.616 319.745Z" fill="white"/>
<path d="M309.179 237.135C307.213 231.437 305.836 228.173 299.453 221.36C297.826 227.167 297.639 230.118 299.939 234.277C304.584 239.724 306.513 239.955 309.179 237.135Z" fill="white"/>
<path d="M205.358 284.36C204.669 285.598 204.203 286.272 202.243 287.188C201.922 285.419 201.94 284.61 202.687 283.828C204.124 283.031 204.673 283.239 205.358 284.36Z" fill="white"/>
<path d="M208.549 305.252C210.093 308.017 210.863 309.699 210.86 314.565C207.621 313.151 206.269 312.185 205.539 309.831C205.331 306.118 206.116 305.291 208.549 305.252Z" fill="white"/>
<path d="M202.103 295.08C202.923 296.551 203.32 297.453 203.124 300.15C201.229 299.495 200.453 299.013 200.106 297.738C200.129 295.688 200.635 295.198 202.103 295.08Z" fill="white"/>
<path d="M195.272 284.053C198.713 285.894 200.658 287.109 204.359 291.888C200.48 292.333 198.574 292.15 196.151 290.252C193.146 286.725 193.196 285.468 195.272 284.053Z" fill="white"/>
<path d="M207.093 292.403C208.21 294.404 208.763 295.622 208.705 299.174C206.313 298.179 205.319 297.489 204.803 295.78C204.69 293.072 205.284 292.459 207.093 292.403Z" fill="white"/>
<path d="M203.111 281.688C200.909 282.103 199.608 282.242 196.343 281.147C198.019 279.292 198.971 278.601 200.714 278.64C203.252 279.334 203.631 280.047 203.111 281.688Z" fill="white"/>
<path d="M210.95 282.977C209.778 283.197 209.085 283.26 207.318 282.523C208.183 281.399 208.681 280.986 209.615 281.04C210.985 281.516 211.2 281.965 210.95 282.977Z" fill="white"/>
<path d="M220.818 284.36C221.507 285.598 221.973 286.272 223.933 287.188C224.253 285.419 224.236 284.61 223.489 283.828C222.051 283.031 221.502 283.239 220.818 284.36Z" fill="white"/>
<path d="M217.623 305.252C216.079 308.017 215.309 309.699 215.312 314.565C218.55 313.151 219.903 312.185 220.633 309.831C220.841 306.118 220.056 305.291 217.623 305.252Z" fill="white"/>
<path d="M224.069 295.08C223.249 296.551 222.852 297.453 223.048 300.15C224.943 299.495 225.719 299.013 226.066 297.738C226.043 295.688 225.537 295.198 224.069 295.08Z" fill="white"/>
<path d="M230.9 284.053C227.459 285.894 225.514 287.109 221.813 291.888C225.692 292.333 227.598 292.15 230.021 290.252C233.026 286.725 232.976 285.468 230.9 284.053Z" fill="white"/>
<path d="M219.079 292.403C217.962 294.404 217.409 295.622 217.466 299.174C219.858 298.179 220.853 297.489 221.369 295.78C221.481 293.072 220.888 292.459 219.079 292.403Z" fill="white"/>
<path d="M223.061 281.688C225.263 282.103 226.564 282.242 229.829 281.147C228.153 279.292 227.201 278.601 225.458 278.64C222.92 279.334 222.541 280.047 223.061 281.688Z" fill="white"/>
<path d="M215.23 282.977C216.401 283.197 217.095 283.26 218.861 282.523C217.996 281.399 217.499 280.986 216.565 281.04C215.195 281.516 214.979 281.965 215.23 282.977Z" fill="white"/>
<path d="M201.873 214.773C201.084 213.356 200.552 212.585 198.308 211.536C197.941 213.561 197.961 214.487 198.816 215.383C200.462 216.294 201.09 216.056 201.873 214.773Z" fill="white"/>
<path d="M205.523 190.866C207.29 187.701 208.17 185.777 208.167 180.207C204.461 181.825 202.913 182.931 202.077 185.625C201.839 189.875 202.738 190.822 205.523 190.866Z" fill="white"/>
<path d="M198.144 202.509C199.083 200.825 199.537 199.793 199.314 196.705C197.145 197.455 196.256 198.006 195.86 199.466C195.885 201.813 196.465 202.373 198.144 202.509Z" fill="white"/>
<path d="M190.322 215.134C194.26 213.026 196.486 211.636 200.722 206.166C196.282 205.657 194.101 205.867 191.328 208.038C187.889 212.076 187.946 213.514 190.322 215.134Z" fill="white"/>
<path d="M203.853 205.572C205.131 203.282 205.764 201.888 205.698 197.823C202.961 198.962 201.822 199.752 201.232 201.708C201.103 204.807 201.782 205.508 203.853 205.572Z" fill="white"/>
<path d="M199.294 217.834C196.773 217.359 195.284 217.201 191.548 218.453C193.466 220.577 194.555 221.367 196.551 221.323C199.456 220.528 199.889 219.712 199.294 217.834Z" fill="white"/>
<path d="M208.261 216.36C206.92 216.109 206.125 216.036 204.104 216.879C205.094 218.166 205.664 218.639 206.732 218.577C208.301 218.033 208.547 217.518 208.261 216.36Z" fill="white"/>
<path d="M318.984 249.313C317.374 246.429 316.303 244.826 311.982 242.165C311.465 245.813 311.583 247.542 313.272 249.478C316.454 251.695 317.618 251.451 318.984 249.313Z" fill="white"/>
<path d="M321.745 261.541C320.542 259.389 319.724 258.202 316.214 256.374C315.574 259.237 315.578 260.575 316.901 261.986C319.471 263.532 320.47 263.278 321.745 261.541Z" fill="white"/>
<path d="M330.232 278.518C330.582 272.819 330.562 269.462 327.452 261.183C323.919 265.673 322.684 268.187 323.186 272.662C325.272 279.114 326.875 280.017 330.232 278.518Z" fill="white"/>
<path d="M337.489 284.63C333.297 283.846 330.808 283.551 324.384 285.093C327.386 288.125 329.136 289.273 332.499 289.313C337.473 288.362 338.291 287.257 337.489 284.63Z" fill="white"/>
<path d="M330.492 304.294C328.89 301.406 327.823 299.8 323.51 297.127C322.983 300.774 323.095 302.503 324.779 304.444C327.955 306.669 329.12 306.429 330.492 304.294Z" fill="white"/>
<path d="M333.22 316.527C332.023 314.372 331.208 313.183 327.703 311.345C327.055 314.207 327.055 315.544 328.374 316.958C330.941 318.512 331.94 318.261 333.22 316.527Z" fill="white"/>
<path d="M341.663 333.523C342.028 327.824 342.018 324.468 338.931 316.18C335.385 320.66 334.143 323.171 334.633 327.647C336.7 334.105 338.301 335.013 341.663 333.523Z" fill="white"/>
<path d="M348.901 339.657C344.711 338.86 342.222 338.559 335.794 340.083C338.788 343.123 340.534 344.276 343.897 344.325C348.875 343.388 349.695 342.285 348.901 339.657Z" fill="white"/>
<path d="M218.205 214.039C218.978 212.652 219.499 211.896 221.697 210.869C222.056 212.852 222.037 213.759 221.199 214.636C219.588 215.529 218.972 215.296 218.205 214.039Z" fill="white"/>
<path d="M214.625 190.622C212.894 187.522 212.031 185.637 212.035 180.181C215.665 181.767 217.181 182.85 217.999 185.488C218.232 189.651 217.352 190.578 214.625 190.622Z" fill="white"/>
<path d="M221.85 202.025C220.93 200.376 220.485 199.365 220.704 196.341C222.829 197.075 223.699 197.615 224.087 199.045C224.062 201.343 223.495 201.892 221.85 202.025Z" fill="white"/>
<path d="M229.511 214.383C225.654 212.319 223.474 210.957 219.326 205.6C223.674 205.101 225.81 205.306 228.526 207.433C231.894 211.388 231.839 212.796 229.511 214.383Z" fill="white"/>
<path d="M216.257 205.021C215.005 202.778 214.385 201.412 214.45 197.431C217.131 198.547 218.246 199.32 218.825 201.236C218.95 204.271 218.286 204.958 216.257 205.021Z" fill="white"/>
<path d="M220.725 217.031C223.193 216.566 224.652 216.411 228.312 217.638C226.433 219.718 225.366 220.492 223.411 220.449C220.566 219.67 220.141 218.871 220.725 217.031Z" fill="white"/>
<path d="M211.941 215.595C213.254 215.348 214.032 215.277 216.012 216.103C215.042 217.364 214.485 217.826 213.438 217.766C211.902 217.233 211.66 216.729 211.941 215.595Z" fill="white"/>
</svg>
