<svg width="438" height="955" viewBox="0 0 438 955" fill="none" xmlns="http://www.w3.org/2000/svg">
<rect width="437.63" height="954.658" fill="#AE2313"/>
<path d="M199.504 49.804C198.687 49.729 198.343 49.9816 197.705 50.7034C196.356 53.1614 198.029 56.5851 201.752 63.2954L205.348 65.5441L206.697 74.0887C209.036 76.3814 210.864 78.0802 213.028 79.935M199.504 49.804C195.339 36.7029 194.947 30.5296 200.404 23.2704C204.384 16.9129 206.968 13.8071 215.691 13.3767C227.792 12.4746 231.677 15.8361 236.828 24.1699C239.022 29.2287 239.416 32.0757 238.177 37.212M199.504 49.804L203.549 53.4018C203.568 47.5022 204.495 44.8163 206.697 40.36C208.707 34.6803 210.679 32.2972 214.342 28.2177C216.966 26.5557 218.576 26.2522 221.538 25.9691C223.962 26.2795 225.285 26.5006 227.384 27.3183C229.901 29.7242 231.214 30.9921 234.579 34.064C235.867 35.5267 236.676 36.172 238.177 37.212M238.177 37.212C238.992 42.5187 239.273 45.6124 239.077 51.6029C240.306 49.9843 240.982 49.5397 242.225 50.2538C243.721 51.7735 243.623 53.6869 242.674 57.8989C240.959 61.4066 240.085 62.2747 238.627 63.2955C236.962 67.8101 236.692 69.4302 235.929 72.7396C233.785 75.8032 231.978 77.8553 229.768 79.935M229.768 79.935C228.428 81.1966 226.939 82.4685 225.135 83.9824C222.399 84.5935 220.85 84.6607 217.94 83.9824C216.001 82.4269 214.443 81.1476 213.028 79.935M229.768 79.935C229.24 86.951 229.18 90.8887 230.082 97.9236C231.664 106.161 232.995 110.323 239.077 114.113C248.473 117.107 253.071 116.154 260.663 111.415C266.827 108.176 270.334 107.299 276.853 109.167C282.857 111.429 285.342 116.455 284.498 128.954C283.314 139.447 282.336 146.889 280.9 158.635L279.551 183.37M279.551 183.37C305.717 216.6 319.227 235.774 339.813 271.514C351.214 288.961 357.553 298.737 363.648 315.586C369.523 328.653 372.412 335.691 376.689 347.516C346.949 358.482 331.503 366.3 304.735 381.244C293.778 386.499 290.848 386.5 284.948 387.091C268.475 379.082 259.95 375.791 248.97 377.197M279.551 183.37L257.517 162.233M248.97 377.197C232.219 375.513 224.691 374.308 223.786 370.451C221.234 366.448 227.806 364.83 239.077 361.907C244.31 358.249 242.575 357.008 235.029 355.611C217.28 350.575 203.094 350.789 177.915 351.113C173.602 350.796 172.03 351.126 170.72 352.013M248.97 377.197C245.51 379.977 244.619 382.267 244.925 387.54C245.303 394.25 245.194 397.42 242.677 398.783C236.53 400.099 233.101 400.07 226.937 399.683C212.151 396.922 205.534 394.858 201.303 391.482M170.72 352.013C182.446 356.092 186.814 357.902 187.809 359.658C194.602 363.624 192.634 364.788 184.211 365.954C169.64 368.754 161.373 369.74 146.885 370.451C140.382 369.745 138.081 369.069 136.991 367.303C139.793 363.29 145.105 362.085 156.779 360.558C164.13 358.288 161.072 357.434 153.181 356.06C132.806 352.398 121.695 352.591 101.913 353.362C93.9283 353.236 88.7251 352.992 88.4218 354.711M170.72 352.013C172.59 323.211 175.632 307.966 182.415 281.408C181.871 269.694 182.523 264.452 184.211 255.774C186.092 244.306 187.269 238.236 190.51 230.59M88.4218 354.711C86.9967 356.263 89.9938 357.888 107.76 363.256M88.4218 354.711C94.4017 321.466 99.0405 302.775 111.36 269.265M107.76 363.256C110.406 366.892 91.1834 360.737 71.7849 359.658C67.5097 359.025 65.232 358.813 61.4414 358.759C64.8418 341.849 69.3903 332.092 77.6312 314.687C88.3027 289.734 94.7299 276.265 108.212 254.425C119.616 234.243 126.788 223.391 141.94 205.406C151.552 193.442 158.91 184.36 164.426 178.103M107.76 363.256C111.32 362.224 113.304 361.554 115.857 356.06C116.143 358.029 116.415 359.188 118.106 361.907C125.551 360.236 128.976 359.767 134.295 359.658C135.993 364.224 135.258 366.463 133.924 370.451M227.836 163.582C221.073 161.023 216.983 161.013 209.398 162.683C204.222 160.598 201.235 160.801 195.906 161.783C186.609 161.672 182.397 162.983 176.569 167.63C174.422 167.677 170.564 171.142 164.426 178.103M227.836 163.582C232.757 161.326 236.162 161.088 242.677 161.334C248.781 160.724 251.966 161.024 257.517 162.233M227.836 163.582L240.428 230.59L242.677 260.271C246.362 293.648 248.13 312.832 248.97 351.113M257.517 162.233C264.799 174.545 268.555 181.59 272.358 195.512C279.401 218.966 283.045 232.126 284.051 255.774M142.39 379.446C152.541 377.423 158.651 377.289 169.373 378.546C175.184 379.646 179.719 380.66 184.211 382.223M142.39 379.446L140.142 380.795C136.26 376.279 134.563 373.835 133.924 370.451M142.39 379.446C146.803 391.329 151.899 403.956 163.527 432.062C170.586 450.756 174.68 461.402 184.211 482.88C187.094 490.543 188.673 494.796 193.658 504.916C193.859 510.295 193.513 513.537 191.409 519.757C184.912 530.225 183.411 538.159 181.515 553.036C180.206 569.359 180.904 579.261 186.013 598.907C188.34 608.543 189.644 613.972 192.309 624.99C192.886 628.436 193.324 629.626 194.107 631.736C194.241 638.927 194.791 643.197 197.256 651.523C199.085 660.484 200.455 665.635 203.102 674.909L218.392 732.922L227.386 780.142L231.884 808.474L235.481 846.25V873.683L230.984 896.169L226.487 910.56V915.057M133.846 370.002C133.87 370.153 133.896 370.303 133.924 370.451M213.028 79.935C212.528 101.046 212.295 113.511 207.149 115.912C199.956 125.054 195.336 125.523 186.912 126.256C179.337 126.055 175.455 126.246 170.722 128.504C165.883 132.133 163.511 134.548 160.829 140.647C158.48 148.883 159.063 153.371 160.829 161.334L164.426 178.103M226.487 915.057H224.688C222.886 917.903 223.786 919.276 224.688 921.803C225.855 922.493 226.645 922.711 227.386 922.679M226.487 915.057C233.133 912.751 238.014 913.715 245.825 913.708C247.733 913.969 249.076 914.292 250.203 915.057M249.423 922.702C241.515 918.966 237.084 919.584 229.185 922.252C228.512 922.476 227.964 922.653 227.386 922.679M249.423 922.702C251.35 921.258 252.106 920.228 252.571 917.755C251.803 916.485 251.066 915.642 250.203 915.057M249.423 922.702C248.32 928.416 247.478 931.859 244.476 939.341C242.727 941.277 241.586 941.28 239.529 941.14C237.335 941.293 236.283 940.897 234.582 939.791C230.759 934.248 228.69 931.334 226.937 926.749L227.386 922.679M250.203 915.057C248.266 903.506 248.138 901.322 247.624 896.169L245.825 873.233C244.973 854.577 243.951 847.666 241.777 838.155L236.381 808.024L227.386 752.709L224.688 735.62L213.445 687.95M213.445 687.95C218.293 679.367 220.718 674.121 223.339 662.317C230.465 642.923 232.77 631.626 233.233 610.599C234.535 569.576 231.64 559.702 226.937 548.539C224.54 530.692 220.438 524.038 212.096 513.461C212.611 505.778 212.529 502.053 212.096 495.922C216.932 471.399 220.041 458.459 226.037 436.11C232.009 419.638 234.151 411.192 235.186 399.853M213.445 687.95L210.927 666.364M201.753 530.1C201.594 541.097 201.033 546.711 199.954 556.633L201.753 590.362L206.25 645.227L210.297 660.968L210.927 666.364M201.753 530.1C204.979 522.465 206.468 518.013 208.049 509.413V503.567C204.685 493.22 202.514 485.61 200.59 477.933M201.753 530.1C209.356 546.384 212.91 558.79 218.842 582.717L220.191 601.155C220.743 615.72 220.44 624.003 218.842 638.931C215.455 655.725 213.697 662.912 210.927 666.364M184.211 382.223C188.773 383.809 193.29 385.961 199.054 389.339C199.742 390.114 200.477 390.823 201.303 391.482M184.211 382.223L188.261 409.127L195.906 457.696C197.64 465.474 199.034 471.725 200.59 477.933M201.303 391.482C200.213 399.271 200.576 407.267 201.303 421.719C199.631 440.267 200.188 451.197 201.303 470.738L200.59 477.933" stroke="black" stroke-width="2.69829"/>
<path d="M201.955 63.149C198.232 56.4386 196.558 53.015 197.907 50.557C198.545 49.8352 198.889 49.5826 199.707 49.6575L203.751 53.2554C203.77 47.3558 204.698 44.6699 206.899 40.2136C208.91 34.5339 210.881 32.1508 214.545 28.0713C217.168 26.4092 218.778 26.1058 221.74 25.8227C224.164 26.1331 225.487 26.3542 227.586 27.1719C230.103 29.5778 231.416 30.8456 234.782 33.9176C236.069 35.3803 236.879 36.0256 238.38 37.0656C239.194 42.3723 239.475 45.466 239.279 51.4565C240.508 49.8378 241.184 49.3932 242.427 50.1074C243.923 51.627 243.826 53.5405 242.877 57.7525C241.161 61.2602 240.288 62.1283 238.829 63.1491C237.165 67.6637 236.895 69.2838 236.131 72.5931C233.987 75.6568 232.181 77.7088 229.971 79.7886C229.442 86.8046 229.383 90.7423 230.285 97.7772C231.867 106.014 233.197 110.177 239.279 113.967C248.676 116.961 253.274 116.007 260.865 111.269C267.029 108.029 270.537 107.153 277.055 109.02C283.06 111.283 285.544 116.309 284.7 128.808C283.516 139.301 282.538 146.743 281.103 158.489L277.055 180.524L257.72 162.087C252.169 160.877 248.984 160.578 242.879 161.187C236.365 160.942 232.96 161.18 228.039 163.436C221.276 160.876 217.185 160.866 209.6 162.536C204.425 160.452 201.438 160.654 196.109 161.637C186.811 161.526 182.6 162.837 176.771 167.483C174.624 167.531 170.766 170.996 164.629 177.957L161.031 161.187C159.265 153.225 158.683 148.737 161.031 140.5C163.714 134.402 166.085 131.987 170.925 128.358C175.657 126.099 179.539 125.908 187.114 126.109C195.539 125.376 200.158 124.908 207.352 115.766C212.436 113.393 212.724 101.197 213.212 80.5429L213.23 79.7886C211.067 77.9338 209.239 76.235 206.899 73.9423L205.55 65.3977L201.955 63.149Z" fill="#C1886C"/>
<path d="M142.391 380.117C152.542 378.095 158.652 377.96 169.374 379.217C175.185 380.317 179.72 381.332 184.212 382.894L188.262 409.798L195.907 458.367C197.64 466.145 199.035 472.396 200.591 478.604L201.303 471.409C200.188 451.869 199.631 440.938 201.303 422.39C200.577 407.938 200.213 399.942 201.303 392.153C205.534 395.529 212.151 397.593 226.937 400.354L235.187 400.524C234.152 411.863 232.009 420.309 226.038 436.781C220.041 459.13 216.933 472.07 212.097 496.593C212.529 502.724 212.612 506.45 212.097 514.132C220.439 524.71 224.541 531.363 226.937 549.21C231.64 560.373 234.535 570.247 233.233 611.27C232.771 632.297 230.466 643.594 223.339 662.988C220.719 674.792 218.293 680.038 213.446 688.622L224.689 736.291L227.387 753.381L236.381 808.696L241.778 838.827C243.951 848.337 244.973 855.249 245.825 873.904L247.624 896.84C248.139 901.993 248.266 904.177 250.204 915.728C251.066 916.313 251.803 917.156 252.571 918.426C252.106 920.899 251.35 921.929 249.423 923.373C248.32 929.087 247.478 932.53 244.476 940.013C242.727 941.948 241.586 941.951 239.529 941.811C237.335 941.964 236.283 941.568 234.582 940.462L234.142 939.825C230.598 934.689 228.622 931.826 226.937 927.421L227.387 923.35C226.645 923.382 225.855 923.164 224.689 922.474C223.787 919.947 222.887 918.574 224.689 915.728H226.487V911.231L230.985 896.84L235.482 874.354V846.921L231.884 809.145L227.387 780.813L218.393 733.593L203.102 675.58C200.455 666.306 199.086 661.155 197.256 652.195C194.791 643.868 194.241 639.598 194.108 632.407C193.324 630.297 192.886 629.107 192.309 625.661C189.645 614.644 188.34 609.214 186.013 599.578C180.904 579.932 180.206 570.031 181.516 553.707C183.411 538.83 184.913 530.896 191.41 520.428C193.513 514.208 193.859 510.966 193.658 505.587C188.758 495.639 187.149 491.361 184.357 483.938L184.212 483.551C174.68 462.073 170.586 451.427 163.527 432.733C151.9 404.627 146.803 392 142.391 380.117Z" fill="#C1886C"/>
<path d="M206.249 640.135L210.297 655.875L210.926 661.272C213.696 657.82 215.454 650.632 218.841 633.839C220.439 618.91 220.743 610.627 220.19 596.063L218.841 577.625C212.91 553.697 209.356 541.291 201.752 525.008C201.593 536.004 201.032 541.618 199.953 551.541L201.752 585.27L206.249 640.135Z" fill="#AE2313"/>
<path d="M199.518 23.2704C194.061 30.5296 194.453 36.7029 198.618 49.804L202.663 53.4018C202.682 47.5022 203.609 44.8163 205.811 40.36C207.822 34.6803 209.793 32.2972 213.456 28.2177C216.08 26.5557 217.69 26.2522 220.652 25.9691C223.076 26.2795 224.399 26.5006 226.498 27.3183C229.015 29.7242 230.328 30.9921 233.693 34.064C234.981 35.5267 235.79 36.172 237.291 37.212C238.53 32.0757 238.136 29.2287 235.942 24.1699C230.791 15.8361 226.906 12.4746 214.805 13.3767C206.082 13.8071 203.498 16.9129 199.518 23.2704Z" fill="#4C2F21"/>
<path d="M279.551 183.202C305.717 216.433 319.227 235.606 339.813 271.346C351.214 288.794 357.553 298.57 363.648 315.418C369.523 328.485 372.412 335.523 376.689 347.348C346.949 358.314 331.503 366.132 304.735 381.077C294.854 383.937 290.067 386.974 285.849 386.502C270.447 378.171 262.325 375.468 249.87 378.378C245.726 381.993 248.374 395.638 244.925 397.744C241.477 399.851 203.617 400.456 201.753 388.3C187.347 390.7 193.526 382.517 182.865 380.627C178.373 379.065 175.184 379.478 169.373 378.378C158.651 377.121 152.541 377.256 142.39 379.278L140.142 380.627C136.26 376.112 134.563 373.668 133.924 370.284C135.258 366.295 135.993 364.056 134.295 359.49C128.976 359.599 125.551 360.068 118.106 361.739C116.415 359.02 116.143 357.862 115.857 355.893C113.304 361.386 111.32 362.057 107.76 363.088C110.406 366.724 91.1834 360.569 71.7849 359.49C67.5097 358.857 65.232 358.645 61.4414 358.591C64.8418 341.681 69.3903 331.925 77.6312 314.519C88.3027 289.566 94.7299 276.097 108.212 254.257C119.616 234.076 126.788 223.223 141.94 205.238C151.552 193.274 158.91 184.193 164.426 177.936C170.564 170.974 174.422 167.51 176.569 167.462C182.397 162.815 186.609 161.504 195.906 161.616C201.235 160.633 204.222 160.43 209.398 162.515C216.983 160.845 221.073 160.855 227.836 163.414C232.757 161.159 236.162 160.921 242.677 161.166C248.781 160.556 251.966 160.856 257.517 162.065L279.551 183.202Z" fill="#301212"/>
<path d="M218.508 273.291C221.009 255.828 222.839 246.611 222.856 225.817C230.356 231.46 233.578 236.689 236.667 251.596C239.29 266.299 240.349 274.388 241.032 288.366L233.601 282.875L225.296 276.279L218.508 273.291Z" fill="#AE2313"/>
<path d="M216.18 274.197C213.678 256.735 211.849 247.517 211.832 226.723C204.331 232.366 201.109 237.595 198.02 252.502C195.397 267.205 194.339 275.294 193.655 289.272L201.087 283.781L209.391 277.185L216.18 274.197Z" fill="#AE2313"/>
<path d="M253.113 189.336L236.398 161.25L236.684 185.355L242.87 202.791C245.941 216.232 248.305 223.348 247.844 239.097C252.438 246.935 253.651 250.645 256.193 257.45C265.191 276.385 271.994 295.028 275.203 287.529L276.527 278.22L280.501 270.495C278.148 260.354 276.481 254.795 272.072 245.409L271.94 234.232C274.923 233.487 275.713 231.67 275.913 226.508C275.382 219.29 273.449 215.392 268.885 208.543L253.113 189.336Z" fill="#A86963"/>
<path d="M283.975 239.192C280.032 233.755 279.419 231.579 280.523 228.9C292.622 235.547 298.323 242.518 308.429 255.138L328.544 286.434C328.954 298.682 327.256 303.83 321.456 310.538L313.308 295.472L299.89 267.317L283.975 239.192Z" fill="#E87B75"/>
<path d="M281.781 268.22C280.9 262 280.697 258.938 281.628 255.362C284.613 252.162 291.345 264.631 304.86 291.121L329.168 336.646L312.172 350.913C309.655 339.873 307.732 334.919 303.964 326.898L292.059 294.756C287.384 284.292 285.198 278.492 281.781 268.22Z" fill="#F3A49C"/>
<path d="M282.139 318.778L280.574 276.773C282.441 278.77 283.291 279.156 294.057 314.475C300.951 327.61 302.45 335.915 304.919 350.999L284.04 349.098L282.139 318.778Z" fill="#A16A5A"/>
<path d="M259.73 336.728C262.144 319.879 263.909 310.985 263.926 290.92C271.163 296.366 274.272 301.411 277.252 315.795C279.784 329.982 280.805 337.787 281.465 351.275L274.293 345.976L266.28 339.612L259.73 336.728Z" fill="#AE2313"/>
<path d="M258.131 282.589C250.185 262.493 246.692 254.211 245.614 255.419C243.118 263.292 243.475 270.711 245.99 287.152C244.835 294.461 243.291 298.084 241.179 304.886L236.632 314.581L236.775 326.632C244.576 333.44 248.785 339.321 256.535 339.521C257.869 336.918 258.021 330.443 258.591 321.418C258.102 306.639 257.734 298.468 258.131 282.589Z" fill="#E8100C"/>
<path d="M247.564 172.647C242.347 167.355 241.71 165.302 245.68 163.672C249.776 164.997 252.252 165.835 257.102 167.565L271.743 183.102L285.234 201.606C290.474 207.065 293.407 210.824 298.59 218.77C297.836 222.759 296.46 224.613 292.173 227.171C285.021 222.374 281.505 219.257 276.829 212.314L262.528 195.43C255.672 188.345 252.241 183.632 247.564 172.647Z" fill="#FD9090"/>
<path d="M181.302 188.814L196.934 160.859L197.214 184.526L191.593 201.782C188.913 215.046 186.775 222.086 187.59 237.533C183.296 245.332 182.2 249.001 179.882 255.74C171.556 274.533 165.361 292.99 162.06 285.703L160.554 276.597L156.503 269.108C158.56 259.099 160.055 253.605 164.132 244.29L164.002 233.317C161.078 232.655 160.266 230.89 159.952 225.827C160.302 218.73 162.094 214.86 166.382 208.032L181.302 188.814Z" fill="#A86963"/>
<path d="M152.344 238.461C156.113 233.033 156.668 230.883 155.514 228.279C143.715 235.086 138.246 242.061 128.557 254.685L109.414 285.872C109.295 297.903 111.093 302.916 116.981 309.365L124.679 294.386L137.277 266.438L152.344 238.461Z" fill="#E87B75"/>
<path d="M155.201 266.907C155.926 260.781 156.055 257.771 155.051 254.283C152.027 251.213 145.666 263.608 132.932 289.924L109.977 335.175L127.105 348.781C129.333 337.886 131.117 332.979 134.653 325.018L145.665 293.192C150.04 282.812 152.064 277.068 155.201 266.907Z" fill="#F3A49C"/>
<path d="M156.01 316.538L156.582 275.273C154.772 277.277 153.935 277.676 144.054 312.594C137.504 325.647 136.208 333.835 134.106 348.697L154.831 346.342L156.01 316.538Z" fill="#A16A5A"/>
<path d="M178.127 333.637C175.403 317.155 173.49 308.466 173.01 288.773C166.137 294.285 163.247 299.309 160.698 313.496C158.578 327.479 157.771 335.164 157.445 348.417L164.257 343.051L171.859 336.618L178.127 333.637Z" fill="#AE2313"/>
<path d="M178.741 280.455C186.072 260.546 189.307 252.336 190.394 253.496C193.027 261.166 192.849 268.455 190.763 284.651C192.068 291.798 193.667 295.318 195.898 301.945L200.588 311.355L200.728 323.186C193.23 330.05 189.236 335.92 181.634 336.297C180.264 333.773 179.964 327.422 179.193 318.577C179.33 304.06 179.5 296.032 178.741 280.455Z" fill="#E8100C"/>
<path d="M186.239 172.304C191.236 166.989 191.813 164.959 187.879 163.452C183.889 164.848 181.479 165.728 176.759 167.539L162.751 183.13L149.941 201.606C144.924 207.086 142.133 210.843 137.231 218.763C138.065 222.661 139.458 224.448 143.725 226.86C150.634 221.985 154.012 218.843 158.439 211.92L172.083 195.015C178.647 187.901 181.904 183.195 186.239 172.304Z" fill="#FD9090"/>
<path d="M132.698 230.218L130.799 224.829C128.029 226.46 127.024 227.711 125.817 230.3C125.263 235.95 125.618 238.471 127.898 241.362C133.154 237.675 134.64 235.218 134.877 230.192L132.698 230.218Z" fill="white"/>
<path d="M118.131 253.531L116.232 248.141C113.462 249.773 112.458 251.023 111.251 253.612C110.696 259.263 111.051 261.784 113.332 264.675C118.587 260.987 120.073 258.53 120.31 253.505L118.131 253.531Z" fill="white"/>
<path d="M106.401 272.066C106.403 269.251 106.276 267.805 105.214 266.099C102.286 268.389 101.755 271.396 101.786 274.024C101.817 276.652 100.306 277.872 101.851 279.551L106.401 272.066Z" fill="white"/>
<path d="M100.554 294.208C100.482 289.506 100.22 286.773 96.5986 280.522C93.4886 284.746 92.469 286.993 93.2807 290.561C95.7742 295.486 97.3982 295.966 100.554 294.208Z" fill="white"/>
<path d="M109.155 307.354C109.104 304.004 108.918 302.057 106.337 297.602C104.121 300.613 103.395 302.214 103.973 304.756C105.75 308.266 106.907 308.608 109.155 307.354Z" fill="white"/>
<path d="M117.727 346.323C115.675 343.228 114.336 341.549 109.256 339.361C108.983 343.877 109.26 345.932 111.322 347.867C115.084 349.788 116.372 349.22 117.727 346.323Z" fill="white"/>
<path d="M87.1414 346.161C85.9142 344.311 85.1049 343.315 81.931 342.122C81.6453 344.925 81.7708 346.187 83.033 347.319C85.3763 348.388 86.2086 347.996 87.1414 346.161Z" fill="white"/>
<path d="M105.743 319.601C105.703 317.1 105.543 315.646 103.286 312.325C101.338 314.576 100.698 315.772 101.202 317.669C102.754 320.286 103.769 320.54 105.743 319.601Z" fill="white"/>
<path d="M105.164 338.848C108.217 333.924 109.813 330.916 111.015 322.024C105.7 324.337 103.388 325.989 101.685 330.228C100.446 336.995 101.444 338.573 105.164 338.848Z" fill="white"/>
<path d="M114.141 319.331C114.089 315.93 113.894 313.954 111.179 309.432C108.846 312.489 108.08 314.115 108.688 316.696C110.556 320.258 111.774 320.605 114.141 319.331Z" fill="white"/>
<path d="M89.5806 313.138C91.6563 308.629 92.6535 305.909 92.057 298.306C87.1695 300.909 85.1742 302.583 84.3201 306.35C84.4474 312.176 85.7746 313.374 89.5806 313.138Z" fill="white"/>
<path d="M80.7438 329.805C81.8465 327.406 82.3565 325.949 81.7231 321.758C78.8418 323.013 77.6872 323.86 77.3015 325.895C77.5862 329.095 78.4363 329.799 80.7438 329.805Z" fill="white"/>
<path d="M71.4177 347.873C76.5692 344.577 79.4604 342.442 84.6605 334.525C78.546 334.303 75.5911 334.821 72.0367 338.08C67.771 343.957 68.0016 345.914 71.4177 347.873Z" fill="white"/>
<path d="M88.8713 333.385C90.3724 330.123 91.088 328.152 90.5662 322.61C86.9501 324.456 85.4801 325.655 84.8818 328.389C85.0359 332.632 86.0371 333.518 88.8713 333.385Z" fill="white"/>
<path d="M83.9462 350.614C80.4547 350.234 78.4052 350.176 73.4376 352.284C76.2823 354.978 77.8535 355.941 80.5725 355.668C84.4534 354.274 84.9588 353.115 83.9462 350.614Z" fill="white"/>
<path d="M96.0347 347.648C94.1774 347.447 93.0855 347.432 90.4156 348.798C91.9042 350.45 92.7318 351.034 94.1841 350.836C96.2673 349.927 96.5487 349.198 96.0347 347.648Z" fill="white"/>
<path d="M108.707 347.803C105.339 345.086 103.257 343.626 96.7774 341.915C98.0014 346.067 99.0124 347.934 101.997 349.587C106.899 351.129 108.16 350.535 108.707 347.803Z" fill="white"/>
<path d="M327.655 351.327C330.755 348.949 332.695 347.741 339.027 347.378C338.231 352.036 337.41 354.009 334.583 355.212C329.819 355.784 328.49 354.743 327.655 351.327Z" fill="white"/>
<path d="M316.276 361.367C317.869 360.148 318.885 359.553 322.441 359.76C322.304 362.502 321.972 363.632 320.454 364.164C317.799 364.188 316.977 363.474 316.276 361.367Z" fill="white"/>
<path d="M303.637 372.118C304.973 367.069 305.958 364.2 311.097 358.536C312.925 364.016 313.292 366.742 311.557 370.348C307.851 374.918 306.173 374.953 303.637 372.118Z" fill="white"/>
<path d="M353.345 312.332C352.19 307.897 351.31 305.369 346.435 300.287C344.467 305.007 344.021 307.37 345.615 310.561C349.115 314.649 350.764 314.728 353.345 312.332Z" fill="white"/>
<path d="M356.791 329.412C356.175 327.053 355.687 325.714 352.782 323.09C351.457 325.672 351.128 326.953 352.043 328.633C354.119 330.752 355.138 330.758 356.791 329.412Z" fill="white"/>
<path d="M360.695 347.774C362.447 342.406 363.263 339.189 362.346 330.49C357.847 333.909 356.039 336.008 355.407 340.416C355.798 347.111 357.109 348.374 360.695 347.774Z" fill="white"/>
<path d="M364.69 327.215C363.854 324.006 363.212 322.18 359.596 318.526C358.093 321.96 357.744 323.677 358.916 325.98C361.509 328.922 362.743 328.968 364.69 327.215Z" fill="white"/>
<path d="M314.531 243.408C312.537 237.628 311.139 234.316 304.664 227.404C303.013 233.295 302.823 236.289 305.157 240.509C309.869 246.035 311.826 246.27 314.531 243.408Z" fill="white"/>
<path d="M209.199 291.315C208.5 292.571 208.028 293.255 206.039 294.184C205.714 292.39 205.732 291.569 206.489 290.775C207.948 289.967 208.505 290.178 209.199 291.315Z" fill="white"/>
<path d="M212.436 312.51C214.003 315.315 214.783 317.021 214.781 321.959C211.495 320.524 210.123 319.544 209.382 317.156C209.172 313.389 209.968 312.549 212.436 312.51Z" fill="white"/>
<path d="M205.896 302.189C206.728 303.682 207.13 304.597 206.932 307.333C205.009 306.669 204.222 306.18 203.87 304.886C203.893 302.806 204.407 302.309 205.896 302.189Z" fill="white"/>
<path d="M198.974 290.999C202.464 292.867 204.438 294.1 208.192 298.948C204.257 299.399 202.324 299.213 199.866 297.288C196.817 293.709 196.867 292.435 198.974 290.999Z" fill="white"/>
<path d="M210.96 299.475C212.092 301.505 212.653 302.741 212.595 306.344C210.168 305.334 209.159 304.634 208.636 302.9C208.522 300.153 209.124 299.531 210.96 299.475Z" fill="white"/>
<path d="M206.919 288.608C204.685 289.029 203.365 289.169 200.053 288.059C201.753 286.176 202.719 285.476 204.488 285.515C207.063 286.22 207.447 286.943 206.919 288.608Z" fill="white"/>
<path d="M214.875 289.912C213.686 290.135 212.982 290.2 211.19 289.453C212.068 288.312 212.573 287.893 213.52 287.948C214.91 288.43 215.129 288.886 214.875 289.912Z" fill="white"/>
<path d="M224.883 291.315C225.582 292.571 226.054 293.255 228.043 294.184C228.368 292.39 228.35 291.569 227.593 290.775C226.134 289.967 225.577 290.178 224.883 291.315Z" fill="white"/>
<path d="M221.642 312.51C220.075 315.315 219.295 317.021 219.298 321.959C222.583 320.524 223.955 319.544 224.696 317.156C224.906 313.389 224.11 312.549 221.642 312.51Z" fill="white"/>
<path d="M228.183 302.189C227.35 303.682 226.948 304.597 227.146 307.333C229.069 306.669 229.856 306.18 230.208 304.886C230.185 302.806 229.672 302.309 228.183 302.189Z" fill="white"/>
<path d="M235.116 290.999C231.626 292.867 229.652 294.1 225.898 298.948C229.833 299.399 231.766 299.213 234.224 297.288C237.273 293.709 237.223 292.435 235.116 290.999Z" fill="white"/>
<path d="M223.122 299.475C221.99 301.505 221.429 302.741 221.487 306.344C223.914 305.334 224.923 304.634 225.446 302.9C225.56 300.153 224.958 299.531 223.122 299.475Z" fill="white"/>
<path d="M227.167 288.608C229.401 289.029 230.721 289.169 234.033 288.059C232.333 286.176 231.367 285.476 229.598 285.515C227.023 286.22 226.639 286.943 227.167 288.608Z" fill="white"/>
<path d="M219.211 289.912C220.4 290.135 221.104 290.2 222.896 289.453C222.018 288.312 221.513 287.893 220.566 287.948C219.176 288.43 218.957 288.886 219.211 289.912Z" fill="white"/>
<path d="M205.664 220.724C204.864 219.287 204.324 218.504 202.048 217.44C201.675 219.494 201.695 220.434 202.563 221.342C204.232 222.267 204.87 222.026 205.664 220.724Z" fill="white"/>
<path d="M209.365 196.469C211.158 193.258 212.051 191.306 212.048 185.655C208.288 187.297 206.717 188.419 205.87 191.152C205.628 195.463 206.54 196.424 209.365 196.469Z" fill="white"/>
<path d="M201.882 208.276C202.834 206.567 203.295 205.52 203.068 202.388C200.867 203.148 199.966 203.708 199.564 205.189C199.59 207.569 200.177 208.138 201.882 208.276Z" fill="white"/>
<path d="M193.948 221.082C197.943 218.944 200.202 217.533 204.499 211.984C199.994 211.468 197.782 211.68 194.969 213.883C191.479 217.979 191.537 219.439 193.948 221.082Z" fill="white"/>
<path d="M207.678 211.38C208.974 209.057 209.616 207.642 209.55 203.518C206.772 204.674 205.617 205.475 205.018 207.46C204.888 210.604 205.576 211.315 207.678 211.38Z" fill="white"/>
<path d="M203.049 223.823C200.492 223.341 198.981 223.181 195.19 224.452C197.137 226.606 198.242 227.408 200.266 227.363C203.213 226.556 203.653 225.729 203.049 223.823Z" fill="white"/>
<path d="M212.15 222.332C210.789 222.077 209.983 222.003 207.932 222.859C208.937 224.164 209.515 224.644 210.599 224.581C212.19 224.029 212.44 223.507 212.15 222.332Z" fill="white"/>
<path d="M324.481 255.763C322.848 252.838 321.762 251.212 317.378 248.512C316.854 252.213 316.973 253.967 318.687 255.931C321.915 258.18 323.096 257.933 324.481 255.763Z" fill="white"/>
<path d="M327.28 268.164C326.06 265.98 325.23 264.777 321.669 262.921C321.02 265.827 321.023 267.183 322.365 268.615C324.973 270.184 325.987 269.926 327.28 268.164Z" fill="white"/>
<path d="M335.893 285.385C336.247 279.603 336.227 276.198 333.072 267.798C329.488 272.353 328.234 274.904 328.744 279.444C330.86 285.99 332.487 286.906 335.893 285.385Z" fill="white"/>
<path d="M343.257 291.586C339.004 290.79 336.478 290.491 329.961 292.055C333.007 295.132 334.782 296.296 338.194 296.337C343.241 295.372 344.07 294.251 343.257 291.586Z" fill="white"/>
<path d="M336.153 311.542C334.528 308.612 333.446 306.983 329.07 304.271C328.535 307.971 328.649 309.725 330.358 311.694C333.579 313.952 334.761 313.708 336.153 311.542Z" fill="white"/>
<path d="M338.922 323.947C337.708 321.76 336.881 320.554 333.326 318.689C332.669 321.593 332.668 322.949 334.007 324.385C336.61 325.961 337.624 325.706 338.922 323.947Z" fill="white"/>
<path d="M347.49 341.194C347.861 335.413 347.85 332.008 344.718 323.6C341.122 328.145 339.861 330.692 340.358 335.233C342.456 341.785 344.08 342.706 347.49 341.194Z" fill="white"/>
<path d="M354.832 347.417C350.581 346.61 348.057 346.304 341.536 347.85C344.573 350.935 346.344 352.104 349.756 352.154C354.806 351.203 355.638 350.085 354.832 347.417Z" fill="white"/>
<path d="M222.231 219.965C223.015 218.558 223.544 217.791 225.773 216.749C226.138 218.761 226.118 219.681 225.269 220.571C223.634 221.477 223.009 221.24 222.231 219.965Z" fill="white"/>
<path d="M218.605 196.214C216.849 193.069 215.974 191.157 215.977 185.622C219.66 187.23 221.198 188.329 222.028 191.006C222.265 195.229 221.372 196.17 218.605 196.214Z" fill="white"/>
<path d="M225.932 207.783C224.999 206.109 224.548 205.084 224.77 202.016C226.925 202.761 227.808 203.309 228.202 204.759C228.177 207.091 227.601 207.648 225.932 207.783Z" fill="white"/>
<path d="M233.703 220.321C229.79 218.228 227.577 216.845 223.369 211.411C227.78 210.905 229.947 211.113 232.703 213.271C236.12 217.283 236.064 218.712 233.703 220.321Z" fill="white"/>
<path d="M220.256 210.827C218.986 208.552 218.357 207.166 218.422 203.127C221.143 204.259 222.274 205.043 222.861 206.987C222.988 210.066 222.314 210.763 220.256 210.827Z" fill="white"/>
<path d="M224.792 223.013C227.296 222.541 228.776 222.383 232.489 223.628C230.583 225.738 229.5 226.523 227.518 226.479C224.631 225.689 224.2 224.879 224.792 223.013Z" fill="white"/>
<path d="M215.881 221.543C217.214 221.293 218.003 221.221 220.012 222.059C219.028 223.337 218.462 223.807 217.4 223.745C215.841 223.205 215.597 222.693 215.881 221.543Z" fill="white"/>
</svg>
