<svg width="438" height="955" viewBox="0 0 438 955" fill="none" xmlns="http://www.w3.org/2000/svg">
<rect width="437.63" height="954.658" fill="#102997"/>
<path d="M199.436 49.7868C198.619 49.7119 198.275 49.9644 197.637 50.6858C196.289 53.1427 197.961 56.5648 201.683 63.272L205.277 65.5196L206.625 74.0602C208.963 76.3519 210.79 78.0499 212.953 79.9038M199.436 49.7868C195.272 36.6919 194.88 30.5215 200.335 23.2657C204.313 16.9112 206.896 13.8068 215.615 13.3766C227.71 12.475 231.594 15.8349 236.742 24.1647C238.935 29.2212 239.329 32.0669 238.09 37.2008M199.436 49.7868L203.479 53.383C203.498 47.4861 204.424 44.8015 206.625 40.3473C208.635 34.6702 210.605 32.2883 214.267 28.2107C216.889 26.5494 218.498 26.2461 221.459 25.9632C223.882 26.2734 225.204 26.4944 227.302 27.3117C229.818 29.7165 231.131 30.9837 234.494 34.0543C235.781 35.5163 236.59 36.1612 238.09 37.2008M238.09 37.2008C238.905 42.505 239.186 45.5973 238.989 51.585C240.218 49.967 240.894 49.5227 242.136 50.2364C243.632 51.7554 243.534 53.668 242.585 57.878C240.871 61.3841 239.998 62.2517 238.54 63.2721C236.876 67.7845 236.606 69.4039 235.843 72.7117C233.7 75.7739 231.895 77.825 229.686 79.9038M229.686 79.9038C228.346 81.1648 226.857 82.436 225.055 83.9493C222.32 84.5601 220.771 84.6273 217.863 83.9493C215.925 82.3945 214.367 81.1158 212.953 79.9038M229.686 79.9038C229.157 86.9165 229.098 90.8523 229.999 97.884C231.581 106.117 232.911 110.278 238.989 114.066C248.382 117.059 252.978 116.105 260.566 111.369C266.727 108.131 270.233 107.255 276.748 109.122C282.75 111.383 285.233 116.407 284.389 128.9C283.206 139.388 282.229 146.827 280.793 158.567L279.445 183.29M279.445 183.29C305.599 216.505 319.102 235.669 339.679 271.393C351.074 288.832 357.411 298.604 363.502 315.444C369.375 328.505 372.263 335.54 376.538 347.359C346.812 358.32 331.373 366.135 304.617 381.072C293.665 386.325 290.737 386.325 284.839 386.916C268.374 378.911 259.853 375.621 248.879 377.027M279.445 183.29L257.422 162.163M248.879 377.027C232.135 375.343 224.611 374.139 223.706 370.284C221.156 366.283 227.724 364.665 238.989 361.743C244.22 358.088 242.486 356.847 234.944 355.45C217.203 350.417 203.023 350.631 177.857 350.955C173.546 350.638 171.974 350.968 170.665 351.854M248.879 377.027C245.42 379.805 244.529 382.094 244.836 387.365C245.213 394.072 245.104 397.24 242.588 398.603C236.444 399.917 233.016 399.889 226.855 399.502C212.076 396.742 205.462 394.679 201.234 391.305M170.665 351.854C182.385 355.932 186.751 357.74 187.746 359.496C194.536 363.46 192.568 364.623 184.15 365.789C169.586 368.588 161.322 369.573 146.841 370.284C140.342 369.578 138.041 368.902 136.952 367.137C139.753 363.126 145.062 361.922 156.73 360.395C164.078 358.126 161.021 357.273 153.134 355.9C132.769 352.24 121.663 352.432 101.89 353.203C93.9092 353.077 88.7084 352.833 88.4053 354.551M170.665 351.854C172.534 323.066 175.575 307.828 182.354 281.282C181.81 269.574 182.462 264.334 184.15 255.66C186.029 244.198 187.206 238.131 190.445 230.488M88.4053 354.551C86.9808 356.102 89.9765 357.727 107.734 363.092M88.4053 354.551C94.3824 321.322 99.019 302.64 111.333 269.145M107.734 363.092C110.379 366.726 91.1656 360.574 71.7761 359.496C67.503 358.863 65.2263 358.651 61.4375 358.597C64.8363 341.695 69.3827 331.943 77.6197 314.545C88.2862 289.604 94.7104 276.142 108.186 254.312C119.585 234.14 126.753 223.293 141.899 205.316C151.506 193.357 158.86 184.28 164.374 178.026M107.734 363.092C111.293 362.061 113.275 361.391 115.828 355.9C116.114 357.868 116.386 359.026 118.075 361.743C125.517 360.073 128.94 359.605 134.257 359.496C135.955 364.059 135.22 366.297 133.886 370.284M227.754 163.512C220.995 160.954 216.906 160.943 209.325 162.613C204.151 160.529 201.166 160.732 195.839 161.714C186.547 161.603 182.337 162.913 176.511 167.557C174.365 167.605 170.509 171.068 164.374 178.026M227.754 163.512C232.673 161.257 236.076 161.019 242.588 161.264C248.69 160.655 251.873 160.954 257.422 162.163M227.754 163.512L240.34 230.488L242.588 260.155C246.271 293.516 248.039 312.692 248.879 350.955M257.422 162.163C264.7 174.469 268.454 181.512 272.255 195.427C279.295 218.869 282.937 232.023 283.942 255.66M142.348 379.274C152.495 377.253 158.602 377.118 169.319 378.375C175.127 379.474 179.66 380.488 184.15 382.05M142.348 379.274L140.101 380.623C136.221 376.109 134.525 373.666 133.886 370.284M142.348 379.274C146.759 391.152 151.853 403.773 163.475 431.866C170.53 450.551 174.623 461.192 184.15 482.66C187.031 490.32 188.609 494.571 193.592 504.686C193.793 510.062 193.447 513.303 191.344 519.52C184.85 529.983 183.349 537.913 181.455 552.783C180.146 569.099 180.844 578.996 185.95 598.633C188.276 608.265 189.58 613.691 192.243 624.704C192.821 628.148 193.258 629.338 194.041 631.446C194.175 638.634 194.724 642.902 197.188 651.225C199.017 660.181 200.386 665.329 203.032 674.599L218.315 732.585L227.305 779.783L231.8 808.102L235.396 845.86V873.28L230.901 895.755L226.406 910.139V914.635M133.808 369.834C133.832 369.986 133.858 370.136 133.886 370.284M212.953 79.9038C212.454 101.005 212.221 113.464 207.077 115.864C199.887 125.002 195.27 125.47 186.849 126.203C179.278 126.002 175.397 126.193 170.667 128.45C165.83 132.078 163.459 134.491 160.778 140.587C158.431 148.82 159.013 153.306 160.778 161.264L164.374 178.026M226.406 914.635H224.608C222.807 917.479 223.706 918.852 224.608 921.377C225.774 922.067 226.563 922.285 227.305 922.253M226.406 914.635C233.048 912.33 237.927 913.294 245.735 913.286C247.642 913.547 248.984 913.87 250.111 914.635M249.331 922.276C241.426 918.541 236.998 919.159 229.103 921.827C228.429 922.05 227.882 922.227 227.305 922.253M249.331 922.276C251.257 920.833 252.013 919.803 252.477 917.332C251.71 916.062 250.973 915.219 250.111 914.635M249.331 922.276C248.228 927.987 247.387 931.429 244.386 938.908C242.638 940.842 241.498 940.845 239.441 940.706C237.249 940.859 236.197 940.462 234.497 939.357C230.676 933.817 228.608 930.904 226.855 926.322L227.305 922.253M250.111 914.635C248.174 903.089 248.047 900.906 247.533 895.755L245.735 872.831C244.883 854.183 243.861 847.276 241.689 837.769L236.295 807.652L227.305 752.363L224.608 735.282L213.37 687.634M213.37 687.634C218.215 679.055 220.64 673.811 223.259 662.013C230.382 642.628 232.686 631.336 233.148 610.32C234.45 569.316 231.556 559.446 226.855 548.288C224.46 530.45 220.36 523.799 212.022 513.227C212.536 505.548 212.454 501.824 212.022 495.696C216.855 471.184 219.963 458.251 225.956 435.912C231.925 419.448 234.067 411.006 235.101 399.672M213.37 687.634L210.853 666.058M201.683 529.858C201.524 540.85 200.964 546.461 199.885 556.379L201.683 590.092L206.178 644.932L210.224 660.664L210.853 666.058M201.683 529.858C204.908 522.227 206.397 517.776 207.976 509.181V503.337C204.614 492.995 202.444 485.388 200.521 477.716M201.683 529.858C209.283 546.134 212.836 558.534 218.764 582.45L220.113 600.88C220.665 615.437 220.361 623.717 218.764 638.638C215.379 655.424 213.622 662.608 210.853 666.058M184.15 382.05C188.71 383.636 193.225 385.786 198.986 389.163C199.673 389.937 200.408 390.646 201.234 391.305M184.15 382.05L188.198 408.941L195.839 457.488C197.572 465.262 198.966 471.51 200.521 477.716M201.234 391.305C200.144 399.09 200.507 407.083 201.234 421.528C199.562 440.067 200.119 450.992 201.234 470.524L200.521 477.716" stroke="black" stroke-width="2.69703"/>
<path d="M201.884 63.1307C198.163 56.4235 196.49 53.0014 197.839 50.5445C198.476 49.8231 198.82 49.5706 199.637 49.6455L203.68 53.2417C203.699 47.3448 204.626 44.6602 206.826 40.206C208.836 34.5289 210.807 32.147 214.468 28.0694C217.09 26.4081 218.699 26.1048 221.66 25.8219C224.083 26.1321 225.405 26.3531 227.504 27.1704C230.019 29.5752 231.332 30.8424 234.696 33.913C235.983 35.375 236.792 36.0199 238.292 37.0595C239.106 42.3637 239.387 45.456 239.191 51.4437C240.42 49.8257 241.095 49.3814 242.337 50.0952C243.833 51.6141 243.735 53.5267 242.787 57.7367C241.072 61.2428 240.199 62.1104 238.741 63.1308C237.078 67.6432 236.808 69.2626 236.044 72.5704C233.901 75.6326 232.096 77.6837 229.887 79.7625C229.359 86.7752 229.299 90.7111 230.201 97.7427C231.782 105.976 233.112 110.136 239.191 113.925C248.583 116.917 253.179 115.964 260.767 111.228C266.928 107.99 270.434 107.114 276.949 108.98C282.951 111.242 285.434 116.265 284.591 128.759C283.407 139.247 282.43 146.685 280.995 158.426L276.949 180.451L257.623 162.022C252.074 160.813 248.891 160.514 242.789 161.123C236.278 160.878 232.875 161.116 227.956 163.37C221.196 160.812 217.107 160.802 209.526 162.471C204.353 160.388 201.367 160.59 196.041 161.572C186.748 161.461 182.538 162.772 176.712 167.416C174.566 167.464 170.71 170.927 164.576 177.885L160.979 161.123C159.214 153.164 158.632 148.678 160.979 140.446C163.661 134.35 166.032 131.936 170.869 128.309C175.599 126.052 179.479 125.861 187.051 126.061C195.471 125.329 200.088 124.861 207.278 115.723C212.361 113.351 212.649 101.161 213.137 80.5164L213.154 79.7625C210.992 77.9086 209.165 76.2106 206.826 73.9189L205.478 65.3783L201.884 63.1307Z" fill="#EABCA6"/>
<path d="M142.352 379.936C152.498 377.915 158.605 377.78 169.322 379.037C175.13 380.136 179.663 381.151 184.153 382.712L188.201 409.604L195.843 458.15C197.575 465.924 198.969 472.172 200.524 478.378L201.237 471.186C200.122 451.655 199.566 440.729 201.237 422.19C200.51 407.745 200.147 399.752 201.237 391.967C205.465 395.341 212.079 397.405 226.858 400.164L235.104 400.334C234.07 411.668 231.928 420.11 225.959 436.574C219.966 458.913 216.859 471.846 212.025 496.358C212.458 502.487 212.54 506.21 212.025 513.889C220.363 524.461 224.463 531.112 226.858 548.95C231.56 560.108 234.453 569.978 233.152 610.982C232.689 631.998 230.385 643.29 223.262 662.675C220.643 674.473 218.219 679.717 213.373 688.297L224.611 735.944L227.308 753.025L236.298 808.314L241.692 838.431C243.865 847.938 244.886 854.846 245.738 873.493L247.536 896.417C248.05 901.568 248.177 903.751 250.114 915.297C250.976 915.881 251.713 916.724 252.48 917.994C252.016 920.465 251.26 921.495 249.334 922.938C248.232 928.649 247.39 932.091 244.389 939.57C242.641 941.504 241.501 941.508 239.445 941.368C237.252 941.521 236.2 941.124 234.5 940.019L234.061 939.382C230.518 934.249 228.543 931.387 226.858 926.984L227.308 922.915C226.567 922.947 225.777 922.73 224.611 922.039C223.709 919.514 222.81 918.141 224.611 915.297H226.409V910.802L230.904 896.417L235.399 873.942V846.522L231.803 808.764L227.308 780.445L218.318 733.247L203.035 675.261C200.389 665.991 199.02 660.843 197.191 651.887C194.728 643.564 194.178 639.296 194.045 632.109C193.261 630 192.824 628.81 192.247 625.366C189.584 614.353 188.28 608.927 185.954 599.295C180.847 579.658 180.15 569.761 181.458 553.445C183.353 538.575 184.854 530.645 191.348 520.182C193.45 513.965 193.796 510.724 193.595 505.348C188.697 495.404 187.089 491.128 184.298 483.709L184.153 483.322C174.626 461.854 170.534 451.213 163.478 432.528C151.856 404.435 146.762 391.814 142.352 379.936Z" fill="#DFB49F"/>
<path d="M206.176 639.847L210.221 655.579L210.851 660.973C213.619 657.523 215.377 650.339 218.762 633.554C220.359 618.632 220.663 610.353 220.111 595.795L218.762 577.366C212.833 553.45 209.281 541.049 201.681 524.773C201.522 535.765 200.961 541.376 199.883 551.294L201.681 585.007L206.176 639.847Z" fill="#102997"/>
<path d="M200.66 23.2657C195.206 30.5215 195.598 36.6919 199.761 49.7868L203.804 53.383C203.823 47.4861 204.75 44.8015 206.951 40.3473C208.96 34.6702 210.931 32.2883 214.592 28.2107C217.215 26.5494 218.824 26.2461 221.784 25.9632C224.208 26.2734 225.53 26.4944 227.628 27.3117C230.144 29.7165 231.456 30.9837 234.82 34.0543C236.107 35.5163 236.916 36.1612 238.416 37.2008C239.654 32.0669 239.261 29.2212 237.068 24.1647C231.919 15.8349 228.036 12.475 215.941 13.3766C207.222 13.8068 204.638 16.9112 200.66 23.2657Z" fill="#F0B744"/>
<path d="M279.445 183.121C305.599 216.336 319.102 235.501 339.679 271.224C351.074 288.663 357.411 298.435 363.502 315.276C369.375 328.336 372.263 335.371 376.538 347.19C346.812 358.152 331.373 365.966 304.617 380.903C294.741 383.763 289.956 386.797 285.74 386.326C270.345 377.999 262.227 375.297 249.778 378.206C245.636 381.82 248.282 395.458 244.836 397.563C241.389 399.669 203.547 400.274 201.683 388.124C187.285 390.522 193.46 382.343 182.804 380.454C178.314 378.892 175.127 379.305 169.319 378.206C158.602 376.949 152.495 377.084 142.348 379.105L140.101 380.454C136.221 375.941 134.525 373.498 133.886 370.115C135.22 366.129 135.955 363.891 134.257 359.327C128.94 359.436 125.517 359.905 118.075 361.575C116.386 358.857 116.114 357.699 115.828 355.731C113.275 361.222 111.293 361.892 107.734 362.923C110.379 366.557 91.1656 360.406 71.7761 359.327C67.503 358.694 65.2263 358.482 61.4375 358.428C64.8363 341.526 69.3826 331.774 77.6197 314.377C88.2862 289.436 94.7104 275.973 108.186 254.143C119.585 233.971 126.753 223.124 141.899 205.147C151.506 193.189 158.86 184.111 164.374 177.857C170.509 170.899 174.365 167.436 176.511 167.388C182.337 162.744 186.547 161.434 195.839 161.545C201.166 160.563 204.151 160.36 209.325 162.444C216.906 160.775 220.995 160.785 227.754 163.343C232.673 161.088 236.076 160.85 242.588 161.095C248.69 160.486 251.873 160.786 257.422 161.994L279.445 183.121Z" fill="#121730"/>
<path d="M218.43 273.167C220.93 255.713 222.758 246.499 222.775 225.715C230.272 231.356 233.493 236.582 236.58 251.482C239.202 266.178 240.26 274.264 240.944 288.235L233.515 282.747L225.215 276.153L218.43 273.167Z" fill="#4965E0"/>
<path d="M216.102 274.073C213.602 256.619 211.773 247.406 211.756 226.621C204.259 232.262 201.038 237.488 197.951 252.388C195.329 267.085 194.271 275.17 193.588 289.141L201.016 283.653L209.317 277.06L216.102 274.073Z" fill="#4965E0"/>
<path d="M253.019 189.252L236.312 161.18L236.598 185.274L242.781 202.701C245.851 216.136 248.213 223.249 247.753 238.99C252.345 246.825 253.557 250.532 256.098 257.335C265.091 276.261 271.891 294.895 275.099 287.399L276.422 278.095L280.394 270.374C278.043 260.237 276.377 254.681 271.97 245.3L271.837 234.127C274.819 233.383 275.609 231.567 275.809 226.407C275.278 219.192 273.346 215.297 268.784 208.451L253.019 189.252Z" fill="#ACBBF5"/>
<path d="M283.868 239.085C279.927 233.651 279.314 231.476 280.417 228.799C292.511 235.442 298.209 242.41 308.31 255.025L328.416 286.306C328.826 298.548 327.129 303.693 321.331 310.399L313.187 295.339L299.776 267.197L283.868 239.085Z" fill="#3053EE"/>
<path d="M281.675 268.097C280.794 261.88 280.591 258.819 281.522 255.245C284.506 252.047 291.235 264.509 304.743 290.987L329.04 336.49L312.052 350.751C309.537 339.716 307.614 334.764 303.848 326.747L291.948 294.62C287.275 284.161 285.091 278.363 281.675 268.097Z" fill="#B3C1FF"/>
<path d="M282.033 318.633L280.469 276.648C282.334 278.644 283.184 279.03 293.945 314.332C300.836 327.461 302.334 335.763 304.802 350.839L283.932 348.939L282.033 318.633Z" fill="#102997"/>
<path d="M259.636 336.582C262.049 319.74 263.813 310.85 263.83 290.795C271.064 296.238 274.171 301.281 277.15 315.658C279.68 329.839 280.701 337.64 281.36 351.121L274.193 345.826L266.183 339.464L259.636 336.582Z" fill="#4965E0"/>
<path d="M258.038 282.467C250.096 262.38 246.605 254.102 245.527 255.31C243.032 263.179 243.39 270.594 245.903 287.028C244.749 294.333 243.206 297.954 241.095 304.753L236.549 314.444L236.692 326.489C244.49 333.294 248.697 339.172 256.443 339.372C257.776 336.77 257.928 330.299 258.499 321.278C258.009 306.505 257.642 298.339 258.038 282.467Z" fill="#032EED"/>
<path d="M247.476 172.572C242.262 167.283 241.625 165.231 245.593 163.602C249.687 164.926 252.162 165.764 257.009 167.493L271.643 183.022L285.128 201.518C290.366 206.974 293.297 210.731 298.479 218.673C297.724 222.661 296.349 224.514 292.064 227.071C284.915 222.277 281.401 219.16 276.727 212.221L262.433 195.345C255.58 188.263 252.151 183.552 247.476 172.572Z" fill="#8FA3FA"/>
<path d="M181.243 188.73L196.867 160.789L197.148 184.444L191.529 201.693C188.85 214.95 186.714 221.987 187.528 237.426C183.236 245.222 182.141 248.89 179.824 255.625C171.501 274.41 165.309 292.857 162.01 285.575L160.505 276.473L156.456 268.987C158.512 258.983 160.006 253.491 164.081 244.181L163.951 233.212C161.029 232.551 160.217 230.787 159.902 225.727C160.252 218.633 162.044 214.765 166.33 207.94L181.243 188.73Z" fill="#ACBBF5"/>
<path d="M152.299 238.355C156.066 232.929 156.621 230.78 155.468 228.178C143.674 234.981 138.207 241.953 128.523 254.571L109.389 285.743C109.27 297.769 111.067 302.779 116.952 309.225L124.646 294.254L137.239 266.319L152.299 238.355Z" fill="#3053EE"/>
<path d="M155.15 266.784C155.875 260.661 156.004 257.652 155.001 254.166C151.977 251.097 145.62 263.486 132.891 289.79L109.948 335.019L127.067 348.619C129.295 337.73 131.078 332.824 134.612 324.868L145.619 293.056C149.992 282.682 152.015 276.94 155.15 266.784Z" fill="#B3C1FF"/>
<path d="M155.96 316.394L156.531 275.148C154.722 277.151 153.886 277.55 144.009 312.451C137.462 325.499 136.167 333.682 134.065 348.537L154.781 346.183L155.96 316.394Z" fill="#102997"/>
<path d="M178.072 333.483C175.349 317.009 173.438 308.324 172.958 288.64C166.088 294.15 163.199 299.171 160.651 313.351C158.532 327.328 157.726 335.009 157.4 348.256L164.209 342.893L171.807 336.463L178.072 333.483Z" fill="#4965E0"/>
<path d="M178.688 280.333C186.016 260.433 189.25 252.227 190.335 253.387C192.967 261.053 192.79 268.339 190.705 284.527C192.009 291.671 193.608 295.189 195.838 301.812L200.525 311.219L200.665 323.044C193.17 329.905 189.178 335.772 181.58 336.149C180.211 333.626 179.911 327.278 179.141 318.437C179.277 303.926 179.447 295.902 178.688 280.333Z" fill="#032EED"/>
<path d="M186.179 172.23C191.173 166.917 191.75 164.888 187.818 163.382C183.83 164.777 181.421 165.657 176.703 167.467L162.702 183.05L149.897 201.518C144.883 206.995 142.094 210.751 137.193 218.667C138.027 222.563 139.419 224.35 143.685 226.76C150.59 221.887 153.967 218.747 158.392 211.827L172.029 194.93C178.59 187.819 181.846 183.116 186.179 172.23Z" fill="#8FA3FA"/>
<path d="M132.66 230.122L130.761 224.735C127.993 226.366 126.989 227.616 125.782 230.203C125.228 235.851 125.583 238.371 127.862 241.261C133.115 237.575 134.601 235.119 134.838 230.096L132.66 230.122Z" fill="white"/>
<path d="M118.105 253.426L116.207 248.04C113.438 249.671 112.434 250.92 111.227 253.508C110.673 259.156 111.028 261.676 113.308 264.566C118.561 260.879 120.046 258.424 120.283 253.401L118.105 253.426Z" fill="white"/>
<path d="M106.378 271.946C106.38 269.132 106.253 267.687 105.191 265.982C102.264 268.271 101.733 271.277 101.764 273.903C101.796 276.53 100.286 277.749 101.83 279.428L106.378 271.946Z" fill="white"/>
<path d="M100.53 294.076C100.458 289.377 100.197 286.645 96.5769 280.397C93.4684 284.619 92.4493 286.865 93.2606 290.431C95.7529 295.354 97.3761 295.834 100.53 294.076Z" fill="white"/>
<path d="M109.128 307.217C109.076 303.868 108.89 301.922 106.311 297.47C104.096 300.479 103.37 302.079 103.948 304.62C105.724 308.128 106.88 308.47 109.128 307.217Z" fill="white"/>
<path d="M117.7 346.163C115.649 343.069 114.311 341.391 109.234 339.203C108.96 343.718 109.238 345.772 111.299 347.706C115.059 349.626 116.346 349.058 117.7 346.163Z" fill="white"/>
<path d="M87.128 346.002C85.9014 344.153 85.0924 343.158 81.9201 341.965C81.6345 344.766 81.7599 346.028 83.0216 347.159C85.3638 348.228 86.1957 347.836 87.128 346.002Z" fill="white"/>
<path d="M105.719 319.457C105.68 316.957 105.519 315.504 103.264 312.184C101.316 314.434 100.677 315.63 101.18 317.526C102.732 320.142 103.746 320.395 105.719 319.457Z" fill="white"/>
<path d="M105.141 338.7C108.192 333.779 109.787 330.773 110.989 321.885C105.677 324.196 103.365 325.847 101.663 330.085C100.425 336.848 101.423 338.425 105.141 338.7Z" fill="white"/>
<path d="M114.114 319.186C114.061 315.787 113.866 313.811 111.153 309.292C108.821 312.347 108.056 313.972 108.663 316.552C110.531 320.112 111.748 320.459 114.114 319.186Z" fill="white"/>
<path d="M89.5679 312.999C91.6425 308.493 92.6393 305.773 92.0431 298.174C87.1579 300.776 85.1635 302.449 84.3098 306.214C84.437 312.038 85.7636 313.235 89.5679 312.999Z" fill="white"/>
<path d="M80.7376 329.661C81.8397 327.263 82.3495 325.807 81.7164 321.618C78.8364 322.872 77.6824 323.719 77.2968 325.753C77.5814 328.951 78.4311 329.655 80.7376 329.661Z" fill="white"/>
<path d="M71.4092 347.72C76.5582 344.426 79.4481 342.292 84.6457 334.379C78.5341 334.156 75.5805 334.674 72.0278 337.932C67.7641 343.806 67.9947 345.762 71.4092 347.72Z" fill="white"/>
<path d="M88.8539 333.232C90.3543 329.972 91.0695 328.002 90.5479 322.462C86.9335 324.308 85.4642 325.506 84.8662 328.238C85.0202 332.48 86.021 333.365 88.8539 333.232Z" fill="white"/>
<path d="M83.9375 350.45C80.4476 350.07 78.3991 350.011 73.4338 352.118C76.2772 354.812 77.8477 355.774 80.5654 355.501C84.4445 354.108 84.9497 352.949 83.9375 350.45Z" fill="white"/>
<path d="M96.0204 347.492C94.164 347.291 93.0726 347.276 90.404 348.641C91.8919 350.292 92.7191 350.876 94.1707 350.678C96.2529 349.769 96.5342 349.041 96.0204 347.492Z" fill="white"/>
<path d="M108.679 347.643C105.313 344.928 103.232 343.468 96.755 341.757C97.9783 345.908 98.9889 347.774 101.973 349.426C106.872 350.967 108.132 350.373 108.679 347.643Z" fill="white"/>
<path d="M327.526 351.16C330.625 348.782 332.564 347.575 338.893 347.212C338.098 351.868 337.277 353.84 334.451 355.043C329.69 355.615 328.361 354.574 327.526 351.16Z" fill="white"/>
<path d="M316.157 361.209C317.75 359.99 318.765 359.396 322.319 359.603C322.182 362.344 321.85 363.473 320.333 364.005C317.679 364.029 316.858 363.315 316.157 361.209Z" fill="white"/>
<path d="M303.522 371.954C304.857 366.908 305.842 364.041 310.978 358.379C312.805 363.857 313.172 366.582 311.438 370.186C307.734 374.754 306.056 374.788 303.522 371.954Z" fill="white"/>
<path d="M353.211 312.193C352.056 307.76 351.177 305.234 346.304 300.153C344.337 304.871 343.891 307.234 345.484 310.423C348.983 314.509 350.631 314.588 353.211 312.193Z" fill="white"/>
<path d="M356.653 329.268C356.037 326.91 355.55 325.572 352.646 322.949C351.322 325.53 350.993 326.81 351.908 328.489C353.983 330.608 355.002 330.613 356.653 329.268Z" fill="white"/>
<path d="M360.553 347.619C362.304 342.253 363.12 339.037 362.203 330.342C357.706 333.76 355.899 335.858 355.267 340.264C355.659 346.955 356.968 348.218 360.553 347.619Z" fill="white"/>
<path d="M364.54 327.07C363.704 323.863 363.063 322.037 359.449 318.385C357.946 321.818 357.598 323.534 358.769 325.835C361.361 328.776 362.594 328.822 364.54 327.07Z" fill="white"/>
<path d="M314.412 243.299C312.418 237.521 311.021 234.211 304.548 227.302C302.898 233.191 302.709 236.183 305.042 240.401C309.752 245.924 311.708 246.159 314.412 243.299Z" fill="white"/>
<path d="M209.128 291.184C208.429 292.439 207.957 293.123 205.97 294.052C205.644 292.258 205.662 291.438 206.419 290.644C207.877 289.836 208.434 290.047 209.128 291.184Z" fill="white"/>
<path d="M212.368 312.365C213.934 315.169 214.714 316.875 214.711 321.81C211.427 320.375 210.056 319.396 209.316 317.009C209.105 313.244 209.901 312.404 212.368 312.365Z" fill="white"/>
<path d="M205.826 302.05C206.658 303.543 207.061 304.457 206.863 307.192C204.941 306.528 204.153 306.04 203.802 304.746C203.825 302.667 204.338 302.171 205.826 302.05Z" fill="white"/>
<path d="M198.904 290.869C202.393 292.736 204.366 293.968 208.118 298.814C204.185 299.265 202.253 299.079 199.796 297.155C196.748 293.578 196.799 292.304 198.904 290.869Z" fill="white"/>
<path d="M210.887 299.345C212.019 301.374 212.58 302.609 212.522 306.211C210.096 305.201 209.088 304.502 208.564 302.768C208.45 300.023 209.052 299.401 210.887 299.345Z" fill="white"/>
<path d="M206.85 288.475C204.616 288.896 203.297 289.037 199.987 287.927C201.686 286.045 202.652 285.345 204.419 285.384C206.993 286.089 207.377 286.811 206.85 288.475Z" fill="white"/>
<path d="M214.795 289.78C213.607 290.003 212.903 290.068 211.112 289.32C211.99 288.18 212.494 287.761 213.441 287.816C214.831 288.298 215.049 288.754 214.795 289.78Z" fill="white"/>
<path d="M224.802 291.184C225.5 292.439 225.972 293.123 227.96 294.052C228.285 292.258 228.268 291.438 227.51 290.644C226.052 289.836 225.496 290.047 224.802 291.184Z" fill="white"/>
<path d="M221.569 312.365C220.004 315.169 219.223 316.875 219.226 321.81C222.51 320.375 223.881 319.396 224.622 317.009C224.832 313.244 224.036 312.404 221.569 312.365Z" fill="white"/>
<path d="M228.103 302.05C227.271 303.543 226.869 304.457 227.067 307.192C228.989 306.528 229.776 306.04 230.128 304.746C230.105 302.667 229.592 302.171 228.103 302.05Z" fill="white"/>
<path d="M235.029 290.869C231.54 292.736 229.568 293.968 225.815 298.814C229.749 299.265 231.681 299.079 234.138 297.155C237.185 293.578 237.135 292.304 235.029 290.869Z" fill="white"/>
<path d="M223.047 299.345C221.914 301.374 221.354 302.609 221.412 306.211C223.837 305.201 224.846 304.502 225.369 302.768C225.483 300.023 224.882 299.401 223.047 299.345Z" fill="white"/>
<path d="M227.084 288.475C229.317 288.896 230.636 289.037 233.947 287.927C232.247 286.045 231.282 285.345 229.514 285.384C226.94 286.089 226.556 286.811 227.084 288.475Z" fill="white"/>
<path d="M219.135 289.78C220.323 290.003 221.026 290.068 222.818 289.32C221.94 288.18 221.436 287.761 220.489 287.816C219.099 288.298 218.881 288.754 219.135 289.78Z" fill="white"/>
<path d="M205.593 220.62C204.793 219.184 204.253 218.402 201.978 217.338C201.606 219.391 201.626 220.331 202.493 221.239C204.161 222.163 204.799 221.921 205.593 220.62Z" fill="white"/>
<path d="M209.297 196.379C211.089 193.169 211.982 191.218 211.979 185.569C208.22 187.211 206.651 188.332 205.803 191.064C205.562 195.373 206.473 196.334 209.297 196.379Z" fill="white"/>
<path d="M201.809 208.187C202.761 206.479 203.221 205.433 202.995 202.302C200.795 203.062 199.894 203.622 199.492 205.102C199.518 207.481 200.105 208.05 201.809 208.187Z" fill="white"/>
<path d="M193.887 220.985C197.88 218.848 200.138 217.438 204.433 211.892C199.931 211.376 197.719 211.588 194.907 213.79C191.419 217.884 191.477 219.343 193.887 220.985Z" fill="white"/>
<path d="M207.605 211.291C208.901 208.969 209.543 207.555 209.476 203.433C206.7 204.588 205.546 205.389 204.947 207.373C204.816 210.515 205.505 211.226 207.605 211.291Z" fill="white"/>
<path d="M202.983 223.721C200.427 223.239 198.917 223.079 195.128 224.349C197.073 226.503 198.178 227.304 200.202 227.259C203.147 226.453 203.587 225.626 202.983 223.721Z" fill="white"/>
<path d="M212.077 222.23C210.718 221.975 209.912 221.901 207.862 222.756C208.866 224.062 209.444 224.541 210.528 224.478C212.118 223.926 212.368 223.404 212.077 222.23Z" fill="white"/>
<path d="M324.354 255.642C322.722 252.718 321.636 251.092 317.254 248.394C316.73 252.094 316.849 253.847 318.562 255.81C321.789 258.058 322.969 257.81 324.354 255.642Z" fill="white"/>
<path d="M327.153 268.044C325.934 265.861 325.104 264.658 321.545 262.804C320.896 265.708 320.9 267.064 322.241 268.495C324.848 270.063 325.861 269.805 327.153 268.044Z" fill="white"/>
<path d="M335.76 285.26C336.115 279.48 336.095 276.077 332.941 267.681C329.358 272.234 328.105 274.783 328.615 279.321C330.73 285.864 332.356 286.78 335.76 285.26Z" fill="white"/>
<path d="M343.122 291.46C338.871 290.665 336.347 290.365 329.833 291.929C332.877 295.004 334.651 296.168 338.062 296.209C343.106 295.244 343.935 294.124 343.122 291.46Z" fill="white"/>
<path d="M336.022 311.398C334.398 308.469 333.316 306.84 328.942 304.13C328.407 307.828 328.522 309.581 330.229 311.549C333.45 313.806 334.631 313.562 336.022 311.398Z" fill="white"/>
<path d="M338.792 323.803C337.578 321.618 336.752 320.412 333.198 318.548C332.541 321.45 332.541 322.806 333.878 324.241C336.481 325.816 337.494 325.561 338.792 323.803Z" fill="white"/>
<path d="M347.354 341.046C347.724 335.267 347.714 331.864 344.583 323.459C340.988 328.002 339.728 330.548 340.225 335.088C342.322 341.636 343.945 342.557 347.354 341.046Z" fill="white"/>
<path d="M354.69 347.26C350.441 346.453 347.917 346.147 341.399 347.692C344.435 350.776 346.206 351.944 349.616 351.995C354.663 351.044 355.495 349.926 354.69 347.26Z" fill="white"/>
<path d="M222.158 219.877C222.941 218.471 223.471 217.705 225.699 216.663C226.063 218.674 226.044 219.594 225.194 220.483C223.56 221.388 222.936 221.152 222.158 219.877Z" fill="white"/>
<path d="M218.524 196.124C216.769 192.98 215.895 191.069 215.898 185.537C219.579 187.144 221.116 188.243 221.946 190.918C222.182 195.139 221.29 196.08 218.524 196.124Z" fill="white"/>
<path d="M225.856 207.694C224.924 206.022 224.473 204.997 224.695 201.93C226.849 202.675 227.732 203.222 228.126 204.673C228.1 207.003 227.525 207.56 225.856 207.694Z" fill="white"/>
<path d="M233.623 220.225C229.712 218.132 227.501 216.751 223.294 211.318C227.704 210.813 229.87 211.021 232.624 213.178C236.04 217.188 235.983 218.616 233.623 220.225Z" fill="white"/>
<path d="M220.18 210.73C218.91 208.456 218.282 207.071 218.347 203.033C221.066 204.165 222.197 204.949 222.784 206.892C222.911 209.97 222.237 210.667 220.18 210.73Z" fill="white"/>
<path d="M224.709 222.91C227.213 222.439 228.692 222.281 232.403 223.526C230.498 225.635 229.415 226.419 227.434 226.375C224.549 225.586 224.118 224.776 224.709 222.91Z" fill="white"/>
<path d="M215.809 221.449C217.141 221.199 217.93 221.127 219.937 221.964C218.954 223.243 218.388 223.712 217.327 223.65C215.769 223.11 215.525 222.599 215.809 221.449Z" fill="white"/>
</svg>
