<svg width="358" height="261" viewBox="0 0 358 261" fill="none" xmlns="http://www.w3.org/2000/svg">
<path d="M1.31762 0C111.176 27.4808 180.927 71.0064 223.082 160.881L227.734 180.461L234.617 155.984L235.123 154.981C259.011 107.571 272.559 80.6828 329.314 39.6899C344.203 27.8097 351.017 24.3658 357.592 29.8995C353.08 41.8651 347.196 52.262 333.965 73.8252C327.396 106.961 318.464 121.973 299.547 146.723C306.408 149.063 309.281 150.828 310.151 155.984C300.585 174.98 292.704 183.59 273.5 194.617C186.054 234.412 119.709 269.285 101.596 258.784C94.5073 257.853 99.643 252.985 120.572 238.674C81.16 228.157 57.5745 222.148 74.8051 215.786C55.5492 209.181 47.0467 196.577 47.0442 193.087C51.5344 177.165 83.2687 171.438 124.479 165.246C92.3898 152.499 77.466 145.267 57.1309 132.038C36.0293 112.466 29.7111 99.9972 32.7591 73.8252C43.6409 41.049 -8.86338 2.89784 1.31762 0Z" fill="#E3B45F"/>
<path d="M69.958 205.267C67.0299 207.877 65.222 208.496 61.0338 205.095C54.0544 197.744 55.5543 195.444 54.6867 190.154C54.6453 186.438 55.4959 184.958 59.2629 183.616C61.5796 181.238 63.3058 180.449 67.178 180.392C71.0482 187.913 71.727 190.871 72.7952 196.045C73.7384 200.456 72.4582 202.216 69.958 205.267Z" fill="#14000C"/>
<path d="M68.6095 202.942C66.1261 205.156 64.5928 205.68 61.0406 202.796C55.1211 196.561 56.3932 194.61 55.6574 190.123C55.6223 186.972 56.3437 185.717 59.5387 184.578C61.5035 182.562 62.9676 181.893 66.2517 181.845C69.5342 188.223 70.1099 190.732 71.0158 195.12C71.8158 198.861 70.73 200.354 68.6095 202.942Z" fill="#0D2C89"/>
<path d="M59.6728 197.785C61.4559 201.422 62.8775 200.998 65.4764 199.883C67.1207 199.062 67.6445 197.955 68.3519 195.595C69.2889 189.36 67.7193 185.757 63.9587 186.321C62.0781 187.126 61.023 187.72 59.1213 189.456C56.5025 193.263 57.6246 194.892 59.6728 197.785Z" fill="black" stroke="black" stroke-width="0.339061"/>
<path d="M60.538 196.668C61.8805 199.406 62.9509 199.087 64.9077 198.248C66.1457 197.63 66.5401 196.796 67.0727 195.019C67.7783 190.325 66.5965 187.612 63.7649 188.037C62.349 188.643 61.5546 189.09 60.1227 190.397C58.1509 193.264 58.9957 194.49 60.538 196.668Z" fill="#040146" stroke="black" stroke-width="0.339061"/>
<path d="M60.7214 194.528C61.5567 196.1 62.3375 196.589 63.7876 197.39C63.9883 195.307 63.7965 194.611 63.2243 193.715L61.9337 191.723C60.9775 192.576 60.6832 193.154 60.7214 194.528Z" fill="#FB71D1"/>
<path d="M63.5546 191.475L65.3984 194.32L65.3962 190.888L64.5665 189.607L64.3662 190.545L63.5546 191.475Z" fill="#FEDEFF"/>
<path d="M126.487 193.602C124.249 192.722 123.411 191.905 124.113 188.674C126.203 182.824 127.876 183.008 130.529 181.071C132.55 180.021 133.595 180.077 135.37 181.766C137.311 182.376 138.22 183.101 139.322 185.203C136.279 189.4 134.849 190.589 132.314 192.604C130.163 194.339 128.846 194.126 126.487 193.602Z" fill="#0D2C89"/>
<path d="M126.895 186.16C125.131 188.495 125.868 189.274 127.435 190.586C128.5 191.379 129.385 191.356 131.137 191.043C135.463 189.614 137.274 187.427 135.684 185.186C134.552 184.236 133.826 183.749 132.086 183.089C128.777 182.642 128.093 183.896 126.895 186.16Z" fill="black" stroke="black" stroke-width="0.244993"/>
<path d="M127.9 186.345C126.572 188.104 127.127 188.69 128.307 189.678C129.109 190.275 129.775 190.257 131.094 190.022C134.351 188.946 135.715 187.3 134.518 185.612C133.666 184.897 133.119 184.53 131.809 184.033C129.318 183.696 128.802 184.641 127.9 186.345Z" fill="#040146" stroke="black" stroke-width="0.244993"/>
<path d="M129.341 185.769C128.6 186.82 128.539 187.483 128.495 188.679C129.904 188.129 130.29 187.779 130.682 187.118L131.545 185.636C130.683 185.298 130.215 185.296 129.341 185.769Z" fill="#FB71D1"/>
<path d="M132.23 186.602L130.996 188.719L133.209 187.598L133.764 186.646L133.094 186.822L132.23 186.602Z" fill="#FEDEFF"/>
<path d="M117.846 191.259C115.156 191.083 113.981 190.495 113.63 186.803C113.869 179.84 115.719 179.467 117.893 176.492C119.694 174.681 120.83 174.385 123.303 175.584C125.584 175.574 126.803 176.039 128.697 177.91C126.876 183.431 125.754 185.189 123.733 188.206C122.026 190.794 120.546 191.015 117.846 191.259Z" fill="#14000C"/>
<path d="M118.334 189.481C116.053 189.331 115.056 188.832 114.758 185.701C114.961 179.796 116.53 179.479 118.374 176.956C119.902 175.42 120.865 175.169 122.962 176.186C124.897 176.177 125.931 176.572 127.537 178.158C125.993 182.841 125.041 184.332 123.327 186.891C121.879 189.085 120.624 189.273 118.334 189.481Z" fill="#0D2C89"/>
<path d="M116.555 182.612C115.632 185.239 116.525 185.731 118.324 186.467C119.518 186.878 120.313 186.601 121.811 185.81C125.318 183.265 126.327 180.759 124.238 179.188C122.937 178.654 122.138 178.423 120.371 178.328C117.243 178.88 116.985 180.214 116.555 182.612Z" fill="black" stroke="black" stroke-width="0.233042"/>
<path d="M117.521 182.492C116.826 184.47 117.498 184.841 118.853 185.395C119.752 185.704 120.351 185.495 121.478 184.9C124.119 182.984 124.879 181.097 123.306 179.914C122.327 179.512 121.725 179.338 120.394 179.267C118.039 179.682 117.845 180.687 117.521 182.492Z" fill="#040146" stroke="black" stroke-width="0.233042"/>
<path d="M120.075 181.634C119.707 182.801 119.844 183.42 120.15 184.516C121.267 183.611 121.516 183.181 121.68 182.469L122.034 180.876C121.155 180.819 120.73 180.953 120.075 181.634Z" fill="#FB71D1"/>
<path d="M109.016 188.303C106.535 188.343 105.414 187.892 104.814 184.532C104.51 178.127 106.179 177.646 107.95 174.754C109.466 172.958 110.485 172.6 112.844 173.515C114.936 173.334 116.088 173.669 117.966 175.243C116.711 180.444 115.813 182.141 114.186 185.06C112.815 187.562 111.474 187.875 109.016 188.303Z" fill="#14000C"/>
<path d="M109.33 186.638C107.226 186.672 106.274 186.29 105.766 183.44C105.508 178.008 106.924 177.6 108.426 175.147C109.712 173.624 110.576 173.321 112.576 174.096C114.35 173.943 115.328 174.227 116.921 175.562C115.856 179.973 115.095 181.412 113.715 183.888C112.552 186.01 111.415 186.276 109.33 186.638Z" fill="#0D2C89"/>
<path d="M107.185 180.474C106.536 182.953 107.392 183.337 109.097 183.878C110.224 184.164 110.932 183.851 112.246 183.013C115.272 180.415 116.01 178.041 113.976 176.757C112.743 176.365 111.992 176.213 110.364 176.258C107.536 176.999 107.4 178.243 107.185 180.474Z" fill="black" stroke="black" stroke-width="0.214473"/>
<path d="M108.061 180.294C107.572 182.16 108.217 182.45 109.501 182.856C110.349 183.072 110.883 182.836 111.872 182.205C114.15 180.249 114.706 178.462 113.174 177.495C112.246 177.2 111.68 177.085 110.455 177.119C108.325 177.677 108.223 178.614 108.061 180.294Z" fill="#040146" stroke="black" stroke-width="0.214473"/>
<path d="M109.033 179.344C108.783 180.442 108.955 180.999 109.318 181.981C110.275 181.067 110.471 180.654 110.568 179.989L110.773 178.502C109.962 178.515 109.583 178.67 109.033 179.344Z" fill="#FB71D1"/>
<path d="M111.653 179.055L111.359 181.18L112.777 179.535L112.909 178.579L112.426 178.945L111.653 179.055Z" fill="#FEDEFF"/>
<path d="M99.732 188.575C96.8307 189.292 95.3927 189.065 93.7822 185.283C91.6974 177.848 93.5264 176.832 94.8248 172.96C96.1195 170.443 97.2192 169.748 100.234 170.185C102.641 169.409 104.084 169.491 106.713 170.831C106.643 177.274 106.047 179.508 104.925 183.374C103.991 186.68 102.502 187.41 99.732 188.575Z" fill="#14000C"/>
<path d="M99.6546 186.533C97.1939 187.14 95.9743 186.948 94.6083 183.741C92.8401 177.435 94.3914 176.573 95.4926 173.289C96.5907 171.154 97.5234 170.565 100.08 170.936C102.122 170.277 103.346 170.347 105.575 171.483C105.516 176.948 105.011 178.843 104.059 182.121C103.267 184.926 102.004 185.545 99.6546 186.533Z" fill="#0D2C89"/>
<path d="M95.4696 179.876C95.3763 182.96 96.4846 183.18 98.6321 183.354C100.032 183.387 100.779 182.827 102.095 181.49C104.945 177.623 105.17 174.638 102.436 173.679C100.883 173.552 99.9613 173.577 98.0625 174.069C94.9434 175.702 95.1195 177.198 95.4696 179.876Z" fill="black" stroke="black" stroke-width="0.258305"/>
<path d="M96.4491 179.431C96.3788 181.753 97.2133 181.919 98.8302 182.05C99.8841 182.074 100.446 181.653 101.438 180.646C103.584 177.735 103.753 175.487 101.695 174.765C100.525 174.67 99.8311 174.688 98.4014 175.059C96.0529 176.288 96.1854 177.415 96.4491 179.431Z" fill="#040146" stroke="black" stroke-width="0.258305"/>
<path d="M98.1803 177.574C98.1846 179.286 98.629 180.053 99.5027 181.387C100.61 179.705 100.76 179.026 100.676 178.006L100.473 175.731C99.2759 176.028 98.7659 176.387 98.1803 177.574Z" fill="#FB71D1"/>
<path d="M90.457 191.005C87.6137 192.867 86.05 193.237 83.361 190.294C79.205 184.068 80.8474 182.358 81.1759 178.145C81.8605 175.223 82.8258 174.114 86.0943 173.303C88.4041 171.585 89.9356 171.075 93.0398 171.281C94.6793 177.44 94.6503 179.808 94.5044 183.942C94.4061 187.469 93.0435 188.769 90.457 191.005Z" fill="#14000C"/>
<path d="M89.8304 189.092C87.419 190.671 86.0927 190.985 83.8121 188.489C80.2872 183.208 81.6802 181.758 81.9588 178.185C82.5394 175.706 83.3582 174.766 86.1303 174.078C88.0893 172.621 89.3882 172.189 92.021 172.363C93.4115 177.587 93.3869 179.595 93.2632 183.102C93.1798 186.092 92.0241 187.196 89.8304 189.092Z" fill="#0D2C89"/>
<path d="M83.6873 184.463C84.4095 187.435 85.6269 187.194 87.9184 186.486C89.3905 185.947 90.0228 185.11 91.0435 183.302C92.9962 178.463 92.4381 175.531 89.3249 175.732C87.6672 176.243 86.7097 176.642 84.8552 177.883C82.0279 180.706 82.6097 182.058 83.6873 184.463Z" fill="black" stroke="black" stroke-width="0.298772"/>
<path d="M84.5928 183.642C85.1365 185.88 86.0532 185.698 87.7786 185.165C88.887 184.759 89.363 184.129 90.1316 182.768C91.6019 179.124 91.1817 176.917 88.8376 177.068C87.5894 177.453 86.8684 177.753 85.4722 178.687C83.3433 180.813 83.7814 181.831 84.5928 183.642Z" fill="#040146" stroke="black" stroke-width="0.298772"/>
<path d="M85.1518 181.967C85.5157 183.255 86.045 183.69 87.0487 184.413C87.6113 182.789 87.5925 182.23 87.3085 181.489L86.6621 179.84C85.7334 180.449 85.3868 180.884 85.1518 181.967Z" fill="#FB71D1"/>
<path d="M88.0063 179.755L88.9297 182.109L89.5908 179.412L89.1753 178.352L88.8341 179.076L88.0063 179.755Z" fill="#FEDEFF"/>
<path d="M80.966 198.31C78.0348 200.508 76.3033 200.941 72.6739 197.445C66.7586 190.052 68.3362 188.03 67.9465 183.038C68.2014 179.576 69.1099 178.266 72.7219 177.314C75.0657 175.285 76.7346 174.686 80.3429 174.939C83.3511 182.244 83.7492 185.051 84.3348 189.951C84.8644 194.13 83.5339 195.668 80.966 198.31Z" fill="#14000C"/>
<path d="M79.8946 196.044C77.4085 197.909 75.94 198.276 72.8618 195.311C67.8449 189.041 69.1829 187.325 68.8523 183.092C69.0685 180.156 69.8391 179.044 72.9025 178.237C74.8904 176.516 76.3058 176.008 79.3662 176.223C81.9175 182.419 82.2552 184.799 82.7518 188.955C83.201 192.5 82.0726 193.804 79.8946 196.044Z" fill="#0D2C89"/>
<path d="M71.9872 190.534C73.3595 194.059 74.716 193.777 77.2228 192.945C78.818 192.311 79.393 191.321 80.2376 189.181C81.6021 183.452 80.4258 179.975 76.8812 180.203C75.0674 180.804 74.0385 181.273 72.1316 182.739C69.3936 186.075 70.3092 187.68 71.9872 190.534Z" fill="black" stroke="black" stroke-width="0.316698"/>
<path d="M72.8777 189.56C73.911 192.215 74.9324 192.002 76.8199 191.375C78.021 190.898 78.4539 190.153 79.0898 188.542C80.1172 184.228 79.2315 181.61 76.5626 181.782C75.197 182.234 74.4223 182.587 72.9865 183.691C70.9249 186.203 71.6144 187.411 72.8777 189.56Z" fill="#040146" stroke="black" stroke-width="0.316698"/>
<path d="M73.2141 187.586C73.8675 189.114 74.5556 189.631 75.8419 190.491C76.1932 188.569 76.0696 187.906 75.6079 187.026L74.564 185.071C73.6067 185.789 73.2871 186.303 73.2141 187.586Z" fill="#FB71D1"/>
<path d="M76.0946 184.972L77.5859 187.766L77.8549 184.571L77.1838 183.313L76.9233 184.17L76.0946 184.972Z" fill="#FEDEFF"/>
<path d="M73.4337 59.8785C72.5512 53.8587 71.0177 51.3224 62.6504 51.1961C47.0303 52.9874 46.5233 57.2164 40.2237 62.643C36.474 67.0206 36.0116 69.6276 39.1548 74.9748C39.5423 80.1085 40.8088 82.7664 45.357 86.6897C57.4487 81.6006 61.2014 78.7591 67.6242 73.67C73.138 69.3644 73.3688 65.9961 73.4337 59.8785Z" fill="#14000C"/>
<path d="M69.5194 61.2954C68.7709 56.1898 67.4703 54.0386 60.3737 53.9316C47.1258 55.4508 46.6957 59.0375 41.3528 63.64C38.1725 67.3529 37.7804 69.564 40.4462 74.0991C40.7749 78.4532 41.8491 80.7074 45.7066 84.0349C55.9619 79.7187 59.1448 77.3087 64.5922 72.9924C69.2686 69.3407 69.4644 66.484 69.5194 61.2954Z" fill="#0D2C89"/>
<path d="M53.7578 58.5306C59.4997 55.9816 60.7682 57.9011 62.748 61.8153C63.8863 64.4285 63.4064 66.267 61.8979 69.7771C56.8032 78.1247 51.3487 80.8462 47.4386 76.4303C46.0039 73.6004 45.3404 71.8438 44.8077 67.8858C45.4851 60.7503 48.4415 59.9307 53.7578 58.5306Z" fill="black" stroke="black" stroke-width="0.525899"/>
<path d="M53.667 60.7194C57.9903 58.8002 58.9454 60.2455 60.4361 63.1927C61.2931 65.1603 60.9318 66.5445 59.796 69.1874C55.96 75.4727 51.8531 77.5218 48.909 74.1969C47.8287 72.0661 47.3292 70.7435 46.9281 67.7634C47.4381 62.3908 49.6641 61.7736 53.667 60.7194Z" fill="#040146" stroke="black" stroke-width="0.525899"/>
<path d="M51.7532 63.4528C54.3112 62.4162 55.727 62.612 58.2489 63.1036C56.4136 65.7802 55.4921 66.417 53.9192 66.9131L50.4009 67.9964C50.1137 66.0294 50.3386 65.0497 51.7532 63.4528Z" fill="#FB71D1"/>
<path d="M52.0911 69.8991L57.1172 68.3516L53.6961 72.4314L51.4344 73.1278L52.1301 71.813L52.0911 69.8991Z" fill="#FEDEFF"/>
<path d="M129.4 127.049C125.231 125.656 123.095 125.818 120.286 131.172C116.348 141.828 118.91 143.534 120.355 149.365C121.956 153.211 123.486 154.359 127.959 154.075C131.395 155.499 133.522 155.549 137.535 153.895C138.196 144.439 137.587 141.093 136.399 135.292C135.421 130.333 133.324 129.086 129.4 127.049Z" fill="#14000C"/>
<path d="M129.041 130.042C125.504 128.86 123.693 128.998 121.31 133.539C117.971 142.577 120.144 144.023 121.369 148.969C122.727 152.23 124.025 153.204 127.818 152.964C130.733 154.171 132.537 154.214 135.94 152.811C136.5 144.791 135.984 141.953 134.977 137.033C134.147 132.827 132.368 131.769 129.041 130.042Z" fill="#0D2C89"/>
<path d="M122.115 139.302C122.343 134.768 123.995 134.576 127.164 134.576C129.22 134.694 130.249 135.603 132.021 137.72C135.743 143.727 135.719 148.131 131.597 149.213C129.305 149.215 127.956 149.07 125.23 148.123C120.849 145.36 121.285 143.187 122.115 139.302Z" fill="black" stroke="black" stroke-width="0.379994"/>
<path d="M123.497 140.071C123.669 136.657 124.912 136.513 127.299 136.512C128.847 136.601 129.622 137.285 130.956 138.879C133.758 143.402 133.74 146.718 130.636 147.533C128.91 147.535 127.894 147.426 125.842 146.713C122.544 144.632 122.872 142.996 123.497 140.071Z" fill="#040146" stroke="black" stroke-width="0.379994"/>
<path d="M124.639 142.196C124.804 140.209 125.392 139.36 126.531 137.894C127.659 139.95 127.769 140.752 127.576 141.928L127.128 144.55C125.766 144.093 125.207 143.629 124.639 142.196Z" fill="#FB71D1"/>
<path d="M128.902 144.081L129.543 140.336L131.058 143.872L130.77 145.558L130.149 144.68L128.902 144.081Z" fill="#FEDEFF"/>
<path d="M116.433 124.226C113.057 121.757 111.075 121.287 106.981 125.326C100.331 133.844 102.159 136.131 101.783 141.833C102.121 145.78 103.176 147.263 107.311 148.3C110.014 150.584 111.927 151.244 116.041 150.906C119.374 142.528 119.79 139.319 120.392 133.719C120.939 128.942 119.399 127.206 116.433 124.226Z" fill="#14000C"/>
<path d="M115.245 126.832C112.382 124.738 110.701 124.339 107.228 127.765C101.589 134.989 103.139 136.929 102.82 141.765C103.107 145.113 104.001 146.37 107.508 147.25C109.8 149.187 111.423 149.747 114.912 149.46C117.74 142.354 118.092 139.633 118.602 134.883C119.066 130.832 117.761 129.359 115.245 126.832Z" fill="#0D2C89"/>
<path d="M106.289 133.218C107.807 129.175 109.359 129.479 112.232 130.395C114.061 131.097 114.731 132.218 115.724 134.648C117.359 141.168 116.064 145.153 112.016 144.941C109.938 144.28 108.757 143.759 106.561 142.112C103.391 138.342 104.414 136.498 106.289 133.218Z" fill="black" stroke="black" stroke-width="0.361458"/>
<path d="M107.318 134.322C108.461 131.278 109.629 131.507 111.792 132.196C113.169 132.725 113.673 133.569 114.421 135.399C115.653 140.308 114.678 143.308 111.629 143.148C110.065 142.651 109.176 142.258 107.522 141.019C105.135 138.18 105.905 136.791 107.318 134.322Z" fill="#040146" stroke="black" stroke-width="0.361458"/>
<path d="M109.496 137.89C110.22 136.137 110.999 135.538 112.455 134.539C112.882 136.728 112.75 137.487 112.235 138.496L111.07 140.743C109.968 139.935 109.596 139.353 109.496 137.89Z" fill="#FB71D1"/>
<path d="M102.992 118.94C100.081 116.422 98.2989 115.842 94.2401 119.239C87.5009 126.553 89.006 128.788 88.2324 133.99C88.2463 137.636 89.1024 139.075 92.8175 140.337C95.125 142.635 96.83 143.384 100.629 143.383C104.316 135.948 104.939 133.037 105.911 127.945C106.771 123.604 105.49 121.896 102.992 118.94Z" fill="#14000C"/>
<path d="M101.707 121.239C99.2388 119.103 97.7269 118.611 94.2845 121.492C88.5688 127.696 89.8453 129.591 89.1892 134.003C89.2009 137.095 89.927 138.316 93.078 139.386C95.035 141.335 96.4811 141.97 99.7035 141.969C102.83 135.664 103.358 133.194 104.183 128.876C104.913 125.195 103.826 123.746 101.707 121.239Z" fill="#0D2C89"/>
<path d="M93.0147 126.431C94.7106 122.838 96.1114 123.232 98.6772 124.288C100.302 125.069 100.832 126.148 101.561 128.452C102.572 134.555 101.085 138.113 97.387 137.614C95.5304 136.852 94.4867 136.285 92.5957 134.61C89.9708 130.913 91.0477 129.299 93.0147 126.431Z" fill="black" stroke="black" stroke-width="0.332658"/>
<path d="M93.8757 127.519C95.1526 124.813 96.2073 125.111 98.1393 125.906C99.3629 126.494 99.762 127.306 100.311 129.041C101.071 133.636 99.9518 136.315 97.1678 135.939C95.7699 135.366 94.984 134.939 93.5602 133.678C91.5839 130.894 92.3947 129.679 93.8757 127.519Z" fill="#040146" stroke="black" stroke-width="0.332658"/>
<path d="M94.0905 129.61C94.8869 128.057 95.6458 127.565 97.0565 126.758C97.284 128.798 97.106 129.484 96.5578 130.372L95.3209 132.345C94.3704 131.522 94.0732 130.96 94.0905 129.61Z" fill="#FB71D1"/>
<path d="M96.9165 132.561L98.6836 129.742L98.7317 133.11L97.9365 134.378L97.7263 133.461L96.9165 132.561Z" fill="#FEDEFF"/>
<path d="M92.2243 109.372C89.4873 105.632 87.5517 104.469 81.8708 107.362C71.9871 114.128 73.1507 117.157 70.8388 123.054C69.8712 127.338 70.4876 129.258 74.5079 131.741C76.5961 135.061 78.3952 136.401 82.8551 137.425C89.1884 129.693 90.7049 126.444 93.2198 120.73C95.4013 115.867 94.358 113.516 92.2243 109.372Z" fill="#14000C"/>
<path d="M90.0931 111.724C87.7718 108.551 86.1301 107.565 81.3119 110.019C72.9292 115.757 73.9161 118.326 71.9553 123.328C71.1346 126.961 71.6575 128.589 75.0672 130.695C76.8383 133.511 78.3641 134.647 82.1467 135.516C87.5182 128.958 88.8044 126.202 90.9374 121.356C92.7876 117.232 91.9027 115.238 90.0931 111.724Z" fill="#0D2C89"/>
<path d="M78.4905 115.471C81.4508 111.711 82.9885 112.552 85.7151 114.484C87.4119 115.839 87.743 117.248 87.9762 120.15C87.5156 127.586 84.8102 131.36 80.6048 129.777C78.6312 128.382 77.5591 127.435 75.7916 124.958C73.7083 119.911 75.4079 118.307 78.4905 115.471Z" fill="black" stroke="black" stroke-width="0.400642"/>
<path d="M79.2094 116.985C81.4384 114.154 82.5961 114.787 84.6492 116.242C85.9267 117.262 86.176 118.323 86.3516 120.507C86.0048 126.106 83.9678 128.948 80.8013 127.757C79.3154 126.706 78.5081 125.993 77.1773 124.128C75.6087 120.328 76.8884 119.12 79.2094 116.985Z" fill="#040146" stroke="black" stroke-width="0.400642"/>
<path d="M79.4174 120.913C81.1279 118.881 82.4206 118.411 84.7874 117.695C84.4293 120.798 83.9315 121.754 82.8161 122.883L80.3095 125.387C79.1808 123.842 78.9317 122.907 79.4174 120.913Z" fill="#FB71D1"/>
<path d="M83.6096 97.2549C82.0831 92.2092 80.5917 90.2123 74.4638 91.0336C63.3215 94.2989 63.571 97.9687 59.7667 103.305C57.6705 107.462 57.715 109.741 60.7936 113.961C61.8289 118.304 63.1432 120.435 67.039 123.282C75.1218 117.591 77.4454 114.746 81.3891 109.684C84.784 105.393 84.4589 102.489 83.6096 97.2549Z" fill="#14000C"/>
<path d="M80.9644 98.9006C79.6697 94.6211 78.4048 92.9275 73.2075 93.6241C63.7573 96.3935 63.969 99.506 60.7424 104.032C58.9645 107.558 59.0022 109.49 61.6133 113.07C62.4914 116.753 63.6061 118.56 66.9103 120.975C73.7656 116.148 75.7363 113.735 79.0811 109.442C81.9604 105.803 81.6847 103.34 80.9644 98.9006Z" fill="#0D2C89"/>
<path d="M69.0442 98.2893C72.863 95.4736 74.0706 96.9729 76.0898 100.098C77.3038 102.204 77.2229 103.828 76.6359 106.995C74.1394 114.694 70.5557 117.625 67.0536 114.286C65.5913 112.027 64.8495 110.6 63.8804 107.277C63.3293 101.105 65.3677 100.076 69.0442 98.2893Z" fill="black" stroke="black" stroke-width="0.463408"/>
<path d="M69.2978 100.169C72.1732 98.0487 73.0824 99.1776 74.6027 101.53C75.5168 103.116 75.4559 104.339 75.0139 106.724C73.1342 112.52 70.4359 114.727 67.799 112.213C66.698 110.512 66.1394 109.438 65.4098 106.936C64.9948 102.289 66.5296 101.514 69.2978 100.169Z" fill="#040146" stroke="black" stroke-width="0.463408"/>
<path d="M68.3045 102.719C70.0203 101.549 71.0827 101.559 72.9961 101.699C72.0484 104.19 71.4689 104.836 70.3931 105.435L67.983 106.751C67.4851 105.102 67.5057 104.24 68.3045 102.719Z" fill="#FB71D1"/>
<path d="M69.4945 108.185L72.9375 106.305L71.0376 110.171L69.4882 111.017L69.8035 109.816L69.4945 108.185Z" fill="#FEDEFF"/>
<path d="M79.5945 79.1075C78.2978 73.5745 76.6703 71.3351 68.8729 71.8783C54.4767 74.7789 54.3387 78.7548 48.9042 84.3028C45.76 88.6732 45.5356 91.136 48.8832 95.8644C49.6492 100.612 51.0378 102.985 55.5807 106.278C66.4325 100.586 69.7008 97.6456 75.2766 92.4019C80.0683 87.9594 80.0172 84.8063 79.5945 79.1075Z" fill="#14000C"/>
<path d="M76.0637 80.746C74.9639 76.0533 73.5836 74.1539 66.9703 74.6147C54.7605 77.0747 54.6434 80.4469 50.0342 85.1523C47.3675 88.859 47.1772 90.9478 50.0164 94.9581C50.6661 98.9845 51.8438 100.998 55.6968 103.79C64.9006 98.9631 67.6725 96.4688 72.4016 92.0215C76.4656 88.2536 76.4222 85.5793 76.0637 80.746Z" fill="#0D2C89"/>
<path d="M61.1758 79.4097C66.3184 76.584 67.6507 78.2702 69.8023 81.7569C71.068 84.0991 70.7666 85.8481 69.6398 89.234C65.5573 97.4055 60.6957 100.369 56.7079 96.5679C55.1491 94.0474 54.393 92.4649 53.5846 88.8233C53.6517 82.1288 56.3384 81.1325 61.1758 79.4097Z" fill="black" stroke="black" stroke-width="0.491212"/>
<path d="M61.2647 81.4581C65.1369 79.3305 66.14 80.6002 67.76 83.2254C68.713 84.989 68.486 86.3058 67.6377 88.8553C64.5638 95.0079 60.9033 97.2393 57.9007 94.3773C56.727 92.4795 56.1577 91.288 55.549 88.546C55.5995 83.5054 57.6225 82.7553 61.2647 81.4581Z" fill="#040146" stroke="black" stroke-width="0.491212"/>
<path d="M59.6996 84.1474C61.9984 82.9806 63.3316 83.051 65.7175 83.3094C64.2208 85.9454 63.4134 86.6109 61.9887 87.1968L58.7997 88.4828C58.3771 86.6748 58.5091 85.7453 59.6996 84.1474Z" fill="#FB71D1"/>
<path d="M60.5225 90.1263L65.0781 88.2891L62.2163 92.3563L60.1663 93.183L60.71 91.9045L60.5225 90.1263Z" fill="#FEDEFF"/>
<path d="M35.9792 45.1163C34.4622 50.0508 34.7133 52.553 41.0791 55.6982C53.7011 60.0164 55.6304 56.9605 62.4347 55.0973C66.903 53.1089 68.2071 51.2796 67.7466 46.037C69.32 41.9619 69.3179 39.4638 67.262 34.8004C56.1422 34.2948 52.2313 35.1049 45.4555 36.6647C39.6617 37.9552 38.2577 40.4521 35.9792 45.1163Z" fill="#14000C"/>
<path d="M39.4956 45.4516C38.209 49.6367 38.4219 51.7589 43.8209 54.4264C54.5261 58.0888 56.1624 55.497 61.9334 53.9168C65.7231 52.2303 66.8292 50.6789 66.4386 46.2324C67.7731 42.7762 67.7713 40.6574 66.0276 36.7022C56.5965 36.2734 53.2796 36.9605 47.5328 38.2834C42.6188 39.3779 41.4281 41.4957 39.4956 45.4516Z" fill="#0D2C89"/>
<path d="M50.5696 53.3147C45.2411 53.176 44.9683 51.243 44.8773 47.5222C44.9571 45.1051 45.9947 43.8711 48.4294 41.7309C55.3747 37.1904 60.5459 37.0922 61.9333 41.9006C62.0017 44.5918 61.8701 46.1796 60.8364 49.4067C57.7176 54.6277 55.1535 54.1787 50.5696 53.3147Z" fill="black" stroke="black" stroke-width="0.446218"/>
<path d="M51.4365 51.674C47.4244 51.5696 47.219 50.1141 47.1505 47.3126C47.2106 45.4926 47.9918 44.5635 49.825 42.9521C55.0544 39.5333 58.948 39.4594 59.9927 43.0799C60.0442 45.1062 59.9451 46.3017 59.1667 48.7315C56.8185 52.6626 54.8879 52.3245 51.4365 51.674Z" fill="#040146" stroke="black" stroke-width="0.446218"/>
<path d="M53.8945 50.2783C51.5566 50.1407 50.5431 49.4748 48.7897 48.1794C51.1712 46.797 52.1093 46.6446 53.4954 46.8376L56.5861 47.2893C56.0895 48.9012 55.5602 49.57 53.8945 50.2783Z" fill="#FB71D1"/>
<path d="M31.7833 29.807C30.1514 33.5772 30.131 35.5784 34.8908 38.6234C44.4964 43.144 46.2899 40.8958 51.8351 40.0177C55.5434 38.8361 56.7351 37.5034 56.8298 33.3164C58.4311 30.2308 58.6481 28.2547 57.4302 24.3861C48.679 23.0127 45.5147 23.3111 40.0187 23.9516C35.323 24.4651 33.9939 26.3173 31.7833 29.807Z" fill="#14000C"/>
<path d="M34.5382 30.3808C33.1542 33.5784 33.1368 35.2757 37.1737 37.8583C45.3206 41.6923 46.8418 39.7855 51.5448 39.0408C54.69 38.0386 55.7007 36.9083 55.781 33.3572C57.1391 30.7402 57.3232 29.0642 56.2902 25.7831C48.8681 24.6183 46.1843 24.8713 41.5229 25.4146C37.5404 25.8501 36.4131 27.421 34.5382 30.3808Z" fill="#0D2C89"/>
<path d="M42.6065 37.5684C38.4039 36.9922 38.3574 35.4393 38.6112 32.4884C38.8859 30.5835 39.8146 29.6983 41.9278 28.2186C47.8188 25.2352 51.9177 25.6103 52.5941 29.535C52.4126 31.6697 52.1695 32.9141 51.0694 35.376C48.1454 39.2327 46.1566 38.6531 42.6065 37.5684Z" fill="black" stroke="black" stroke-width="0.3551"/>
<path d="M43.4385 36.3381C40.2742 35.9042 40.2392 34.735 40.4302 32.5131C40.6371 31.0788 41.3363 30.4123 42.9274 29.2982C47.363 27.0519 50.4492 27.3343 50.9586 30.2894C50.8219 31.8967 50.6389 32.8336 49.8105 34.6874C47.6089 37.5912 46.1115 37.1548 43.4385 36.3381Z" fill="#040146" stroke="black" stroke-width="0.3551"/>
<path d="M45.5029 35.4491C43.6658 35.1356 42.9223 34.5203 41.6489 33.3421C43.6536 32.4571 44.409 32.4188 45.4884 32.6928L47.8935 33.3206C47.3596 34.5521 46.8824 35.0347 45.5029 35.4491Z" fill="#FB71D1"/>
<path d="M27.0809 20.651C26.1149 23.1515 26.1535 24.4568 29.336 26.3184C35.7161 29.0162 36.8271 27.5038 40.4196 26.7872C42.8067 25.9205 43.549 25.0206 43.502 22.2883C44.4659 20.235 44.556 18.9409 43.6614 16.4503C37.9202 15.7822 35.8648 16.059 32.2981 16.6194C29.25 17.0762 28.4315 18.3183 27.0809 20.651Z" fill="#14000C"/>
<path d="M28.8896 20.9543C28.0703 23.0751 28.103 24.1821 30.8022 25.7611C36.2134 28.0491 37.1556 26.7664 40.2026 26.1587C42.2272 25.4236 42.8567 24.6604 42.8169 22.343C43.6343 20.6015 43.7108 19.5039 42.9521 17.3916C38.0827 16.8249 36.3395 17.0597 33.3145 17.535C30.7292 17.9224 30.035 18.9759 28.8896 20.9543Z" fill="#0D2C89"/>
<path d="M34.3398 25.4279C31.5848 25.1614 31.5141 24.1502 31.6029 22.2196C31.7325 20.9705 32.315 20.3693 33.6543 19.3497C37.4177 17.2515 40.0998 17.3895 40.6428 19.9308C40.58 21.3273 40.4538 22.1449 39.8005 23.7787C37.9943 26.3691 36.6826 26.0429 34.3398 25.4279Z" fill="black" stroke="black" stroke-width="0.231704"/>
<path d="M34.8476 24.608C32.7733 24.4074 32.72 23.646 32.7869 22.1924C32.8845 21.2519 33.3231 20.7992 34.3315 20.0315C37.1651 18.4517 39.1846 18.5556 39.5935 20.4691C39.5461 21.5205 39.4511 22.1361 38.9592 23.3663C37.5992 25.3167 36.6116 25.0711 34.8476 24.608Z" fill="#040146" stroke="black" stroke-width="0.231704"/>
<path d="M36.1741 23.9789C34.9682 23.8222 34.4675 23.4403 33.6066 22.7052C34.8906 22.0762 35.3821 22.0315 36.093 22.1821L37.6774 22.529C37.3613 23.3458 37.0628 23.6728 36.1741 23.9789Z" fill="#FB71D1"/>
<path d="M24.1161 15.0692C23.4201 16.754 23.4258 17.6419 25.56 18.9575C29.855 20.8918 30.634 19.8811 33.0875 19.4504C34.7239 18.8987 35.2427 18.2987 35.2537 16.4404C35.9412 15.0597 36.0228 14.1814 35.4538 12.4741C31.5613 11.9297 30.1597 12.0856 27.7262 12.4105C25.6468 12.6731 25.0709 13.5047 24.1161 15.0692Z" fill="#14000C"/>
<path d="M25.339 15.305C24.7487 16.7339 24.7536 17.487 26.5637 18.6028C30.2064 20.2433 30.8671 19.3862 32.948 19.0209C34.3359 18.553 34.7759 18.044 34.7852 16.468C35.3683 15.2969 35.4376 14.552 34.955 13.1041C31.6536 12.6423 30.4648 12.7745 28.4009 13.0501C26.6373 13.2728 26.1488 13.9781 25.339 15.305Z" fill="#0D2C89"/>
<path d="M28.9733 18.4321C27.1046 18.2077 27.0725 17.5191 27.1631 16.2081C27.2709 15.3609 27.6764 14.9613 28.6029 14.2892C31.1942 12.922 33.0154 13.058 33.3447 14.7942C33.28 15.7425 33.1813 16.2964 32.7115 17.3968C31.4429 19.1294 30.5563 18.887 28.9733 18.4321Z" fill="black" stroke="black" stroke-width="0.157559"/>
<path d="M29.3323 17.8783C27.9253 17.7093 27.9011 17.1908 27.9693 16.2037C28.0505 15.5659 28.3558 15.265 29.0534 14.7589C31.0045 13.7295 32.3758 13.8319 32.6237 15.1391C32.5749 15.8532 32.5007 16.2702 32.1469 17.0987C31.1918 18.4033 30.5242 18.2208 29.3323 17.8783Z" fill="#040146" stroke="black" stroke-width="0.157559"/>
<path d="M30.2431 17.4711C29.4258 17.3456 29.0914 17.0781 28.5177 16.5649C29.4005 16.1574 29.7353 16.1348 30.2162 16.2484L31.2879 16.5091C31.0602 17.0594 30.8521 17.277 30.2431 17.4711Z" fill="#FB71D1"/>
<path d="M120.245 115.625C130.034 116.685 134.629 115.311 138.22 102.254C141.749 77.0566 135.329 74.5471 129.383 62.4772C124.046 54.8274 120.149 53.0458 110.497 55.8013C102.298 54.3263 97.62 55.2324 89.6291 60.7666C92.6978 81.7735 95.6273 88.805 100.995 100.931C105.504 111.315 110.687 113.043 120.245 115.625Z" fill="#14000C"/>
<path d="M119.601 108.915C127.903 109.813 131.801 108.648 134.847 97.5741C137.839 76.2036 132.395 74.0752 127.351 63.8384C122.825 57.3503 119.52 55.8393 111.334 58.1763C104.379 56.9253 100.412 57.6938 93.6348 62.3875C96.2375 80.2042 98.7221 86.1679 103.275 96.4524C107.099 105.26 111.495 106.725 119.601 108.915Z" fill="#0D2C89"/>
<path d="M130.33 85.3401C131.994 95.3691 128.473 96.578 121.538 98.092C116.982 98.8154 114.296 97.3179 109.409 93.5312C98.3981 82.1642 96.3468 72.5154 104.851 68.1807C109.866 67.0808 112.887 66.7539 119.303 67.5245C130.207 71.4797 130.292 76.4436 130.33 85.3401Z" fill="black" stroke="black" stroke-width="0.851039"/>
<path d="M126.936 84.3123C128.19 91.8636 125.538 92.7738 120.316 93.9138C116.886 94.4584 114.864 93.3309 111.184 90.4798C102.894 81.921 101.349 74.6561 107.752 71.3923C111.528 70.5641 113.803 70.318 118.634 70.8982C126.844 73.8763 126.908 77.6138 126.936 84.3123Z" fill="#040146" stroke="black" stroke-width="0.851039"/>
<path d="M119.411 80.1299C119.998 84.5577 119.117 86.6963 117.324 90.4477C113.875 86.4871 113.251 84.7852 113.112 82.1198L112.842 76.1686C116.04 76.5165 117.483 77.2662 119.411 80.1299Z" fill="#FB71D1"/>
<path d="M198.091 177.612C204.546 178.31 207.577 177.404 209.945 168.794C212.272 152.177 208.039 150.522 204.117 142.562C200.598 137.517 198.028 136.342 191.663 138.16C186.255 137.187 183.171 137.784 177.901 141.434C179.925 155.288 181.856 159.925 185.396 167.921C188.37 174.769 191.788 175.909 198.091 177.612Z" fill="#14000C"/>
<path d="M197.668 173.188C203.143 173.781 205.714 173.012 207.722 165.709C209.696 151.616 206.106 150.212 202.78 143.461C199.794 139.183 197.615 138.186 192.216 139.727C187.63 138.903 185.014 139.409 180.544 142.505C182.261 154.254 183.899 158.187 186.902 164.969C189.424 170.778 192.323 171.744 197.668 173.188Z" fill="#0D2C89"/>
<path d="M204.741 157.636C205.839 164.25 203.516 165.047 198.943 166.046C195.939 166.523 194.168 165.535 190.945 163.038C183.683 155.542 182.33 149.179 187.938 146.32C191.246 145.595 193.238 145.379 197.47 145.887C204.66 148.496 204.717 151.769 204.741 157.636Z" fill="black" stroke="black" stroke-width="0.561237"/>
<path d="M202.507 156.963C203.334 161.943 201.585 162.543 198.142 163.295C195.88 163.654 194.546 162.91 192.12 161.03C186.652 155.386 185.633 150.595 189.856 148.443C192.346 147.896 193.846 147.734 197.032 148.117C202.447 150.081 202.489 152.545 202.507 156.963Z" fill="#040146" stroke="black" stroke-width="0.561237"/>
<path d="M197.546 154.204C197.933 157.124 197.352 158.535 196.17 161.009C193.895 158.397 193.484 157.274 193.392 155.517L193.214 151.592C195.323 151.821 196.275 152.316 197.546 154.204Z" fill="#FB71D1"/>
<path d="M164.102 143.314C171.287 144.091 174.66 143.083 177.295 133.5C179.885 115.006 175.174 113.164 170.809 104.305C166.892 98.6903 164.032 97.3826 156.948 99.4051C150.929 98.3225 147.496 98.9876 141.631 103.049C143.884 118.468 146.034 123.629 149.973 132.529C153.283 140.151 157.087 141.419 164.102 143.314Z" fill="#14000C"/>
<path d="M163.631 138.386C169.724 139.045 172.585 138.19 174.82 130.062C177.017 114.377 173.021 112.815 169.319 105.301C165.997 100.539 163.571 99.4299 157.563 101.145C152.458 100.227 149.547 100.791 144.572 104.236C146.483 117.313 148.306 121.69 151.648 129.239C154.454 135.703 157.681 136.778 163.631 138.386Z" fill="#0D2C89"/>
<path d="M117.272 194.236C122.94 196.301 125.095 198.299 123.538 206.449C118.664 221.257 114.456 220.901 107.922 225.928C102.919 228.691 100.294 228.617 95.7331 224.491C90.826 223.085 88.4993 221.322 85.6026 216.118C92.971 205.398 96.4833 202.324 102.714 197.109C108.001 192.619 111.318 193.071 117.272 194.236Z" fill="#14000C"/>
<path d="M115.105 197.748C119.913 199.5 121.74 201.194 120.42 208.107C116.286 220.665 112.717 220.363 107.175 224.627C102.932 226.97 100.706 226.907 96.8377 223.409C92.6758 222.216 90.7025 220.72 88.2457 216.307C94.4951 207.215 97.474 204.608 102.758 200.185C107.243 196.377 110.056 196.76 115.105 197.748Z" fill="#0D2C89"/>
<path d="M114.628 213.616C118.256 208.552 116.647 206.935 113.243 204.227C110.934 202.597 109.053 202.694 105.342 203.454C96.2135 206.726 92.4762 211.476 95.9793 216.159C98.4392 218.12 100.012 219.117 103.748 220.429C110.813 221.203 112.202 218.497 114.628 213.616Z" fill="black" stroke="black" stroke-width="0.521446"/>
<path d="M112.484 213.264C115.215 209.452 114.003 208.234 111.441 206.195C109.702 204.968 108.285 205.041 105.491 205.614C98.6182 208.077 95.8042 211.653 98.4419 215.18C100.294 216.656 101.478 217.407 104.291 218.394C109.611 218.977 110.657 216.94 112.484 213.264Z" fill="#040146" stroke="black" stroke-width="0.521446"/>
<path d="M107.215 213.53C108.735 211.254 108.829 209.84 108.858 207.292C105.891 208.537 105.087 209.304 104.29 210.732L102.532 213.931C104.384 214.605 105.381 214.583 107.215 213.53Z" fill="#FB71D1"/>
<path d="M148.876 190.874C153.036 192.389 154.618 193.856 153.475 199.838C149.898 210.706 146.809 210.445 142.014 214.135C138.341 216.162 136.415 216.108 133.067 213.08C129.466 212.048 127.758 210.754 125.632 206.934C131.04 199.066 133.618 196.81 138.191 192.982C142.072 189.687 144.506 190.019 148.876 190.874Z" fill="#14000C"/>
<path d="M147.281 193.453C150.81 194.738 152.151 195.982 151.182 201.056C148.148 210.273 145.528 210.052 141.461 213.181C138.346 214.901 136.713 214.855 133.873 212.287C130.819 211.411 129.37 210.314 127.567 207.074C132.154 200.401 134.34 198.488 138.219 195.241C141.51 192.446 143.575 192.728 147.281 193.453Z" fill="#0D2C89"/>
<path d="M171.506 121.087C172.728 128.448 170.143 129.335 165.053 130.446C161.709 130.977 159.738 129.878 156.151 127.099C148.069 118.756 146.564 111.674 152.805 108.492C156.486 107.685 158.704 107.445 163.413 108.011C171.416 110.914 171.479 114.557 171.506 121.087Z" fill="black" stroke="black" stroke-width="0.624636"/>
<path d="M169.014 120.329C169.933 125.872 167.987 126.54 164.155 127.377C161.637 127.776 160.153 126.949 157.452 124.856C151.367 118.574 150.233 113.242 154.933 110.846C157.705 110.239 159.374 110.058 162.92 110.484C168.946 112.67 168.993 115.413 169.014 120.329Z" fill="#040146" stroke="black" stroke-width="0.624636"/>
<path d="M139.185 211.374C133.721 212.683 132.918 210.789 131.812 207.025C131.236 204.542 131.956 203.003 133.853 200.161C139.689 193.648 144.928 192.14 147.65 196.659C148.452 199.381 148.75 201.033 148.576 204.6C146.821 210.766 144.088 211.006 139.185 211.374Z" fill="#040146" stroke="black" stroke-width="0.624636"/>
<path d="M163.494 117.257C163.924 120.507 163.278 122.077 161.962 124.83C159.431 121.923 158.973 120.674 158.87 118.718L158.672 114.35C161.019 114.605 162.079 115.155 163.494 117.257Z" fill="#FB71D1"/>
<path d="M143.334 204.36C141.1 206.759 139.477 207.258 136.516 207.994C137.149 204.192 137.822 203.044 139.266 201.721L142.511 198.79C143.807 200.764 144.056 201.931 143.334 204.36Z" fill="#FB71D1"/>
<path d="M330.293 62.4516C332.504 60.6789 333.162 59.4652 331.241 56.0736C326.842 50.2197 325.023 51.0122 321.359 49.7595C318.717 49.2842 317.56 49.7126 316.152 52.2351C314.181 53.6002 313.411 54.7352 312.907 57.4869C317.8 61.1463 319.826 61.9847 323.383 63.3664C326.412 64.5674 327.82 63.8667 330.293 62.4516Z" fill="#14000C"/>
<path d="M328.922 61.4956C330.797 59.9921 331.355 58.9627 329.726 56.0862C325.994 51.1213 324.452 51.7934 321.344 50.731C319.103 50.3279 318.122 50.6912 316.928 52.8306C315.256 53.9884 314.604 54.9511 314.175 57.2848C318.326 60.3885 320.044 61.0996 323.061 62.2714C325.63 63.2901 326.824 62.6958 328.922 61.4956Z" fill="#0D2C89"/>
<path d="M326.321 54.5143C328.697 56.2208 328.225 57.1827 327.119 58.9003C326.337 59.9732 325.485 60.2135 323.72 60.4343C319.165 60.3539 316.787 58.8034 317.64 56.1921C318.439 54.949 318.989 54.2686 320.453 53.1222C323.48 51.7134 324.506 52.7081 326.321 54.5143Z" fill="black" stroke="black" stroke-width="0.244941"/>
<path d="M325.421 54.9901C327.211 56.275 326.855 56.9993 326.022 58.2925C325.433 59.1003 324.792 59.2813 323.463 59.4475C320.034 59.3869 318.243 58.2196 318.885 56.2534C319.487 55.3174 319.9 54.8051 321.003 53.9419C323.282 52.8812 324.054 53.6301 325.421 54.9901Z" fill="#040146" stroke="black" stroke-width="0.244941"/>
<path d="M323.872 54.8677C324.891 55.6512 325.146 56.2662 325.542 57.3952C324.034 57.2884 323.561 57.0682 322.992 56.5531L321.727 55.3947C322.45 54.8159 322.897 54.6755 323.872 54.8677Z" fill="#FB71D1"/>
<path d="M321.362 56.5248L323.168 58.1797L320.723 57.7663L319.91 57.0216L320.602 56.9914L321.362 56.5248Z" fill="#FEDEFF"/>
<path d="M308.286 91.1989C310.319 88.3719 310.698 86.7185 307.307 83.3361C300.17 77.8556 298.278 79.393 293.528 79.1173C290.243 79.4252 289.015 80.3133 288.18 83.7635C286.296 86.029 285.759 87.6262 286.068 91.05C293.066 93.7699 295.74 94.095 300.408 94.5585C304.389 94.9824 305.824 93.689 308.286 91.1989Z" fill="#14000C"/>
<path d="M306.115 90.221C307.839 87.8233 308.16 86.421 305.284 83.5523C299.231 78.9041 297.627 80.208 293.598 79.9742C290.812 80.2353 289.77 80.9886 289.062 83.9148C287.464 85.8363 287.008 87.1909 287.27 90.0948C293.206 92.4015 295.474 92.6773 299.432 93.0704C302.809 93.4299 304.027 92.333 306.115 90.221Z" fill="#0D2C89"/>
<path d="M300.731 82.8068C304.107 84.0439 303.864 85.3382 303.121 87.736C302.548 89.2638 301.619 89.8288 299.602 90.672C294.184 92.0772 290.858 91.0254 291.007 87.653C291.544 85.9181 291.97 84.9316 293.326 83.0918C296.445 80.4269 297.987 81.2665 300.731 82.8068Z" fill="black" stroke="black" stroke-width="0.300987"/>
<path d="M299.825 83.6717C302.367 84.6032 302.185 85.5777 301.625 87.3831C301.194 88.5334 300.495 88.9589 298.976 89.5938C294.896 90.6518 292.392 89.8599 292.504 87.3206C292.908 86.0144 293.229 85.2716 294.25 83.8863C296.598 81.8798 297.76 82.512 299.825 83.6717Z" fill="#040146" stroke="black" stroke-width="0.300987"/>
<path d="M297.951 84.0376C299.415 84.6295 299.92 85.2735 300.761 86.4794C298.941 86.8497 298.309 86.7449 297.464 86.3228L295.586 85.3679C296.251 84.4447 296.733 84.1313 297.951 84.0376Z" fill="#FB71D1"/>
<path d="M295.524 86.8234L298.207 88.1875L295.176 88.5037L293.969 87.8899L294.778 87.6261L295.524 86.8234Z" fill="#FEDEFF"/>
<path d="M313.471 82.0487C316.131 80.0749 316.952 78.6861 314.858 74.6404C309.975 67.6102 307.816 68.4563 303.591 66.8327C300.525 66.1618 299.156 66.6116 297.401 69.4964C295.038 71.0047 294.09 72.2967 293.38 75.4887C298.935 79.9772 301.265 81.0452 305.36 82.8148C308.845 84.3503 310.52 83.5934 313.471 82.0487Z" fill="#14000C"/>
<path d="M311.781 80.5362C314.037 78.8621 314.734 77.6842 312.957 74.2529C308.816 68.2903 306.985 69.0079 303.401 67.6309C300.801 67.0619 299.64 67.4434 298.151 69.8901C296.148 71.1693 295.343 72.2652 294.741 74.9724C299.453 78.7792 301.428 79.685 304.902 81.1859C307.858 82.4882 309.278 81.8463 311.781 80.5362Z" fill="#0D2C89"/>
<path d="M309.048 72.2645C311.749 74.3618 311.155 75.4647 309.788 77.4224C308.828 78.6415 307.822 78.8849 305.75 79.0655C300.434 78.7722 297.724 76.8571 298.835 73.8443C299.823 72.4272 300.494 71.6566 302.255 70.3816C305.852 68.8685 307.007 70.0753 309.048 72.2645Z" fill="black" stroke="black" stroke-width="0.286305"/>
<path d="M307.972 72.7817C310.006 74.3608 309.559 75.1912 308.529 76.6653C307.807 77.5832 307.05 77.7664 305.489 77.9025C301.487 77.6816 299.446 76.2397 300.282 73.9712C301.026 72.9042 301.532 72.324 302.858 71.3639C305.566 70.2247 306.435 71.1333 307.972 72.7817Z" fill="#040146" stroke="black" stroke-width="0.286305"/>
<path d="M304.759 73.5976C305.915 74.5574 306.186 75.2869 306.599 76.6231C304.843 76.4323 304.3 76.1544 303.657 75.5277L302.231 74.1193C303.101 73.4749 303.629 73.3305 304.759 73.5976Z" fill="#FB71D1"/>
<path d="M320.624 73.127C323.212 71.5162 324.07 70.3041 322.452 66.4359C318.501 59.6207 316.458 60.2346 312.704 58.4281C309.942 57.5825 308.652 57.8922 306.826 60.4066C304.546 61.6126 303.579 62.7265 302.688 65.6011C307.446 70.1353 309.503 71.2899 313.126 73.2206C316.208 74.8908 317.801 74.3223 320.624 73.127Z" fill="#14000C"/>
<path d="M319.184 71.6123C321.379 70.2462 322.106 69.218 320.734 65.9373C317.384 60.1571 315.65 60.6778 312.467 59.1456C310.124 58.4285 309.03 58.6912 307.481 60.8237C305.548 61.8465 304.727 62.7913 303.972 65.2293C308.008 69.075 309.752 70.0542 312.825 71.6917C315.439 73.1082 316.79 72.626 319.184 71.6123Z" fill="#0D2C89"/>
<path d="M317.3 63.8146C319.621 65.9413 318.993 66.9083 317.592 68.6013C316.619 69.6474 315.679 69.7952 313.765 69.8053C308.911 69.137 306.569 67.1769 307.814 64.4967C308.826 63.2711 309.5 62.6147 311.211 61.5774C314.624 60.4596 315.592 61.6533 317.3 63.8146Z" fill="black" stroke="black" stroke-width="0.263493"/>
<path d="M316.277 64.2119C318.024 65.8131 317.552 66.5412 316.497 67.816C315.765 68.6036 315.057 68.7149 313.615 68.7225C309.96 68.2193 308.197 66.7435 309.134 64.7255C309.897 63.8027 310.404 63.3084 311.692 62.5274C314.262 61.6858 314.991 62.5845 316.277 64.2119Z" fill="#040146" stroke="black" stroke-width="0.263493"/>
<path d="M314.639 63.8842C315.627 64.8514 315.821 65.5408 316.1 66.7975C314.503 66.4906 314.026 66.1949 313.483 65.5718L312.281 64.1729C313.127 63.6471 313.622 63.5542 314.639 63.8842Z" fill="#FB71D1"/>
<path d="M311.744 65.3297L313.461 67.3281L310.902 66.5739L310.129 65.6746L310.873 65.7308L311.744 65.3297Z" fill="#FEDEFF"/>
<path d="M283.843 126.853C285.969 123.578 286.305 121.706 282.327 118.099C274.042 112.342 272.005 114.165 266.67 114.109C263.007 114.63 261.68 115.69 260.928 119.598C258.939 122.236 258.423 124.054 258.951 127.872C266.934 130.544 269.947 130.766 275.198 131.036C279.68 131.298 281.219 129.773 283.843 126.853Z" fill="#14000C"/>
<path d="M281.354 125.881C283.157 123.104 283.442 121.516 280.068 118.457C273.041 113.574 271.314 115.12 266.789 115.073C263.683 115.514 262.557 116.414 261.919 119.729C260.232 121.966 259.794 123.507 260.243 126.745C267.013 129.012 269.568 129.2 274.023 129.429C277.823 129.652 279.129 128.358 281.354 125.881Z" fill="#0D2C89"/>
<path d="M274.931 117.866C278.778 119.071 278.575 120.534 277.87 123.259C277.311 125 276.301 125.683 274.086 126.735C268.094 128.597 264.312 127.597 264.3 123.812C264.808 121.84 265.233 120.713 266.653 118.58C270.004 115.429 271.776 116.287 274.931 117.866Z" fill="black" stroke="black" stroke-width="0.337474"/>
<path d="M273.957 118.884C276.854 119.791 276.701 120.893 276.171 122.944C275.75 124.256 274.989 124.77 273.321 125.562C268.809 126.964 265.962 126.211 265.953 123.361C266.335 121.877 266.655 121.028 267.725 119.422C270.248 117.049 271.582 117.695 273.957 118.884Z" fill="#040146" stroke="black" stroke-width="0.337474"/>
<path d="M271.879 119.392C273.551 119.977 274.15 120.671 275.157 121.977C273.138 122.488 272.425 122.405 271.456 121.977L269.302 121.008C269.997 119.939 270.521 119.562 271.879 119.392Z" fill="#FB71D1"/>
<path d="M269.313 122.639L272.391 124.023L269.013 124.539L267.628 123.916L268.521 123.578L269.313 122.639Z" fill="#FEDEFF"/>
<path d="M289.158 116.336C292.032 113.984 292.878 112.384 290.316 107.965C284.473 100.352 282.1 101.415 277.281 99.8221C273.812 99.2344 272.303 99.8112 270.491 103.136C267.926 104.951 266.932 106.449 266.307 110.061C272.769 114.792 275.434 115.864 280.115 117.627C284.101 119.161 285.936 118.224 289.158 116.336Z" fill="#14000C"/>
<path d="M287.184 114.737C289.621 112.742 290.338 111.386 288.165 107.638C283.209 101.181 281.197 102.082 277.11 100.731C274.168 100.233 272.887 100.722 271.351 103.541C269.175 105.081 268.333 106.351 267.803 109.415C273.283 113.427 275.544 114.336 279.514 115.832C282.894 117.133 284.451 116.338 287.184 114.737Z" fill="#0D2C89"/>
<path d="M283.682 105.611C286.82 107.816 286.214 109.083 284.787 111.349C283.777 112.765 282.664 113.091 280.353 113.404C274.383 113.359 271.246 111.359 272.329 107.926C273.36 106.286 274.071 105.387 275.975 103.865C279.922 101.979 281.28 103.269 283.682 105.611Z" fill="black" stroke="black" stroke-width="0.321012"/>
<path d="M282.508 106.252C284.871 107.912 284.414 108.866 283.34 110.572C282.579 111.639 281.741 111.884 280.001 112.12C275.506 112.086 273.144 110.58 273.96 107.995C274.736 106.76 275.271 106.083 276.705 104.937C279.677 103.517 280.699 104.488 282.508 106.252Z" fill="#040146" stroke="black" stroke-width="0.321012"/>
<path d="M278.953 107.332C280.299 108.346 280.641 109.148 281.176 110.623C279.198 110.503 278.576 110.22 277.822 109.553L276.15 108.052C277.089 107.284 277.673 107.094 278.953 107.332Z" fill="#FB71D1"/>
<path d="M296.691 105.962C299.504 104.019 300.4 102.616 298.382 98.3702C293.594 90.9483 291.337 91.7449 287.037 89.922C283.899 89.1224 282.471 89.538 280.56 92.4514C278.07 93.9238 277.047 95.2229 276.202 98.4898C281.773 103.314 284.138 104.497 288.299 106.466C291.84 108.172 293.594 107.451 296.691 105.962Z" fill="#14000C"/>
<path d="M295.003 104.343C297.388 102.696 298.148 101.506 296.436 97.9048C292.375 91.6101 290.462 92.2857 286.815 90.7396C284.153 90.0614 282.942 90.414 281.321 92.8849C279.21 94.1337 278.341 95.2355 277.625 98.0063C282.35 102.098 284.356 103.102 287.885 104.772C290.888 106.218 292.376 105.606 295.003 104.343Z" fill="#0D2C89"/>
<path d="M292.472 95.7161C295.184 97.9741 294.533 99.0905 293.054 101.061C292.021 102.285 290.976 102.501 288.833 102.614C283.361 102.125 280.633 100.054 281.884 96.9862C282.953 95.5596 283.672 94.7884 285.533 93.5354C289.296 92.1015 290.444 93.3867 292.472 95.7161Z" fill="black" stroke="black" stroke-width="0.295434"/>
<path d="M291.348 96.2116C293.39 97.9117 292.9 98.7524 291.786 100.236C291.009 101.158 290.221 101.32 288.608 101.405C284.488 101.037 282.434 99.478 283.376 97.1679C284.181 96.0938 284.722 95.5131 286.124 94.5697C288.957 93.49 289.821 94.4577 291.348 96.2116Z" fill="#040146" stroke="black" stroke-width="0.295434"/>
<path d="M289.5 95.9282C290.659 96.9588 290.912 97.7206 291.292 99.1131C289.487 98.8546 288.937 98.5489 288.296 97.88L286.875 96.3774C287.795 95.7434 288.344 95.613 289.5 95.9282Z" fill="#FB71D1"/>
<path d="M286.333 97.6972L288.363 99.8438L285.457 99.1356L284.544 98.1696L285.379 98.193L286.333 97.6972Z" fill="#FEDEFF"/>
<path d="M262.812 165.667C264.281 162.05 264.258 160.148 259.67 157.357C250.446 153.269 248.791 155.444 243.541 156.397C240.043 157.599 238.939 158.891 238.939 162.872C237.484 165.838 237.321 167.72 238.561 171.369C246.905 172.486 249.905 172.134 255.113 171.408C259.564 170.819 260.787 169.031 262.812 165.667Z" fill="#14000C"/>
<path d="M260.185 165.179C261.431 162.111 261.411 160.498 257.52 158.131C249.697 154.663 248.293 156.507 243.84 157.316C240.874 158.336 239.938 159.432 239.938 162.807C238.704 165.323 238.565 166.919 239.617 170.015C246.694 170.962 249.238 170.664 253.655 170.047C257.43 169.548 258.467 168.031 260.185 165.179Z" fill="#0D2C89"/>
<path d="M252.361 158.523C256.366 158.98 256.444 160.454 256.266 163.263C256.046 165.079 255.183 165.94 253.207 167.391C247.674 170.353 243.772 170.084 243.044 166.37C243.171 164.338 243.375 163.15 244.368 160.788C247.063 157.06 248.965 157.568 252.361 158.523Z" fill="black" stroke="black" stroke-width="0.337474"/>
<path d="M251.602 159.703C254.618 160.048 254.677 161.158 254.543 163.273C254.377 164.64 253.727 165.288 252.239 166.381C248.073 168.611 245.135 168.409 244.587 165.612C244.683 164.082 244.836 163.188 245.584 161.409C247.613 158.602 249.045 158.985 251.602 159.703Z" fill="#040146" stroke="black" stroke-width="0.337474"/>
<path d="M249.657 160.598C251.41 160.856 252.129 161.425 253.364 162.517C251.479 163.401 250.762 163.454 249.73 163.217L247.432 162.672C247.913 161.49 248.356 161.021 249.657 160.598Z" fill="#FB71D1"/>
<path d="M247.747 164.269L251.031 165.047L247.812 166.191L246.334 165.841L247.147 165.34L247.747 164.269Z" fill="#FEDEFF"/>
<path d="M266.045 154.334C268.423 151.481 268.951 149.751 265.601 145.895C258.425 139.523 256.295 141.015 251.262 140.361C247.745 140.439 246.371 141.29 245.22 144.897C243.044 147.164 242.351 148.823 242.42 152.488C249.658 155.913 252.479 156.462 257.409 157.31C261.612 158.063 263.237 156.796 266.045 154.334Z" fill="#14000C"/>
<path d="M263.803 153.131C265.82 150.712 266.268 149.244 263.426 145.974C257.34 140.569 255.534 141.835 251.265 141.28C248.282 141.346 247.117 142.068 246.141 145.128C244.295 147.05 243.708 148.457 243.766 151.566C249.905 154.471 252.297 154.936 256.478 155.655C260.043 156.294 261.422 155.22 263.803 153.131Z" fill="#0D2C89"/>
<path d="M258.643 144.837C262.141 146.409 261.785 147.768 260.811 150.262C260.087 151.844 259.056 152.375 256.845 153.118C250.975 154.202 247.516 152.83 247.931 149.254C248.634 147.449 249.162 146.432 250.745 144.578C254.265 141.98 255.842 142.99 258.643 144.837Z" fill="black" stroke="black" stroke-width="0.321012"/>
<path d="M257.608 145.689C260.242 146.873 259.974 147.896 259.241 149.774C258.695 150.965 257.919 151.365 256.254 151.925C251.834 152.74 249.23 151.708 249.543 149.015C250.072 147.656 250.469 146.89 251.661 145.494C254.312 143.538 255.499 144.298 257.608 145.689Z" fill="#040146" stroke="black" stroke-width="0.321012"/>
<path d="M254.324 147.416C255.837 148.157 256.324 148.88 257.128 150.227C255.164 150.483 254.499 150.323 253.633 149.81L251.707 148.651C252.485 147.72 253.022 147.423 254.324 147.416Z" fill="#FB71D1"/>
<path d="M271.483 142.722C273.878 140.283 274.493 138.736 271.709 134.948C265.605 128.564 263.54 129.772 258.973 128.794C255.741 128.602 254.417 129.28 253.09 132.502C250.924 134.418 250.164 135.887 249.951 139.254C256.334 142.939 258.879 143.655 263.338 144.802C267.136 145.809 268.723 144.769 271.483 142.722Z" fill="#14000C"/>
<path d="M269.517 141.451C271.548 139.383 272.07 138.071 269.709 134.858C264.532 129.443 262.78 130.468 258.907 129.639C256.165 129.475 255.042 130.05 253.917 132.783C252.08 134.408 251.435 135.654 251.255 138.51C256.668 141.636 258.827 142.242 262.609 143.216C265.83 144.07 267.176 143.187 269.517 141.451Z" fill="#0D2C89"/>
<path d="M265.406 133.452C268.496 135.157 268.067 136.377 266.987 138.591C266.203 139.988 265.218 140.397 263.134 140.913C257.668 141.466 254.599 139.948 255.248 136.699C256.028 135.096 256.589 134.203 258.18 132.621C261.604 130.502 262.974 131.548 265.406 133.452Z" fill="black" stroke="black" stroke-width="0.295434"/>
<path d="M264.392 134.152C266.719 135.436 266.396 136.354 265.583 138.022C264.993 139.073 264.251 139.381 262.682 139.77C258.567 140.186 256.255 139.044 256.744 136.597C257.332 135.39 257.754 134.718 258.952 133.527C261.53 131.931 262.562 132.718 264.392 134.152Z" fill="#040146" stroke="black" stroke-width="0.295434"/>
<path d="M262.527 134.227C263.859 135.02 264.252 135.721 264.888 137.016C263.067 137.103 262.469 136.907 261.713 136.371L260.034 135.164C260.817 134.368 261.332 134.136 262.527 134.227Z" fill="#FB71D1"/>
<path d="M259.75 136.565L262.148 138.289L259.161 138.143L258.082 137.367L258.906 137.232L259.75 136.565Z" fill="#FEDEFF"/>
<path d="M336.71 54.4428C338.732 53.1108 339.389 52.1307 338.025 49.0922C334.749 43.7614 333.139 44.2906 330.121 42.9329C327.911 42.3179 326.893 42.5902 325.494 44.6241C323.708 45.6283 322.963 46.5326 322.314 48.8334C326.185 52.3366 327.842 53.2113 330.759 54.6703C333.24 55.9336 334.493 55.4496 336.71 54.4428Z" fill="#14000C"/>
<path d="M335.626 53.5211C337.341 52.3914 337.898 51.5602 336.741 48.9831C333.962 44.4618 332.597 44.9107 330.037 43.7591C328.163 43.2376 327.3 43.4685 326.113 45.1935C324.598 46.0453 323.966 46.8122 323.416 48.7636C326.7 51.7348 328.105 52.4766 330.578 53.7141C332.683 54.7855 333.746 54.375 335.626 53.5211Z" fill="#0D2C89"/>
<path d="M333.965 47.3727C335.851 49.014 335.372 49.7946 334.294 51.1677C333.543 52.0182 332.8 52.1547 331.28 52.2019C327.412 51.7705 325.512 50.2619 326.446 48.1083C327.225 47.1144 327.746 46.5793 329.084 45.7207C331.771 44.7634 332.564 45.6914 333.965 47.3727Z" fill="black" stroke="black" stroke-width="0.209297"/>
<path d="M333.162 47.7046C334.582 48.9404 334.221 49.5282 333.41 50.562C332.844 51.2024 332.284 51.3052 331.14 51.3407C328.228 51.0159 326.797 49.88 327.5 48.2585C328.087 47.5101 328.48 47.1073 329.487 46.4608C331.51 45.74 332.107 46.4387 333.162 47.7046Z" fill="#040146" stroke="black" stroke-width="0.209297"/>
<path d="M331.854 47.4796C332.659 48.2275 332.827 48.771 333.074 49.7631C331.8 49.5521 331.415 49.327 330.971 48.8434L329.988 47.7571C330.649 47.3223 331.04 47.2384 331.854 47.4796Z" fill="#FB71D1"/>
<path d="M329.588 48.6826L330.992 50.2344L328.945 49.6878L328.313 48.9895L328.904 49.019L329.588 48.6826Z" fill="#FEDEFF"/>
<path d="M343.855 47.7879C345.651 46.407 346.197 45.4476 344.717 42.7052C341.296 37.9539 339.829 38.5577 336.921 37.4964C334.816 37.0733 333.885 37.3968 332.718 39.3902C331.12 40.4492 330.486 41.3439 330.038 43.5351C333.89 46.5402 335.495 47.2435 338.316 48.4062C340.718 49.4157 341.855 48.8786 343.855 47.7879Z" fill="#14000C"/>
<path d="M342.773 47.0007C344.296 45.8295 344.759 45.0159 343.504 42.6899C340.603 38.6602 339.359 39.1722 336.892 38.2722C335.107 37.9133 334.317 38.1877 333.328 39.8783C331.972 40.7765 331.435 41.5353 331.054 43.3938C334.321 45.9425 335.683 46.539 338.076 47.5251C340.112 48.3813 341.076 47.9258 342.773 47.0007Z" fill="#0D2C89"/>
<path d="M340.808 41.3754C342.68 42.7783 342.287 43.5395 341.374 44.8943C340.732 45.7392 340.047 45.9174 338.632 46.065C334.993 45.9262 333.117 44.648 333.842 42.5746C334.501 41.594 334.951 41.0591 336.141 40.1667C338.583 39.09 339.387 39.9019 340.808 41.3754Z" fill="black" stroke="black" stroke-width="0.195834"/>
<path d="M340.078 41.7446C341.488 42.8009 341.192 43.374 340.505 44.3942C340.021 45.0303 339.505 45.1644 338.44 45.2756C335.7 45.1711 334.288 44.2087 334.833 42.6475C335.329 41.9092 335.668 41.5065 336.564 40.8345C338.403 40.0238 339.008 40.6352 340.078 41.7446Z" fill="#040146" stroke="black" stroke-width="0.195834"/>
<path d="M338.842 41.6175C339.644 42.2605 339.837 42.7563 340.136 43.6653C338.932 43.5552 338.558 43.3715 338.111 42.9504L337.119 42.0038C337.706 41.5529 338.066 41.448 338.842 41.6175Z" fill="#FB71D1"/>
<path d="M336.81 42.8977L338.227 44.25L336.279 43.8796L335.641 43.271L336.195 43.2582L336.81 42.8977Z" fill="#FEDEFF"/>
</svg>
