<svg width="457" height="356" viewBox="0 0 457 356" fill="none" xmlns="http://www.w3.org/2000/svg">
<path d="M1.81953 0C142.126 35.0974 231.21 90.6867 285.049 205.471L290.989 230.477L299.781 199.217L300.427 197.935C330.936 137.386 348.239 103.045 420.724 50.6905C439.74 35.5175 448.443 31.119 456.84 38.1865C451.077 53.4685 443.562 66.747 426.664 94.2867C418.274 136.607 406.867 155.779 382.706 187.389C391.47 190.377 395.138 192.632 396.25 199.217C384.033 223.478 373.967 234.474 349.441 248.557C237.757 299.382 153.024 343.921 129.891 330.509C120.838 329.32 127.397 323.103 154.127 304.825C103.791 291.393 73.6686 283.719 95.675 275.593C71.082 267.157 60.2229 251.061 60.2198 246.603C65.9545 226.269 106.484 218.953 159.116 211.045C118.133 194.765 99.0734 185.529 73.1021 168.633C46.1519 143.637 38.0826 127.713 41.9754 94.2867C55.8732 52.4262 -11.1832 3.70101 1.81953 0Z" fill="#2412EB"/>
<path d="M266.853 221.229C277.195 221.546 281.652 226.066 290.137 221.229C269.198 168.439 248.037 135.348 196.153 85.2827C190.103 81.3412 186.825 80.1783 181.904 86.8054C148.61 79.2643 131.408 80.4597 104.088 95.1208M266.853 221.229C257.491 207.546 249.62 198.205 241.02 190.251C232.752 182.604 223.81 176.238 212.223 168.527M266.853 221.229C262.695 222.71 260.167 228.379 252.143 227.979M212.223 168.527C181.593 128.786 158.534 112.115 104.088 95.1208M212.223 168.527C205.704 178.616 199.247 182.833 180.887 186.846M104.088 95.1208C99.7209 83.9913 93.2244 82.1085 67.3861 94.0985C60.9425 105.852 60.5009 111.826 82.6989 117.906C144.594 141.701 154.149 146.065 180.887 186.846M252.143 227.979C223.252 212.84 207.653 200.11 180.887 186.846M252.143 227.979L194.296 232.629C180.487 223.613 174.486 212.167 167.463 195.542C170.566 189.885 173.447 187.951 180.887 186.846" stroke="black" stroke-width="3"/>
<path d="M256.895 242.899C263.649 246.957 268.366 245.898 271.807 252.492C236.646 277.674 222.003 290.147 168.145 300.833C162.647 300.865 157.568 310.258 157.147 303.986C132.716 295.097 113.591 293.148 102.135 272.502M256.895 242.899C245.262 247.804 236.372 250.543 227.587 252.094C219.14 253.585 210.791 253.977 200.193 254.142M256.895 242.899C254.843 240.237 255.559 235.565 250.256 232.515C225.515 230.306 210.279 232.032 187.672 229.499M200.193 254.142C164.201 266.973 144.007 284.051 102.135 272.502M200.193 254.142C200.175 244.994 197.777 239.634 187.672 229.499M102.135 272.502C94.7524 277.83 72.8275 266.36 61.2199 248.035C61.9362 237.852 79.661 227.941 96.3829 233.193C145.827 243.457 153.745 244.6 187.672 229.499" stroke="black" stroke-width="2.28461"/>
<path d="M301.754 226.978C296.848 227.162 295.117 234.311 292.137 229.496C304.271 183.935 324.397 144.335 367.7 95.9309C371.339 92.1646 372.692 91.9811 373.637 98.4961C390.767 91.553 394.01 91.4907 403.792 106.103M301.754 226.978C308.941 213.762 314.541 204.758 320.197 197.114C325.634 189.764 331.125 183.672 338.129 176.301M301.754 226.978C303.397 228.471 303.418 234.023 307.255 233.731M338.129 176.301C360.613 137.959 374.824 121.999 403.792 106.103M338.129 176.301C339.112 186.207 341.269 190.394 349.041 194.524M403.792 106.103C408.118 95.3142 411.544 93.5587 421.18 105.551C421.787 117.078 420.769 122.902 409.132 128.557C375.283 150.987 369.916 155.122 349.041 194.524M307.255 233.731C323.882 219.333 333.793 207.122 349.041 194.524M307.255 233.731L333.378 238.96C341.69 230.345 346.845 219.268 353.541 203.157C353.248 197.61 352.296 195.691 349.041 194.524" stroke="black" stroke-width="3"/>
<path d="M167.637 172.004C128.032 161.423 104.549 148.04 57.3463 151.911C48.8016 136.84 54.2762 133.688 66.9042 129.543M167.637 172.004C128.609 156.669 107.338 134.521 66.9042 129.543M167.637 172.004C158.663 152.789 130.981 133.423 68.5948 113.128C55.7307 117.715 56.7271 119.828 66.9042 129.543" stroke="black" stroke-width="1.47"/>
<path d="M41.1367 100.5C37.3143 125.349 45.9093 136.088 57.6367 153.5C52.5636 145.897 53.108 141.827 54.1843 135.5C59.3895 130.533 63.3894 129.583 69.1367 130.5C60.5993 124.89 59.9607 123.151 59.1871 119.5C61.8879 115.855 62.3126 113.672 68.7374 113.5C66.3957 111.646 63.5127 108.225 62.6367 105.273C62.6367 103.772 62.6367 101.272 67.1367 93.7731C79.016 87.7667 84.1684 86.8483 96.1367 88L96.211 88.0351C104.298 91.8612 104.384 91.9023 104.137 95.5C113.87 87.9301 121.774 86.8704 134.184 84.501C152.73 81.4688 163.646 82.6033 182.137 87C182.136 84.9427 183.031 83.284 188.089 81.499L182.681 76.501L135.181 47.501C114.42 37.5467 102.016 32.4114 82.6843 25.501C58.8829 16.6763 45.5605 11.2197 21.1843 5.00098C14.4298 2.59338 8.96767 1.80743 1.13819 0C-1.42274 0.419871 1.13819 6 1.13819 6L34.6843 51.501C44.1912 70.6797 44.6348 82.6157 41.1367 100.5Z" fill="black"/>
<path d="M412.633 57C395.214 69.1653 371.423 90.6729 371.133 92C370.843 93.3271 372.633 93 372.633 93L374.137 98C377.595 95.6779 380.428 94.8668 385.637 93.5C388.889 93.4523 391.695 92.9115 394.633 94.5C399.062 97.7738 400.934 100.901 403.633 105C405.279 100.725 406.235 99.1644 408.133 97.5C410.425 96.2278 411.259 96.0793 412.633 97C416.765 100.102 419.006 101.42 422.133 106V113.5C423.275 109.976 424.408 104.826 426.633 94.5C428.451 91.4544 429.855 89.1392 433.133 84C438.927 74.6364 440.489 71.5181 443.633 65.5C446.642 60.6029 449.07 56.1173 453.633 47.5C455.446 42.8677 457.642 38.9781 456.133 38C455.69 37.3676 455.252 36.9586 453.633 36C451.265 34.815 449.638 34.5929 446.633 35C437.718 36.4737 435.02 39.7718 429.133 44.5C422.63 48.66 419.043 51.3185 412.633 57Z" fill="black"/>
<path d="M150.928 74.2837C148.014 77.5246 144.511 79.1266 141.746 76.6399C138.98 74.1533 139.025 72.4139 141.939 69.1729C144.853 65.932 149.457 65.3206 152.223 67.8073C154.989 70.2939 153.842 71.0428 150.928 74.2837Z" fill="#8FA3FA"/>
<path d="M121.868 63.2989C115.986 66.2476 110.575 67.3557 109.016 64.2456C107.457 61.1356 108.769 59.2957 114.651 56.3469C120.533 53.3982 126.565 53.529 128.124 56.639C129.683 59.7491 127.749 60.3501 121.868 63.2989Z" fill="#8FA3FA"/>
<path d="M104.489 44.739C101.652 43.6558 99.8073 41.5865 100.91 38.6975C102.013 35.8085 103.21 35.2601 106.047 36.3433C108.884 37.4266 110.289 40.6467 109.186 43.5357C108.083 46.4247 107.326 45.8223 104.489 44.739Z" fill="#8FA3FA"/>
<path d="M85.8096 57.2863C80.451 55.2402 76.846 51.6459 78.6386 46.9513C80.4311 42.2566 82.6028 41.4523 87.9614 43.4984C93.32 45.5444 96.2109 51.0089 94.4184 55.7035C92.6258 60.3981 91.1682 59.3324 85.8096 57.2863Z" fill="#8FA3FA"/>
<path d="M65.4184 50.5792C60.9382 56.6576 54.6998 59.6639 48.3783 55.0045C42.0568 50.3451 41.4975 47.0843 45.9777 41.0059C50.4579 34.9275 59.2144 33.7772 65.536 38.4366C71.8575 43.096 69.8986 44.5008 65.4184 50.5792Z" fill="#8FA3FA"/>
<path d="M440.654 58.5557C441.012 59.066 440.941 59.7336 440.064 60.3493C439.187 60.965 438.812 60.9969 438.453 60.4866C438.095 59.9762 438.516 59.0634 439.393 58.4477C440.27 57.8321 440.296 58.0453 440.654 58.5557Z" fill="#8FA3FA"/>
<path d="M404.846 82.3983C405.409 83.2003 405.521 84.0922 404.686 84.6786C403.851 85.2649 403.426 85.1994 402.863 84.3974C402.3 83.5955 402.521 82.47 403.356 81.8836C404.191 81.2973 404.283 81.5963 404.846 82.3983Z" fill="#8FA3FA"/>
<ellipse cx="398.426" cy="80.5889" rx="2.00237" ry="2.6181" transform="rotate(-12.5578 398.426 80.5889)" fill="#8FA3FA"/>
<ellipse cx="436.071" cy="52.1357" rx="2.00237" ry="2.6181" transform="rotate(-12.5578 436.071 52.1357)" fill="#8FA3FA"/>
<path d="M399.637 87.2978C401.198 89.5215 401.482 92.0131 399.102 93.6842C396.721 95.3554 395.524 95.1876 393.963 92.9639C392.402 90.7402 393.067 87.5828 395.447 85.9117C397.828 84.2406 398.076 85.0741 399.637 87.2978Z" fill="#8FA3FA"/>
<path d="M444.967 51.1937C446.145 52.8705 446.29 54.7981 444.327 56.176C442.364 57.5539 441.41 57.4632 440.233 55.7863C439.056 54.1094 439.693 51.633 441.656 50.255C443.619 48.8771 443.79 49.5168 444.967 51.1937Z" fill="#8FA3FA"/>
<path d="M405.576 72.8172C406.293 73.8379 406.271 75.0884 404.809 76.1145C403.347 77.1407 402.686 77.1423 401.969 76.1216C401.253 75.1009 401.857 73.4416 403.319 72.4155C404.78 71.3894 404.86 71.7965 405.576 72.8172Z" fill="#8FA3FA"/>
<path d="M407.365 64.9776C407.723 65.4879 407.652 66.1555 406.775 66.7712C405.898 67.3868 405.523 67.4188 405.164 66.9085C404.806 66.3981 405.227 65.4853 406.104 64.8696C406.981 64.2539 407.006 64.4672 407.365 64.9776Z" fill="#8FA3FA"/>
<path d="M412.907 64.6653C413.393 65.3579 413.391 66.1974 412.431 66.8717C411.47 67.546 411.031 67.5405 410.544 66.8479C410.058 66.1552 410.443 65.0471 411.403 64.3728C412.364 63.6985 412.421 63.9727 412.907 64.6653Z" fill="#8FA3FA"/>
<path d="M423.279 53.6062C423.996 54.627 423.974 55.8775 422.512 56.9036C421.05 57.9297 420.389 57.9314 419.672 56.9107C418.956 55.89 419.56 54.2307 421.022 53.2045C422.483 52.1784 422.563 52.5855 423.279 53.6062Z" fill="#8FA3FA"/>
</svg>
