<svg width="130" height="116" viewBox="0 0 130 116" fill="none" xmlns="http://www.w3.org/2000/svg">
<path d="M64.5104 47.0695L58.5172 77.0108C58.6575 78.3109 58.7922 79.5559 58.9242 80.7518C55.2939 95.8623 53.2406 103.906 49.3625 113.359C35.5418 117.711 27.9365 118.825 16.7165 99.4686C13.7595 88.9919 15.2612 83.0221 18.0176 77.0108C21.002 66.4009 28.1291 61.94 37.5342 56.5023C37.5342 56.5023 0.736055 55.2213 0.511802 18.0092C-0.759616 11.4837 0.152279 5.3046 5.36062 0.940291C15.6665 -4.62371 37.2631 15.6809 64.5104 47.0695Z" fill="#032EED"/>
<path d="M65.4896 47.0461L71.4828 76.9873C71.3425 78.2874 71.2078 79.5324 71.0758 80.7283C74.7061 95.8388 76.7594 103.882 80.6375 113.336C94.4582 117.688 102.064 118.801 113.283 99.4452C116.241 88.9684 114.739 82.9987 111.982 76.9873C108.998 66.3775 101.871 61.9166 92.4658 56.4788C92.4658 56.4788 129.264 55.1979 129.488 17.9858C130.76 11.4602 129.848 5.28117 124.639 0.916854C114.334 -4.64715 92.7369 15.6574 65.4896 47.0461Z" fill="#032EED"/>
<path d="M71.1997 73.5057C71.0297 92.1707 71.0108 102.814 64.376 106.334C60.655 98.672 59.2896 92.3457 58.0968 82.7795L63.2933 43.1525L63.6178 40.6778C62.2331 38.0789 61.2728 36.5706 65.1342 35.482C70.1044 34.8575 71.3069 35.8728 71.0977 39.9693L71.1068 42.9485L71.1997 73.5057Z" fill="#032EED"/>
<path d="M17.6164 23.9905C17.2855 22.4394 16.9355 21.8232 15.4157 22.059C12.6362 23.031 12.6644 24.1569 11.6771 25.7832C11.122 27.0523 11.1123 27.7511 11.8338 29.0531C12.0498 30.3876 12.3549 31.0443 13.2905 31.9275C15.337 30.2036 15.9363 29.3375 16.9555 27.7958C17.8324 26.4889 17.7785 25.5977 17.6164 23.9905Z" fill="#14000C"/>
<path d="M16.9484 24.489C16.6677 23.1734 16.3709 22.6508 15.0819 22.8508C12.7244 23.6752 12.7484 24.6301 11.911 26.0094C11.4402 27.0858 11.432 27.6785 12.0439 28.7828C12.2272 29.9146 12.4858 30.4716 13.2794 31.2206C15.0151 29.7586 15.5234 29.024 16.3878 27.7164C17.1315 26.608 17.0858 25.8521 16.9484 24.489Z" fill="#FF5DD6"/>
<path d="M14.0108 24.2778C14.9788 23.4245 15.2633 23.8874 15.7332 24.8507C16.0137 25.4998 15.979 25.9976 15.8054 26.9671C15.1193 29.321 14.2083 30.2104 13.3743 29.1774C13.0339 28.481 12.8638 28.0414 12.6548 27.0201C12.5748 25.1261 13.0872 24.816 14.0108 24.2778Z" fill="black" stroke="black" stroke-width="0.0589587"/>
<path d="M14.0591 24.8535C14.788 24.211 15.0021 24.5595 15.356 25.2849C15.5672 25.7736 15.541 26.1484 15.4103 26.8783C14.8938 28.6507 14.2078 29.3204 13.5798 28.5426C13.3235 28.0182 13.1954 27.6873 13.0381 26.9182C12.9779 25.4922 13.3637 25.2587 14.0591 24.8535Z" fill="#E0B049" stroke="black" stroke-width="0.0589587"/>
<path d="M13.7882 25.6387C14.2222 25.2846 14.4844 25.2904 14.9553 25.3384C14.6988 26.0996 14.5499 26.2963 14.279 26.477L13.6722 26.8743C13.5643 26.3675 13.5772 26.1032 13.7882 25.6387Z" fill="#ECE0FF"/>
<path d="M14.0355 27.3176L14.9023 26.75L14.3983 27.9304L14.0083 28.1858L14.097 27.8185L14.0355 27.3176Z" fill="#FEDEFF"/>
<path d="M29.6649 39.8218C28.8697 39.5902 28.4874 39.7013 28.1304 41.1964C27.7197 44.1189 28.2323 44.4842 28.6599 45.9677C29.0591 46.9252 29.3691 47.1772 30.1715 46.9591C30.8347 47.2222 31.2215 47.167 31.9017 46.6041C31.7527 44.1018 31.5473 43.2434 31.1673 41.7595C30.8491 40.4898 30.4337 40.23 29.6649 39.8218Z" fill="#14000C"/>
<path d="M29.6872 40.6158C29.0129 40.4193 28.6886 40.5136 28.3858 41.7817C28.0375 44.2603 28.4723 44.5701 28.8349 45.8284C29.1735 46.6404 29.4364 46.8542 30.1169 46.6692C30.6794 46.8924 31.0075 46.8455 31.5843 46.3681C31.458 44.2458 31.2838 43.5177 30.9615 42.2592C30.6916 41.1823 30.3393 40.962 29.6872 40.6158Z" fill="#FF5DD6"/>
<path d="M28.6923 43.2718C28.6049 42.075 28.8987 41.9715 29.473 41.8695C29.8489 41.8344 30.0612 42.0398 30.4424 42.5383C31.2875 43.9947 31.4083 45.1511 30.6921 45.5674C30.2767 45.6417 30.0282 45.6471 29.5073 45.4862C28.6351 44.902 28.6522 44.3177 28.6923 43.2718Z" fill="black" stroke="black" stroke-width="0.0426013"/>
<path d="M28.9685 43.425C28.9026 42.5238 29.1238 42.4459 29.5563 42.3691C29.8393 42.3427 29.9992 42.4973 30.2862 42.8727C30.9225 43.9693 31.0135 44.84 30.4742 45.1534C30.1614 45.2094 29.9743 45.2134 29.5821 45.0923C28.9254 44.6524 28.9383 44.2125 28.9685 43.425Z" fill="#E0B049" stroke="black" stroke-width="0.0426013"/>
<path d="M29.2334 43.9545C29.207 43.4277 29.2894 43.186 29.4541 42.7648C29.7169 43.268 29.7596 43.4748 29.7581 43.7896L29.7513 44.4919C29.4915 44.416 29.3772 44.3121 29.2334 43.9545Z" fill="#ECE0FF"/>
<path d="M30.0606 44.3002L30.0703 43.2969L30.4454 44.176L30.441 44.6275L30.3036 44.4173L30.0606 44.3002Z" fill="#FEDEFF"/>
<path d="M27.2372 39.4932C26.5554 38.954 26.1829 38.8942 25.5557 40.0856C24.5928 42.5343 24.989 43.0755 25.0828 44.5837C25.2562 45.6085 25.4895 45.9637 26.2682 46.1028C26.8229 46.6152 27.1883 46.727 27.9242 46.506C28.2902 44.2007 28.2744 43.3455 28.2243 41.8568C28.1877 40.5858 27.8594 40.1797 27.2372 39.4932Z" fill="#14000C"/>
<path d="M27.0945 40.2165C26.5163 39.7591 26.2003 39.7084 25.6685 40.7189C24.8517 42.7957 25.1878 43.2547 25.2673 44.5339C25.4144 45.4031 25.6123 45.7044 26.2728 45.8223C26.7432 46.2569 27.0531 46.3517 27.6773 46.1643C27.9876 44.209 27.9743 43.4837 27.9317 42.2211C27.9007 41.1432 27.6223 40.7988 27.0945 40.2165Z" fill="#FF5DD6"/>
<path d="M25.6513 42.1844C25.8115 41.075 26.1013 41.1048 26.6478 41.2528C26.9992 41.3781 27.1524 41.6508 27.4015 42.2566C27.8831 43.9147 27.7616 45.0017 27.022 45.0762C26.6267 44.9697 26.3979 44.8708 25.9531 44.5094C25.2715 43.622 25.4045 43.1053 25.6513 42.1844Z" fill="black" stroke="black" stroke-width="0.0405232"/>
<path d="M25.8714 42.4371C25.992 41.6018 26.2103 41.6242 26.6217 41.7357C26.8863 41.83 27.0017 42.0353 27.1892 42.4915C27.5518 43.7399 27.4604 44.5584 26.9035 44.6145C26.6058 44.5342 26.4336 44.4598 26.0987 44.1877C25.5855 43.5195 25.6856 43.1305 25.8714 42.4371Z" fill="#E0B049" stroke="black" stroke-width="0.0405232"/>
<path d="M26.367 43.3043C26.4485 42.821 26.5725 42.6387 26.808 42.3298C26.9476 42.8905 26.9453 43.0938 26.8807 43.3753L26.7334 44.0021C26.5108 43.8257 26.4269 43.6849 26.367 43.3043Z" fill="#ECE0FF"/>
<path d="M24.6526 38.5423C24.0536 37.9752 23.7141 37.8802 23.0751 38.9021C22.0618 41.0377 22.398 41.5756 22.4056 42.9654C22.5117 43.9216 22.7077 44.2718 23.4168 44.4833C23.9002 45.0121 24.2304 45.1539 24.9189 45.0315C25.3757 42.9624 25.4058 42.1784 25.4373 40.8112C25.4699 39.6447 25.1891 39.2377 24.6526 38.5423Z" fill="#14000C"/>
<path d="M24.4839 39.1819C23.9759 38.7009 23.6879 38.6203 23.146 39.4871C22.2865 41.2983 22.5717 41.7545 22.5781 42.9333C22.6681 43.7443 22.8344 44.0413 23.4357 44.2207C23.8457 44.6692 24.1258 44.7894 24.7097 44.6856C25.0972 42.9307 25.1227 42.2658 25.1494 41.1062C25.1771 40.1169 24.9389 39.7716 24.4839 39.1819Z" fill="#FF5DD6"/>
<path d="M23.0551 40.8297C23.2603 39.8323 23.5253 39.8909 24.0203 40.0855C24.3369 40.2381 24.4637 40.5041 24.6611 41.0853C25.0177 42.6541 24.8493 43.6353 24.1651 43.6234C23.807 43.4831 23.6018 43.3679 23.2115 42.9892C22.6309 42.1036 22.7801 41.6454 23.0551 40.8297Z" fill="black" stroke="black" stroke-width="0.0372944"/>
<path d="M23.2434 41.0867C23.398 40.3357 23.5975 40.3798 23.9702 40.5263C24.2086 40.6413 24.304 40.8415 24.4527 41.2791C24.7212 42.4603 24.5944 43.1991 24.0792 43.1901C23.8096 43.0845 23.6551 42.9978 23.3612 42.7126C22.924 42.0458 23.0364 41.7008 23.2434 41.0867Z" fill="#E0B049" stroke="black" stroke-width="0.0372944"/>
<path d="M23.3384 41.631C23.4386 41.1978 23.5621 41.0445 23.7948 40.7874C23.894 41.3154 23.8812 41.5011 23.8071 41.7516L23.639 42.309C23.4434 42.1236 23.3736 41.9856 23.3384 41.631Z" fill="#ECE0FF"/>
<path d="M23.9357 42.3119L24.1758 41.5156L24.2802 42.3977L24.1721 42.756L24.108 42.5221L23.9357 42.3119Z" fill="#FEDEFF"/>
<path d="M22.4255 36.3801C21.8233 35.4866 21.4395 35.2438 20.4923 36.1854C18.8935 38.2783 19.1904 39.0356 18.9391 40.6573C18.8854 41.8122 19.0517 42.2963 19.8507 42.8186C20.3235 43.6226 20.6875 43.9162 21.5248 44.0415C22.4527 41.8094 22.6352 40.908 22.9286 39.328C23.1857 37.9821 22.9299 37.3988 22.4255 36.3801Z" fill="#14000C"/>
<path d="M22.1062 37.067C21.5954 36.3092 21.2699 36.1032 20.4665 36.9019C19.1106 38.6769 19.3624 39.3192 19.1492 40.6946C19.1037 41.6741 19.2447 42.0847 19.9224 42.5277C20.3233 43.2096 20.6321 43.4586 21.3422 43.5649C22.1293 41.6717 22.284 40.9073 22.5329 39.5672C22.751 38.4257 22.534 37.931 22.1062 37.067Z" fill="#FF5DD6"/>
<path d="M20.1137 38.4158C20.5433 37.334 20.8459 37.5054 21.3948 37.9246C21.7408 38.2256 21.8408 38.5847 21.9655 39.3384C22.0933 41.3043 21.7103 42.3816 20.9033 42.1014C20.506 41.7987 20.2848 41.5847 19.8942 40.9917C19.3733 39.7344 19.6357 39.2588 20.1137 38.4158Z" fill="black" stroke="black" stroke-width="0.0449161"/>
<path d="M20.2856 38.7901C20.6091 37.9756 20.8369 38.1046 21.2502 38.4203C21.5107 38.6469 21.586 38.9173 21.6799 39.4848C21.7761 40.965 21.4878 41.7761 20.8801 41.5652C20.581 41.3372 20.4145 41.1761 20.1203 40.7296C19.7281 39.7829 19.9257 39.4248 20.2856 38.7901Z" fill="#E0B049" stroke="black" stroke-width="0.0449161"/>
<path d="M20.4326 39.8113C20.6848 39.2231 20.9057 39.0583 21.3143 38.7945C21.3375 39.62 21.2745 39.8869 21.1045 40.2191L20.7214 40.9565C20.473 40.5875 20.4013 40.3503 20.4326 39.8113Z" fill="#ECE0FF"/>
<path d="M20.5229 33.4685C20.103 32.1936 19.776 31.7176 18.6889 32.1301C16.7626 33.3449 16.9121 34.2998 16.3743 35.8222C16.1126 36.9803 16.1854 37.5768 16.8632 38.585C17.1742 39.6914 17.4729 40.2081 18.2597 40.83C19.5627 39.0769 19.9029 38.2559 20.4737 36.801C20.9669 35.566 20.8255 34.8146 20.5229 33.4685Z" fill="#14000C"/>
<path d="M20.0867 33.9854C19.7305 32.9042 19.4532 32.5005 18.5312 32.8503C16.8974 33.8806 17.0242 34.6905 16.5681 35.9817C16.3461 36.9639 16.4079 37.4698 16.9827 38.3249C17.2465 39.2633 17.4998 39.7016 18.1672 40.229C19.2722 38.7421 19.5608 38.0458 20.0449 36.8119C20.4633 35.7644 20.3433 35.1271 20.0867 33.9854Z" fill="#FF5DD6"/>
<path d="M17.9134 34.2072C18.5254 33.3457 18.7868 33.7003 19.2414 34.4552C19.5213 34.9689 19.5528 35.3977 19.5364 36.2474C19.3027 38.3476 18.7366 39.2318 18.0071 38.4683C17.678 37.9226 17.503 37.572 17.233 36.7313C16.9578 35.1296 17.2979 34.7941 17.9134 34.2072Z" fill="black" stroke="black" stroke-width="0.0519528"/>
<path d="M18.0146 34.701C18.4754 34.0524 18.6723 34.3193 19.0146 34.8878C19.2253 35.2746 19.249 35.5974 19.2367 36.2372C19.0607 37.8185 18.6345 38.4843 18.0852 37.9094C17.8374 37.4986 17.7057 37.2345 17.5024 36.6016C17.2951 35.3955 17.5512 35.143 18.0146 34.701Z" fill="#E0B049" stroke="black" stroke-width="0.0519528"/>
<path d="M17.9019 35.3989C18.1796 35.0368 18.3724 35.0053 18.7231 34.9805C18.6221 35.6645 18.5355 35.8528 18.3575 36.0444L17.9582 36.4672C17.8211 36.0506 17.8004 35.8238 17.9019 35.3989Z" fill="#ECE0FF"/>
<path d="M18.2733 36.7994L18.8438 36.1953L18.6093 37.2707L18.3526 37.5425L18.3756 37.2174L18.2733 36.7994Z" fill="#FEDEFF"/>
<path d="M19.2773 28.8432C18.8852 27.4331 18.5266 26.8979 17.1291 27.291C14.6029 28.5147 14.6908 29.5623 13.8637 31.1927C13.4181 32.4404 13.4474 33.0938 14.1883 34.2268C14.462 35.4478 14.7811 36.026 15.6978 36.7438C17.5026 34.9018 18.0112 34.0251 18.8726 32.4701C19.6147 31.1505 19.5159 30.3249 19.2773 28.8432Z" fill="#14000C"/>
<path d="M18.6842 29.3812C18.3516 28.1852 18.0475 27.7312 16.8622 28.0647C14.7196 29.1025 14.7942 29.9911 14.0927 31.3738C13.7147 32.4321 13.7396 32.9862 14.368 33.9472C14.6001 34.9828 14.8708 35.4731 15.6483 36.0819C17.1789 34.5197 17.6103 33.7761 18.3409 32.4573C18.9703 31.3381 18.8865 30.6378 18.6842 29.3812Z" fill="#FF5DD6"/>
<path d="M15.9492 29.5116C16.8008 28.6049 17.0902 29.0045 17.5791 29.8502C17.875 30.4241 17.8701 30.8926 17.7621 31.8173C17.2545 34.0925 16.4577 35.0263 15.6271 34.1571C15.273 33.5459 15.0911 33.155 14.8411 32.2255C14.6631 30.4668 15.1216 30.1191 15.9492 29.5116Z" fill="black" stroke="black" stroke-width="0.05507"/>
<path d="M16.026 30.0505C16.6672 29.3679 16.8851 29.6688 17.2532 30.3055C17.476 30.7376 17.4723 31.0904 17.391 31.7866C17.0088 33.4997 16.4089 34.2028 15.7835 33.5484C15.5169 33.0881 15.3799 32.7938 15.1917 32.0939C15.0576 30.7698 15.4029 30.5079 16.026 30.0505Z" fill="#E0B049" stroke="black" stroke-width="0.05507"/>
<path d="M15.8187 30.8043C16.2021 30.4242 16.4457 30.3999 16.8854 30.391C16.6891 31.1307 16.5617 31.3313 16.3201 31.5308L15.7788 31.9707C15.6509 31.5099 15.6484 31.2618 15.8187 30.8043Z" fill="#ECE0FF"/>
<path d="M16.1329 32.3472L16.9062 31.7188L16.5032 32.8779L16.1552 33.1607L16.2174 32.8077L16.1329 32.3472Z" fill="#FEDEFF"/>
<path d="M10.4077 21.3285C10.273 22.672 10.3896 23.3204 11.6325 23.9411C14.0424 24.6684 14.3052 23.8046 15.4852 23.0971C16.2384 22.4317 16.4227 21.9099 16.1903 20.5491C16.3597 19.4293 16.2883 18.774 15.7833 17.6165C13.7539 17.8412 13.0683 18.1794 11.8848 18.8064C10.8715 19.3312 10.6881 20.0315 10.4077 21.3285Z" fill="#14000C"/>
<path d="M11.0557 21.2923C10.9414 22.4317 11.0403 22.9817 12.0945 23.5081C14.1384 24.1249 14.3612 23.3923 15.3621 22.7922C16.0009 22.2279 16.1572 21.7853 15.9601 20.6312C16.1037 19.6815 16.0432 19.1257 15.6149 18.1439C13.8937 18.3345 13.3122 18.6214 12.3084 19.1532C11.4491 19.5983 11.2935 20.1922 11.0557 21.2923Z" fill="#FF5DD6"/>
<path d="M13.2853 23.0079C12.3158 23.1428 12.2114 22.6444 12.0892 21.6711C12.035 21.0343 12.1879 20.6772 12.5683 20.0374C13.6979 18.6229 14.6321 18.4309 15.0202 19.6479C15.109 20.3518 15.1303 20.7727 15.0346 21.6526C14.6178 23.1227 14.1405 23.0873 13.2853 23.0079Z" fill="black" stroke="black" stroke-width="0.0500257"/>
<path d="M13.4001 22.5528C12.6701 22.6544 12.5915 22.2791 12.4995 21.5463C12.4587 21.0668 12.5739 20.7979 12.8603 20.3162C13.7107 19.2511 14.4142 19.1066 14.7064 20.023C14.7733 20.553 14.7893 20.8698 14.7173 21.5324C14.4034 22.6393 14.044 22.6126 13.4001 22.5528Z" fill="#E0B049" stroke="black" stroke-width="0.0500257"/>
<path d="M13.8023 22.0995C13.3748 22.1386 13.1722 21.9964 12.8177 21.7129C13.2099 21.2736 13.3756 21.2035 13.6323 21.2096L14.2051 21.2288C14.161 21.6677 14.084 21.8602 13.8023 22.0995Z" fill="#ECE0FF"/>
<path d="M9.21238 17.4406C9.02378 18.4822 9.07693 19.0079 10.0259 19.6539C11.895 20.5313 12.1561 19.8838 13.136 19.4752C13.7744 19.046 13.9525 18.658 13.8507 17.5564C14.0532 16.6953 14.0363 16.1699 13.7057 15.194C12.081 15.1149 11.516 15.2949 10.5383 15.6396C9.70202 15.9252 9.51379 16.4539 9.21238 17.4406Z" fill="#14000C"/>
<path d="M9.72606 17.5012C9.56611 18.3847 9.61118 18.8306 10.4161 19.3785C12.0013 20.1226 12.2227 19.5734 13.0538 19.2269C13.5953 18.8628 13.7463 18.5338 13.66 17.5995C13.8317 16.8692 13.8174 16.4235 13.537 15.5958C12.159 15.5287 11.6799 15.6814 10.8506 15.9737C10.1413 16.216 9.9817 16.6644 9.72606 17.5012Z" fill="#FF5DD6"/>
<path d="M11.3978 19.1337C10.6199 19.1176 10.5673 18.7117 10.5295 17.9292C10.5252 17.4206 10.6683 17.1585 11.0092 16.7024C11.9919 15.7303 12.7453 15.6969 12.9794 16.705C13.0071 17.2709 12.9984 17.6052 12.869 18.2865C12.4488 19.3924 12.0719 19.3042 11.3978 19.1337Z" fill="black" stroke="black" stroke-width="0.0398104"/>
<path d="M11.5111 18.7824C10.9254 18.7703 10.8858 18.4646 10.8573 17.8755C10.854 17.4925 10.9618 17.2952 11.2185 16.9517C11.9584 16.2198 12.5257 16.1947 12.7019 16.9537C12.7228 17.3798 12.7163 17.6315 12.6189 18.1445C12.3024 18.9772 12.0187 18.9108 11.5111 18.7824Z" fill="#E0B049" stroke="black" stroke-width="0.0398104"/>
<path d="M11.8643 18.4846C11.5225 18.4614 11.3703 18.3238 11.106 18.0556C11.4442 17.759 11.58 17.7247 11.7833 17.7618L12.237 17.8493C12.1752 18.1896 12.1025 18.3315 11.8643 18.4846Z" fill="#ECE0FF"/>
<path d="M8.1015 15.1971C7.9975 15.8842 8.04159 16.2254 8.67115 16.6116C9.90393 17.1144 10.0623 16.6819 10.6929 16.3784C11.1008 16.0743 11.2098 15.8143 11.1236 15.0989C11.2399 14.5292 11.2195 14.1868 10.9867 13.562C9.92732 13.5713 9.56274 13.7099 8.93235 13.9716C8.39298 14.1894 8.27996 14.5416 8.1015 15.1971Z" fill="#14000C"/>
<path d="M8.43612 15.221C8.34791 15.8038 8.3853 16.0932 8.91926 16.4207C9.96482 16.8471 10.0991 16.4803 10.634 16.2229C10.98 15.965 11.0724 15.7445 10.9993 15.1377C11.0979 14.6545 11.0806 14.3641 10.8831 13.8342C9.98465 13.8421 9.67544 13.9597 9.14079 14.1816C8.68333 14.3664 8.58748 14.6651 8.43612 15.221Z" fill="#FF5DD6"/>
<path d="M9.55016 16.2155C9.04336 16.2341 9.00182 15.9711 8.96306 15.4617C8.95106 15.1298 9.03953 14.9533 9.25325 14.6427C9.87559 13.9713 10.3655 13.9213 10.5361 14.5706C10.5644 14.939 10.5648 15.1576 10.4928 15.6073C10.2391 16.345 9.99216 16.3016 9.55016 16.2155Z" fill="black" stroke="black" stroke-width="0.0259764"/>
<path d="M9.62343 15.9802C9.24184 15.9942 9.21056 15.7961 9.18138 15.4126C9.17235 15.1627 9.23896 15.0298 9.39988 14.796C9.86846 14.2904 10.2374 14.2528 10.3658 14.7417C10.3871 15.0191 10.3874 15.1837 10.3332 15.5222C10.1422 16.0777 9.95623 16.045 9.62343 15.9802Z" fill="#E0B049" stroke="black" stroke-width="0.0259764"/>
<path d="M9.84526 15.7659C9.62229 15.7636 9.52071 15.6795 9.34383 15.5143C9.55863 15.3079 9.64643 15.2804 9.77953 15.2971L10.0765 15.3372C10.0424 15.5617 9.9976 15.6571 9.84526 15.7659Z" fill="#ECE0FF"/>
<path d="M7.40621 13.8182C7.32795 14.2826 7.35422 14.5154 7.77834 14.792C8.61157 15.1615 8.72401 14.8713 9.15638 14.6794C9.43723 14.4821 9.51419 14.308 9.46338 13.82C9.54873 13.4357 9.53857 13.2026 9.38696 12.773C8.66614 12.7552 8.41659 12.8411 7.98485 13.0046C7.61551 13.1403 7.53478 13.377 7.40621 13.8182Z" fill="#14000C"/>
<path d="M7.63323 13.8418C7.56685 14.2357 7.58914 14.4332 7.94884 14.6678C8.65553 14.9811 8.7509 14.735 9.1176 14.5723C9.3558 14.4049 9.42107 14.2572 9.37798 13.8434C9.45037 13.5174 9.44175 13.3197 9.31317 12.9553C8.70182 12.9403 8.49016 13.0132 8.12399 13.1518C7.81074 13.2669 7.74227 13.4677 7.63323 13.8418Z" fill="#FF5DD6"/>
<path d="M8.38234 14.5518C8.03734 14.553 8.01195 14.3733 7.99113 14.0264C7.9866 13.8007 8.04871 13.6828 8.19751 13.4767C8.62824 13.0347 8.96211 13.0118 9.07109 13.4568C9.08631 13.7077 9.08418 13.8562 9.03031 14.16C8.84966 14.6554 8.68212 14.6203 8.38234 14.5518Z" fill="black" stroke="black" stroke-width="0.017664"/>
<path d="M8.43057 14.3886C8.17081 14.3895 8.15169 14.2543 8.13602 13.9931C8.1326 13.8231 8.17937 13.7344 8.2914 13.5792C8.61572 13.2463 8.86711 13.2291 8.94917 13.5642C8.96063 13.7531 8.95902 13.8649 8.91846 14.0936C8.78244 14.4666 8.65629 14.4402 8.43057 14.3886Z" fill="#E0B049" stroke="black" stroke-width="0.017664"/>
<path d="M27.6838 37.1308C29.4877 37.0941 30.2814 36.5859 30.5612 33.0446C30.4847 26.3201 29.2502 25.8679 27.8297 22.8922C26.6452 21.0566 25.8885 20.7143 24.2178 21.7475C22.6901 21.624 21.8682 22.0121 20.5774 23.721C21.7304 29.1341 22.461 30.8849 23.7782 33.8939C24.8902 36.4736 25.8786 36.7603 27.6838 37.1308Z" fill="#14000C"/>
<path d="M27.3746 35.3832C28.9045 35.3521 29.5777 34.9211 29.815 31.9176C29.7501 26.2143 28.703 25.8308 27.4983 23.3069C26.4937 21.7501 25.8519 21.4598 24.4349 22.3361C23.1392 22.2314 22.4422 22.5605 21.3474 24.0099C22.3252 28.6009 22.9449 30.0858 24.0621 32.6379C25.0052 34.8258 25.8435 35.069 27.3746 35.3832Z" fill="#FF5DD6"/>
<path d="M28.6517 28.8398C29.2383 31.4177 28.6345 31.848 27.4208 32.4682C26.6159 32.8044 26.0867 32.4978 25.0935 31.6613C22.7753 29.0327 22.1294 26.567 23.5472 25.1564C24.4248 24.7066 24.9629 24.5238 26.1475 24.5197C28.2358 25.2071 28.3922 26.5068 28.6517 28.8398Z" fill="black" stroke="black" stroke-width="0.0954103"/>
<path d="M28.0049 28.6848C28.4466 30.6258 27.9919 30.9498 27.0781 31.4168C26.4721 31.6699 26.0736 31.439 25.3258 30.8092C23.5803 28.8301 23.094 26.9735 24.1615 25.9114C24.8223 25.5728 25.2274 25.4351 26.1194 25.432C27.6917 25.9496 27.8095 26.9281 28.0049 28.6848Z" fill="#E0B049" stroke="black" stroke-width="0.0954103"/>
<path d="M26.5254 27.8339C26.7575 28.9769 26.6586 29.5663 26.4403 30.6082C25.7028 29.6798 25.5414 29.2534 25.4405 28.5585L25.2224 27.0057C25.8118 26.9942 26.0947 27.1445 26.5254 27.8339Z" fill="#ECE0FF"/>
<path d="M43.5472 50.8812C44.7368 50.857 45.2602 50.5219 45.4448 48.1865C45.3943 43.7519 44.5802 43.4537 43.6434 41.4913C42.8623 40.2807 42.3633 40.055 41.2615 40.7364C40.254 40.655 39.712 40.9109 38.8608 42.0378C39.6211 45.6076 40.1029 46.7622 40.9716 48.7466C41.7049 50.4478 42.3567 50.6369 43.5472 50.8812Z" fill="#14000C"/>
<path d="M43.3462 49.7352C44.3551 49.7147 44.7991 49.4305 44.9556 47.4497C44.9128 43.6886 44.2223 43.4357 43.4278 41.7713C42.7653 40.7446 42.342 40.5532 41.4076 41.131C40.5531 41.062 40.0934 41.279 39.3715 42.2348C40.0163 45.2625 40.4249 46.2417 41.1617 47.9248C41.7837 49.3677 42.3365 49.528 43.3462 49.7352Z" fill="#FF5DD6"/>
<path d="M44.1881 45.4321C44.5749 47.1321 44.1767 47.4159 43.3763 47.8249C42.8455 48.0466 42.4965 47.8444 41.8415 47.2928C40.3127 45.5593 39.8868 43.9332 40.8218 43.003C41.4005 42.7064 41.7554 42.5858 42.5366 42.5831C43.9137 43.0364 44.0169 43.8935 44.1881 45.4321Z" fill="black" stroke="black" stroke-width="0.0629204"/>
<path d="M43.7651 45.3178C44.0563 46.5978 43.7565 46.8115 43.1539 47.1194C42.7542 47.2864 42.4914 47.1341 41.9983 46.7188C40.8472 45.4136 40.5265 44.1892 41.2305 43.4888C41.6662 43.2655 41.9334 43.1747 42.5216 43.1727C43.5585 43.514 43.6362 44.1593 43.7651 45.3178Z" fill="#E0B049" stroke="black" stroke-width="0.0629204"/>
<path d="M42.7867 44.7548C42.9397 45.5085 42.8745 45.8972 42.7305 46.5843C42.2442 45.9721 42.1377 45.6908 42.0712 45.2326L41.9274 44.2086C42.3161 44.201 42.5026 44.3001 42.7867 44.7548Z" fill="#ECE0FF"/>
<path d="M36.4161 42.9688C37.7401 42.9418 38.3226 42.5689 38.528 39.9697C38.4718 35.0341 37.5657 34.7022 36.5231 32.5181C35.6538 31.1708 35.0984 30.9196 33.8721 31.6779C32.7508 31.5873 32.1476 31.8722 31.2002 33.1264C32.0464 37.0995 32.5827 38.3845 33.5495 40.593C34.3657 42.4864 35.0911 42.6969 36.4161 42.9688Z" fill="#14000C"/>
<path d="M36.1899 41.6971C37.3128 41.6742 37.8069 41.3579 37.9811 39.1534C37.9335 34.9673 37.165 34.6859 36.2807 32.8335C35.5434 31.6908 35.0723 31.4777 34.0323 32.1209C33.0813 32.044 32.5697 32.2856 31.7662 33.3494C32.4839 36.7191 32.9387 37.8089 33.7586 39.6821C34.4509 41.2879 35.0661 41.4664 36.1899 41.6971Z" fill="#FF5DD6"/>
<path d="M37.1237 36.9023C37.5542 38.7944 37.1111 39.1103 36.2203 39.5655C35.6295 39.8122 35.2411 39.5872 34.5121 38.9732C32.8106 37.0439 32.3366 35.2342 33.3772 34.1988C34.0213 33.8687 34.4162 33.7345 35.2857 33.7316C36.8184 34.236 36.9332 35.19 37.1237 36.9023Z" fill="black" stroke="black" stroke-width="0.0700282"/>
<path d="M36.6552 36.7772C36.9793 38.2018 36.6457 38.4397 35.975 38.7824C35.5301 38.9682 35.2377 38.7987 34.6888 38.3365C33.4077 36.8838 33.0507 35.5212 33.8343 34.7416C34.3192 34.4931 34.6166 34.392 35.2713 34.3898C36.4253 34.7696 36.5118 35.4879 36.6552 36.7772Z" fill="#E0B049" stroke="black" stroke-width="0.0700282"/>
<path d="M35.5663 36.1661C35.7366 37.005 35.6641 37.4376 35.5038 38.2023C34.9626 37.521 34.8441 37.2079 34.77 36.6979L34.61 35.5582C35.0425 35.5498 35.2502 35.6601 35.5663 36.1661Z" fill="#ECE0FF"/>
<path d="M112.563 25.7718C112.894 24.2207 113.244 23.6045 114.764 23.8403C117.544 24.8123 117.515 25.9381 118.503 27.5644C119.058 28.8335 119.067 29.5324 118.346 30.8344C118.13 32.1689 117.825 32.8256 116.889 33.7088C114.843 31.9849 114.243 31.1187 113.224 29.5771C112.347 28.2702 112.401 27.379 112.563 25.7718Z" fill="#14000C"/>
<path d="M113.231 26.2781C113.512 24.9625 113.809 24.4399 115.098 24.6399C117.455 25.4643 117.431 26.4192 118.269 27.7985C118.739 28.8748 118.748 29.4676 118.136 30.5718C117.953 31.7037 117.694 32.2606 116.9 33.0097C115.165 31.5476 114.656 30.813 113.792 29.5055C113.048 28.397 113.094 27.6412 113.231 26.2781Z" fill="#FF5DD6"/>
<path d="M116.165 26.0513C115.197 25.1979 114.913 25.6608 114.443 26.6242C114.162 27.2732 114.197 27.771 114.37 28.7405C115.056 31.0945 115.968 31.9838 116.802 30.9508C117.142 30.2544 117.312 29.8149 117.521 28.7935C117.601 26.8995 117.089 26.5895 116.165 26.0513Z" fill="black" stroke="black" stroke-width="0.0589587"/>
<path d="M116.121 26.6269C115.392 25.9844 115.178 26.3329 114.824 27.0583C114.613 27.547 114.639 27.9218 114.769 28.6518C115.286 30.4242 115.972 31.0938 116.6 30.316C116.856 29.7917 116.984 29.4607 117.142 28.6917C117.202 27.2656 116.816 27.0322 116.121 26.6269Z" fill="#E0B049" stroke="black" stroke-width="0.0589587"/>
<path d="M116.388 27.42C115.954 27.0658 115.691 27.0717 115.22 27.1196C115.477 27.8809 115.626 28.0776 115.897 28.2583L116.504 28.6556C116.611 28.1487 116.599 27.8844 116.388 27.42Z" fill="#ECE0FF"/>
<path d="M116.148 29.0832L115.281 28.5156L115.785 29.696L116.175 29.9514L116.087 29.5841L116.148 29.0832Z" fill="#FEDEFF"/>
<path d="M100.511 41.5953C101.306 41.3636 101.688 41.4747 102.045 42.9699C102.456 45.8924 101.943 46.2576 101.516 47.7412C101.117 48.6986 100.807 48.9507 100.004 48.7325C99.3411 48.9957 98.9543 48.9404 98.2741 48.3776C98.4231 45.8752 98.6285 45.0168 99.0085 43.533C99.3267 42.2632 99.7421 42.0034 100.511 41.5953Z" fill="#14000C"/>
<path d="M100.489 42.3971C101.163 42.2006 101.487 42.2948 101.79 43.5629C102.138 46.0416 101.704 46.3513 101.341 47.6096C101.002 48.4217 100.739 48.6354 100.059 48.4504C99.4963 48.6736 99.1683 48.6267 98.5914 48.1494C98.7178 46.027 98.892 45.299 99.2143 44.0405C99.4842 42.9636 99.8365 42.7433 100.489 42.3971Z" fill="#FF5DD6"/>
<path d="M101.487 45.0452C101.575 43.8484 101.281 43.7449 100.707 43.6429C100.331 43.6078 100.118 43.8132 99.7373 44.3117C98.8922 45.7682 98.7713 46.9246 99.4876 47.3408C99.903 47.4152 100.152 47.4205 100.672 47.2597C101.545 46.6755 101.527 46.0912 101.487 45.0452Z" fill="black" stroke="black" stroke-width="0.0426013"/>
<path d="M101.207 45.2062C101.273 44.3051 101.052 44.2271 100.62 44.1504C100.336 44.1239 100.177 44.2786 99.8896 44.6539C99.2533 45.7505 99.1623 46.6212 99.7016 46.9347C100.014 46.9906 100.201 46.9947 100.594 46.8736C101.25 46.4337 101.238 45.9937 101.207 45.2062Z" fill="#E0B049" stroke="black" stroke-width="0.0426013"/>
<path d="M100.946 45.7279C100.973 45.2011 100.89 44.9594 100.726 44.5382C100.463 45.0414 100.42 45.2483 100.422 45.563L100.428 46.2654C100.688 46.1895 100.803 46.0856 100.946 45.7279Z" fill="#ECE0FF"/>
<path d="M100.119 46.0893L100.109 45.0859L99.7343 45.965L99.7387 46.4165L99.8761 46.2063L100.119 46.0893Z" fill="#FEDEFF"/>
<path d="M102.943 41.2745C103.624 40.7352 103.997 40.6754 104.624 41.8669C105.587 44.3155 105.191 44.8567 105.097 46.365C104.923 47.3898 104.69 47.745 103.911 47.8841C103.357 48.3965 102.991 48.5083 102.255 48.2873C101.89 45.9819 101.905 45.1267 101.955 43.6381C101.992 42.3671 102.32 41.961 102.943 41.2745Z" fill="#14000C"/>
<path d="M103.081 42.0055C103.659 41.5482 103.975 41.4975 104.507 42.508C105.324 44.5848 104.988 45.0438 104.908 46.323C104.761 47.1922 104.564 47.4934 103.903 47.6114C103.433 48.046 103.123 48.1408 102.499 47.9534C102.188 45.9981 102.202 45.2728 102.244 44.0102C102.275 42.9322 102.553 42.5878 103.081 42.0055Z" fill="#FF5DD6"/>
<path d="M104.525 43.9657C104.364 42.8563 104.074 42.886 103.528 43.0341C103.177 43.1594 103.023 43.432 102.774 44.0379C102.293 45.6959 102.414 46.783 103.154 46.8575C103.549 46.7509 103.778 46.6521 104.223 46.2907C104.904 45.4032 104.771 44.8866 104.525 43.9657Z" fill="black" stroke="black" stroke-width="0.0405232"/>
<path d="M104.308 44.2184C104.188 43.3831 103.969 43.4054 103.558 43.5169C103.293 43.6113 103.178 43.8165 102.99 44.2727C102.628 45.5211 102.719 46.3396 103.276 46.3957C103.574 46.3155 103.746 46.2411 104.081 45.969C104.594 45.3008 104.494 44.9117 104.308 44.2184Z" fill="#E0B049" stroke="black" stroke-width="0.0405232"/>
<path d="M103.809 45.0856C103.727 44.6023 103.603 44.42 103.368 44.1111C103.228 44.6718 103.231 44.875 103.295 45.1565L103.442 45.7833C103.665 45.607 103.749 45.4661 103.809 45.0856Z" fill="#ECE0FF"/>
<path d="M105.527 40.3236C106.126 39.7565 106.466 39.6614 107.105 40.6834C108.118 42.819 107.782 43.3569 107.774 44.7467C107.668 45.7029 107.472 46.053 106.763 46.2646C106.279 46.7934 105.949 46.9352 105.261 46.8128C104.804 44.7436 104.774 43.9596 104.742 42.5925C104.71 41.4259 104.991 41.0189 105.527 40.3236Z" fill="#14000C"/>
<path d="M105.692 40.9709C106.2 40.49 106.488 40.4094 107.03 41.2761C107.889 43.0874 107.604 43.5436 107.598 44.7224C107.508 45.5333 107.341 45.8303 106.74 46.0097C106.33 46.4582 106.05 46.5785 105.466 46.4747C105.079 44.7197 105.053 44.0548 105.026 42.8953C104.999 41.9059 105.237 41.5607 105.692 40.9709Z" fill="#FF5DD6"/>
<path d="M107.121 42.6032C106.915 41.6057 106.65 41.6643 106.155 41.8589C105.839 42.0116 105.712 42.2776 105.515 42.8587C105.158 44.4275 105.327 45.4088 106.011 45.3968C106.369 45.2565 106.574 45.1413 106.964 44.7626C107.545 43.877 107.396 43.4188 107.121 42.6032Z" fill="black" stroke="black" stroke-width="0.0372944"/>
<path d="M106.936 42.8601C106.782 42.1091 106.582 42.1532 106.209 42.2998C105.971 42.4147 105.876 42.615 105.727 43.0526C105.459 44.2338 105.585 44.9726 106.1 44.9636C106.37 44.858 106.525 44.7712 106.818 44.4861C107.256 43.8193 107.143 43.4743 106.936 42.8601Z" fill="#E0B049" stroke="black" stroke-width="0.0372944"/>
<path d="M106.837 43.4045C106.737 42.9712 106.614 42.8179 106.381 42.5609C106.282 43.0888 106.295 43.2745 106.369 43.525L106.537 44.0824C106.732 43.897 106.802 43.7591 106.837 43.4045Z" fill="#ECE0FF"/>
<path d="M106.244 44.0932L106.004 43.2969L105.9 44.1789L106.008 44.5372L106.072 44.3034L106.244 44.0932Z" fill="#FEDEFF"/>
<path d="M107.75 38.1536C108.352 37.26 108.736 37.0172 109.683 37.9588C111.282 40.0517 110.985 40.8091 111.237 42.4307C111.29 43.5856 111.124 44.0697 110.325 44.592C109.852 45.396 109.488 45.6896 108.651 45.8149C107.723 43.5828 107.541 42.6815 107.247 41.1015C106.99 39.7555 107.246 39.1722 107.75 38.1536Z" fill="#14000C"/>
<path d="M108.07 38.8404C108.58 38.0826 108.906 37.8767 109.709 38.6753C111.065 40.4503 110.813 41.0927 111.027 42.468C111.072 43.4476 110.931 43.8581 110.253 44.3011C109.852 44.983 109.544 45.232 108.834 45.3383C108.047 43.4452 107.892 42.6807 107.643 41.3406C107.425 40.1991 107.642 39.7044 108.07 38.8404Z" fill="#FF5DD6"/>
<path d="M110.066 40.1971C109.636 39.1153 109.334 39.2866 108.785 39.7059C108.439 40.0069 108.339 40.366 108.214 41.1197C108.086 43.0855 108.469 44.1628 109.276 43.8827C109.674 43.58 109.895 43.3659 110.285 42.773C110.806 41.5156 110.544 41.0401 110.066 40.1971Z" fill="black" stroke="black" stroke-width="0.0449161"/>
<path d="M109.89 40.5714C109.567 39.7568 109.339 39.8858 108.926 40.2015C108.665 40.4282 108.59 40.6985 108.496 41.266C108.4 42.7462 108.688 43.5573 109.296 43.3464C109.595 43.1185 109.761 42.9573 110.055 42.5109C110.448 41.5641 110.25 41.2061 109.89 40.5714Z" fill="#E0B049" stroke="black" stroke-width="0.0449161"/>
<path d="M109.747 41.6003C109.495 41.0122 109.274 40.8473 108.865 40.5835C108.842 41.4091 108.905 41.676 109.075 42.0081L109.458 42.7456C109.707 42.3766 109.778 42.1393 109.747 41.6003Z" fill="#ECE0FF"/>
<path d="M109.653 35.2575C110.073 33.9827 110.4 33.5067 111.487 33.9191C113.413 35.134 113.264 36.0888 113.801 37.6112C114.063 38.7693 113.99 39.3658 113.313 40.3741C113.002 41.4805 112.703 41.9972 111.916 42.619C110.613 40.866 110.273 40.0449 109.702 38.5901C109.209 37.3551 109.35 36.6036 109.653 35.2575Z" fill="#14000C"/>
<path d="M110.089 35.7667C110.445 34.6854 110.723 34.2817 111.645 34.6315C113.278 35.6619 113.152 36.4717 113.608 37.7629C113.83 38.7451 113.768 39.251 113.193 40.1062C112.929 41.0445 112.676 41.4828 112.009 42.0102C110.904 40.5234 110.615 39.827 110.131 38.5931C109.713 37.5456 109.832 36.9083 110.089 35.7667Z" fill="#FF5DD6"/>
<path d="M112.266 35.9963C111.654 35.1348 111.393 35.4893 110.938 36.2443C110.658 36.758 110.627 37.1867 110.643 38.0365C110.877 40.1366 111.443 41.0209 112.173 40.2573C112.502 39.7117 112.677 39.3611 112.947 38.5204C113.222 36.9186 112.882 36.5832 112.266 35.9963Z" fill="black" stroke="black" stroke-width="0.0519528"/>
<path d="M112.165 36.4823C111.704 35.8336 111.507 36.1006 111.165 36.669C110.954 37.0558 110.931 37.3786 110.943 38.0185C111.119 39.5998 111.545 40.2655 112.094 39.6906C112.342 39.2798 112.474 39.0158 112.677 38.3828C112.885 37.1768 112.628 36.9242 112.165 36.4823Z" fill="#E0B049" stroke="black" stroke-width="0.0519528"/>
<path d="M112.274 37.1879C111.996 36.8259 111.803 36.7943 111.453 36.7696C111.554 37.4536 111.64 37.6418 111.818 37.8335L112.218 38.2563C112.355 37.8397 112.375 37.6128 112.274 37.1879Z" fill="#ECE0FF"/>
<path d="M111.902 38.5806L111.332 37.9766L111.566 39.052L111.823 39.3238L111.8 38.9986L111.902 38.5806Z" fill="#FEDEFF"/>
<path d="M110.898 30.6245C111.291 29.2144 111.649 28.6791 113.047 29.0722C115.573 30.296 115.485 31.3436 116.312 32.9739C116.758 34.2217 116.728 34.8751 115.987 36.0081C115.714 37.2291 115.395 37.8073 114.478 38.5251C112.673 36.6831 112.165 35.8064 111.303 34.2514C110.561 32.9318 110.66 32.1061 110.898 30.6245Z" fill="#14000C"/>
<path d="M111.492 31.1624C111.824 29.9665 112.128 29.5125 113.314 29.8459C115.456 30.8838 115.382 31.7723 116.083 33.1551C116.461 34.2133 116.436 34.7675 115.808 35.7285C115.576 36.764 115.305 37.2544 114.528 37.8632C112.997 36.3009 112.565 35.5574 111.835 34.2385C111.205 33.1193 111.289 32.419 111.492 31.1624Z" fill="#FF5DD6"/>
<path d="M114.227 31.2928C113.375 30.3861 113.086 30.7858 112.597 31.6314C112.301 32.2053 112.306 32.6739 112.414 33.5985C112.921 35.8737 113.718 36.8075 114.549 35.9384C114.903 35.3271 115.085 34.9362 115.335 34.0067C115.513 32.2481 115.054 31.9003 114.227 31.2928Z" fill="black" stroke="black" stroke-width="0.05507"/>
<path d="M114.154 31.824C113.512 31.1413 113.295 31.4422 112.926 32.0789C112.704 32.511 112.707 32.8638 112.789 33.56C113.171 35.2731 113.771 35.9762 114.396 35.3218C114.663 34.8616 114.8 34.5672 114.988 33.8674C115.122 32.5432 114.777 32.2814 114.154 31.824Z" fill="#E0B049" stroke="black" stroke-width="0.05507"/>
<path d="M114.361 32.5855C113.978 32.2055 113.734 32.1811 113.294 32.1722C113.491 32.912 113.618 33.1125 113.86 33.312L114.401 33.7519C114.529 33.2912 114.531 33.043 114.361 32.5855Z" fill="#ECE0FF"/>
<path d="M114.043 34.1206L113.27 33.4922L113.673 34.6513L114.021 34.9341L113.958 34.5812L114.043 34.1206Z" fill="#FEDEFF"/>
<path d="M119.768 23.1019C119.903 24.4454 119.786 25.0938 118.543 25.7145C116.133 26.4418 115.871 25.578 114.691 24.8705C113.937 24.2052 113.753 23.6833 113.985 22.3226C113.816 21.2028 113.887 20.5474 114.393 19.3899C116.422 19.6146 117.108 19.9529 118.291 20.5799C119.304 21.1047 119.488 21.8049 119.768 23.1019Z" fill="#14000C"/>
<path d="M119.124 23.0813C119.238 24.2207 119.139 24.7707 118.085 25.2971C116.041 25.914 115.818 25.1814 114.818 24.5813C114.179 24.017 114.022 23.5744 114.22 22.4203C114.076 21.4706 114.136 20.9147 114.565 19.933C116.286 20.1236 116.867 20.4105 117.871 20.9423C118.731 21.3874 118.886 21.9813 119.124 23.0813Z" fill="#FF5DD6"/>
<path d="M116.891 24.7892C117.86 24.924 117.964 24.4256 118.087 23.4523C118.141 22.8155 117.988 22.4584 117.607 21.8186C116.478 20.4041 115.544 20.2121 115.156 21.4292C115.067 22.1331 115.046 22.5539 115.141 23.4338C115.558 24.904 116.035 24.8686 116.891 24.7892Z" fill="black" stroke="black" stroke-width="0.0500257"/>
<path d="M116.776 24.3263C117.506 24.4278 117.584 24.0525 117.676 23.3197C117.717 22.8402 117.602 22.5714 117.316 22.0896C116.465 21.0246 115.762 20.88 115.469 21.7964C115.403 22.3264 115.387 22.6433 115.459 23.3058C115.772 24.4127 116.132 24.3861 116.776 24.3263Z" fill="#E0B049" stroke="black" stroke-width="0.0500257"/>
<path d="M116.373 23.8886C116.801 23.9276 117.004 23.7855 117.358 23.502C116.966 23.0627 116.8 22.9926 116.544 22.9987L115.971 23.0179C116.015 23.4568 116.092 23.6492 116.373 23.8886Z" fill="#ECE0FF"/>
<path d="M120.963 19.2296C121.152 20.2713 121.099 20.797 120.15 21.443C118.281 22.3204 118.02 21.6728 117.04 21.2642C116.401 20.835 116.223 20.4471 116.325 19.3454C116.123 18.4844 116.139 17.9589 116.47 16.983C118.095 16.9039 118.66 17.0839 119.637 17.4286C120.474 17.7143 120.662 18.2429 120.963 19.2296Z" fill="#14000C"/>
<path d="M120.45 19.2825C120.61 20.166 120.565 20.6118 119.76 21.1597C118.175 21.9039 117.953 21.3547 117.122 21.0081C116.581 20.6441 116.429 20.315 116.516 19.3807C116.344 18.6504 116.358 18.2048 116.639 17.3771C118.017 17.31 118.496 17.4626 119.325 17.755C120.034 17.9973 120.194 18.4456 120.45 19.2825Z" fill="#FF5DD6"/>
<path d="M118.782 20.9072C119.56 20.891 119.612 20.4851 119.65 19.7027C119.655 19.1941 119.511 18.9319 119.171 18.4758C118.188 17.5037 117.434 17.4704 117.2 18.4784C117.173 19.0443 117.181 19.3786 117.311 20.06C117.731 21.1658 118.108 21.0777 118.782 20.9072Z" fill="black" stroke="black" stroke-width="0.0398104"/>
<path d="M118.665 20.5636C119.25 20.5515 119.29 20.2459 119.318 19.6567C119.322 19.2738 119.214 19.0764 118.957 18.733C118.217 18.001 117.65 17.9759 117.474 18.7349C117.453 19.161 117.459 19.4128 117.557 19.9258C117.873 20.7584 118.157 20.692 118.665 20.5636Z" fill="#E0B049" stroke="black" stroke-width="0.0398104"/>
<path d="M118.319 20.2737C118.661 20.2504 118.813 20.1129 119.078 19.8447C118.739 19.5481 118.604 19.5137 118.4 19.5509L117.947 19.6383C118.008 19.9786 118.081 20.1206 118.319 20.2737Z" fill="#ECE0FF"/>
<path d="M122.078 16.9705C122.182 17.6576 122.138 17.9989 121.509 18.385C120.276 18.8878 120.117 18.4553 119.487 18.1518C119.079 17.8477 118.97 17.5878 119.056 16.8724C118.94 16.3026 118.96 15.9602 119.193 15.3355C120.252 15.3447 120.617 15.4834 121.247 15.745C121.787 15.9628 121.9 16.315 122.078 16.9705Z" fill="#14000C"/>
<path d="M121.74 16.9944C121.828 17.5772 121.79 17.8666 121.257 18.1941C120.211 18.6206 120.077 18.2537 119.542 17.9964C119.196 17.7384 119.103 17.5179 119.176 16.9112C119.078 16.428 119.095 16.1375 119.293 15.6077C120.191 15.6155 120.5 15.7331 121.035 15.9551C121.492 16.1398 121.588 16.4385 121.74 16.9944Z" fill="#FF5DD6"/>
<path d="M120.626 17.9968C121.132 18.0154 121.174 17.7523 121.213 17.2429C121.225 16.911 121.136 16.7345 120.923 16.424C120.3 15.7525 119.81 15.7025 119.64 16.3519C119.611 16.7203 119.611 16.9389 119.683 17.3885C119.937 18.1263 120.184 18.0828 120.626 17.9968Z" fill="black" stroke="black" stroke-width="0.0259764"/>
<path d="M120.556 17.7614C120.938 17.7755 120.969 17.5774 120.998 17.1939C121.007 16.9439 120.941 16.8111 120.78 16.5772C120.311 16.0717 119.942 16.034 119.814 16.5229C119.793 16.8003 119.792 16.9649 119.846 17.3035C120.038 17.8589 120.223 17.8262 120.556 17.7614Z" fill="#E0B049" stroke="black" stroke-width="0.0259764"/>
<path d="M120.331 17.555C120.553 17.5526 120.655 17.4685 120.832 17.3033C120.617 17.097 120.529 17.0695 120.396 17.0862L120.099 17.1262C120.133 17.3507 120.178 17.4461 120.331 17.555Z" fill="#ECE0FF"/>
<path d="M122.773 15.6073C122.852 16.0717 122.825 16.3045 122.401 16.5811C121.568 16.9506 121.456 16.6603 121.023 16.4685C120.742 16.2711 120.666 16.097 120.716 15.6091C120.631 15.2247 120.641 14.9917 120.793 14.562C121.514 14.5443 121.763 14.6302 122.195 14.7937C122.564 14.9294 122.645 15.1661 122.773 15.6073Z" fill="#14000C"/>
<path d="M122.543 15.6231C122.609 16.017 122.587 16.2144 122.227 16.449C121.52 16.7624 121.425 16.5162 121.058 16.3535C120.82 16.1861 120.755 16.0385 120.798 15.6246C120.725 15.2986 120.734 15.101 120.863 14.7366C121.474 14.7215 121.686 14.7944 122.052 14.933C122.365 15.0482 122.434 15.2489 122.543 15.6231Z" fill="#FF5DD6"/>
<path d="M121.797 16.3331C122.142 16.3342 122.168 16.1546 122.189 15.8077C122.193 15.582 122.131 15.4641 121.982 15.258C121.551 14.8159 121.218 14.7931 121.109 15.2381C121.093 15.489 121.096 15.6374 121.149 15.9413C121.33 16.4366 121.498 16.4015 121.797 16.3331Z" fill="black" stroke="black" stroke-width="0.017664"/>
<path d="M121.745 16.1699C122.005 16.1708 122.024 16.0355 122.04 15.7743C122.043 15.6044 121.996 15.5156 121.884 15.3604C121.56 15.0276 121.309 15.0104 121.227 15.3454C121.215 15.5343 121.217 15.6461 121.257 15.8749C121.393 16.2479 121.519 16.2215 121.745 16.1699Z" fill="#E0B049" stroke="black" stroke-width="0.017664"/>
<path d="M102.5 38.8964C100.696 38.8597 99.9022 38.3516 99.6224 34.8102C99.6989 28.0857 100.933 27.6336 102.354 24.6578C103.538 22.8222 104.295 22.48 105.966 23.5131C107.494 23.3897 108.315 23.7777 109.606 25.4866C108.453 30.8997 107.723 32.6505 106.405 35.6596C105.293 38.2392 104.305 38.5259 102.5 38.8964Z" fill="#14000C"/>
<path d="M102.805 37.1566C101.275 37.1255 100.602 36.6945 100.365 33.691C100.43 27.9877 101.477 27.6042 102.681 25.0804C103.686 23.5235 104.328 23.2333 105.745 24.1095C107.04 24.0048 107.738 24.334 108.832 25.7833C107.854 30.3744 107.235 31.8592 106.118 34.4114C105.174 36.5993 104.336 36.8424 102.805 37.1566Z" fill="#FF5DD6"/>
<path d="M101.528 30.6288C100.941 33.2067 101.545 33.6371 102.759 34.2572C103.564 34.5934 104.093 34.2868 105.086 33.4504C107.404 30.8218 108.05 28.3561 106.632 26.9455C105.755 26.4957 105.217 26.3128 104.032 26.3088C101.944 26.9961 101.787 28.2958 101.528 30.6288Z" fill="black" stroke="black" stroke-width="0.0954103"/>
<path d="M102.171 30.4738C101.729 32.4149 102.184 32.7389 103.098 33.2058C103.704 33.459 104.102 33.2281 104.85 32.5983C106.595 30.6191 107.082 28.7626 106.014 27.7005C105.354 27.3618 104.948 27.2241 104.056 27.2211C102.484 27.7386 102.366 28.7172 102.171 30.4738Z" fill="#E0B049" stroke="black" stroke-width="0.0954103"/>
<path d="M103.658 29.6074C103.426 30.7503 103.525 31.3397 103.743 32.3816C104.481 31.4533 104.642 31.0268 104.743 30.3319L104.961 28.7792C104.372 28.7677 104.089 28.918 103.658 29.6074Z" fill="#ECE0FF"/>
<path d="M86.6285 52.6625C85.4389 52.6383 84.9155 52.3032 84.731 49.9678C84.7814 45.5331 85.5956 45.2349 86.5323 43.2725C87.3135 42.062 87.8125 41.8363 88.9143 42.5176C89.9218 42.4362 90.4638 42.6921 91.315 43.8191C90.5547 47.3889 90.0729 48.5435 89.2042 50.5279C88.4708 52.2291 87.8191 52.4182 86.6285 52.6625Z" fill="#14000C"/>
<path d="M86.8296 51.5165C85.8206 51.4959 85.3767 51.2117 85.2202 49.231C85.263 45.4698 85.9535 45.2169 86.748 43.5525C87.4105 42.5258 87.8338 42.3344 88.7682 42.9123C89.6227 42.8432 90.0824 43.0603 90.8043 44.0161C90.1595 47.0438 89.7508 48.023 89.0141 49.706C88.3921 51.1489 87.8393 51.3093 86.8296 51.5165Z" fill="#FF5DD6"/>
<path d="M85.9916 47.2055C85.6048 48.9055 86.003 49.1894 86.8034 49.5983C87.3342 49.82 87.6832 49.6178 88.3382 49.0662C89.867 47.3327 90.2929 45.7067 89.3579 44.7764C88.7792 44.4798 88.4243 44.3592 87.6431 44.3565C86.2659 44.8098 86.1628 45.6669 85.9916 47.2055Z" fill="black" stroke="black" stroke-width="0.0629204"/>
<path d="M86.4185 47.099C86.1273 48.3791 86.4271 48.5928 87.0297 48.9007C87.4294 49.0676 87.6922 48.9154 88.1853 48.5C89.3364 47.1948 89.6571 45.9705 88.9531 45.2701C88.5174 45.0467 88.2502 44.9559 87.662 44.9539C86.6251 45.2952 86.5474 45.9406 86.4185 47.099Z" fill="#E0B049" stroke="black" stroke-width="0.0629204"/>
<path d="M87.393 46.5282C87.24 47.2819 87.3052 47.6706 87.4491 48.3577C87.9355 47.7455 88.0419 47.4643 88.1085 47.006L88.2523 45.982C87.8636 45.9744 87.6771 46.0736 87.393 46.5282Z" fill="#ECE0FF"/>
<path d="M93.7597 44.7579C92.4357 44.7309 91.8532 44.358 91.6478 41.7587C91.7039 36.8231 92.6101 36.4913 93.6526 34.3072C94.522 32.9599 95.0774 32.7087 96.3036 33.467C97.425 33.3764 98.0282 33.6612 98.9756 34.9155C98.1294 38.8885 97.5931 40.1735 96.6263 42.3821C95.8101 44.2755 95.0847 44.4859 93.7597 44.7579Z" fill="#14000C"/>
<path d="M93.9859 43.4783C92.8629 43.4554 92.3689 43.1391 92.1947 40.9346C92.2423 36.7486 93.0108 36.4671 93.8951 34.6147C94.6324 33.472 95.1035 33.259 96.1435 33.9021C97.0945 33.8253 97.6061 34.0669 98.4096 35.1306C97.6919 38.5003 97.2371 39.5902 96.4172 41.4633C95.7249 43.0692 95.1097 43.2477 93.9859 43.4783Z" fill="#FF5DD6"/>
<path d="M93.0521 38.6836C92.6216 40.5757 93.0647 40.8916 93.9555 41.3467C94.5463 41.5935 94.9347 41.3684 95.6637 40.7545C97.3652 38.8252 97.8392 37.0154 96.7986 35.9801C96.1545 35.65 95.7595 35.5158 94.8901 35.5128C93.3574 36.0173 93.2425 36.9712 93.0521 38.6836Z" fill="black" stroke="black" stroke-width="0.0700282"/>
<path d="M93.5245 38.5663C93.2004 39.9909 93.534 40.2287 94.2047 40.5714C94.6496 40.7572 94.942 40.5878 95.4909 40.1255C96.772 38.6729 97.129 37.3102 96.3454 36.5307C95.8605 36.2821 95.5631 36.1811 94.9084 36.1788C93.7544 36.5587 93.6679 37.2769 93.5245 38.5663Z" fill="#E0B049" stroke="black" stroke-width="0.0700282"/>
<path d="M94.6095 37.9317C94.4391 38.7706 94.5117 39.2032 94.6719 39.9679C95.2132 39.2866 95.3317 38.9736 95.4058 38.4635L95.5658 37.3239C95.1332 37.3154 94.9256 37.4257 94.6095 37.9317Z" fill="#ECE0FF"/>
<path d="M26.6334 86.5852C25.9345 88.1221 25.4598 88.5571 24.1497 87.062C21.8933 83.6991 22.2094 82.4132 21.7385 79.7298C21.5654 77.8087 21.737 76.9886 22.7239 76.0551C23.2632 74.6776 23.7079 74.1594 24.7798 73.8846C26.1809 77.5324 26.4979 79.0206 27.0194 81.6314C27.473 83.8548 27.1944 84.8473 26.6334 86.5852Z" fill="#14000C"/>
<path d="M26.157 85.4674C25.5642 86.7709 25.1616 87.1399 24.0505 85.8718C22.1367 83.0196 22.4048 81.929 22.0055 79.6531C21.8586 78.0238 22.0042 77.3283 22.8412 76.5365C23.2987 75.3682 23.6758 74.9287 24.5849 74.6956C25.7732 77.7895 26.0421 79.0517 26.4844 81.266C26.8691 83.1517 26.6328 83.9935 26.157 85.4674Z" fill="#FF5DD6"/>
<path d="M23.4543 83.3629C24.1073 85.1325 24.4833 84.823 25.1559 84.0809C25.5764 83.5518 25.6736 82.9453 25.7672 81.6791C25.756 78.392 25.1637 76.6263 24.1448 77.1568C23.658 77.6928 23.3911 78.067 22.9389 79.0862C22.3779 81.2233 22.7601 81.9953 23.4543 83.3629Z" fill="black" stroke="black" stroke-width="0.0380123"/>
<path d="M23.6437 82.735C24.1354 84.0674 24.4185 83.8344 24.9249 83.2756C25.2416 82.8773 25.3147 82.4206 25.3852 81.4672C25.3768 78.9922 24.9308 77.6627 24.1636 78.0622C23.7971 78.4657 23.5961 78.7475 23.2557 79.5149C22.8333 81.124 23.121 81.7053 23.6437 82.735Z" fill="#E0B049" stroke="black" stroke-width="0.0380123"/>
<path d="M23.6038 81.6116C23.9039 82.3721 24.1419 82.5758 24.5791 82.8985C24.5442 81.8076 24.4607 81.4594 24.2629 81.0317L23.8181 80.0824C23.5899 80.5848 23.5334 80.9023 23.6038 81.6116Z" fill="#ECE0FF"/>
<path d="M24.2552 79.8548L24.8906 81.2109L24.7407 79.4341L24.4547 78.8238L24.44 79.322L24.2552 79.8548Z" fill="#FEDEFF"/>
<path d="M41.8105 76.9634C41.1515 76.6499 40.8833 76.2798 40.9375 74.5627C41.263 71.4019 41.7352 71.3913 42.3871 70.2202C42.9021 69.5484 43.1944 69.5111 43.7606 70.2729C44.3256 70.4655 44.6094 70.7835 45.0065 71.8018C44.3448 74.167 43.9997 74.8733 43.3842 76.077C42.8627 77.1118 42.4881 77.0849 41.8105 76.9634Z" fill="#FF5DD6"/>
<path d="M41.5979 73.0799C41.2101 74.4007 41.4484 74.7571 41.9401 75.337C42.2702 75.6799 42.5147 75.6117 42.9872 75.3385C44.1254 74.3247 44.5329 73.0778 43.9943 72.0185C43.6388 71.5984 43.416 71.3925 42.9046 71.1609C41.967 71.1392 41.8317 71.832 41.5979 73.0799Z" fill="black" stroke="black" stroke-width="0.0274662"/>
<path d="M41.8861 73.1174C41.5941 74.1119 41.7735 74.3802 42.1437 74.8169C42.3923 75.075 42.5764 75.0237 42.9321 74.818C43.7891 74.0547 44.096 73.1158 43.6904 72.3182C43.4228 72.0019 43.255 71.8469 42.87 71.6725C42.164 71.6562 42.0621 72.1779 41.8861 73.1174Z" fill="#E0B049" stroke="black" stroke-width="0.0274662"/>
<path d="M42.2596 72.729C42.0998 73.32 42.1117 73.6671 42.1517 74.289C42.5185 73.9153 42.6105 73.7092 42.6903 73.3421L42.8655 72.5204C42.6116 72.3999 42.4816 72.4288 42.2596 72.729Z" fill="#ECE0FF"/>
<path d="M43.0979 72.9745L42.8477 74.1484L43.4129 73.428L43.5255 72.8998L43.3473 73.0337L43.0979 72.9745Z" fill="#FEDEFF"/>
<path d="M39.3103 76.3004C38.5561 76.3794 38.2047 76.1497 37.9465 74.261C37.7099 70.6413 38.207 70.3306 38.6809 68.653C39.1019 67.6012 39.4039 67.3758 40.1423 67.8398C40.7749 67.6898 41.1333 67.8535 41.7402 68.7016C41.4752 71.6751 41.2403 72.6564 40.8108 74.3464C40.4498 75.7942 40.0488 76.0024 39.3103 76.3004Z" fill="#14000C"/>
<path d="M39.3675 75.3394C38.7279 75.4064 38.4298 75.2115 38.2108 73.6096C38.0101 70.5396 38.4317 70.2762 38.8337 68.8533C39.1907 67.9612 39.4469 67.7701 40.0732 68.1636C40.6097 68.0364 40.9137 68.1752 41.4284 68.8946C41.2037 71.4165 41.0044 72.2487 40.6401 73.682C40.3339 74.91 39.9939 75.0866 39.3675 75.3394Z" fill="#FF5DD6"/>
<path d="M38.5783 71.9078C38.4365 73.3259 38.7056 73.5242 39.2368 73.7912C39.5861 73.9279 39.7947 73.7341 40.1757 73.23C41.0381 71.6899 41.2091 70.3288 40.5612 69.648C40.177 69.4542 39.9452 69.3854 39.4507 69.448C38.6068 69.9319 38.5934 70.6392 38.5783 71.9078Z" fill="black" stroke="black" stroke-width="0.0261264"/>
<path d="M38.8363 71.7811C38.7295 72.8489 38.9321 72.9982 39.3321 73.1992C39.5951 73.3022 39.7521 73.1563 40.039 72.7767C40.6884 71.6171 40.8172 70.5923 40.3293 70.0796C40.0401 69.9337 39.8655 69.8819 39.4932 69.9291C38.8577 70.2934 38.8477 70.826 38.8363 71.7811Z" fill="#E0B049" stroke="black" stroke-width="0.0261264"/>
<path d="M39.5092 71.1667C39.458 71.7939 39.5227 72.1054 39.6554 72.6536C39.9261 72.1141 39.9764 71.876 39.9908 71.4969L40.0198 70.6501C39.7734 70.6762 39.6614 70.7725 39.5092 71.1667Z" fill="#ECE0FF"/>
<path d="M36.7331 75.3329C36.0465 75.5107 35.7157 75.3485 35.4031 73.6473C35.0402 70.351 35.4824 69.9959 35.848 68.3867C36.1905 67.3606 36.4577 67.1111 37.1519 67.4349C37.7244 67.2087 38.0589 67.3092 38.6483 68.0046C38.5263 70.7765 38.3511 71.7119 38.0266 73.3262C37.755 74.7083 37.3966 74.9557 36.7331 75.3329Z" fill="#14000C"/>
<path d="M36.7467 74.4463C36.1643 74.5971 35.8837 74.4595 35.6186 73.0167C35.3108 70.221 35.6858 69.9198 35.9959 68.555C36.2864 67.6847 36.513 67.4731 37.1018 67.7477C37.5874 67.5559 37.8711 67.6411 38.371 68.2309C38.2675 70.5819 38.1189 71.3752 37.8437 72.7443C37.6133 73.9165 37.3094 74.1264 36.7467 74.4463Z" fill="#FF5DD6"/>
<path d="M35.8869 71.3899C35.8146 72.7141 36.0688 72.859 36.5655 73.0304C36.8905 73.1074 37.0735 72.9001 37.4016 72.3832C38.1282 70.8463 38.2295 69.5706 37.6093 69.0348C37.2501 68.9101 37.0352 68.8791 36.5854 69.0058C35.8331 69.5686 35.8494 70.221 35.8869 71.3899Z" fill="black" stroke="black" stroke-width="0.0240447"/>
<path d="M36.1173 71.231C36.0629 72.228 36.2543 72.3371 36.6283 72.4662C36.873 72.5242 37.0108 72.368 37.2578 71.9789C37.8049 70.8217 37.8812 69.8611 37.4142 69.4577C37.1437 69.3639 36.9819 69.3405 36.6433 69.4359C36.0768 69.8596 36.0891 70.3509 36.1173 71.231Z" fill="#E0B049" stroke="black" stroke-width="0.0240447"/>
<path d="M36.348 70.6971C36.3266 71.2811 36.3984 71.5586 36.542 72.0443C36.7678 71.5104 36.8042 71.2843 36.802 70.9336L36.7942 70.1507C36.5699 70.2091 36.4713 70.3133 36.348 70.6971Z" fill="#ECE0FF"/>
<path d="M37.0631 70.3738L37.0742 71.4922L37.3961 70.5509L37.3911 70.0476L37.2728 70.2679L37.0631 70.3738Z" fill="#FEDEFF"/>
<path d="M34.1715 76.0649C33.3977 76.6196 32.9888 76.5935 32.3774 74.738C31.4755 71.021 31.9388 70.3794 32.1306 68.2926C32.3803 66.9072 32.6552 66.4781 33.5108 66.5131C34.1447 65.9584 34.5489 65.9096 35.3365 66.4366C35.5975 69.7765 35.5294 70.9708 35.3862 73.0429C35.2708 74.8138 34.8894 75.2862 34.1715 76.0649Z" fill="#14000C"/>
<path d="M34.0601 74.9988C33.4037 75.4692 33.057 75.4471 32.5384 73.8734C31.7735 70.7209 32.1664 70.1766 32.3291 68.4068C32.5409 67.2318 32.7741 66.8679 33.4997 66.8975C34.0374 66.4271 34.3802 66.3857 35.0482 66.8327C35.2695 69.6654 35.2117 70.6782 35.0903 72.4357C34.9924 73.9377 34.669 74.3383 34.0601 74.9988Z" fill="#FF5DD6"/>
<path d="M32.6065 71.8177C32.7148 73.4203 33.0319 73.4642 33.6353 73.4179C34.0251 73.346 34.208 73.0091 34.515 72.2332C35.1377 70.051 35.0703 68.4912 34.27 68.1684C33.8335 68.2011 33.5788 68.2722 33.0733 68.6475C32.2789 69.6904 32.3928 70.4539 32.6065 71.8177Z" fill="black" stroke="black" stroke-width="0.0289587"/>
<path d="M32.8565 71.5295C32.938 72.7361 33.1768 72.7692 33.6312 72.7344C33.9246 72.6802 34.0624 72.4265 34.2935 71.8423C34.7624 70.1993 34.7116 69.0248 34.1091 68.7818C33.7804 68.8064 33.5886 68.8599 33.208 69.1425C32.6099 69.9277 32.6957 70.5026 32.8565 71.5295Z" fill="#E0B049" stroke="black" stroke-width="0.0289587"/>
<path d="M33.2582 70.4527C33.3339 71.3389 33.4906 71.708 33.791 72.3429C34.0251 71.402 34.0371 71.0412 33.9695 70.5185L33.8143 69.3536C33.495 69.5829 33.369 69.8011 33.2582 70.4527Z" fill="#ECE0FF"/>
<path d="M31.704 77.9026C30.9961 79.0469 30.5783 79.3374 29.7042 77.9847C28.2801 75.0251 28.6614 74.0353 28.5693 71.8338C28.6321 70.2775 28.8518 69.6427 29.7234 69.0154C30.2895 67.9793 30.6923 67.6187 31.5626 67.5281C32.2854 70.6125 32.3804 71.8401 32.5198 73.9897C32.6459 75.8214 32.3244 76.5812 31.704 77.9026Z" fill="#14000C"/>
<path d="M31.4447 76.9514C30.8443 77.922 30.4899 78.1684 29.7485 77.021C28.5408 74.5109 28.8642 73.6715 28.786 71.8043C28.8393 70.4844 29.0256 69.946 29.7648 69.4139C30.245 68.5352 30.5866 68.2293 31.3247 68.1525C31.9378 70.7685 32.0183 71.8097 32.1366 73.6328C32.2436 75.1863 31.9709 75.8307 31.4447 76.9514Z" fill="#FF5DD6"/>
<path d="M29.5373 74.9464C29.867 76.4394 30.1943 76.2373 30.7993 75.7251C31.1844 75.3529 31.3234 74.8799 31.528 73.8791C31.8593 71.2504 31.5769 69.7678 30.7218 70.0692C30.284 70.4389 30.0357 70.7059 29.5751 71.466C28.9134 73.1066 29.1337 73.7697 29.5373 74.9464Z" fill="black" stroke="black" stroke-width="0.0334954"/>
<path d="M29.7521 74.4567C30.0003 75.5808 30.2468 75.4287 30.7023 75.043C30.9922 74.7628 31.0969 74.4066 31.2509 73.6531C31.5004 71.6738 31.2877 70.5575 30.6439 70.7844C30.3143 71.0628 30.1273 71.2638 29.7806 71.8362C29.2823 73.0714 29.4482 73.5707 29.7521 74.4567Z" fill="#E0B049" stroke="black" stroke-width="0.0334954"/>
<path d="M29.8379 73.5605C29.9949 74.2044 30.1607 74.3959 30.4706 74.7064C30.5561 73.8303 30.5265 73.5419 30.4155 73.1763L30.1644 72.364C29.9332 72.7381 29.856 72.985 29.8379 73.5605Z" fill="#ECE0FF"/>
<path d="M30.532 72.238L30.8906 73.3984L30.9567 71.9602L30.7953 71.438L30.7322 71.8344L30.532 72.238Z" fill="#FEDEFF"/>
<path d="M29.384 82.2839C28.6663 83.6078 28.2047 83.9418 27.0455 82.3621C25.0826 78.9101 25.4323 77.7632 25.107 75.2037C25.0271 73.3955 25.2222 72.6596 26.183 71.938C26.7451 70.7388 27.1821 70.3231 28.1943 70.2254C29.3468 73.8163 29.5794 75.2439 29.9551 77.7433C30.2838 79.8733 29.9815 80.7535 29.384 82.2839Z" fill="#14000C"/>
<path d="M28.9883 81.1852C28.3796 82.3079 27.9881 82.5913 27.005 81.2515C25.3402 78.3237 25.6368 77.3509 25.3609 75.1802C25.2931 73.6466 25.4586 73.0224 26.2735 72.4104C26.7502 71.3933 27.1209 71.0408 27.9794 70.9579C28.9568 74.0034 29.1541 75.2142 29.4727 77.3341C29.7515 79.1406 29.4952 79.8871 28.9883 81.1852Z" fill="#FF5DD6"/>
<path d="M26.5536 78.8275C27.0878 80.5655 27.4519 80.3335 28.1113 79.7434C28.5263 79.3141 28.6428 78.7656 28.7841 77.6042C28.9134 74.5519 28.4357 72.8264 27.4621 73.1693C26.985 73.5952 26.7199 73.9034 26.2546 74.7829C25.64 76.6839 25.9639 77.4565 26.5536 78.8275Z" fill="black" stroke="black" stroke-width="0.0355051"/>
<path d="M26.7577 78.2671C27.1599 79.5757 27.4341 79.401 27.9305 78.9567C28.243 78.6335 28.3307 78.2204 28.4371 77.346C28.5345 75.0478 28.1748 73.7486 27.4418 74.0068C27.0825 74.3275 26.8829 74.5595 26.5325 75.2217C26.0698 76.653 26.3137 77.2348 26.7577 78.2671Z" fill="#E0B049" stroke="black" stroke-width="0.0355051"/>
<path d="M26.7629 77.2202C27.0107 77.97 27.2241 78.194 27.6184 78.5576C27.6323 77.5401 27.5692 77.2046 27.4028 76.7787L27.028 75.8325C26.7937 76.2653 26.7274 76.5516 26.7629 77.2202Z" fill="#ECE0FF"/>
<path d="M27.4529 75.6951L27.9883 77.0469L27.9239 75.3759L27.683 74.7676L27.648 75.2278L27.4529 75.6951Z" fill="#FEDEFF"/>
<path d="M39.2802 77.871C40.9428 78.5806 41.6277 79.4783 41.5503 83.796C40.842 91.7706 39.6589 91.8529 38.0647 94.8699C36.7966 96.6172 36.0653 96.7452 34.6202 94.8989C33.1974 94.4818 32.4751 93.7166 31.445 91.2064C33.0231 85.19 33.864 83.3761 35.3659 80.2813C36.6377 77.6218 37.5777 77.6455 39.2802 77.871Z" fill="#14000C"/>
<path d="M38.8318 79.8371C40.242 80.4389 40.8228 81.2003 40.7572 84.8624C40.1565 91.6258 39.153 91.6957 37.8009 94.2545C36.7254 95.7364 36.1051 95.8449 34.8795 94.2791C33.6728 93.9253 33.0602 93.2763 32.1865 91.1474C33.525 86.0446 34.2381 84.5062 35.512 81.8814C36.5906 79.6258 37.3879 79.6458 38.8318 79.8371Z" fill="#FF5DD6"/>
<path d="M39.3911 88.0753C40.1773 85.2239 39.6605 84.4889 38.5983 83.3028C37.8867 82.6056 37.3689 82.7751 36.3722 83.4039C33.9818 85.6764 33.1514 88.3724 34.3272 90.5745C35.0951 91.4337 35.5748 91.85 36.6685 92.2921C38.6625 92.245 38.9302 90.756 39.3911 88.0753Z" fill="black" stroke="black" stroke-width="0.0584595"/>
<path d="M38.7794 88.0301C39.3714 85.8832 38.9822 85.3298 38.1824 84.4367C37.6467 83.9118 37.2568 84.0394 36.5063 84.5129C34.7065 86.2239 34.0813 88.2538 34.9665 89.9119C35.5447 90.5588 35.9059 90.8723 36.7294 91.2051C38.2307 91.1697 38.4323 90.0485 38.7794 88.0301Z" fill="#E0B049" stroke="black" stroke-width="0.0584595"/>
<path d="M37.3304 88.4966C37.6531 87.2221 37.6177 86.4842 37.5148 85.1636C36.7456 85.9962 36.5561 86.4442 36.397 87.2338L36.0483 89.0013C36.5916 89.2325 36.8671 89.1581 37.3304 88.4966Z" fill="#ECE0FF"/>
<path d="M47.9037 74.1248C49.124 74.6456 49.6266 75.3045 49.5698 78.4736C49.05 84.3267 48.1816 84.3871 47.0115 86.6015C46.0808 87.8839 45.544 87.9778 44.4833 86.6227C43.4391 86.3166 42.9089 85.755 42.1528 83.9126C43.3111 79.4967 43.9283 78.1654 45.0307 75.8939C45.9641 73.9419 46.6541 73.9593 47.9037 74.1248Z" fill="#14000C"/>
<path d="M47.572 75.5705C48.607 76.0122 49.0334 76.571 48.9852 79.2589C48.5443 84.223 47.8078 84.2743 46.8154 86.1524C46.026 87.2401 45.5707 87.3197 44.6711 86.1704C43.7855 85.9108 43.3358 85.4344 42.6946 83.8719C43.677 80.1266 44.2004 78.9975 45.1354 77.0709C45.927 75.4154 46.5122 75.4301 47.572 75.5705Z" fill="#FF5DD6"/>
<path d="M46.1072 85.3561C44.6482 86.3802 44.3428 85.4506 43.8723 83.5723C43.6043 82.3234 43.7373 81.4811 44.14 79.8897C45.476 76.1477 46.8641 75.0352 47.8158 77.2017C48.1567 78.5598 48.3114 79.3964 48.4182 81.2542C48.1995 84.5569 47.4516 84.8548 46.1072 85.3561Z" fill="#E0B049" stroke="black" stroke-width="0.0700282"/>
<path d="M46.9521 81.463C46.4366 82.8466 46.0081 83.208 45.2183 83.7766C45.2287 81.7681 45.3654 81.1312 45.7087 80.3547L46.4815 78.6317C46.9269 79.5713 47.0468 80.1599 46.9521 81.463Z" fill="#ECE0FF"/>
<path d="M103.621 87.8273C104.319 89.3643 104.794 89.7993 106.104 88.3042C108.361 84.9413 108.045 83.6554 108.515 80.972C108.689 79.0509 108.517 78.2308 107.53 77.2973C106.991 75.9198 106.546 75.4016 105.474 75.1268C104.073 78.7746 103.756 80.2628 103.234 82.8736C102.781 85.097 103.06 86.0895 103.621 87.8273Z" fill="#14000C"/>
<path d="M104.097 86.7174C104.69 88.0209 105.092 88.3899 106.203 87.1218C108.117 84.2696 107.849 83.179 108.248 80.9031C108.395 79.2738 108.25 78.5783 107.413 77.7865C106.955 76.6182 106.578 76.1787 105.669 75.9456C104.481 79.0395 104.212 80.3017 103.77 82.516C103.385 84.4017 103.621 85.2435 104.097 86.7174Z" fill="#FF5DD6"/>
<path d="M106.803 84.6207C106.151 86.3903 105.775 86.0808 105.102 85.3387C104.681 84.8096 104.584 84.2032 104.491 82.9369C104.502 79.6498 105.094 77.8841 106.113 78.4147C106.6 78.9506 106.867 79.3248 107.319 80.344C107.88 82.4811 107.498 83.2532 106.803 84.6207Z" fill="black" stroke="black" stroke-width="0.0380123"/>
<path d="M106.61 83.9772C106.119 85.3096 105.835 85.0766 105.329 84.5178C105.012 84.1194 104.939 83.6628 104.869 82.7094C104.877 80.2344 105.323 78.9049 106.09 79.3044C106.457 79.7079 106.658 79.9897 106.998 80.7571C107.421 82.3662 107.133 82.9475 106.61 83.9772Z" fill="#E0B049" stroke="black" stroke-width="0.0380123"/>
<path d="M106.654 82.8538C106.354 83.6143 106.116 83.818 105.679 84.1407C105.714 83.0498 105.797 82.7016 105.995 82.2738L106.44 81.3246C106.668 81.827 106.724 82.1445 106.654 82.8538Z" fill="#ECE0FF"/>
<path d="M105.999 81.097L105.363 82.4531L105.513 80.6762L105.799 80.066L105.814 80.5642L105.999 81.097Z" fill="#FEDEFF"/>
<path d="M88.4434 78.2056C89.1024 77.8921 89.3706 77.522 89.3164 75.8049C88.9909 72.6441 88.5187 72.6334 87.8668 71.4624C87.3518 70.7906 87.0595 70.7533 86.4933 71.5151C85.9283 71.7076 85.6445 72.0257 85.2474 73.044C85.9091 75.4092 86.2542 76.1155 86.8697 77.3192C87.3912 78.354 87.7658 78.3271 88.4434 78.2056Z" fill="#FF5DD6"/>
<path d="M88.6521 74.3221C89.0399 75.6429 88.8016 75.9992 88.3099 76.5792C87.9798 76.9221 87.7353 76.8539 87.2628 76.5807C86.1246 75.5669 85.7171 74.32 86.2557 73.2607C86.6112 72.8406 86.834 72.6347 87.3454 72.4031C88.283 72.3814 88.4183 73.0742 88.6521 74.3221Z" fill="black" stroke="black" stroke-width="0.0274662"/>
<path d="M88.3639 74.3596C88.6559 75.3541 88.4765 75.6224 88.1063 76.0591C87.8577 76.3172 87.6736 76.2659 87.3179 76.0602C86.4609 75.2969 86.154 74.358 86.5596 73.5604C86.8272 73.2441 86.995 73.0891 87.38 72.9147C88.086 72.8984 88.1879 73.42 88.3639 74.3596Z" fill="#E0B049" stroke="black" stroke-width="0.0274662"/>
<path d="M87.9904 73.979C88.1502 74.57 88.1383 74.9171 88.0983 75.539C87.7315 75.1653 87.6395 74.9592 87.5597 74.5921L87.3845 73.7704C87.6384 73.6499 87.7684 73.6788 87.9904 73.979Z" fill="#ECE0FF"/>
<path d="M87.156 74.2245L87.4062 75.3984L86.841 74.678L86.7284 74.1498L86.9067 74.2837L87.156 74.2245Z" fill="#FEDEFF"/>
<path d="M90.9436 77.5426C91.6978 77.6216 92.0493 77.3918 92.3074 75.5032C92.544 71.8835 92.0469 71.5728 91.573 69.8951C91.1521 68.8434 90.85 68.618 90.1116 69.082C89.479 68.932 89.1206 69.0957 88.5137 69.9438C88.7787 72.9173 89.0136 73.8986 89.4431 75.5886C89.8042 77.0364 90.2051 77.2446 90.9436 77.5426Z" fill="#14000C"/>
<path d="M90.8825 76.5894C91.5221 76.6564 91.8202 76.4615 92.0392 74.8596C92.2399 71.7896 91.8183 71.5262 91.4163 70.1033C91.0593 69.2112 90.8031 69.0201 90.1768 69.4136C89.6403 69.2864 89.3363 69.4252 88.8216 70.1446C89.0463 72.6665 89.2456 73.4987 89.6099 74.932C89.9161 76.16 90.2561 76.3366 90.8825 76.5894Z" fill="#FF5DD6"/>
<path d="M91.6756 73.15C91.8175 74.5681 91.5483 74.7664 91.0171 75.0334C90.6678 75.1701 90.4593 74.9763 90.0782 74.4722C89.2158 72.9321 89.0448 71.571 89.6927 70.8902C90.0769 70.6964 90.3087 70.6275 90.8032 70.6902C91.6471 71.1741 91.6605 71.8814 91.6756 73.15Z" fill="black" stroke="black" stroke-width="0.0261264"/>
<path d="M91.4137 73.0311C91.5205 74.0989 91.3179 74.2482 90.9179 74.4492C90.6549 74.5522 90.4979 74.4063 90.211 74.0267C89.5616 72.8671 89.4328 71.8423 89.9207 71.3296C90.2099 71.1837 90.3845 71.1319 90.7568 71.1791C91.3923 71.5434 91.4023 72.076 91.4137 73.0311Z" fill="#E0B049" stroke="black" stroke-width="0.0261264"/>
<path d="M90.7447 72.4089C90.796 73.0361 90.7312 73.3476 90.5985 73.8958C90.3278 73.3563 90.2775 73.1182 90.2631 72.7391L90.2341 71.8923C90.4805 71.9183 90.5925 72.0146 90.7447 72.4089Z" fill="#ECE0FF"/>
<path d="M93.5208 76.5751C94.2074 76.7529 94.5382 76.5906 94.8508 74.8895C95.2137 71.5932 94.7716 71.2381 94.4059 69.6289C94.0634 68.6028 93.7962 68.3533 93.102 68.6771C92.5295 68.4509 92.195 68.5514 91.6056 69.2468C91.7276 72.0187 91.9028 72.9541 92.2273 74.5684C92.499 75.9504 92.8573 76.1979 93.5208 76.5751Z" fill="#14000C"/>
<path d="M93.5072 75.6885C94.0896 75.8393 94.3702 75.7017 94.6353 74.2589C94.9431 71.4632 94.5681 71.162 94.258 69.7972C93.9675 68.9269 93.7409 68.7153 93.1521 68.9899C92.6665 68.798 92.3828 68.8833 91.8829 69.4731C91.9864 71.8241 92.135 72.6174 92.4102 73.9865C92.6406 75.1587 92.9445 75.3686 93.5072 75.6885Z" fill="#FF5DD6"/>
<path d="M94.3748 72.6321C94.4471 73.9563 94.1929 74.1012 93.6962 74.2726C93.3712 74.3496 93.1882 74.1423 92.8601 73.6254C92.1336 72.0885 92.0322 70.8128 92.6524 70.277C93.0116 70.1523 93.2265 70.1213 93.6763 70.248C94.4287 70.8107 94.4123 71.4632 94.3748 72.6321Z" fill="black" stroke="black" stroke-width="0.0240447"/>
<path d="M94.1366 72.4888C94.191 73.4858 93.9996 73.5949 93.6256 73.724C93.3809 73.782 93.2431 73.6259 92.9961 73.2367C92.449 72.0795 92.3727 71.119 92.8397 70.7155C93.1102 70.6217 93.272 70.5983 93.6106 70.6937C94.1771 71.1174 94.1648 71.6087 94.1366 72.4888Z" fill="#E0B049" stroke="black" stroke-width="0.0240447"/>
<path d="M93.9059 71.9393C93.9273 72.5233 93.8555 72.8008 93.7119 73.2865C93.4861 72.7526 93.4497 72.5265 93.4519 72.1758L93.4597 71.3929C93.684 71.4512 93.7826 71.5554 93.9059 71.9393Z" fill="#ECE0FF"/>
<path d="M93.1947 71.6159L93.1836 72.7344L92.8618 71.7931L92.8667 71.2898L92.985 71.5101L93.1947 71.6159Z" fill="#FEDEFF"/>
<path d="M96.0863 77.3071C96.8601 77.8618 97.269 77.8357 97.8804 75.9802C98.7824 72.2632 98.3191 71.6215 98.1272 69.5348C97.8775 68.1494 97.6026 67.7203 96.747 67.7552C96.1131 67.2006 95.7089 67.1518 94.9213 67.6788C94.6604 71.0187 94.7284 72.2129 94.8716 74.2851C94.987 76.056 95.3684 76.5284 96.0863 77.3071Z" fill="#14000C"/>
<path d="M96.1977 76.2566C96.8541 76.727 97.2008 76.7049 97.7194 75.1312C98.4844 71.9787 98.0914 71.4344 97.9287 69.6646C97.7169 68.4896 97.4838 68.1257 96.7581 68.1553C96.2204 67.6849 95.8776 67.6435 95.2097 68.0905C94.9883 70.9232 95.0461 71.936 95.1675 73.6935C95.2654 75.1955 95.5888 75.5961 96.1977 76.2566Z" fill="#FF5DD6"/>
<path d="M97.6435 73.0677C97.5352 74.6703 97.2181 74.7142 96.6147 74.6679C96.2249 74.596 96.042 74.2591 95.735 73.4832C95.1123 71.301 95.1797 69.7412 95.98 69.4184C96.4165 69.4511 96.6712 69.5222 97.1767 69.8975C97.9711 70.9404 97.8572 71.7039 97.6435 73.0677Z" fill="black" stroke="black" stroke-width="0.0289587"/>
<path d="M97.3974 72.7795C97.3159 73.9861 97.0771 74.0192 96.6228 73.9844C96.3293 73.9302 96.1915 73.6765 95.9604 73.0923C95.4915 71.4493 95.5423 70.2748 96.1449 70.0318C96.4735 70.0564 96.6653 70.1099 97.0459 70.3925C97.644 71.1777 97.5583 71.7526 97.3974 72.7795Z" fill="#E0B049" stroke="black" stroke-width="0.0289587"/>
<path d="M96.9957 71.7105C96.92 72.5967 96.7633 72.9658 96.4629 73.6007C96.2288 72.6598 96.2168 72.299 96.2844 71.7764L96.4396 70.6115C96.759 70.8407 96.8849 71.0589 96.9957 71.7105Z" fill="#ECE0FF"/>
<path d="M98.5577 79.1448C99.2656 80.2891 99.6834 80.5796 100.558 79.2269C101.982 76.2672 101.6 75.2775 101.692 73.076C101.63 71.5197 101.41 70.8849 100.538 70.2576C99.9722 69.2215 99.5694 68.8609 98.6991 68.7703C97.9763 71.8547 97.8813 73.0823 97.7419 75.2319C97.6158 77.0636 97.9373 77.8234 98.5577 79.1448Z" fill="#14000C"/>
<path d="M98.8131 78.2014C99.4135 79.172 99.7679 79.4184 100.509 78.271C101.717 75.7609 101.394 74.9215 101.472 73.0543C101.419 71.7344 101.232 71.196 100.493 70.6639C100.013 69.7852 99.6712 69.4793 98.9331 69.4025C98.32 72.0185 98.2395 73.0597 98.1212 74.8828C98.0143 76.4363 98.2869 77.0807 98.8131 78.2014Z" fill="#FF5DD6"/>
<path d="M100.717 76.1886C100.387 77.6816 100.06 77.4795 99.4546 76.9673C99.0695 76.5951 98.9305 76.1221 98.7259 75.1213C98.3946 72.4926 98.677 71.01 99.5321 71.3114C99.9699 71.6811 100.218 71.9481 100.679 72.7082C101.34 74.3488 101.12 75.0119 100.717 76.1886Z" fill="black" stroke="black" stroke-width="0.0334954"/>
<path d="M100.502 75.7067C100.254 76.8308 100.007 76.6787 99.5516 76.293C99.2617 76.0128 99.157 75.6566 99.003 74.9031C98.7535 72.9238 98.9662 71.8075 99.61 72.0344C99.9396 72.3128 100.127 72.5138 100.473 73.0862C100.972 74.3214 100.806 74.8207 100.502 75.7067Z" fill="#E0B049" stroke="black" stroke-width="0.0334954"/>
<path d="M100.416 74.8026C100.259 75.4466 100.093 75.6381 99.7833 75.9486C99.6978 75.0725 99.7274 74.7841 99.8384 74.4184L100.089 73.6062C100.321 73.9802 100.398 74.2272 100.416 74.8026Z" fill="#ECE0FF"/>
<path d="M99.722 73.4802L99.3633 74.6406L99.2972 73.2023L99.4586 72.6802L99.5217 73.0766L99.722 73.4802Z" fill="#FEDEFF"/>
<path d="M100.866 83.5339C101.584 84.8578 102.045 85.1918 103.204 83.6121C105.167 80.1601 104.818 79.0132 105.143 76.4537C105.223 74.6455 105.028 73.9096 104.067 73.188C103.505 71.9888 103.068 71.5731 102.056 71.4754C100.903 75.0663 100.671 76.4939 100.295 78.9933C99.9662 81.1233 100.268 82.0035 100.866 83.5339Z" fill="#14000C"/>
<path d="M101.266 82.4273C101.874 83.5501 102.266 83.8335 103.249 82.4936C104.914 79.5659 104.617 78.5931 104.893 76.4224C104.961 74.8888 104.795 74.2646 103.98 73.6526C103.504 72.6355 103.133 72.283 102.275 72.2001C101.297 75.2456 101.1 76.4564 100.781 78.5763C100.502 80.3828 100.759 81.1293 101.266 82.4273Z" fill="#FF5DD6"/>
<path d="M103.7 80.0775C103.166 81.8155 102.802 81.5835 102.143 80.9934C101.728 80.5641 101.611 80.0156 101.47 78.8542C101.34 75.8019 101.818 74.0764 102.792 74.4193C103.269 74.8452 103.534 75.1534 103.999 76.0329C104.614 77.9339 104.29 78.7065 103.7 80.0775Z" fill="black" stroke="black" stroke-width="0.0355051"/>
<path d="M103.496 79.5171C103.094 80.8257 102.82 80.651 102.323 80.2067C102.011 79.8835 101.923 79.4704 101.817 78.596C101.719 76.2978 102.079 74.9986 102.812 75.2568C103.171 75.5775 103.371 75.8095 103.721 76.4717C104.184 77.903 103.94 78.4848 103.496 79.5171Z" fill="#E0B049" stroke="black" stroke-width="0.0355051"/>
<path d="M103.487 78.4702C103.239 79.22 103.026 79.444 102.632 79.8076C102.618 78.7901 102.681 78.4546 102.847 78.0287L103.222 77.0825C103.456 77.5153 103.523 77.8016 103.487 78.4702Z" fill="#ECE0FF"/>
<path d="M102.801 76.9373L102.266 78.2891L102.33 76.618L102.571 76.0098L102.606 76.4699L102.801 76.9373Z" fill="#FEDEFF"/>
<path d="M90.9737 79.121C89.3111 79.8306 88.6262 80.7283 88.7036 85.046C89.4119 93.0206 90.595 93.1029 92.1892 96.1199C93.4573 97.8672 94.1886 97.9952 95.6337 96.1489C97.0565 95.7318 97.7788 94.9666 98.809 92.4564C97.2308 86.44 96.39 84.6261 94.888 81.5313C93.6162 78.8718 92.6762 78.8955 90.9737 79.121Z" fill="#14000C"/>
<path d="M91.4221 81.0793C90.0119 81.6811 89.4311 82.4425 89.4967 86.1045C90.0974 92.868 91.1009 92.9379 92.453 95.4967C93.5285 96.9786 94.1488 97.0871 95.3744 95.5212C96.5811 95.1675 97.1937 94.5185 98.0674 92.3896C96.7289 87.2868 96.0158 85.7484 94.7419 83.1236C93.6633 80.868 92.866 80.888 91.4221 81.0793Z" fill="#FF5DD6"/>
<path d="M90.8628 89.3253C90.0766 86.4739 90.5934 85.7389 91.6556 84.5528C92.3672 83.8556 92.885 84.0251 93.8817 84.6539C96.2721 86.9264 97.1025 89.6224 95.9267 91.8245C95.1588 92.6837 94.6791 93.1 93.5854 93.5421C91.5914 93.495 91.3237 92.006 90.8628 89.3253Z" fill="black" stroke="black" stroke-width="0.0584595"/>
<path d="M91.4745 89.2801C90.8826 87.1332 91.2717 86.5798 92.0715 85.6867C92.6072 85.1618 92.9972 85.2894 93.7476 85.7629C95.5475 87.4739 96.1726 89.5038 95.2874 91.1619C94.7092 91.8088 94.348 92.1223 93.5245 92.4551C92.0232 92.4197 91.8216 91.2985 91.4745 89.2801Z" fill="#E0B049" stroke="black" stroke-width="0.0584595"/>
<path d="M92.9236 89.7544C92.6008 88.4799 92.6362 87.742 92.7391 86.4214C93.5083 87.254 93.6978 87.702 93.8569 88.4917L94.2056 90.2591C93.6623 90.4903 93.3868 90.4159 92.9236 89.7544Z" fill="#ECE0FF"/>
<path d="M82.3502 75.3748C81.1299 75.8956 80.6273 76.5545 80.6841 79.7236C81.2039 85.5767 82.0723 85.6371 83.2424 87.8515C84.1731 89.1339 84.7099 89.2278 85.7706 87.8727C86.8149 87.5666 87.345 87.005 88.1011 85.1626C86.9428 80.7467 86.3256 79.4154 85.2232 77.1439C84.2898 75.1919 83.5999 75.2093 82.3502 75.3748Z" fill="#14000C"/>
<path d="M82.6819 76.8205C81.6469 77.2622 81.2205 77.821 81.2687 80.5089C81.7096 85.473 82.4461 85.5243 83.4385 87.4024C84.2279 88.4901 84.6832 88.5697 85.5828 87.4204C86.4685 87.1608 86.9181 86.6844 87.5594 85.1219C86.5769 81.3766 86.0535 80.2475 85.1185 78.3209C84.3269 76.6654 83.7417 76.6801 82.6819 76.8205Z" fill="#FF5DD6"/>
<path d="M84.1467 86.5983C85.6057 87.6223 85.9112 86.6928 86.3816 84.8144C86.6496 83.5656 86.5166 82.7233 86.1139 81.1319C84.7779 77.3899 83.3898 76.2774 82.4381 78.4439C82.0972 79.802 81.9425 80.6386 81.8357 82.4963C82.0544 85.7991 82.8023 86.097 84.1467 86.5983Z" fill="#E0B049" stroke="black" stroke-width="0.0700282"/>
<path d="M83.3018 82.7052C83.8173 84.0888 84.2458 84.4501 85.0356 85.0187C85.0252 83.0103 84.8885 82.3734 84.5452 81.5969L83.7725 79.8739C83.3271 80.8135 83.2071 81.4021 83.3018 82.7052Z" fill="#ECE0FF"/>
</svg>
