<svg width="278" height="249" viewBox="0 0 278 249" fill="none" xmlns="http://www.w3.org/2000/svg">
<path d="M137.465 100.95L124.694 165.167C124.993 167.955 125.28 170.626 125.561 173.191C117.826 205.599 113.45 222.851 105.186 243.126C75.7359 252.461 59.5298 254.848 35.6212 213.334C29.32 190.864 32.5201 178.06 38.3937 165.167C44.7532 142.411 59.9403 132.844 79.9816 121.181C79.9816 121.181 1.56846 118.434 1.0906 38.6222C-1.61866 24.6264 0.324491 11.3738 11.4229 2.01332C33.3836 -9.9202 79.4039 33.6284 137.465 100.95Z" fill="#E8100C"/>
<path d="M139.551 100.903L152.321 165.12C152.023 167.909 151.736 170.579 151.454 173.144C159.19 205.552 163.565 222.804 171.829 243.079C201.28 252.414 217.486 254.801 241.394 213.287C247.696 190.817 244.495 178.013 238.622 165.12C232.262 142.365 217.075 132.797 197.034 121.134C197.034 121.134 275.447 118.387 275.925 38.5753C278.634 24.5796 276.691 11.3269 265.593 1.96644C243.632 -9.96707 197.612 33.5816 139.551 100.903Z" fill="#E8100C"/>
<path d="M151.729 157.642C151.366 197.674 151.326 220.502 137.188 228.05C129.259 211.618 126.349 198.05 123.808 177.532L134.881 92.5416L135.572 87.2339C132.622 81.6599 130.575 78.425 138.804 76.0901C149.395 74.7506 151.957 76.9284 151.511 85.7143L151.53 92.1041L151.729 157.642Z" fill="#E8100C"/>
<path d="M52.2705 185.698C50.8562 188.995 49.8955 189.928 47.2444 186.721C42.6783 179.508 43.3179 176.75 42.3651 170.994C42.0147 166.874 42.362 165.115 44.3591 163.112C45.4506 160.158 46.3503 159.047 48.5196 158.457C51.3548 166.281 51.9964 169.473 53.0517 175.073C53.9696 179.842 53.4058 181.971 52.2705 185.698Z" fill="#14000C"/>
<path d="M51.3118 183.305C50.1123 186.101 49.2975 186.892 47.049 184.172C43.1763 178.055 43.7188 175.716 42.9107 170.834C42.6135 167.339 42.9081 165.848 44.6018 164.149C45.5276 161.643 46.2907 160.701 48.1305 160.201C50.5352 166.837 51.0793 169.544 51.9744 174.293C52.7529 178.338 52.2747 180.144 51.3118 183.305Z" fill="#E4A10A"/>
<path d="M45.8403 178.802C47.1616 182.597 47.9226 181.933 49.2836 180.341C50.1347 179.207 50.3313 177.906 50.5208 175.19C50.498 168.139 49.2995 164.352 47.2375 165.49C46.2525 166.64 45.7123 167.442 44.7973 169.629C43.6621 174.212 44.4355 175.868 45.8403 178.802Z" fill="black" stroke="black" stroke-width="0.156103"/>
<path d="M46.2244 177.43C47.2193 180.288 47.7923 179.788 48.8171 178.59C49.4579 177.735 49.6059 176.756 49.7486 174.711C49.7314 169.402 48.829 166.551 47.2765 167.408C46.5348 168.273 46.128 168.878 45.4391 170.523C44.5843 173.975 45.1667 175.222 46.2244 177.43Z" fill="#4965E0" stroke="black" stroke-width="0.156103"/>
<path d="M46.139 175.033C46.7463 176.664 47.2279 177.101 48.1125 177.793C48.0419 175.453 47.8729 174.706 47.4727 173.789L46.5727 171.753C46.1109 172.83 45.9965 173.511 46.139 175.033Z" fill="#ECE0FF"/>
<path d="M47.464 171.271L48.75 174.18L48.4465 170.368L47.8678 169.059L47.8379 170.128L47.464 171.271Z" fill="#FEDEFF"/>
<path d="M82.9838 165.065C81.6502 164.393 81.1075 163.599 81.2172 159.916C81.876 153.137 82.8314 153.114 84.1506 150.602C85.1929 149.161 85.7844 149.081 86.9301 150.715C88.0734 151.128 88.6478 151.81 89.4514 153.994C88.1123 159.067 87.414 160.582 86.1683 163.164C85.1132 165.384 84.355 165.326 82.9838 165.065Z" fill="#E4A10A"/>
<path d="M82.5603 156.741C81.7755 159.574 82.2577 160.339 83.2528 161.583C83.9207 162.318 84.4155 162.172 85.3717 161.586C87.6751 159.411 88.4998 156.737 87.4097 154.465C86.6904 153.564 86.2394 153.122 85.2046 152.626C83.3073 152.579 83.0333 154.065 82.5603 156.741Z" fill="black" stroke="black" stroke-width="0.112794"/>
<path d="M83.1383 156.815C82.5475 158.948 82.9105 159.523 83.6598 160.46C84.1627 161.014 84.5352 160.904 85.2552 160.462C86.9895 158.825 87.6104 156.811 86.7897 155.101C86.248 154.422 85.9085 154.09 85.1294 153.716C83.7007 153.681 83.4945 154.8 83.1383 156.815Z" fill="#4965E0" stroke="black" stroke-width="0.112794"/>
<path d="M83.8977 155.973C83.5742 157.241 83.5984 157.985 83.6791 159.32C84.4217 158.518 84.6078 158.076 84.7694 157.288L85.1239 155.525C84.61 155.267 84.3469 155.329 83.8977 155.973Z" fill="#ECE0FF"/>
<path d="M85.5963 156.513L85.0898 159.031L86.2338 157.486L86.4617 156.353L86.101 156.64L85.5963 156.513Z" fill="#FEDEFF"/>
<path d="M77.9268 163.639C76.4006 163.808 75.6894 163.315 75.167 159.264C74.6882 151.5 75.6941 150.834 76.6531 147.236C77.505 144.98 78.1163 144.496 79.6105 145.492C80.8906 145.17 81.616 145.521 82.844 147.34C82.3079 153.718 81.8324 155.823 80.9633 159.447C80.2327 162.553 79.4213 162.999 77.9268 163.639Z" fill="#14000C"/>
<path d="M78.0474 161.595C76.753 161.738 76.1497 161.32 75.7066 157.885C75.3006 151.3 76.1537 150.735 76.9671 147.683C77.6896 145.77 78.2081 145.36 79.4754 146.204C80.5611 145.931 81.1763 146.229 82.2178 147.771C81.7631 153.181 81.3598 154.966 80.6227 158.04C80.003 160.674 79.3149 161.053 78.0474 161.595Z" fill="#E4A10A"/>
<path d="M76.4436 154.208C76.1566 157.25 76.7012 157.676 77.7761 158.248C78.483 158.541 78.9051 158.126 79.6761 157.045C81.4213 153.741 81.7674 150.822 80.4562 149.362C79.6789 148.946 79.2097 148.798 78.209 148.933C76.5013 149.97 76.4742 151.488 76.4436 154.208Z" fill="black" stroke="black" stroke-width="0.107292"/>
<path d="M76.9747 153.956C76.7586 156.246 77.1687 156.566 77.9781 156.997C78.5103 157.218 78.8281 156.905 79.4087 156.091C80.7227 153.604 80.9833 151.406 79.996 150.306C79.4107 149.993 79.0575 149.882 78.304 149.983C77.0182 150.765 76.9978 151.907 76.9747 153.956Z" fill="#4965E0" stroke="black" stroke-width="0.107292"/>
<path d="M78.3322 152.654C78.2285 154 78.3597 154.668 78.6282 155.844C79.176 154.687 79.2779 154.176 79.307 153.362L79.3656 151.546C78.867 151.602 78.6402 151.808 78.3322 152.654Z" fill="#ECE0FF"/>
<path d="M72.711 161.568C71.3214 161.95 70.652 161.602 70.0195 157.953C69.2851 150.883 70.1798 150.121 70.9197 146.67C71.6128 144.469 72.1535 143.934 73.5583 144.628C74.717 144.143 75.3939 144.358 76.5866 145.85C76.3397 151.795 75.9851 153.802 75.3285 157.264C74.7788 160.228 74.0536 160.759 72.711 161.568Z" fill="#14000C"/>
<path d="M72.7447 159.671C71.5661 159.994 70.9984 159.699 70.4619 156.604C69.8391 150.608 70.5979 149.962 71.2254 147.034C71.8132 145.168 72.2719 144.714 73.4633 145.303C74.446 144.891 75.0201 145.074 76.0317 146.339C75.8223 151.382 75.5216 153.083 74.9647 156.02C74.4984 158.534 73.8834 158.984 72.7447 159.671Z" fill="#E4A10A"/>
<path d="M70.9926 153.121C70.8462 155.961 71.3606 156.272 72.3658 156.64C73.0236 156.805 73.3938 156.36 74.0578 155.252C75.528 151.955 75.7332 149.219 74.4781 148.07C73.7511 147.802 73.3163 147.736 72.4061 148.008C70.8836 149.215 70.9168 150.614 70.9926 153.121Z" fill="black" stroke="black" stroke-width="0.0987431"/>
<path d="M71.4652 152.807C71.3549 154.946 71.7423 155.18 72.4991 155.457C72.9944 155.581 73.2731 155.246 73.7731 154.411C74.8801 151.929 75.0346 149.869 74.0895 149.004C73.5422 148.802 73.2148 148.752 72.5295 148.957C71.3831 149.866 71.408 150.92 71.4652 152.807Z" fill="#4965E0" stroke="black" stroke-width="0.0987431"/>
<path d="M71.9342 151.614C71.8907 152.866 72.0362 153.462 72.3268 154.504C72.7836 153.358 72.8573 152.873 72.8529 152.121L72.8372 150.441C72.3832 150.567 72.1837 150.79 71.9342 151.614Z" fill="#ECE0FF"/>
<path d="M73.376 150.937L73.3984 153.336L74.0498 151.317L74.0397 150.237L73.8004 150.71L73.376 150.937Z" fill="#FEDEFF"/>
<path d="M67.5229 163.131C65.9569 164.321 65.1295 164.265 63.8923 160.285C62.067 152.312 63.0046 150.936 63.3928 146.46C63.8981 143.489 64.4545 142.568 66.1859 142.643C67.4687 141.454 68.2867 141.349 69.8804 142.48C70.4085 149.643 70.2707 152.205 69.981 156.649C69.7474 160.447 68.9757 161.461 67.5229 163.131Z" fill="#14000C"/>
<path d="M67.298 160.867C65.9698 161.876 65.268 161.828 64.2187 158.453C62.6707 151.691 63.4658 150.524 63.7951 146.728C64.2236 144.207 64.6955 143.427 66.164 143.49C67.252 142.481 67.9457 142.393 69.2975 143.351C69.7453 149.427 69.6285 151.6 69.3828 155.369C69.1846 158.591 68.5301 159.45 67.298 160.867Z" fill="#E4A10A"/>
<path d="M64.3597 154.051C64.5788 157.488 65.2206 157.582 66.4417 157.483C67.2304 157.329 67.6006 156.606 68.2219 154.942C69.482 150.262 69.3456 146.916 67.7261 146.224C66.8428 146.294 66.3272 146.446 65.3044 147.251C63.6968 149.488 63.9274 151.126 64.3597 154.051Z" fill="black" stroke="black" stroke-width="0.118923"/>
<path d="M64.8689 153.411C65.0339 155.999 65.5171 156.07 66.4366 155.995C67.0304 155.879 67.3092 155.335 67.777 154.082C68.7257 150.558 68.623 148.039 67.4036 147.517C66.7386 147.57 66.3504 147.685 65.5803 148.291C64.3698 149.975 64.5434 151.208 64.8689 153.411Z" fill="#4965E0" stroke="black" stroke-width="0.118923"/>
<path d="M65.6822 151.123C65.8354 153.024 66.1525 153.816 66.7605 155.178C67.2341 153.16 67.2585 152.386 67.1216 151.265L66.8075 148.766C66.1613 149.258 65.9065 149.726 65.6822 151.123Z" fill="#ECE0FF"/>
<path d="M62.5274 167.083C61.0948 169.537 60.2493 170.161 58.4804 167.259C55.5987 160.911 56.3703 158.788 56.1839 154.066C56.311 150.728 56.7554 149.367 58.5193 148.021C59.6649 145.799 60.48 145.025 62.2411 144.831C63.7039 151.447 63.8961 154.08 64.1782 158.69C64.4335 162.619 63.7829 164.249 62.5274 167.083Z" fill="#14000C"/>
<path d="M62.0069 165.038C60.792 167.119 60.0749 167.648 58.5746 165.187C56.1305 159.803 56.7849 158.003 56.6268 153.998C56.7346 151.167 57.1116 150.012 58.6075 148.871C59.5792 146.986 60.2705 146.33 61.7642 146.165C63.0048 151.776 63.1678 154.009 63.4071 157.919C63.6236 161.252 63.0718 162.634 62.0069 165.038Z" fill="#E4A10A"/>
<path d="M58.1487 160.73C58.8158 163.932 59.4782 163.499 60.7025 162.4C61.4816 161.602 61.763 160.587 62.177 158.441C62.8474 152.802 62.2759 149.623 60.5455 150.269C59.6597 151.062 59.1571 151.635 58.2251 153.265C56.8861 156.784 57.3318 158.206 58.1487 160.73Z" fill="black" stroke="black" stroke-width="0.137554"/>
<path d="M58.585 159.703C59.0874 162.114 59.5861 161.787 60.5079 160.96C61.0946 160.359 61.3065 159.595 61.6181 157.979C62.123 153.734 61.6926 151.339 60.3897 151.826C59.7228 152.423 59.3444 152.854 58.6426 154.082C57.6344 156.731 57.97 157.802 58.585 159.703Z" fill="#4965E0" stroke="black" stroke-width="0.137554"/>
<path d="M58.7516 157.777C59.0693 159.158 59.4049 159.569 60.0322 160.235C60.2052 158.356 60.1453 157.737 59.9206 156.953L59.4125 155.21C58.9446 156.013 58.7882 156.543 58.7516 157.777Z" fill="#ECE0FF"/>
<path d="M60.1569 154.925L60.8828 157.414L61.0166 154.329L60.6899 153.209L60.5621 154.059L60.1569 154.925Z" fill="#FEDEFF"/>
<path d="M57.8383 176.488C56.3859 179.327 55.4518 180.044 53.1061 176.655C49.1338 169.251 49.8416 166.791 49.1833 161.302C49.0216 157.423 49.4164 155.845 51.3608 154.297C52.4981 151.725 53.3825 150.833 55.4309 150.624C57.7631 158.326 58.2338 161.388 58.994 166.749C59.6593 171.317 59.0475 173.205 57.8383 176.488Z" fill="#14000C"/>
<path d="M57.041 174.107C55.8092 176.515 55.017 177.123 53.0275 174.249C49.6585 167.97 50.2588 165.883 49.7004 161.227C49.5634 157.938 49.8982 156.599 51.5472 155.286C52.5119 153.105 53.262 152.349 54.9993 152.171C56.9773 158.703 57.3765 161.3 58.0212 165.847C58.5855 169.722 58.0667 171.323 57.041 174.107Z" fill="#E4A10A"/>
<path d="M52.1166 169.076C53.1975 172.804 53.9344 172.306 55.2686 171.041C56.1085 170.12 56.3443 168.943 56.6301 166.452C56.8919 159.906 55.9253 156.205 53.9551 156.94C52.9895 157.854 52.4531 158.514 51.5114 160.401C50.2678 164.478 50.9232 166.135 52.1166 169.076Z" fill="black" stroke="black" stroke-width="0.145807"/>
<path d="M52.5292 167.871C53.3431 170.677 53.8979 170.303 54.9025 169.35C55.5349 168.657 55.7124 167.771 55.9276 165.895C56.1247 160.966 55.3969 158.179 53.9135 158.733C53.1864 159.421 52.7826 159.918 52.0735 161.339C51.1371 164.409 51.6306 165.656 52.5292 167.871Z" fill="#4965E0" stroke="black" stroke-width="0.145807"/>
<path d="M52.546 165.626C53.0474 167.234 53.4793 167.715 54.2772 168.494C54.3053 166.312 54.1775 165.593 53.8408 164.679L53.0825 162.649C52.6082 163.578 52.4741 164.192 52.546 165.626Z" fill="#ECE0FF"/>
<path d="M53.9321 162.335L55.0156 165.234L54.8854 161.65L54.3978 160.345L54.327 161.332L53.9321 162.335Z" fill="#FEDEFF"/>
<path d="M77.8692 167.026C81.2337 168.548 82.6197 170.473 82.4631 179.734C81.0298 196.839 78.6355 197.015 75.4095 203.486C72.8433 207.234 71.3633 207.509 68.439 203.549C65.5598 202.654 64.0981 201.013 62.0135 195.629C65.2071 182.724 66.9087 178.834 69.9481 172.196C72.5216 166.492 74.4239 166.542 77.8692 167.026Z" fill="#14000C"/>
<path d="M76.9608 171.219C79.8144 172.509 80.9899 174.142 80.8571 181.997C79.6414 196.504 77.6108 196.654 74.8747 202.142C72.6982 205.321 71.443 205.553 68.9627 202.195C66.5208 201.436 65.2811 200.044 63.5131 195.478C66.2217 184.533 67.6648 181.233 70.2426 175.603C72.4254 170.765 74.0388 170.808 76.9608 171.219Z" fill="#E4A10A"/>
<path d="M78.0845 188.9C79.6755 182.784 78.6296 181.207 76.4801 178.663C75.0402 177.168 73.9922 177.532 71.9754 178.88C67.138 183.754 65.4577 189.537 67.8369 194.26C69.3908 196.103 70.3616 196.996 72.575 197.944C76.6099 197.843 77.1517 194.649 78.0845 188.9Z" fill="black" stroke="black" stroke-width="0.240073"/>
<path d="M76.8498 188.796C78.0478 184.191 77.2602 183.004 75.6418 181.088C74.5576 179.962 73.7686 180.236 72.25 181.252C68.6077 184.921 67.3425 189.275 69.134 192.832C70.304 194.219 71.0349 194.892 72.7015 195.606C75.7396 195.529 76.1475 193.125 76.8498 188.796Z" fill="#4965E0" stroke="black" stroke-width="0.240073"/>
<path d="M73.9236 189.821C74.5767 187.088 74.505 185.505 74.2969 182.673C72.7404 184.458 72.3568 185.419 72.0348 187.113L71.3293 190.904C72.4287 191.4 72.9862 191.24 73.9236 189.821Z" fill="#ECE0FF"/>
<path d="M95.3165 158.987C97.786 160.104 98.8032 161.518 98.6883 168.315C97.6363 180.869 95.879 180.999 93.5112 185.748C91.6277 188.499 90.5414 188.7 88.395 185.794C86.2818 185.137 85.209 183.933 83.6789 179.981C86.0229 170.509 87.2718 167.654 89.5026 162.782C91.3916 158.595 92.7878 158.632 95.3165 158.987Z" fill="#14000C"/>
<path d="M94.6463 162.079C96.7408 163.026 97.6035 164.225 97.506 169.99C96.6138 180.638 95.1234 180.748 93.1152 184.776C91.5177 187.109 90.5964 187.28 88.776 184.814C86.9837 184.258 86.0738 183.236 84.7761 179.884C86.7641 171.851 87.8234 169.429 89.7154 165.297C91.3175 161.746 92.5016 161.778 94.6463 162.079Z" fill="#E4A10A"/>
<path d="M91.6801 183.065C88.7275 185.261 88.1094 183.268 87.1574 179.239C86.6151 176.56 86.8842 174.753 87.699 171.34C90.4027 163.314 93.2116 160.928 95.1375 165.575C95.8275 168.488 96.1404 170.282 96.3566 174.267C95.914 181.351 94.4006 181.99 91.6801 183.065Z" fill="#4965E0" stroke="black" stroke-width="0.287581"/>
<path d="M93.3845 174.722C92.3412 177.689 91.4741 178.464 89.8759 179.684C89.8968 175.376 90.1734 174.01 90.8682 172.345L92.432 168.649C93.3333 170.664 93.5761 171.927 93.3845 174.722Z" fill="#ECE0FF"/>
<path d="M219.788 183.792C221.202 187.088 222.163 188.021 224.814 184.815C229.38 177.602 228.741 174.844 229.694 169.088C230.044 164.968 229.697 163.209 227.7 161.206C226.608 158.252 225.708 157.14 223.539 156.551C220.704 164.375 220.062 167.567 219.007 173.167C218.089 177.936 218.653 180.064 219.788 183.792Z" fill="#14000C"/>
<path d="M220.755 181.391C221.954 184.187 222.769 184.978 225.017 182.258C228.89 176.141 228.348 173.801 229.156 168.92C229.453 165.425 229.158 163.933 227.465 162.235C226.539 159.729 225.776 158.787 223.936 158.287C221.531 164.923 220.987 167.63 220.092 172.379C219.314 176.424 219.792 178.229 220.755 181.391Z" fill="#E4A10A"/>
<path d="M226.226 176.895C224.905 180.691 224.144 180.027 222.783 178.435C221.932 177.3 221.735 176 221.546 173.284C221.568 166.233 222.767 162.446 224.829 163.584C225.814 164.734 226.354 165.536 227.269 167.722C228.404 172.306 227.631 173.962 226.226 176.895Z" fill="black" stroke="black" stroke-width="0.156103"/>
<path d="M225.842 175.532C224.847 178.39 224.274 177.89 223.249 176.691C222.609 175.837 222.461 174.857 222.318 172.813C222.335 167.504 223.237 164.652 224.79 165.509C225.532 166.375 225.938 166.979 226.627 168.625C227.482 172.076 226.9 173.323 225.842 175.532Z" fill="#4965E0" stroke="black" stroke-width="0.156103"/>
<path d="M225.927 173.119C225.32 174.75 224.839 175.187 223.954 175.879C224.024 173.539 224.193 172.792 224.594 171.875L225.494 169.839C225.955 170.916 226.07 171.597 225.927 173.119Z" fill="#ECE0FF"/>
<path d="M224.606 169.349L223.32 172.258L223.624 168.446L224.202 167.137L224.232 168.206L224.606 169.349Z" fill="#FEDEFF"/>
<path d="M189.079 163.159C190.412 162.487 190.955 161.693 190.845 158.01C190.187 151.23 189.231 151.207 187.912 148.696C186.87 147.255 186.278 147.175 185.132 148.809C183.989 149.222 183.415 149.904 182.611 152.088C183.95 157.161 184.648 158.676 185.894 161.258C186.949 163.477 187.708 163.42 189.079 163.159Z" fill="#E4A10A"/>
<path d="M189.502 154.827C190.287 157.66 189.805 158.425 188.81 159.669C188.142 160.404 187.647 160.258 186.691 159.672C184.387 157.497 183.563 154.823 184.653 152.551C185.372 151.65 185.823 151.208 186.858 150.711C188.755 150.665 189.029 152.151 189.502 154.827Z" fill="black" stroke="black" stroke-width="0.112794"/>
<path d="M188.924 154.909C189.515 157.042 189.152 157.617 188.403 158.554C187.9 159.107 187.527 158.997 186.807 158.556C185.073 156.919 184.452 154.905 185.273 153.194C185.814 152.516 186.154 152.183 186.933 151.81C188.362 151.774 188.568 152.893 188.924 154.909Z" fill="#4965E0" stroke="black" stroke-width="0.112794"/>
<path d="M188.161 154.082C188.484 155.35 188.46 156.095 188.379 157.429C187.637 156.627 187.451 156.185 187.289 155.398L186.935 153.635C187.449 153.376 187.712 153.438 188.161 154.082Z" fill="#ECE0FF"/>
<path d="M186.466 154.607L186.973 157.125L185.829 155.58L185.601 154.446L185.962 154.734L186.466 154.607Z" fill="#FEDEFF"/>
<path d="M194.136 161.732C195.662 161.902 196.373 161.409 196.896 157.358C197.374 149.594 196.368 148.928 195.409 145.33C194.558 143.074 193.946 142.59 192.452 143.585C191.172 143.264 190.447 143.615 189.219 145.434C189.755 151.812 190.23 153.916 191.099 157.541C191.83 160.647 192.641 161.093 194.136 161.732Z" fill="#14000C"/>
<path d="M194.015 159.673C195.31 159.817 195.913 159.399 196.356 155.963C196.762 149.378 195.909 148.813 195.095 145.761C194.373 143.848 193.854 143.438 192.587 144.282C191.501 144.009 190.886 144.307 189.845 145.85C190.299 151.259 190.703 153.044 191.44 156.118C192.059 158.752 192.748 159.131 194.015 159.673Z" fill="#E4A10A"/>
<path d="M195.619 152.318C195.906 155.359 195.361 155.785 194.286 156.358C193.58 156.651 193.157 156.235 192.386 155.154C190.641 151.85 190.295 148.931 191.606 147.471C192.384 147.055 192.853 146.908 193.853 147.042C195.561 148.08 195.588 149.597 195.619 152.318Z" fill="black" stroke="black" stroke-width="0.107292"/>
<path d="M195.092 152.034C195.308 154.324 194.898 154.644 194.088 155.076C193.556 155.296 193.238 154.983 192.658 154.169C191.344 151.682 191.083 149.484 192.07 148.384C192.656 148.071 193.009 147.96 193.762 148.061C195.048 148.843 195.069 149.985 195.092 152.034Z" fill="#4965E0" stroke="black" stroke-width="0.107292"/>
<path d="M193.73 150.74C193.834 152.085 193.703 152.754 193.434 153.93C192.886 152.772 192.785 152.262 192.756 151.448L192.697 149.632C193.196 149.688 193.422 149.894 193.73 150.74Z" fill="#ECE0FF"/>
<path d="M199.352 159.654C200.741 160.036 201.41 159.688 202.043 156.039C202.777 148.969 201.883 148.207 201.143 144.755C200.45 142.555 199.909 142.019 198.504 142.714C197.346 142.229 196.669 142.444 195.476 143.936C195.723 149.881 196.077 151.888 196.734 155.35C197.284 158.314 198.009 158.845 199.352 159.654Z" fill="#14000C"/>
<path d="M199.326 157.756C200.504 158.08 201.072 157.785 201.608 154.69C202.231 148.694 201.472 148.048 200.845 145.12C200.257 143.254 199.798 142.8 198.607 143.389C197.624 142.977 197.05 143.16 196.039 144.425C196.248 149.468 196.549 151.169 197.106 154.106C197.572 156.62 198.187 157.07 199.326 157.756Z" fill="#E4A10A"/>
<path d="M201.07 151.199C201.216 154.04 200.702 154.35 199.697 154.718C199.039 154.883 198.669 154.439 198.005 153.33C196.534 150.033 196.329 147.297 197.584 146.148C198.311 145.881 198.746 145.814 199.656 146.086C201.179 147.293 201.146 148.692 201.07 151.199Z" fill="black" stroke="black" stroke-width="0.0987431"/>
<path d="M200.593 150.885C200.704 153.024 200.316 153.258 199.56 153.535C199.064 153.659 198.785 153.324 198.286 152.49C197.179 150.007 197.024 147.947 197.969 147.082C198.516 146.881 198.844 146.831 199.529 147.035C200.676 147.944 200.651 148.998 200.593 150.885Z" fill="#4965E0" stroke="black" stroke-width="0.0987431"/>
<path d="M200.132 149.699C200.176 150.952 200.03 151.547 199.74 152.589C199.283 151.444 199.209 150.959 199.214 150.207L199.229 148.527C199.683 148.653 199.883 148.876 200.132 149.699Z" fill="#ECE0FF"/>
<path d="M198.69 149.023L198.668 151.422L198.017 149.403L198.027 148.323L198.266 148.796L198.69 149.023Z" fill="#FEDEFF"/>
<path d="M204.543 161.217C206.11 162.407 206.937 162.351 208.174 158.371C209.999 150.398 209.062 149.022 208.674 144.546C208.168 141.575 207.612 140.654 205.881 140.729C204.598 139.54 203.78 139.435 202.186 140.565C201.658 147.729 201.796 150.291 202.085 154.735C202.319 158.533 203.091 159.547 204.543 161.217Z" fill="#14000C"/>
<path d="M204.764 158.968C206.093 159.977 206.794 159.93 207.844 156.554C209.392 149.793 208.597 148.625 208.267 144.829C207.839 142.309 207.367 141.528 205.899 141.592C204.81 140.583 204.117 140.494 202.765 141.453C202.317 147.529 202.434 149.701 202.68 153.471C202.878 156.692 203.532 157.552 204.764 158.968Z" fill="#E4A10A"/>
<path d="M207.703 152.145C207.484 155.582 206.842 155.676 205.621 155.577C204.832 155.423 204.462 154.7 203.841 153.036C202.581 148.355 202.717 145.01 204.336 144.317C205.22 144.387 205.735 144.54 206.758 145.345C208.366 147.582 208.135 149.219 207.703 152.145Z" fill="black" stroke="black" stroke-width="0.118923"/>
<path d="M207.194 151.504C207.029 154.092 206.545 154.163 205.626 154.089C205.032 153.973 204.753 153.428 204.286 152.175C203.337 148.651 203.439 146.132 204.659 145.611C205.324 145.664 205.712 145.779 206.482 146.385C207.693 148.069 207.519 149.302 207.194 151.504Z" fill="#4965E0" stroke="black" stroke-width="0.118923"/>
<path d="M206.388 149.217C206.235 151.118 205.918 151.91 205.31 153.271C204.836 151.253 204.812 150.479 204.949 149.358L205.263 146.86C205.909 147.352 206.164 147.819 206.388 149.217Z" fill="#ECE0FF"/>
<path d="M209.543 165.177C210.975 167.631 211.821 168.254 213.59 165.353C216.472 159.005 215.7 156.882 215.886 152.16C215.759 148.822 215.315 147.46 213.551 146.115C212.405 143.893 211.59 143.119 209.829 142.925C208.366 149.54 208.174 152.174 207.892 156.784C207.637 160.713 208.287 162.342 209.543 165.177Z" fill="#14000C"/>
<path d="M210.059 163.131C211.274 165.213 211.992 165.741 213.492 163.281C215.936 157.897 215.282 156.096 215.44 152.091C215.332 149.26 214.955 148.105 213.459 146.964C212.487 145.08 211.796 144.424 210.302 144.259C209.062 149.87 208.899 152.103 208.659 156.013C208.443 159.345 208.995 160.727 210.059 163.131Z" fill="#E4A10A"/>
<path d="M213.918 158.824C213.251 162.026 212.588 161.592 211.364 160.494C210.585 159.696 210.303 158.681 209.889 156.534C209.219 150.896 209.79 147.716 211.521 148.363C212.407 149.156 212.909 149.728 213.841 151.359C215.18 154.878 214.735 156.3 213.918 158.824Z" fill="black" stroke="black" stroke-width="0.137554"/>
<path d="M213.474 157.789C212.971 160.2 212.472 159.873 211.551 159.046C210.964 158.445 210.752 157.681 210.44 156.065C209.936 151.82 210.366 149.425 211.669 149.912C212.336 150.509 212.714 150.94 213.416 152.168C214.424 154.817 214.089 155.888 213.474 157.789Z" fill="#4965E0" stroke="black" stroke-width="0.137554"/>
<path d="M213.307 155.863C212.989 157.244 212.654 157.655 212.026 158.321C211.853 156.442 211.913 155.823 212.138 155.039L212.646 153.296C213.114 154.099 213.27 154.629 213.307 155.863Z" fill="#ECE0FF"/>
<path d="M211.909 153.019L211.184 155.508L211.05 152.423L211.376 151.302L211.504 152.153L211.909 153.019Z" fill="#FEDEFF"/>
<path d="M214.232 174.589C215.684 177.429 216.619 178.145 218.964 174.757C222.937 167.353 222.229 164.893 222.887 159.403C223.049 155.525 222.654 153.946 220.71 152.399C219.572 149.826 218.688 148.935 216.639 148.725C214.307 156.427 213.837 159.489 213.076 164.85C212.411 169.419 213.023 171.307 214.232 174.589Z" fill="#14000C"/>
<path d="M215.021 172.201C216.253 174.609 217.045 175.217 219.035 172.343C222.404 166.063 221.804 163.977 222.362 159.321C222.499 156.032 222.164 154.693 220.515 153.38C219.551 151.199 218.801 150.442 217.063 150.265C215.085 156.797 214.686 159.394 214.041 163.941C213.477 167.816 213.996 169.417 215.021 172.201Z" fill="#E4A10A"/>
<path d="M219.954 167.17C218.873 170.898 218.136 170.4 216.802 169.134C215.962 168.214 215.726 167.037 215.44 164.546C215.178 157.999 216.145 154.298 218.115 155.034C219.081 155.947 219.617 156.608 220.559 158.495C221.803 162.572 221.147 164.229 219.954 167.17Z" fill="black" stroke="black" stroke-width="0.145807"/>
<path d="M219.541 165.957C218.727 168.763 218.172 168.389 217.168 167.436C216.535 166.742 216.358 165.857 216.143 163.981C215.946 159.052 216.673 156.265 218.157 156.819C218.884 157.507 219.288 158.004 219.997 159.425C220.933 162.495 220.44 163.742 219.541 165.957Z" fill="#4965E0" stroke="black" stroke-width="0.145807"/>
<path d="M219.52 163.72C219.019 165.328 218.587 165.808 217.789 166.588C217.761 164.406 217.889 163.686 218.226 162.773L218.984 160.743C219.458 161.671 219.592 162.286 219.52 163.72Z" fill="#ECE0FF"/>
<path d="M218.134 160.421L217.051 163.32L217.181 159.736L217.669 158.431L217.739 159.418L218.134 160.421Z" fill="#FEDEFF"/>
<path d="M194.197 165.12C190.833 166.642 189.447 168.567 189.603 177.828C191.037 194.933 193.431 195.109 196.657 201.58C199.223 205.328 200.703 205.602 203.627 201.642C206.507 200.748 207.968 199.106 210.053 193.723C206.859 180.818 205.158 176.928 202.118 170.29C199.545 164.585 197.643 164.636 194.197 165.12Z" fill="#14000C"/>
<path d="M195.106 169.312C192.252 170.603 191.077 172.236 191.209 180.091C192.425 194.598 194.456 194.747 197.192 200.236C199.368 203.414 200.623 203.647 203.104 200.288C205.546 199.53 206.785 198.138 208.553 193.571C205.845 182.627 204.402 179.327 201.824 173.697C199.641 168.859 198.028 168.902 195.106 169.312Z" fill="#E4A10A"/>
<path d="M193.978 187.001C192.387 180.885 193.433 179.309 195.582 176.765C197.022 175.269 198.07 175.633 200.087 176.982C204.925 181.856 206.605 187.638 204.226 192.362C202.672 194.205 201.701 195.098 199.488 196.046C195.453 195.945 194.911 192.751 193.978 187.001Z" fill="black" stroke="black" stroke-width="0.240073"/>
<path d="M195.213 186.897C194.015 182.292 194.802 181.105 196.421 179.19C197.505 178.064 198.294 178.338 199.812 179.353C203.455 183.023 204.72 187.377 202.928 190.933C201.758 192.321 201.028 192.993 199.361 193.707C196.323 193.631 195.915 191.226 195.213 186.897Z" fill="#4965E0" stroke="black" stroke-width="0.240073"/>
<path d="M198.147 187.907C197.494 185.174 197.565 183.591 197.773 180.758C199.33 182.544 199.713 183.505 200.036 185.199L200.741 188.99C199.642 189.486 199.084 189.326 198.147 187.907Z" fill="#ECE0FF"/>
<path d="M176.746 157.089C174.277 158.206 173.259 159.619 173.374 166.417C174.426 178.971 176.184 179.1 178.551 183.85C180.435 186.6 181.521 186.802 183.667 183.895C185.781 183.239 186.854 182.034 188.384 178.082C186.04 168.611 184.791 165.755 182.56 160.883C180.671 156.697 179.275 156.734 176.746 157.089Z" fill="#14000C"/>
<path d="M177.408 160.165C175.314 161.112 174.451 162.311 174.549 168.076C175.441 178.724 176.931 178.834 178.94 182.862C180.537 185.195 181.458 185.366 183.279 182.9C185.071 182.344 185.981 181.322 187.279 177.97C185.291 169.937 184.231 167.515 182.339 163.383C180.737 159.832 179.553 159.864 177.408 160.165Z" fill="#E4A10A"/>
<path d="M180.382 181.159C183.335 183.355 183.953 181.361 184.905 177.332C185.447 174.654 185.178 172.847 184.363 169.434C181.66 161.408 178.851 159.022 176.925 163.669C176.235 166.581 175.922 168.376 175.706 172.36C176.148 179.444 177.662 180.083 180.382 181.159Z" fill="#4965E0" stroke="black" stroke-width="0.287581"/>
<path d="M178.67 172.815C179.713 175.783 180.581 176.558 182.179 177.778C182.158 173.47 181.881 172.104 181.186 170.438L179.623 166.743C178.721 168.758 178.479 170.02 178.67 172.815Z" fill="#ECE0FF"/>
<path d="M32.9086 50.3422C32.0336 46.6541 31.1084 45.189 27.0902 45.7496C19.7412 48.0607 19.816 50.7377 17.2055 54.6045C15.7379 57.6221 15.7122 59.2838 17.6197 62.3794C18.191 65.5525 18.9974 67.1139 21.4712 69.2139C26.882 65.1151 28.4664 63.0556 31.1613 59.39C33.4795 56.2826 33.3371 54.1636 32.9086 50.3422Z" fill="#14000C"/>
<path d="M31.1395 51.5238C30.3974 48.3958 29.6127 47.1532 26.2047 47.6287C19.9718 49.5888 20.0352 51.8593 17.8211 55.1389C16.5764 57.6982 16.5546 59.1075 18.1725 61.7331C18.657 64.4243 19.341 65.7485 21.439 67.5296C26.0281 64.0532 27.3719 62.3066 29.6575 59.1976C31.6237 56.5621 31.5029 54.7649 31.1395 51.5238Z" fill="#E4A10A"/>
<path d="M23.3737 50.9991C25.9332 48.9701 26.6851 50.0707 27.9277 52.3613C28.6693 53.9046 28.5775 55.0882 28.1185 57.3933C26.3046 62.9903 23.8958 65.1049 21.6908 62.6488C20.7909 60.993 20.3411 59.9478 19.7885 57.5193C19.5771 53.016 20.9319 52.2788 23.3737 50.9991Z" fill="black" stroke="black" stroke-width="0.242123"/>
<path d="M23.4981 52.3823C25.4252 50.8546 25.9914 51.6833 26.9269 53.408C27.4853 54.57 27.4162 55.4612 27.0706 57.1968C25.7049 61.411 23.8912 63.0032 22.2309 61.1539C21.5533 59.9071 21.2147 59.1202 20.7986 57.2917C20.6394 53.9009 21.6595 53.3458 23.4981 52.3823Z" fill="#4965E0" stroke="black" stroke-width="0.242123"/>
<path d="M22.7917 54.2193C23.9395 53.377 24.6326 53.391 25.8779 53.505C25.1996 55.3152 24.8059 55.783 24.0895 56.2127L22.4851 57.1575C22.1997 55.9522 22.2339 55.3238 22.7917 54.2193Z" fill="#ECE0FF"/>
<path d="M23.4267 58.2169L25.7188 56.8672L24.386 59.6742L23.3546 60.2815L23.5892 59.4081L23.4267 58.2169Z" fill="#FEDEFF"/>
<path d="M64.7653 87.9669C62.663 87.4161 61.6521 87.6803 60.7083 91.2353C59.6224 98.1842 60.9778 99.0526 62.1083 102.58C63.1638 104.857 63.9832 105.456 66.1048 104.937C67.8583 105.563 68.881 105.432 70.6792 104.093C70.2854 98.1434 69.7424 96.1023 68.7376 92.5742C67.8962 89.5552 66.7981 88.9375 64.7653 87.9669Z" fill="#14000C"/>
<path d="M64.8164 89.8575C63.0334 89.3903 62.176 89.6144 61.3755 92.6295C60.4545 98.523 61.604 99.2596 62.5629 102.251C63.4581 104.182 64.1531 104.69 65.9525 104.251C67.4396 104.781 68.307 104.67 69.8322 103.535C69.4981 98.4885 69.0376 96.7574 68.1855 93.7651C67.4718 91.2045 66.5404 90.6806 64.8164 89.8575Z" fill="#E4A10A"/>
<path d="M62.1963 96.1603C61.9652 93.3145 62.7419 93.0684 64.2603 92.826C65.2543 92.7425 65.8156 93.2308 66.8234 94.4162C69.0577 97.8792 69.3773 100.629 67.4836 101.618C66.3854 101.795 65.7282 101.808 64.3511 101.426C62.045 100.036 62.0903 98.6471 62.1963 96.1603Z" fill="black" stroke="black" stroke-width="0.174949"/>
<path d="M62.9158 96.5484C62.7418 94.4058 63.3266 94.2205 64.4699 94.0379C65.2183 93.975 65.6409 94.3427 66.3997 95.2352C68.082 97.8427 68.3227 99.9129 66.8968 100.658C66.07 100.791 65.5751 100.801 64.5383 100.513C62.8019 99.4669 62.836 98.4209 62.9158 96.5484Z" fill="#4965E0" stroke="black" stroke-width="0.174949"/>
<path d="M63.6161 97.7705C63.5461 96.5178 63.764 95.9431 64.1997 94.9414C64.8944 96.1381 65.0075 96.6299 65.0034 97.3784L64.9854 99.0486C64.2986 98.8681 63.9961 98.621 63.6161 97.7705Z" fill="#ECE0FF"/>
<path d="M65.8064 98.6281L65.832 96.2422L66.8238 98.3327L66.8123 99.4063L66.4488 98.9064L65.8064 98.6281Z" fill="#FEDEFF"/>
<path d="M58.341 87.1883C56.5384 85.9062 55.5535 85.7639 53.8954 88.5969C51.3494 94.4191 52.397 95.7058 52.6449 99.292C53.1035 101.729 53.7202 102.573 55.7792 102.904C57.2456 104.122 58.2117 104.388 60.1575 103.863C61.1251 98.3812 61.0834 96.3478 60.9508 92.8082C60.8541 89.7863 59.9862 88.8207 58.341 87.1883Z" fill="#14000C"/>
<path d="M57.9657 88.9067C56.4369 87.8193 55.6016 87.6986 54.1953 90.1014C52.0359 95.0394 52.9244 96.1307 53.1347 99.1723C53.5237 101.239 54.0467 101.955 55.793 102.236C57.0367 103.269 57.8561 103.494 59.5064 103.049C60.327 98.3998 60.2917 96.6752 60.1792 93.6732C60.0972 91.1101 59.3611 90.2912 57.9657 88.9067Z" fill="#E4A10A"/>
<path d="M54.1548 93.5773C54.5784 90.9395 55.3447 91.0102 56.7896 91.3622C57.7187 91.6601 58.1237 92.3084 58.7822 93.749C60.0555 97.6913 59.7344 100.276 57.7789 100.453C56.7336 100.2 56.1289 99.9647 54.9529 99.1055C53.1508 96.9953 53.5024 95.7669 54.1548 93.5773Z" fill="black" stroke="black" stroke-width="0.166415"/>
<path d="M54.731 94.1863C55.0499 92.2002 55.627 92.2534 56.7149 92.5185C57.4144 92.7428 57.7194 93.2309 58.2152 94.3156C59.1739 97.2839 58.9322 99.2301 57.4598 99.3634C56.6727 99.1727 56.2174 98.9957 55.332 98.3487C53.9751 96.7599 54.2398 95.835 54.731 94.1863Z" fill="#4965E0" stroke="black" stroke-width="0.166415"/>
<path d="M56.0441 96.2425C56.2597 95.0933 56.5875 94.6598 57.2102 93.9253C57.5794 95.2585 57.5732 95.7419 57.4023 96.4113L57.013 97.9018C56.4242 97.4825 56.2023 97.1475 56.0441 96.2425Z" fill="#ECE0FF"/>
<path d="M51.5045 84.9214C49.9209 83.573 49.0232 83.347 47.3339 85.7769C44.6546 90.8547 45.5435 92.1337 45.5637 95.4382C45.8442 97.7118 46.3625 98.5443 48.2372 99.0473C49.5153 100.305 50.3884 100.642 52.2086 100.351C53.4164 95.4309 53.4959 93.5669 53.5791 90.3162C53.6654 87.5425 52.9231 86.5747 51.5045 84.9214Z" fill="#14000C"/>
<path d="M51.0579 86.4517C49.7147 85.3081 48.9534 85.1164 47.5207 87.1773C45.2482 91.4839 46.0022 92.5687 46.0193 95.3714C46.2572 97.2997 46.6968 98.0058 48.2867 98.4324C49.3707 99.4988 50.1113 99.7847 51.6551 99.5378C52.6794 95.3652 52.7468 93.7842 52.8175 91.0272C52.8906 88.6748 52.261 87.854 51.0579 86.4517Z" fill="#E4A10A"/>
<path d="M47.2847 90.3605C47.8273 87.9889 48.528 88.1282 49.8366 88.5909C50.6739 88.9539 51.0089 89.5863 51.531 90.9682C52.4736 94.6983 52.0284 97.0313 50.2195 97.003C49.2728 96.6694 48.7302 96.3955 47.6984 95.495C46.1631 93.3893 46.5578 92.2999 47.2847 90.3605Z" fill="black" stroke="black" stroke-width="0.153155"/>
<path d="M47.7773 90.9602C48.1858 89.1746 48.7135 89.2794 49.6988 89.6278C50.3292 89.9011 50.5814 90.3773 50.9745 91.4178C51.6843 94.2263 51.3491 95.983 49.9871 95.9616C49.2742 95.7105 48.8657 95.5042 48.0888 94.8262C46.9328 93.2407 47.23 92.4205 47.7773 90.9602Z" fill="#4965E0" stroke="black" stroke-width="0.153155"/>
<path d="M48.0415 92.2575C48.3064 91.2272 48.6331 90.8626 49.2485 90.2513C49.5107 91.5069 49.477 91.9484 49.281 92.5441L48.8365 93.8696C48.3192 93.4286 48.1346 93.1007 48.0415 92.2575Z" fill="#ECE0FF"/>
<path d="M49.6191 93.8932L50.2539 92L50.5299 94.097L50.2442 94.9489L50.0746 94.3929L49.6191 93.8932Z" fill="#FEDEFF"/>
<path d="M45.6241 79.7704C44.0319 77.6459 43.0172 77.0685 40.5128 79.3074C36.2858 84.2837 37.0708 86.0844 36.4062 89.9401C36.2644 92.6862 36.704 93.8372 38.8166 95.0791C40.0664 96.9907 41.029 97.6889 43.2426 97.9868C45.6961 92.6795 46.1785 90.5364 46.9542 86.7796C47.6341 83.5794 46.9576 82.1925 45.6241 79.7704Z" fill="#14000C"/>
<path d="M44.7838 81.4196C43.4334 79.6177 42.5728 79.128 40.4487 81.027C36.8637 85.2475 37.5295 86.7747 36.9658 90.0449C36.8455 92.374 37.2183 93.3502 39.0101 94.4034C40.0702 96.0248 40.8865 96.6169 42.764 96.8696C44.8449 92.3683 45.254 90.5506 45.9119 87.3644C46.4885 84.6501 45.9148 83.4739 44.7838 81.4196Z" fill="#E4A10A"/>
<path d="M39.5061 84.6345C40.6419 82.0623 41.4418 82.4697 42.8932 83.4666C43.8079 84.1823 44.0724 85.0361 44.4021 86.8282C44.74 91.5024 43.7274 94.0638 41.5937 93.3977C40.5433 92.6779 39.9585 92.169 38.9257 90.7592C37.5484 87.7695 38.2422 86.6388 39.5061 84.6345Z" fill="black" stroke="black" stroke-width="0.184455"/>
<path d="M39.9636 85.5177C40.8188 83.581 41.4211 83.8877 42.514 84.6383C43.2027 85.1772 43.4018 85.8201 43.65 87.1694C43.9044 90.6888 43.142 92.6174 41.5355 92.1159C40.7446 91.574 40.3043 91.1908 39.5266 90.1293C38.4896 87.8782 39.012 87.0269 39.9636 85.5177Z" fill="#4965E0" stroke="black" stroke-width="0.184455"/>
<path d="M40.365 87.9546C41.0319 86.5562 41.6159 86.1642 42.6961 85.5369C42.7575 87.4999 42.5909 88.1345 42.1413 88.9242L41.1285 90.6776C40.4717 89.8003 40.2822 89.2362 40.365 87.9546Z" fill="#ECE0FF"/>
<path d="M40.5907 72.8819C39.4803 69.8508 38.6158 68.719 35.7417 69.6996C30.6487 72.5881 31.0439 74.8585 29.6222 78.4784C28.9301 81.2319 29.1226 82.6502 30.9146 85.0476C31.7369 87.6782 32.5266 88.9069 34.6069 90.3854C38.0518 86.2172 38.9514 84.265 40.4606 80.8058C41.7647 77.8692 41.3908 76.0826 40.5907 72.8819Z" fill="#14000C"/>
<path d="M39.444 74.1028C38.5023 71.532 37.769 70.572 35.3314 71.4038C31.0119 73.8536 31.3471 75.7792 30.1412 78.8493C29.5543 81.1847 29.7175 82.3876 31.2374 84.4209C31.9348 86.652 32.6045 87.6941 34.369 88.9481C37.2907 85.4129 38.0536 83.7571 39.3336 80.8233C40.4397 78.3327 40.1226 76.8174 39.444 74.1028Z" fill="#E4A10A"/>
<path d="M33.6926 74.6332C35.3106 72.5848 36.0018 73.4279 37.2039 75.2229C37.9438 76.4443 38.027 77.4638 37.9837 79.4842C37.3659 84.4778 35.8692 86.5802 33.9405 84.7648C33.0702 83.4674 32.6076 82.6337 31.8937 80.6348C31.1661 76.8263 32.0654 76.0288 33.6926 74.6332Z" fill="black" stroke="black" stroke-width="0.213352"/>
<path d="M33.9476 75.786C35.1659 74.2437 35.6863 74.8784 36.5914 76.23C37.1485 77.1496 37.2112 77.9172 37.1786 79.4385C36.7134 83.1983 35.5865 84.7814 34.1343 83.4145C33.479 82.4376 33.1307 81.8099 32.5932 80.3048C32.0453 77.4372 32.7224 76.8368 33.9476 75.786Z" fill="#4965E0" stroke="black" stroke-width="0.213352"/>
<path d="M33.6664 77.4505C34.4007 76.5895 34.9105 76.5145 35.8378 76.4557C35.5708 78.0822 35.3417 78.5299 34.8712 78.9855L33.8153 79.991C33.4528 79.0003 33.398 78.4609 33.6664 77.4505Z" fill="#ECE0FF"/>
<path d="M34.6481 80.7721L36.1562 79.3359L35.5365 81.8927L34.8578 82.539L34.9187 81.7659L34.6481 80.7721Z" fill="#FEDEFF"/>
<path d="M37.3016 61.8674C36.2648 58.5147 35.3168 57.242 31.6219 58.1767C24.9427 61.0863 25.1752 63.5773 22.9883 67.4537C21.8103 70.4205 21.8877 71.9741 23.8467 74.6681C24.5704 77.5712 25.4139 78.946 27.8377 80.6527C32.6092 76.2729 33.9542 74.1885 36.2316 70.4912C38.1936 67.3535 37.9322 65.3903 37.3016 61.8674Z" fill="#14000C"/>
<path d="M35.7352 63.1459C34.8558 60.3023 34.0518 59.2229 30.918 60.0157C25.2531 62.4834 25.4504 64.5961 23.5956 67.8838C22.5964 70.4 22.6621 71.7177 24.3236 74.0026C24.9373 76.4648 25.6528 77.6308 27.7085 79.0783C31.7554 75.3637 32.8961 73.5958 34.8277 70.46C36.4917 67.7988 36.27 66.1338 35.7352 63.1459Z" fill="#E4A10A"/>
<path d="M28.5033 63.4675C30.7549 61.3117 31.5198 62.2619 32.8126 64.2727C33.5949 65.6372 33.5819 66.7513 33.2964 68.9498C31.9543 74.3595 29.8477 76.5798 27.6517 74.5132C26.7155 73.0599 26.2344 72.1305 25.5736 69.9204C25.1028 65.7389 26.3152 64.912 28.5033 63.4675Z" fill="black" stroke="black" stroke-width="0.226153"/>
<path d="M28.7018 64.7382C30.3971 63.115 30.9731 63.8304 31.9464 65.3444C32.5355 66.3718 32.5257 67.2106 32.3107 68.8659C31.3002 72.9392 29.7141 74.611 28.0606 73.0549C27.3557 71.9607 26.9934 71.2608 26.4959 69.5968C26.1414 66.4483 27.0543 65.8258 28.7018 64.7382Z" fill="#4965E0" stroke="black" stroke-width="0.226153"/>
<path d="M28.1479 66.5306C29.1618 65.6269 29.8059 65.5689 30.9685 65.5478C30.4494 67.3069 30.1126 67.7838 29.4739 68.2582L28.0425 69.3044C27.7042 68.2086 27.6976 67.6185 28.1479 66.5306Z" fill="#ECE0FF"/>
<path d="M28.9903 70.1976L31.0352 68.7031L29.9695 71.4595L29.0493 72.132L29.2138 71.2927L28.9903 70.1976Z" fill="#FEDEFF"/>
<path d="M13.8535 43.9914C13.4974 47.1857 13.8056 48.7276 17.0917 50.2033C23.4632 51.9327 24.158 49.8788 27.278 48.1965C29.2693 46.6145 29.7567 45.3737 29.1423 42.1383C29.59 39.4758 29.4013 37.9174 28.066 35.1653C22.7006 35.6996 20.8878 36.5038 17.7587 37.9947C15.0799 39.2425 14.5948 40.9075 13.8535 43.9914Z" fill="#14000C"/>
<path d="M15.5646 43.9309C15.2626 46.6401 15.524 47.9478 18.311 49.1994C23.7149 50.6661 24.3042 48.9242 26.9504 47.4973C28.6393 46.1557 29.0527 45.1033 28.5316 42.3592C28.9112 40.101 28.7512 38.7793 27.6187 36.4451C23.0681 36.8983 21.5306 37.5804 18.8767 38.8448C16.6047 39.9031 16.1933 41.3153 15.5646 43.9309Z" fill="#E4A10A"/>
<path d="M21.4575 47.9876C18.8942 48.3083 18.6183 47.1232 18.2952 44.8089C18.1519 43.2949 18.5563 42.4458 19.562 40.9246C22.5483 37.5612 25.0185 37.1048 26.0444 39.9985C26.2793 41.6722 26.3355 42.6728 26.0827 44.765C24.9807 48.2605 23.7185 48.1763 21.4575 47.9876Z" fill="black" stroke="black" stroke-width="0.205438"/>
<path d="M21.7508 46.8892C19.8208 47.1306 19.6131 46.2383 19.3698 44.4958C19.2619 43.3559 19.5664 42.7165 20.3236 41.5711C22.5722 39.0387 24.4321 38.6951 25.2045 40.8739C25.3814 42.1341 25.4237 42.8875 25.2333 44.4628C24.4036 47.0947 23.4533 47.0313 21.7508 46.8892Z" fill="#4965E0" stroke="black" stroke-width="0.205438"/>
<path d="M22.8232 45.8322C21.6927 45.925 21.157 45.587 20.2196 44.9127C21.2568 43.8682 21.6949 43.7015 22.3735 43.716L23.8884 43.7616C23.7715 44.8052 23.5682 45.263 22.8232 45.8322Z" fill="#ECE0FF"/>
<path d="M10.6974 34.7611C10.1987 37.2379 10.3393 38.4879 12.8484 40.0238C17.79 42.1099 18.4804 40.5703 21.0711 39.5988C22.759 38.5783 23.2298 37.6558 22.9606 35.0365C23.496 32.9892 23.4515 31.7398 22.5774 29.4194C18.2816 29.2313 16.788 29.6593 14.203 30.4789C11.9919 31.158 11.4943 32.4151 10.6974 34.7611Z" fill="#14000C"/>
<path d="M12.0574 34.9071C11.6345 37.0077 11.7537 38.0679 13.8818 39.3706C18.0729 41.1399 18.6585 39.8341 20.8557 39.0101C22.2873 38.1446 22.6866 37.3622 22.4583 35.1406C22.9124 33.4043 22.8747 32.3446 22.1333 30.3766C18.4899 30.2171 17.2231 30.5801 15.0307 31.2752C13.1554 31.8512 12.7333 32.9173 12.0574 34.9071Z" fill="#E4A10A"/>
<path d="M16.4611 38.7721C14.4044 38.7338 14.2654 37.7686 14.1653 35.9082C14.1539 34.6989 14.5323 34.0757 15.4336 32.9911C18.0318 30.6797 20.0238 30.6005 20.6427 32.9973C20.7161 34.3429 20.6931 35.1377 20.3509 36.7577C19.2398 39.3872 18.2434 39.1775 16.4611 38.7721Z" fill="black" stroke="black" stroke-width="0.163487"/>
<path d="M16.7712 37.9376C15.2226 37.9088 15.118 37.182 15.0426 35.7813C15.034 34.8707 15.3189 34.4014 15.9975 33.5848C17.9539 31.8445 19.4536 31.7848 19.9197 33.5895C19.9749 34.6026 19.9576 35.2011 19.7 36.4209C18.8634 38.4007 18.1132 38.2429 16.7712 37.9376Z" fill="#4965E0" stroke="black" stroke-width="0.163487"/>
<path d="M17.6905 37.2411C16.7869 37.1859 16.3845 36.8588 15.686 36.2212C16.5798 35.516 16.9388 35.4344 17.4765 35.5228L18.6758 35.7307C18.5126 36.5397 18.3202 36.8772 17.6905 37.2411Z" fill="#ECE0FF"/>
<path d="M7.7505 29.3958C7.47551 31.0296 7.59207 31.8409 9.2566 32.7591C12.516 33.9546 12.9346 32.9262 14.602 32.2046C15.6805 31.4815 15.9685 30.8634 15.7408 29.1624C16.0483 27.8078 15.9943 26.9936 15.3786 25.5082C12.5778 25.5301 11.6139 25.8598 9.94719 26.482C8.52114 26.9999 8.22233 27.8373 7.7505 29.3958Z" fill="#14000C"/>
<path d="M8.6457 29.4561C8.41248 30.8418 8.51134 31.5299 9.92308 32.3087C12.6875 33.3226 13.0425 32.4504 14.4567 31.8384C15.3714 31.2251 15.6157 30.7008 15.4225 29.2582C15.6833 28.1093 15.6375 27.4187 15.1154 26.1589C12.7399 26.1775 11.9224 26.4571 10.5088 26.9848C9.29931 27.424 9.04588 28.1343 8.6457 29.4561Z" fill="#E4A10A"/>
<path d="M11.5858 31.8392C10.2459 31.8834 10.136 31.258 10.0335 30.0468C10.0018 29.2576 10.2357 28.838 10.8008 28.0996C12.4462 26.503 13.7416 26.3842 14.1926 27.9281C14.2674 28.8041 14.2684 29.3238 14.0781 30.393C13.4073 32.1471 12.7544 32.0438 11.5858 31.8392Z" fill="black" stroke="black" stroke-width="0.106676"/>
<path d="M11.7705 31.2841C10.7615 31.3175 10.6788 30.8465 10.6016 29.9344C10.5777 29.3402 10.7539 29.0242 11.1794 28.4681C12.4184 27.2659 13.3939 27.1764 13.7335 28.339C13.7898 28.9987 13.7906 29.39 13.6473 30.1951C13.1422 31.516 12.6505 31.4382 11.7705 31.2841Z" fill="#4965E0" stroke="black" stroke-width="0.106676"/>
<path d="M12.3582 30.7821C11.7687 30.7765 11.5002 30.5765 11.0326 30.1838C11.6005 29.6933 11.8326 29.6279 12.1844 29.6675L12.9695 29.7628C12.8794 30.2965 12.7609 30.5233 12.3582 30.7821Z" fill="#ECE0FF"/>
<path d="M5.91097 26.1496C5.70406 27.2538 5.77352 27.8073 6.89484 28.465C9.09783 29.3435 9.39513 28.6535 10.5383 28.1973C11.2808 27.7281 11.4843 27.3141 11.35 26.154C11.5756 25.24 11.5487 24.6859 11.1479 23.6643C9.24212 23.6221 8.58232 23.8264 7.44084 24.2151C6.46435 24.5378 6.25089 25.1006 5.91097 26.1496Z" fill="#14000C"/>
<path d="M6.5179 26.2061C6.34242 27.1426 6.40133 27.6121 7.35236 28.1699C9.22079 28.915 9.47294 28.3297 10.4425 27.9428C11.0723 27.5449 11.2448 27.1937 11.1309 26.2098C11.3223 25.4347 11.2995 24.9647 10.9595 24.0982C9.34317 24.0625 8.78356 24.2358 7.81544 24.5654C6.98724 24.8391 6.8062 25.3164 6.5179 26.2061Z" fill="#E4A10A"/>
<path d="M8.48929 27.8762C7.57703 27.8789 7.50989 27.4518 7.45485 26.6268C7.44285 26.09 7.6071 25.8097 8.00054 25.3196C9.1395 24.2685 10.0224 24.2141 10.3105 25.2722C10.3508 25.8689 10.3451 26.222 10.2027 26.9445C9.725 28.1225 9.28197 28.039 8.48929 27.8762Z" fill="black" stroke="black" stroke-width="0.0725397"/>
<path d="M8.62397 27.5052C7.93724 27.5072 7.8867 27.1857 7.84527 26.5647C7.83623 26.1606 7.95988 25.9496 8.25606 25.5806C9.11344 24.7894 9.77803 24.7485 9.99497 25.545C10.0253 25.9941 10.021 26.2599 9.91378 26.8038C9.55419 27.6906 9.22069 27.6278 8.62397 27.5052Z" fill="#4965E0" stroke="black" stroke-width="0.0725397"/>
<path d="M59.5224 81.5393C64.2917 81.4519 66.3901 80.2437 67.1299 71.8235C66.9277 55.8346 63.6637 54.7596 59.9081 47.6841C56.7764 43.3196 54.7757 42.5059 50.3586 44.9624C46.3193 44.6689 44.1464 45.5916 40.7337 49.6547C43.7819 62.5255 45.7136 66.6883 49.1962 73.843C52.1364 79.9766 54.7494 80.6584 59.5224 81.5393Z" fill="#14000C"/>
<path d="M58.7099 77.3913C62.7549 77.3173 64.5346 76.2926 65.162 69.1511C64.9906 55.5903 62.2222 54.6786 59.037 48.6776C56.3809 44.9759 54.684 44.2858 50.9377 46.3693C47.5119 46.1203 45.669 46.9029 42.7746 50.349C45.3598 61.2651 46.9982 64.7957 49.9519 70.8639C52.4456 76.066 54.6618 76.6442 58.7099 77.3913Z" fill="#E4A10A"/>
<path d="M62.0773 61.8657C63.6282 67.9951 62.0318 69.0184 58.823 70.4929C56.6948 71.2922 55.2957 70.5633 52.6698 68.5744C46.5405 62.3244 44.833 56.4617 48.5815 53.1077C50.9016 52.0383 52.3244 51.6034 55.4565 51.5939C60.9776 53.2282 61.3912 56.3184 62.0773 61.8657Z" fill="black" stroke="black" stroke-width="0.391817"/>
<path d="M60.3745 61.4899C61.5421 66.1051 60.3402 66.8755 57.9241 67.9857C56.3217 68.5876 55.2683 68.0387 53.2911 66.5412C48.6761 61.8353 47.3904 57.4211 50.2129 54.8957C51.9598 54.0905 53.0311 53.7631 55.3894 53.7559C59.5464 54.9864 59.8578 57.3132 60.3745 61.4899Z" fill="#4965E0" stroke="black" stroke-width="0.391817"/>
<path d="M56.4568 59.4608C57.0704 62.1782 56.809 63.5797 56.2318 66.057C54.282 63.8497 53.8552 62.8357 53.5883 61.1835L53.0118 57.4915C54.5701 57.4641 55.318 57.8215 56.4568 59.4608Z" fill="#ECE0FF"/>
<path d="M101.475 114.255C104.62 114.198 106.004 113.401 106.492 107.848C106.359 97.3039 104.206 96.595 101.729 91.9289C99.664 89.0506 98.3446 88.514 95.4317 90.134C92.7679 89.9404 91.3349 90.5489 89.0844 93.2285C91.0945 101.716 92.3684 104.462 94.6651 109.18C96.6041 113.225 98.3273 113.675 101.475 114.255Z" fill="#14000C"/>
<path d="M100.937 111.529C103.605 111.48 104.778 110.804 105.192 106.094C105.079 97.1514 103.253 96.5501 101.153 92.5927C99.4011 90.1515 98.2821 89.6964 95.8116 91.0704C93.5523 90.9062 92.3369 91.4223 90.4282 93.6949C92.1331 100.894 93.2135 103.222 95.1614 107.224C96.8059 110.655 98.2674 111.036 100.937 111.529Z" fill="#E4A10A"/>
<path d="M103.161 101.286C104.184 105.328 103.131 106.003 101.015 106.975C99.6116 107.503 98.689 107.022 96.9573 105.71C92.9152 101.589 91.7891 97.7223 94.2611 95.5104C95.7912 94.8051 96.7295 94.5184 98.795 94.5121C102.436 95.5898 102.709 97.6278 103.161 101.286Z" fill="black" stroke="black" stroke-width="0.258392"/>
<path d="M102.035 101.037C102.805 104.081 102.013 104.589 100.419 105.321C99.3627 105.718 98.668 105.356 97.3641 104.369C94.3207 101.265 93.4728 98.3542 95.3341 96.6888C96.4862 96.1578 97.1926 95.9419 98.7479 95.9371C101.489 96.7486 101.695 98.283 102.035 101.037Z" fill="#4965E0" stroke="black" stroke-width="0.258392"/>
<path d="M99.4551 99.6912C99.8598 101.483 99.6874 102.408 99.3068 104.041C98.0209 102.586 97.7395 101.917 97.5635 100.827L97.1833 98.3925C98.2109 98.3745 98.7041 98.6102 99.4551 99.6912Z" fill="#ECE0FF"/>
<path d="M82.6158 95.4596C86.1163 95.3955 87.6565 94.5088 88.1994 88.3286C88.051 76.5932 85.6553 75.8042 82.8988 70.611C80.6003 67.4076 79.1318 66.8103 75.8898 68.6134C72.9251 68.3979 71.3303 69.0752 68.8255 72.0574C71.0628 81.5041 72.4806 84.5595 75.0367 89.8108C77.1947 94.3127 79.1126 94.8131 82.6158 95.4596Z" fill="#14000C"/>
<path d="M82.0191 92.4312C84.9879 92.3768 86.2942 91.6247 86.7547 86.3831C86.6289 76.4299 84.597 75.7607 82.2591 71.3562C80.3096 68.6393 79.0642 68.1327 76.3145 69.662C73.8001 69.4792 72.4474 70.0536 70.323 72.5829C72.2205 80.595 73.423 83.1864 75.5909 87.6402C77.4212 91.4584 79.0478 91.8828 82.0191 92.4312Z" fill="#E4A10A"/>
<path d="M84.4931 81.0263C85.6314 85.5251 84.4597 86.2762 82.1045 87.3584C80.5425 87.9451 79.5156 87.4101 77.5883 85.9503C73.0896 81.363 71.8363 77.06 74.5876 74.5982C76.2905 73.8133 77.3348 73.4942 79.6336 73.4871C83.6859 74.6866 83.9895 76.9548 84.4931 81.0263Z" fill="black" stroke="black" stroke-width="0.287581"/>
<path d="M83.2391 80.7473C84.0961 84.1346 83.2139 84.7001 81.4406 85.515C80.2645 85.9567 79.4913 85.5539 78.0401 84.4547C74.6529 81.0008 73.7092 77.7609 75.7808 75.9073C77.063 75.3163 77.8493 75.076 79.5802 75.0707C82.6313 75.9739 82.8599 77.6817 83.2391 80.7473Z" fill="#4965E0" stroke="black" stroke-width="0.287581"/>
<path d="M80.363 79.2516C80.8133 81.2461 80.6215 82.2748 80.1979 84.0931C78.7667 82.473 78.4535 81.7287 78.2576 80.516L77.8345 77.8062C78.9782 77.7861 79.5271 78.0484 80.363 79.2516Z" fill="#ECE0FF"/>
<path d="M238.396 53.0062C239.271 49.3181 240.196 47.853 244.215 48.4137C251.563 50.7248 251.489 53.4018 254.099 57.2686C255.567 60.2861 255.593 61.9478 253.685 65.0435C253.114 68.2166 252.307 69.778 249.833 71.878C244.423 67.7791 242.838 65.7197 240.143 62.054C237.825 58.9466 237.968 56.8277 238.396 53.0062Z" fill="#14000C"/>
<path d="M240.157 54.1879C240.899 51.0599 241.684 49.8173 245.092 50.2928C251.325 52.2529 251.262 54.5234 253.476 57.8029C254.72 60.3622 254.742 61.7716 253.124 64.3971C252.64 67.0883 251.956 68.4126 249.858 70.1937C245.269 66.7173 243.925 64.9706 241.639 61.8616C239.673 59.2261 239.794 57.429 240.157 54.1879Z" fill="#E4A10A"/>
<path d="M247.923 53.6631C245.364 51.6342 244.612 52.7347 243.369 55.0254C242.628 56.5686 242.719 57.7523 243.178 60.0573C244.992 65.6543 247.401 67.7689 249.606 65.3128C250.506 63.657 250.956 62.6119 251.508 60.1834C251.72 55.6801 250.365 54.9428 247.923 53.6631Z" fill="black" stroke="black" stroke-width="0.242123"/>
<path d="M247.803 55.0464C245.876 53.5187 245.309 54.3473 244.374 56.072C243.815 57.234 243.885 58.1252 244.23 59.8608C245.596 64.075 247.41 65.6672 249.07 63.8179C249.747 62.5712 250.086 61.7842 250.502 59.9557C250.661 56.565 249.641 56.0099 247.803 55.0464Z" fill="#4965E0" stroke="black" stroke-width="0.242123"/>
<path d="M248.513 56.8912C247.365 56.0489 246.672 56.0628 245.427 56.1768C246.105 57.9871 246.499 58.4549 247.215 58.8846L248.82 59.8294C249.105 58.6241 249.071 57.9956 248.513 56.8912Z" fill="#ECE0FF"/>
<path d="M247.874 60.8809L245.582 59.5312L246.915 62.3382L247.946 62.9456L247.712 62.0721L247.874 60.8809Z" fill="#FEDEFF"/>
<path d="M206.539 90.631C208.642 90.0802 209.653 90.3444 210.596 93.8994C211.682 100.848 210.327 101.717 209.196 105.244C208.141 107.521 207.321 108.12 205.2 107.601C203.446 108.227 202.424 108.096 200.625 106.757C201.019 100.807 201.562 98.7664 202.567 95.2383C203.408 92.2193 204.507 91.6016 206.539 90.631Z" fill="#14000C"/>
<path d="M206.481 92.5293C208.264 92.0622 209.121 92.2863 209.921 95.3014C210.842 101.195 209.693 101.931 208.734 104.923C207.839 106.854 207.144 107.362 205.344 106.922C203.857 107.453 202.99 107.342 201.465 106.207C201.799 101.16 202.259 99.4292 203.111 96.4369C203.825 93.8764 204.756 93.3525 206.481 92.5293Z" fill="#E4A10A"/>
<path d="M209.104 98.8321C209.336 95.9864 208.559 95.7403 207.04 95.4978C206.046 95.4143 205.485 95.9027 204.477 97.0881C202.243 100.551 201.923 103.301 203.817 104.29C204.915 104.467 205.573 104.48 206.95 104.097C209.256 102.708 209.211 101.319 209.104 98.8321Z" fill="black" stroke="black" stroke-width="0.174949"/>
<path d="M208.381 99.2125C208.555 97.0698 207.97 96.8845 206.827 96.7019C206.079 96.6391 205.656 97.0068 204.897 97.8993C203.215 100.507 202.974 102.577 204.4 103.322C205.227 103.455 205.722 103.465 206.759 103.177C208.495 102.131 208.461 101.085 208.381 99.2125Z" fill="#4965E0" stroke="black" stroke-width="0.174949"/>
<path d="M207.681 100.45C207.751 99.1975 207.533 98.6228 207.097 97.6211C206.402 98.8178 206.289 99.3096 206.293 100.058L206.311 101.728C206.998 101.548 207.301 101.301 207.681 100.45Z" fill="#ECE0FF"/>
<path d="M205.494 101.308L205.469 98.9219L204.477 101.012L204.489 102.086L204.852 101.586L205.494 101.308Z" fill="#FEDEFF"/>
<path d="M212.96 89.868C214.762 88.5859 215.747 88.4436 217.405 91.2766C219.951 97.0988 218.904 98.3855 218.656 101.972C218.197 104.408 217.581 105.253 215.522 105.584C214.055 106.802 213.089 107.068 211.143 106.542C210.176 101.061 210.217 99.0275 210.35 95.4879C210.447 92.4659 211.315 91.5004 212.96 89.868Z" fill="#14000C"/>
<path d="M213.335 91.5786C214.864 90.4912 215.699 90.3705 217.105 92.7733C219.265 97.7112 218.376 98.8026 218.166 101.844C217.777 103.911 217.254 104.627 215.508 104.908C214.264 105.941 213.445 106.166 211.794 105.721C210.974 101.072 211.009 99.3471 211.122 96.345C211.204 93.782 211.94 92.963 213.335 91.5786Z" fill="#E4A10A"/>
<path d="M217.146 96.257C216.722 93.6192 215.956 93.6899 214.511 94.0419C213.582 94.3398 213.177 94.9881 212.519 96.4287C211.245 100.371 211.566 102.956 213.522 103.133C214.567 102.879 215.172 102.644 216.348 101.785C218.15 99.675 217.798 98.4466 217.146 96.257Z" fill="black" stroke="black" stroke-width="0.166415"/>
<path d="M216.57 96.8504C216.251 94.8643 215.674 94.9175 214.586 95.1826C213.886 95.4069 213.581 95.895 213.086 96.9796C212.127 99.948 212.369 101.894 213.841 102.028C214.628 101.837 215.083 101.66 215.969 101.013C217.326 99.424 217.061 98.499 216.57 96.8504Z" fill="#4965E0" stroke="black" stroke-width="0.166415"/>
<path d="M215.261 98.9222C215.045 97.773 214.717 97.3395 214.094 96.6049C213.725 97.9382 213.731 98.4216 213.902 99.091L214.292 100.582C214.88 100.162 215.102 99.8272 215.261 98.9222Z" fill="#ECE0FF"/>
<path d="M219.796 87.5932C221.38 86.2449 222.278 86.0189 223.967 88.4488C226.646 93.5265 225.757 94.8056 225.737 98.1101C225.457 100.384 224.938 101.216 223.064 101.719C221.786 102.977 220.912 103.314 219.092 103.023C217.884 98.1028 217.805 96.2387 217.722 92.9881C217.635 90.2144 218.378 89.2466 219.796 87.5932Z" fill="#14000C"/>
<path d="M220.243 89.1235C221.586 87.98 222.347 87.7883 223.78 89.8492C226.053 94.1558 225.299 95.2406 225.281 98.0433C225.044 99.9715 224.604 100.678 223.014 101.104C221.93 102.171 221.189 102.457 219.646 102.21C218.621 98.0371 218.554 96.4561 218.483 93.6991C218.41 91.3466 219.04 90.5258 220.243 89.1235Z" fill="#E4A10A"/>
<path d="M224.012 93.0246C223.47 90.653 222.769 90.7923 221.46 91.255C220.623 91.618 220.288 92.2504 219.766 93.6322C218.823 97.3624 219.268 99.6954 221.077 99.667C222.024 99.3335 222.567 99.0595 223.599 98.1591C225.134 96.0534 224.739 94.9639 224.012 93.0246Z" fill="black" stroke="black" stroke-width="0.153155"/>
<path d="M223.52 93.6477C223.111 91.8621 222.583 91.9669 221.598 92.3153C220.968 92.5886 220.715 93.0648 220.322 94.1053C219.613 96.9138 219.948 98.6705 221.31 98.6491C222.023 98.398 222.431 98.1917 223.208 97.5137C224.364 95.9282 224.067 95.108 223.52 93.6477Z" fill="#4965E0" stroke="black" stroke-width="0.153155"/>
<path d="M223.267 94.9371C223.002 93.9069 222.675 93.5423 222.06 92.931C221.798 94.1866 221.832 94.6281 222.028 95.2238L222.472 96.5493C222.989 96.1083 223.174 95.7804 223.267 94.9371Z" fill="#ECE0FF"/>
<path d="M221.686 96.5494L221.051 94.6562L220.775 96.7533L221.06 97.6052L221.23 97.0492L221.686 96.5494Z" fill="#FEDEFF"/>
<path d="M225.677 82.4501C227.269 80.3255 228.284 79.7482 230.788 81.9871C235.015 86.9633 234.23 88.7641 234.895 92.6198C235.036 95.3659 234.597 96.5169 232.484 97.7587C231.234 99.6704 230.272 100.369 228.058 100.667C225.605 95.3592 225.122 93.2161 224.347 89.4593C223.667 86.259 224.343 84.8721 225.677 82.4501Z" fill="#14000C"/>
<path d="M226.521 84.0681C227.871 82.2662 228.732 81.7765 230.856 83.6754C234.441 87.8959 233.775 89.4232 234.339 92.6934C234.459 95.0224 234.086 95.9986 232.295 97.0519C231.235 98.6732 230.418 99.2654 228.541 99.518C226.46 95.0168 226.051 93.1991 225.393 90.0128C224.816 87.2986 225.39 86.1223 226.521 84.0681Z" fill="#E4A10A"/>
<path d="M231.795 87.3064C230.659 84.7341 229.859 85.1416 228.408 86.1384C227.493 86.8541 227.228 87.708 226.899 89.5C226.561 94.1742 227.573 96.7357 229.707 96.0696C230.757 95.3498 231.342 94.8409 232.375 93.4311C233.752 90.4414 233.059 89.3107 231.795 87.3064Z" fill="black" stroke="black" stroke-width="0.184455"/>
<path d="M231.341 88.2052C230.486 86.2685 229.884 86.5752 228.791 87.3258C228.102 87.8647 227.903 88.5076 227.655 89.8569C227.4 93.3763 228.163 95.3049 229.769 94.8034C230.56 94.2615 231 93.8783 231.778 92.8168C232.815 90.5657 232.293 89.7144 231.341 88.2052Z" fill="#4965E0" stroke="black" stroke-width="0.184455"/>
<path d="M230.944 90.6343C230.277 89.2359 229.693 88.8439 228.613 88.2166C228.551 90.1796 228.718 90.8141 229.167 91.6039L230.18 93.3573C230.837 92.48 231.026 91.9159 230.944 90.6343Z" fill="#ECE0FF"/>
<path d="M230.706 75.5382C231.817 72.507 232.681 71.3752 235.555 72.3559C240.648 75.2444 240.253 77.5148 241.675 81.1346C242.367 83.8882 242.174 85.3065 240.382 87.7038C239.56 90.3345 238.77 91.5631 236.69 93.0417C233.245 88.8735 232.345 86.9212 230.836 83.4621C229.532 80.5255 229.906 78.7389 230.706 75.5382Z" fill="#14000C"/>
<path d="M231.857 76.7747C232.799 74.2038 233.532 73.2439 235.969 74.0757C240.289 76.5255 239.954 78.4511 241.16 81.5212C241.747 83.8566 241.583 85.0595 240.063 87.0928C239.366 89.3239 238.696 90.366 236.932 91.62C234.01 88.0848 233.247 86.429 231.967 83.4952C230.861 81.0046 231.178 79.4893 231.857 76.7747Z" fill="#E4A10A"/>
<path d="M237.612 77.3051C235.994 75.2567 235.303 76.0997 234.101 77.8948C233.361 79.1162 233.278 80.1356 233.321 82.1561C233.939 87.1496 235.436 89.2521 237.364 87.4367C238.234 86.1393 238.697 85.3056 239.411 83.3067C240.139 79.4982 239.239 78.7007 237.612 77.3051Z" fill="black" stroke="black" stroke-width="0.213352"/>
<path d="M237.349 78.4578C236.131 76.9155 235.611 77.5503 234.705 78.9019C234.148 79.8215 234.086 80.5891 234.118 82.1104C234.583 85.8702 235.71 87.4532 237.163 86.0863C237.818 85.1095 238.166 84.4817 238.704 82.9767C239.252 80.1091 238.574 79.5086 237.349 78.4578Z" fill="#4965E0" stroke="black" stroke-width="0.213352"/>
<path d="M237.634 80.1302C236.9 79.2692 236.39 79.1942 235.463 79.1353C235.73 80.7619 235.959 81.2096 236.43 81.6652L237.485 82.6707C237.848 81.68 237.903 81.1406 237.634 80.1302Z" fill="#ECE0FF"/>
<path d="M236.653 83.444L235.145 82.0078L235.764 84.5646L236.443 85.2108L236.382 84.4378L236.653 83.444Z" fill="#FEDEFF"/>
<path d="M233.999 64.5315C235.036 61.1788 235.984 59.906 239.679 60.8408C246.358 63.7504 246.126 66.2414 248.312 70.1178C249.491 73.0845 249.413 74.6381 247.454 77.3321C246.73 80.2353 245.887 81.61 243.463 83.3168C238.692 78.937 237.347 76.8526 235.069 73.1552C233.107 70.0175 233.369 68.0544 233.999 64.5315Z" fill="#14000C"/>
<path d="M235.57 65.8256C236.449 62.982 237.253 61.9026 240.387 62.6954C246.052 65.1631 245.854 67.2758 247.709 70.5635C248.708 73.0797 248.643 74.3974 246.981 76.6823C246.367 79.1445 245.652 80.3105 243.596 81.758C239.549 78.0434 238.409 76.2755 236.477 73.1397C234.813 70.4785 235.035 68.8135 235.57 65.8256Z" fill="#E4A10A"/>
<path d="M242.797 66.1394C240.546 63.9836 239.781 64.9338 238.488 66.9445C237.706 68.309 237.719 69.4232 238.004 71.6216C239.346 77.0314 241.453 79.2517 243.649 77.1851C244.585 75.7318 245.066 74.8023 245.727 72.5923C246.198 68.4107 244.986 67.5839 242.797 66.1394Z" fill="black" stroke="black" stroke-width="0.226153"/>
<path d="M242.603 67.3944C240.908 65.7712 240.332 66.4866 239.358 68.0006C238.769 69.028 238.779 69.8669 238.994 71.5222C240.005 75.5954 241.591 77.2672 243.244 75.7112C243.949 74.6169 244.311 73.9171 244.809 72.253C245.163 69.1046 244.25 68.482 242.603 67.3944Z" fill="#4965E0" stroke="black" stroke-width="0.226153"/>
<path d="M243.149 69.2024C242.135 68.2988 241.491 68.2408 240.328 68.2197C240.847 69.9788 241.184 70.4557 241.823 70.9301L243.254 71.9762C243.593 70.8805 243.599 70.2904 243.149 69.2024Z" fill="#ECE0FF"/>
<path d="M242.307 72.8538L240.262 71.3594L241.327 74.1158L242.248 74.7883L242.083 73.949L242.307 72.8538Z" fill="#FEDEFF"/>
<path d="M257.447 46.6633C257.803 49.8576 257.495 51.3994 254.209 52.8751C247.838 54.6045 247.143 52.5507 244.023 50.8683C242.031 49.2864 241.544 48.0456 242.158 44.8101C241.711 42.1476 241.899 40.5893 243.235 37.8371C248.6 38.3714 250.413 39.1757 253.542 40.6665C256.221 41.9143 256.706 43.5794 257.447 46.6633Z" fill="#14000C"/>
<path d="M255.736 46.6027C256.038 49.312 255.777 50.6196 252.99 51.8712C247.586 53.338 246.997 51.5961 244.35 50.1692C242.661 48.8275 242.248 47.7751 242.769 45.031C242.39 42.7729 242.55 41.4512 243.682 39.117C248.233 39.5702 249.77 40.2523 252.424 41.5167C254.696 42.575 255.107 43.9872 255.736 46.6027Z" fill="#E4A10A"/>
<path d="M249.843 50.6595C252.407 50.9801 252.683 49.7951 253.006 47.4808C253.149 45.9668 252.745 45.1177 251.739 43.5964C248.752 40.2331 246.282 39.7767 245.256 42.6704C245.021 44.3441 244.965 45.3447 245.218 47.4369C246.32 50.9324 247.582 50.8482 249.843 50.6595Z" fill="black" stroke="black" stroke-width="0.205438"/>
<path d="M249.55 49.5767C251.48 49.8181 251.688 48.9258 251.931 47.1833C252.039 46.0434 251.734 45.404 250.977 44.2586C248.729 41.7262 246.869 41.3826 246.096 43.5614C245.919 44.8216 245.877 45.575 246.067 47.1503C246.897 49.7822 247.848 49.7188 249.55 49.5767Z" fill="#4965E0" stroke="black" stroke-width="0.205438"/>
<path d="M248.474 48.5041C249.604 48.5969 250.14 48.2589 251.077 47.5846C250.04 46.5401 249.602 46.3734 248.923 46.3878L247.408 46.4334C247.525 47.4771 247.729 47.9348 248.474 48.5041Z" fill="#ECE0FF"/>
<path d="M260.607 37.433C261.106 39.9097 260.965 41.1597 258.456 42.6957C253.515 44.7818 252.824 43.2422 250.234 42.2707C248.546 41.2502 248.075 40.3277 248.344 37.7083C247.809 35.661 247.853 34.4116 248.727 32.0913C253.023 31.9032 254.517 32.3312 257.102 33.1507C259.313 33.8299 259.81 35.0869 260.607 37.433Z" fill="#14000C"/>
<path d="M259.247 37.5711C259.67 39.6718 259.551 40.7319 257.423 42.0346C253.232 43.804 252.646 42.4982 250.449 41.6742C249.017 40.8086 248.618 40.0263 248.846 37.8047C248.392 36.0683 248.43 35.0086 249.171 33.0407C252.815 32.8811 254.082 33.2441 256.274 33.9392C258.149 34.5153 258.571 35.5814 259.247 37.5711Z" fill="#E4A10A"/>
<path d="M254.844 41.444C256.9 41.4057 257.039 40.4405 257.139 38.5801C257.151 37.3707 256.772 36.7475 255.871 35.663C253.273 33.3516 251.281 33.2723 250.662 35.6691C250.589 37.0147 250.612 37.8096 250.954 39.4296C252.065 42.059 253.061 41.8494 254.844 41.444Z" fill="black" stroke="black" stroke-width="0.163487"/>
<path d="M254.534 40.6173C256.082 40.5884 256.187 39.8617 256.262 38.461C256.271 37.5504 255.986 37.0811 255.307 36.2645C253.351 34.5242 251.851 34.4645 251.385 36.2692C251.33 37.2823 251.347 37.8808 251.605 39.1006C252.441 41.0804 253.192 40.9226 254.534 40.6173Z" fill="#4965E0" stroke="black" stroke-width="0.163487"/>
<path d="M253.61 39.913C254.514 39.8578 254.916 39.5307 255.615 38.8931C254.721 38.1879 254.362 38.1062 253.824 38.1947L252.625 38.4025C252.788 39.2115 252.981 39.5491 253.61 39.913Z" fill="#ECE0FF"/>
<path d="M263.546 32.0833C263.821 33.7171 263.705 34.5284 262.04 35.4466C258.781 36.6421 258.362 35.6137 256.695 34.8921C255.616 34.169 255.328 33.5509 255.556 31.8499C255.249 30.4953 255.303 29.6811 255.918 28.1957C258.719 28.2176 259.683 28.5473 261.35 29.1695C262.776 29.6874 263.075 30.5248 263.546 32.0833Z" fill="#14000C"/>
<path d="M262.659 32.128C262.892 33.5136 262.793 34.2018 261.382 34.9805C258.617 35.9945 258.262 35.1222 256.848 34.5103C255.933 33.897 255.689 33.3727 255.882 31.93C255.621 30.7811 255.667 30.0906 256.189 28.8307C258.565 28.8493 259.382 29.129 260.796 29.6567C262.005 30.0959 262.259 30.8062 262.659 32.128Z" fill="#E4A10A"/>
<path d="M259.715 34.4954C261.055 34.5397 261.165 33.9142 261.267 32.703C261.299 31.9139 261.065 31.4943 260.5 30.7558C258.855 29.1593 257.559 29.0404 257.108 30.5844C257.033 31.4604 257.032 31.9801 257.223 33.0492C257.893 34.8033 258.546 34.7 259.715 34.4954Z" fill="black" stroke="black" stroke-width="0.106676"/>
<path d="M259.526 33.956C260.535 33.9894 260.618 33.5184 260.695 32.6063C260.719 32.012 260.543 31.6961 260.118 31.14C258.878 29.9377 257.903 29.8482 257.563 31.0109C257.507 31.6705 257.506 32.0619 257.65 32.867C258.155 34.1879 258.646 34.1101 259.526 33.956Z" fill="#4965E0" stroke="black" stroke-width="0.106676"/>
<path d="M258.946 33.454C259.536 33.4484 259.804 33.2484 260.272 32.8557C259.704 32.3651 259.472 32.2997 259.12 32.3394L258.335 32.4347C258.425 32.9683 258.544 33.1952 258.946 33.454Z" fill="#ECE0FF"/>
<path d="M265.386 28.8215C265.593 29.9257 265.523 30.4792 264.402 31.1369C262.199 32.0154 261.902 31.3253 260.759 30.8692C260.016 30.4 259.813 29.986 259.947 28.8258C259.721 27.9119 259.748 27.3577 260.149 26.3362C262.055 26.294 262.715 26.4983 263.856 26.887C264.833 27.2097 265.046 27.7725 265.386 28.8215Z" fill="#14000C"/>
<path d="M264.787 28.8702C264.962 29.8067 264.903 30.2762 263.952 30.834C262.084 31.579 261.832 30.9938 260.862 30.6069C260.232 30.2089 260.06 29.8578 260.174 28.8739C259.982 28.0987 260.005 27.6287 260.345 26.7623C261.962 26.7265 262.521 26.8998 263.489 27.2294C264.317 27.5032 264.498 27.9805 264.787 28.8702Z" fill="#E4A10A"/>
<path d="M262.808 30.548C263.72 30.5508 263.787 30.1236 263.842 29.2987C263.854 28.7619 263.69 28.4816 263.296 27.9914C262.157 26.9404 261.275 26.886 260.986 27.9441C260.946 28.5408 260.952 28.8939 261.094 29.6163C261.572 30.7944 262.015 30.7109 262.808 30.548Z" fill="black" stroke="black" stroke-width="0.0725397"/>
<path d="M262.677 30.177C263.364 30.1791 263.414 29.8576 263.456 29.2366C263.465 28.8325 263.341 28.6215 263.045 28.2525C262.187 27.4612 261.523 27.4203 261.306 28.2169C261.276 28.666 261.28 28.9318 261.387 29.4757C261.747 30.3625 262.08 30.2996 262.677 30.177Z" fill="#4965E0" stroke="black" stroke-width="0.0725397"/>
<path d="M211.782 84.2189C207.013 84.1316 204.915 82.9234 204.175 74.5032C204.377 58.5143 207.641 57.4392 211.397 50.3638C214.528 45.9993 216.529 45.1856 220.946 47.6421C224.985 47.3486 227.158 48.2713 230.571 52.3344C227.523 65.2052 225.591 69.368 222.108 76.5227C219.168 82.6563 216.555 83.3381 211.782 84.2189Z" fill="#14000C"/>
<path d="M212.595 80.0788C208.55 80.0048 206.77 78.9801 206.143 71.8386C206.314 58.2778 209.082 57.3661 212.268 51.3651C214.924 47.6634 216.621 46.9733 220.367 49.0568C223.793 48.8078 225.636 49.5904 228.53 53.0365C225.945 63.9526 224.307 67.4832 221.353 73.5514C218.859 78.7535 216.643 79.3317 212.595 80.0788Z" fill="#E4A10A"/>
<path d="M209.227 64.5532C207.677 70.6826 209.273 71.7059 212.482 73.1804C214.61 73.9797 216.009 73.2508 218.635 71.2619C224.764 65.0119 226.472 59.1492 222.723 55.7952C220.403 54.7258 218.98 54.2909 215.848 54.2814C210.327 55.9157 209.913 59.0059 209.227 64.5532Z" fill="black" stroke="black" stroke-width="0.391817"/>
<path d="M210.93 64.1696C209.763 68.7847 210.965 69.5552 213.381 70.6654C214.983 71.2673 216.036 70.7184 218.014 69.2209C222.629 64.515 223.914 60.1008 221.092 57.5754C219.345 56.7702 218.274 56.4428 215.915 56.4356C211.758 57.6661 211.447 59.9929 210.93 64.1696Z" fill="#4965E0" stroke="black" stroke-width="0.391817"/>
<path d="M214.848 62.1326C214.234 64.8501 214.496 66.2516 215.073 68.7289C217.023 66.5216 217.45 65.5076 217.716 63.8554L218.293 60.1634C216.735 60.136 215.987 60.4934 214.848 62.1326Z" fill="#ECE0FF"/>
<path d="M169.83 116.919C166.685 116.862 165.301 116.065 164.813 110.512C164.946 99.968 167.099 99.259 169.575 94.593C171.641 91.7147 172.96 91.1781 175.873 92.7981C178.537 92.6045 179.97 93.213 182.22 95.8925C180.21 104.38 178.936 107.126 176.64 111.844C174.701 115.889 172.977 116.339 169.83 116.919Z" fill="#14000C"/>
<path d="M170.364 114.2C167.696 114.152 166.522 113.476 166.109 108.766C166.222 99.8233 168.047 99.222 170.148 95.2646C171.9 92.8234 173.019 92.3683 175.489 93.7423C177.748 93.5781 178.964 94.0942 180.873 96.3668C179.168 103.566 178.087 105.894 176.139 109.896C174.495 113.326 173.033 113.708 170.364 114.2Z" fill="#E4A10A"/>
<path d="M168.143 103.966C167.121 108.008 168.173 108.683 170.29 109.655C171.693 110.182 172.616 109.702 174.347 108.39C178.39 104.268 179.516 100.402 177.044 98.1901C175.513 97.4848 174.575 97.1981 172.51 97.1917C168.869 98.2695 168.596 100.307 168.143 103.966Z" fill="black" stroke="black" stroke-width="0.258392"/>
<path d="M169.261 103.717C168.491 106.761 169.284 107.269 170.877 108.001C171.934 108.398 172.629 108.036 173.933 107.048C176.976 103.945 177.824 101.034 175.963 99.3685C174.811 98.8374 174.104 98.6215 172.549 98.6168C169.808 99.4283 169.602 100.963 169.261 103.717Z" fill="#4965E0" stroke="black" stroke-width="0.258392"/>
<path d="M171.853 102.363C171.449 104.155 171.621 105.079 172.002 106.713C173.288 105.257 173.569 104.589 173.745 103.499L174.125 101.064C173.098 101.046 172.604 101.282 171.853 102.363Z" fill="#ECE0FF"/>
<path d="M188.693 98.1315C185.192 98.0674 183.652 97.1806 183.109 91.0005C183.258 79.2651 185.653 78.476 188.41 73.2829C190.708 70.0795 192.177 69.4822 195.419 71.2853C198.383 71.0698 199.978 71.747 202.483 74.7292C200.246 84.176 198.828 87.2313 196.272 92.4827C194.114 96.9846 192.196 97.4849 188.693 98.1315Z" fill="#14000C"/>
<path d="M189.282 95.1031C186.313 95.0487 185.007 94.2966 184.546 89.055C184.672 79.1018 186.704 78.4326 189.042 74.0281C190.991 71.3112 192.237 70.8046 194.986 72.3338C197.501 72.1511 198.853 72.7255 200.978 75.2548C199.08 83.2669 197.878 85.8583 195.71 90.3121C193.88 94.1303 192.253 94.5547 189.282 95.1031Z" fill="#E4A10A"/>
<path d="M186.808 83.6982C185.669 88.197 186.841 88.948 189.196 90.0303C190.758 90.617 191.785 90.0819 193.712 88.6222C198.211 84.0349 199.464 79.7318 196.713 77.2701C195.01 76.4852 193.966 76.166 191.667 76.159C187.615 77.3585 187.311 79.6267 186.808 83.6982Z" fill="black" stroke="black" stroke-width="0.287581"/>
<path d="M188.066 83.4191C187.209 86.8065 188.091 87.372 189.864 88.1869C191.04 88.6286 191.813 88.2258 193.265 87.1266C196.652 83.6727 197.595 80.4327 195.524 78.5792C194.242 77.9882 193.455 77.7479 191.725 77.7426C188.673 78.6458 188.445 80.3535 188.066 83.4191Z" fill="#4965E0" stroke="black" stroke-width="0.287581"/>
<path d="M190.938 81.9235C190.487 83.918 190.679 84.9467 191.103 86.7649C192.534 85.1448 192.847 84.4006 193.043 83.1879L193.466 80.4781C192.323 80.458 191.774 80.7203 190.938 81.9235Z" fill="#ECE0FF"/>
</svg>
