<svg width="123" height="111" viewBox="0 0 123 111" fill="none" xmlns="http://www.w3.org/2000/svg">
<path d="M61.0375 44.7005L55.367 73.1341C55.4997 74.3688 55.6271 75.551 55.752 76.6867C52.3172 91.0364 50.3744 98.6749 46.7051 107.652C33.6284 111.785 26.4325 112.842 15.8166 94.4611C13.0187 84.5119 14.4397 78.8428 17.0477 73.1341C19.8714 63.0585 26.6148 58.8222 35.5136 53.6583C35.5136 53.6583 0.69643 52.4419 0.48425 17.1035C-0.718723 10.9066 0.144081 5.03867 5.07204 0.894123C14.8231 -4.38971 35.2571 14.8924 61.0375 44.7005Z" fill="#E4A10A"/>
<path d="M61.9625 44.6771L67.633 73.1107C67.5003 74.3453 67.3729 75.5276 67.248 76.6633C70.6828 91.0129 72.6256 98.6515 76.2949 107.629C89.3716 111.762 96.5675 112.819 107.183 94.4376C109.981 84.4885 108.56 78.8193 105.952 73.1107C103.129 63.0351 96.3852 58.7988 87.4864 53.6349C87.4864 53.6349 122.304 52.4184 122.516 17.0801C123.719 10.8832 122.856 5.01524 117.928 0.870686C108.177 -4.41315 87.7429 14.869 61.9625 44.6771Z" fill="#E4A10A"/>
<path d="M67.3714 69.8012C67.2105 87.5264 67.1926 97.6339 60.9151 100.976C57.3943 93.7003 56.1025 87.6925 54.9739 78.6081L59.8906 40.9765L60.1977 38.6264C58.8875 36.1584 57.9789 34.726 61.6324 33.6922C66.3351 33.0991 67.4728 34.0634 67.2749 37.9535L67.2835 40.7828L67.3714 69.8012Z" fill="#E4A10A"/>
<path d="M14.9193 22.91C14.6134 21.4437 14.29 20.8612 12.8853 21.0841C10.3162 22.0029 10.3424 23.0673 9.42979 24.6047C8.91673 25.8044 8.90775 26.4651 9.57459 27.6959C9.77431 28.9575 10.0562 29.5783 10.921 30.4132C12.8125 28.7836 13.3664 27.9648 14.3085 26.5073C15.1189 25.2719 15.0691 24.4294 14.9193 22.91Z" fill="#14000C"/>
<path d="M14.3052 23.3791C14.0457 22.1354 13.7714 21.6414 12.58 21.8304C10.4011 22.6098 10.4233 23.5125 9.64931 24.8164C9.21417 25.8339 9.20655 26.3943 9.77212 27.4382C9.94151 28.5082 10.1806 29.0347 10.9141 29.7428C12.5183 28.3606 12.9881 27.6662 13.7871 26.4301C14.4744 25.3822 14.4322 24.6677 14.3052 23.3791Z" fill="#E40A0A"/>
<path d="M11.5863 23.1681C12.481 22.3614 12.7439 22.799 13.1783 23.7097C13.4375 24.3233 13.4054 24.7939 13.245 25.7104C12.6109 27.9357 11.7688 28.7764 10.998 27.7999C10.6834 27.1416 10.5261 26.726 10.333 25.7605C10.2591 23.97 10.7327 23.6769 11.5863 23.1681Z" fill="black" stroke="black" stroke-width="0.0550738"/>
<path d="M11.6307 23.7242C12.3043 23.1168 12.5023 23.4463 12.8293 24.132C13.0245 24.594 13.0003 24.9483 12.8795 25.6384C12.4021 27.3139 11.7681 27.9469 11.1877 27.2117C10.9508 26.716 10.8324 26.4031 10.687 25.6761C10.6313 24.328 10.9879 24.1073 11.6307 23.7242Z" fill="#1F881D" stroke="black" stroke-width="0.0550738"/>
<path d="M11.3819 24.4526C11.7833 24.1177 12.0256 24.1233 12.4611 24.1688C12.2241 24.889 12.0864 25.0751 11.8359 25.246L11.2749 25.6217C11.175 25.1421 11.1869 24.892 11.3819 24.4526Z" fill="#ECE0FF"/>
<path d="M11.6087 26.0367L12.4102 25.5L11.9443 26.6167L11.5837 26.8583L11.6656 26.5107L11.6087 26.0367Z" fill="#FEDEFF"/>
<path d="M26.0592 37.867C25.3243 37.648 24.9709 37.7531 24.641 39.1665C24.2613 41.9293 24.7351 42.2745 25.1303 43.677C25.4993 44.5822 25.7858 44.8204 26.5275 44.6142C27.1404 44.863 27.498 44.8107 28.1266 44.2786C27.9889 41.9131 27.7991 41.1016 27.4478 39.6988C27.1537 38.4985 26.7698 38.2529 26.0592 37.867Z" fill="#14000C"/>
<path d="M26.0732 38.6156C25.4499 38.4298 25.1502 38.5189 24.8704 39.7177C24.5484 42.0609 24.9503 42.3537 25.2855 43.5432C25.5984 44.3109 25.8414 44.513 26.4704 44.3381C26.9903 44.5491 27.2935 44.5048 27.8267 44.0535C27.7099 42.0472 27.5489 41.3589 27.251 40.1692C27.0015 39.1512 26.6759 38.9429 26.0732 38.6156Z" fill="#E40A0A"/>
<path d="M25.1607 41.1213C25.0799 39.9899 25.3514 39.892 25.8822 39.7956C26.2297 39.7624 26.4259 39.9566 26.7782 40.4279C27.5593 41.8047 27.671 42.8979 27.009 43.2914C26.6251 43.3617 26.3954 43.3668 25.914 43.2147C25.1078 42.6624 25.1236 42.1101 25.1607 41.1213Z" fill="black" stroke="black" stroke-width="0.0397942"/>
<path d="M25.4096 41.2787C25.3488 40.4268 25.5532 40.3531 25.9529 40.2805C26.2145 40.2555 26.3622 40.4017 26.6275 40.7566C27.2156 41.7932 27.2997 42.6163 26.8013 42.9126C26.5122 42.9656 26.3392 42.9694 25.9768 42.8549C25.3698 42.439 25.3817 42.0231 25.4096 41.2787Z" fill="#1F881D" stroke="black" stroke-width="0.0397942"/>
<path d="M25.6596 41.7636C25.6351 41.2657 25.7113 41.0372 25.8636 40.639C26.1064 41.1147 26.1459 41.3102 26.1445 41.6078L26.1382 42.2717C25.8981 42.2 25.7924 42.1018 25.6596 41.7636Z" fill="#ECE0FF"/>
<path d="M26.4207 42.1047L26.4297 41.1562L26.7764 41.9873L26.7723 42.4141L26.6453 42.2154L26.4207 42.1047Z" fill="#FEDEFF"/>
<path d="M23.8087 37.5642C23.1786 37.0545 22.8343 36.9979 22.2546 38.1243C21.3646 40.4391 21.7308 40.9507 21.8175 42.3765C21.9778 43.3453 22.1934 43.6811 22.9132 43.8126C23.4258 44.297 23.7635 44.4027 24.4437 44.1938C24.782 42.0144 24.7674 41.2059 24.7211 39.7986C24.6873 38.5971 24.3838 38.2132 23.8087 37.5642Z" fill="#14000C"/>
<path d="M23.6792 38.2476C23.1447 37.8153 22.8527 37.7673 22.3611 38.7226C21.6063 40.6859 21.9169 41.1198 21.9904 42.3291C22.1263 43.1508 22.3092 43.4356 22.9197 43.5471C23.3544 43.9579 23.6409 44.0475 24.2178 43.8704C24.5047 42.022 24.4923 41.3363 24.453 40.1427C24.4243 39.1237 24.167 38.7981 23.6792 38.2476Z" fill="#E40A0A"/>
<path d="M22.349 40.0968C22.4971 39.0481 22.765 39.0761 23.2701 39.2161C23.5949 39.3346 23.7365 39.5923 23.9667 40.1651C24.4118 41.7325 24.2996 42.7601 23.616 42.8306C23.2505 42.7298 23.0391 42.6364 22.628 42.2947C21.998 41.4558 22.121 40.9674 22.349 40.0968Z" fill="black" stroke="black" stroke-width="0.037853"/>
<path d="M22.552 40.336C22.6635 39.5464 22.8652 39.5675 23.2455 39.6729C23.4901 39.7621 23.5967 39.9562 23.77 40.3874C24.1052 41.5676 24.0206 42.3414 23.5059 42.3944C23.2308 42.3185 23.0716 42.2482 22.7621 41.9909C22.2877 41.3593 22.3803 40.9915 22.552 40.336Z" fill="#1F881D" stroke="black" stroke-width="0.037853"/>
<path d="M23.0107 41.1595C23.086 40.7026 23.2006 40.5303 23.4183 40.2382C23.5473 40.7683 23.5451 40.9604 23.4854 41.2266L23.3493 41.8191C23.1435 41.6524 23.066 41.5192 23.0107 41.1595Z" fill="#ECE0FF"/>
<path d="M21.4239 36.6554C20.8703 36.1193 20.5565 36.0294 19.966 36.9955C19.0294 39.0144 19.3401 39.5229 19.3472 40.8368C19.4452 41.7407 19.6264 42.0717 20.2817 42.2717C20.7285 42.7716 21.0338 42.9056 21.6701 42.7899C22.0923 40.8339 22.1201 40.0927 22.1492 38.8003C22.1794 37.6975 21.9199 37.3127 21.4239 36.6554Z" fill="#14000C"/>
<path d="M21.2665 37.2714C20.7969 36.8168 20.5308 36.7406 20.0299 37.56C19.2355 39.2722 19.4991 39.7035 19.5051 40.8178C19.5883 41.5845 19.7419 41.8652 20.2977 42.0348C20.6767 42.4588 20.9356 42.5725 21.4752 42.4743C21.8333 40.8154 21.8569 40.1868 21.8816 39.0906C21.9072 38.1553 21.6871 37.829 21.2665 37.2714Z" fill="#E40A0A"/>
<path d="M19.9477 38.8203C20.1373 37.8774 20.3823 37.9327 20.8398 38.1167C21.1325 38.261 21.2496 38.5125 21.4321 39.0619C21.7616 40.5449 21.606 41.4725 20.9736 41.4612C20.6427 41.3286 20.453 41.2197 20.0923 40.8617C19.5556 40.0245 19.6935 39.5914 19.9477 38.8203Z" fill="black" stroke="black" stroke-width="0.0348369"/>
<path d="M20.122 39.0618C20.2648 38.3519 20.4492 38.3936 20.7937 38.5321C21.014 38.6408 21.1022 38.8301 21.2396 39.2437C21.4877 40.3604 21.3706 41.0588 20.8944 41.0503C20.6452 40.9505 20.5024 40.8685 20.2308 40.5989C19.8267 39.9685 19.9306 39.6424 20.122 39.0618Z" fill="#1F881D" stroke="black" stroke-width="0.0348369"/>
<path d="M20.2114 39.5708C20.304 39.1613 20.4181 39.0163 20.6332 38.7733C20.7249 39.2724 20.7131 39.4479 20.6446 39.6848L20.4892 40.2117C20.3084 40.0364 20.2439 39.906 20.2114 39.5708Z" fill="#ECE0FF"/>
<path d="M20.7585 40.2215L20.9805 39.4688L21.077 40.3026L20.9771 40.6413L20.9178 40.4202L20.7585 40.2215Z" fill="#FEDEFF"/>
<path d="M19.3638 34.6131C18.8072 33.7684 18.4524 33.5388 17.577 34.429C16.0993 36.4075 16.3737 37.1234 16.1414 38.6564C16.0918 39.7482 16.2455 40.2059 16.984 40.6996C17.4209 41.4596 17.7574 41.7372 18.5312 41.8557C19.3889 39.7456 19.5576 38.8935 19.8287 37.3998C20.0664 36.1275 19.8299 35.576 19.3638 34.6131Z" fill="#14000C"/>
<path d="M19.0721 35.2585C18.6 34.5421 18.2991 34.3474 17.5566 35.1024C16.3033 36.7804 16.5361 37.3876 16.339 38.6878C16.297 39.6138 16.4273 40.002 17.0537 40.4207C17.4243 41.0653 17.7096 41.3008 18.366 41.4012C19.0934 39.6116 19.2364 38.8889 19.4664 37.6221C19.668 36.5429 19.4674 36.0752 19.0721 35.2585Z" fill="#E40A0A"/>
<path d="M17.2268 36.5436C17.6239 35.5209 17.9035 35.6829 18.4109 36.0792C18.7307 36.3638 18.8231 36.7032 18.9384 37.4158C19.0565 39.2742 18.7025 40.2926 17.9566 40.0277C17.5894 39.7416 17.385 39.5392 17.0239 38.9787C16.5425 37.79 16.785 37.3405 17.2268 36.5436Z" fill="black" stroke="black" stroke-width="0.0419565"/>
<path d="M17.3872 36.8955C17.6862 36.1255 17.8967 36.2474 18.2787 36.5459C18.5195 36.7601 18.5891 37.0157 18.6759 37.5522C18.7648 38.9515 18.4983 39.7183 17.9367 39.5189C17.6602 39.3034 17.5063 39.151 17.2344 38.729C16.8719 37.834 17.0545 37.4955 17.3872 36.8955Z" fill="#1F881D" stroke="black" stroke-width="0.0419565"/>
<path d="M17.5248 37.8667C17.7579 37.3107 17.962 37.1549 18.3397 36.9055C18.3611 37.6859 18.3029 37.9382 18.1457 38.2522L17.7917 38.9494C17.5621 38.6006 17.4958 38.3763 17.5248 37.8667Z" fill="#ECE0FF"/>
<path d="M17.6038 31.873C17.2157 30.6679 16.9134 30.2179 15.9087 30.6078C14.1283 31.7562 14.2665 32.6589 13.7694 34.0981C13.5275 35.1929 13.5948 35.7568 14.2212 36.71C14.5087 37.7559 14.7848 38.2444 15.512 38.8322C16.7163 37.175 17.0308 36.3988 17.5583 35.0235C18.0142 33.8559 17.8835 33.1456 17.6038 31.873Z" fill="#14000C"/>
<path d="M17.207 32.3557C16.8777 31.3336 16.6214 30.9519 15.7693 31.2826C14.2592 32.2566 14.3764 33.0222 13.9549 34.2429C13.7497 35.1714 13.8068 35.6497 14.3381 36.4581C14.5819 37.3451 14.816 37.7595 15.4328 38.258C16.4542 36.8525 16.7209 36.1942 17.1684 35.0277C17.555 34.0375 17.4442 33.435 17.207 32.3557Z" fill="#E40A0A"/>
<path d="M15.1943 32.5637C15.7599 31.7493 16.0015 32.0845 16.4218 32.7982C16.6804 33.2838 16.7095 33.6891 16.6944 34.4924C16.4784 36.4778 15.9552 37.3137 15.281 36.5919C14.9767 36.0761 14.815 35.7446 14.5654 34.9499C14.3111 33.4356 14.6255 33.1186 15.1943 32.5637Z" fill="black" stroke="black" stroke-width="0.0485295"/>
<path d="M15.288 33.023C15.7139 32.4098 15.8958 32.6621 16.2122 33.1995C16.407 33.5651 16.4289 33.8703 16.4175 34.4752C16.2549 35.97 15.8609 36.5994 15.3533 36.056C15.1242 35.6676 15.0024 35.418 14.8145 34.8196C14.623 33.6795 14.8597 33.4407 15.288 33.023Z" fill="#1F881D" stroke="black" stroke-width="0.0485295"/>
<path d="M15.1835 33.6873C15.4403 33.3447 15.6186 33.315 15.943 33.2916C15.8497 33.9388 15.7695 34.1169 15.605 34.2981L15.2357 34.6981C15.1089 34.3039 15.0896 34.0893 15.1835 33.6873Z" fill="#ECE0FF"/>
<path d="M15.531 35.0089L16.0586 34.4375L15.8419 35.4549L15.6044 35.7121L15.6257 35.4044L15.531 35.0089Z" fill="#FEDEFF"/>
<path d="M16.4556 27.4829C16.0931 26.1499 15.7617 25.6438 14.4701 26.0155C12.1351 27.1723 12.2164 28.1627 11.4519 29.7039C11.0401 30.8834 11.0672 31.5011 11.752 32.5722C12.005 33.7265 12.2999 34.2731 13.1472 34.9517C14.8152 33.2103 15.2854 32.3816 16.0815 30.9115C16.7674 29.664 16.676 28.8835 16.4556 27.4829Z" fill="#14000C"/>
<path d="M15.9096 28.0044C15.6022 26.8739 15.3212 26.4447 14.2257 26.7599C12.2453 27.741 12.3143 28.581 11.6659 29.8882C11.3166 30.8886 11.3395 31.4125 11.9204 32.3209C12.1349 33.2999 12.385 33.7635 13.1037 34.339C14.5184 32.8621 14.9171 32.1592 15.5924 30.9124C16.1741 29.8544 16.0966 29.1924 15.9096 28.0044Z" fill="#E40A0A"/>
<path d="M13.3815 28.1238C14.1686 27.2666 14.436 27.6444 14.8879 28.4439C15.1614 28.9864 15.1569 29.4293 15.0571 30.3034C14.5879 32.4543 13.8515 33.3371 13.0838 32.5154C12.7565 31.9376 12.5883 31.568 12.3573 30.6893C12.1927 29.0268 12.6166 28.6981 13.3815 28.1238Z" fill="black" stroke="black" stroke-width="0.0514413"/>
<path d="M13.4452 28.6287C14.0378 27.9833 14.2392 28.2678 14.5795 28.8697C14.7854 29.2782 14.7819 29.6117 14.7068 30.2698C14.3535 31.8893 13.7991 32.554 13.221 31.9353C12.9746 31.5002 12.848 31.222 12.674 30.5604C12.5501 29.3086 12.8692 29.0611 13.4452 28.6287Z" fill="#1F881D" stroke="black" stroke-width="0.0514413"/>
<path d="M13.2554 29.3487C13.61 28.9893 13.8352 28.9663 14.2419 28.958C14.0604 29.6578 13.9426 29.8476 13.7193 30.0363L13.2187 30.4523C13.1003 30.0163 13.098 29.7815 13.2554 29.3487Z" fill="#ECE0FF"/>
<path d="M13.5506 30.8053L14.2656 30.2109L13.8931 31.3075L13.5713 31.575L13.6288 31.2411L13.5506 30.8053Z" fill="#FEDEFF"/>
<path d="M8.261 20.3876C8.13651 21.6576 8.24426 22.2706 9.39301 22.8574C11.6204 23.5449 11.8633 22.7284 12.9539 22.0595C13.6501 21.4305 13.8205 20.9372 13.6057 19.6508C13.7622 18.5922 13.6962 17.9727 13.2294 16.8784C11.3538 17.0909 10.7201 17.4106 9.62618 18.0034C8.68971 18.4995 8.52013 19.1615 8.261 20.3876Z" fill="#14000C"/>
<path d="M8.85852 20.3594C8.75293 21.4365 8.84432 21.9565 9.81862 22.4541C11.7077 23.0372 11.9137 22.3447 12.8388 21.7774C13.4292 21.2439 13.5737 20.8255 13.3915 19.7345C13.5243 18.8367 13.4683 18.3112 13.0724 17.3831C11.4816 17.5633 10.9441 17.8345 10.0164 18.3372C9.22212 18.758 9.0783 19.3195 8.85852 20.3594Z" fill="#E40A0A"/>
<path d="M10.9213 21.9762C10.0252 22.1037 9.92876 21.6326 9.81581 20.7124C9.76571 20.1105 9.90708 19.7729 10.2587 19.1681C11.3026 17.8308 12.1661 17.6494 12.5248 18.7999C12.6069 19.4653 12.6266 19.8632 12.5382 20.695C12.1529 22.0848 11.7117 22.0513 10.9213 21.9762Z" fill="black" stroke="black" stroke-width="0.0467294"/>
<path d="M11.0194 21.5369C10.3447 21.6329 10.2721 21.2781 10.1871 20.5853C10.1493 20.1321 10.2558 19.8779 10.5205 19.4225C11.3065 18.4156 11.9567 18.279 12.2268 19.1453C12.2886 19.6463 12.3034 19.9459 12.2368 20.5722C11.9468 21.6186 11.6146 21.5934 11.0194 21.5369Z" fill="#1F881D" stroke="black" stroke-width="0.0467294"/>
<path d="M11.3959 21.1218C11.0008 21.1588 10.8135 21.0243 10.4858 20.7559C10.8484 20.3402 11.0015 20.2738 11.2387 20.2796L11.7682 20.2977C11.7274 20.7131 11.6563 20.8952 11.3959 21.1218Z" fill="#ECE0FF"/>
<path d="M7.1509 16.7092C6.97659 17.694 7.02571 18.191 7.90285 18.8016C9.63034 19.6311 9.87169 19.0189 10.7773 18.6327C11.3674 18.2269 11.532 17.8601 11.4379 16.8187C11.6251 16.0047 11.6095 15.508 11.3039 14.5854C9.80222 14.5107 9.28008 14.6808 8.37641 15.0067C7.60345 15.2767 7.42948 15.7765 7.1509 16.7092Z" fill="#14000C"/>
<path d="M7.62773 16.7673C7.4799 17.6025 7.52156 18.024 8.26549 18.5419C9.73064 19.2454 9.93533 18.7262 10.7035 18.3986C11.2039 18.0545 11.3435 17.7434 11.2637 16.8601C11.4224 16.1698 11.4092 15.7485 11.1501 14.966C9.87641 14.9026 9.43357 15.0469 8.66714 15.3233C8.01156 15.5523 7.86401 15.9762 7.62773 16.7673Z" fill="#E40A0A"/>
<path d="M9.17362 18.3048C8.45462 18.2896 8.40606 17.9058 8.37106 17.1662C8.36706 16.6853 8.49935 16.4376 8.81441 16.0063C9.72272 15.0874 10.4191 15.0559 10.6354 16.0088C10.6611 16.5438 10.653 16.8598 10.5334 17.5039C10.145 18.5494 9.79668 18.466 9.17362 18.3048Z" fill="black" stroke="black" stroke-width="0.0371872"/>
<path d="M9.27732 17.9712C8.73596 17.9598 8.69939 17.6708 8.67304 17.1139C8.67003 16.7519 8.76964 16.5653 9.00686 16.2406C9.69076 15.5487 10.2151 15.525 10.378 16.2425C10.3973 16.6453 10.3912 16.8832 10.3012 17.3682C10.0087 18.1554 9.74646 18.0926 9.27732 17.9712Z" fill="#1F881D" stroke="black" stroke-width="0.0371872"/>
<path d="M9.60223 17.6878C9.2863 17.6659 9.14563 17.5358 8.90142 17.282C9.21397 17.0012 9.33948 16.9687 9.52747 17.0038L9.94679 17.0865C9.88968 17.4085 9.82242 17.5429 9.60223 17.6878Z" fill="#ECE0FF"/>
<path d="M6.12625 14.5807C6.03012 15.2302 6.07087 15.5528 6.65276 15.9179C7.79217 16.3932 7.93852 15.9843 8.52139 15.6974C8.89843 15.4099 8.99912 15.1642 8.9195 14.4879C9.027 13.9493 9.00812 13.6256 8.79289 13.035C7.81378 13.0437 7.47682 13.1748 6.89417 13.4222C6.39565 13.6281 6.29119 13.961 6.12625 14.5807Z" fill="#14000C"/>
<path d="M6.43842 14.6082C6.35688 15.1591 6.39144 15.4327 6.88496 15.7424C7.85134 16.1455 7.97546 15.7987 8.46982 15.5554C8.78959 15.3115 8.87499 15.1031 8.80746 14.5295C8.89864 14.0727 8.88263 13.7982 8.70009 13.2973C7.86967 13.3047 7.58388 13.4159 7.08972 13.6257C6.6669 13.8003 6.57831 14.0827 6.43842 14.6082Z" fill="#E40A0A"/>
<path d="M7.46801 15.5556C6.9996 15.5732 6.9612 15.3245 6.92537 14.843C6.91429 14.5292 6.99606 14.3624 7.19359 14.0688C7.76879 13.434 8.22163 13.3868 8.37931 14.0006C8.40545 14.3489 8.40579 14.5555 8.33927 14.9806C8.10479 15.678 7.87653 15.6369 7.46801 15.5556Z" fill="black" stroke="black" stroke-width="0.0242647"/>
<path d="M7.52945 15.3368C7.17676 15.3501 7.14786 15.1628 7.12088 14.8002C7.11253 14.564 7.1741 14.4384 7.32283 14.2173C7.75592 13.7394 8.09688 13.7038 8.21561 14.166C8.23529 14.4282 8.23555 14.5838 8.18546 14.9039C8.00891 15.429 7.83705 15.3981 7.52945 15.3368Z" fill="#1F881D" stroke="black" stroke-width="0.0242647"/>
<path d="M7.73638 15.1297C7.53029 15.1275 7.43641 15.0479 7.27293 14.8916C7.47148 14.6963 7.55263 14.6702 7.67565 14.686L7.95012 14.7239C7.91862 14.9363 7.8772 15.0266 7.73638 15.1297Z" fill="#ECE0FF"/>
<path d="M5.48262 13.2936C5.41029 13.7326 5.43457 13.9527 5.82657 14.2142C6.59669 14.5634 6.70062 14.2891 7.10024 14.1077C7.35982 13.9212 7.43095 13.7566 7.38399 13.2953C7.46288 12.9319 7.45349 12.7116 7.31336 12.3054C6.64713 12.2887 6.41648 12.3699 6.01744 12.5244C5.67608 12.6528 5.60145 12.8765 5.48262 13.2936Z" fill="#14000C"/>
<path d="M5.69487 13.3091C5.63352 13.6814 5.65412 13.8681 5.98658 14.0899C6.63975 14.3861 6.72789 14.1534 7.06682 13.9996C7.28698 13.8414 7.34731 13.7018 7.30749 13.3106C7.37439 13.0024 7.36642 12.8155 7.24758 12.471C6.68253 12.4568 6.4869 12.5257 6.14846 12.6567C5.85894 12.7656 5.79565 12.9553 5.69487 13.3091Z" fill="#E40A0A"/>
<path d="M6.38558 13.9704C6.06671 13.9715 6.04324 13.8017 6.024 13.4738C6.01981 13.2604 6.07722 13.1489 6.21475 12.9541C6.61285 12.5362 6.92144 12.5146 7.02217 12.9353C7.03624 13.1725 7.03427 13.3128 6.98447 13.6C6.81751 14.0683 6.66265 14.0352 6.38558 13.9704Z" fill="black" stroke="black" stroke-width="0.0165"/>
<path d="M6.42607 13.8237C6.18598 13.8245 6.16831 13.6967 6.15383 13.4497C6.15067 13.2891 6.1939 13.2052 6.29744 13.0584C6.5972 12.7438 6.82955 12.7276 6.90539 13.0443C6.91598 13.2229 6.9145 13.3286 6.87701 13.5448C6.75129 13.8974 6.63469 13.8724 6.42607 13.8237Z" fill="#1F881D" stroke="black" stroke-width="0.0165"/>
<path d="M24.2258 35.3161C25.893 35.2813 26.6266 34.801 26.8852 31.4532C26.8145 25.0962 25.6735 24.6688 24.3606 21.8557C23.2658 20.1204 22.5664 19.7968 21.0223 20.7735C19.6102 20.6568 18.8506 21.0237 17.6576 22.6391C18.7232 27.7564 19.3985 29.4115 20.6159 32.2561C21.6437 34.6948 22.5572 34.9658 24.2258 35.3161Z" fill="#14000C"/>
<path d="M23.9371 33.6607C25.3511 33.6312 25.9733 33.2238 26.1926 30.3845C26.1327 24.9929 25.1649 24.6303 24.0514 22.2444C23.1229 20.7727 22.5297 20.4983 21.22 21.3267C20.0224 21.2277 19.3782 21.5388 18.3664 22.9089C19.2701 27.2491 19.8428 28.6528 20.8754 31.0654C21.7472 33.1337 22.5219 33.3636 23.9371 33.6607Z" fill="#E40A0A"/>
<path d="M25.119 27.5007C25.6612 29.9377 25.1031 30.3446 23.9814 30.9308C23.2374 31.2486 22.7483 30.9588 21.8303 30.168C19.6877 27.6831 19.0907 25.3522 20.4011 24.0187C21.2122 23.5935 21.7096 23.4206 22.8045 23.4168C24.7346 24.0666 24.8792 25.2952 25.119 27.5007Z" fill="black" stroke="black" stroke-width="0.0891234"/>
<path d="M24.5215 27.349C24.9297 29.1839 24.5095 29.4902 23.6649 29.9316C23.1048 30.1709 22.7365 29.9527 22.0453 29.3573C20.432 27.4863 19.9825 25.7313 20.9692 24.7272C21.5799 24.407 21.9544 24.2769 22.7788 24.274C24.232 24.7633 24.3409 25.6884 24.5215 27.349Z" fill="#1F881D" stroke="black" stroke-width="0.0891234"/>
<path d="M23.1525 26.5417C23.367 27.6222 23.2756 28.1794 23.0738 29.1643C22.3922 28.2867 22.243 27.8836 22.1497 27.2267L21.9482 25.7588C22.4929 25.7479 22.7544 25.89 23.1525 26.5417Z" fill="#ECE0FF"/>
<path d="M38.8857 48.3227C39.9852 48.2999 40.469 47.9831 40.6395 45.7753C40.5929 41.583 39.8404 41.3012 38.9746 39.446C38.2526 38.3016 37.7914 38.0883 36.7731 38.7324C35.8419 38.6554 35.3409 38.8973 34.5542 39.9627C35.2569 43.3374 35.7022 44.4289 36.5051 46.3048C37.1829 47.913 37.7853 48.0918 38.8857 48.3227Z" fill="#14000C"/>
<path d="M38.7039 47.2356C39.6364 47.2161 40.0467 46.9475 40.1913 45.075C40.1518 41.5194 39.5136 41.2803 38.7793 39.7069C38.1669 38.7363 37.7757 38.5553 36.9121 39.1016C36.1223 39.0364 35.6974 39.2415 35.0301 40.1451C35.6262 43.0073 36.0039 43.933 36.6848 45.5241C37.2597 46.8881 37.7706 47.0397 38.7039 47.2356Z" fill="#E40A0A"/>
<path d="M39.4785 43.1657C39.836 44.7728 39.468 45.0411 38.7282 45.4277C38.2376 45.6373 37.9151 45.4462 37.3097 44.9247C35.8966 43.286 35.503 41.7488 36.3672 40.8694C36.9021 40.589 37.2301 40.475 37.9521 40.4724C39.225 40.9009 39.3203 41.7112 39.4785 43.1657Z" fill="black" stroke="black" stroke-width="0.0587744"/>
<path d="M39.0845 43.0695C39.3537 44.2796 39.0766 44.4816 38.5196 44.7727C38.1502 44.9305 37.9074 44.7866 37.4516 44.3939C36.3876 43.1601 36.0912 42.0027 36.7419 41.3405C37.1446 41.1294 37.3916 41.0435 37.9353 41.0417C38.8936 41.3643 38.9654 41.9744 39.0845 43.0695Z" fill="#1F881D" stroke="black" stroke-width="0.0587744"/>
<path d="M38.185 42.5381C38.3264 43.2506 38.2662 43.6181 38.1331 44.2676C37.6836 43.6889 37.5852 43.423 37.5237 42.9898L37.3908 42.0217C37.75 42.0146 37.9224 42.1083 38.185 42.5381Z" fill="#ECE0FF"/>
<path d="M32.2986 40.8525C33.5223 40.8271 34.0607 40.4745 34.2505 38.0173C34.1986 33.3515 33.3611 33.0378 32.3975 30.973C31.594 29.6994 31.0806 29.4619 29.9473 30.1788C28.9109 30.0931 28.3534 30.3624 27.4777 31.5481C28.2598 35.304 28.7555 36.5188 29.649 38.6066C30.4035 40.3965 31.0739 40.5955 32.2986 40.8525Z" fill="#14000C"/>
<path d="M32.0885 39.6401C33.1263 39.6185 33.583 39.3194 33.744 37.2354C33.7 33.2782 32.9897 33.0121 32.1724 31.2609C31.4909 30.1807 31.0555 29.9793 30.0943 30.5873C29.2153 30.5147 28.7424 30.743 27.9998 31.7487C28.6631 34.9342 29.0835 35.9645 29.8413 37.7353C30.4812 39.2533 31.0498 39.4221 32.0885 39.6401Z" fill="#E40A0A"/>
<path d="M32.9521 35.11C33.35 36.8987 32.9404 37.1973 32.1171 37.6276C31.571 37.8609 31.2121 37.6482 30.5383 37.0678C28.9656 35.2439 28.5275 33.5331 29.4893 32.5543C30.0846 32.2422 30.4497 32.1154 31.2533 32.1126C32.6699 32.5895 32.776 33.4913 32.9521 35.11Z" fill="black" stroke="black" stroke-width="0.0654138"/>
<path d="M32.5158 34.9998C32.8154 36.3465 32.507 36.5714 31.8871 36.8954C31.476 37.071 31.2057 36.9108 30.6984 36.4738C29.5142 35.1006 29.1844 33.8124 29.9085 33.0755C30.3568 32.8405 30.6316 32.7449 31.2367 32.7428C32.3034 33.1019 32.3833 33.7809 32.5158 34.9998Z" fill="#1F881D" stroke="black" stroke-width="0.0654138"/>
<path d="M31.5098 34.4056C31.6672 35.1986 31.6001 35.6076 31.4521 36.3305C30.9518 35.6864 30.8423 35.3904 30.7738 34.9083L30.6259 33.8309C31.0257 33.8229 31.2176 33.9272 31.5098 34.4056Z" fill="#ECE0FF"/>
<path d="M104.358 24.7694C104.664 23.3031 104.987 22.7206 106.392 22.9435C108.961 23.8623 108.935 24.9267 109.848 26.4641C110.361 27.6638 110.37 28.3245 109.703 29.5553C109.503 30.8169 109.221 31.4377 108.356 32.2726C106.465 30.6429 105.911 29.8241 104.969 28.3667C104.158 27.1312 104.208 26.2888 104.358 24.7694Z" fill="#14000C"/>
<path d="M104.976 25.2385C105.236 23.9948 105.51 23.5008 106.701 23.6898C108.88 24.4691 108.858 25.3718 109.632 26.6758C110.067 27.6933 110.075 28.2537 109.509 29.2975C109.34 30.3675 109.101 30.894 108.367 31.6022C106.763 30.22 106.293 29.5256 105.494 28.2895C104.807 27.2416 104.849 26.5271 104.976 25.2385Z" fill="#E40A0A"/>
<path d="M107.687 25.0275C106.792 24.2208 106.53 24.6584 106.095 25.5691C105.836 26.1827 105.868 26.6533 106.028 27.5697C106.663 29.795 107.505 30.6358 108.275 29.6593C108.59 29.0009 108.747 28.5854 108.94 27.6199C109.014 25.8294 108.541 25.5363 107.687 25.0275Z" fill="black" stroke="black" stroke-width="0.0550738"/>
<path d="M107.647 25.5757C106.973 24.9684 106.775 25.2978 106.448 25.9835C106.253 26.4455 106.277 26.7999 106.398 27.4899C106.875 29.1655 107.509 29.7985 108.09 29.0632C108.327 28.5675 108.445 28.2547 108.59 27.5277C108.646 26.1795 108.289 25.9588 107.647 25.5757Z" fill="#1F881D" stroke="black" stroke-width="0.0550738"/>
<path d="M107.895 26.312C107.494 25.977 107.252 25.9827 106.816 26.0282C107.053 26.7484 107.191 26.9345 107.441 27.1054L108.002 27.4811C108.102 27.0015 108.09 26.7514 107.895 26.312Z" fill="#ECE0FF"/>
<path d="M107.673 27.8961L106.871 27.3594L107.337 28.4761L107.698 28.7176L107.616 28.3701L107.673 27.8961Z" fill="#FEDEFF"/>
<path d="M93.2221 39.7264C93.957 39.5074 94.3104 39.6125 94.6403 41.0259C95.0199 43.7887 94.5461 44.1339 94.1509 45.5364C93.7819 46.4415 93.4955 46.6798 92.7538 46.4736C92.1408 46.7224 91.7833 46.6701 91.1547 46.138C91.2923 43.7725 91.4822 42.9609 91.8334 41.5582C92.1275 40.3579 92.5114 40.1123 93.2221 39.7264Z" fill="#14000C"/>
<path d="M93.2002 40.475C93.8235 40.2892 94.1232 40.3783 94.4031 41.5771C94.725 43.9203 94.3232 44.2131 93.988 45.4026C93.675 46.1703 93.4321 46.3724 92.803 46.1975C92.2832 46.4085 91.9799 46.3642 91.4468 45.9129C91.5635 43.9065 91.7245 43.2183 92.0224 42.0286C92.2719 41.0105 92.5975 40.8022 93.2002 40.475Z" fill="#E40A0A"/>
<path d="M94.1205 42.9807C94.2013 41.8493 93.9298 41.7514 93.399 41.655C93.0515 41.6218 92.8553 41.816 92.503 42.2873C91.722 43.6641 91.6102 44.7573 92.2722 45.1508C92.6561 45.2211 92.8859 45.2261 93.3673 45.0741C94.1735 44.5218 94.1576 43.9694 94.1205 42.9807Z" fill="black" stroke="black" stroke-width="0.0397942"/>
<path d="M93.8677 43.138C93.9286 42.2861 93.7241 42.2125 93.3245 42.1399C93.0628 42.1149 92.9151 42.2611 92.6498 42.6159C92.0617 43.6526 91.9776 44.4757 92.4761 44.772C92.7651 44.8249 92.9381 44.8287 93.3006 44.7142C93.9076 44.2984 93.8957 43.8825 93.8677 43.138Z" fill="#1F881D" stroke="black" stroke-width="0.0397942"/>
<path d="M93.6217 43.6308C93.6461 43.1328 93.57 42.9044 93.4177 42.5062C93.1748 42.9819 93.1353 43.1774 93.1368 43.475L93.143 44.1389C93.3831 44.0672 93.4888 43.9689 93.6217 43.6308Z" fill="#ECE0FF"/>
<path d="M92.8605 43.9719L92.8516 43.0234L92.5049 43.8545L92.5089 44.2813L92.636 44.0826L92.8605 43.9719Z" fill="#FEDEFF"/>
<path d="M95.4647 39.4236C96.0949 38.9138 96.4392 38.8573 97.0188 39.9837C97.9088 42.2985 97.5426 42.8101 97.4559 44.2359C97.2956 45.2047 97.08 45.5405 96.3603 45.6719C95.8476 46.1564 95.5099 46.262 94.8297 46.0531C94.4915 43.8738 94.506 43.0653 94.5524 41.658C94.5862 40.4565 94.8896 40.0726 95.4647 39.4236Z" fill="#14000C"/>
<path d="M95.5982 40.0992C96.1326 39.6669 96.4246 39.6189 96.9162 40.5742C97.6711 42.5375 97.3605 42.9714 97.287 44.1807C97.151 45.0023 96.9682 45.2871 96.3577 45.3986C95.9229 45.8095 95.6365 45.8991 95.0596 45.7219C94.7727 43.8735 94.785 43.1879 94.8244 41.9943C94.853 40.9752 95.1104 40.6496 95.5982 40.0992Z" fill="#E40A0A"/>
<path d="M96.9322 41.9562C96.7841 40.9074 96.5162 40.9355 96.0111 41.0755C95.6864 41.1939 95.5448 41.4517 95.3146 42.0244C94.8694 43.5918 94.9817 44.6195 95.6653 44.6899C96.0307 44.5892 96.2421 44.4957 96.6532 44.1541C97.2832 43.3152 97.1603 42.8267 96.9322 41.9562Z" fill="black" stroke="black" stroke-width="0.037853"/>
<path d="M96.7293 42.2032C96.6178 41.4136 96.416 41.4347 96.0357 41.5401C95.7912 41.6293 95.6846 41.8234 95.5113 42.2546C95.1761 43.4348 95.2606 44.2085 95.7753 44.2616C96.0505 44.1857 96.2096 44.1154 96.5192 43.8581C96.9935 43.2264 96.901 42.8587 96.7293 42.2032Z" fill="#1F881D" stroke="black" stroke-width="0.037853"/>
<path d="M96.2706 43.0188C96.1952 42.562 96.0806 42.3896 95.863 42.0976C95.7339 42.6277 95.7361 42.8198 95.7958 43.0859L95.9319 43.6785C96.1377 43.5117 96.2153 43.3786 96.2706 43.0188Z" fill="#ECE0FF"/>
<path d="M97.8573 38.5226C98.4109 37.9865 98.7247 37.8966 99.3153 38.8627C100.252 40.8816 99.9411 41.3901 99.9341 42.704C99.836 43.6079 99.6548 43.9389 98.9995 44.1389C98.5527 44.6388 98.2475 44.7728 97.6112 44.6571C97.189 42.701 97.1612 41.9599 97.132 40.6675C97.1019 39.5647 97.3614 39.1799 97.8573 38.5226Z" fill="#14000C"/>
<path d="M98.0109 39.123C98.4804 38.6683 98.7465 38.5921 99.2474 39.4115C100.042 41.1238 99.7782 41.5551 99.7723 42.6694C99.6891 43.436 99.5354 43.7168 98.9796 43.8864C98.6007 44.3104 98.3418 44.4241 97.8021 44.3259C97.444 42.6669 97.4204 42.0383 97.3957 40.9422C97.3702 40.0069 97.5903 39.6805 98.0109 39.123Z" fill="#E40A0A"/>
<path d="M99.3336 40.6797C99.1439 39.7368 98.8989 39.7921 98.4415 39.9761C98.1488 40.1204 98.0317 40.3719 97.8492 40.9213C97.5196 42.4043 97.6753 43.3319 98.3076 43.3206C98.6386 43.188 98.8283 43.0791 99.189 42.7211C99.7257 41.8839 99.5877 41.4507 99.3336 40.6797Z" fill="black" stroke="black" stroke-width="0.0348369"/>
<path d="M99.1593 40.9212C99.0165 40.2113 98.832 40.2529 98.4876 40.3915C98.2672 40.5001 98.179 40.6895 98.0416 41.1031C97.7935 42.2198 97.9107 42.9182 98.3868 42.9097C98.636 42.8098 98.7788 42.7278 99.0504 42.4583C99.4545 41.8279 99.3506 41.5018 99.1593 40.9212Z" fill="#1F881D" stroke="black" stroke-width="0.0348369"/>
<path d="M99.066 41.438C98.9734 41.0284 98.8592 40.8835 98.6441 40.6405C98.5524 41.1396 98.5642 41.3151 98.6327 41.552L98.7881 42.0789C98.9689 41.9036 99.0335 41.7732 99.066 41.438Z" fill="#ECE0FF"/>
<path d="M98.5149 42.0809L98.293 41.3281L98.1965 42.1619L98.2964 42.5007L98.3557 42.2796L98.5149 42.0809Z" fill="#FEDEFF"/>
<path d="M99.9097 36.4724C100.466 35.6277 100.821 35.3982 101.696 36.2884C103.174 38.2668 102.9 38.9828 103.132 40.5158C103.182 41.6076 103.028 42.0652 102.289 42.559C101.853 43.319 101.516 43.5966 100.742 43.7151C99.8845 41.605 99.7159 40.7529 99.4447 39.2592C99.207 37.9868 99.4435 37.4354 99.9097 36.4724Z" fill="#14000C"/>
<path d="M100.209 37.1179C100.681 36.4015 100.982 36.2068 101.725 36.9618C102.978 38.6398 102.745 39.247 102.942 40.5472C102.984 41.4732 102.854 41.8613 102.228 42.2801C101.857 42.9247 101.572 43.1602 100.915 43.2606C100.188 41.471 100.045 40.7483 99.8148 39.4814C99.6132 38.4023 99.8138 37.9346 100.209 37.1179Z" fill="#E40A0A"/>
<path d="M102.054 38.403C101.657 37.3803 101.378 37.5423 100.87 37.9386C100.551 38.2232 100.458 38.5626 100.343 39.2751C100.225 41.1335 100.579 42.1519 101.325 41.8871C101.692 41.6009 101.896 41.3986 102.257 40.8381C102.739 39.6494 102.496 39.1999 102.054 38.403Z" fill="black" stroke="black" stroke-width="0.0419565"/>
<path d="M101.894 38.7549C101.595 37.9849 101.385 38.1068 101.003 38.4052C100.762 38.6195 100.692 38.8751 100.605 39.4116C100.516 40.8109 100.783 41.5776 101.345 41.3782C101.621 41.1628 101.775 41.0104 102.047 40.5884C102.409 39.6934 102.227 39.3549 101.894 38.7549Z" fill="#1F881D" stroke="black" stroke-width="0.0419565"/>
<path d="M101.753 39.7261C101.519 39.1701 101.315 39.0143 100.938 38.7649C100.916 39.5453 100.974 39.7976 101.132 40.1116L101.486 40.8088C101.715 40.4599 101.782 40.2357 101.753 39.7261Z" fill="#ECE0FF"/>
<path d="M101.67 33.7246C102.058 32.5194 102.36 32.0695 103.365 32.4594C105.145 33.6078 105.007 34.5105 105.504 35.9497C105.746 37.0445 105.679 37.6084 105.052 38.5615C104.765 39.6074 104.489 40.0959 103.761 40.6838C102.557 39.0265 102.243 38.2504 101.715 36.875C101.259 35.7075 101.39 34.9971 101.67 33.7246Z" fill="#14000C"/>
<path d="M102.074 34.2151C102.404 33.193 102.66 32.8113 103.512 33.142C105.022 34.116 104.905 34.8816 105.326 36.1023C105.532 37.0308 105.474 37.509 104.943 38.3174C104.699 39.2045 104.465 39.6188 103.848 40.1174C102.827 38.7119 102.56 38.0535 102.113 36.8871C101.726 35.8969 101.837 35.2944 102.074 34.2151Z" fill="#E40A0A"/>
<path d="M104.087 34.4309C103.521 33.6165 103.28 33.9516 102.859 34.6653C102.601 35.1509 102.572 35.5563 102.587 36.3596C102.803 38.345 103.326 39.1809 104 38.4591C104.305 37.9433 104.466 37.6118 104.716 36.817C104.97 35.3028 104.656 34.9857 104.087 34.4309Z" fill="black" stroke="black" stroke-width="0.0485295"/>
<path d="M103.993 34.8823C103.567 34.2691 103.385 34.5215 103.069 35.0589C102.874 35.4245 102.852 35.7297 102.864 36.3345C103.026 37.8294 103.42 38.4588 103.928 37.9153C104.157 37.5269 104.279 37.2774 104.467 36.679C104.658 35.5389 104.422 35.3001 103.993 34.8823Z" fill="#1F881D" stroke="black" stroke-width="0.0485295"/>
<path d="M104.094 35.5466C103.837 35.2041 103.659 35.1744 103.334 35.151C103.428 35.7981 103.508 35.9762 103.672 36.1575L104.042 36.5575C104.168 36.1633 104.188 35.9486 104.094 35.5466Z" fill="#ECE0FF"/>
<path d="M103.75 36.8683L103.223 36.2969L103.439 37.3143L103.677 37.5714L103.656 37.2638L103.75 36.8683Z" fill="#FEDEFF"/>
<path d="M102.822 29.35C103.184 28.017 103.516 27.511 104.807 27.8827C107.142 29.0395 107.061 30.0299 107.825 31.5711C108.237 32.7506 108.21 33.3683 107.525 34.4394C107.272 35.5937 106.977 36.1403 106.13 36.8188C104.462 35.0775 103.992 34.2488 103.196 32.7787C102.51 31.5312 102.601 30.7507 102.822 29.35Z" fill="#14000C"/>
<path d="M103.372 29.8638C103.679 28.7332 103.96 28.3041 105.056 28.6193C107.036 29.6004 106.967 30.4404 107.615 31.7475C107.965 32.748 107.942 33.2718 107.361 34.1803C107.146 35.1593 106.896 35.6228 106.178 36.1984C104.763 34.7215 104.364 34.0186 103.689 32.7718C103.107 31.7138 103.185 31.0518 103.372 29.8638Z" fill="#E40A0A"/>
<path d="M105.9 29.9831C105.113 29.126 104.845 29.5038 104.393 30.3032C104.12 30.8458 104.124 31.2887 104.224 32.1628C104.693 34.3137 105.43 35.1964 106.197 34.3748C106.525 33.797 106.693 33.4274 106.924 32.5487C107.089 30.8862 106.665 30.5574 105.9 29.9831Z" fill="black" stroke="black" stroke-width="0.0514413"/>
<path d="M105.828 30.4959C105.236 29.8505 105.034 30.1349 104.694 30.7369C104.488 31.1454 104.491 31.4789 104.567 32.137C104.92 33.7565 105.474 34.4212 106.052 33.8025C106.299 33.3674 106.425 33.0892 106.599 32.4276C106.723 31.1758 106.404 30.9283 105.828 30.4959Z" fill="#1F881D" stroke="black" stroke-width="0.0514413"/>
<path d="M106.022 31.2081C105.667 30.8487 105.442 30.8257 105.035 30.8174C105.217 31.5172 105.335 31.7069 105.558 31.8956L106.059 32.3117C106.177 31.8757 106.179 31.6409 106.022 31.2081Z" fill="#ECE0FF"/>
<path d="M105.727 32.6569L105.012 32.0625L105.384 33.1591L105.706 33.4266L105.649 33.0926L105.727 32.6569Z" fill="#FEDEFF"/>
<path d="M111.02 22.2392C111.145 23.5092 111.037 24.1222 109.888 24.7089C107.661 25.3965 107.418 24.5799 106.327 23.911C105.631 23.2821 105.461 22.7887 105.676 21.5024C105.519 20.4438 105.585 19.8242 106.052 18.73C107.927 18.9424 108.561 19.2622 109.655 19.8549C110.592 20.351 110.761 21.013 111.02 22.2392Z" fill="#14000C"/>
<path d="M110.423 22.211C110.528 23.2881 110.437 23.808 109.463 24.3056C107.574 24.8888 107.368 24.1962 106.442 23.6289C105.852 23.0955 105.708 22.6771 105.89 21.5861C105.757 20.6882 105.813 20.1628 106.209 19.2347C107.8 19.4149 108.337 19.6861 109.265 20.1888C110.059 20.6096 110.203 21.171 110.423 22.211Z" fill="#E40A0A"/>
<path d="M108.36 23.8356C109.256 23.9631 109.352 23.4919 109.465 22.5718C109.516 21.9699 109.374 21.6323 109.023 21.0274C107.979 19.6902 107.115 19.5087 106.756 20.6593C106.674 21.3247 106.655 21.7225 106.743 22.5544C107.128 23.9441 107.57 23.9107 108.36 23.8356Z" fill="black" stroke="black" stroke-width="0.0467294"/>
<path d="M108.258 23.4041C108.933 23.5001 109.005 23.1453 109.09 22.4525C109.128 21.9993 109.022 21.7451 108.757 21.2897C107.971 20.2828 107.321 20.1462 107.051 21.0125C106.989 21.5135 106.974 21.813 107.041 22.4394C107.331 23.4858 107.663 23.4606 108.258 23.4041Z" fill="#1F881D" stroke="black" stroke-width="0.0467294"/>
<path d="M107.885 22.9812C108.28 23.0181 108.468 22.8836 108.795 22.6153C108.433 22.1996 108.28 22.1332 108.043 22.1389L107.513 22.1571C107.554 22.5724 107.625 22.7546 107.885 22.9812Z" fill="#ECE0FF"/>
<path d="M112.123 18.5686C112.297 19.5533 112.248 20.0503 111.371 20.661C109.643 21.4904 109.402 20.8783 108.496 20.492C107.906 20.0863 107.741 19.7195 107.836 18.6781C107.648 17.8641 107.664 17.3674 107.969 16.4448C109.471 16.37 109.993 16.5402 110.897 16.866C111.67 17.1361 111.844 17.6359 112.123 18.5686Z" fill="#14000C"/>
<path d="M111.646 18.6345C111.794 19.4697 111.752 19.8912 111.008 20.4091C109.543 21.1126 109.338 20.5934 108.57 20.2658C108.07 19.9217 107.93 19.6106 108.01 18.7273C107.851 18.037 107.864 17.6157 108.123 16.8332C109.397 16.7698 109.84 16.9141 110.606 17.1905C111.262 17.4195 111.409 17.8434 111.646 18.6345Z" fill="#E40A0A"/>
<path d="M110.108 20.1642C110.827 20.149 110.875 19.7652 110.91 19.0256C110.914 18.5447 110.782 18.2969 110.467 17.8657C109.559 16.9468 108.862 16.9152 108.646 17.8682C108.62 18.4032 108.628 18.7192 108.748 19.3633C109.136 20.4087 109.485 20.3254 110.108 20.1642Z" fill="black" stroke="black" stroke-width="0.0371872"/>
<path d="M110 19.8306C110.541 19.8191 110.578 19.5302 110.604 18.9733C110.607 18.6112 110.508 18.4247 110.27 18.1C109.587 17.4081 109.062 17.3843 108.899 18.1019C108.88 18.5047 108.886 18.7426 108.976 19.2276C109.269 20.0147 109.531 19.952 110 19.8306Z" fill="#1F881D" stroke="black" stroke-width="0.0371872"/>
<path d="M109.679 19.555C109.995 19.5331 110.136 19.4029 110.38 19.1492C110.067 18.8684 109.942 18.8359 109.754 18.871L109.334 18.9537C109.392 19.2757 109.459 19.4101 109.679 19.555Z" fill="#ECE0FF"/>
<path d="M113.151 16.4322C113.247 17.0818 113.206 17.4044 112.625 17.7694C111.485 18.2447 111.339 17.8359 110.756 17.549C110.379 17.2615 110.278 17.0157 110.358 16.3394C110.25 15.8008 110.269 15.4771 110.484 14.8865C111.464 14.8953 111.801 15.0264 112.383 15.2737C112.882 15.4796 112.986 15.8126 113.151 16.4322Z" fill="#14000C"/>
<path d="M112.839 16.4598C112.92 17.0107 112.886 17.2843 112.392 17.5939C111.426 17.997 111.302 17.6503 110.808 17.4069C110.488 17.1631 110.402 16.9547 110.47 16.3811C110.379 15.9243 110.395 15.6497 110.577 15.1488C111.408 15.1562 111.693 15.2674 112.188 15.4772C112.61 15.6519 112.699 15.9342 112.839 16.4598Z" fill="#E40A0A"/>
<path d="M111.813 17.4072C112.282 17.4248 112.32 17.1761 112.356 16.6945C112.367 16.3808 112.285 16.2139 112.088 15.9203C111.512 15.2856 111.06 15.2383 110.902 15.8522C110.876 16.2005 110.875 16.4071 110.942 16.8322C111.176 17.5296 111.405 17.4885 111.813 17.4072Z" fill="black" stroke="black" stroke-width="0.0242647"/>
<path d="M111.752 17.1962C112.104 17.2094 112.133 17.0222 112.16 16.6596C112.169 16.4234 112.107 16.2977 111.958 16.0767C111.525 15.5988 111.184 15.5632 111.066 16.0254C111.046 16.2876 111.046 16.4432 111.096 16.7633C111.272 17.2884 111.444 17.2574 111.752 17.1962Z" fill="#1F881D" stroke="black" stroke-width="0.0242647"/>
<path d="M111.545 16.9969C111.751 16.9947 111.845 16.9151 112.008 16.7588C111.81 16.5635 111.729 16.5374 111.606 16.5532L111.331 16.5911C111.363 16.8035 111.404 16.8938 111.545 16.9969Z" fill="#ECE0FF"/>
<path d="M113.799 15.153C113.871 15.592 113.847 15.8121 113.455 16.0735C112.685 16.4228 112.581 16.1485 112.181 15.9671C111.921 15.7805 111.85 15.6159 111.897 15.1547C111.818 14.7913 111.828 14.571 111.968 14.1648C112.634 14.1481 112.865 14.2293 113.264 14.3838C113.605 14.5121 113.68 14.7359 113.799 15.153Z" fill="#14000C"/>
<path d="M113.582 15.1685C113.644 15.5408 113.623 15.7275 113.291 15.9492C112.638 16.2455 112.549 16.0128 112.211 15.859C111.99 15.7007 111.93 15.5611 111.97 15.1699C111.903 14.8617 111.911 14.6749 112.03 14.3304C112.595 14.3162 112.79 14.3851 113.129 14.5161C113.418 14.625 113.482 14.8147 113.582 15.1685Z" fill="#E40A0A"/>
<path d="M112.892 15.8376C113.211 15.8387 113.234 15.6689 113.253 15.341C113.258 15.1276 113.2 15.0161 113.063 14.8213C112.664 14.4034 112.356 14.3818 112.255 14.8025C112.241 15.0396 112.243 15.18 112.293 15.4672C112.46 15.9355 112.615 15.9023 112.892 15.8376Z" fill="black" stroke="black" stroke-width="0.0165"/>
<path d="M112.851 15.6831C113.091 15.6839 113.109 15.556 113.124 15.3091C113.127 15.1484 113.083 15.0645 112.98 14.9178C112.68 14.6032 112.448 14.5869 112.372 14.9036C112.361 15.0822 112.363 15.1879 112.4 15.4042C112.526 15.7568 112.643 15.7318 112.851 15.6831Z" fill="#1F881D" stroke="black" stroke-width="0.0165"/>
<path d="M95.0516 37.1754C93.3843 37.1407 92.6508 36.6604 92.3922 33.3126C92.4628 26.9556 93.6039 26.5281 94.9168 23.715C96.0116 21.9797 96.711 21.6562 98.2551 22.6329C99.6671 22.5162 100.427 22.8831 101.62 24.4985C100.554 29.6158 99.8789 31.2709 98.6614 34.1155C97.6336 36.5542 96.7201 36.8252 95.0516 37.1754Z" fill="#14000C"/>
<path d="M95.3403 35.52C93.9262 35.4906 93.3041 35.0832 93.0847 32.2438C93.1447 26.8522 94.1124 26.4897 95.226 24.1038C96.1545 22.6321 96.7477 22.3577 98.0573 23.186C99.2549 23.0871 99.8992 23.3982 100.911 24.7683C100.007 29.1084 99.4345 30.5122 98.4019 32.9248C97.5302 34.9931 96.7555 35.223 95.3403 35.52Z" fill="#E40A0A"/>
<path d="M94.1583 29.3523C93.6162 31.7893 94.1742 32.1961 95.296 32.7824C96.04 33.1002 96.5291 32.8104 97.447 32.0196C99.5897 29.5347 100.187 27.2037 98.8762 25.8702C98.0651 25.445 97.5678 25.2722 96.4728 25.2683C94.5428 25.9181 94.3982 27.1468 94.1583 29.3523Z" fill="black" stroke="black" stroke-width="0.0891234"/>
<path d="M94.7597 29.2005C94.3515 31.0355 94.7717 31.3418 95.6163 31.7832C96.1765 32.0225 96.5448 31.8043 97.2359 31.2089C98.8492 29.3379 99.2987 27.5828 98.312 26.5787C97.7013 26.2586 97.3268 26.1284 96.5024 26.1256C95.0492 26.6148 94.9403 27.5399 94.7597 29.2005Z" fill="#1F881D" stroke="black" stroke-width="0.0891234"/>
<path d="M96.1288 28.4011C95.9143 29.4815 96.0056 30.0388 96.2074 31.0237C96.889 30.1461 97.0382 29.7429 97.1315 29.086L97.3331 27.6182C96.7883 27.6073 96.5269 27.7494 96.1288 28.4011Z" fill="#ECE0FF"/>
<path d="M80.3877 50.1821C79.2882 50.1592 78.8045 49.8424 78.6339 47.6347C78.6805 43.4424 79.433 43.1605 80.2988 41.3054C81.0208 40.161 81.482 39.9476 82.5004 40.5917C83.4316 40.5148 83.9325 40.7567 84.7193 41.8221C84.0165 45.1967 83.5712 46.2882 82.7683 48.1642C82.0905 49.7724 81.4881 49.9512 80.3877 50.1821Z" fill="#14000C"/>
<path d="M80.5735 49.0949C79.6409 49.0755 79.2306 48.8068 79.086 46.9344C79.1255 43.3788 79.7637 43.1397 80.4981 41.5663C81.1104 40.5957 81.5016 40.4147 82.3653 40.961C83.1551 40.8957 83.5799 41.1009 84.2472 42.0045C83.6512 44.8667 83.2735 45.7924 82.5925 47.3834C82.0176 48.7475 81.5067 48.8991 80.5735 49.0949Z" fill="#E40A0A"/>
<path d="M79.8028 45.0251C79.4452 46.6322 79.8133 46.9005 80.553 47.2871C81.0436 47.4967 81.3662 47.3056 81.9716 46.7841C83.3846 45.1453 83.7783 43.6082 82.9141 42.7287C82.3792 42.4483 82.0512 42.3343 81.3291 42.3318C80.0563 42.7603 79.9609 43.5706 79.8028 45.0251Z" fill="black" stroke="black" stroke-width="0.0587744"/>
<path d="M80.1967 44.9211C79.9275 46.1312 80.2046 46.3332 80.7616 46.6243C81.131 46.7821 81.3739 46.6382 81.8297 46.2455C82.8936 45.0116 83.19 43.8542 82.5394 43.1921C82.1366 42.9809 81.8896 42.8951 81.346 42.8932C80.3876 43.2159 80.3158 43.8259 80.1967 44.9211Z" fill="#1F881D" stroke="black" stroke-width="0.0587744"/>
<path d="M81.0963 44.3897C80.9548 45.1022 81.0151 45.4696 81.1481 46.1192C81.5977 45.5404 81.696 45.2746 81.7576 44.8413L81.8905 43.8733C81.5312 43.8661 81.3588 43.9598 81.0963 44.3897Z" fill="#ECE0FF"/>
<path d="M86.9827 42.7119C85.759 42.6864 85.2206 42.3339 85.0308 39.8767C85.0826 35.2109 85.9201 34.8971 86.8837 32.8324C87.6873 31.5588 88.2006 31.3213 89.3339 32.0382C90.3703 31.9525 90.9279 32.2218 91.8035 33.4075C91.0214 37.1634 90.5258 38.3781 89.6322 40.466C88.8778 42.2559 88.2073 42.4549 86.9827 42.7119Z" fill="#14000C"/>
<path d="M87.1928 41.4995C86.1549 41.4778 85.6983 41.1788 85.5373 39.0948C85.5813 35.1376 86.2916 34.8715 87.1088 33.1203C87.7904 32.0401 88.2257 31.8387 89.187 32.4467C90.066 32.374 90.5388 32.6024 91.2815 33.608C90.6182 36.7935 90.1978 37.8238 89.4399 39.5946C88.8001 41.1127 88.2315 41.2814 87.1928 41.4995Z" fill="#E40A0A"/>
<path d="M86.3252 36.9616C85.9273 38.7503 86.3369 39.0489 87.1603 39.4792C87.7063 39.7125 88.0653 39.4997 88.739 38.9193C90.3117 37.0955 90.7498 35.3847 89.788 34.4059C89.1927 34.0938 88.8277 33.9669 88.024 33.9641C86.6074 34.441 86.5013 35.3428 86.3252 36.9616Z" fill="black" stroke="black" stroke-width="0.0654138"/>
<path d="M86.7654 36.8591C86.4658 38.2059 86.7742 38.4308 87.3941 38.7547C87.8053 38.9304 88.0756 38.7702 88.5829 38.3332C89.767 36.9599 90.0969 35.6718 89.3727 34.9348C88.9245 34.6999 88.6496 34.6043 88.0445 34.6022C86.9779 34.9613 86.898 35.6403 86.7654 36.8591Z" fill="#1F881D" stroke="black" stroke-width="0.0654138"/>
<path d="M87.7676 36.2571C87.6101 37.0501 87.6772 37.4591 87.8253 38.182C88.3256 37.5379 88.4351 37.242 88.5036 36.7599L88.6515 35.6825C88.2517 35.6745 88.0598 35.7788 87.7676 36.2571Z" fill="#ECE0FF"/>
<path d="M23.6187 84.4997C23.0206 86.0147 22.6144 86.4436 21.4933 84.9698C19.5624 81.6548 19.8329 80.3872 19.43 77.7421C19.2818 75.8484 19.4287 75.04 20.2732 74.1197C20.7347 72.7619 21.1152 72.2511 22.0326 71.9802C23.2315 75.576 23.5028 77.043 23.9491 79.6166C24.3372 81.8083 24.0988 82.7867 23.6187 84.4997Z" fill="#14000C"/>
<path d="M23.2096 83.3994C22.7024 84.6843 22.3578 85.048 21.407 83.7981C19.7693 80.9865 19.9987 79.9115 19.657 77.668C19.5313 76.0619 19.6559 75.3763 20.3721 74.5958C20.7636 73.4441 21.0863 73.0109 21.8643 72.7812C22.8812 75.8309 23.1113 77.0751 23.4898 79.2578C23.819 81.1167 23.6168 81.9465 23.2096 83.3994Z" fill="#E40A0A"/>
<path d="M20.8979 81.3291C21.4567 83.0734 21.7785 82.7684 22.3541 82.0368C22.7139 81.5153 22.7971 80.9175 22.8772 79.6693C22.8676 76.429 22.3608 74.6885 21.4888 75.2115C21.0722 75.7398 20.8438 76.1087 20.4569 77.1133C19.9768 79.2199 20.3039 79.981 20.8979 81.3291Z" fill="black" stroke="black" stroke-width="0.0355076"/>
<path d="M21.0628 80.7019C21.4835 82.0153 21.7258 81.7856 22.1591 81.2348C22.4301 80.8421 22.4927 80.392 22.553 79.4522C22.5458 77.0124 22.1642 75.702 21.5077 76.0957C21.194 76.4935 21.022 76.7712 20.7307 77.5277C20.3692 79.1139 20.6155 79.6869 21.0628 80.7019Z" fill="#1F881D" stroke="black" stroke-width="0.0355076"/>
<path d="M21.0253 79.5959C21.2821 80.3455 21.4858 80.5464 21.8599 80.8644C21.83 79.7891 21.7585 79.4458 21.5893 79.0242L21.2087 78.0885C21.0134 78.5837 20.965 78.8967 21.0253 79.5959Z" fill="#ECE0FF"/>
<path d="M21.5852 77.8664L22.1289 79.2031L22.0006 77.4516L21.7559 76.85L21.7432 77.3411L21.5852 77.8664Z" fill="#FEDEFF"/>
<path d="M36.607 75.0123C36.043 74.7033 35.8135 74.3385 35.8599 72.6458C36.1385 69.5301 36.5425 69.5196 37.1004 68.3652C37.5411 67.703 37.7912 67.6662 38.2757 68.4172C38.7592 68.607 39.0021 68.9205 39.342 69.9243C38.7757 72.2558 38.4804 72.952 37.9536 74.1386C37.5074 75.1586 37.1868 75.132 36.607 75.0123Z" fill="#E40A0A"/>
<path d="M36.4293 71.1901C36.0975 72.4921 36.3014 72.8433 36.7222 73.415C37.0046 73.753 37.2139 73.6858 37.6182 73.4165C38.5923 72.4171 38.941 71.188 38.4801 70.1438C38.1759 69.7297 37.9852 69.5267 37.5476 69.2985C36.7452 69.277 36.6294 69.96 36.4293 71.1901Z" fill="black" stroke="black" stroke-width="0.0256564"/>
<path d="M36.6726 71.2216C36.4227 72.202 36.5763 72.4664 36.8931 72.8969C37.1058 73.1513 37.2633 73.1008 37.5678 72.898C38.3011 72.1455 38.5637 71.22 38.2166 70.4338C37.9876 70.122 37.844 69.9692 37.5145 69.7973C36.9104 69.7812 36.8232 70.2954 36.6726 71.2216Z" fill="#1F881D" stroke="black" stroke-width="0.0256564"/>
<path d="M36.9967 70.8506C36.8599 71.4331 36.8701 71.7753 36.9043 72.3884C37.2182 72.0199 37.2969 71.8168 37.3652 71.455L37.5151 70.6449C37.2979 70.5262 37.1866 70.5546 36.9967 70.8506Z" fill="#ECE0FF"/>
<path d="M37.7102 71.0928L37.4961 72.25L37.9798 71.5399L38.0762 71.0191L37.9236 71.1511L37.7102 71.0928Z" fill="#FEDEFF"/>
<path d="M34.4692 74.36C33.8238 74.4378 33.523 74.2114 33.3021 72.3496C33.0996 68.7815 33.525 68.4753 33.9305 66.8215C34.2908 65.7848 34.5493 65.5626 35.1812 66.02C35.7225 65.8721 36.0292 66.0335 36.5485 66.8695C36.3218 69.8006 36.1207 70.7679 35.7532 72.4338C35.4442 73.861 35.1011 74.0662 34.4692 74.36Z" fill="#14000C"/>
<path d="M34.5174 73.415C33.97 73.481 33.7149 73.2889 33.5276 71.7099C33.3558 68.6837 33.7166 68.424 34.0606 67.0214C34.3661 66.142 34.5854 65.9536 35.1213 66.3416C35.5804 66.2161 35.8405 66.353 36.281 67.0621C36.0887 69.548 35.9182 70.3684 35.6064 71.7813C35.3444 72.9918 35.0534 73.1659 34.5174 73.415Z" fill="#E40A0A"/>
<path d="M33.8443 70.0345C33.723 71.4324 33.9533 71.6279 34.4078 71.8911C34.7068 72.0258 34.8852 71.8348 35.2113 71.3379C35.9493 69.8197 36.0957 68.4781 35.5412 67.8069C35.2125 67.6159 35.0141 67.548 34.5909 67.6098C33.8687 68.0867 33.8573 68.784 33.8443 70.0345Z" fill="black" stroke="black" stroke-width="0.0244049"/>
<path d="M34.0622 69.9172C33.9708 70.9698 34.1442 71.117 34.4864 71.3152C34.7115 71.4166 34.8459 71.2728 35.0914 70.8986C35.6471 69.7555 35.7573 68.7453 35.3398 68.24C35.0923 68.0962 34.9429 68.0451 34.6243 68.0916C34.0805 68.4507 34.0719 68.9757 34.0622 69.9172Z" fill="#1F881D" stroke="black" stroke-width="0.0244049"/>
<path d="M34.6378 69.3124C34.594 69.9306 34.6494 70.2377 34.763 70.7781C34.9946 70.2463 35.0377 70.0116 35.05 69.6378L35.0748 68.8031C34.8639 68.8288 34.768 68.9238 34.6378 69.3124Z" fill="#ECE0FF"/>
<path d="M32.2615 73.4036C31.6738 73.5789 31.3908 73.4189 31.1233 71.742C30.8127 68.4927 31.1911 68.1427 31.504 66.5564C31.7971 65.5449 32.0257 65.299 32.6198 65.6182C33.1097 65.3952 33.396 65.4943 33.9004 66.1798C33.796 68.9122 33.646 69.8342 33.3683 71.4255C33.1359 72.7879 32.8292 73.0318 32.2615 73.4036Z" fill="#14000C"/>
<path d="M32.275 72.5325C31.7767 72.6812 31.5366 72.5456 31.3097 71.1233C31.0463 68.3675 31.3672 68.0706 31.6326 66.7252C31.8812 65.8673 32.0751 65.6588 32.5789 65.9295C32.9945 65.7403 33.2373 65.8244 33.6651 66.4058C33.5765 68.7232 33.4493 69.5052 33.2138 70.8549C33.0167 72.0103 32.7566 72.2172 32.275 72.5325Z" fill="#E40A0A"/>
<path d="M31.5314 69.5304C31.4695 70.8357 31.6871 70.9785 32.1121 71.1475C32.3903 71.2234 32.5468 71.019 32.8276 70.5096C33.4494 68.9945 33.5361 67.737 33.0053 67.2088C32.6979 67.086 32.5141 67.0554 32.1292 67.1802C31.4853 67.735 31.4994 68.3782 31.5314 69.5304Z" fill="black" stroke="black" stroke-width="0.0224603"/>
<path d="M31.7384 69.3814C31.6918 70.3641 31.8556 70.4717 32.1756 70.5989C32.3851 70.6561 32.5029 70.5022 32.7144 70.1186C33.1825 68.9779 33.2478 68.031 32.8482 67.6333C32.6167 67.5408 32.4783 67.5178 32.1885 67.6118C31.7037 68.0295 31.7143 68.5138 31.7384 69.3814Z" fill="#1F881D" stroke="black" stroke-width="0.0224603"/>
<path d="M31.935 68.8412C31.9167 69.4169 31.9782 69.6905 32.101 70.1693C32.2942 69.6429 32.3254 69.4201 32.3235 69.0744L32.3169 68.3026C32.1249 68.3601 32.0405 68.4629 31.935 68.8412Z" fill="#ECE0FF"/>
<path d="M32.5413 68.5225L32.5508 69.625L32.8262 68.6971L32.8219 68.201L32.7207 68.4182L32.5413 68.5225Z" fill="#FEDEFF"/>
<path d="M30.0688 74.1225C29.4066 74.6693 29.0567 74.6435 28.5335 72.8145C27.7617 69.1505 28.1581 68.5179 28.3223 66.461C28.536 65.0953 28.7712 64.6723 29.5034 64.7068C30.0459 64.16 30.3918 64.1119 31.0658 64.6314C31.289 67.9237 31.2308 69.1009 31.1083 71.1435C31.0095 72.8892 30.6832 73.3549 30.0688 74.1225Z" fill="#14000C"/>
<path d="M29.9703 73.0781C29.4086 73.5419 29.1119 73.52 28.6681 71.9688C28.0135 68.8612 28.3498 68.3247 28.489 66.5801C28.6702 65.4218 28.8698 65.0631 29.4908 65.0923C29.9509 64.6286 30.2442 64.5878 30.8158 65.0284C31.0052 67.8207 30.9558 68.8192 30.8519 70.5516C30.7681 72.0321 30.4913 72.4271 29.9703 73.0781Z" fill="#E40A0A"/>
<path d="M28.7306 69.9547C28.8232 71.5343 29.0946 71.5776 29.611 71.5321C29.9445 71.4612 30.101 71.129 30.3638 70.3642C30.8966 68.2131 30.8389 66.6756 30.1541 66.3574C29.7806 66.3896 29.5626 66.4596 29.1301 66.8296C28.4502 67.8576 28.5477 68.6103 28.7306 69.9547Z" fill="black" stroke="black" stroke-width="0.0270505"/>
<path d="M28.9448 69.6674C29.0145 70.8568 29.2189 70.8894 29.6077 70.8551C29.8588 70.8017 29.9767 70.5516 30.1745 69.9758C30.5757 68.3562 30.5323 67.1985 30.0166 66.9589C29.7354 66.9831 29.5712 67.0359 29.2456 67.3144C28.7337 68.0885 28.8071 68.6552 28.9448 69.6674Z" fill="#1F881D" stroke="black" stroke-width="0.0270505"/>
<path d="M29.2875 68.6062C29.3523 69.4798 29.4864 69.8436 29.7435 70.4694C29.9438 69.542 29.9541 69.1863 29.8962 68.6711L29.7634 67.5228C29.4901 67.7488 29.3824 67.9639 29.2875 68.6062Z" fill="#ECE0FF"/>
<path d="M27.9567 75.947C27.3509 77.075 26.9934 77.3614 26.2453 76.0279C25.0267 73.1105 25.353 72.1349 25.2742 69.9647C25.3279 68.4306 25.5159 67.8049 26.2618 67.1865C26.7462 66.1652 27.0909 65.8097 27.8357 65.7205C28.4542 68.7608 28.5355 69.971 28.6548 72.0899C28.7627 73.8955 28.4876 74.6444 27.9567 75.947Z" fill="#14000C"/>
<path d="M27.7359 75.0071C27.2221 75.9638 26.9188 76.2067 26.2844 75.0757C25.2508 72.6014 25.5276 71.7739 25.4607 69.9333C25.5063 68.6322 25.6657 68.1015 26.2983 67.577C26.7092 66.7108 27.0016 66.4093 27.6332 66.3336C28.1578 68.9123 28.2268 69.9386 28.3279 71.7357C28.4195 73.2672 28.1862 73.9023 27.7359 75.0071Z" fill="#E40A0A"/>
<path d="M26.1064 73.0256C26.3885 74.4973 26.6686 74.2981 27.1863 73.7932C27.5158 73.4263 27.6348 72.96 27.8099 71.9735C28.0934 69.3823 27.8517 67.9208 27.1199 68.2179C26.7453 68.5823 26.5328 68.8455 26.1387 69.5948C25.5725 71.212 25.7609 71.8657 26.1064 73.0256Z" fill="black" stroke="black" stroke-width="0.0312883"/>
<path d="M26.2914 72.5533C26.5038 73.6614 26.7147 73.5114 27.1045 73.1312C27.3526 72.855 27.4422 72.5039 27.574 71.7611C27.7875 69.81 27.6055 68.7097 27.0546 68.9333C26.7725 69.2078 26.6125 69.4059 26.3157 69.9701C25.8894 71.1877 26.0313 71.6799 26.2914 72.5533Z" fill="#1F881D" stroke="black" stroke-width="0.0312883"/>
<path d="M26.36 71.6585C26.4943 72.2933 26.6362 72.4821 26.9014 72.7882C26.9746 71.9246 26.9493 71.6403 26.8542 71.2798L26.6394 70.4791C26.4416 70.8479 26.3754 71.0913 26.36 71.6585Z" fill="#ECE0FF"/>
<path d="M26.9548 70.3561L27.2617 71.5L27.3183 70.0822L27.1802 69.5675L27.1261 69.9583L26.9548 70.3561Z" fill="#FEDEFF"/>
<path d="M25.9736 80.2703C25.3594 81.5753 24.9644 81.9046 23.9725 80.3474C22.2927 76.9446 22.592 75.814 22.3136 73.2911C22.2452 71.5086 22.4122 70.7832 23.2344 70.0719C23.7154 68.8898 24.0894 68.48 24.9555 68.3837C25.9418 71.9234 26.1408 73.3306 26.4623 75.7944C26.7436 77.894 26.4849 78.7617 25.9736 80.2703Z" fill="#14000C"/>
<path d="M25.6337 79.1665C25.1128 80.2733 24.7778 80.5526 23.9365 79.2318C22.5118 76.3458 22.7656 75.3869 22.5295 73.2471C22.4716 71.7354 22.6131 71.1201 23.3105 70.5168C23.7184 69.5142 24.0356 69.1667 24.7703 69.085C25.6067 72.0871 25.7755 73.2807 26.0482 75.3703C26.2868 77.1511 26.0674 77.887 25.6337 79.1665Z" fill="#E40A0A"/>
<path d="M23.5543 76.8638C24.0114 78.577 24.323 78.3483 24.8872 77.7667C25.2424 77.3435 25.3421 76.8028 25.463 75.6579C25.5737 72.6492 25.1649 70.9483 24.3317 71.2863C23.9234 71.7062 23.6966 72.0099 23.2984 72.8769C22.7725 74.7507 23.0496 75.5123 23.5543 76.8638Z" fill="black" stroke="black" stroke-width="0.0331656"/>
<path d="M23.7312 76.312C24.0754 77.6019 24.31 77.4297 24.7348 76.9918C25.0022 76.6732 25.0773 76.266 25.1683 75.404C25.2517 73.1386 24.9439 71.8579 24.3166 72.1124C24.0091 72.4286 23.8383 72.6573 23.5385 73.31C23.1425 74.721 23.3512 75.2944 23.7312 76.312Z" fill="#1F881D" stroke="black" stroke-width="0.0331656"/>
<path d="M23.7335 75.2826C23.9455 76.0216 24.1282 76.2424 24.4656 76.6008C24.4775 75.5978 24.4234 75.2672 24.2811 74.8473L23.9604 73.9146C23.7598 74.3412 23.7031 74.6235 23.7335 75.2826Z" fill="#ECE0FF"/>
<path d="M24.3192 73.7613L24.7773 75.0938L24.7223 73.4466L24.5161 72.8469L24.4862 73.3006L24.3192 73.7613Z" fill="#FEDEFF"/>
<path d="M34.4396 75.9186C35.8623 76.6181 36.4484 77.503 36.3822 81.7592C35.7761 89.6201 34.7636 89.7013 33.3994 92.6753C32.3142 94.3976 31.6884 94.5237 30.4517 92.7038C29.2342 92.2927 28.6161 91.5384 27.7346 89.064C29.0851 83.1333 29.8046 81.3453 31.0899 78.2946C32.1782 75.673 32.9826 75.6963 34.4396 75.9186Z" fill="#14000C"/>
<path d="M34.0595 77.8408C35.2663 78.4341 35.7633 79.1846 35.7072 82.7944C35.1931 89.4615 34.3344 89.5303 33.1774 92.0527C32.257 93.5135 31.7262 93.6205 30.6773 92.0769C29.6447 91.7282 29.1205 91.0885 28.3728 88.9899C29.5182 83.9598 30.1285 82.4434 31.2186 79.856C32.1416 77.6325 32.8239 77.6523 34.0595 77.8408Z" fill="#E40A0A"/>
<path d="M34.5367 85.9684C35.2095 83.1577 34.7672 82.4331 33.8582 81.264C33.2493 80.5767 32.8061 80.7438 31.9533 81.3637C29.9076 83.6037 29.1971 86.2612 30.2032 88.432C30.8603 89.2789 31.2708 89.6893 32.2068 90.1251C33.9131 90.0786 34.1422 88.6109 34.5367 85.9684Z" fill="black" stroke="black" stroke-width="0.0546074"/>
<path d="M34.0109 85.9205C34.5175 83.8042 34.1845 83.2586 33.5001 82.3784C33.0416 81.8609 32.7079 81.9867 32.0658 82.4534C30.5255 84.14 29.9905 86.141 30.7481 87.7754C31.2429 88.4132 31.5519 88.7221 32.2567 89.0503C33.5414 89.0153 33.7139 87.9102 34.0109 85.9205Z" fill="#1F881D" stroke="black" stroke-width="0.0546074"/>
<path d="M32.774 86.3911C33.0501 85.1348 33.0198 84.4073 32.9318 83.1056C32.2736 83.9263 32.1114 84.3679 31.9752 85.1463L31.6769 86.8885C32.1418 87.1165 32.3776 87.0431 32.774 86.3911Z" fill="#ECE0FF"/>
<path d="M41.8231 72.2264C42.8674 72.7398 43.2976 73.3893 43.249 76.5132C42.8041 82.2829 42.061 82.3424 41.0597 84.5253C40.2632 85.7894 39.8039 85.882 38.8962 84.5462C38.0026 84.2445 37.5489 83.6908 36.9019 81.8747C37.8931 77.5218 38.4212 76.2094 39.3646 73.9703C40.1634 72.0462 40.7538 72.0633 41.8231 72.2264Z" fill="#14000C"/>
<path d="M41.5401 73.6451C42.4257 74.0805 42.7906 74.6314 42.7494 77.2809C42.3721 82.1743 41.7418 82.2248 40.8926 84.0762C40.217 85.1483 39.8274 85.2269 39.0576 84.0939C38.2997 83.838 37.9149 83.3685 37.3662 81.8281C38.2069 78.1363 38.6548 77.0232 39.4549 75.1242C40.1324 73.4922 40.6331 73.5067 41.5401 73.6451Z" fill="#E40A0A"/>
<path d="M40.2819 83.2909C39.0333 84.3004 38.7719 83.3841 38.3693 81.5325C38.14 80.3015 38.2538 79.4712 38.5984 77.9025C39.7417 74.2138 40.9295 73.1171 41.7439 75.2528C42.0357 76.5916 42.168 77.4162 42.2594 79.2475C42.0723 82.5032 41.4323 82.7968 40.2819 83.2909Z" fill="#1F881D" stroke="black" stroke-width="0.0654138"/>
<path d="M41.0051 79.4507C40.564 80.8146 40.1973 81.1708 39.5214 81.7313C39.5303 79.7515 39.6473 79.1237 39.9411 78.3583L40.6023 76.6598C40.9835 77.586 41.0861 78.1662 41.0051 79.4507Z" fill="#ECE0FF"/>
<path d="M97.5922 84.1559C98.1903 85.671 98.5965 86.0998 99.7176 84.626C101.649 81.311 101.378 80.0435 101.781 77.3983C101.929 75.5046 101.782 74.6962 100.938 73.776C100.476 72.4181 100.096 71.9074 99.1784 71.6365C97.9794 75.2323 97.7081 76.6993 97.2619 79.2728C96.8737 81.4646 97.1121 82.4429 97.5922 84.1559Z" fill="#14000C"/>
<path d="M98.0013 83.0634C98.5086 84.3484 98.8531 84.7121 99.8039 83.4621C101.442 80.6506 101.212 79.5755 101.554 77.332C101.68 75.726 101.555 75.0403 100.839 74.2598C100.447 73.1082 100.125 72.675 99.3466 72.4452C98.3297 75.495 98.0996 76.7392 97.7211 78.9219C97.3919 80.7808 97.5941 81.6106 98.0013 83.0634Z" fill="#E40A0A"/>
<path d="M100.313 80.9853C99.7542 82.7297 99.4324 82.4246 98.8569 81.6931C98.497 81.1716 98.4138 80.5737 98.3337 79.3255C98.3434 76.0853 98.8502 74.3448 99.7221 74.8678C100.139 75.396 100.367 75.7649 100.754 76.7696C101.234 78.8762 100.907 79.6373 100.313 80.9853Z" fill="black" stroke="black" stroke-width="0.0355076"/>
<path d="M100.152 80.3582C99.7314 81.6716 99.4891 81.4419 99.0557 80.891C98.7847 80.4984 98.7221 80.0483 98.6618 79.1084C98.669 76.6687 99.0507 75.3582 99.7072 75.752C100.021 76.1498 100.193 76.4275 100.484 77.184C100.846 78.7701 100.599 79.3431 100.152 80.3582Z" fill="#1F881D" stroke="black" stroke-width="0.0355076"/>
<path d="M100.19 79.26C99.9327 80.0096 99.7291 80.2105 99.355 80.5285C99.3848 79.4532 99.4563 79.1099 99.6255 78.6883L100.006 77.7525C100.201 78.2478 100.25 78.5608 100.19 79.26Z" fill="#ECE0FF"/>
<path d="M99.6297 77.5304L99.0859 78.8672L99.2143 77.1156L99.4589 76.5141L99.4716 77.0052L99.6297 77.5304Z" fill="#FEDEFF"/>
<path d="M84.6079 74.6763C85.1718 74.3673 85.4014 74.0025 85.355 72.3099C85.0764 69.1942 84.6723 69.1836 84.1145 68.0292C83.6737 67.367 83.4236 67.3303 82.9391 68.0812C82.4556 68.271 82.2127 68.5845 81.8729 69.5883C82.4392 71.9198 82.7345 72.616 83.2612 73.8026C83.7074 74.8227 84.0281 74.7961 84.6079 74.6763Z" fill="#E40A0A"/>
<path d="M84.7855 70.8464C85.1173 72.1483 84.9134 72.4996 84.4926 73.0713C84.2102 73.4092 84.001 73.3421 83.5966 73.0728C82.6226 72.0734 82.2738 70.8443 82.7348 69.8001C83.039 69.3859 83.2297 69.183 83.6673 68.9547C84.4696 68.9333 84.5855 69.6163 84.7855 70.8464Z" fill="black" stroke="black" stroke-width="0.0256564"/>
<path d="M84.5423 70.8935C84.7921 71.8738 84.6386 72.1383 84.3218 72.5687C84.1091 72.8232 83.9515 72.7726 83.6471 72.5699C82.9137 71.8174 82.6511 70.8919 82.9982 70.1057C83.2272 69.7939 83.3708 69.6411 83.7003 69.4692C84.3044 69.4531 84.3916 69.9673 84.5423 70.8935Z" fill="#1F881D" stroke="black" stroke-width="0.0256564"/>
<path d="M84.2182 70.5068C84.355 71.0894 84.3447 71.4315 84.3106 72.0446C83.9966 71.6762 83.9179 71.4731 83.8496 71.1112L83.6997 70.3012C83.917 70.1824 84.0282 70.2109 84.2182 70.5068Z" fill="#ECE0FF"/>
<path d="M83.5046 70.7569L83.7188 71.9141L83.2351 71.2039L83.1387 70.6832L83.2912 70.8152L83.5046 70.7569Z" fill="#FEDEFF"/>
<path d="M86.7418 74.0241C87.3872 74.1019 87.6879 73.8754 87.9088 72.0137C88.1113 68.4456 87.6859 68.1393 87.2804 66.4856C86.9202 65.4488 86.6616 65.2266 86.0298 65.6841C85.4885 65.5362 85.1817 65.6975 84.6624 66.5336C84.8891 69.4647 85.0902 70.432 85.4577 72.0978C85.7667 73.525 86.1098 73.7303 86.7418 74.0241Z" fill="#14000C"/>
<path d="M86.6935 73.0791C87.2409 73.1451 87.496 72.953 87.6834 71.374C87.8551 68.3478 87.4943 68.088 87.1504 66.6854C86.8448 65.8061 86.6256 65.6176 86.0897 66.0056C85.6306 65.8802 85.3704 66.017 84.93 66.7261C85.1223 69.2121 85.2928 70.0325 85.6045 71.4454C85.8665 72.6558 86.1575 72.8299 86.6935 73.0791Z" fill="#E40A0A"/>
<path d="M87.3705 69.6986C87.4919 71.0965 87.2616 71.292 86.807 71.5552C86.5081 71.6899 86.3296 71.4989 86.0035 71.002C85.2656 69.4838 85.1192 68.1421 85.6737 67.471C86.0024 67.28 86.2008 67.2121 86.6239 67.2739C87.3461 67.7508 87.3576 68.4481 87.3705 69.6986Z" fill="black" stroke="black" stroke-width="0.0244049"/>
<path d="M87.1488 69.5735C87.2402 70.626 87.0668 70.7732 86.7245 70.9714C86.4994 71.0729 86.365 70.929 86.1195 70.5549C85.5639 69.4118 85.4537 68.4016 85.8711 67.8963C86.1187 67.7524 86.268 67.7013 86.5867 67.7478C87.1304 68.1069 87.139 68.6319 87.1488 69.5735Z" fill="#1F881D" stroke="black" stroke-width="0.0244049"/>
<path d="M86.5731 68.9686C86.617 69.5869 86.5615 69.8939 86.448 70.4344C86.2163 69.9026 86.1733 69.6678 86.161 69.2941L86.1362 68.4594C86.347 68.4851 86.4429 68.58 86.5731 68.9686Z" fill="#ECE0FF"/>
<path d="M88.9495 73.0676C89.5371 73.243 89.8202 73.083 90.0876 71.4061C90.3982 68.1568 90.0198 67.8067 89.707 66.2205C89.4139 65.209 89.1852 64.9631 88.5912 65.2822C88.1012 65.0592 87.815 65.1583 87.3106 65.8438C87.415 68.5762 87.5649 69.4983 87.8426 71.0896C88.0751 72.4519 88.3817 72.6959 88.9495 73.0676Z" fill="#14000C"/>
<path d="M88.9398 72.2044C89.4382 72.3531 89.6783 72.2174 89.9051 70.7952C90.1685 68.0393 89.8476 67.7425 89.5823 66.3971C89.3337 65.5392 89.1397 65.3306 88.6359 65.6013C88.2203 65.4122 87.9776 65.4963 87.5498 66.0777C87.6383 68.3951 87.7655 69.1771 88.001 70.5267C88.1982 71.6822 88.4583 71.8891 88.9398 72.2044Z" fill="#E40A0A"/>
<path d="M89.6756 69.1867C89.7375 70.4919 89.52 70.6347 89.0949 70.8038C88.8168 70.8797 88.6602 70.6753 88.3794 70.1658C87.7577 68.6508 87.6709 67.3933 88.2017 66.8651C88.5091 66.7422 88.693 66.7117 89.0779 66.8365C89.7217 67.3912 89.7077 68.0344 89.6756 69.1867Z" fill="black" stroke="black" stroke-width="0.0224603"/>
<path d="M89.4764 69.0454C89.523 70.0282 89.3592 70.1357 89.0392 70.263C88.8298 70.3201 88.7119 70.1662 88.5005 69.7827C88.0323 68.6419 87.967 67.6951 88.3667 67.2974C88.5981 67.2049 88.7366 67.1819 89.0264 67.2759C89.5111 67.6936 89.5006 68.1778 89.4764 69.0454Z" fill="#1F881D" stroke="black" stroke-width="0.0224603"/>
<path d="M89.2798 68.4975C89.2982 69.0732 89.2367 69.3467 89.1138 69.8255C88.9206 69.2992 88.8895 69.0763 88.8913 68.7306L88.898 67.9589C89.0899 68.0164 89.1743 68.1191 89.2798 68.4975Z" fill="#ECE0FF"/>
<path d="M88.6657 68.1866L88.6562 69.2891L88.3808 68.3612L88.3851 67.8651L88.4863 68.0822L88.6657 68.1866Z" fill="#FEDEFF"/>
<path d="M91.1421 73.7787C91.8044 74.3255 92.1542 74.2998 92.6774 72.4707C93.4493 68.8067 93.0528 68.1742 92.8887 66.1172C92.675 64.7515 92.4397 64.3286 91.7075 64.363C91.165 63.8163 90.8192 63.7681 90.1452 64.2877C89.9219 67.58 89.9801 68.7572 90.1027 70.7997C90.2014 72.5454 90.5278 73.0111 91.1421 73.7787Z" fill="#14000C"/>
<path d="M91.2406 72.7422C91.8023 73.2059 92.0991 73.1841 92.5428 71.6329C93.1974 68.5253 92.8612 67.9888 92.7219 66.2442C92.5407 65.0859 92.3412 64.7272 91.7202 64.7564C91.2601 64.2927 90.9667 64.2519 90.3951 64.6925C90.2057 67.4848 90.2551 68.4832 90.359 70.2156C90.4428 71.6962 90.7196 72.0911 91.2406 72.7422Z" fill="#E40A0A"/>
<path d="M92.4804 69.6187C92.3877 71.1984 92.1163 71.2417 91.6 71.1961C91.2664 71.1252 91.1099 70.7931 90.8472 70.0283C90.3143 67.8772 90.372 66.3396 91.0568 66.0214C91.4304 66.0536 91.6484 66.1237 92.0809 66.4936C92.7607 67.5217 92.6632 68.2743 92.4804 69.6187Z" fill="black" stroke="black" stroke-width="0.0270505"/>
<path d="M92.2662 69.3237C92.1964 70.5131 91.9921 70.5457 91.6033 70.5114C91.3521 70.458 91.2343 70.2079 91.0364 69.632C90.6352 68.0124 90.6787 66.8547 91.1943 66.6151C91.4755 66.6394 91.6397 66.6921 91.9654 66.9707C92.4772 67.7447 92.4038 68.3114 92.2662 69.3237Z" fill="#1F881D" stroke="black" stroke-width="0.0270505"/>
<path d="M91.9234 68.2703C91.8586 69.1439 91.7245 69.5077 91.4674 70.1335C91.2671 69.2061 91.2568 68.8504 91.3147 68.3352L91.4476 67.1869C91.7208 67.4129 91.8286 67.6279 91.9234 68.2703Z" fill="#ECE0FF"/>
<path d="M93.2542 75.6033C93.86 76.7312 94.2176 77.0176 94.9656 75.6842C96.1842 72.7667 95.8579 71.7911 95.9367 69.621C95.883 68.0869 95.695 67.4611 94.9492 66.8427C94.4647 65.8215 94.12 65.466 93.3753 65.3767C92.7567 68.4171 92.6754 69.6272 92.5561 71.7461C92.4482 73.5518 92.7233 74.3007 93.2542 75.6033Z" fill="#14000C"/>
<path d="M93.479 74.6634C93.9928 75.62 94.296 75.8629 94.9304 74.732C95.964 72.2576 95.6872 71.4302 95.7541 69.5896C95.7085 68.2885 95.5491 67.7577 94.9165 67.2333C94.5056 66.3671 94.2133 66.0656 93.5816 65.9899C93.057 68.5685 92.9881 69.5949 92.8869 71.392C92.7953 72.9234 93.0287 73.5586 93.479 74.6634Z" fill="#E40A0A"/>
<path d="M95.1085 72.6896C94.8263 74.1613 94.5462 73.9621 94.0285 73.4573C93.699 73.0904 93.58 72.6241 93.405 71.6375C93.1215 69.0463 93.3632 67.5849 94.0949 67.8819C94.4695 68.2464 94.682 68.5096 95.0761 69.2589C95.6424 70.8761 95.4539 71.5297 95.1085 72.6896Z" fill="black" stroke="black" stroke-width="0.0312883"/>
<path d="M94.9195 72.2095C94.7071 73.3176 94.4962 73.1676 94.1064 72.7875C93.8583 72.5112 93.7687 72.1601 93.6369 71.4173C93.4234 69.4663 93.6054 68.3659 94.1564 68.5896C94.4384 68.864 94.5985 69.0622 94.8952 69.6264C95.3215 70.844 95.1796 71.3362 94.9195 72.2095Z" fill="#1F881D" stroke="black" stroke-width="0.0312883"/>
<path d="M94.851 71.3226C94.7166 71.9574 94.5747 72.1461 94.3095 72.4523C94.2364 71.5886 94.2617 71.3043 94.3567 70.9439L94.5715 70.1432C94.7694 70.5119 94.8355 70.7554 94.851 71.3226Z" fill="#ECE0FF"/>
<path d="M94.2561 70.028L93.9492 71.1719L93.8927 69.7541L94.0308 69.2394L94.0848 69.6301L94.2561 70.028Z" fill="#FEDEFF"/>
<path d="M95.2374 79.9266C95.8515 81.2315 96.2465 81.5608 97.2385 80.0036C98.9183 76.6009 98.619 75.4703 98.8974 72.9473C98.9657 71.1649 98.7988 70.4395 97.9765 69.7281C97.4956 68.546 97.1216 68.1363 96.2554 68.0399C95.2691 71.5796 95.0701 72.9869 94.7487 75.4507C94.4673 77.5503 94.726 78.418 95.2374 79.9266Z" fill="#14000C"/>
<path d="M95.5812 78.8384C96.1021 79.9451 96.4371 80.2244 97.2784 78.9037C98.7031 76.0177 98.4492 75.0588 98.6853 72.919C98.7433 71.4073 98.6017 70.792 97.9044 70.1887C97.4964 69.1861 97.1792 68.8386 96.4446 68.7569C95.6081 71.759 95.4393 72.9526 95.1667 75.0422C94.9281 76.823 95.1474 77.5588 95.5812 78.8384Z" fill="#E40A0A"/>
<path d="M97.6606 76.5279C97.2035 78.2411 96.8919 78.0124 96.3276 77.4307C95.9725 77.0076 95.8728 76.4668 95.7519 75.322C95.6412 72.3132 96.0499 70.6124 96.8831 70.9503C97.2914 71.3702 97.5182 71.6739 97.9165 72.5409C98.4424 74.4148 98.1652 75.1764 97.6606 76.5279Z" fill="black" stroke="black" stroke-width="0.0331656"/>
<path d="M97.4837 75.9682C97.1395 77.2582 96.9049 77.086 96.48 76.648C96.2126 76.3294 96.1376 75.9223 96.0465 75.0603C95.9632 72.7949 96.271 71.5142 96.8983 71.7687C97.2057 72.0848 97.3765 72.3135 97.6764 72.9663C98.0723 74.3772 97.8636 74.9506 97.4837 75.9682Z" fill="#1F881D" stroke="black" stroke-width="0.0331656"/>
<path d="M97.4774 74.9388C97.2654 75.6779 97.0828 75.8987 96.7453 76.2571C96.7335 75.2541 96.7875 74.9234 96.9299 74.5036L97.2506 73.5708C97.4511 73.9974 97.5078 74.2797 97.4774 74.9388Z" fill="#ECE0FF"/>
<path d="M96.8878 73.4253L96.4297 74.7578L96.4848 73.1106L96.6909 72.511L96.7209 72.9646L96.8878 73.4253Z" fill="#FEDEFF"/>
<path d="M86.7714 75.5827C85.3486 76.2822 84.7625 77.1671 84.8288 81.4233C85.4349 89.2841 86.4473 89.3653 87.8115 92.3393C88.8967 94.0617 89.5226 94.1878 90.7592 92.3678C91.9767 91.9567 92.5948 91.2024 93.4764 88.7281C92.1259 82.7974 91.4063 81.0094 90.121 77.9587C89.0327 75.3371 88.2283 75.3604 86.7714 75.5827Z" fill="#14000C"/>
<path d="M87.1553 77.5049C85.9486 78.0982 85.4515 78.8487 85.5077 82.4585C86.0217 89.1256 86.8805 89.1944 88.0375 91.7168C88.9578 93.1776 89.4887 93.2845 90.5375 91.741C91.5701 91.3923 92.0944 90.7525 92.842 88.6539C91.6966 83.6239 91.0864 82.1074 89.9963 79.52C89.0732 77.2966 88.391 77.3163 87.1553 77.5049Z" fill="#E40A0A"/>
<path d="M86.6743 85.6325C86.0015 82.8217 86.4438 82.0972 87.3527 80.928C87.9617 80.2407 88.4048 80.4078 89.2577 81.0277C91.3033 83.2678 92.0139 85.9253 91.0077 88.096C90.3506 88.943 89.9401 89.3534 89.0041 89.7892C87.2978 89.7427 87.0687 88.275 86.6743 85.6325Z" fill="black" stroke="black" stroke-width="0.0546074"/>
<path d="M87.2 85.5846C86.6934 83.4683 87.0265 82.9227 87.7108 82.0424C88.1693 81.5249 88.503 81.6507 89.1452 82.1175C90.6854 83.8041 91.2204 85.8051 90.4628 87.4395C89.9681 88.0772 89.659 88.3862 88.9543 88.7143C87.6695 88.6794 87.497 87.5742 87.2 85.5846Z" fill="#1F881D" stroke="black" stroke-width="0.0546074"/>
<path d="M88.437 86.0551C88.1608 84.7988 88.1911 84.0714 88.2791 82.7697C88.9373 83.5904 89.0995 84.0319 89.2357 84.8104L89.534 86.5526C89.0691 86.7805 88.8334 86.7072 88.437 86.0551Z" fill="#ECE0FF"/>
<path d="M79.3917 71.8827C78.3474 72.3961 77.9173 73.0456 77.9659 76.1695C78.4107 81.9391 79.1538 81.9987 80.1551 84.1815C80.9516 85.4457 81.411 85.5382 82.3186 84.2024C83.2123 83.9007 83.6659 83.3471 84.3129 81.531C83.3217 77.178 82.7936 75.8657 81.8502 73.6266C81.0515 71.7024 80.461 71.7195 79.3917 71.8827Z" fill="#14000C"/>
<path d="M79.6709 73.3014C78.7852 73.7368 78.4204 74.2876 78.4616 76.9371C78.8389 81.8306 79.4691 81.8811 80.3184 83.7324C80.9939 84.8046 81.3835 84.8831 82.1533 83.7502C82.9112 83.4943 83.296 83.0247 83.8448 81.4844C83.0041 77.7925 82.5561 76.6795 81.756 74.7804C81.0786 73.1485 80.5778 73.163 79.6709 73.3014Z" fill="#E40A0A"/>
<path d="M80.9252 82.955C82.1737 83.9645 82.4351 83.0482 82.8377 81.1966C83.067 79.9656 82.9532 79.1353 82.6087 77.5665C81.4653 73.8779 80.2775 72.7812 79.4631 74.9169C79.1713 76.2556 79.039 77.0803 78.9476 78.9115C79.1347 82.1672 79.7747 82.4609 80.9252 82.955Z" fill="#1F881D" stroke="black" stroke-width="0.0654138"/>
<path d="M80.2058 79.1069C80.647 80.4708 81.0137 80.827 81.6895 81.3875C81.6807 79.4077 81.5637 78.7799 81.2699 78.0145L80.6086 76.316C80.2274 77.2422 80.1248 77.8224 80.2058 79.1069Z" fill="#ECE0FF"/>
</svg>
