<svg width="202" height="111" viewBox="0 0 202 111" fill="none" xmlns="http://www.w3.org/2000/svg">
<path d="M4.65027 3.22716C30.2416 -5.66094 50.981 3.35007 95.5258 36.0005C97.5406 36.8642 98.511 37.0315 98.5055 33.8006C97.3395 31.6016 96.5308 30.3253 99.7825 29.4042C103.968 28.8757 104.981 29.7349 104.804 33.2011C104.336 35.377 104.282 36.4277 107.018 36.0005C114.372 30.0115 118.495 26.6559 125.96 21.2108C143.393 9.85618 154.037 4.90371 176.612 1.82664C194.334 1.55208 201.607 3.3461 201.938 15.8152C202.945 23.3695 191.681 34.1703 173.845 52.1856L168.524 53.9841L173.845 61.578C177.314 66.0763 176.431 71.7355 172.781 84.1596C165.579 102.876 155.457 106.187 135.75 110.138C125.1 110.644 120.644 103.55 112.765 90.5544C107.544 80.6612 106.148 74.1053 104.89 61.578L104.885 62.125C104.746 77.5796 104.666 86.412 99.144 89.3553C95.6509 82.1286 94.623 76.3059 93.5135 66.5245C92.6194 77.1241 85.2739 101.291 71.2642 109.339L58.0691 107.541C38.8818 104.431 32.8506 98.2432 27.2098 82.361C21.4863 69.9301 33.9623 50.8359 32.7432 50.1872C31.524 49.5385 26.2007 48.1062 18.271 38.197C0.987376 18.3726 -5.10637 9.1052 4.65027 3.22716Z" fill="#E4A10A"/>
<path d="M38.6602 79.7301C37.7027 80.9357 37.0522 81.2769 35.2573 80.1042C32.1657 77.4662 32.5988 76.4576 31.9537 74.3526C31.7164 72.8457 31.9516 72.2025 33.3037 71.4701C34.0427 70.3896 34.6519 69.9832 36.1206 69.7676C38.0403 72.629 38.4747 73.7964 39.1892 75.8443C39.8106 77.5884 39.4289 78.3669 38.6602 79.7301Z" fill="#14000C"/>
<path d="M38.0132 78.8496C37.2011 79.8722 36.6495 80.1616 35.1271 79.1669C32.505 76.9296 32.8724 76.0741 32.3252 74.2888C32.124 73.0108 32.3234 72.4652 33.4702 71.8441C34.097 70.9277 34.6137 70.5829 35.8593 70.4001C37.4874 72.827 37.8559 73.817 38.4618 75.554C38.9889 77.0332 38.6652 77.6935 38.0132 78.8496Z" fill="#E40A0A"/>
<path d="M34.3054 77.2029C35.2 78.591 35.7152 78.3483 36.6368 77.7661C37.213 77.3511 37.3461 76.8754 37.4744 75.8821C37.459 73.3036 36.6475 71.9186 35.2514 72.3348C34.5845 72.7552 34.2187 73.0487 33.5992 73.8482C32.8306 75.5246 33.3543 76.1302 34.3054 77.2029Z" fill="black" stroke="black" stroke-width="0.114833"/>
<path d="M34.5701 76.7022C35.2437 77.7474 35.6316 77.5646 36.3255 77.1263C36.7593 76.8138 36.8596 76.4556 36.9562 75.7078C36.9446 73.7663 36.3336 72.7235 35.2824 73.0368C34.7802 73.3534 34.5049 73.5744 34.0384 74.1763C33.4597 75.4385 33.854 75.8945 34.5701 76.7022Z" fill="#1F881D" stroke="black" stroke-width="0.114833"/>
<path d="M34.5116 75.8242C34.9229 76.4207 35.2489 76.5806 35.8479 76.8336C35.8001 75.9779 35.6856 75.7048 35.4147 75.3693L34.8053 74.6247C34.4927 75.0187 34.4152 75.2678 34.5116 75.8242Z" fill="#ECE0FF"/>
<path d="M35.4068 74.4519L36.2773 75.5156L36.0719 74.1218L35.6801 73.6431L35.6599 74.0339L35.4068 74.4519Z" fill="#FEDEFF"/>
<path d="M59.4567 72.1792C58.5538 71.9334 58.1863 71.6431 58.2606 70.2961C58.7066 67.8168 59.3535 67.8084 60.2467 66.8898C60.9524 66.3628 61.3529 66.3336 62.1286 66.9311C62.9027 67.0822 63.2916 67.3317 63.8357 68.1304C62.929 69.9857 62.4562 70.5397 61.6128 71.484C60.8984 72.2957 60.3851 72.2746 59.4567 72.1792Z" fill="#E40A0A"/>
<path d="M59.1693 69.1342C58.638 70.1703 58.9645 70.4498 59.6382 70.9047C60.0904 71.1736 60.4255 71.1202 61.0729 70.9059C62.6324 70.1106 63.1907 69.1325 62.4527 68.3016C61.9657 67.9721 61.6603 67.8105 60.9597 67.6289C59.6751 67.6119 59.4896 68.1553 59.1693 69.1342Z" fill="black" stroke="black" stroke-width="0.0829738"/>
<path d="M59.5631 69.167C59.1631 69.9471 59.4089 70.1576 59.9162 70.5001C60.2567 70.7026 60.5089 70.6624 60.9964 70.501C62.1706 69.9022 62.591 69.1658 62.0353 68.5401C61.6686 68.292 61.4387 68.1704 60.9112 68.0336C59.9439 68.0208 59.8043 68.43 59.5631 69.167Z" fill="#1F881D" stroke="black" stroke-width="0.0829738"/>
<path d="M60.0762 68.8598C59.8572 69.3233 59.8736 69.5956 59.9283 70.0835C60.4309 69.7903 60.5569 69.6287 60.6663 69.3407L60.9063 68.6961C60.5584 68.6016 60.3803 68.6243 60.0762 68.8598Z" fill="#ECE0FF"/>
<path d="M61.2257 69.0479L60.8828 69.9688L61.6573 69.4037L61.8115 68.9893L61.5673 69.0943L61.2257 69.0479Z" fill="#FEDEFF"/>
<path d="M56.0333 71.6621C55 71.7241 54.5185 71.5439 54.1648 70.0623C53.8406 67.223 54.5217 66.9793 55.171 65.6633C55.7477 64.8383 56.1617 64.6615 57.1733 65.0255C58.04 64.9078 58.5311 65.0362 59.3626 65.7015C58.9996 68.034 58.6777 68.8037 58.0892 70.1293C57.5945 71.265 57.0452 71.4284 56.0333 71.6621Z" fill="#14000C"/>
<path d="M56.1127 70.9109C55.2363 70.9635 54.8278 70.8106 54.5278 69.5541C54.2529 67.146 54.8305 66.9393 55.3812 65.8231C55.8704 65.1234 56.2215 64.9735 57.0795 65.2822C57.8146 65.1824 58.2311 65.2913 58.9363 65.8555C58.6284 67.8338 58.3554 68.4866 57.8563 69.6109C57.4368 70.5742 56.9708 70.7127 56.1127 70.9109Z" fill="#E40A0A"/>
<path d="M55.0291 68.21C54.8348 69.3224 55.2035 69.4779 55.9313 69.6874C56.4099 69.7946 56.6957 69.6426 57.2178 69.2472C58.3993 68.039 58.6337 66.9714 57.7459 66.4374C57.2196 66.2854 56.902 66.2313 56.2245 66.2805C55.0682 66.66 55.0498 67.2149 55.0291 68.21Z" fill="black" stroke="black" stroke-width="0.0789263"/>
<path d="M55.3854 68.1143C55.2391 68.9519 55.5168 69.0691 56.0648 69.2267C56.4251 69.3075 56.6403 69.193 57.0334 68.8953C57.923 67.9856 58.0995 67.1818 57.431 66.7797C57.0348 66.6652 56.7956 66.6245 56.2855 66.6616C55.4149 66.9473 55.401 67.3651 55.3854 68.1143Z" fill="#1F881D" stroke="black" stroke-width="0.0789263"/>
<path d="M56.3072 67.6435C56.2371 68.1354 56.3259 68.3798 56.5077 68.8098C56.8785 68.3866 56.9475 68.1998 56.9672 67.9025L57.0069 67.2382C56.6693 67.2587 56.5158 67.3342 56.3072 67.6435Z" fill="#ECE0FF"/>
<path d="M52.504 70.9011C51.5632 71.0406 51.11 70.9133 50.6817 69.5789C50.1845 66.9932 50.7903 66.7147 51.2912 65.4524C51.7605 64.6475 52.1266 64.4518 53.0777 64.7058C53.8622 64.5283 54.3205 64.6072 55.1281 65.1527C54.9609 67.327 54.7208 68.0607 54.2762 69.327C53.904 70.4111 53.4131 70.6053 52.504 70.9011Z" fill="#14000C"/>
<path d="M52.5193 70.2011C51.7214 70.3195 51.337 70.2115 50.9738 69.0797C50.552 66.8867 51.0658 66.6505 51.4907 65.5799C51.8887 64.8972 52.1992 64.7312 53.0059 64.9467C53.6712 64.7962 54.0599 64.863 54.7448 65.3257C54.6031 67.1698 54.3994 67.7921 54.0224 68.8661C53.7067 69.7856 53.2903 69.9502 52.5193 70.2011Z" fill="#E40A0A"/>
<path d="M51.3362 67.8124C51.2371 68.8511 51.5854 68.9647 52.2659 69.0992C52.7113 69.1596 52.962 68.997 53.4115 68.5916C54.407 67.386 54.5459 66.3853 53.6961 65.965C53.2039 65.8672 52.9095 65.8429 52.2933 65.9422C51.2624 66.3837 51.2849 66.8955 51.3362 67.8124Z" fill="black" stroke="black" stroke-width="0.0726376"/>
<path d="M51.6604 67.6915C51.5857 68.4735 51.848 68.5591 52.3604 68.6604C52.6957 68.7059 52.8845 68.5834 53.223 68.2781C53.9725 67.3704 54.0771 66.6169 53.4372 66.3005C53.0666 66.2268 52.845 66.2085 52.381 66.2833C51.6048 66.6157 51.6217 67.0011 51.6604 67.6915Z" fill="#1F881D" stroke="black" stroke-width="0.0726376"/>
<path d="M51.9742 67.2599C51.9448 67.718 52.0433 67.9356 52.24 68.3166C52.5493 67.8978 52.5991 67.7205 52.5961 67.4454L52.5855 66.8312C52.2782 66.877 52.1431 66.9588 51.9742 67.2599Z" fill="#ECE0FF"/>
<path d="M52.9497 67.0133L52.9648 67.8906L53.4058 67.1523L53.399 66.7575L53.237 66.9303L52.9497 67.0133Z" fill="#FEDEFF"/>
<path d="M48.9851 71.4683C47.9248 71.9034 47.3646 71.8829 46.5269 70.4275C45.2911 67.5118 45.9259 67.0084 46.1887 65.3716C46.5309 64.2848 46.9076 63.9482 48.0798 63.9756C48.9484 63.5406 49.5022 63.5023 50.5813 63.9157C50.9388 66.5356 50.8455 67.4723 50.6494 69.0977C50.4912 70.4869 49.9687 70.8574 48.9851 71.4683Z" fill="#14000C"/>
<path d="M48.835 70.6433C47.9358 71.0123 47.4606 70.9949 46.7502 69.7605C45.7021 67.2876 46.2404 66.8607 46.4634 65.4724C46.7535 64.5507 47.073 64.2652 48.0672 64.2885C48.8039 63.9195 49.2736 63.887 50.1888 64.2377C50.492 66.4597 50.4129 67.2542 50.2466 68.6327C50.1124 69.8109 49.6693 70.1252 48.835 70.6433Z" fill="#E40A0A"/>
<path d="M46.8468 68.1484C46.9951 69.4054 47.4297 69.4399 48.2564 69.4036C48.7904 69.3472 49.0411 69.0828 49.4617 68.4743C50.3149 66.7625 50.2225 65.539 49.126 65.2858C48.528 65.3114 48.1789 65.3672 47.4864 65.6616C46.398 66.4796 46.5541 67.0786 46.8468 68.1484Z" fill="black" stroke="black" stroke-width="0.0874824"/>
<path d="M47.1927 67.9213C47.3044 68.8677 47.6316 68.8937 48.2541 68.8664C48.6562 68.8239 48.8449 68.6249 49.1616 68.1667C49.804 66.8778 49.7345 65.9566 48.9089 65.7659C48.4586 65.7852 48.1958 65.8272 47.6743 66.0488C46.8548 66.6648 46.9723 67.1158 47.1927 67.9213Z" fill="#1F881D" stroke="black" stroke-width="0.0874824"/>
<path d="M47.741 67.0793C47.8448 67.7744 48.0595 68.064 48.4711 68.562C48.7918 67.8239 48.8083 67.5409 48.7156 67.1309L48.5029 66.2172C48.0654 66.397 47.8929 66.5681 47.741 67.0793Z" fill="#ECE0FF"/>
<path d="M45.6048 72.9161C44.6349 73.8136 44.0625 74.0416 42.8648 72.9804C40.9137 70.6589 41.4361 69.8825 41.3099 68.1556C41.396 66.9348 41.6969 66.4369 42.8911 65.9448C43.6668 65.1321 44.2187 64.8492 45.4111 64.7782C46.4014 67.1976 46.5316 68.1606 46.7225 69.8467C46.8954 71.2835 46.4549 71.8795 45.6048 72.9161Z" fill="#14000C"/>
<path d="M45.2528 72.1722C44.4302 72.9335 43.9447 73.1268 42.9289 72.2268C41.2741 70.2578 41.7172 69.5994 41.6102 68.1347C41.6832 67.0993 41.9384 66.677 42.9513 66.2596C43.6091 65.5704 44.0772 65.3304 45.0885 65.2702C45.9285 67.3222 46.0388 68.1389 46.2008 69.569C46.3474 70.7876 45.9738 71.2931 45.2528 72.1722Z" fill="#E40A0A"/>
<path d="M42.6432 70.5979C43.0949 71.7691 43.5433 71.6106 44.3723 71.2088C44.8998 70.9168 45.0903 70.5458 45.3706 69.7607C45.8245 67.6987 45.4376 66.5358 44.266 66.7722C43.6662 67.0622 43.3259 67.2716 42.6949 67.8679C41.7883 69.1548 42.0901 69.6749 42.6432 70.5979Z" fill="black" stroke="black" stroke-width="0.101188"/>
<path d="M42.9393 70.2199C43.2794 71.1017 43.6171 70.9823 44.2412 70.6798C44.6384 70.46 44.7819 70.1806 44.9929 69.5895C45.3347 68.037 45.0433 67.1613 44.1612 67.3393C43.7096 67.5577 43.4534 67.7153 42.9783 68.1643C42.2957 69.1333 42.5229 69.5249 42.9393 70.2199Z" fill="#1F881D" stroke="black" stroke-width="0.101188"/>
<path d="M43.0521 69.5108C43.2672 70.0159 43.4944 70.1662 43.919 70.4097C44.0362 69.7225 43.9957 69.4963 43.8435 69.2094L43.4995 68.5723C43.1828 68.8657 43.0769 69.0594 43.0521 69.5108Z" fill="#ECE0FF"/>
<path d="M44.0008 68.4726L44.4922 69.3828L44.5828 68.2546L44.3616 67.845L44.2751 68.156L44.0008 68.4726Z" fill="#FEDEFF"/>
<path d="M42.4296 76.3573C41.4462 77.3957 40.8138 77.6577 39.2256 76.4186C36.5361 73.7108 37.0153 72.8111 36.5696 70.8034C36.4602 69.385 36.7275 68.8078 38.0439 68.2418C38.814 67.3011 39.4128 66.975 40.7996 66.8983C42.3787 69.7151 42.6973 70.8349 43.212 72.7955C43.6625 74.4663 43.2483 75.1568 42.4296 76.3573Z" fill="#14000C"/>
<path d="M41.8902 75.4868C41.0562 76.3675 40.5198 76.5898 39.1728 75.5388C36.8918 73.2422 37.2982 72.4791 36.9202 70.7764C36.8273 69.5734 37.054 69.0838 38.1706 68.6037C38.8237 67.8059 39.3316 67.5294 40.5078 67.4643C41.847 69.8533 42.1173 70.8031 42.5538 72.4659C42.9359 73.883 42.5846 74.4686 41.8902 75.4868Z" fill="#E40A0A"/>
<path d="M38.5565 73.6494C39.2883 75.0127 39.7872 74.8307 40.6906 74.3679C41.2593 74.0312 41.4189 73.6008 41.6124 72.6898C41.7897 70.2956 41.1352 68.9421 39.8012 69.211C39.1475 69.5451 38.7843 69.7868 38.1467 70.4768C37.3047 71.9679 37.7485 72.574 38.5565 73.6494Z" fill="black" stroke="black" stroke-width="0.107259"/>
<path d="M38.8381 73.209C39.3892 74.2355 39.7648 74.0985 40.445 73.75C40.8732 73.4964 40.9933 73.1724 41.1391 72.4865C41.2725 70.6838 40.7797 69.6647 39.7753 69.8672C39.2831 70.1187 39.0097 70.3007 38.5296 70.8202C37.8956 71.9429 38.2297 72.3992 38.8381 73.209Z" fill="#1F881D" stroke="black" stroke-width="0.107259"/>
<path d="M38.848 72.3922C39.1875 72.9803 39.4799 73.1561 40.0202 73.4413C40.0392 72.6431 39.9527 72.38 39.7247 72.0459L39.2112 71.3037C38.8902 71.6431 38.7993 71.8678 38.848 72.3922Z" fill="#ECE0FF"/>
<path d="M39.786 71.1819L40.5195 72.2422L40.4314 70.9314L40.1013 70.4543L40.0533 70.8152L39.786 71.1819Z" fill="#FEDEFF"/>
<path d="M31.3184 20.5176C30.6241 18.117 29.8899 17.1634 26.7013 17.5283C20.8698 19.0326 20.9291 20.7751 18.8577 23.292C17.6931 25.2561 17.6727 26.3377 19.1864 28.3527C19.6397 30.418 20.2796 31.4343 22.2426 32.8012C26.5361 30.1333 27.7934 28.7928 29.9318 26.4068C31.7714 24.3842 31.6584 23.005 31.3184 20.5176Z" fill="#14000C"/>
<path d="M29.9134 21.2941C29.3245 19.258 28.7018 18.4492 25.9975 18.7587C21.0516 20.0346 21.1019 21.5124 19.345 23.6471C18.3573 25.3129 18.34 26.2303 19.6238 27.9392C20.0083 29.691 20.551 30.5529 22.2159 31.7122C25.8574 29.4495 26.9238 28.3125 28.7374 26.2889C30.2976 24.5735 30.2017 23.4037 29.9134 21.2941Z" fill="#E40A0A"/>
<path d="M23.758 20.9462C25.789 19.6255 26.3856 20.3419 27.3716 21.8328C27.9601 22.8374 27.8872 23.6078 27.523 25.1081C26.0837 28.7512 24.1723 30.1276 22.4226 28.529C21.7085 27.4512 21.3515 26.7709 20.9131 25.1902C20.7453 22.259 21.8204 21.7791 23.758 20.9462Z" fill="black" stroke="black" stroke-width="0.178111"/>
<path d="M23.8537 21.8425C25.3829 20.8481 25.8322 21.3875 26.5746 22.5101C27.0177 23.2664 26.9628 23.8465 26.6886 24.9762C25.6048 27.7192 24.1657 28.7556 22.8482 27.5519C22.3105 26.7404 22.0418 26.2281 21.7117 25.038C21.5853 22.8309 22.3948 22.4696 23.8537 21.8425Z" fill="#1F881D" stroke="black" stroke-width="0.178111"/>
<path d="M23.2873 23.0419C24.198 22.4938 24.7479 22.5029 25.736 22.577C25.1978 23.7552 24.8854 24.0596 24.317 24.3393L23.044 24.9542C22.8176 24.1697 22.8447 23.7607 23.2873 23.0419Z" fill="#ECE0FF"/>
<path d="M23.7987 25.644L25.6172 24.7656L24.5598 26.5925L23.7415 26.9877L23.9276 26.4193L23.7987 25.644Z" fill="#FEDEFF"/>
<path d="M56.5972 45.0105C54.929 44.652 54.1268 44.824 53.3779 47.1379C52.5162 51.6609 53.5917 52.2262 54.4888 54.5222C55.3264 56.004 55.9766 56.3941 57.6601 56.0565C59.0515 56.4637 59.863 56.3782 61.29 55.5071C60.9775 51.6344 60.5466 50.3058 59.7493 48.0094C59.0816 46.0443 58.2102 45.6423 56.5972 45.0105Z" fill="#14000C"/>
<path d="M56.6408 46.2432C55.2259 45.9391 54.5456 46.085 53.9104 48.0475C53.1796 51.8836 54.0917 52.363 54.8526 54.3104C55.563 55.5671 56.1144 55.898 57.5423 55.6117C58.7224 55.9571 59.4107 55.8845 60.6209 55.1457C60.3558 51.8611 59.9904 50.7344 59.3142 48.7867C58.7479 47.12 58.0088 46.779 56.6408 46.2432Z" fill="#E40A0A"/>
<path d="M54.557 50.3487C54.3736 48.4964 54.9899 48.3362 56.1948 48.1784C56.9835 48.1241 57.4289 48.4419 58.2286 49.2135C60.0016 51.4675 60.2552 53.2572 58.7525 53.9015C57.8811 54.0165 57.3596 54.0248 56.2668 53.7759C54.4369 52.8717 54.4728 51.9674 54.557 50.3487Z" fill="black" stroke="black" stroke-width="0.128696"/>
<path d="M55.1326 50.5924C54.9945 49.1978 55.4586 49.0772 56.3658 48.9583C56.9597 48.9174 57.295 49.1567 57.8971 49.7377C59.2321 51.4349 59.423 52.7824 58.2916 53.2675C57.6355 53.3541 57.2428 53.3603 56.42 53.1729C55.0422 52.4921 55.0692 51.8112 55.1326 50.5924Z" fill="#1F881D" stroke="black" stroke-width="0.128696"/>
<path d="M55.6929 51.3953C55.6374 50.5801 55.8103 50.206 56.156 49.5541C56.7072 50.3329 56.7969 50.6531 56.7937 51.1402L56.7794 52.2272C56.2344 52.1097 55.9945 51.9489 55.6929 51.3953Z" fill="#ECE0FF"/>
<path d="M57.425 51.9512L57.4453 50.3984L58.2322 51.759L58.2231 52.4577L57.9347 52.1324L57.425 51.9512Z" fill="#FEDEFF"/>
<path d="M51.5021 44.5105C50.0717 43.676 49.2902 43.5834 47.9745 45.4274C45.9542 49.217 46.7855 50.0546 46.9822 52.3889C47.3461 53.9749 47.8355 54.5246 49.4693 54.7398C50.6329 55.5329 51.3995 55.7059 52.9435 55.3639C53.7113 51.796 53.6783 50.4725 53.573 48.1685C53.4963 46.2015 52.8076 45.573 51.5021 44.5105Z" fill="#14000C"/>
<path d="M51.2026 45.6245C49.9895 44.9167 49.3266 44.8382 48.2107 46.4021C46.4973 49.6162 47.2023 50.3266 47.3692 52.3064C47.6778 53.6515 48.0928 54.1178 49.4786 54.3003C50.4655 54.9729 51.1156 55.1196 52.4252 54.8296C53.0764 51.8035 53.0483 50.681 52.9591 48.727C52.894 47.0587 52.3099 46.5256 51.2026 45.6245Z" fill="#E40A0A"/>
<path d="M48.1803 48.6636C48.5165 46.9467 49.1246 46.9927 50.2712 47.2218C51.0084 47.4157 51.3298 47.8377 51.8523 48.7753C52.8627 51.3414 52.6079 53.0238 51.0562 53.1391C50.2267 52.9742 49.7468 52.8212 48.8137 52.2619C47.3837 50.8884 47.6627 50.0888 48.1803 48.6636Z" fill="black" stroke="black" stroke-width="0.122418"/>
<path d="M48.6354 49.0662C48.8885 47.7735 49.3464 47.8081 50.2097 47.9806C50.7648 48.1266 51.0068 48.4443 51.4002 49.1503C52.161 51.0824 51.9691 52.3492 50.8008 52.436C50.1762 52.3118 49.8149 52.1966 49.1123 51.7755C48.0356 50.7414 48.2457 50.1393 48.6354 49.0662Z" fill="#1F881D" stroke="black" stroke-width="0.122418"/>
<path d="M49.6786 50.4023C49.8497 49.6544 50.1098 49.3723 50.6039 48.8942C50.8968 49.7619 50.8918 50.0765 50.7563 50.5122L50.4474 51.4822C49.9802 51.2093 49.8042 50.9913 49.6786 50.4023Z" fill="#ECE0FF"/>
<path d="M46.0748 43.0298C44.8181 42.1521 44.1058 42.005 42.7653 43.5867C40.6393 46.8918 41.3447 47.7243 41.3607 49.8752C41.5833 51.3551 41.9945 51.897 43.4821 52.2244C44.4963 53.0428 45.1891 53.2622 46.6335 53.0727C47.5919 49.8705 47.655 48.6571 47.721 46.5413C47.7895 44.7359 47.2004 44.106 46.0748 43.0298Z" fill="#14000C"/>
<path d="M45.7256 44.0293C44.6598 43.2849 44.0557 43.1601 42.9188 44.5016C41.1156 47.3047 41.7138 48.0108 41.7274 49.8351C41.9162 51.0902 42.265 51.5499 43.5266 51.8275C44.3868 52.5216 44.9745 52.7078 46.1995 52.547C47.0123 49.8311 47.0658 48.802 47.1218 47.0075C47.1799 45.4763 46.6803 44.942 45.7256 44.0293Z" fill="#E40A0A"/>
<path d="M42.7296 46.5661C43.1601 45.0225 43.7162 45.1131 44.7546 45.4143C45.419 45.6506 45.6848 46.0622 46.0991 46.9617C46.8471 49.3896 46.4938 50.9082 45.0584 50.8897C44.3072 50.6726 43.8766 50.4943 43.0578 49.9082C41.8396 48.5376 42.1528 47.8285 42.7296 46.5661Z" fill="black" stroke="black" stroke-width="0.112664"/>
<path d="M43.1262 46.969C43.4504 45.8067 43.869 45.875 44.6509 46.1018C45.1511 46.2796 45.3513 46.5896 45.6632 47.2668C46.2264 49.0949 45.9604 50.2383 44.8797 50.2244C44.314 50.0609 43.9898 49.9267 43.3733 49.4854C42.4561 48.4534 42.6919 47.9195 43.1262 46.969Z" fill="#1F881D" stroke="black" stroke-width="0.112664"/>
<path d="M43.3288 47.8126C43.5389 47.1421 43.7981 46.9048 44.2864 46.5069C44.4945 47.3241 44.4677 47.6114 44.3122 47.9991L43.9595 48.8618C43.5491 48.5748 43.4026 48.3614 43.3288 47.8126Z" fill="#ECE0FF"/>
<path d="M44.5782 48.8652L45.082 47.6328L45.3011 48.9979L45.0743 49.5524L44.9397 49.1905L44.5782 48.8652Z" fill="#FEDEFF"/>
<path d="M41.4123 39.6776C40.1488 38.2948 39.3437 37.9189 37.3564 39.3763C34.0022 42.6153 34.6251 43.7874 34.0977 46.2971C33.9852 48.0845 34.334 48.8337 36.0104 49.642C37.0022 50.8863 37.766 51.3408 39.5225 51.5347C41.4694 48.0802 41.8522 46.6852 42.4677 44.2399C43.0072 42.1569 42.4705 41.2541 41.4123 39.6776Z" fill="#14000C"/>
<path d="M40.7413 40.7393C39.6697 39.5665 38.9869 39.2477 37.3014 40.4837C34.4566 43.2309 34.9849 44.225 34.5376 46.3535C34.4421 47.8695 34.738 48.5049 36.1598 49.1905C37.001 50.2458 37.6488 50.6313 39.1386 50.7957C40.7898 47.8658 41.1144 46.6827 41.6365 44.6088C42.0941 42.8421 41.6388 42.0764 40.7413 40.7393Z" fill="#E40A0A"/>
<path d="M36.5537 42.8428C37.455 41.1685 38.0897 41.4337 39.2415 42.0826C39.9673 42.5484 40.1772 43.1042 40.4388 44.2707C40.7069 47.3131 39.9034 48.9803 38.2102 48.5468C37.3768 48.0783 36.9127 47.747 36.0932 46.8294C35.0003 44.8834 35.5508 44.1474 36.5537 42.8428Z" fill="black" stroke="black" stroke-width="0.135689"/>
<path d="M36.9164 43.417C37.595 42.1564 38.0729 42.3561 38.9401 42.8446C39.4866 43.1954 39.6446 43.6138 39.8416 44.4921C40.0435 46.7829 39.4385 48.0382 38.1636 47.7118C37.5361 47.359 37.1867 47.1096 36.5696 46.4187C35.7467 44.9535 36.1612 44.3993 36.9164 43.417Z" fill="#1F881D" stroke="black" stroke-width="0.135689"/>
<path d="M37.2313 45.0002C37.7604 44.0899 38.2239 43.8348 39.081 43.4265C39.1298 44.7042 38.9975 45.1172 38.6408 45.6313L37.8371 46.7726C37.3159 46.2015 37.1655 45.8344 37.2313 45.0002Z" fill="#ECE0FF"/>
<path d="M37.414 35.1832C36.5329 33.2102 35.8469 32.4735 33.5662 33.1119C29.5249 34.992 29.8385 36.4698 28.7103 38.8259C28.1612 40.6182 28.3139 41.5414 29.7358 43.1018C30.3884 44.8141 31.015 45.6138 32.6658 46.5762C35.3994 43.8631 36.1132 42.5924 37.3107 40.3409C38.3456 38.4295 38.0489 37.2665 37.414 35.1832Z" fill="#14000C"/>
<path d="M36.5064 35.9877C35.7591 34.3143 35.1773 33.6895 33.243 34.2309C29.8154 35.8255 30.0813 37.0789 29.1245 39.0772C28.6587 40.5973 28.7883 41.3803 29.9943 42.7037C30.5477 44.156 31.0792 44.8343 32.4793 45.6505C34.7977 43.3494 35.4031 42.2717 36.4188 40.3621C37.2965 38.7409 37.0449 37.7546 36.5064 35.9877Z" fill="#E40A0A"/>
<path d="M31.9377 36.3307C33.2216 34.9974 33.7701 35.5462 34.724 36.7146C35.3111 37.5096 35.3771 38.1731 35.3427 39.4883C34.8525 42.7385 33.6648 44.107 32.1344 42.9254C31.4438 42.0809 31.0767 41.5382 30.5103 40.2372C29.9328 37.7582 30.6465 37.2391 31.9377 36.3307Z" fill="black" stroke="black" stroke-width="0.156946"/>
<path d="M32.1484 37.0842C33.1151 36.0803 33.5281 36.4935 34.2463 37.3732C34.6884 37.9718 34.7381 38.4714 34.7122 39.4617C34.3431 41.9089 33.4488 42.9393 32.2965 42.0496C31.7765 41.4138 31.5001 41.0052 31.0736 40.0255C30.6389 38.159 31.1762 37.7682 32.1484 37.0842Z" fill="#1F881D" stroke="black" stroke-width="0.156946"/>
<path d="M31.9208 38.1685C32.5033 37.6081 32.9078 37.5593 33.6436 37.521C33.4317 38.5796 33.25 38.871 32.8767 39.1675L32.0389 39.8219C31.7513 39.1771 31.7078 38.8261 31.9208 38.1685Z" fill="#ECE0FF"/>
<path d="M32.7016 40.3255L33.8984 39.3906L33.4066 41.055L32.868 41.4757L32.9163 40.9724L32.7016 40.3255Z" fill="#FEDEFF"/>
<path d="M34.8061 28.0201C33.9833 25.8378 33.2311 25.0094 30.2991 25.6178C24.9991 27.5117 25.1836 29.133 23.4483 31.6562C22.5134 33.5872 22.5749 34.5985 24.1294 36.352C24.7036 38.2417 25.373 39.1365 27.2963 40.2474C31.0826 37.3966 32.1498 36.0399 33.957 33.6333C35.5139 31.5909 35.3065 30.3131 34.8061 28.0201Z" fill="#14000C"/>
<path d="M33.565 28.8541C32.8672 27.0032 32.2293 26.3006 29.7426 26.8166C25.2474 28.4229 25.4039 29.798 23.9321 31.938C23.1392 33.5758 23.1914 34.4335 24.5098 35.9207C24.9968 37.5234 25.5645 38.2823 27.1957 39.2245C30.407 36.8067 31.3122 35.656 32.8449 33.6148C34.1653 31.8827 33.9894 30.7989 33.565 28.8541Z" fill="#E40A0A"/>
<path d="M27.8241 29.0626C29.6108 27.6594 30.2178 28.2778 31.2436 29.5866C31.8644 30.4748 31.8541 31.2 31.6275 32.6309C30.5625 36.1522 28.891 37.5974 27.1483 36.2522C26.4055 35.3062 26.0237 34.7013 25.4993 33.2627C25.1258 30.541 26.0878 30.0028 27.8241 29.0626Z" fill="black" stroke="black" stroke-width="0.166363"/>
<path d="M27.9774 29.8872C29.3227 28.8306 29.7797 29.2963 30.5521 30.2818C31.0195 30.9505 31.0117 31.4965 30.8412 32.574C30.0393 35.2252 28.7807 36.3134 27.4686 35.3006C26.9093 34.5883 26.6218 34.1328 26.227 33.0497C25.9457 31.0003 26.6701 30.5951 27.9774 29.8872Z" fill="#1F881D" stroke="black" stroke-width="0.166363"/>
<path d="M27.543 31.0592C28.3474 30.4711 28.8585 30.4334 29.7809 30.4197C29.369 31.5645 29.1018 31.8749 28.595 32.1837L27.4594 32.8645C27.1909 32.1513 27.1857 31.7673 27.543 31.0592Z" fill="#ECE0FF"/>
<path d="M28.2135 33.4414L29.8359 32.4688L28.9904 34.2627L28.2603 34.7003L28.3908 34.1541L28.2135 33.4414Z" fill="#FEDEFF"/>
<path d="M16.2011 16.3908C15.9185 18.4699 16.1631 19.4735 18.7706 20.4341C23.8265 21.5597 24.3779 20.2229 26.8536 19.1279C28.4338 18.0982 28.8205 17.2905 28.333 15.1846C28.6882 13.4515 28.5385 12.4372 27.4789 10.6458C23.2214 10.9936 21.7829 11.5171 19.2999 12.4875C17.1742 13.2997 16.7893 14.3835 16.2011 16.3908Z" fill="#14000C"/>
<path d="M17.5552 16.3449C17.3155 18.1083 17.5229 18.9595 19.7345 19.7742C24.0226 20.7289 24.4902 19.5951 26.59 18.6663C27.9302 17.793 28.2582 17.108 27.8447 15.3219C28.146 13.852 28.019 12.9918 27.1203 11.4724C23.5094 11.7674 22.2893 12.2114 20.1834 13.0344C18.3805 13.7233 18.054 14.6424 17.5552 16.3449Z" fill="#E40A0A"/>
<path d="M22.2346 18.9888C20.2005 19.1976 19.9816 18.4262 19.7252 16.9198C19.6115 15.9343 19.9324 15.3817 20.7304 14.3915C23.1002 12.2023 25.0603 11.9052 25.8743 13.7888C26.0607 14.8782 26.1054 15.5295 25.9047 16.8913C25.0303 19.1665 24.0287 19.1117 22.2346 18.9888Z" fill="black" stroke="black" stroke-width="0.151125"/>
<path d="M22.4665 18.2749C20.935 18.432 20.7702 17.8512 20.5771 16.717C20.4915 15.975 20.7331 15.5589 21.334 14.8133C23.1183 13.165 24.5941 12.9413 25.207 14.3595C25.3474 15.1798 25.381 15.6702 25.2299 16.6955C24.5715 18.4086 23.8174 18.3674 22.4665 18.2749Z" fill="#1F881D" stroke="black" stroke-width="0.151125"/>
<path d="M23.3181 17.5878C22.4211 17.6482 21.9961 17.4283 21.2523 16.9894C22.0752 16.3096 22.4228 16.2011 22.9613 16.2106L24.1632 16.2402C24.0705 16.9195 23.9091 17.2174 23.3181 17.5878Z" fill="#ECE0FF"/>
<path d="M13.6936 10.3763C13.298 11.9885 13.4095 12.8021 15.4005 13.8018C19.3217 15.1597 19.8696 14.1576 21.9253 13.5252C23.2647 12.861 23.6383 12.2605 23.4247 10.5556C23.8496 9.22299 23.8143 8.40975 23.1207 6.89942C19.7119 6.777 18.5267 7.05556 16.4755 7.58902C14.7209 8.0311 14.326 8.84929 13.6936 10.3763Z" fill="#14000C"/>
<path d="M14.7728 10.4715C14.4373 11.8388 14.5318 12.5289 16.2205 13.3768C19.5462 14.5285 20.0109 13.6785 21.7544 13.1422C22.8904 12.5788 23.2072 12.0696 23.0261 10.6236C23.3864 9.49335 23.3565 8.80362 22.7682 7.52265C19.8771 7.41883 18.8719 7.65509 17.1322 8.10753C15.6441 8.48247 15.3092 9.17641 14.7728 10.4715Z" fill="#E40A0A"/>
<path d="M18.2675 12.9932C16.6354 12.9683 16.5252 12.34 16.4457 11.1291C16.4367 10.3419 16.737 9.9363 17.4521 9.23035C19.5139 7.72589 21.0945 7.67431 21.5856 9.23438C21.6438 10.1102 21.6256 10.6276 21.3541 11.6821C20.4724 13.3936 19.6818 13.2571 18.2675 12.9932Z" fill="black" stroke="black" stroke-width="0.120265"/>
<path d="M18.5102 12.4488C17.2813 12.43 17.1983 11.9569 17.1385 11.0452C17.1317 10.4525 17.3578 10.1471 17.8962 9.61553C19.4486 8.48276 20.6387 8.44392 21.0085 9.61857C21.0524 10.278 21.0386 10.6676 20.8342 11.4615C20.1703 12.7502 19.5751 12.6475 18.5102 12.4488Z" fill="#1F881D" stroke="black" stroke-width="0.120265"/>
<path d="M19.2423 11.9914C18.5252 11.9555 18.2059 11.7426 17.6516 11.3275C18.3609 10.8684 18.6458 10.8153 19.0725 10.8729L20.0243 11.0082C19.8947 11.5348 19.7421 11.7545 19.2423 11.9914Z" fill="#ECE0FF"/>
<path d="M11.3599 6.89088C11.1417 7.95431 11.2342 8.48241 12.555 9.08008C15.1413 9.85822 15.4735 9.18883 16.7966 8.71918C17.6524 8.2485 17.881 7.84617 17.7003 6.73899C17.9443 5.85725 17.9014 5.3273 17.4129 4.36043C15.1904 4.37471 14.4255 4.58933 13.103 4.99429C11.9714 5.33139 11.7343 5.87647 11.3599 6.89088Z" fill="#14000C"/>
<path d="M12.0669 6.92548C11.8818 7.82741 11.9603 8.27531 13.0805 8.78222C15.2741 9.44218 15.5558 8.87445 16.678 8.47612C17.4038 8.07692 17.5977 7.73569 17.4444 6.79665C17.6514 6.04882 17.615 5.59935 17.2007 4.77932C15.3157 4.79143 14.667 4.97345 13.5453 5.31691C12.5855 5.60282 12.3844 6.06512 12.0669 6.92548Z" fill="#E40A0A"/>
<path d="M14.3994 8.47879C13.3361 8.50761 13.249 8.1005 13.1677 7.31215C13.1425 6.79848 13.3281 6.52535 13.7765 6.0447C15.0821 5.00552 16.11 4.92816 16.468 5.9331C16.5273 6.50329 16.5281 6.84158 16.3771 7.53749C15.8448 8.67922 15.3267 8.61199 14.3994 8.47879Z" fill="black" stroke="black" stroke-width="0.0784732"/>
<path d="M14.5465 8.1094C13.746 8.1311 13.6804 7.82457 13.6191 7.23098C13.6002 6.84422 13.7399 6.63857 14.0775 6.27667C15.0606 5.49423 15.8346 5.43598 16.1041 6.19264C16.1487 6.62196 16.1493 6.87667 16.0356 7.40065C15.6349 8.26031 15.2448 8.20969 14.5465 8.1094Z" fill="#1F881D" stroke="black" stroke-width="0.0784732"/>
<path d="M15.0139 7.7925C14.5461 7.78886 14.333 7.65868 13.9619 7.40301C14.4125 7.0837 14.5967 7.04114 14.876 7.06693L15.499 7.12897C15.4275 7.47636 15.3335 7.62402 15.0139 7.7925Z" fill="#ECE0FF"/>
<path d="M9.89782 4.77446C9.73363 5.49319 9.78875 5.85347 10.6785 6.28154C12.4266 6.85336 12.6626 6.40421 13.5696 6.1073C14.1589 5.80188 14.3203 5.5324 14.2137 4.77728C14.3928 4.18241 14.3715 3.8217 14.0534 3.15675C12.5411 3.1293 12.0176 3.2623 11.1118 3.51527C10.3369 3.72534 10.1675 4.09164 9.89782 4.77446Z" fill="#14000C"/>
<path d="M10.3742 4.80917C10.2349 5.41874 10.2817 5.72431 11.0363 6.08737C12.519 6.57235 12.7191 6.19141 13.4884 5.93959C13.9881 5.68055 14.1251 5.452 14.0347 4.81156C14.1865 4.30703 14.1685 4.0011 13.8987 3.43713C12.6161 3.41384 12.172 3.52664 11.4038 3.7412C10.7466 3.91937 10.603 4.23004 10.3742 4.80917Z" fill="#E40A0A"/>
<path d="M11.9466 5.89696C11.2228 5.89876 11.1695 5.62075 11.1259 5.08387C11.1163 4.73452 11.2467 4.55209 11.5588 4.23309C12.4625 3.54901 13.163 3.51365 13.3916 4.20228C13.4235 4.5906 13.4191 4.8204 13.306 5.29061C12.927 6.05727 12.5755 6.00294 11.9466 5.89696Z" fill="black" stroke="black" stroke-width="0.0533618"/>
<path d="M12.0485 5.65541C11.5035 5.65677 11.4634 5.44745 11.4305 5.04321C11.4233 4.78016 11.5215 4.64281 11.7565 4.40261C12.4369 3.88755 12.9643 3.86092 13.1365 4.37942C13.1605 4.6718 13.1572 4.84483 13.0721 5.19886C12.7867 5.77612 12.522 5.73521 12.0485 5.65541Z" fill="#1F881D" stroke="black" stroke-width="0.0533618"/>
<path d="M52.436 40.826C56.2205 40.7691 57.8856 39.9827 58.4726 34.502C58.3122 24.0948 55.7221 23.3951 52.742 18.7897C50.2569 15.9488 48.6693 15.4191 45.1643 17.0181C41.9591 16.827 40.2348 17.4276 37.5268 20.0723C39.9456 28.4499 41.4784 31.1595 44.2419 35.8165C46.575 39.8089 48.6485 40.2526 52.436 40.826Z" fill="#14000C"/>
<path d="M51.7897 38.1327C54.9995 38.0845 56.4117 37.4175 56.9096 32.7691C56.7735 23.9424 54.5768 23.3489 52.0493 19.4429C49.9416 17.0335 48.5951 16.5843 45.6224 17.9404C42.9039 17.7784 41.4415 18.2878 39.1448 20.5308C41.1962 27.6361 42.4963 29.9342 44.8401 33.884C46.8189 37.2701 48.5774 37.6464 51.7897 38.1327Z" fill="#E40A0A"/>
<path d="M54.4657 28.0315C55.6963 32.0212 54.4296 32.6873 51.8833 33.647C50.1946 34.1673 49.0843 33.6928 47.0007 32.3982C42.137 28.3301 40.782 24.5141 43.7565 22.331C45.5976 21.6349 46.7266 21.3519 49.212 21.3456C53.593 22.4094 53.9212 24.4208 54.4657 28.0315Z" fill="black" stroke="black" stroke-width="0.288229"/>
<path d="M53.1138 27.7824C54.0404 30.7864 53.0866 31.2879 51.1694 32.0105C49.8979 32.4023 49.0619 32.045 47.4931 31.0703C43.831 28.0072 42.8108 25.134 45.0504 23.4902C46.4366 22.9661 47.2867 22.753 49.158 22.7483C52.4567 23.5492 52.7038 25.0637 53.1138 27.7824Z" fill="#1F881D" stroke="black" stroke-width="0.288229"/>
<path d="M50.0049 26.4563C50.4918 28.2251 50.2844 29.1373 49.8264 30.7498C48.2792 29.3131 47.9405 28.653 47.7287 27.5776L47.2713 25.1745C48.5078 25.1567 49.1012 25.3893 50.0049 26.4563Z" fill="#ECE0FF"/>
<path d="M85.7259 62.1308C88.2217 62.0933 89.3198 61.5747 89.7069 57.9603C89.6011 51.097 87.893 50.6356 85.9277 47.5984C84.2889 45.725 83.2419 45.3757 80.9305 46.4301C78.8167 46.3041 77.6796 46.7002 75.8938 48.4443C77.4889 53.9691 78.4997 55.756 80.3222 58.8271C81.8608 61.46 83.2282 61.7526 85.7259 62.1308Z" fill="#14000C"/>
<path d="M85.301 60.3496C87.4178 60.3178 88.3491 59.8779 88.6775 56.8124C88.5877 50.9915 87.1391 50.6001 85.4722 48.0242C84.0823 46.4352 83.1943 46.139 81.2339 47.0333C79.4411 46.9264 78.4767 47.2624 76.9621 48.7416C78.3149 53.4274 79.1723 54.9429 80.7179 57.5476C82.0229 59.7807 83.1826 60.0289 85.301 60.3496Z" fill="#E40A0A"/>
<path d="M87.0628 53.6872C87.8743 56.3183 87.0389 56.7575 85.3598 57.3905C84.2461 57.7336 83.5139 57.4207 82.1398 56.5669C78.9323 53.8841 78.0387 51.3676 80.0004 49.9278C81.2145 49.4688 81.959 49.2822 83.5981 49.278C86.4873 49.9796 86.7037 51.306 87.0628 53.6872Z" fill="black" stroke="black" stroke-width="0.190079"/>
<path d="M86.174 53.5174C86.785 55.4985 86.156 55.8292 84.8917 56.3058C84.0531 56.5641 83.5019 56.3285 82.4672 55.6857C80.0522 53.6657 79.3794 51.7709 80.8564 50.6868C81.7705 50.3412 82.3311 50.2007 83.5652 50.1976C85.7406 50.7258 85.9036 51.7245 86.174 53.5174Z" fill="#1F881D" stroke="black" stroke-width="0.190079"/>
<path d="M84.1263 52.6463C84.4474 53.8128 84.3106 54.4144 84.0086 55.4778C82.9882 54.5303 82.7649 54.095 82.6252 53.3858L82.3236 51.801C83.139 51.7893 83.5304 51.9427 84.1263 52.6463Z" fill="#ECE0FF"/>
<path d="M70.7612 49.8898C73.5389 49.8481 74.761 49.2709 75.1919 45.2482C75.0742 37.6096 73.1731 37.096 70.9858 33.7158C69.1618 31.6307 67.9966 31.242 65.424 32.4156C63.0715 32.2753 61.806 32.7161 59.8184 34.6573C61.5937 40.8061 62.7187 42.7949 64.747 46.213C66.4595 49.1433 67.9813 49.4689 70.7612 49.8898Z" fill="#14000C"/>
<path d="M70.2901 47.9156C72.646 47.8803 73.6825 47.3907 74.0479 43.979C73.9481 37.5004 72.3357 37.0648 70.4806 34.198C68.9336 32.4295 67.9454 32.0998 65.7635 33.0952C63.7682 32.9762 62.6949 33.3501 61.0091 34.9964C62.5148 40.2115 63.469 41.8982 65.1893 44.7972C66.6417 47.2825 67.9324 47.5587 70.2901 47.9156Z" fill="#E40A0A"/>
<path d="M55.9893 72.8943C58.2673 73.4509 59.2056 74.1551 59.0996 77.542C58.1292 83.7974 56.5081 83.862 54.3239 86.2286C52.5865 87.5991 51.5844 87.6995 49.6044 86.2512C47.6551 85.9241 46.6654 85.3239 45.254 83.3548C47.4163 78.6354 48.5683 77.2126 50.6262 74.785C52.3687 72.6989 53.6566 72.7174 55.9893 72.8943Z" fill="#14000C"/>
<path d="M55.3786 74.4275C57.3107 74.8996 58.1065 75.4968 58.0166 78.3694C57.1935 83.6748 55.8187 83.7296 53.9662 85.7367C52.4926 86.8992 51.6427 86.9843 49.9634 85.756C48.3101 85.4785 47.4707 84.9694 46.2737 83.2995C48.1076 79.2968 49.0847 78.09 50.83 76.0311C52.3078 74.2617 53.4002 74.2775 55.3786 74.4275Z" fill="#E40A0A"/>
<path d="M56.1431 80.9032C57.2203 78.6665 56.5121 78.0899 55.0569 77.1596C54.0819 76.6127 53.3724 76.7456 52.0069 77.2389C48.7316 79.0214 47.594 81.1362 49.2049 82.8636C50.257 83.5376 50.9142 83.8641 52.4128 84.2109C55.1447 84.1739 55.5116 83.006 56.1431 80.9032Z" fill="black" stroke="black" stroke-width="0.176603"/>
<path d="M55.3044 80.8577C56.1155 79.1736 55.5823 78.7395 54.4866 78.039C53.7525 77.6272 53.2183 77.7273 52.1901 78.0987C49.724 79.4409 48.8674 81.0332 50.0804 82.3338C50.8725 82.8413 51.3674 83.0871 52.4958 83.3482C54.5527 83.3204 54.8289 82.441 55.3044 80.8577Z" fill="#1F881D" stroke="black" stroke-width="0.176603"/>
<path d="M53.319 81.2283C53.7612 80.2286 53.7127 79.6498 53.5718 78.6139C52.5179 79.267 52.2582 79.6184 52.0402 80.2378L51.5625 81.6242C52.3069 81.8056 52.6844 81.7472 53.319 81.2283Z" fill="#ECE0FF"/>
<path d="M67.8046 69.9568C69.4766 70.3653 70.1653 70.8822 70.0875 73.3681C69.3752 77.9593 68.1854 78.0067 66.5823 79.7437C65.3071 80.7497 64.5716 80.8233 63.1184 79.7604C61.6876 79.5203 60.9612 79.0797 59.9253 77.6345C61.5123 74.1706 62.3579 73.1263 63.8683 71.3445C65.1472 69.8133 66.0925 69.8269 67.8046 69.9568Z" fill="#14000C"/>
<path d="M67.3552 71.0907C68.7732 71.4372 69.3574 71.8755 69.2914 73.9839C68.6873 77.8779 67.6781 77.9181 66.3185 79.3913C65.2369 80.2445 64.6131 80.307 63.3806 79.4054C62.1671 79.2018 61.551 78.8281 60.6724 77.6024C62.0184 74.6646 62.7356 73.7789 64.0166 72.2677C65.1013 70.969 65.9031 70.9806 67.3552 71.0907Z" fill="#E40A0A"/>
<path d="M72.2507 40.4944C73.154 43.4227 72.2242 43.9116 70.3554 44.616C69.1159 44.9979 68.301 44.6496 66.7717 43.6995C63.2019 40.7136 62.2074 37.9128 64.3906 36.3104C65.7418 35.7995 66.5705 35.5918 68.3947 35.5872C71.6102 36.368 71.8511 37.8443 72.2507 40.4944Z" fill="black" stroke="black" stroke-width="0.211551"/>
<path d="M71.26 40.3151C71.9401 42.5199 71.2401 42.888 69.8329 43.4184C68.8997 43.706 68.2861 43.4437 67.1346 42.7283C64.4467 40.4801 63.6979 38.3713 65.3418 37.1648C66.3592 36.7801 66.9831 36.6237 68.3566 36.6202C70.7778 37.2081 70.9591 38.3197 71.26 40.3151Z" fill="#1F881D" stroke="black" stroke-width="0.211551"/>
<path d="M65.3464 78.7631C63.3474 79.5664 62.9289 78.8373 62.2843 77.3638C61.9171 76.3842 62.0994 75.7235 62.651 74.4752C64.4816 71.5399 66.3834 70.6672 67.6873 72.3667C68.1545 73.432 68.3664 74.0882 68.5127 75.5455C68.2131 78.1362 67.1884 78.3699 65.3464 78.7631Z" fill="#1F881D" stroke="black" stroke-width="0.211551"/>
<path d="M68.9796 39.3398C69.337 40.6381 69.1848 41.3076 68.8486 42.4911C67.713 41.4366 67.4644 40.9522 67.309 40.1628L66.9732 38.399C67.8808 38.386 68.3164 38.5567 68.9796 39.3398Z" fill="#ECE0FF"/>
<path d="M66.5039 75.7136C65.7976 76.7989 65.2105 77.0824 64.1284 77.5284C64.1426 75.953 64.3299 75.4534 64.8003 74.8443L65.8591 73.4927C66.4693 74.2297 66.6337 74.6914 66.5039 75.7136Z" fill="#ECE0FF"/>
<path d="M161.484 79.7301C162.442 80.9357 163.092 81.2769 164.887 80.1042C167.979 77.4662 167.546 76.4576 168.191 74.3526C168.428 72.8457 168.193 72.2025 166.841 71.4701C166.102 70.3896 165.493 69.9832 164.024 69.7676C162.104 72.629 161.67 73.7964 160.955 75.8443C160.334 77.5884 160.716 78.3669 161.484 79.7301Z" fill="#14000C"/>
<path d="M162.135 78.8496C162.947 79.8722 163.499 80.1616 165.021 79.1669C167.643 76.9296 167.276 76.0741 167.823 74.2888C168.024 73.0108 167.825 72.4652 166.678 71.8441C166.051 70.9277 165.535 70.5829 164.289 70.4001C162.661 72.827 162.293 73.817 161.687 75.554C161.159 77.0332 161.483 77.6935 162.135 78.8496Z" fill="#E40A0A"/>
<path d="M165.839 77.2029C164.944 78.591 164.429 78.3483 163.508 77.7661C162.932 77.3511 162.798 76.8754 162.67 75.8821C162.686 73.3036 163.497 71.9186 164.893 72.3348C165.56 72.7552 165.926 73.0487 166.545 73.8482C167.314 75.5246 166.79 76.1302 165.839 77.2029Z" fill="black" stroke="black" stroke-width="0.114833"/>
<path d="M165.578 76.7022C164.905 77.7474 164.517 77.5646 163.823 77.1263C163.389 76.8138 163.289 76.4556 163.192 75.7078C163.204 73.7663 163.815 72.7235 164.866 73.0368C165.368 73.3534 165.644 73.5744 166.11 74.1763C166.689 75.4385 166.294 75.8945 165.578 76.7022Z" fill="#1F881D" stroke="black" stroke-width="0.114833"/>
<path d="M165.637 75.8242C165.226 76.4207 164.9 76.5806 164.301 76.8336C164.348 75.9779 164.463 75.7048 164.734 75.3693L165.343 74.6247C165.656 75.0187 165.733 75.2678 165.637 75.8242Z" fill="#ECE0FF"/>
<path d="M164.738 74.4519L163.867 75.5156L164.073 74.1218L164.464 73.6431L164.485 74.0339L164.738 74.4519Z" fill="#FEDEFF"/>
<path d="M140.692 72.1792C141.595 71.9334 141.962 71.6431 141.888 70.2961C141.442 67.8168 140.795 67.8084 139.902 66.8898C139.196 66.3628 138.796 66.3336 138.02 66.9311C137.246 67.0822 136.857 67.3317 136.313 68.1304C137.219 69.9857 137.692 70.5397 138.536 71.484C139.25 72.2957 139.763 72.2746 140.692 72.1792Z" fill="#E40A0A"/>
<path d="M140.979 69.1342C141.51 70.1703 141.184 70.4498 140.51 70.9047C140.058 71.1736 139.723 71.1202 139.076 70.9059C137.516 70.1106 136.958 69.1325 137.696 68.3016C138.183 67.9721 138.488 67.8105 139.189 67.6289C140.473 67.6119 140.659 68.1553 140.979 69.1342Z" fill="black" stroke="black" stroke-width="0.0829738"/>
<path d="M140.581 69.167C140.981 69.9471 140.736 70.1576 140.228 70.5001C139.888 70.7026 139.636 70.6624 139.148 70.501C137.974 69.9022 137.554 69.1658 138.109 68.5401C138.476 68.292 138.706 68.1704 139.233 68.0336C140.201 68.0208 140.34 68.43 140.581 69.167Z" fill="#1F881D" stroke="black" stroke-width="0.0829738"/>
<path d="M140.072 68.8598C140.291 69.3233 140.275 69.5956 140.22 70.0835C139.717 69.7903 139.591 69.6287 139.482 69.3407L139.242 68.6961C139.59 68.6016 139.768 68.6243 140.072 68.8598Z" fill="#ECE0FF"/>
<path d="M138.923 69.0479L139.266 69.9688L138.491 69.4037L138.337 68.9893L138.581 69.0943L138.923 69.0479Z" fill="#FEDEFF"/>
<path d="M144.115 71.6621C145.148 71.7241 145.63 71.5439 145.984 70.0623C146.308 67.223 145.627 66.9793 144.977 65.6633C144.401 64.8383 143.987 64.6615 142.975 65.0255C142.108 64.9078 141.617 65.0362 140.786 65.7015C141.149 68.034 141.471 68.8037 142.059 70.1293C142.554 71.265 143.103 71.4284 144.115 71.6621Z" fill="#14000C"/>
<path d="M144.032 70.9109C144.908 70.9635 145.317 70.8106 145.617 69.5541C145.892 67.146 145.314 66.9393 144.763 65.8231C144.274 65.1234 143.923 64.9735 143.065 65.2822C142.33 65.1824 141.913 65.2913 141.208 65.8555C141.516 67.8338 141.789 68.4866 142.288 69.6109C142.708 70.5742 143.174 70.7127 144.032 70.9109Z" fill="#E40A0A"/>
<path d="M145.119 68.21C145.314 69.3224 144.945 69.4779 144.217 69.6874C143.739 69.7946 143.453 69.6426 142.931 69.2472C141.749 68.039 141.515 66.9714 142.402 66.4374C142.929 66.2854 143.246 66.2313 143.924 66.2805C145.08 66.66 145.099 67.2149 145.119 68.21Z" fill="black" stroke="black" stroke-width="0.0789263"/>
<path d="M144.759 68.1143C144.905 68.9519 144.628 69.0691 144.08 69.2267C143.719 69.3075 143.504 69.193 143.111 68.8953C142.222 67.9856 142.045 67.1818 142.713 66.7797C143.11 66.6652 143.349 66.6245 143.859 66.6616C144.73 66.9473 144.743 67.3651 144.759 68.1143Z" fill="#1F881D" stroke="black" stroke-width="0.0789263"/>
<path d="M143.837 67.6435C143.907 68.1354 143.819 68.3798 143.637 68.8098C143.266 68.3866 143.197 68.1998 143.177 67.9025L143.138 67.2382C143.475 67.2587 143.629 67.3342 143.837 67.6435Z" fill="#ECE0FF"/>
<path d="M147.644 70.9011C148.585 71.0406 149.038 70.9133 149.467 69.5789C149.964 66.9932 149.358 66.7147 148.857 65.4524C148.388 64.6475 148.022 64.4518 147.071 64.7058C146.286 64.5283 145.828 64.6072 145.02 65.1527C145.188 67.327 145.428 68.0607 145.872 69.327C146.244 70.4111 146.735 70.6053 147.644 70.9011Z" fill="#14000C"/>
<path d="M147.629 70.2011C148.427 70.3195 148.811 70.2115 149.175 69.0797C149.596 66.8867 149.083 66.6505 148.658 65.5799C148.26 64.8972 147.949 64.7312 147.143 64.9467C146.477 64.7962 146.089 64.863 145.404 65.3257C145.545 67.1698 145.749 67.7921 146.126 68.8661C146.442 69.7856 146.858 69.9502 147.629 70.2011Z" fill="#E40A0A"/>
<path d="M148.812 67.8124C148.911 68.8511 148.563 68.9647 147.882 69.0992C147.437 69.1596 147.186 68.997 146.737 68.5916C145.741 67.386 145.603 66.3853 146.452 65.965C146.945 65.8672 147.239 65.8429 147.855 65.9422C148.886 66.3837 148.864 66.8955 148.812 67.8124Z" fill="black" stroke="black" stroke-width="0.0726376"/>
<path d="M148.484 67.6915C148.559 68.4735 148.297 68.5591 147.784 68.6604C147.449 68.7059 147.26 68.5834 146.922 68.2781C146.172 67.3704 146.067 66.6169 146.707 66.3005C147.078 66.2268 147.3 66.2085 147.764 66.2833C148.54 66.6157 148.523 67.0011 148.484 67.6915Z" fill="#1F881D" stroke="black" stroke-width="0.0726376"/>
<path d="M148.174 67.2599C148.204 67.718 148.105 67.9356 147.908 68.3166C147.599 67.8978 147.549 67.7205 147.552 67.4454L147.563 66.8312C147.87 66.877 148.005 66.9588 148.174 67.2599Z" fill="#ECE0FF"/>
<path d="M147.195 67.0133L147.18 67.8906L146.739 67.1523L146.746 66.7575L146.908 66.9303L147.195 67.0133Z" fill="#FEDEFF"/>
<path d="M151.159 71.4683C152.22 71.9034 152.78 71.8829 153.618 70.4275C154.853 67.5118 154.219 67.0084 153.956 65.3716C153.614 64.2848 153.237 63.9482 152.065 63.9756C151.196 63.5406 150.642 63.5023 149.563 63.9157C149.206 66.5356 149.299 67.4723 149.495 69.0977C149.653 70.4869 150.176 70.8574 151.159 71.4683Z" fill="#14000C"/>
<path d="M151.309 70.6433C152.209 71.0123 152.684 70.9949 153.394 69.7605C154.442 67.2876 153.904 66.8607 153.681 65.4724C153.391 64.5507 153.072 64.2652 152.077 64.2885C151.341 63.9195 150.871 63.887 149.956 64.2377C149.653 66.4597 149.732 67.2542 149.898 68.6327C150.032 69.8109 150.475 70.1252 151.309 70.6433Z" fill="#E40A0A"/>
<path d="M153.302 68.1484C153.153 69.4054 152.719 69.4399 151.892 69.4036C151.358 69.3472 151.107 69.0828 150.687 68.4743C149.834 66.7625 149.926 65.539 151.022 65.2858C151.62 65.3114 151.97 65.3672 152.662 65.6616C153.75 66.4796 153.594 67.0786 153.302 68.1484Z" fill="black" stroke="black" stroke-width="0.0874824"/>
<path d="M152.952 67.9213C152.84 68.8677 152.513 68.8937 151.89 68.8664C151.488 68.8239 151.3 68.6249 150.983 68.1667C150.341 66.8778 150.41 65.9566 151.236 65.7659C151.686 65.7852 151.949 65.8272 152.47 66.0488C153.29 66.6648 153.172 67.1158 152.952 67.9213Z" fill="#1F881D" stroke="black" stroke-width="0.0874824"/>
<path d="M152.407 67.0793C152.304 67.7744 152.089 68.064 151.677 68.562C151.357 67.8239 151.34 67.5409 151.433 67.1309L151.645 66.2172C152.083 66.397 152.256 66.5681 152.407 67.0793Z" fill="#ECE0FF"/>
<path d="M154.54 72.9161C155.51 73.8136 156.082 74.0416 157.28 72.9804C159.231 70.6589 158.708 69.8825 158.835 68.1556C158.749 66.9348 158.448 66.4369 157.253 65.9448C156.478 65.1321 155.926 64.8492 154.733 64.7782C153.743 67.1976 153.613 68.1606 153.422 69.8467C153.249 71.2835 153.69 71.8795 154.54 72.9161Z" fill="#14000C"/>
<path d="M154.892 72.1722C155.714 72.9335 156.2 73.1268 157.216 72.2268C158.87 70.2578 158.427 69.5994 158.534 68.1347C158.461 67.0993 158.206 66.677 157.193 66.2596C156.535 65.5704 156.067 65.3304 155.056 65.2702C154.216 67.3222 154.106 68.1389 153.944 69.569C153.797 70.7876 154.171 71.2931 154.892 72.1722Z" fill="#E40A0A"/>
<path d="M157.505 70.5979C157.054 71.7691 156.605 71.6106 155.776 71.2088C155.249 70.9168 155.058 70.5458 154.778 69.7607C154.324 67.6987 154.711 66.5358 155.882 66.7722C156.482 67.0622 156.822 67.2716 157.454 67.8679C158.36 69.1548 158.058 69.6749 157.505 70.5979Z" fill="black" stroke="black" stroke-width="0.101188"/>
<path d="M157.209 70.2199C156.869 71.1017 156.531 70.9823 155.907 70.6798C155.51 70.46 155.367 70.1806 155.156 69.5895C154.814 68.037 155.105 67.1613 155.987 67.3393C156.439 67.5577 156.695 67.7153 157.17 68.1643C157.853 69.1333 157.626 69.5249 157.209 70.2199Z" fill="#1F881D" stroke="black" stroke-width="0.101188"/>
<path d="M157.096 69.5108C156.881 70.0159 156.654 70.1662 156.229 70.4097C156.112 69.7225 156.153 69.4963 156.305 69.2094L156.649 68.5723C156.966 68.8657 157.072 69.0594 157.096 69.5108Z" fill="#ECE0FF"/>
<path d="M156.144 68.4726L155.652 69.3828L155.562 68.2546L155.783 67.845L155.869 68.156L156.144 68.4726Z" fill="#FEDEFF"/>
<path d="M157.711 76.3573C158.694 77.3957 159.327 77.6577 160.915 76.4186C163.605 73.7108 163.125 72.8111 163.571 70.8034C163.68 69.385 163.413 68.8078 162.097 68.2418C161.327 67.3011 160.728 66.975 159.341 66.8983C157.762 69.7151 157.443 70.8349 156.929 72.7955C156.478 74.4663 156.892 75.1568 157.711 76.3573Z" fill="#14000C"/>
<path d="M158.258 75.4868C159.092 76.3675 159.629 76.5898 160.976 75.5388C163.257 73.2422 162.85 72.4791 163.228 70.7764C163.321 69.5734 163.094 69.0838 161.978 68.6037C161.325 67.8059 160.817 67.5294 159.641 67.4643C158.301 69.8533 158.031 70.8031 157.595 72.4659C157.213 73.883 157.564 74.4686 158.258 75.4868Z" fill="#E40A0A"/>
<path d="M161.592 73.6494C160.86 75.0127 160.361 74.8307 159.458 74.3679C158.889 74.0312 158.73 73.6008 158.536 72.6898C158.359 70.2956 159.013 68.9421 160.347 69.211C161.001 69.5451 161.364 69.7868 162.002 70.4768C162.844 71.9679 162.4 72.574 161.592 73.6494Z" fill="black" stroke="black" stroke-width="0.107259"/>
<path d="M161.31 73.209C160.759 74.2355 160.384 74.0985 159.703 73.75C159.275 73.4964 159.155 73.1724 159.009 72.4865C158.876 70.6838 159.369 69.6647 160.373 69.8672C160.865 70.1187 161.139 70.3007 161.619 70.8202C162.253 71.9429 161.919 72.3992 161.31 73.209Z" fill="#1F881D" stroke="black" stroke-width="0.107259"/>
<path d="M161.3 72.3922C160.961 72.9803 160.669 73.1561 160.128 73.4413C160.109 72.6431 160.196 72.38 160.424 72.0459L160.937 71.3037C161.258 71.6431 161.349 71.8678 161.3 72.3922Z" fill="#ECE0FF"/>
<path d="M160.362 71.1819L159.629 72.2422L159.717 70.9314L160.047 70.4543L160.095 70.8152L160.362 71.1819Z" fill="#FEDEFF"/>
<path d="M168.83 20.5176C169.524 18.117 170.259 17.1634 173.447 17.5283C179.279 19.0326 179.219 20.7751 181.291 23.292C182.455 25.2561 182.476 26.3377 180.962 28.3527C180.509 30.418 179.869 31.4343 177.906 32.8012C173.612 30.1333 172.355 28.7928 170.217 26.4068C168.377 24.3842 168.49 23.005 168.83 20.5176Z" fill="#14000C"/>
<path d="M170.231 21.2941C170.82 19.258 171.443 18.4492 174.147 18.7587C179.093 20.0346 179.043 21.5124 180.799 23.6471C181.787 25.3129 181.805 26.2303 180.521 27.9392C180.136 29.691 179.593 30.5529 177.929 31.7122C174.287 29.4495 173.221 28.3125 171.407 26.2889C169.847 24.5735 169.943 23.4037 170.231 21.2941Z" fill="#E40A0A"/>
<path d="M176.39 20.9462C174.359 19.6255 173.763 20.3419 172.777 21.8328C172.188 22.8374 172.261 23.6078 172.625 25.1081C174.065 28.7512 175.976 30.1276 177.726 28.529C178.44 27.4512 178.797 26.7709 179.235 25.1902C179.403 22.259 178.328 21.7791 176.39 20.9462Z" fill="black" stroke="black" stroke-width="0.178111"/>
<path d="M176.295 21.8425C174.766 20.8481 174.316 21.3875 173.574 22.5101C173.131 23.2664 173.186 23.8465 173.46 24.9762C174.544 27.7192 175.983 28.7556 177.3 27.5519C177.838 26.7404 178.107 26.2281 178.437 25.038C178.563 22.8309 177.754 22.4696 176.295 21.8425Z" fill="#1F881D" stroke="black" stroke-width="0.178111"/>
<path d="M176.857 23.0419C175.947 22.4938 175.397 22.5029 174.409 22.577C174.947 23.7552 175.259 24.0596 175.828 24.3393L177.1 24.9542C177.327 24.1697 177.3 23.7607 176.857 23.0419Z" fill="#ECE0FF"/>
<path d="M176.35 25.644L174.531 24.7656L175.589 26.5925L176.407 26.9877L176.221 26.4193L176.35 25.644Z" fill="#FEDEFF"/>
<path d="M143.547 45.0105C145.216 44.652 146.018 44.824 146.767 47.1379C147.628 51.6609 146.553 52.2262 145.656 54.5222C144.818 56.004 144.168 56.3941 142.484 56.0565C141.093 56.4637 140.281 56.3782 138.855 55.5071C139.167 51.6344 139.598 50.3058 140.395 48.0094C141.063 46.0443 141.934 45.6423 143.547 45.0105Z" fill="#14000C"/>
<path d="M143.508 46.2432C144.923 45.9391 145.603 46.085 146.238 48.0475C146.969 51.8836 146.057 52.363 145.296 54.3104C144.585 55.5671 144.034 55.898 142.606 55.6117C141.426 55.9571 140.738 55.8845 139.528 55.1457C139.793 51.8611 140.158 50.7344 140.834 48.7867C141.401 47.12 142.14 46.779 143.508 46.2432Z" fill="#E40A0A"/>
<path d="M145.588 50.3487C145.771 48.4964 145.155 48.3362 143.95 48.1784C143.161 48.1241 142.716 48.4419 141.916 49.2135C140.143 51.4675 139.889 53.2572 141.392 53.9015C142.263 54.0165 142.785 54.0248 143.878 53.7759C145.708 52.8717 145.672 51.9674 145.588 50.3487Z" fill="black" stroke="black" stroke-width="0.128696"/>
<path d="M145.016 50.5924C145.154 49.1978 144.69 49.0772 143.783 48.9583C143.189 48.9174 142.853 49.1567 142.251 49.7377C140.916 51.4349 140.725 52.7824 141.857 53.2675C142.513 53.3541 142.906 53.3603 143.728 53.1729C145.106 52.4921 145.079 51.8112 145.016 50.5924Z" fill="#1F881D" stroke="black" stroke-width="0.128696"/>
<path d="M144.455 51.3953C144.511 50.5801 144.338 50.206 143.992 49.5541C143.441 50.3329 143.352 50.6531 143.355 51.1402L143.369 52.2272C143.914 52.1097 144.154 51.9489 144.455 51.3953Z" fill="#ECE0FF"/>
<path d="M142.723 51.9512L142.703 50.3984L141.916 51.759L141.925 52.4577L142.214 52.1324L142.723 51.9512Z" fill="#FEDEFF"/>
<path d="M148.646 44.5105C150.077 43.676 150.858 43.5834 152.174 45.4274C154.194 49.217 153.363 50.0546 153.166 52.3889C152.802 53.9749 152.313 54.5246 150.679 54.7398C149.516 55.5329 148.749 55.7059 147.205 55.3639C146.437 51.796 146.47 50.4725 146.575 48.1685C146.652 46.2015 147.341 45.573 148.646 44.5105Z" fill="#14000C"/>
<path d="M148.942 45.6245C150.155 44.9167 150.818 44.8382 151.934 46.4021C153.647 49.6162 152.942 50.3266 152.775 52.3064C152.467 53.6515 152.052 54.1178 150.666 54.3003C149.679 54.9729 149.029 55.1196 147.719 54.8296C147.068 51.8035 147.096 50.681 147.185 48.727C147.251 47.0587 147.835 46.5256 148.942 45.6245Z" fill="#E40A0A"/>
<path d="M151.968 48.6636C151.632 46.9467 151.024 46.9927 149.877 47.2218C149.14 47.4157 148.819 47.8377 148.296 48.7753C147.286 51.3414 147.541 53.0238 149.092 53.1391C149.922 52.9742 150.402 52.8212 151.335 52.2619C152.765 50.8884 152.486 50.0888 151.968 48.6636Z" fill="black" stroke="black" stroke-width="0.122418"/>
<path d="M151.509 49.0662C151.256 47.7735 150.798 47.8081 149.935 47.9806C149.38 48.1266 149.138 48.4443 148.744 49.1503C147.984 51.0824 148.175 52.3492 149.344 52.436C149.968 52.3118 150.33 52.1966 151.032 51.7755C152.109 50.7414 151.899 50.1393 151.509 49.0662Z" fill="#1F881D" stroke="black" stroke-width="0.122418"/>
<path d="M150.47 50.4023C150.299 49.6544 150.039 49.3723 149.545 48.8942C149.252 49.7619 149.257 50.0765 149.392 50.5122L149.701 51.4822C150.168 51.2093 150.344 50.9913 150.47 50.4023Z" fill="#ECE0FF"/>
<path d="M154.07 43.0298C155.326 42.1521 156.039 42.005 157.379 43.5867C159.505 46.8918 158.8 47.7243 158.784 49.8752C158.561 51.3551 158.15 51.897 156.662 52.2244C155.648 53.0428 154.955 53.2622 153.511 53.0727C152.553 49.8705 152.49 48.6571 152.423 46.5413C152.355 44.7359 152.944 44.106 154.07 43.0298Z" fill="#14000C"/>
<path d="M154.423 44.0293C155.489 43.2849 156.093 43.1601 157.23 44.5016C159.033 47.3047 158.435 48.0108 158.421 49.8351C158.232 51.0902 157.883 51.5499 156.622 51.8275C155.762 52.5216 155.174 52.7078 153.949 52.547C153.136 49.8311 153.083 48.802 153.027 47.0075C152.969 45.4763 153.468 44.942 154.423 44.0293Z" fill="#E40A0A"/>
<path d="M157.419 46.5661C156.988 45.0225 156.432 45.1131 155.394 45.4143C154.729 45.6506 154.464 46.0622 154.049 46.9617C153.301 49.3896 153.655 50.9082 155.09 50.8897C155.841 50.6726 156.272 50.4943 157.091 49.9082C158.309 48.5376 157.996 47.8285 157.419 46.5661Z" fill="black" stroke="black" stroke-width="0.112664"/>
<path d="M157.022 46.969C156.698 45.8067 156.279 45.875 155.498 46.1018C154.997 46.2796 154.797 46.5896 154.485 47.2668C153.922 49.0949 154.188 50.2383 155.269 50.2244C155.834 50.0609 156.159 49.9267 156.775 49.4854C157.692 48.4534 157.457 47.9195 157.022 46.969Z" fill="#1F881D" stroke="black" stroke-width="0.112664"/>
<path d="M156.82 47.8126C156.61 47.1421 156.35 46.9048 155.862 46.5069C155.654 47.3241 155.681 47.6114 155.836 47.9991L156.189 48.8618C156.599 48.5748 156.746 48.3614 156.82 47.8126Z" fill="#ECE0FF"/>
<path d="M155.566 48.8652L155.062 47.6328L154.843 48.9979L155.07 49.5524L155.205 49.1905L155.566 48.8652Z" fill="#FEDEFF"/>
<path d="M158.732 39.6776C159.996 38.2948 160.801 37.9189 162.788 39.3763C166.142 42.6153 165.519 43.7874 166.047 46.2971C166.159 48.0845 165.811 48.8337 164.134 49.642C163.142 50.8863 162.379 51.3408 160.622 51.5347C158.675 48.0802 158.292 46.6852 157.677 44.2399C157.137 42.1569 157.674 41.2541 158.732 39.6776Z" fill="#14000C"/>
<path d="M159.407 40.7393C160.479 39.5665 161.162 39.2477 162.847 40.4837C165.692 43.2309 165.164 44.225 165.611 46.3535C165.706 47.8695 165.41 48.5049 163.989 49.1905C163.147 50.2458 162.5 50.6313 161.01 50.7957C159.359 47.8658 159.034 46.6827 158.512 44.6088C158.054 42.8421 158.51 42.0764 159.407 40.7393Z" fill="#E40A0A"/>
<path d="M163.595 42.8428C162.693 41.1685 162.059 41.4337 160.907 42.0826C160.181 42.5484 159.971 43.1042 159.71 44.2707C159.442 47.3131 160.245 48.9803 161.938 48.5468C162.772 48.0783 163.236 47.747 164.055 46.8294C165.148 44.8834 164.598 44.1474 163.595 42.8428Z" fill="black" stroke="black" stroke-width="0.135689"/>
<path d="M163.232 43.417C162.553 42.1564 162.076 42.3561 161.208 42.8446C160.662 43.1954 160.504 43.6138 160.307 44.4921C160.105 46.7829 160.71 48.0382 161.985 47.7118C162.612 47.359 162.962 47.1096 163.579 46.4187C164.402 44.9535 163.987 44.3993 163.232 43.417Z" fill="#1F881D" stroke="black" stroke-width="0.135689"/>
<path d="M162.917 45.0002C162.388 44.0899 161.925 43.8348 161.067 43.4265C161.019 44.7042 161.151 45.1172 161.508 45.6313L162.311 46.7726C162.832 46.2015 162.983 45.8344 162.917 45.0002Z" fill="#ECE0FF"/>
<path d="M162.731 35.1832C163.612 33.2102 164.298 32.4735 166.578 33.1119C170.62 34.992 170.306 36.4698 171.434 38.8259C171.983 40.6182 171.831 41.5414 170.409 43.1018C169.756 44.8141 169.13 45.6138 167.479 46.5762C164.745 43.8631 164.031 42.5924 162.834 40.3409C161.799 38.4295 162.096 37.2665 162.731 35.1832Z" fill="#14000C"/>
<path d="M163.642 35.9877C164.389 34.3143 164.971 33.6895 166.905 34.2309C170.333 35.8255 170.067 37.0789 171.024 39.0772C171.49 40.5973 171.36 41.3803 170.154 42.7037C169.601 44.156 169.069 44.8343 167.669 45.6505C165.351 43.3494 164.745 42.2717 163.73 40.3621C162.852 38.7409 163.104 37.7546 163.642 35.9877Z" fill="#E40A0A"/>
<path d="M168.207 36.3307C166.923 34.9974 166.374 35.5462 165.421 36.7146C164.833 37.5096 164.767 38.1731 164.802 39.4883C165.292 42.7385 166.48 44.107 168.01 42.9254C168.701 42.0809 169.068 41.5382 169.634 40.2372C170.212 37.7582 169.498 37.2391 168.207 36.3307Z" fill="black" stroke="black" stroke-width="0.156946"/>
<path d="M168 37.0842C167.033 36.0803 166.62 36.4935 165.902 37.3732C165.46 37.9718 165.41 38.4714 165.436 39.4617C165.805 41.9089 166.7 42.9393 167.852 42.0496C168.372 41.4138 168.648 41.0052 169.075 40.0255C169.51 38.159 168.972 37.7682 168 37.0842Z" fill="#1F881D" stroke="black" stroke-width="0.156946"/>
<path d="M168.224 38.1685C167.641 37.6081 167.237 37.5593 166.501 37.521C166.713 38.5796 166.895 38.871 167.268 39.1675L168.106 39.8219C168.393 39.1771 168.437 38.8261 168.224 38.1685Z" fill="#ECE0FF"/>
<path d="M167.447 40.3255L166.25 39.3906L166.742 41.055L167.28 41.4757L167.232 40.9724L167.447 40.3255Z" fill="#FEDEFF"/>
<path d="M165.342 28.0201C166.165 25.8378 166.917 25.0094 169.849 25.6178C175.149 27.5117 174.965 29.133 176.7 31.6562C177.635 33.5872 177.574 34.5985 176.019 36.352C175.445 38.2417 174.775 39.1365 172.852 40.2474C169.066 37.3966 167.999 36.0399 166.191 33.6333C164.635 31.5909 164.842 30.3131 165.342 28.0201Z" fill="#14000C"/>
<path d="M166.583 28.8541C167.281 27.0032 167.919 26.3006 170.406 26.8166C174.901 28.4229 174.745 29.798 176.216 31.938C177.009 33.5758 176.957 34.4335 175.639 35.9207C175.152 37.5234 174.584 38.2823 172.953 39.2245C169.741 36.8067 168.836 35.656 167.304 33.6148C165.983 31.8827 166.159 30.7989 166.583 28.8541Z" fill="#E40A0A"/>
<path d="M172.324 29.0626C170.538 27.6594 169.931 28.2778 168.905 29.5866C168.284 30.4748 168.294 31.2 168.521 32.6309C169.586 36.1522 171.257 37.5974 173 36.2522C173.743 35.3062 174.125 34.7013 174.649 33.2627C175.023 30.541 174.061 30.0028 172.324 29.0626Z" fill="black" stroke="black" stroke-width="0.166363"/>
<path d="M172.171 29.8872C170.826 28.8306 170.369 29.2963 169.596 30.2818C169.129 30.9505 169.137 31.4965 169.307 32.574C170.109 35.2252 171.368 36.3134 172.68 35.3006C173.239 34.5883 173.527 34.1328 173.921 33.0497C174.203 31.0003 173.478 30.5951 172.171 29.8872Z" fill="#1F881D" stroke="black" stroke-width="0.166363"/>
<path d="M172.602 31.0592C171.797 30.4711 171.286 30.4334 170.364 30.4197C170.776 31.5645 171.043 31.8749 171.549 32.1837L172.685 32.8645C172.954 32.1513 172.959 31.7673 172.602 31.0592Z" fill="#ECE0FF"/>
<path d="M171.935 33.4414L170.312 32.4688L171.158 34.2627L171.888 34.7003L171.758 34.1541L171.935 33.4414Z" fill="#FEDEFF"/>
<path d="M183.947 16.3908C184.23 18.4699 183.985 19.4735 181.378 20.4341C176.322 21.5597 175.771 20.2229 173.295 19.1279C171.715 18.0982 171.328 17.2905 171.815 15.1846C171.46 13.4515 171.61 12.4372 172.67 10.6458C176.927 10.9936 178.366 11.5171 180.849 12.4875C182.974 13.2997 183.359 14.3835 183.947 16.3908Z" fill="#14000C"/>
<path d="M182.589 16.3449C182.829 18.1083 182.622 18.9595 180.41 19.7742C176.122 20.7289 175.654 19.5951 173.555 18.6663C172.214 17.793 171.886 17.108 172.3 15.3219C171.999 13.852 172.126 12.9918 173.024 11.4724C176.635 11.7674 177.855 12.2114 179.961 13.0344C181.764 13.7233 182.09 14.6424 182.589 16.3449Z" fill="#E40A0A"/>
<path d="M177.914 18.9888C179.948 19.1976 180.167 18.4262 180.423 16.9198C180.537 15.9343 180.216 15.3817 179.418 14.3915C177.048 12.2023 175.088 11.9052 174.274 13.7888C174.088 14.8782 174.043 15.5295 174.244 16.8913C175.118 19.1665 176.12 19.1117 177.914 18.9888Z" fill="black" stroke="black" stroke-width="0.151125"/>
<path d="M177.682 18.2749C179.213 18.432 179.378 17.8512 179.571 16.717C179.657 15.975 179.415 15.5589 178.814 14.8133C177.03 13.165 175.554 12.9413 174.941 14.3595C174.801 15.1798 174.767 15.6702 174.919 16.6955C175.577 18.4086 176.331 18.3674 177.682 18.2749Z" fill="#1F881D" stroke="black" stroke-width="0.151125"/>
<path d="M176.83 17.5878C177.727 17.6482 178.152 17.4283 178.896 16.9894C178.073 16.3096 177.726 16.2011 177.187 16.2106L175.985 16.2402C176.078 16.9195 176.239 17.2174 176.83 17.5878Z" fill="#ECE0FF"/>
<path d="M186.455 10.3763C186.85 11.9885 186.739 12.8021 184.748 13.8018C180.827 15.1597 180.279 14.1576 178.223 13.5252C176.884 12.861 176.51 12.2605 176.724 10.5556C176.299 9.22299 176.334 8.40975 177.028 6.89942C180.437 6.777 181.622 7.05556 183.673 7.58902C185.428 8.0311 185.822 8.84929 186.455 10.3763Z" fill="#14000C"/>
<path d="M185.376 10.4715C185.711 11.8388 185.617 12.5289 183.928 13.3768C180.602 14.5285 180.138 13.6785 178.394 13.1422C177.258 12.5788 176.941 12.0696 177.122 10.6236C176.762 9.49335 176.792 8.80362 177.38 7.52265C180.271 7.41883 181.277 7.65509 183.016 8.10753C184.504 8.48247 184.839 9.17641 185.376 10.4715Z" fill="#E40A0A"/>
<path d="M181.877 12.9932C183.509 12.9683 183.619 12.34 183.699 11.1291C183.708 10.3419 183.408 9.9363 182.692 9.23035C180.631 7.72589 179.05 7.67431 178.559 9.23438C178.501 10.1102 178.519 10.6276 178.79 11.6821C179.672 13.3936 180.463 13.2571 181.877 12.9932Z" fill="black" stroke="black" stroke-width="0.120265"/>
<path d="M181.634 12.4488C182.863 12.43 182.946 11.9569 183.006 11.0452C183.013 10.4525 182.787 10.1471 182.248 9.61553C180.696 8.48276 179.506 8.44392 179.136 9.61857C179.092 10.278 179.106 10.6676 179.31 11.4615C179.974 12.7502 180.569 12.6475 181.634 12.4488Z" fill="#1F881D" stroke="black" stroke-width="0.120265"/>
<path d="M180.906 11.9914C181.623 11.9555 181.943 11.7426 182.497 11.3275C181.788 10.8684 181.503 10.8153 181.076 10.8729L180.124 11.0082C180.254 11.5348 180.406 11.7545 180.906 11.9914Z" fill="#ECE0FF"/>
<path d="M188.789 6.89088C189.007 7.95431 188.914 8.48241 187.593 9.08008C185.007 9.85822 184.675 9.18883 183.352 8.71918C182.496 8.2485 182.267 7.84617 182.448 6.73899C182.204 5.85725 182.247 5.3273 182.736 4.36043C184.958 4.37471 185.723 4.58933 187.045 4.99429C188.177 5.33139 188.414 5.87647 188.789 6.89088Z" fill="#14000C"/>
<path d="M188.082 6.92548C188.267 7.82741 188.188 8.27531 187.068 8.78222C184.874 9.44218 184.593 8.87445 183.47 8.47612C182.745 8.07692 182.551 7.73569 182.704 6.79665C182.497 6.04882 182.533 5.59935 182.948 4.77932C184.833 4.79143 185.481 4.97345 186.603 5.31691C187.563 5.60282 187.764 6.06512 188.082 6.92548Z" fill="#E40A0A"/>
<path d="M185.745 8.47879C186.808 8.50761 186.896 8.1005 186.977 7.31215C187.002 6.79848 186.816 6.52535 186.368 6.0447C185.062 5.00552 184.034 4.92816 183.677 5.9331C183.617 6.50329 183.616 6.84158 183.767 7.53749C184.3 8.67922 184.818 8.61199 185.745 8.47879Z" fill="black" stroke="black" stroke-width="0.0784732"/>
<path d="M185.602 8.1094C186.402 8.1311 186.468 7.82457 186.529 7.23098C186.548 6.84422 186.409 6.63857 186.071 6.27667C185.088 5.49423 184.314 5.43598 184.044 6.19264C184 6.62196 183.999 6.87667 184.113 7.40065C184.514 8.26031 184.904 8.20969 185.602 8.1094Z" fill="#1F881D" stroke="black" stroke-width="0.0784732"/>
<path d="M185.135 7.7925C185.602 7.78886 185.815 7.65868 186.187 7.40301C185.736 7.0837 185.552 7.04114 185.272 7.06693L184.649 7.12897C184.721 7.47636 184.815 7.62402 185.135 7.7925Z" fill="#ECE0FF"/>
<path d="M190.251 4.77446C190.415 5.49319 190.36 5.85347 189.47 6.28154C187.722 6.85336 187.486 6.40421 186.579 6.1073C185.99 5.80188 185.828 5.5324 185.935 4.77728C185.756 4.18241 185.777 3.8217 186.095 3.15675C187.607 3.1293 188.131 3.2623 189.037 3.51527C189.812 3.72534 189.981 4.09164 190.251 4.77446Z" fill="#14000C"/>
<path d="M189.77 4.80917C189.91 5.41874 189.863 5.72431 189.108 6.08737C187.626 6.57235 187.425 6.19141 186.656 5.93959C186.156 5.68055 186.019 5.452 186.11 4.81156C185.958 4.30703 185.976 4.0011 186.246 3.43713C187.528 3.41384 187.973 3.52664 188.741 3.7412C189.398 3.91937 189.542 4.23004 189.77 4.80917Z" fill="#E40A0A"/>
<path d="M188.202 5.89696C188.926 5.89876 188.979 5.62075 189.023 5.08387C189.032 4.73452 188.902 4.55209 188.59 4.23309C187.686 3.54901 186.985 3.51365 186.757 4.20228C186.725 4.5906 186.729 4.8204 186.842 5.29061C187.221 6.05727 187.573 6.00294 188.202 5.89696Z" fill="black" stroke="black" stroke-width="0.0533618"/>
<path d="M188.1 5.65541C188.645 5.65677 188.685 5.44745 188.718 5.04321C188.725 4.78016 188.627 4.64281 188.392 4.40261C187.712 3.88755 187.184 3.86092 187.012 4.37942C186.988 4.6718 186.991 4.84483 187.076 5.19886C187.362 5.77612 187.626 5.73521 188.1 5.65541Z" fill="#1F881D" stroke="black" stroke-width="0.0533618"/>
<path d="M187.774 5.44326C188.093 5.43296 188.236 5.34097 188.484 5.16109C188.173 4.95173 188.047 4.92589 187.858 4.94808L187.435 5.00064C187.488 5.23542 187.555 5.33416 187.774 5.44326Z" fill="#ECE0FF"/>
<path d="M147.709 40.826C143.924 40.7691 142.259 39.9827 141.672 34.502C141.832 24.0948 144.422 23.3951 147.403 18.7897C149.888 15.9488 151.475 15.4191 154.98 17.0181C158.185 16.827 159.91 17.4276 162.618 20.0723C160.199 28.4499 158.666 31.1595 155.903 35.8165C153.569 39.8089 151.496 40.2526 147.709 40.826Z" fill="#14000C"/>
<path d="M148.355 38.1327C145.145 38.0845 143.733 37.4175 143.235 32.7691C143.371 23.9424 145.568 23.3489 148.095 19.4429C150.203 17.0335 151.549 16.5843 154.522 17.9404C157.241 17.7784 158.703 18.2878 161 20.5308C158.948 27.6361 157.648 29.9342 155.304 33.884C153.326 37.2701 151.567 37.6464 148.355 38.1327Z" fill="#E40A0A"/>
<path d="M145.683 28.0315C144.452 32.0212 145.719 32.6873 148.265 33.647C149.954 34.1673 151.064 33.6928 153.148 32.3982C158.011 28.3301 159.366 24.5141 156.392 22.331C154.551 21.6349 153.422 21.3519 150.936 21.3456C146.555 22.4094 146.227 24.4208 145.683 28.0315Z" fill="black" stroke="black" stroke-width="0.288229"/>
<path d="M147.035 27.7824C146.108 30.7864 147.062 31.2879 148.979 32.0105C150.251 32.4023 151.086 32.045 152.655 31.0703C156.317 28.0072 157.338 25.134 155.098 23.4902C153.712 22.9661 152.862 22.753 150.99 22.7483C147.692 23.5492 147.445 25.0637 147.035 27.7824Z" fill="#1F881D" stroke="black" stroke-width="0.288229"/>
<path d="M150.144 26.4563C149.657 28.2251 149.864 29.1373 150.322 30.7498C151.869 29.3131 152.208 28.653 152.42 27.5776L152.877 25.1745C151.641 25.1567 151.047 25.3893 150.144 26.4563Z" fill="#ECE0FF"/>
<path d="M114.419 62.1308C111.923 62.0933 110.825 61.5747 110.438 57.9603C110.543 51.097 112.252 50.6356 114.217 47.5984C115.856 45.725 116.903 45.3757 119.214 46.4301C121.328 46.3041 122.465 46.7002 124.251 48.4443C122.656 53.9691 121.645 55.756 119.822 58.8271C118.284 61.46 116.916 61.7526 114.419 62.1308Z" fill="#14000C"/>
<path d="M114.843 60.3496C112.727 60.3178 111.795 59.8779 111.467 56.8124C111.557 50.9915 113.005 50.6001 114.672 48.0242C116.062 46.4352 116.95 46.139 118.911 47.0333C120.703 46.9264 121.668 47.2624 123.182 48.7416C121.83 53.4274 120.972 54.9429 119.427 57.5476C118.122 59.7807 116.962 60.0289 114.843 60.3496Z" fill="#E40A0A"/>
<path d="M113.086 53.6872C112.274 56.3183 113.11 56.7575 114.789 57.3905C115.902 57.7336 116.635 57.4207 118.009 56.5669C121.216 53.8841 122.11 51.3676 120.148 49.9278C118.934 49.4688 118.189 49.2822 116.55 49.278C113.661 49.9796 113.445 51.306 113.086 53.6872Z" fill="black" stroke="black" stroke-width="0.190079"/>
<path d="M113.974 53.5174C113.363 55.4985 113.992 55.8292 115.257 56.3058C116.095 56.5641 116.647 56.3285 117.681 55.6857C120.096 53.6657 120.769 51.7709 119.292 50.6868C118.378 50.3412 117.817 50.2007 116.583 50.1976C114.408 50.7258 114.245 51.7245 113.974 53.5174Z" fill="#1F881D" stroke="black" stroke-width="0.190079"/>
<path d="M116.022 52.6463C115.701 53.8128 115.838 54.4144 116.14 55.4778C117.16 54.5303 117.384 54.095 117.523 53.3858L117.825 51.801C117.009 51.7893 116.618 51.9427 116.022 52.6463Z" fill="#ECE0FF"/>
<path d="M129.383 49.8898C126.606 49.8481 125.383 49.2709 124.953 45.2482C125.07 37.6096 126.971 37.096 129.159 33.7158C130.983 31.6307 132.148 31.242 134.72 32.4156C137.073 32.2753 138.339 32.7161 140.326 34.6573C138.551 40.8061 137.426 42.7949 135.398 46.213C133.685 49.1433 132.163 49.4689 129.383 49.8898Z" fill="#14000C"/>
<path d="M129.858 47.9156C127.502 47.8803 126.466 47.3907 126.101 43.979C126.2 37.5004 127.813 37.0648 129.668 34.198C131.215 32.4295 132.203 32.0998 134.385 33.0952C136.38 32.9762 137.454 33.3501 139.139 34.9964C137.634 40.2115 136.679 41.8982 134.959 44.7972C133.507 47.2825 132.216 47.5587 129.858 47.9156Z" fill="#E40A0A"/>
<path d="M144.155 72.8943C141.877 73.4509 140.939 74.1551 141.045 77.542C142.015 83.7974 143.636 83.862 145.821 86.2286C147.558 87.5991 148.56 87.6995 150.54 86.2512C152.489 85.9241 153.479 85.3239 154.891 83.3548C152.728 78.6354 151.576 77.2126 149.518 74.785C147.776 72.6989 146.488 72.7174 144.155 72.8943Z" fill="#14000C"/>
<path d="M144.77 74.4275C142.838 74.8996 142.042 75.4968 142.132 78.3694C142.955 83.6748 144.33 83.7296 146.182 85.7367C147.656 86.8992 148.506 86.9843 150.185 85.756C151.838 85.4785 152.678 84.9694 153.875 83.2995C152.041 79.2968 151.064 78.09 149.318 76.0311C147.841 74.2617 146.748 74.2775 144.77 74.4275Z" fill="#E40A0A"/>
<path d="M144.005 80.9032C142.928 78.6665 143.636 78.0899 145.092 77.1596C146.067 76.6127 146.776 76.7456 148.142 77.2389C151.417 79.0214 152.554 81.1362 150.944 82.8636C149.891 83.5376 149.234 83.8641 147.736 84.2109C145.004 84.1739 144.637 83.006 144.005 80.9032Z" fill="black" stroke="black" stroke-width="0.176603"/>
<path d="M144.844 80.8577C144.033 79.1736 144.566 78.7395 145.662 78.039C146.396 77.6272 146.93 77.7273 147.958 78.0987C150.424 79.4409 151.281 81.0332 150.068 82.3338C149.276 82.8413 148.781 83.0871 147.653 83.3482C145.596 83.3204 145.32 82.441 144.844 80.8577Z" fill="#1F881D" stroke="black" stroke-width="0.176603"/>
<path d="M146.829 81.2283C146.387 80.2286 146.436 79.6498 146.577 78.6139C147.631 79.267 147.89 79.6184 148.108 80.2378L148.586 81.6242C147.842 81.8056 147.464 81.7472 146.829 81.2283Z" fill="#ECE0FF"/>
<path d="M132.34 69.9568C130.668 70.3653 129.979 70.8822 130.057 73.3681C130.769 77.9593 131.959 78.0067 133.562 79.7437C134.837 80.7497 135.573 80.8233 137.026 79.7604C138.457 79.5203 139.183 79.0797 140.219 77.6345C138.632 74.1706 137.787 73.1263 136.276 71.3445C134.997 69.8133 134.052 69.8269 132.34 69.9568Z" fill="#14000C"/>
<path d="M132.789 71.0907C131.371 71.4372 130.787 71.8755 130.853 73.9839C131.457 77.8779 132.466 77.9181 133.826 79.3913C134.908 80.2445 135.531 80.307 136.764 79.4054C137.977 79.2018 138.594 78.8281 139.472 77.6024C138.126 74.6646 137.409 73.7789 136.128 72.2677C135.043 70.969 134.241 70.9806 132.789 71.0907Z" fill="#E40A0A"/>
<path d="M127.898 40.4944C126.994 43.4227 127.924 43.9116 129.793 44.616C131.033 44.9979 131.847 44.6496 133.377 43.6995C136.947 40.7136 137.941 37.9128 135.758 36.3104C134.407 35.7995 133.578 35.5918 131.754 35.5872C128.538 36.368 128.297 37.8443 127.898 40.4944Z" fill="black" stroke="black" stroke-width="0.211551"/>
<path d="M128.888 40.3151C128.208 42.5199 128.908 42.888 130.316 43.4184C131.249 43.706 131.862 43.4437 133.014 42.7283C135.702 40.4801 136.451 38.3713 134.807 37.1648C133.789 36.7801 133.165 36.6237 131.792 36.6202C129.371 37.2081 129.189 38.3197 128.888 40.3151Z" fill="#1F881D" stroke="black" stroke-width="0.211551"/>
<path d="M134.802 78.7631C136.801 79.5664 137.22 78.8373 137.864 77.3638C138.231 76.3842 138.049 75.7235 137.497 74.4752C135.667 71.5399 133.765 70.6672 132.461 72.3667C131.994 73.432 131.782 74.0882 131.636 75.5455C131.935 78.1362 132.96 78.3699 134.802 78.7631Z" fill="#1F881D" stroke="black" stroke-width="0.211551"/>
<path d="M131.169 39.3398C130.811 40.6381 130.964 41.3076 131.3 42.4911C132.435 41.4366 132.684 40.9522 132.839 40.1628L133.175 38.399C132.268 38.386 131.832 38.5567 131.169 39.3398Z" fill="#ECE0FF"/>
<path d="M133.641 75.7136C134.347 76.7989 134.934 77.0824 136.016 77.5284C136.002 75.953 135.815 75.4534 135.344 74.8443L134.285 73.4927C133.675 74.2297 133.511 74.6914 133.641 75.7136Z" fill="#ECE0FF"/>
</svg>
