<svg width="213" height="116" viewBox="0 0 213 116" fill="none" xmlns="http://www.w3.org/2000/svg">
<path d="M4.89664 3.39813C31.8438 -5.96085 53.6819 3.52755 100.587 37.9077C102.708 38.8172 103.73 38.9934 103.724 35.5913C102.496 33.2758 101.645 31.9319 105.069 30.962C109.476 30.4055 110.542 31.3102 110.357 34.96C109.864 37.2512 109.807 38.3575 112.688 37.9077C120.431 31.6014 124.772 28.0681 132.633 22.3346C150.99 10.3783 162.197 5.1635 185.968 1.92341C204.629 1.63431 212.287 3.52338 212.636 16.6531C213.696 24.6075 201.836 35.9806 183.055 54.9503L177.453 56.8441L183.055 64.8402C186.708 69.5769 185.778 75.5359 181.934 88.6182C174.351 108.326 163.693 111.812 142.941 115.973C131.727 116.506 127.035 109.036 118.739 95.3518C113.242 84.9345 111.772 78.0313 110.447 64.8402L110.442 65.4164C110.295 81.6897 110.211 90.9899 104.396 94.0892C100.718 86.4796 99.636 80.3484 98.4676 70.0489C97.5262 81.21 89.7916 106.657 75.0396 115.132L61.1455 113.238C40.9417 109.963 34.591 103.448 28.6513 86.7244C22.6246 73.6349 35.7616 53.5291 34.4778 52.8461C33.194 52.163 27.5887 50.6548 19.2389 40.2206C1.03969 19.346 -5.37689 9.58758 4.89664 3.39813Z" fill="#032EED"/>
<path d="M40.7093 83.9508C39.701 85.2202 39.0162 85.5795 37.1261 84.3446C33.8708 81.567 34.3268 80.5049 33.6475 78.2884C33.3977 76.7017 33.6453 76.0243 35.069 75.2532C35.8472 74.1154 36.4887 73.6874 38.0352 73.4604C40.0565 76.4735 40.5139 77.7027 41.2663 79.8591C41.9207 81.6956 41.5187 82.5154 40.7093 83.9508Z" fill="#14000C"/>
<path d="M40.0247 83.0253C39.1695 84.102 38.5886 84.4067 36.9856 83.3594C34.2247 81.0035 34.6114 80.1027 34.0353 78.2229C33.8234 76.8771 34.0334 76.3026 35.241 75.6486C35.9009 74.6836 36.445 74.3206 37.7567 74.1281C39.471 76.6836 39.8589 77.7261 40.497 79.555C41.0521 81.1126 40.7111 81.8079 40.0247 83.0253Z" fill="#FF5DD6"/>
<path d="M36.1261 81.2912C37.0682 82.7528 37.6107 82.4972 38.581 81.8842C39.1877 81.4472 39.3279 80.9463 39.463 79.9004C39.4468 77.1853 38.5923 75.7269 37.1223 76.1652C36.42 76.6078 36.0349 76.9169 35.3826 77.7587C34.5732 79.5239 35.1246 80.1616 36.1261 81.2912Z" fill="black" stroke="black" stroke-width="0.120917"/>
<path d="M36.3993 80.7643C37.1086 81.8648 37.5171 81.6723 38.2477 81.2108C38.7046 80.8818 38.8101 80.5046 38.9118 79.7171C38.8996 77.6728 38.2562 76.5747 37.1494 76.9047C36.6206 77.238 36.3306 77.4707 35.8395 78.1046C35.2301 79.4336 35.6453 79.9138 36.3993 80.7643Z" fill="#E0B049" stroke="black" stroke-width="0.120917"/>
<path d="M36.3396 79.8421C36.7726 80.4702 37.1159 80.6385 37.7466 80.905C37.6963 80.0039 37.5758 79.7163 37.2905 79.363L36.6488 78.579C36.3196 78.9939 36.238 79.2562 36.3396 79.8421Z" fill="#ECE0FF"/>
<path d="M37.2825 78.3955L38.1992 79.5156L37.9829 78.048L37.5704 77.5439L37.549 77.9554L37.2825 78.3955Z" fill="#FEDEFF"/>
<path d="M62.606 76.008C61.6552 75.7491 61.2683 75.4434 61.3465 74.0252C61.8161 71.4144 62.4973 71.4056 63.4378 70.4383C64.1809 69.8834 64.6026 69.8526 65.4194 70.4819C66.2345 70.6409 66.644 70.9036 67.2169 71.7447C66.2622 73.6983 65.7644 74.2817 64.8763 75.2759C64.124 76.1306 63.5835 76.1084 62.606 76.008Z" fill="#FF5DD6"/>
<path d="M62.3026 72.7979C61.7431 73.8888 62.0869 74.1831 62.7963 74.6622C63.2725 74.9454 63.6253 74.8891 64.307 74.6634C65.9491 73.826 66.537 72.7961 65.7599 71.9212C65.2471 71.5742 64.9256 71.4041 64.1878 71.2128C62.8352 71.1949 62.6399 71.7672 62.3026 72.7979Z" fill="black" stroke="black" stroke-width="0.0873697"/>
<path d="M62.7208 72.8247C62.2995 73.6462 62.5584 73.8678 63.0925 74.2284C63.4511 74.4417 63.7167 74.3993 64.2299 74.2294C65.4664 73.5989 65.909 72.8234 65.3239 72.1646C64.9378 71.9034 64.6957 71.7753 64.1402 71.6313C63.1217 71.6178 62.9747 72.0487 62.7208 72.8247Z" fill="#E0B049" stroke="black" stroke-width="0.0873697"/>
<path d="M63.2586 72.5045C63.028 72.9927 63.0452 73.2794 63.1028 73.7931C63.6321 73.4844 63.7648 73.3142 63.88 73.011L64.1327 72.3322C63.7664 72.2327 63.5788 72.2566 63.2586 72.5045Z" fill="#ECE0FF"/>
<path d="M64.4665 72.71L64.1055 73.6797L64.9209 73.0847L65.0834 72.6483L64.8262 72.7589L64.4665 72.71Z" fill="#FEDEFF"/>
<path d="M59.0015 75.452C57.9134 75.5172 57.4064 75.3274 57.0339 73.7674C56.6926 70.7777 57.4097 70.5211 58.0934 69.1354C58.7008 68.2666 59.1366 68.0804 60.2019 68.4637C61.1145 68.3398 61.6316 68.475 62.5071 69.1756C62.1249 71.6316 61.7859 72.4421 61.1663 73.838C60.6454 75.0338 60.067 75.2058 59.0015 75.452Z" fill="#14000C"/>
<path d="M59.0871 74.6604C58.1643 74.7157 57.7343 74.5548 57.4184 73.2317C57.1289 70.696 57.7371 70.4783 58.317 69.3031C58.8321 68.5663 59.2017 68.4084 60.1052 68.7335C60.8792 68.6284 61.3178 68.743 62.0604 69.3372C61.7362 71.4202 61.4487 72.1077 60.9232 73.2915C60.4814 74.3058 59.9908 74.4517 59.0871 74.6604Z" fill="#FF5DD6"/>
<path d="M57.945 71.8242C57.7403 72.9955 58.1286 73.1593 58.895 73.3798C59.3989 73.4928 59.6998 73.3327 60.2496 72.9163C61.4937 71.6442 61.7405 70.52 60.8057 69.9576C60.2515 69.7976 59.917 69.7407 59.2036 69.7925C57.9861 70.1921 57.9668 70.7763 57.945 71.8242Z" fill="black" stroke="black" stroke-width="0.0831077"/>
<path d="M58.3194 71.731C58.1653 72.613 58.4577 72.7363 59.0347 72.9024C59.4142 72.9874 59.6407 72.8668 60.0546 72.5533C60.9914 71.5955 61.1772 70.7491 60.4734 70.3256C60.0561 70.2051 59.8042 70.1623 59.2671 70.2013C58.3504 70.5022 58.3358 70.9421 58.3194 71.731Z" fill="#E0B049" stroke="black" stroke-width="0.0831077"/>
<path d="M59.2918 71.2238C59.2179 71.7419 59.3114 71.9991 59.5028 72.452C59.8933 72.0064 59.9659 71.8097 59.9867 71.4965L60.0285 70.7971C59.673 70.8186 59.5114 70.8982 59.2918 71.2238Z" fill="#ECE0FF"/>
<path d="M55.2796 74.65C54.2889 74.7969 53.8117 74.6629 53.3608 73.2577C52.8372 70.5351 53.4751 70.2418 54.0025 68.9126C54.4967 68.0651 54.8822 67.859 55.8837 68.1265C56.7097 67.9396 57.1923 68.0226 58.0427 68.597C57.8666 70.8866 57.6138 71.6592 57.1457 72.9925C56.7538 74.1341 56.2368 74.3385 55.2796 74.65Z" fill="#14000C"/>
<path d="M55.3026 73.9267C54.4624 74.0514 54.0576 73.9377 53.6751 72.7459C53.2311 70.4368 53.7721 70.188 54.2194 69.0607C54.6385 68.3419 54.9655 68.1671 55.8149 68.3939C56.5155 68.2354 56.9248 68.3059 57.646 68.793C57.4967 70.7349 57.2823 71.3901 56.8853 72.521C56.5529 73.4892 56.1144 73.6626 55.3026 73.9267Z" fill="#FF5DD6"/>
<path d="M54.0589 71.4008C53.9545 72.4945 54.3213 72.6141 55.0379 72.7558C55.5068 72.8194 55.7708 72.6481 56.2442 72.2212C57.2923 70.9518 57.4386 69.898 56.5438 69.4555C56.0255 69.3525 55.7155 69.3269 55.0666 69.4315C53.9812 69.8964 54.0048 70.4353 54.0589 71.4008Z" fill="black" stroke="black" stroke-width="0.0764858"/>
<path d="M54.3987 71.281C54.3201 72.1045 54.5962 72.1946 55.1358 72.3012C55.4889 72.3491 55.6876 72.2201 56.044 71.8987C56.8333 70.9429 56.9434 70.1495 56.2696 69.8163C55.8794 69.7388 55.646 69.7195 55.1574 69.7983C54.3402 70.1482 54.3579 70.554 54.3987 71.281Z" fill="#E0B049" stroke="black" stroke-width="0.0764858"/>
<path d="M54.7236 70.8213C54.6927 71.3037 54.7964 71.5328 55.0035 71.9341C55.3292 71.493 55.3817 71.3063 55.3785 71.0166L55.3674 70.3699C55.0437 70.4182 54.9015 70.5042 54.7236 70.8213Z" fill="#ECE0FF"/>
<path d="M55.7575 70.5606L55.7734 71.4844L56.2378 70.7069L56.2306 70.2912L56.06 70.4731L55.7575 70.5606Z" fill="#FEDEFF"/>
<path d="M51.5821 75.2575C50.4657 75.7157 49.8758 75.6941 48.9937 74.1616C47.6925 71.0914 48.3609 70.5614 48.6376 68.8378C48.9979 67.6935 49.3945 67.3391 50.6289 67.3679C51.5435 66.9098 52.1266 66.8695 53.2629 67.3048C53.6393 70.0635 53.5411 71.0499 53.3346 72.7614C53.168 74.2242 52.6178 74.6143 51.5821 75.2575Z" fill="#14000C"/>
<path d="M51.4216 74.3826C50.4747 74.7711 49.9744 74.7528 49.2263 73.453C48.1226 70.8491 48.6895 70.3996 48.9243 68.9378C49.2298 67.9672 49.5662 67.6666 50.6131 67.6911C51.3888 67.3026 51.8834 67.2684 52.8471 67.6376C53.1664 69.9773 53.0831 70.8139 52.9079 72.2655C52.7666 73.5061 52.3 73.837 51.4216 74.3826Z" fill="#FF5DD6"/>
<path d="M49.3296 71.7634C49.4858 73.087 49.9433 73.1233 50.8139 73.0851C51.3762 73.0257 51.6401 72.7474 52.083 72.1066C52.9814 70.3041 52.8841 69.0158 51.7296 68.7492C51.0998 68.7761 50.7323 68.8348 50.0031 69.1448C48.857 70.0062 49.0214 70.6369 49.3296 71.7634Z" fill="black" stroke="black" stroke-width="0.092117"/>
<path d="M49.6954 71.5171C49.813 72.5137 50.1575 72.541 50.813 72.5122C51.2364 72.4675 51.4351 72.2579 51.7686 71.7754C52.445 70.4183 52.3718 69.4483 51.5024 69.2475C51.0283 69.2678 50.7516 69.312 50.2025 69.5454C49.3395 70.194 49.4633 70.6689 49.6954 71.5171Z" fill="#E0B049" stroke="black" stroke-width="0.092117"/>
<path d="M50.2692 70.6289C50.3784 71.361 50.6045 71.6658 51.038 72.1902C51.3756 71.4131 51.393 71.115 51.2954 70.6833L51.0715 69.7212C50.6108 69.9105 50.4292 70.0907 50.2692 70.6289Z" fill="#ECE0FF"/>
<path d="M48.0202 76.7774C46.9989 77.7226 46.3962 77.9626 45.135 76.8452C43.0806 74.4007 43.6307 73.5832 43.4978 71.7648C43.5884 70.4793 43.9053 69.955 45.1627 69.4368C45.9795 68.5811 46.5606 68.2832 47.8162 68.2084C48.859 70.756 48.9961 71.77 49.1972 73.5455C49.3792 75.0585 48.9153 75.686 48.0202 76.7774Z" fill="#14000C"/>
<path d="M47.6508 75.9917C46.7846 76.7933 46.2734 76.9968 45.2038 76.0492C43.4613 73.9758 43.9279 73.2825 43.8152 71.7403C43.892 70.65 44.1608 70.2053 45.2273 69.7659C45.92 69.0401 46.4129 68.7874 47.4778 68.724C48.3623 70.8847 48.4785 71.7447 48.649 73.2505C48.8034 74.5337 48.41 75.066 47.6508 75.9917Z" fill="#FF5DD6"/>
<path d="M44.9033 74.3391C45.379 75.5722 45.8512 75.4053 46.724 74.9823C47.2795 74.6749 47.4801 74.2841 47.7752 73.4575C48.2532 71.2863 47.8458 70.0617 46.6121 70.3106C45.9806 70.616 45.6223 70.8365 44.9579 71.4644C44.0032 72.8194 44.321 73.3672 44.9033 74.3391Z" fill="black" stroke="black" stroke-width="0.106548"/>
<path d="M45.2086 73.9396C45.5667 74.8681 45.9222 74.7424 46.5794 74.4239C46.9977 74.1924 47.1487 73.8982 47.3709 73.2758C47.7308 71.641 47.424 70.719 46.4952 70.9064C46.0197 71.1363 45.7499 71.3024 45.2496 71.7751C44.5308 72.7954 44.7701 73.2078 45.2086 73.9396Z" fill="#E0B049" stroke="black" stroke-width="0.106548"/>
<path d="M45.3338 73.1948C45.5604 73.7267 45.7995 73.8849 46.2467 74.1414C46.37 73.4177 46.3274 73.1795 46.1672 72.8775L45.8049 72.2065C45.4714 72.5155 45.3599 72.7195 45.3338 73.1948Z" fill="#ECE0FF"/>
<path d="M46.3341 72.104L46.8516 73.0625L46.9469 71.8745L46.7141 71.4432L46.6229 71.7706L46.3341 72.104Z" fill="#FEDEFF"/>
<path d="M44.6824 80.4009C43.6469 81.4944 42.981 81.7703 41.3087 80.4655C38.4767 77.6143 38.9813 76.6669 38.512 74.5529C38.3968 73.0593 38.6782 72.4515 40.0644 71.8555C40.8753 70.865 41.5058 70.5216 42.9661 70.4409C44.6288 73.4069 44.9644 74.586 45.5063 76.6505C45.9806 78.4098 45.5445 79.1368 44.6824 80.4009Z" fill="#14000C"/>
<path d="M44.1092 79.4905C43.231 80.4179 42.6662 80.6519 41.2478 79.5452C38.8459 77.127 39.2739 76.3235 38.8758 74.5305C38.7781 73.2638 39.0168 72.7483 40.1925 72.2428C40.8802 71.4027 41.415 71.1115 42.6535 71.043C44.0637 73.5586 44.3483 74.5587 44.808 76.3096C45.2103 77.8017 44.8404 78.4183 44.1092 79.4905Z" fill="#FF5DD6"/>
<path d="M40.5988 77.5506C41.3694 78.9862 41.8947 78.7945 42.846 78.3072C43.4447 77.9526 43.6128 77.4995 43.8166 76.5402C44.0032 74.0191 43.3141 72.5939 41.9095 72.8771C41.2211 73.2289 40.8387 73.4834 40.1673 74.2099C39.2807 75.7801 39.7479 76.4182 40.5988 77.5506Z" fill="black" stroke="black" stroke-width="0.112941"/>
<path d="M40.8941 77.0839C41.4743 78.1648 41.8699 78.0205 42.5861 77.6535C43.0369 77.3866 43.1635 77.0454 43.3169 76.3231C43.4575 74.4249 42.9386 73.3518 41.881 73.565C41.3627 73.8299 41.0747 74.0215 40.5692 74.5685C39.9016 75.7508 40.2535 76.2312 40.8941 77.0839Z" fill="#E0B049" stroke="black" stroke-width="0.112941"/>
<path d="M40.9035 76.2229C41.2609 76.8422 41.5688 77.0272 42.1377 77.3275C42.1577 76.4871 42.0666 76.21 41.8266 75.8582L41.2859 75.0766C40.9478 75.4341 40.8522 75.6706 40.9035 76.2229Z" fill="#ECE0FF"/>
<path d="M41.8917 74.9538L42.6641 76.0703L42.5712 74.6901L42.2237 74.1877L42.1732 74.5678L41.8917 74.9538Z" fill="#FEDEFF"/>
<path d="M32.9789 21.6032C32.2478 19.0755 31.4747 18.0713 28.1173 18.4555C21.9768 20.0395 22.0393 21.8743 19.8581 24.5246C18.6318 26.5927 18.6103 27.7317 20.2042 29.8534C20.6816 32.0282 21.3554 33.0983 23.4223 34.5376C27.9433 31.7283 29.2672 30.3168 31.5189 27.8044C33.4559 25.6747 33.3369 24.2224 32.9789 21.6032Z" fill="#14000C"/>
<path d="M31.4992 22.4121C30.8792 20.2682 30.2235 19.4165 27.3759 19.7424C22.168 21.0859 22.221 22.642 20.371 24.8898C19.331 26.6439 19.3128 27.6098 20.6646 29.4093C21.0694 31.2538 21.6409 32.1615 23.394 33.3822C27.2284 30.9995 28.3512 29.8024 30.261 27.6715C31.9038 25.8652 31.8029 24.6335 31.4992 22.4121Z" fill="#FF5DD6"/>
<path d="M25.017 22.056C27.1555 20.6654 27.7838 21.4197 28.822 22.9897C29.4417 24.0474 29.365 24.8587 28.9814 26.4385C27.4659 30.2746 25.4532 31.7239 23.6108 30.0406C22.8588 28.9057 22.483 28.1894 22.0213 26.5249C21.8447 23.4384 22.9767 22.9331 25.017 22.056Z" fill="black" stroke="black" stroke-width="0.187547"/>
<path d="M25.1159 22.9973C26.7261 21.9503 27.1992 22.5182 27.9809 23.7003C28.4475 24.4967 28.3897 25.1076 28.1009 26.2971C26.9598 29.1855 25.4444 30.2767 24.0571 29.0092C23.491 28.1547 23.208 27.6154 22.8603 26.3621C22.7273 24.0382 23.5797 23.6577 25.1159 22.9973Z" fill="#E0B049" stroke="black" stroke-width="0.187547"/>
<path d="M24.5237 24.2707C25.4827 23.6935 26.0617 23.703 27.1021 23.7811C26.5354 25.0217 26.2065 25.3423 25.608 25.6368L24.2676 26.2842C24.0291 25.4582 24.0577 25.0276 24.5237 24.2707Z" fill="#ECE0FF"/>
<path d="M25.0617 27.0031L26.9766 26.0781L25.8632 28.0017L25.0015 28.418L25.1974 27.8194L25.0617 27.0031Z" fill="#FEDEFF"/>
<path d="M59.5973 47.3919C57.8408 47.0144 56.9961 47.1955 56.2075 49.632C55.3001 54.3946 56.4326 54.9898 57.3772 57.4075C58.2592 58.9678 58.9439 59.3786 60.7166 59.0231C62.1817 59.4519 63.0362 59.3619 64.5387 58.4446C64.2097 54.3667 63.7559 52.9678 62.9164 50.5497C62.2134 48.4805 61.2958 48.0571 59.5973 47.3919Z" fill="#14000C"/>
<path d="M59.6443 48.6928C58.1545 48.3726 57.4381 48.5262 56.7693 50.5927C55.9997 54.632 56.9602 55.1368 57.7613 57.1873C58.5094 58.5107 59.0901 58.859 60.5935 58.5576C61.8362 58.9213 62.5609 58.8449 63.8352 58.0669C63.5562 54.6083 63.1713 53.4218 62.4593 51.371C61.8631 49.616 61.0848 49.2569 59.6443 48.6928Z" fill="#FF5DD6"/>
<path d="M57.4481 53.0159C57.255 51.0655 57.904 50.8968 59.1727 50.7306C60.0032 50.6734 60.4722 51.0081 61.3143 51.8205C63.1812 54.194 63.4482 56.0785 61.8659 56.7569C60.9483 56.878 60.3992 56.8867 59.2486 56.6246C57.3217 55.6725 57.3595 54.7203 57.4481 53.0159Z" fill="black" stroke="black" stroke-width="0.135514"/>
<path d="M58.0549 53.2689C57.9095 51.8004 58.3981 51.6734 59.3534 51.5483C59.9787 51.5052 60.3318 51.7572 60.9659 52.3689C62.3715 54.156 62.5726 55.5749 61.3812 56.0857C60.6903 56.1769 60.2769 56.1835 59.4105 55.9861C57.9597 55.2692 57.9882 54.5523 58.0549 53.2689Z" fill="#E0B049" stroke="black" stroke-width="0.135514"/>
<path d="M58.6377 54.1191C58.5792 53.2606 58.7613 52.8668 59.1253 52.1803C59.7057 53.0004 59.8002 53.3375 59.7967 53.8504L59.7818 54.995C59.2079 54.8713 58.9552 54.702 58.6377 54.1191Z" fill="#ECE0FF"/>
<path d="M60.4669 54.7054L60.4883 53.0703L61.3169 54.5029L61.3072 55.2387L61.0036 54.8961L60.4669 54.7054Z" fill="#FEDEFF"/>
<path d="M54.229 46.8611C52.7229 45.9823 51.8999 45.8848 50.5145 47.8265C48.3872 51.8169 49.2625 52.6988 49.4697 55.1568C49.8528 56.8268 50.3682 57.4056 52.0886 57.6323C53.3138 58.4674 54.121 58.6495 55.7468 58.2894C56.5553 54.5325 56.5205 53.1388 56.4097 50.7129C56.3289 48.6416 55.6037 47.9798 54.229 46.8611Z" fill="#14000C"/>
<path d="M53.9202 48.0426C52.6428 47.2973 51.9448 47.2146 50.7698 48.8614C48.9656 52.2458 49.7079 52.9938 49.8837 55.0785C50.2086 56.4949 50.6457 56.9858 52.1048 57.178C53.144 57.8863 53.8286 58.0408 55.2075 57.7354C55.8932 54.549 55.8637 53.367 55.7697 51.3095C55.7012 49.5528 55.0861 48.9915 53.9202 48.0426Z" fill="#FF5DD6"/>
<path d="M50.734 51.2404C51.088 49.4325 51.7283 49.4809 52.9356 49.7222C53.7119 49.9264 54.0503 50.3707 54.6005 51.358C55.6644 54.06 55.3962 55.8315 53.7622 55.953C52.8888 55.7793 52.3835 55.6182 51.4009 55.0293C49.8951 53.583 50.189 52.7411 50.734 51.2404Z" fill="black" stroke="black" stroke-width="0.128904"/>
<path d="M51.2127 51.6631C51.4792 50.3019 51.9613 50.3384 52.8704 50.5201C53.4548 50.6738 53.7097 51.0083 54.1239 51.7517C54.925 53.7862 54.723 55.12 53.4928 55.2115C52.8351 55.0807 52.4547 54.9594 51.7148 54.516C50.5811 53.427 50.8023 52.7931 51.2127 51.6631Z" fill="#E0B049" stroke="black" stroke-width="0.128904"/>
<path d="M52.3075 53.0688C52.4876 52.2813 52.7615 51.9842 53.2818 51.4808C53.5902 52.3945 53.585 52.7257 53.4422 53.1845L53.117 54.2059C52.6251 53.9185 52.4397 53.689 52.3075 53.0688Z" fill="#ECE0FF"/>
<path d="M48.518 45.3094C47.1948 44.3853 46.4447 44.2303 45.0332 45.8958C42.7945 49.376 43.5373 50.2526 43.5541 52.5175C43.7885 54.0757 44.2216 54.6464 45.7879 54.9911C46.8559 55.8529 47.5854 56.0839 49.1063 55.8844C50.1155 52.5125 50.1819 51.2349 50.2515 49.0069C50.3236 47.1059 49.7033 46.4426 48.518 45.3094Z" fill="#14000C"/>
<path d="M48.1466 46.3598C47.0243 45.576 46.3882 45.4446 45.191 46.8571C43.2923 49.8088 43.9223 50.5523 43.9366 52.4732C44.1354 53.7948 44.5026 54.2788 45.8311 54.5712C46.7369 55.302 47.3557 55.498 48.6456 55.3288C49.5014 52.4689 49.5578 51.3854 49.6168 49.4958C49.678 47.8834 49.1519 47.3209 48.1466 46.3598Z" fill="#FF5DD6"/>
<path d="M44.9931 49.0374C45.4464 47.4119 46.032 47.5074 47.1254 47.8245C47.8249 48.0733 48.1048 48.5067 48.5411 49.4538C49.3287 52.0104 48.9567 53.6094 47.4453 53.59C46.6542 53.3614 46.2008 53.1736 45.3387 52.5564C44.0559 51.1132 44.3857 50.3666 44.9931 49.0374Z" fill="black" stroke="black" stroke-width="0.118633"/>
<path d="M45.4106 49.4555C45.7519 48.2317 46.1928 48.3035 47.0161 48.5423C47.5428 48.7296 47.7536 49.056 48.082 49.7691C48.6751 51.6941 48.395 52.898 47.257 52.8834C46.6614 52.7112 46.32 52.5699 45.6708 52.1052C44.705 51.0185 44.9533 50.4563 45.4106 49.4555Z" fill="#E0B049" stroke="black" stroke-width="0.118633"/>
<path d="M45.6216 50.3443C45.8429 49.6383 46.1158 49.3885 46.6299 48.9695C46.849 49.83 46.8208 50.1325 46.6571 50.5408L46.2857 51.4492C45.8536 51.147 45.6993 50.9222 45.6216 50.3443Z" fill="#ECE0FF"/>
<path d="M46.9383 51.4539L47.4688 50.1562L47.6994 51.5936L47.4607 52.1776L47.3189 51.7965L46.9383 51.4539Z" fill="#FEDEFF"/>
<path d="M43.605 41.7853C42.2746 40.3292 41.4268 39.9334 39.3342 41.468C35.8024 44.8786 36.4583 46.1128 35.903 48.7554C35.7844 50.6376 36.1518 51.4265 37.917 52.2776C38.9613 53.5878 39.7655 54.0663 41.6151 54.2705C43.6652 50.633 44.0683 49.1641 44.7164 46.5893C45.2845 44.3959 44.7193 43.4453 43.605 41.7853Z" fill="#14000C"/>
<path d="M42.9029 42.8974C41.7746 41.6624 41.0555 41.3268 39.2807 42.6283C36.2852 45.5209 36.8415 46.5677 36.3705 48.809C36.27 50.4053 36.5815 51.0744 38.0787 51.7963C38.9644 52.9075 39.6465 53.3134 41.2152 53.4866C42.9539 50.4014 43.2958 49.1556 43.8455 46.9718C44.3273 45.1115 43.8479 44.3053 42.9029 42.8974Z" fill="#FF5DD6"/>
<path d="M38.4891 45.1082C39.4381 43.3453 40.1065 43.6245 41.3192 44.3077C42.0835 44.7983 42.3045 45.3835 42.58 46.6117C42.8623 49.8153 42.0162 51.5709 40.2334 51.1144C39.3557 50.6211 38.8671 50.2723 38.0041 49.306C36.8533 47.2569 37.433 46.482 38.4891 45.1082Z" fill="black" stroke="black" stroke-width="0.142878"/>
<path d="M38.8726 45.7199C39.5871 44.3925 40.0904 44.6027 41.0035 45.1172C41.579 45.4865 41.7453 45.9271 41.9528 46.852C42.1653 49.2641 41.5283 50.5859 40.1859 50.2422C39.5251 49.8708 39.1572 49.6081 38.5074 48.8806C37.641 47.3378 38.0774 46.7542 38.8726 45.7199Z" fill="#E0B049" stroke="black" stroke-width="0.142878"/>
<path d="M39.1981 47.3858C39.7553 46.4273 40.2433 46.1586 41.1459 45.7287C41.1972 47.0741 41.058 47.509 40.6824 48.0503L39.8361 49.252C39.2873 48.6507 39.1289 48.2641 39.1981 47.3858Z" fill="#ECE0FF"/>
<path d="M39.3975 37.0568C38.4697 34.9793 37.7474 34.2036 35.3459 34.8757C31.0904 36.8555 31.4206 38.4115 30.2327 40.8925C29.6544 42.7798 29.8153 43.7519 31.3125 45.395C31.9996 47.198 32.6595 48.0401 34.3977 49.0534C37.2761 46.1966 38.0277 44.8586 39.2888 42.4877C40.3784 40.4751 40.066 39.2505 39.3975 37.0568Z" fill="#14000C"/>
<path d="M38.441 37.8932C37.6541 36.1312 37.0414 35.4733 35.0047 36.0433C31.3955 37.7224 31.6755 39.0422 30.668 41.1464C30.1776 42.747 30.314 43.5715 31.5839 44.965C32.1666 46.4942 32.7262 47.2084 34.2005 48.0679C36.6418 45.6449 37.2793 44.5101 38.3488 42.4993C39.2729 40.7923 39.008 39.7537 38.441 37.8932Z" fill="#FF5DD6"/>
<path d="M33.6316 38.2569C34.9836 36.853 35.561 37.4308 36.5655 38.6611C37.1837 39.4982 37.2532 40.1969 37.217 41.5817C36.7008 45.0042 35.4502 46.4452 33.8387 45.2009C33.1116 44.3117 32.725 43.7403 32.1285 42.3703C31.5205 39.76 32.272 39.2134 33.6316 38.2569Z" fill="black" stroke="black" stroke-width="0.165261"/>
<path d="M33.8531 39.0545C34.8711 37.9974 35.3059 38.4325 36.0622 39.3588C36.5276 39.9891 36.58 40.5152 36.5527 41.5579C36.1641 44.1348 35.2224 45.2198 34.0091 44.2829C33.4616 43.6134 33.1705 43.1832 32.7214 42.1516C32.2636 40.1862 32.8294 39.7747 33.8531 39.0545Z" fill="#E0B049" stroke="black" stroke-width="0.165261"/>
<path d="M33.6147 40.1897C34.2281 39.5996 34.654 39.5483 35.4288 39.5079C35.2057 40.6226 35.0143 40.9294 34.6212 41.2416L33.7391 41.9307C33.4363 41.2518 33.3904 40.8821 33.6147 40.1897Z" fill="#ECE0FF"/>
<path d="M34.4312 42.4688L35.6914 41.4844L35.1735 43.2369L34.6064 43.6799L34.6572 43.15L34.4312 42.4688Z" fill="#FEDEFF"/>
<path d="M36.6494 29.502C35.7831 27.2041 34.991 26.3318 31.9037 26.9725C26.3229 28.9667 26.5172 30.6739 24.6899 33.3308C23.7056 35.3641 23.7703 36.429 25.4071 38.2754C26.0118 40.2652 26.7166 41.2074 28.7418 42.3771C32.7287 39.3753 33.8525 37.9467 35.7554 35.4126C37.3947 33.2621 37.1763 31.9166 36.6494 29.502Z" fill="#14000C"/>
<path d="M35.3399 30.3879C34.6051 28.439 33.9333 27.6992 31.3149 28.2425C26.5816 29.9339 26.7464 31.3819 25.1966 33.6352C24.3617 35.3598 24.4166 36.2629 25.8049 37.8289C26.3177 39.5165 26.9155 40.3157 28.6331 41.3078C32.0146 38.7618 32.9677 37.5502 34.5816 35.4009C35.972 33.577 35.7868 32.4358 35.3399 30.3879Z" fill="#FF5DD6"/>
<path d="M29.2976 30.5935C31.1789 29.116 31.8181 29.7672 32.8983 31.1453C33.5519 32.0805 33.541 32.8442 33.3025 34.3509C32.1811 38.0587 30.421 39.5805 28.586 38.164C27.8038 37.168 27.4018 36.5309 26.8497 35.0162C26.4563 32.1502 27.4693 31.5835 29.2976 30.5935Z" fill="black" stroke="black" stroke-width="0.175177"/>
<path d="M29.4621 31.4692C30.8786 30.3567 31.3598 30.8471 32.1731 31.8847C32.6653 32.5889 32.6571 33.1638 32.4775 34.2983C31.6331 37.0901 30.3079 38.2359 28.9263 37.1694C28.3373 36.4194 28.0346 35.9398 27.6189 34.7992C27.3227 32.6413 28.0854 32.2146 29.4621 31.4692Z" fill="#E0B049" stroke="black" stroke-width="0.175177"/>
<path d="M28.999 32.7001C29.846 32.0808 30.3841 32.0411 31.3554 32.0266C30.9217 33.2321 30.6403 33.559 30.1067 33.8841L28.9109 34.601C28.6282 33.8501 28.6227 33.4457 28.999 32.7001Z" fill="#ECE0FF"/>
<path d="M29.7057 35.2116L31.4141 34.1875L30.5237 36.0764L29.755 36.5373L29.8924 35.9621L29.7057 35.2116Z" fill="#FEDEFF"/>
<path d="M17.0558 17.2552C16.7583 19.4446 17.0158 20.5013 19.7615 21.5127C25.0853 22.698 25.6658 21.2904 28.2727 20.1373C29.9366 19.0531 30.3438 18.2026 29.8305 15.9851C30.2045 14.1603 30.0469 13.0922 28.9312 11.2059C24.4481 11.5721 22.9334 12.1234 20.3188 13.1452C18.0805 14.0004 17.6752 15.1416 17.0558 17.2552Z" fill="#14000C"/>
<path d="M18.4837 17.2129C18.2313 19.0698 18.4497 19.9661 20.7785 20.8239C25.2937 21.8292 25.7861 20.6353 27.9971 19.6573C29.4083 18.7378 29.7537 18.0165 29.3183 16.1357C29.6355 14.588 29.5018 13.6822 28.5556 12.0823C24.7533 12.3929 23.4686 12.8604 21.2511 13.7271C19.3527 14.4524 19.009 15.4203 18.4837 17.2129Z" fill="#FF5DD6"/>
<path d="M23.4143 19.9973C21.2725 20.2171 21.042 19.4048 20.772 17.8187C20.6523 16.781 20.9902 16.199 21.8305 15.1564C24.3258 12.8512 26.3897 12.5384 27.2469 14.5217C27.4432 15.6689 27.4902 16.3546 27.2789 17.7886C26.3581 20.1844 25.3035 20.1267 23.4143 19.9973Z" fill="black" stroke="black" stroke-width="0.159131"/>
<path d="M23.6564 19.2441C22.0437 19.4096 21.8702 18.798 21.6669 17.6037C21.5767 16.8224 21.8312 16.3842 22.4639 15.5992C24.3427 13.8635 25.8967 13.628 26.5421 15.1213C26.6899 15.985 26.7253 16.5014 26.5662 17.5811C25.8729 19.385 25.0789 19.3415 23.6564 19.2441Z" fill="#E0B049" stroke="black" stroke-width="0.159131"/>
<path d="M24.5522 18.5193C23.6077 18.5829 23.1602 18.3513 22.377 17.8892C23.2435 17.1734 23.6095 17.0591 24.1765 17.069L25.4421 17.1003C25.3445 17.8155 25.1746 18.1292 24.5522 18.5193Z" fill="#ECE0FF"/>
<path d="M14.4182 10.9303C14.0016 12.6278 14.119 13.4846 16.2155 14.5373C20.3445 15.9671 20.9213 14.9119 23.086 14.246C24.4963 13.5466 24.8897 12.9143 24.6648 11.1191C25.1122 9.71587 25.075 8.85955 24.3447 7.2692C20.7553 7.1403 19.5073 7.43362 17.3474 7.99535C15.4999 8.46084 15.0841 9.32238 14.4182 10.9303Z" fill="#14000C"/>
<path d="M15.5527 11.0217C15.1994 12.4614 15.2989 13.188 17.0771 14.0809C20.579 15.2935 21.0683 14.3986 22.9042 13.8338C24.1003 13.2406 24.434 12.7044 24.2433 11.1818C24.6227 9.99166 24.5911 9.26539 23.9717 7.91656C20.9274 7.80723 19.869 8.05601 18.0371 8.53243C16.4701 8.92723 16.1175 9.65793 15.5527 11.0217Z" fill="#FF5DD6"/>
<path d="M19.2362 13.678C17.5177 13.6517 17.4016 12.9902 17.3179 11.7151C17.3084 10.8862 17.6246 10.4591 18.3776 9.71576C20.5486 8.1316 22.213 8.07728 22.7301 9.72C22.7914 10.6423 22.7722 11.187 22.4863 12.2974C21.5579 14.0995 20.7254 13.9559 19.2362 13.678Z" fill="black" stroke="black" stroke-width="0.126636"/>
<path d="M19.4919 13.1147C18.198 13.0949 18.1105 12.5968 18.0476 11.6368C18.0404 11.0127 18.2785 10.6911 18.8455 10.1314C20.4801 8.9386 21.7332 8.8977 22.1226 10.1346C22.1688 10.829 22.1543 11.2392 21.9391 12.0752C21.24 13.4321 20.6132 13.3239 19.4919 13.1147Z" fill="#E0B049" stroke="black" stroke-width="0.126636"/>
<path d="M20.2624 12.6202C19.5073 12.5823 19.1711 12.3581 18.5874 11.9211C19.3343 11.4377 19.6343 11.3817 20.0836 11.4423L21.0858 11.5848C20.9494 12.1393 20.7887 12.3707 20.2624 12.6202Z" fill="#ECE0FF"/>
<path d="M11.9593 7.2569C11.7295 8.37666 11.8269 8.93274 13.2177 9.56208C15.9411 10.3814 16.2909 9.67659 17.684 9.18205C18.5852 8.68643 18.8259 8.26279 18.6356 7.09695C18.8925 6.16851 18.8474 5.61048 18.333 4.59239C15.9927 4.60742 15.1873 4.83341 13.7947 5.25983C12.6032 5.61479 12.3535 6.18874 11.9593 7.2569Z" fill="#14000C"/>
<path d="M12.7 7.29385C12.5051 8.24356 12.5877 8.71519 13.7673 9.24895C16.0771 9.94388 16.3738 9.34607 17.5553 8.92663C18.3197 8.50628 18.5238 8.14698 18.3624 7.15819C18.5803 6.37074 18.542 5.89746 18.1057 5.03398C16.1209 5.04673 15.4378 5.2384 14.2567 5.60006C13.2461 5.90111 13.0343 6.38791 12.7 7.29385Z" fill="#FF5DD6"/>
<path d="M15.1598 8.92179C14.0402 8.95214 13.9484 8.52346 13.8628 7.69334C13.8363 7.15245 14.0317 6.86486 14.5039 6.35874C15.8787 5.26451 16.961 5.18305 17.3379 6.24123C17.4004 6.84163 17.4012 7.19784 17.2422 7.93062C16.6818 9.13284 16.1362 9.06205 15.1598 8.92179Z" fill="black" stroke="black" stroke-width="0.0826306"/>
<path d="M15.3133 8.54323C14.4703 8.56608 14.4012 8.24331 14.3368 7.61827C14.3168 7.21102 14.464 6.99448 14.8195 6.6134C15.8546 5.78951 16.6696 5.72817 16.9533 6.52492C17.0004 6.97699 17.001 7.24519 16.8813 7.79693C16.4593 8.70214 16.0485 8.64883 15.3133 8.54323Z" fill="#E0B049" stroke="black" stroke-width="0.0826306"/>
<path d="M15.8048 8.20389C15.3123 8.20006 15.0879 8.06299 14.6971 7.79377C15.1717 7.45755 15.3656 7.41273 15.6596 7.43989L16.3157 7.50522C16.2404 7.87101 16.1414 8.0265 15.8048 8.20389Z" fill="#ECE0FF"/>
<path d="M10.4217 5.03016C10.2488 5.78696 10.3068 6.16633 11.2438 6.61708C13.0845 7.2192 13.3329 6.74625 14.288 6.43361C14.9085 6.11201 15.0785 5.82825 14.9663 5.03313C15.1548 4.40674 15.1324 4.02692 14.7974 3.32675C13.205 3.29783 12.6537 3.43788 11.7 3.70426C10.8841 3.92546 10.7057 4.31116 10.4217 5.03016Z" fill="#14000C"/>
<path d="M10.9281 5.06142C10.7814 5.70329 10.8306 6.02505 11.6253 6.40735C13.1865 6.91802 13.3971 6.5169 14.2072 6.25173C14.7335 5.97897 14.8776 5.73831 14.7825 5.06394C14.9424 4.53268 14.9233 4.21054 14.6393 3.6167C13.2887 3.59218 12.8211 3.71096 12.0122 3.93688C11.3202 4.12449 11.1689 4.45162 10.9281 5.06142Z" fill="#FF5DD6"/>
<path d="M12.5755 6.20653C11.8133 6.20843 11.7572 5.9157 11.7112 5.35037C11.7012 4.98251 11.8384 4.79042 12.1671 4.45452C13.1187 3.7342 13.8563 3.69696 14.097 4.42207C14.1306 4.83096 14.1259 5.07294 14.0069 5.56806C13.6078 6.37534 13.2377 6.31813 12.5755 6.20653Z" fill="black" stroke="black" stroke-width="0.0561888"/>
<path d="M12.6853 5.95597C12.1115 5.9574 12.0692 5.73698 12.0346 5.31133C12.0271 5.03435 12.1304 4.88972 12.3779 4.6368C13.0943 4.09444 13.6497 4.06641 13.831 4.61237C13.8563 4.92024 13.8527 5.10244 13.7631 5.47523C13.4626 6.08307 13.1839 6.03999 12.6853 5.95597Z" fill="#E0B049" stroke="black" stroke-width="0.0561888"/>
<path d="M55.2141 42.9895C59.1991 42.9296 60.9524 42.1016 61.5705 36.3305C61.4016 25.3719 58.6743 24.6351 55.5363 19.7857C52.9196 16.7944 51.2479 16.2367 47.5572 17.9203C44.1821 17.7191 42.3665 18.3516 39.5151 21.1364C42.062 29.9578 43.676 32.8109 46.5859 37.7146C49.0426 41.9185 51.2259 42.3857 55.2141 42.9895Z" fill="#14000C"/>
<path d="M54.5357 40.154C57.9155 40.1032 59.4025 39.4009 59.9268 34.5063C59.7835 25.212 57.4704 24.587 54.809 20.4741C52.5896 17.937 51.1718 17.464 48.0416 18.892C45.1791 18.7213 43.6392 19.2577 41.2208 21.6196C43.3809 29.1013 44.7498 31.5212 47.2178 35.6802C49.3015 39.2457 51.1532 39.6419 54.5357 40.154Z" fill="#FF5DD6"/>
<path d="M57.3519 29.5167C58.6477 33.7177 57.3138 34.419 54.6327 35.4296C52.8545 35.9775 51.6855 35.4779 49.4914 34.1147C44.37 29.8311 42.9433 25.8129 46.0754 23.5141C48.014 22.7811 49.2028 22.4831 51.8198 22.4766C56.433 23.5967 56.7786 25.7147 57.3519 29.5167Z" fill="black" stroke="black" stroke-width="0.303499"/>
<path d="M55.9277 29.2548C56.9033 32.418 55.899 32.946 53.8803 33.7069C52.5414 34.1195 51.6612 33.7433 50.0092 32.7169C46.1531 29.4916 45.0788 26.4661 47.4371 24.7352C48.8968 24.1834 49.7919 23.959 51.7624 23.954C55.2358 24.7974 55.496 26.3921 55.9277 29.2548Z" fill="#E0B049" stroke="black" stroke-width="0.303499"/>
<path d="M52.6531 27.8555C53.1658 29.7181 52.9474 30.6786 52.4651 32.3765C50.8359 30.8637 50.4793 30.1687 50.2563 29.0363L49.7746 26.5058C51.0767 26.4871 51.7016 26.732 52.6531 27.8555Z" fill="#ECE0FF"/>
<path d="M90.271 65.4216C92.899 65.3822 94.0553 64.8361 94.4629 61.0302C94.3515 53.8033 92.5529 53.3174 90.4835 50.1194C88.7578 48.1467 87.6554 47.7789 85.2215 48.8892C82.9958 48.7565 81.7984 49.1736 79.918 51.0101C81.5976 56.8276 82.662 58.7091 84.581 61.943C86.2011 64.7153 87.641 65.0235 90.271 65.4216Z" fill="#14000C"/>
<path d="M89.8203 63.5483C92.0492 63.5148 93.0299 63.0516 93.3756 59.8238C93.2812 53.6944 91.7557 53.2823 90.0006 50.5699C88.537 48.8968 87.602 48.5849 85.5377 49.5266C83.65 49.414 82.6345 49.7678 81.0396 51.3254C82.4641 56.2594 83.3669 57.8552 84.9944 60.5979C86.3685 62.9493 87.5897 63.2106 89.8203 63.5483Z" fill="#FF5DD6"/>
<path d="M91.6748 56.5282C92.5293 59.2986 91.6497 59.7611 89.8816 60.4276C88.7089 60.7889 87.9379 60.4594 86.491 59.5604C83.1136 56.7355 82.1727 54.0856 84.2382 52.5696C85.5167 52.0863 86.3007 51.8897 88.0265 51.8854C91.0688 52.6241 91.2967 54.0208 91.6748 56.5282Z" fill="black" stroke="black" stroke-width="0.200149"/>
<path d="M90.7364 56.3546C91.3798 58.4407 90.7175 58.7889 89.3862 59.2907C88.5032 59.5627 87.9227 59.3147 86.8333 58.6378C84.2903 56.5108 83.5819 54.5156 85.1371 53.3741C86.0997 53.0102 86.69 52.8622 87.9895 52.8589C90.2801 53.4151 90.4517 54.4668 90.7364 56.3546Z" fill="#E0B049" stroke="black" stroke-width="0.200149"/>
<path d="M88.5822 55.4323C88.9203 56.6605 88.7763 57.294 88.4582 58.4137C87.3838 57.416 87.1487 56.9577 87.0016 56.2109L86.6839 54.5422C87.5426 54.5298 87.9547 54.6913 88.5822 55.4323Z" fill="#ECE0FF"/>
<path d="M74.5105 52.529C77.4353 52.4851 78.7222 51.8773 79.1759 47.6415C79.0519 39.5983 77.0502 39.0575 74.747 35.4982C72.8264 33.3026 71.5994 32.8933 68.8905 34.129C66.4134 33.9814 65.0808 34.4455 62.9879 36.4895C64.8572 42.9641 66.0419 45.0582 68.1777 48.6574C69.9808 51.7429 71.5833 52.0859 74.5105 52.529Z" fill="#14000C"/>
<path d="M74.0143 50.4542C76.4949 50.417 77.5864 49.9015 77.9712 46.309C77.866 39.4872 76.1683 39.0286 74.2148 36.0098C72.5859 34.1477 71.5453 33.8005 69.2478 34.8486C67.1468 34.7233 66.0166 35.117 64.2416 36.8506C65.827 42.3419 66.8318 44.118 68.6432 47.1706C70.1725 49.7875 71.5316 50.0784 74.0143 50.4542Z" fill="#FF5DD6"/>
<path d="M58.9569 76.7541C61.3556 77.3402 62.3437 78.0817 62.232 81.648C61.2102 88.2348 59.5033 88.3028 57.2033 90.7948C55.3738 92.2379 54.3187 92.3436 52.2338 90.8187C50.1812 90.4742 49.1391 89.8421 47.6529 87.7688C49.9298 82.7994 51.1428 81.3012 53.3097 78.745C55.1445 76.5483 56.5007 76.5678 58.9569 76.7541Z" fill="#14000C"/>
<path d="M58.3123 78.3796C60.3467 78.8767 61.1847 79.5056 61.09 82.5303C60.2234 88.1168 58.7757 88.1744 56.825 90.288C55.2734 91.512 54.3784 91.6016 52.6102 90.3082C50.8693 90.0161 49.9855 89.48 48.725 87.7216C50.656 83.5068 51.6849 82.2361 53.5227 80.0681C55.0788 78.205 56.2291 78.2216 58.3123 78.3796Z" fill="#FF5DD6"/>
<path d="M59.1149 85.1803C60.2492 82.8252 59.5035 82.218 57.9711 81.2384C56.9445 80.6625 56.1974 80.8025 54.7595 81.3219C51.3108 83.1989 50.1129 85.4257 51.8091 87.2446C52.9169 87.9543 53.609 88.2981 55.187 88.6633C58.0636 88.6244 58.4499 87.3945 59.1149 85.1803Z" fill="black" stroke="black" stroke-width="0.185959"/>
<path d="M58.2353 85.1363C59.0893 83.363 58.5279 82.9059 57.3741 82.1683C56.6011 81.7347 56.0386 81.8401 54.9559 82.2312C52.3592 83.6444 51.4573 85.3211 52.7344 86.6906C53.5686 87.225 54.0896 87.4839 55.2778 87.7588C57.4437 87.7295 57.7346 86.8035 58.2353 85.1363Z" fill="#E0B049" stroke="black" stroke-width="0.185959"/>
<path d="M56.1458 85.5335C56.6114 84.4809 56.5603 83.8713 56.4119 82.7806C55.3022 83.4683 55.0288 83.8383 54.7992 84.4905L54.2962 85.9504C55.08 86.1414 55.4775 86.0799 56.1458 85.5335Z" fill="#ECE0FF"/>
<path d="M71.3985 73.6695C73.159 74.0997 73.8842 74.6439 73.8023 77.2615C73.0523 82.096 71.7994 82.1459 70.1114 83.9749C68.7686 85.0342 67.9941 85.1118 66.4639 83.9925C64.9573 83.7397 64.1925 83.2757 63.1017 81.754C64.7728 78.1066 65.6632 77.007 67.2536 75.1308C68.6003 73.5185 69.5956 73.5328 71.3985 73.6695Z" fill="#14000C"/>
<path d="M70.921 74.8529C72.4142 75.2177 73.0293 75.6793 72.9598 77.8994C72.3236 81.9997 71.2611 82.042 69.8294 83.5933C68.6905 84.4917 68.0337 84.5574 66.7358 83.6081C65.458 83.3937 64.8094 83.0003 63.8842 81.7096C65.3015 78.6161 66.0567 77.6835 67.4056 76.0922C68.5477 74.7248 69.392 74.7369 70.921 74.8529Z" fill="#FF5DD6"/>
<path d="M76.0774 42.636C77.0285 45.7194 76.0495 46.2341 74.0816 46.9759C72.7765 47.378 71.9184 47.0113 70.308 46.0108C66.5491 42.8667 65.5019 39.9175 67.8008 38.2303C69.2237 37.6923 70.0962 37.4736 72.017 37.4687C75.403 38.2909 75.6566 39.8454 76.0774 42.636Z" fill="black" stroke="black" stroke-width="0.222759"/>
<path d="M75.0342 42.45C75.7503 44.7716 75.0132 45.1592 73.5315 45.7177C72.5488 46.0205 71.9027 45.7444 70.6902 44.991C67.86 42.6237 67.0715 40.4031 68.8024 39.1327C69.8737 38.7277 70.5307 38.563 71.977 38.5594C74.5264 39.1784 74.7174 40.3489 75.0342 42.45Z" fill="#E0B049" stroke="black" stroke-width="0.222759"/>
<path d="M68.8088 82.9362C66.7038 83.7821 66.2632 83.0143 65.5845 81.4629C65.1978 80.4314 65.3897 79.7356 65.9706 78.4212C67.8981 75.3304 69.9007 74.4115 71.2737 76.201C71.7656 77.3227 71.9887 78.0137 72.1428 79.5482C71.8273 82.2762 70.7484 82.5222 68.8088 82.9362Z" fill="#E0B049" stroke="black" stroke-width="0.222759"/>
<path d="M72.6315 41.422C73.0078 42.7891 72.8475 43.4941 72.4936 44.7403C71.2978 43.6299 71.036 43.1198 70.8724 42.2887L70.5188 40.4314C71.4745 40.4176 71.9331 40.5974 72.6315 41.422Z" fill="#ECE0FF"/>
<path d="M70.0249 79.7228C69.2812 80.8656 68.663 81.1641 67.5236 81.6338C67.5385 79.9748 67.7357 79.4488 68.231 78.8074L69.3459 77.3843C69.9885 78.1603 70.1615 78.6465 70.0249 79.7228Z" fill="#ECE0FF"/>
<path d="M170.041 83.9508C171.049 85.2202 171.734 85.5795 173.624 84.3446C176.879 81.567 176.423 80.5049 177.103 78.2884C177.352 76.7017 177.105 76.0243 175.681 75.2532C174.903 74.1154 174.261 73.6874 172.715 73.4604C170.693 76.4735 170.236 77.7027 169.484 79.8591C168.829 81.6956 169.231 82.5154 170.041 83.9508Z" fill="#14000C"/>
<path d="M170.721 83.0253C171.577 84.102 172.157 84.4067 173.76 83.3594C176.521 81.0035 176.135 80.1027 176.711 78.2229C176.923 76.8771 176.713 76.3026 175.505 75.6486C174.845 74.6836 174.301 74.3206 172.989 74.1281C171.275 76.6836 170.887 77.7261 170.249 79.555C169.694 81.1126 170.035 81.8079 170.721 83.0253Z" fill="#FF5DD6"/>
<path d="M174.624 81.2912C173.682 82.7528 173.139 82.4972 172.169 81.8842C171.562 81.4472 171.422 80.9463 171.287 79.9004C171.303 77.1853 172.158 75.7269 173.628 76.1652C174.33 76.6078 174.715 76.9169 175.367 77.7587C176.177 79.5239 175.625 80.1616 174.624 81.2912Z" fill="black" stroke="black" stroke-width="0.120917"/>
<path d="M174.347 80.7643C173.637 81.8648 173.229 81.6723 172.498 81.2108C172.042 80.8818 171.936 80.5046 171.834 79.7171C171.847 77.6728 172.49 76.5747 173.597 76.9047C174.126 77.238 174.415 77.4707 174.907 78.1046C175.516 79.4336 175.101 79.9138 174.347 80.7643Z" fill="#E0B049" stroke="black" stroke-width="0.120917"/>
<path d="M174.41 79.8421C173.977 80.4702 173.634 80.6385 173.003 80.905C173.054 80.0039 173.174 79.7163 173.46 79.363L174.101 78.579C174.43 78.9939 174.512 79.2562 174.41 79.8421Z" fill="#ECE0FF"/>
<path d="M173.467 78.3955L172.551 79.5156L172.767 78.048L173.18 77.5439L173.201 77.9554L173.467 78.3955Z" fill="#FEDEFF"/>
<path d="M148.144 76.008C149.095 75.7491 149.482 75.4434 149.404 74.0252C148.934 71.4144 148.253 71.4056 147.312 70.4383C146.569 69.8834 146.147 69.8526 145.331 70.4819C144.516 70.6409 144.106 70.9036 143.533 71.7447C144.488 73.6983 144.986 74.2817 145.874 75.2759C146.626 76.1306 147.166 76.1084 148.144 76.008Z" fill="#FF5DD6"/>
<path d="M148.447 72.7979C149.007 73.8888 148.663 74.1831 147.954 74.6622C147.477 74.9454 147.125 74.8891 146.443 74.6634C144.801 73.826 144.213 72.7961 144.99 71.9212C145.503 71.5742 145.824 71.4041 146.562 71.2128C147.915 71.1949 148.11 71.7672 148.447 72.7979Z" fill="black" stroke="black" stroke-width="0.0873697"/>
<path d="M148.029 72.8247C148.45 73.6462 148.192 73.8678 147.657 74.2284C147.299 74.4417 147.033 74.3993 146.52 74.2294C145.284 73.5989 144.841 72.8234 145.426 72.1646C145.812 71.9034 146.054 71.7753 146.61 71.6313C147.628 71.6178 147.775 72.0487 148.029 72.8247Z" fill="#E0B049" stroke="black" stroke-width="0.0873697"/>
<path d="M147.491 72.5045C147.722 72.9927 147.705 73.2794 147.647 73.7931C147.118 73.4844 146.985 73.3142 146.87 73.011L146.617 72.3322C146.984 72.2327 147.171 72.2566 147.491 72.5045Z" fill="#ECE0FF"/>
<path d="M146.284 72.71L146.645 73.6797L145.829 73.0847L145.667 72.6483L145.924 72.7589L146.284 72.71Z" fill="#FEDEFF"/>
<path d="M151.748 75.452C152.837 75.5172 153.344 75.3274 153.716 73.7674C154.057 70.7777 153.34 70.5211 152.657 69.1354C152.049 68.2666 151.613 68.0804 150.548 68.4637C149.636 68.3398 149.118 68.475 148.243 69.1756C148.625 71.6316 148.964 72.4421 149.584 73.838C150.105 75.0338 150.683 75.2058 151.748 75.452Z" fill="#14000C"/>
<path d="M151.663 74.6604C152.586 74.7157 153.016 74.5548 153.332 73.2317C153.621 70.696 153.013 70.4783 152.433 69.3031C151.918 68.5663 151.548 68.4084 150.645 68.7335C149.871 68.6284 149.432 68.743 148.69 69.3372C149.014 71.4202 149.301 72.1077 149.827 73.2915C150.269 74.3058 150.759 74.4517 151.663 74.6604Z" fill="#FF5DD6"/>
<path d="M152.805 71.8242C153.01 72.9955 152.621 73.1593 151.855 73.3798C151.351 73.4928 151.05 73.3327 150.5 72.9163C149.256 71.6442 149.01 70.52 149.944 69.9576C150.498 69.7976 150.833 69.7407 151.546 69.7925C152.764 70.1921 152.783 70.7763 152.805 71.8242Z" fill="black" stroke="black" stroke-width="0.0831077"/>
<path d="M152.431 71.731C152.585 72.613 152.292 72.7363 151.715 72.9024C151.336 72.9874 151.109 72.8668 150.695 72.5533C149.759 71.5955 149.573 70.7491 150.277 70.3256C150.694 70.2051 150.946 70.1623 151.483 70.2013C152.4 70.5022 152.414 70.9421 152.431 71.731Z" fill="#E0B049" stroke="black" stroke-width="0.0831077"/>
<path d="M151.458 71.2238C151.532 71.7419 151.439 71.9991 151.247 72.452C150.857 72.0064 150.784 71.8097 150.763 71.4965L150.722 70.7971C151.077 70.8186 151.239 70.8982 151.458 71.2238Z" fill="#ECE0FF"/>
<path d="M155.47 74.65C156.461 74.7969 156.938 74.6629 157.389 73.2577C157.913 70.5351 157.275 70.2418 156.747 68.9126C156.253 68.0651 155.868 67.859 154.866 68.1265C154.04 67.9396 153.558 68.0226 152.707 68.597C152.883 70.8866 153.136 71.6592 153.604 72.9925C153.996 74.1341 154.513 74.3385 155.47 74.65Z" fill="#14000C"/>
<path d="M155.447 73.9267C156.288 74.0514 156.692 73.9377 157.075 72.7459C157.519 70.4368 156.978 70.188 156.531 69.0607C156.111 68.3419 155.785 68.1671 154.935 68.3939C154.234 68.2354 153.825 68.3059 153.104 68.793C153.253 70.7349 153.468 71.3901 153.865 72.521C154.197 73.4892 154.636 73.6626 155.447 73.9267Z" fill="#FF5DD6"/>
<path d="M156.695 71.4008C156.799 72.4945 156.433 72.6141 155.716 72.7558C155.247 72.8194 154.983 72.6481 154.51 72.2212C153.462 70.9518 153.315 69.898 154.21 69.4555C154.728 69.3525 155.038 69.3269 155.687 69.4315C156.773 69.8964 156.749 70.4353 156.695 71.4008Z" fill="black" stroke="black" stroke-width="0.0764858"/>
<path d="M156.351 71.281C156.43 72.1045 156.154 72.1946 155.614 72.3012C155.261 72.3491 155.062 72.2201 154.706 71.8987C153.917 70.9429 153.807 70.1495 154.48 69.8163C154.871 69.7388 155.104 69.7195 155.593 69.7983C156.41 70.1482 156.392 70.554 156.351 71.281Z" fill="#E0B049" stroke="black" stroke-width="0.0764858"/>
<path d="M156.022 70.8213C156.053 71.3037 155.95 71.5328 155.743 71.9341C155.417 71.493 155.364 71.3063 155.368 71.0166L155.379 70.3699C155.702 70.4182 155.845 70.5042 156.022 70.8213Z" fill="#ECE0FF"/>
<path d="M154.993 70.5606L154.977 71.4844L154.512 70.7069L154.519 70.2912L154.69 70.4731L154.993 70.5606Z" fill="#FEDEFF"/>
<path d="M159.168 75.2575C160.284 75.7157 160.874 75.6941 161.756 74.1616C163.058 71.0914 162.389 70.5614 162.112 68.8378C161.752 67.6935 161.355 67.3391 160.121 67.3679C159.207 66.9098 158.623 66.8695 157.487 67.3048C157.111 70.0635 157.209 71.0499 157.415 72.7614C157.582 74.2242 158.132 74.6143 159.168 75.2575Z" fill="#14000C"/>
<path d="M159.328 74.3826C160.275 74.7711 160.776 74.7528 161.524 73.453C162.627 70.8491 162.06 70.3996 161.826 68.9378C161.52 67.9672 161.184 67.6666 160.137 67.6911C159.361 67.3026 158.867 67.2684 157.903 67.6376C157.584 69.9773 157.667 70.8139 157.842 72.2655C157.983 73.5061 158.45 73.837 159.328 74.3826Z" fill="#FF5DD6"/>
<path d="M161.42 71.7634C161.264 73.087 160.807 73.1233 159.936 73.0851C159.374 73.0257 159.11 72.7474 158.667 72.1066C157.769 70.3041 157.866 69.0158 159.02 68.7492C159.65 68.7761 160.018 68.8348 160.747 69.1448C161.893 70.0062 161.729 70.6369 161.42 71.7634Z" fill="black" stroke="black" stroke-width="0.092117"/>
<path d="M161.055 71.5171C160.937 72.5137 160.592 72.541 159.937 72.5122C159.514 72.4675 159.315 72.2579 158.981 71.7754C158.305 70.4183 158.378 69.4483 159.248 69.2475C159.722 69.2678 159.998 69.312 160.547 69.5454C161.41 70.194 161.287 70.6689 161.055 71.5171Z" fill="#E0B049" stroke="black" stroke-width="0.092117"/>
<path d="M160.481 70.6289C160.372 71.361 160.145 71.6658 159.712 72.1902C159.374 71.4131 159.357 71.115 159.455 70.6833L159.679 69.7212C160.139 69.9105 160.321 70.0907 160.481 70.6289Z" fill="#ECE0FF"/>
<path d="M162.73 76.7774C163.751 77.7226 164.354 77.9626 165.615 76.8452C167.669 74.4007 167.119 73.5832 167.252 71.7648C167.162 70.4793 166.845 69.955 165.587 69.4368C164.77 68.5811 164.189 68.2832 162.934 68.2084C161.891 70.756 161.754 71.77 161.553 73.5455C161.371 75.0585 161.835 75.686 162.73 76.7774Z" fill="#14000C"/>
<path d="M163.099 75.9917C163.965 76.7933 164.477 76.9968 165.546 76.0492C167.289 73.9758 166.822 73.2825 166.935 71.7403C166.858 70.65 166.589 70.2053 165.523 69.7659C164.83 69.0401 164.337 68.7874 163.272 68.724C162.388 70.8847 162.272 71.7447 162.101 73.2505C161.947 74.5337 162.34 75.066 163.099 75.9917Z" fill="#FF5DD6"/>
<path d="M165.847 74.3391C165.371 75.5722 164.899 75.4053 164.026 74.9823C163.47 74.6749 163.27 74.2841 162.975 73.4575C162.497 71.2863 162.904 70.0617 164.138 70.3106C164.769 70.616 165.128 70.8365 165.792 71.4644C166.747 72.8194 166.429 73.3672 165.847 74.3391Z" fill="black" stroke="black" stroke-width="0.106548"/>
<path d="M165.538 73.9396C165.179 74.8681 164.824 74.7424 164.167 74.4239C163.748 74.1924 163.597 73.8982 163.375 73.2758C163.015 71.641 163.322 70.719 164.251 70.9064C164.726 71.1363 164.996 71.3024 165.496 71.7751C166.215 72.7954 165.976 73.2078 165.538 73.9396Z" fill="#E0B049" stroke="black" stroke-width="0.106548"/>
<path d="M165.416 73.1948C165.19 73.7267 164.95 73.8849 164.503 74.1414C164.38 73.4177 164.423 73.1795 164.583 72.8775L164.945 72.2065C165.279 72.5155 165.39 72.7195 165.416 73.1948Z" fill="#ECE0FF"/>
<path d="M164.416 72.104L163.898 73.0625L163.803 71.8745L164.036 71.4432L164.127 71.7706L164.416 72.104Z" fill="#FEDEFF"/>
<path d="M166.068 80.4009C167.103 81.4944 167.769 81.7703 169.441 80.4655C172.273 77.6143 171.769 76.6669 172.238 74.5529C172.353 73.0593 172.072 72.4515 170.686 71.8555C169.875 70.865 169.244 70.5216 167.784 70.4409C166.121 73.4069 165.786 74.586 165.244 76.6505C164.769 78.4098 165.205 79.1368 166.068 80.4009Z" fill="#14000C"/>
<path d="M166.641 79.4905C167.519 80.4179 168.084 80.6519 169.502 79.5452C171.904 77.127 171.476 76.3235 171.874 74.5305C171.972 73.2638 171.733 72.7483 170.558 72.2428C169.87 71.4027 169.335 71.1115 168.096 71.043C166.686 73.5586 166.402 74.5587 165.942 76.3096C165.54 77.8017 165.91 78.4183 166.641 79.4905Z" fill="#FF5DD6"/>
<path d="M170.155 77.5506C169.385 78.9862 168.859 78.7945 167.908 78.3072C167.309 77.9526 167.141 77.4995 166.937 76.5402C166.751 74.0191 167.44 72.5939 168.844 72.8771C169.533 73.2289 169.915 73.4834 170.587 74.2099C171.473 75.7801 171.006 76.4182 170.155 77.5506Z" fill="black" stroke="black" stroke-width="0.112941"/>
<path d="M169.86 77.0839C169.28 78.1648 168.884 78.0205 168.168 77.6535C167.717 77.3866 167.59 77.0454 167.437 76.3231C167.296 74.4249 167.815 73.3518 168.873 73.565C169.391 73.8299 169.679 74.0215 170.185 74.5685C170.852 75.7508 170.5 76.2312 169.86 77.0839Z" fill="#E0B049" stroke="black" stroke-width="0.112941"/>
<path d="M169.847 76.2229C169.489 76.8422 169.181 77.0272 168.612 77.3275C168.592 76.4871 168.683 76.21 168.923 75.8582L169.464 75.0766C169.802 75.4341 169.898 75.6706 169.847 76.2229Z" fill="#ECE0FF"/>
<path d="M168.858 74.9538L168.086 76.0703L168.179 74.6901L168.526 74.1877L168.577 74.5678L168.858 74.9538Z" fill="#FEDEFF"/>
<path d="M177.775 21.6032C178.506 19.0755 179.279 18.0713 182.637 18.4555C188.777 20.0395 188.715 21.8743 190.896 24.5246C192.122 26.5927 192.144 27.7317 190.55 29.8534C190.072 32.0282 189.399 33.0983 187.332 34.5376C182.811 31.7283 181.487 30.3168 179.235 27.8044C177.298 25.6747 177.417 24.2224 177.775 21.6032Z" fill="#14000C"/>
<path d="M179.247 22.4121C179.867 20.2682 180.523 19.4165 183.37 19.7424C188.578 21.0859 188.525 22.642 190.375 24.8898C191.415 26.6439 191.433 27.6098 190.082 29.4093C189.677 31.2538 189.105 32.1615 187.352 33.3822C183.518 30.9995 182.395 29.8024 180.485 27.6715C178.842 25.8652 178.943 24.6335 179.247 22.4121Z" fill="#FF5DD6"/>
<path d="M185.733 22.056C183.594 20.6654 182.966 21.4197 181.928 22.9897C181.308 24.0474 181.385 24.8587 181.769 26.4385C183.284 30.2746 185.297 31.7239 187.139 30.0406C187.891 28.9057 188.267 28.1894 188.729 26.5249C188.905 23.4384 187.773 22.9331 185.733 22.056Z" fill="black" stroke="black" stroke-width="0.187547"/>
<path d="M185.634 22.9973C184.024 21.9503 183.551 22.5182 182.769 23.7003C182.303 24.4967 182.36 25.1076 182.649 26.2971C183.79 29.1855 185.306 30.2767 186.693 29.0092C187.259 28.1547 187.542 27.6154 187.89 26.3621C188.023 24.0382 187.17 23.6577 185.634 22.9973Z" fill="#E0B049" stroke="black" stroke-width="0.187547"/>
<path d="M186.226 24.2707C185.267 23.6935 184.688 23.703 183.648 23.7811C184.215 25.0217 184.543 25.3423 185.142 25.6368L186.482 26.2842C186.721 25.4582 186.692 25.0276 186.226 24.2707Z" fill="#ECE0FF"/>
<path d="M185.688 27.0031L183.773 26.0781L184.887 28.0017L185.749 28.418L185.553 27.8194L185.688 27.0031Z" fill="#FEDEFF"/>
<path d="M151.153 47.3919C152.909 47.0144 153.754 47.1955 154.542 49.632C155.45 54.3946 154.317 54.9898 153.373 57.4075C152.491 58.9678 151.806 59.3786 150.033 59.0231C148.568 59.4519 147.714 59.3619 146.211 58.4446C146.54 54.3667 146.994 52.9678 147.834 50.5497C148.537 48.4805 149.454 48.0571 151.153 47.3919Z" fill="#14000C"/>
<path d="M151.11 48.6928C152.599 48.3726 153.316 48.5262 153.985 50.5927C154.754 54.632 153.794 55.1368 152.993 57.1873C152.245 58.5107 151.664 58.859 150.16 58.5576C148.918 58.9213 148.193 58.8449 146.919 58.0669C147.198 54.6083 147.583 53.4218 148.295 51.371C148.891 49.616 149.669 49.2569 151.11 48.6928Z" fill="#FF5DD6"/>
<path d="M153.302 53.0159C153.495 51.0655 152.846 50.8968 151.577 50.7306C150.747 50.6734 150.278 51.0081 149.436 51.8205C147.569 54.194 147.302 56.0785 148.884 56.7569C149.802 56.878 150.351 56.8867 151.501 56.6246C153.428 55.6725 153.39 54.7203 153.302 53.0159Z" fill="black" stroke="black" stroke-width="0.135514"/>
<path d="M152.695 53.2689C152.841 51.8004 152.352 51.6734 151.397 51.5483C150.771 51.5052 150.418 51.7572 149.784 52.3689C148.378 54.156 148.177 55.5749 149.369 56.0857C150.06 56.1769 150.473 56.1835 151.339 55.9861C152.79 55.2692 152.762 54.5523 152.695 53.2689Z" fill="#E0B049" stroke="black" stroke-width="0.135514"/>
<path d="M152.108 54.1191C152.167 53.2606 151.985 52.8668 151.621 52.1803C151.04 53.0004 150.946 53.3375 150.949 53.8504L150.964 54.995C151.538 54.8713 151.791 54.702 152.108 54.1191Z" fill="#ECE0FF"/>
<path d="M150.283 54.7054L150.262 53.0703L149.433 54.5029L149.443 55.2387L149.746 54.8961L150.283 54.7054Z" fill="#FEDEFF"/>
<path d="M156.521 46.8611C158.027 45.9823 158.85 45.8848 160.235 47.8265C162.363 51.8169 161.487 52.6988 161.28 55.1568C160.897 56.8268 160.382 57.4056 158.661 57.6323C157.436 58.4674 156.629 58.6495 155.003 58.2894C154.195 54.5325 154.23 53.1388 154.34 50.7129C154.421 48.6416 155.146 47.9798 156.521 46.8611Z" fill="#14000C"/>
<path d="M156.83 48.0426C158.107 47.2973 158.805 47.2146 159.98 48.8614C161.784 52.2458 161.042 52.9938 160.866 55.0785C160.541 56.4949 160.104 56.9858 158.645 57.178C157.606 57.8863 156.921 58.0408 155.542 57.7354C154.857 54.549 154.886 53.367 154.98 51.3095C155.049 49.5528 155.664 48.9915 156.83 48.0426Z" fill="#FF5DD6"/>
<path d="M160.016 51.2404C159.662 49.4325 159.022 49.4809 157.814 49.7222C157.038 49.9264 156.7 50.3707 156.15 51.358C155.086 54.06 155.354 55.8315 156.988 55.953C157.861 55.7793 158.366 55.6182 159.349 55.0293C160.855 53.583 160.561 52.7411 160.016 51.2404Z" fill="black" stroke="black" stroke-width="0.128904"/>
<path d="M159.537 51.6631C159.271 50.3019 158.789 50.3384 157.88 50.5201C157.295 50.6738 157.04 51.0083 156.626 51.7517C155.825 53.7862 156.027 55.12 157.257 55.2115C157.915 55.0807 158.295 54.9594 159.035 54.516C160.169 53.427 159.948 52.7931 159.537 51.6631Z" fill="#E0B049" stroke="black" stroke-width="0.128904"/>
<path d="M158.442 53.0688C158.262 52.2813 157.988 51.9842 157.468 51.4808C157.16 52.3945 157.165 52.7257 157.308 53.1845L157.633 54.2059C158.125 53.9185 158.31 53.689 158.442 53.0688Z" fill="#ECE0FF"/>
<path d="M162.232 45.3094C163.555 44.3853 164.305 44.2303 165.717 45.8958C167.955 49.376 167.213 50.2526 167.196 52.5175C166.961 54.0757 166.528 54.6464 164.962 54.9911C163.894 55.8529 163.165 56.0839 161.644 55.8844C160.635 52.5125 160.568 51.2349 160.499 49.0069C160.426 47.1059 161.047 46.4426 162.232 45.3094Z" fill="#14000C"/>
<path d="M162.603 46.3598C163.726 45.576 164.362 45.4446 165.559 46.8571C167.458 49.8088 166.828 50.5523 166.813 52.4732C166.615 53.7948 166.247 54.2788 164.919 54.5712C164.013 55.302 163.394 55.498 162.104 55.3288C161.249 52.4689 161.192 51.3854 161.133 49.4958C161.072 47.8834 161.598 47.3209 162.603 46.3598Z" fill="#FF5DD6"/>
<path d="M165.757 49.0374C165.304 47.4119 164.718 47.5074 163.625 47.8245C162.925 48.0733 162.645 48.5067 162.209 49.4538C161.421 52.0104 161.793 53.6094 163.305 53.59C164.096 53.3614 164.549 53.1736 165.411 52.5564C166.694 51.1132 166.364 50.3666 165.757 49.0374Z" fill="black" stroke="black" stroke-width="0.118633"/>
<path d="M165.339 49.4555C164.998 48.2317 164.557 48.3035 163.734 48.5423C163.207 48.7296 162.996 49.056 162.668 49.7691C162.075 51.6941 162.355 52.898 163.493 52.8834C164.089 52.7112 164.43 52.5699 165.079 52.1052C166.045 51.0185 165.797 50.4563 165.339 49.4555Z" fill="#E0B049" stroke="black" stroke-width="0.118633"/>
<path d="M165.128 50.3443C164.907 49.6383 164.634 49.3885 164.12 48.9695C163.901 49.83 163.929 50.1325 164.093 50.5408L164.464 51.4492C164.896 51.147 165.051 50.9222 165.128 50.3443Z" fill="#ECE0FF"/>
<path d="M163.808 51.4539L163.277 50.1562L163.047 51.5936L163.285 52.1776L163.427 51.7965L163.808 51.4539Z" fill="#FEDEFF"/>
<path d="M167.141 41.7853C168.471 40.3292 169.319 39.9334 171.412 41.468C174.944 44.8786 174.288 46.1128 174.843 48.7554C174.962 50.6376 174.594 51.4265 172.829 52.2776C171.785 53.5878 170.981 54.0663 169.131 54.2705C167.081 50.633 166.678 49.1641 166.03 46.5893C165.462 44.3959 166.027 43.4453 167.141 41.7853Z" fill="#14000C"/>
<path d="M167.855 42.8974C168.983 41.6624 169.702 41.3268 171.477 42.6283C174.473 45.5209 173.916 46.5677 174.387 48.809C174.488 50.4053 174.176 51.0744 172.679 51.7963C171.793 52.9075 171.111 53.3134 169.543 53.4866C167.804 50.4014 167.462 49.1556 166.912 46.9718C166.431 45.1115 166.91 44.3053 167.855 42.8974Z" fill="#FF5DD6"/>
<path d="M172.261 45.1082C171.312 43.3453 170.644 43.6245 169.431 44.3077C168.666 44.7983 168.446 45.3835 168.17 46.6117C167.888 49.8153 168.734 51.5709 170.517 51.1144C171.394 50.6211 171.883 50.2723 172.746 49.306C173.897 47.2569 173.317 46.482 172.261 45.1082Z" fill="black" stroke="black" stroke-width="0.142878"/>
<path d="M171.877 45.7199C171.163 44.3925 170.66 44.6027 169.746 45.1172C169.171 45.4865 169.005 45.9271 168.797 46.852C168.585 49.2641 169.222 50.5859 170.564 50.2422C171.225 49.8708 171.593 49.6081 172.243 48.8806C173.109 47.3378 172.673 46.7542 171.877 45.7199Z" fill="#E0B049" stroke="black" stroke-width="0.142878"/>
<path d="M171.548 47.3858C170.991 46.4273 170.503 46.1586 169.6 45.7287C169.549 47.0741 169.688 47.509 170.064 48.0503L170.91 49.252C171.459 48.6507 171.617 48.2641 171.548 47.3858Z" fill="#ECE0FF"/>
<path d="M171.352 37.0568C172.28 34.9793 173.003 34.2036 175.404 34.8757C179.66 36.8555 179.329 38.4115 180.517 40.8925C181.096 42.7798 180.935 43.7519 179.437 45.395C178.75 47.198 178.091 48.0401 176.352 49.0534C173.474 46.1966 172.722 44.8586 171.461 42.4877C170.372 40.4751 170.684 39.2505 171.352 37.0568Z" fill="#14000C"/>
<path d="M172.309 37.8932C173.096 36.1312 173.709 35.4733 175.745 36.0433C179.355 37.7224 179.074 39.0422 180.082 41.1464C180.572 42.747 180.436 43.5715 179.166 44.965C178.583 46.4942 178.024 47.2084 176.55 48.0679C174.108 45.6449 173.471 44.5101 172.401 42.4993C171.477 40.7923 171.742 39.7537 172.309 37.8932Z" fill="#FF5DD6"/>
<path d="M177.118 38.2569C175.766 36.853 175.189 37.4308 174.185 38.6611C173.566 39.4982 173.497 40.1969 173.533 41.5817C174.049 45.0042 175.3 46.4452 176.911 45.2009C177.638 44.3117 178.025 43.7403 178.621 42.3703C179.229 39.76 178.478 39.2134 177.118 38.2569Z" fill="black" stroke="black" stroke-width="0.165261"/>
<path d="M176.897 39.0545C175.879 37.9974 175.444 38.4325 174.688 39.3588C174.222 39.9891 174.17 40.5152 174.197 41.5579C174.586 44.1348 175.528 45.2198 176.741 44.2829C177.288 43.6134 177.579 43.1832 178.029 42.1516C178.486 40.1862 177.921 39.7747 176.897 39.0545Z" fill="#E0B049" stroke="black" stroke-width="0.165261"/>
<path d="M177.135 40.1897C176.522 39.5996 176.096 39.5483 175.321 39.5079C175.544 40.6226 175.736 40.9294 176.129 41.2416L177.011 41.9307C177.314 41.2518 177.36 40.8821 177.135 40.1897Z" fill="#ECE0FF"/>
<path d="M176.319 42.4688L175.059 41.4844L175.577 43.2369L176.144 43.6799L176.093 43.15L176.319 42.4688Z" fill="#FEDEFF"/>
<path d="M174.101 29.502C174.967 27.2041 175.759 26.3318 178.846 26.9725C184.427 28.9667 184.233 30.6739 186.06 33.3308C187.044 35.3641 186.98 36.429 185.343 38.2754C184.738 40.2652 184.033 41.2074 182.008 42.3771C178.021 39.3753 176.898 37.9467 174.995 35.4126C173.355 33.2621 173.574 31.9166 174.101 29.502Z" fill="#14000C"/>
<path d="M175.41 30.3879C176.145 28.439 176.817 27.6992 179.435 28.2425C184.168 29.9339 184.004 31.3819 185.553 33.6352C186.388 35.3598 186.333 36.2629 184.945 37.8289C184.432 39.5165 183.834 40.3157 182.117 41.3078C178.735 38.7618 177.782 37.5502 176.168 35.4009C174.778 33.577 174.963 32.4358 175.41 30.3879Z" fill="#FF5DD6"/>
<path d="M181.452 30.5935C179.571 29.116 178.932 29.7672 177.852 31.1453C177.198 32.0805 177.209 32.8442 177.447 34.3509C178.569 38.0587 180.329 39.5805 182.164 38.164C182.946 37.168 183.348 36.5309 183.9 35.0162C184.294 32.1502 183.281 31.5835 181.452 30.5935Z" fill="black" stroke="black" stroke-width="0.175177"/>
<path d="M181.288 31.4692C179.871 30.3567 179.39 30.8471 178.577 31.8847C178.085 32.5889 178.093 33.1638 178.272 34.2983C179.117 37.0901 180.442 38.2359 181.824 37.1694C182.413 36.4194 182.715 35.9398 183.131 34.7992C183.427 32.6413 182.665 32.2146 181.288 31.4692Z" fill="#E0B049" stroke="black" stroke-width="0.175177"/>
<path d="M181.747 32.7001C180.9 32.0808 180.362 32.0411 179.391 32.0266C179.824 33.2321 180.106 33.559 180.639 33.8841L181.835 34.601C182.118 33.8501 182.123 33.4457 181.747 32.7001Z" fill="#ECE0FF"/>
<path d="M181.044 35.2116L179.336 34.1875L180.226 36.0764L180.995 36.5373L180.858 35.9621L181.044 35.2116Z" fill="#FEDEFF"/>
<path d="M193.694 17.2552C193.992 19.4446 193.734 20.5013 190.988 21.5127C185.665 22.698 185.084 21.2904 182.477 20.1373C180.813 19.0531 180.406 18.2026 180.92 15.9851C180.545 14.1603 180.703 13.0922 181.819 11.2059C186.302 11.5721 187.817 12.1234 190.431 13.1452C192.669 14.0004 193.075 15.1416 193.694 17.2552Z" fill="#14000C"/>
<path d="M192.266 17.2129C192.519 19.0698 192.3 19.9661 189.972 20.8239C185.456 21.8292 184.964 20.6353 182.753 19.6573C181.342 18.7378 180.996 18.0165 181.432 16.1357C181.114 14.588 181.248 13.6822 182.194 12.0823C185.997 12.3929 187.281 12.8604 189.499 13.7271C191.397 14.4524 191.741 15.4203 192.266 17.2129Z" fill="#FF5DD6"/>
<path d="M187.336 19.9973C189.477 20.2171 189.708 19.4048 189.978 17.8187C190.098 16.781 189.76 16.199 188.92 15.1564C186.424 12.8512 184.36 12.5384 183.503 14.5217C183.307 15.6689 183.26 16.3546 183.471 17.7886C184.392 20.1844 185.446 20.1267 187.336 19.9973Z" fill="black" stroke="black" stroke-width="0.159131"/>
<path d="M187.098 19.2441C188.71 19.4096 188.884 18.798 189.087 17.6037C189.177 16.8224 188.923 16.3842 188.29 15.5992C186.411 13.8635 184.857 13.628 184.212 15.1213C184.064 15.985 184.029 16.5014 184.188 17.5811C184.881 19.385 185.675 19.3415 187.098 19.2441Z" fill="#E0B049" stroke="black" stroke-width="0.159131"/>
<path d="M186.198 18.5193C187.142 18.5829 187.59 18.3513 188.373 17.8892C187.506 17.1734 187.14 17.0591 186.573 17.069L185.308 17.1003C185.406 17.8155 185.575 18.1292 186.198 18.5193Z" fill="#ECE0FF"/>
<path d="M196.332 10.9303C196.748 12.6278 196.631 13.4846 194.534 14.5373C190.406 15.9671 189.829 14.9119 187.664 14.246C186.254 13.5466 185.86 12.9143 186.085 11.1191C185.638 9.71587 185.675 8.85955 186.405 7.2692C189.995 7.1403 191.243 7.43362 193.403 7.99535C195.25 8.46084 195.666 9.32238 196.332 10.9303Z" fill="#14000C"/>
<path d="M195.193 11.0217C195.547 12.4614 195.447 13.188 193.669 14.0809C190.167 15.2935 189.678 14.3986 187.842 13.8338C186.646 13.2406 186.312 12.7044 186.503 11.1818C186.123 9.99166 186.155 9.26539 186.774 7.91656C189.819 7.80723 190.877 8.05601 192.709 8.53243C194.276 8.92723 194.629 9.65793 195.193 11.0217Z" fill="#FF5DD6"/>
<path d="M191.514 13.678C193.232 13.6517 193.348 12.9902 193.432 11.7151C193.442 10.8862 193.125 10.4591 192.372 9.71576C190.201 8.1316 188.537 8.07728 188.02 9.72C187.959 10.6423 187.978 11.187 188.264 12.2974C189.192 14.0995 190.025 13.9559 191.514 13.678Z" fill="black" stroke="black" stroke-width="0.126636"/>
<path d="M191.258 13.1147C192.552 13.0949 192.639 12.5968 192.702 11.6368C192.71 11.0127 192.472 10.6911 191.905 10.1314C190.27 8.9386 189.017 8.8977 188.627 10.1346C188.581 10.829 188.596 11.2392 188.811 12.0752C189.51 13.4321 190.137 13.3239 191.258 13.1147Z" fill="#E0B049" stroke="black" stroke-width="0.126636"/>
<path d="M190.488 12.6202C191.243 12.5823 191.579 12.3581 192.163 11.9211C191.416 11.4377 191.116 11.3817 190.666 11.4423L189.664 11.5848C189.801 12.1393 189.961 12.3707 190.488 12.6202Z" fill="#ECE0FF"/>
<path d="M198.791 7.2569C199.021 8.37666 198.923 8.93274 197.532 9.56208C194.809 10.3814 194.459 9.67659 193.066 9.18205C192.165 8.68643 191.924 8.26279 192.114 7.09695C191.857 6.16851 191.903 5.61048 192.417 4.59239C194.757 4.60742 195.563 4.83341 196.955 5.25983C198.147 5.61479 198.397 6.18874 198.791 7.2569Z" fill="#14000C"/>
<path d="M198.05 7.29385C198.245 8.24356 198.162 8.71519 196.983 9.24895C194.673 9.94388 194.376 9.34607 193.195 8.92663C192.43 8.50628 192.226 8.14698 192.388 7.15819C192.17 6.37074 192.208 5.89746 192.644 5.03398C194.629 5.04673 195.312 5.2384 196.493 5.60006C197.504 5.90111 197.716 6.38791 198.05 7.29385Z" fill="#FF5DD6"/>
<path d="M195.586 8.92179C196.706 8.95214 196.798 8.52346 196.883 7.69334C196.91 7.15245 196.714 6.86486 196.242 6.35874C194.867 5.26451 193.785 5.18305 193.408 6.24123C193.346 6.84163 193.345 7.19784 193.504 7.93062C194.064 9.13284 194.61 9.06205 195.586 8.92179Z" fill="black" stroke="black" stroke-width="0.0826306"/>
<path d="M195.437 8.54323C196.28 8.56608 196.349 8.24331 196.413 7.61827C196.433 7.21102 196.286 6.99448 195.931 6.6134C194.895 5.78951 194.08 5.72817 193.797 6.52492C193.75 6.97699 193.749 7.24519 193.869 7.79693C194.291 8.70214 194.701 8.64883 195.437 8.54323Z" fill="#E0B049" stroke="black" stroke-width="0.0826306"/>
<path d="M194.941 8.20389C195.434 8.20006 195.658 8.06299 196.049 7.79377C195.574 7.45755 195.38 7.41273 195.086 7.43989L194.43 7.50522C194.506 7.87101 194.605 8.0265 194.941 8.20389Z" fill="#ECE0FF"/>
<path d="M200.328 5.03016C200.501 5.78696 200.443 6.16633 199.506 6.61708C197.666 7.2192 197.417 6.74625 196.462 6.43361C195.842 6.11201 195.672 5.82825 195.784 5.03313C195.595 4.40674 195.618 4.02692 195.953 3.32675C197.545 3.29783 198.096 3.43788 199.05 3.70426C199.866 3.92546 200.044 4.31116 200.328 5.03016Z" fill="#14000C"/>
<path d="M199.822 5.06142C199.969 5.70329 199.919 6.02505 199.125 6.40735C197.564 6.91802 197.353 6.5169 196.543 6.25173C196.017 5.97897 195.872 5.73831 195.968 5.06394C195.808 4.53268 195.827 4.21054 196.111 3.6167C197.461 3.59218 197.929 3.71096 198.738 3.93688C199.43 4.12449 199.581 4.45162 199.822 5.06142Z" fill="#E4A10A"/>
<path d="M198.171 6.20653C198.933 6.20843 198.989 5.9157 199.035 5.35037C199.045 4.98251 198.908 4.79042 198.579 4.45452C197.627 3.7342 196.89 3.69696 196.649 4.42207C196.615 4.83096 196.62 5.07294 196.739 5.56806C197.138 6.37534 197.508 6.31813 198.171 6.20653Z" fill="black" stroke="black" stroke-width="0.0561888"/>
<path d="M198.065 5.95597C198.639 5.9574 198.681 5.73698 198.715 5.31133C198.723 5.03435 198.62 4.88972 198.372 4.6368C197.656 4.09444 197.1 4.06641 196.919 4.61237C196.894 4.92024 196.897 5.10244 196.987 5.47523C197.287 6.08307 197.566 6.03999 198.065 5.95597Z" fill="#4965E0" stroke="black" stroke-width="0.0561888"/>
<path d="M197.724 5.72895C198.059 5.71811 198.21 5.62125 198.472 5.43184C198.144 5.21138 198.011 5.18418 197.812 5.20754L197.366 5.26289C197.423 5.51011 197.493 5.61407 197.724 5.72895Z" fill="#ECE0FF"/>
<path d="M155.536 42.9895C151.551 42.9296 149.798 42.1016 149.18 36.3305C149.348 25.3719 152.076 24.6351 155.214 19.7857C157.83 16.7944 159.502 16.2367 163.193 17.9203C166.568 17.7191 168.383 18.3516 171.235 21.1364C168.688 29.9578 167.074 32.8109 164.164 37.7146C161.707 41.9185 159.524 42.3857 155.536 42.9895Z" fill="#14000C"/>
<path d="M156.214 40.154C152.835 40.1032 151.347 39.4009 150.823 34.5063C150.966 25.212 153.28 24.587 155.941 20.4741C158.16 17.937 159.578 17.464 162.708 18.892C165.571 18.7213 167.111 19.2577 169.529 21.6196C167.369 29.1013 166 31.5212 163.532 35.6802C161.449 39.2457 159.597 39.6419 156.214 40.154Z" fill="#FF5DD6"/>
<path d="M153.402 29.5167C152.106 33.7177 153.44 34.419 156.121 35.4296C157.899 35.9775 159.068 35.4779 161.263 34.1147C166.384 29.8311 167.811 25.8129 164.679 23.5141C162.74 22.7811 161.551 22.4831 158.934 22.4766C154.321 23.5967 153.975 25.7147 153.402 29.5167Z" fill="black" stroke="black" stroke-width="0.303499"/>
<path d="M154.818 29.2548C153.843 32.418 154.847 32.946 156.866 33.7069C158.205 34.1195 159.085 33.7433 160.737 32.7169C164.593 29.4916 165.667 26.4661 163.309 24.7352C161.849 24.1834 160.954 23.959 158.984 23.954C155.51 24.7974 155.25 26.3921 154.818 29.2548Z" fill="#E0B049" stroke="black" stroke-width="0.303499"/>
<path d="M158.093 27.8555C157.58 29.7181 157.799 30.6786 158.281 32.3765C159.91 30.8637 160.267 30.1687 160.49 29.0363L160.971 26.5058C159.669 26.4871 159.045 26.732 158.093 27.8555Z" fill="#ECE0FF"/>
<path d="M120.479 65.4216C117.851 65.3822 116.695 64.8361 116.287 61.0302C116.398 53.8033 118.197 53.3174 120.266 50.1194C121.992 48.1467 123.095 47.7789 125.529 48.8892C127.754 48.7565 128.952 49.1736 130.832 51.0101C129.152 56.8276 128.088 58.7091 126.169 61.943C124.549 64.7153 123.109 65.0235 120.479 65.4216Z" fill="#14000C"/>
<path d="M120.93 63.5483C118.701 63.5148 117.72 63.0516 117.374 59.8238C117.469 53.6944 118.994 53.2823 120.749 50.5699C122.213 48.8968 123.148 48.5849 125.212 49.5266C127.1 49.414 128.116 49.7678 129.71 51.3254C128.286 56.2594 127.383 57.8552 125.756 60.5979C124.381 62.9493 123.16 63.2106 120.93 63.5483Z" fill="#FF5DD6"/>
<path d="M119.075 56.5282C118.221 59.2986 119.1 59.7611 120.868 60.4276C122.041 60.7889 122.812 60.4594 124.259 59.5604C127.636 56.7355 128.577 54.0856 126.512 52.5696C125.233 52.0863 124.449 51.8897 122.723 51.8854C119.681 52.6241 119.453 54.0208 119.075 56.5282Z" fill="black" stroke="black" stroke-width="0.200149"/>
<path d="M120.014 56.3546C119.37 58.4407 120.033 58.7889 121.364 59.2907C122.247 59.5627 122.827 59.3147 123.917 58.6378C126.46 56.5108 127.168 54.5156 125.613 53.3741C124.65 53.0102 124.06 52.8622 122.761 52.8589C120.47 53.4151 120.298 54.4668 120.014 56.3546Z" fill="#E0B049" stroke="black" stroke-width="0.200149"/>
<path d="M122.168 55.4323C121.83 56.6605 121.974 57.294 122.292 58.4137C123.366 57.416 123.601 56.9577 123.748 56.2109L124.066 54.5422C123.207 54.5298 122.795 54.6913 122.168 55.4323Z" fill="#ECE0FF"/>
<path d="M136.236 52.529C133.311 52.4851 132.024 51.8773 131.57 47.6415C131.694 39.5983 133.696 39.0575 135.999 35.4982C137.92 33.3026 139.147 32.8933 141.856 34.129C144.333 33.9814 145.665 34.4455 147.758 36.4895C145.889 42.9641 144.704 45.0582 142.568 48.6574C140.765 51.7429 139.163 52.0859 136.236 52.529Z" fill="#14000C"/>
<path d="M136.736 50.4542C134.255 50.417 133.164 49.9015 132.779 46.309C132.884 39.4872 134.582 39.0286 136.535 36.0098C138.164 34.1477 139.205 33.8005 141.502 34.8486C143.603 34.7233 144.733 35.117 146.508 36.8506C144.923 42.3419 143.918 44.118 142.107 47.1706C140.577 49.7875 139.218 50.0784 136.736 50.4542Z" fill="#FF5DD6"/>
<path d="M151.789 76.7541C149.39 77.3402 148.402 78.0817 148.514 81.648C149.536 88.2348 151.243 88.3028 153.543 90.7948C155.372 92.2379 156.427 92.3436 158.512 90.8187C160.565 90.4742 161.607 89.8421 163.093 87.7688C160.816 82.7994 159.603 81.3012 157.436 78.745C155.602 76.5483 154.245 76.5678 151.789 76.7541Z" fill="#14000C"/>
<path d="M152.442 78.3796C150.407 78.8767 149.569 79.5056 149.664 82.5303C150.531 88.1168 151.978 88.1744 153.929 90.288C155.481 91.512 156.375 91.6016 158.144 90.3082C159.885 90.0161 160.768 89.48 162.029 87.7216C160.098 83.5068 159.069 82.2361 157.231 80.0681C155.675 78.205 154.525 78.2216 152.442 78.3796Z" fill="#FF5DD6"/>
<path d="M151.635 85.1803C150.501 82.8252 151.246 82.218 152.779 81.2384C153.805 80.6625 154.553 80.8025 155.99 81.3219C159.439 83.1989 160.637 85.4257 158.941 87.2446C157.833 87.9543 157.141 88.2981 155.563 88.6633C152.686 88.6244 152.3 87.3945 151.635 85.1803Z" fill="black" stroke="black" stroke-width="0.185959"/>
<path d="M152.511 85.1363C151.657 83.363 152.218 82.9059 153.372 82.1683C154.145 81.7347 154.708 81.8401 155.79 82.2312C158.387 83.6444 159.289 85.3211 158.012 86.6906C157.178 87.225 156.656 87.4839 155.468 87.7588C153.302 87.7295 153.012 86.8035 152.511 85.1363Z" fill="#E0B049" stroke="black" stroke-width="0.185959"/>
<path d="M154.604 85.5335C154.139 84.4809 154.19 83.8713 154.338 82.7806C155.448 83.4683 155.721 83.8383 155.951 84.4905L156.454 85.9504C155.67 86.1414 155.272 86.0799 154.604 85.5335Z" fill="#ECE0FF"/>
<path d="M139.352 73.6695C137.591 74.0997 136.866 74.6439 136.948 77.2615C137.698 82.096 138.951 82.1459 140.639 83.9749C141.981 85.0342 142.756 85.1118 144.286 83.9925C145.793 83.7397 146.558 83.2757 147.648 81.754C145.977 78.1066 145.087 77.007 143.496 75.1308C142.15 73.5185 141.154 73.5328 139.352 73.6695Z" fill="#14000C"/>
<path d="M139.825 74.8529C138.332 75.2177 137.717 75.6793 137.786 77.8994C138.422 81.9997 139.485 82.042 140.917 83.5933C142.056 84.4917 142.712 84.5574 144.01 83.6081C145.288 83.3937 145.937 83.0003 146.862 81.7096C145.445 78.6161 144.689 77.6835 143.341 76.0922C142.198 74.7248 141.354 74.7369 139.825 74.8529Z" fill="#FF5DD6"/>
<path d="M134.673 42.636C133.722 45.7194 134.701 46.2341 136.668 46.9759C137.974 47.378 138.832 47.0113 140.442 46.0108C144.201 42.8667 145.248 39.9175 142.949 38.2303C141.526 37.6923 140.654 37.4736 138.733 37.4687C135.347 38.2909 135.093 39.8454 134.673 42.636Z" fill="black" stroke="black" stroke-width="0.222759"/>
<path d="M135.716 42.45C135 44.7716 135.737 45.1592 137.219 45.7177C138.201 46.0205 138.847 45.7444 140.06 44.991C142.89 42.6237 143.679 40.4031 141.948 39.1327C140.876 38.7277 140.219 38.563 138.773 38.5594C136.224 39.1784 136.033 40.3489 135.716 42.45Z" fill="#E0B049" stroke="black" stroke-width="0.222759"/>
<path d="M141.941 82.9362C144.046 83.7821 144.487 83.0143 145.166 81.4629C145.552 80.4314 145.36 79.7356 144.779 78.4212C142.852 75.3304 140.849 74.4115 139.476 76.201C138.984 77.3227 138.761 78.0137 138.607 79.5482C138.923 82.2762 140.002 82.5222 141.941 82.9362Z" fill="#E0B049" stroke="black" stroke-width="0.222759"/>
<path d="M138.118 41.422C137.742 42.7891 137.902 43.4941 138.256 44.7403C139.452 43.6299 139.714 43.1198 139.878 42.2887L140.231 40.4314C139.276 40.4176 138.817 40.5974 138.118 41.422Z" fill="#ECE0FF"/>
<path d="M140.721 79.7228C141.465 80.8656 142.083 81.1641 143.223 81.6338C143.208 79.9748 143.01 79.4488 142.515 78.8074L141.4 77.3843C140.758 78.1603 140.585 78.6465 140.721 79.7228Z" fill="#ECE0FF"/>
</svg>
