<svg width="404" height="400" viewBox="0 0 404 400" fill="none" xmlns="http://www.w3.org/2000/svg">
<path d="M402.056 191.493C297.699 121.785 210.036 96.9421 104.879 129.262L85.3444 140.024L58.0738 171.723C80.5866 244.034 97.3611 296.26 114.98 301.877C121.022 307.002 121.194 299.162 117.356 271.328C155.335 295.846 177.829 310.73 170.221 291.85C189.98 302.737 206.656 300.332 209.523 297.734C219.248 282.194 200.32 251.881 174.717 213.446C209.073 230.293 226.121 237.157 252.121 243.998C283.898 246.745 298.837 242.646 318.049 220.657C336.849 187.32 407.258 202.007 402.056 191.493Z" fill="#EB1212"/>
<path d="M105.359 150.144C99.1261 143.682 93.6229 143.453 91.7848 135.18C137.919 117.859 171.523 112.166 233.947 116.321C240.008 117.912 242.666 119.34 241.276 126.367C265.534 143.367 274.794 155.119 281.3 181.225M105.359 150.144C119.612 148.183 130.204 147.796 140.329 148.685C150.065 149.54 159.369 151.576 171.08 154.526M105.359 150.144C106.832 153.679 104.663 158.609 109.597 163.532M171.08 154.526C214.478 151.042 238.635 156.142 281.3 181.225M171.08 154.526C168.397 164.598 169.451 171.207 177.577 185.346M281.3 181.225C290.999 177.543 295.997 180.62 303.355 204.216C299.558 215.21 295.976 218.976 279.127 208.255C227.749 182.35 219.374 178.753 177.577 185.346M109.597 163.532C136.171 173.274 153.447 175.877 177.577 185.346M109.597 163.532L140.336 203.42C154.18 207.038 165.034 204.222 179.814 199.043C181.64 193.751 181.204 190.772 177.577 185.346" stroke="#2D2929" stroke-width="2.60315"/>
<path d="M97.2412 169.175C90.6955 167.201 88.6258 163.552 82.3819 165.185C86.698 202.463 87.2188 219.147 111.751 259.989C114.937 263.541 111.861 272.282 116.137 268.896C136.093 279.414 148.496 290.569 168.444 285.894M97.2412 169.175C100.871 179.512 104.294 186.822 108.419 193.372C112.385 199.67 117.001 205.264 123.074 212.171M97.2412 169.175C100.149 168.943 102.733 165.758 107.786 167.388C123.629 182.001 131.403 192.799 146.211 205.851M123.074 212.171C135.812 242.783 136.609 265.718 168.444 285.894M123.074 212.171C128.964 206.849 133.806 205.265 146.211 205.851M168.444 285.894C169.324 293.745 189.478 301.149 208.022 297.925C214.149 291.528 210.184 274.358 197.06 266.674C161.637 240.881 156.286 236.459 146.211 205.851" stroke="#2D2929" stroke-width="1.98239"/>
<path d="M194.844 185.203C224.735 204.487 247.026 211.776 272.058 244.369C286.726 241.074 285.56 235.718 280.861 225.186M194.844 185.203C227.454 201.345 254.088 202.103 280.861 225.186M194.844 185.203C212.425 179.767 241.009 186.267 290.425 214.529C294.977 225.471 293.038 226.062 280.861 225.186" stroke="#2D2929" stroke-width="1.27554"/>
<path d="M314.547 224.816C300.806 241.76 288.893 242.497 270.866 245.112C278.71 243.939 281.008 241.217 284.447 236.836C284.604 230.596 282.883 227.471 278.943 224.312C287.526 226.528 289.015 225.925 291.813 224.293C292.581 220.432 293.736 218.886 290.101 214.657C292.658 215.081 296.537 214.94 298.945 213.782C299.91 212.906 301.516 211.449 303.712 204.185C300.646 193.049 298.233 189.202 290.515 182.182L290.449 182.154C283.275 179.188 283.199 179.156 281.031 181.413C280.221 170.744 276.294 165.047 270.581 155.69C261.718 142.003 254.624 135.649 241.018 126.329C242.341 125.13 242.885 123.588 241.083 119.296L247.449 119.858L293.779 133.478C312.28 141.016 322.813 145.994 338.524 154.389C358.072 164.541 369.346 169.921 387.554 181.962C393.04 184.899 396.729 187.951 402.456 191.929C403.679 193.82 398.6 195.427 398.6 195.427L349.799 200.396C331.931 205.468 324.002 212.141 314.547 224.816Z" fill="#2D2929"/>
<path d="M267.383 138.972C266.999 142.734 268.011 145.919 271.222 146.247C274.433 146.575 275.524 145.532 275.908 141.77C276.292 138.007 274.001 134.692 270.79 134.364C267.58 134.036 267.767 135.21 267.383 138.972Z" fill="#FAC18F"/>
<path d="M291.39 151.244C292.924 156.743 295.366 160.866 298.274 160.055C301.182 159.244 301.599 157.328 300.065 151.829C298.531 146.329 294.93 142.529 292.022 143.34C289.114 144.151 289.855 145.745 291.39 151.244Z" fill="#FAC18F"/>
<path d="M313.449 151.589C315.8 152.781 318.205 152.76 319.419 150.367C320.632 147.974 320.287 146.885 317.937 145.693C315.587 144.502 312.698 145.476 311.484 147.869C310.271 150.262 311.099 150.398 313.449 151.589Z" fill="#FAC18F"/>
<path d="M316.277 170.908C320.716 173.159 325.128 173.38 327.1 169.491C329.072 165.602 328.323 163.737 323.883 161.486C319.444 159.235 314.247 160.563 312.275 164.452C310.303 168.341 311.838 168.657 316.277 170.908Z" fill="#FAC18F"/>
<path d="M332.472 180.105C331.178 186.528 332.883 192.29 339.563 193.636C346.243 194.982 348.665 193.44 349.959 187.017C351.253 180.594 346.887 174.296 340.207 172.95C333.527 171.604 333.767 173.682 332.472 180.105Z" fill="#FAC18F"/>
</svg>
