<svg width="680" height="496" viewBox="0 0 680 496" fill="none" xmlns="http://www.w3.org/2000/svg">
<path d="M2.50546 0C211.401 52.2549 344.034 135.019 424.193 305.916L433.037 343.147L446.126 296.605L447.088 294.697C492.511 204.547 518.273 153.419 626.192 75.4707C654.504 52.8803 667.462 46.3316 679.964 56.8541C671.384 79.6068 660.195 99.3765 635.036 140.379C622.545 203.388 605.562 231.932 569.59 278.995C582.637 283.444 588.099 286.8 589.754 296.605C571.564 332.726 556.578 349.097 520.063 370.065C353.782 445.735 227.627 512.047 193.184 492.08C179.706 490.309 189.472 481.052 229.268 453.84C154.326 433.842 109.478 422.415 142.242 410.318C105.627 397.758 89.4595 373.793 89.4548 367.155C97.993 336.881 158.336 325.989 236.697 314.216C175.68 289.977 147.302 276.226 108.635 251.07C68.5099 213.854 56.4959 190.145 62.2916 140.379C82.9835 78.0548 -16.8538 5.51026 2.50546 0Z" fill="url(#paint0_linear_2083_6870)"/>
<path d="M133.023 390.318C127.456 395.281 124.018 396.458 116.054 389.991C102.783 376.012 105.635 371.638 103.985 361.579C103.906 354.513 105.524 351.699 112.687 349.147C117.092 344.627 120.374 343.126 127.737 343.018C135.097 357.319 136.387 362.943 138.418 372.782C140.212 381.169 137.778 384.517 133.023 390.318Z" fill="#14000C"/>
<path d="M130.465 385.904C125.743 390.113 122.827 391.111 116.073 385.626C104.817 373.771 107.236 370.061 105.836 361.53C105.77 355.537 107.142 353.15 113.217 350.986C116.953 347.152 119.737 345.879 125.982 345.787C132.223 357.916 133.318 362.687 135.041 371.031C136.562 378.144 134.497 380.984 130.465 385.904Z" fill="#FF5DD6"/>
<path d="M113.467 376.094C116.857 383.009 119.56 382.203 124.502 380.082C127.629 378.522 128.625 376.416 129.97 371.93C131.752 360.074 128.767 353.223 121.616 354.296C118.04 355.826 116.034 356.955 112.418 360.256C107.438 367.496 109.572 370.593 113.467 376.094Z" fill="black" stroke="black" stroke-width="0.644727"/>
<path d="M115.11 373.961C117.663 379.167 119.698 378.561 123.419 376.964C125.773 375.789 126.523 374.204 127.536 370.826C128.877 361.899 126.63 356.74 121.246 357.548C118.553 358.701 117.043 359.55 114.32 362.036C110.571 367.487 112.177 369.819 115.11 373.961Z" fill="#040146" stroke="black" stroke-width="0.644727"/>
<path d="M115.459 369.895C117.047 372.883 118.532 373.813 121.289 375.336C121.671 371.376 121.306 370.052 120.218 368.348L117.764 364.56C115.946 366.183 115.386 367.281 115.459 369.895Z" fill="#ECE0FF"/>
<path d="M120.849 364.097L124.355 369.508L124.351 362.98L122.774 360.546L122.393 362.329L120.849 364.097Z" fill="#FEDEFF"/>
<path d="M240.512 368.142C236.258 366.469 234.664 364.915 235.999 358.771C239.974 347.647 243.154 347.998 248.199 344.314C252.042 342.317 254.028 342.424 257.405 345.635C261.095 346.795 262.824 348.175 264.918 352.172C259.132 360.151 256.413 362.412 251.594 366.243C247.503 369.543 244.999 369.138 240.512 368.142Z" fill="#FF5DD6"/>
<path d="M241.295 353.981C237.941 358.422 239.342 359.902 242.32 362.397C244.346 363.905 246.028 363.86 249.36 363.265C257.586 360.549 261.031 356.39 258.008 352.129C255.855 350.322 254.473 349.397 251.165 348.141C244.873 347.29 243.572 349.676 241.295 353.981Z" fill="black" stroke="black" stroke-width="0.465855"/>
<path d="M243.202 354.34C240.677 357.683 241.732 358.798 243.974 360.677C245.499 361.812 246.766 361.778 249.275 361.33C255.469 359.285 258.062 356.154 255.786 352.945C254.165 351.585 253.124 350.888 250.634 349.943C245.897 349.302 244.917 351.098 243.202 354.34Z" fill="#040146" stroke="black" stroke-width="0.465855"/>
<path d="M245.944 353.248C244.535 355.246 244.419 356.507 244.336 358.781C247.015 357.736 247.749 357.069 248.494 355.812L250.136 352.995C248.497 352.352 247.606 352.349 245.944 353.248Z" fill="#ECE0FF"/>
<path d="M251.436 354.835L249.09 358.859L253.297 356.729L254.353 354.917L253.079 355.253L251.436 354.835Z" fill="#FEDEFF"/>
<path d="M224.088 363.68C218.972 363.343 216.738 362.226 216.07 355.206C216.524 341.966 220.042 341.256 224.177 335.6C227.602 332.156 229.76 331.592 234.463 333.873C238.801 333.853 241.118 334.738 244.719 338.295C241.258 348.793 239.124 352.136 235.281 357.873C232.035 362.794 229.222 363.214 224.088 363.68Z" fill="#14000C"/>
<path d="M225.016 360.294C220.677 360.009 218.783 359.061 218.216 353.108C218.602 341.878 221.585 341.276 225.092 336.479C227.997 333.558 229.827 333.08 233.816 335.014C237.495 334.998 239.461 335.748 242.515 338.765C239.579 347.668 237.769 350.504 234.509 355.369C231.757 359.543 229.37 359.899 225.016 360.294Z" fill="#FF5DD6"/>
<path d="M221.633 347.238C219.878 352.232 221.575 353.168 224.996 354.568C227.267 355.349 228.779 354.822 231.626 353.319C238.295 348.479 240.214 343.714 236.242 340.727C233.769 339.712 232.249 339.273 228.889 339.091C222.941 340.14 222.451 342.678 221.633 347.238Z" fill="black" stroke="black" stroke-width="0.443131"/>
<path d="M223.467 347.019C222.146 350.78 223.424 351.485 226 352.539C227.71 353.126 228.848 352.73 230.992 351.598C236.013 347.953 237.458 344.366 234.467 342.117C232.605 341.353 231.461 341.022 228.931 340.886C224.452 341.675 224.083 343.586 223.467 347.019Z" fill="#040146" stroke="black" stroke-width="0.443131"/>
<path d="M228.325 345.373C227.627 347.591 227.886 348.768 228.469 350.853C230.593 349.131 231.066 348.314 231.377 346.96L232.051 343.932C230.379 343.823 229.571 344.078 228.325 345.373Z" fill="#ECE0FF"/>
<path d="M207.296 358.065C202.578 358.141 200.445 357.284 199.305 350.895C198.728 338.716 201.901 337.801 205.269 332.302C208.152 328.886 210.089 328.207 214.574 329.946C218.551 329.602 220.744 330.24 224.314 333.232C221.927 343.121 220.22 346.348 217.127 351.899C214.519 356.656 211.97 357.253 207.296 358.065Z" fill="#14000C"/>
<path d="M207.893 354.893C203.892 354.957 202.083 354.23 201.116 348.812C200.626 338.483 203.318 337.706 206.174 333.043C208.619 330.146 210.263 329.57 214.066 331.044C217.44 330.753 219.299 331.294 222.327 333.831C220.303 342.219 218.855 344.955 216.231 349.663C214.02 353.698 211.858 354.204 207.893 354.893Z" fill="#FF5DD6"/>
<path d="M203.815 343.176C202.58 347.888 204.208 348.62 207.451 349.647C209.593 350.192 210.94 349.595 213.438 348.003C219.192 343.062 220.595 338.548 216.727 336.106C214.382 335.361 212.955 335.072 209.859 335.158C204.482 336.567 204.224 338.932 203.815 343.176Z" fill="black" stroke="black" stroke-width="0.407822"/>
<path d="M205.481 342.833C204.552 346.381 205.777 346.932 208.219 347.706C209.831 348.116 210.846 347.667 212.727 346.468C217.059 342.748 218.115 339.349 215.203 337.51C213.437 336.949 212.363 336.732 210.032 336.797C205.983 337.857 205.789 339.638 205.481 342.833Z" fill="#040146" stroke="black" stroke-width="0.407822"/>
<path d="M207.329 341.032C206.855 343.12 207.182 344.179 207.872 346.048C209.692 344.309 210.065 343.524 210.248 342.259L210.638 339.431C209.097 339.456 208.375 339.751 207.329 341.032Z" fill="#ECE0FF"/>
<path d="M212.308 340.476L211.75 344.516L214.446 341.388L214.697 339.57L213.777 340.267L212.308 340.476Z" fill="#FEDEFF"/>
<path d="M189.641 358.579C184.125 359.941 181.39 359.51 178.328 352.319C174.364 338.18 177.841 336.249 180.31 328.887C182.772 324.099 184.863 322.779 190.596 323.61C195.172 322.133 197.917 322.29 202.915 324.838C202.782 337.09 201.65 341.338 199.516 348.688C197.739 354.975 194.908 356.364 189.641 358.579Z" fill="#14000C"/>
<path d="M189.496 354.695C184.817 355.85 182.498 355.484 179.9 349.386C176.538 337.394 179.488 335.756 181.582 329.512C183.67 325.451 185.443 324.332 190.305 325.036C194.187 323.784 196.515 323.917 200.754 326.078C200.641 336.469 199.681 340.072 197.871 346.306C196.364 351.638 193.963 352.816 189.496 354.695Z" fill="#FF5DD6"/>
<path d="M181.536 342.036C181.358 347.901 183.466 348.32 187.549 348.65C190.21 348.712 191.631 347.649 194.134 345.105C199.553 337.754 199.982 332.076 194.783 330.254C191.83 330.012 190.077 330.059 186.466 330.995C180.535 334.099 180.87 336.945 181.536 342.036Z" fill="black" stroke="black" stroke-width="0.491168"/>
<path d="M183.398 341.188C183.265 345.603 184.851 345.919 187.926 346.168C189.93 346.215 190.999 345.413 192.884 343.499C196.965 337.963 197.287 333.689 193.373 332.316C191.149 332.134 189.829 332.169 187.111 332.874C182.645 335.212 182.897 337.354 183.398 341.188Z" fill="#040146" stroke="black" stroke-width="0.491168"/>
<path d="M186.689 337.657C186.697 340.913 187.542 342.372 189.203 344.908C191.309 341.71 191.593 340.419 191.434 338.48L191.049 334.154C188.772 334.717 187.802 335.399 186.689 337.657Z" fill="#ECE0FF"/>
<path d="M172.004 363.195C166.598 366.736 163.624 367.439 158.511 361.844C150.608 350.004 153.732 346.751 154.356 338.741C155.658 333.184 157.493 331.077 163.709 329.534C168.101 326.267 171.013 325.299 176.915 325.689C180.033 337.4 179.978 341.903 179.7 349.765C179.513 356.47 176.922 358.943 172.004 363.195Z" fill="#14000C"/>
<path d="M170.816 359.556C166.231 362.559 163.709 363.155 159.372 358.41C152.67 348.368 155.319 345.609 155.848 338.816C156.952 334.103 158.509 332.316 163.78 331.007C167.505 328.235 169.975 327.415 174.982 327.746C177.626 337.678 177.579 341.497 177.344 348.165C177.185 353.852 174.987 355.95 170.816 359.556Z" fill="#FF5DD6"/>
<path d="M159.133 350.76C160.506 356.413 162.821 355.954 167.179 354.606C169.978 353.582 171.18 351.992 173.121 348.553C176.834 339.352 175.773 333.776 169.853 334.158C166.701 335.13 164.88 335.888 161.354 338.248C155.978 343.616 157.084 346.187 159.133 350.76Z" fill="black" stroke="black" stroke-width="0.568116"/>
<path d="M160.855 349.189C161.888 353.445 163.632 353.1 166.912 352.085C169.02 351.314 169.925 350.117 171.387 347.528C174.182 340.6 173.383 336.402 168.926 336.689C166.553 337.421 165.182 337.991 162.527 339.769C158.479 343.81 159.312 345.746 160.855 349.189Z" fill="#040146" stroke="black" stroke-width="0.568116"/>
<path d="M161.918 346.018C162.61 348.468 163.616 349.294 165.525 350.669C166.595 347.582 166.559 346.518 166.019 345.109L164.79 341.974C163.024 343.132 162.365 343.959 161.918 346.018Z" fill="#ECE0FF"/>
<path d="M167.342 341.812L169.098 346.289L170.355 341.16L169.565 339.145L168.916 340.522L167.342 341.812Z" fill="#FEDEFF"/>
<path d="M153.956 377.093C148.382 381.273 145.09 382.097 138.188 375.449C126.94 361.392 129.94 357.546 129.199 348.054C129.684 341.471 131.411 338.98 138.28 337.17C142.736 333.311 145.91 332.173 152.771 332.655C158.491 346.545 159.248 351.882 160.362 361.199C161.369 369.147 158.839 372.07 153.956 377.093Z" fill="#14000C"/>
<path d="M151.923 372.773C147.195 376.318 144.403 377.017 138.55 371.379C129.01 359.456 131.554 356.194 130.926 348.144C131.337 342.561 132.802 340.448 138.627 338.913C142.407 335.64 145.098 334.675 150.918 335.083C155.769 346.864 156.411 351.39 157.356 359.293C158.21 366.033 156.064 368.512 151.923 372.773Z" fill="#FF5DD6"/>
<path d="M136.881 362.302C139.49 369.006 142.07 368.469 146.836 366.886C149.87 365.681 150.963 363.8 152.569 359.73C155.163 348.836 152.927 342.224 146.187 342.658C142.738 343.8 140.781 344.693 137.155 347.479C131.949 353.824 133.69 356.875 136.881 362.302Z" fill="black" stroke="black" stroke-width="0.602203"/>
<path d="M138.575 360.45C140.54 365.497 142.482 365.093 146.072 363.901C148.355 362.993 149.179 361.577 150.388 358.513C152.341 350.311 150.657 345.332 145.582 345.659C142.985 346.519 141.512 347.191 138.782 349.289C134.862 354.066 136.173 356.363 138.575 360.45Z" fill="#040146" stroke="black" stroke-width="0.602203"/>
<path d="M139.219 356.691C140.461 359.597 141.77 360.58 144.216 362.215C144.884 358.56 144.649 357.299 143.771 355.627L141.786 351.908C139.965 353.275 139.358 354.252 139.219 356.691Z" fill="#ECE0FF"/>
<path d="M144.695 351.727L147.531 357.039L148.043 350.964L146.767 348.573L146.271 350.203L144.695 351.727Z" fill="#FEDEFF"/>
<path d="M139.637 113.855C137.959 102.408 135.043 97.5849 119.132 97.3448C89.4308 100.751 88.4666 108.792 76.4879 119.111C69.3577 127.435 68.4786 132.392 74.4553 142.56C75.1923 152.322 77.6005 157.376 86.2489 164.836C109.241 155.159 116.377 149.756 128.59 140.079C139.075 131.892 139.514 125.487 139.637 113.855Z" fill="#14000C"/>
<path d="M132.195 116.563C130.771 106.855 128.298 102.765 114.804 102.561C89.6131 105.45 88.7953 112.27 78.6358 121.022C72.5884 128.082 71.8428 132.286 76.9119 140.91C77.5369 149.189 79.5794 153.475 86.9145 159.803C106.415 151.595 112.467 147.013 122.826 138.805C131.718 131.862 132.09 126.429 132.195 116.563Z" fill="#FF5DD6"/>
<path d="M102.219 111.294C113.137 106.447 115.549 110.097 119.314 117.54C121.478 122.509 120.566 126.005 117.698 132.679C108.01 148.552 97.6381 153.727 90.203 145.33C87.4749 139.949 86.2133 136.609 85.2003 129.083C86.4885 115.515 92.1101 113.956 102.219 111.294Z" fill="black" stroke="black"/>
<path d="M102.047 115.464C110.268 111.815 112.084 114.563 114.919 120.167C116.548 123.908 115.861 126.541 113.702 131.566C106.407 143.518 98.5981 147.414 92.9999 141.092C90.9458 137.04 89.9959 134.525 89.2332 128.858C90.2031 118.642 94.4358 117.469 102.047 115.464Z" fill="#040146" stroke="black"/>
<path d="M98.4115 120.655C103.276 118.684 105.968 119.057 110.763 119.991C107.273 125.081 105.521 126.292 102.53 127.235L95.84 129.295C95.294 125.555 95.7217 123.692 98.4115 120.655Z" fill="#ECE0FF"/>
<path d="M99.0483 132.911L108.605 129.969L102.1 137.727L97.7996 139.051L99.1225 136.551L99.0483 132.911Z" fill="#FEDEFF"/>
<path d="M246.054 241.591C238.125 238.941 234.065 239.249 228.723 249.43C221.236 269.693 226.107 272.937 228.855 284.025C231.898 291.337 234.808 293.52 243.313 292.981C249.848 295.688 253.892 295.783 261.522 292.638C262.778 274.657 261.621 268.294 259.362 257.264C257.501 247.834 253.515 245.463 246.054 241.591Z" fill="#14000C"/>
<path d="M245.369 247.267C238.645 245.019 235.201 245.281 230.67 253.916C224.32 271.101 228.451 273.852 230.782 283.257C233.363 289.458 235.831 291.309 243.045 290.852C248.587 293.149 252.017 293.229 258.489 290.562C259.554 275.312 258.572 269.915 256.657 260.56C255.079 252.562 251.697 250.551 245.369 247.267Z" fill="#FF5DD6"/>
<path d="M232.203 264.884C232.637 256.263 235.777 255.898 241.804 255.897C245.714 256.121 247.671 257.849 251.039 261.875C258.116 273.297 258.072 281.672 250.233 283.729C245.874 283.733 243.309 283.458 238.125 281.657C229.796 276.403 230.624 272.27 232.203 264.884Z" fill="black" stroke="black" stroke-width="0.722562"/>
<path d="M234.833 266.352C235.16 259.861 237.524 259.586 242.062 259.585C245.006 259.754 246.479 261.055 249.016 264.086C254.344 272.686 254.311 278.992 248.409 280.541C245.126 280.544 243.195 280.337 239.292 278.981C233.021 275.025 233.644 271.913 234.833 266.352Z" fill="#040146" stroke="black" stroke-width="0.722562"/>
<path d="M236.998 270.387C237.313 266.607 238.43 264.993 240.597 262.205C242.741 266.115 242.95 267.64 242.583 269.876L241.73 274.861C239.141 273.994 238.079 273.111 236.998 270.387Z" fill="#ECE0FF"/>
<path d="M245.11 273.974L246.328 266.852L249.21 273.576L248.661 276.78L247.481 275.112L245.11 273.974Z" fill="#FEDEFF"/>
<path d="M221.395 236.216C214.976 231.522 211.208 230.627 203.423 238.308C190.778 254.505 194.254 258.853 193.538 269.696C194.181 277.202 196.187 280.022 204.05 281.993C209.189 286.336 212.826 287.592 220.65 286.948C226.988 271.017 227.779 264.916 228.923 254.268C229.963 245.184 227.036 241.883 221.395 236.216Z" fill="#14000C"/>
<path d="M219.139 241.169C213.695 237.188 210.499 236.429 203.896 242.944C193.172 256.681 196.12 260.368 195.513 269.565C196.058 275.931 197.759 278.322 204.428 279.994C208.787 283.677 211.872 284.742 218.507 284.197C223.883 270.685 224.554 265.511 225.524 256.479C226.406 248.775 223.923 245.975 219.139 241.169Z" fill="#FF5DD6"/>
<path d="M202.111 253.321C204.997 245.634 207.948 246.211 213.41 247.953C216.888 249.287 218.161 251.419 220.05 256.041C223.16 268.438 220.698 276.015 213 275.612C209.048 274.356 206.803 273.364 202.627 270.234C196.598 263.064 198.544 259.558 202.111 253.321Z" fill="black" stroke="black" stroke-width="0.687315"/>
<path d="M204.067 255.41C206.24 249.622 208.462 250.057 212.575 251.368C215.193 252.373 216.152 253.978 217.574 257.458C219.916 266.792 218.062 272.497 212.266 272.194C209.29 271.248 207.6 270.501 204.455 268.144C199.916 262.746 201.381 260.106 204.067 255.41Z" fill="#040146" stroke="black" stroke-width="0.687315"/>
<path d="M208.208 262.204C209.586 258.871 211.066 257.731 213.835 255.831C214.648 259.994 214.397 261.437 213.417 263.357L211.203 267.628C209.107 266.093 208.4 264.986 208.208 262.204Z" fill="#ECE0FF"/>
<path d="M195.844 226.169C190.309 221.381 186.92 220.277 179.202 226.739C166.387 240.646 169.249 244.895 167.778 254.787C167.804 261.72 169.432 264.457 176.497 266.855C180.884 271.225 184.126 272.65 191.351 272.647C198.361 258.511 199.545 252.974 201.393 243.292C203.03 235.039 200.593 231.79 195.844 226.169Z" fill="#14000C"/>
<path d="M193.396 230.535C188.702 226.474 185.827 225.538 179.281 231.017C168.413 242.813 170.84 246.416 169.593 254.806C169.615 260.686 170.996 263.008 176.987 265.042C180.709 268.748 183.458 269.956 189.586 269.954C195.531 257.964 196.535 253.269 198.103 245.057C199.491 238.057 197.424 235.302 193.396 230.535Z" fill="#FF5DD6"/>
<path d="M176.87 240.413C180.095 233.58 182.758 234.33 187.637 236.338C190.727 237.823 191.735 239.874 193.12 244.256C195.042 255.861 192.215 262.625 185.184 261.678C181.653 260.229 179.669 259.151 176.073 255.966C171.082 248.936 173.13 245.866 176.87 240.413Z" fill="black" stroke="black" stroke-width="0.63255"/>
<path d="M178.507 242.48C180.936 237.334 182.941 237.9 186.615 239.412C188.941 240.53 189.7 242.074 190.743 245.373C192.19 254.111 190.061 259.204 184.767 258.491C182.109 257.4 180.615 256.588 177.908 254.19C174.15 248.897 175.691 246.586 178.507 242.48Z" fill="#040146" stroke="black" stroke-width="0.63255"/>
<path d="M178.911 246.464C180.425 243.51 181.868 242.575 184.551 241.041C184.983 244.92 184.645 246.224 183.602 247.912L181.25 251.664C179.443 250.098 178.878 249.03 178.911 246.464Z" fill="#ECE0FF"/>
<path d="M184.288 252.07L187.648 246.711L187.74 253.114L186.228 255.526L185.828 253.782L184.288 252.07Z" fill="#FEDEFF"/>
<path d="M175.362 207.98C170.158 200.867 166.477 198.656 155.675 204.157C136.881 217.023 139.094 222.782 134.698 233.996C132.858 242.141 134.03 245.793 141.674 250.514C145.645 256.827 149.066 259.374 157.547 261.321C169.589 246.62 172.473 240.441 177.255 229.576C181.403 220.329 179.419 215.859 175.362 207.98Z" fill="#14000C"/>
<path d="M171.311 212.449C166.897 206.417 163.775 204.542 154.614 209.207C138.674 220.119 140.55 225.004 136.822 234.515C135.261 241.422 136.256 244.52 142.739 248.524C146.107 253.879 149.008 256.039 156.201 257.69C166.415 245.221 168.861 239.98 172.916 230.766C176.435 222.924 174.752 219.132 171.311 212.449Z" fill="#FF5DD6"/>
<path d="M149.248 219.575C154.878 212.424 157.801 214.024 162.986 217.697C166.213 220.274 166.842 222.954 167.286 228.47C166.41 242.61 161.265 249.787 153.269 246.777C149.516 244.124 147.477 242.323 144.116 237.614C140.155 228.016 143.387 224.966 149.248 219.575Z" fill="black" stroke="black" stroke-width="0.761823"/>
<path d="M150.615 222.447C154.853 217.063 157.055 218.267 160.958 221.033C163.388 222.973 163.862 224.991 164.196 229.145C163.536 239.791 159.663 245.195 153.642 242.929C150.816 240.931 149.281 239.575 146.751 236.029C143.768 228.803 146.201 226.506 150.615 222.447Z" fill="#040146" stroke="black" stroke-width="0.761823"/>
<path d="M151.012 229.915C154.265 226.051 156.723 225.157 161.224 223.796C160.543 229.696 159.596 231.514 157.475 233.662L152.709 238.422C150.563 235.485 150.089 233.708 151.012 229.915Z" fill="#ECE0FF"/>
<path d="M158.987 184.926C156.084 175.331 153.248 171.534 141.596 173.096C120.409 179.305 120.883 186.283 113.65 196.43C109.663 204.335 109.748 208.668 115.602 216.692C117.571 224.952 120.07 229.003 127.478 234.417C142.847 223.595 147.266 218.185 154.765 208.56C161.22 200.401 160.602 194.879 158.987 184.926Z" fill="#14000C"/>
<path d="M153.951 188.068C151.489 179.931 149.084 176.71 139.201 178.035C121.232 183.301 121.634 189.219 115.499 197.826C112.118 204.53 112.19 208.205 117.155 215.011C118.825 222.016 120.944 225.451 127.227 230.043C140.262 220.865 144.01 216.277 150.37 208.114C155.845 201.193 155.321 196.51 153.951 188.068Z" fill="#FF5DD6"/>
<path d="M131.29 186.891C138.551 181.537 140.847 184.387 144.687 190.329C146.995 194.335 146.842 197.423 145.725 203.445C140.978 218.084 134.164 223.657 127.505 217.308C124.724 213.013 123.313 210.299 121.471 203.981C120.423 192.244 124.299 190.288 131.29 186.891Z" fill="black" stroke="black" stroke-width="0.881173"/>
<path d="M131.773 190.477C137.241 186.446 138.97 188.592 141.861 193.066C143.599 196.082 143.483 198.407 142.643 202.941C139.068 213.963 133.938 218.16 128.923 213.379C126.83 210.146 125.768 208.102 124.38 203.345C123.591 194.508 126.51 193.035 131.773 190.477Z" fill="#040146" stroke="black" stroke-width="0.881173"/>
<path d="M129.881 195.313C133.144 193.088 135.164 193.107 138.802 193.373C137 198.11 135.898 199.339 133.853 200.477L129.27 202.98C128.323 199.845 128.362 198.206 129.881 195.313Z" fill="#ECE0FF"/>
<path d="M132.141 205.716L138.688 202.141L135.075 209.492L132.129 211.101L132.728 208.818L132.141 205.716Z" fill="#FEDEFF"/>
<path d="M151.353 150.429C148.887 139.907 145.793 135.649 130.966 136.682C103.591 142.198 103.329 149.758 92.9951 160.307C87.0165 168.618 86.5897 173.301 92.9551 182.292C94.4118 191.319 97.0522 195.833 105.69 202.093C126.325 191.271 132.54 185.679 143.142 175.708C152.254 167.26 152.157 161.265 151.353 150.429Z" fill="#14000C"/>
<path d="M144.638 153.533C142.546 144.61 139.922 140.998 127.346 141.874C104.129 146.552 103.907 152.964 95.1424 161.912C90.0716 168.96 89.7097 172.932 95.1084 180.557C96.3439 188.214 98.5833 192.042 105.91 197.351C123.411 188.173 128.682 183.43 137.674 174.973C145.402 167.809 145.319 162.724 144.638 153.533Z" fill="#FF5DD6"/>
<path d="M116.326 151.004C126.105 145.631 128.638 148.837 132.73 155.467C135.137 159.921 134.563 163.246 132.421 169.685C124.658 185.223 115.414 190.858 107.831 183.63C104.867 178.837 103.429 175.828 101.892 168.904C102.019 156.174 107.128 154.28 116.326 151.004Z" fill="black" stroke="black" stroke-width="0.934043"/>
<path d="M116.496 154.895C123.859 150.85 125.766 153.264 128.847 158.256C130.659 161.609 130.227 164.113 128.614 168.961C122.769 180.66 115.809 184.903 110.099 179.461C107.867 175.853 106.785 173.587 105.627 168.373C105.723 158.788 109.57 157.362 116.496 154.895Z" fill="#040146" stroke="black" stroke-width="0.934043"/>
<path d="M113.522 160.011C117.893 157.792 120.428 157.926 124.965 158.417C122.119 163.43 120.584 164.695 117.874 165.809L111.811 168.255C111.007 164.817 111.258 163.049 113.522 160.011Z" fill="#ECE0FF"/>
<path d="M115.084 171.368L123.746 167.875L118.304 175.609L114.406 177.181L115.44 174.75L115.084 171.368Z" fill="#FEDEFF"/>
<path d="M68.4144 85.7921C65.5298 95.175 66.0072 99.933 78.1118 105.914C102.113 114.125 105.781 108.314 118.72 104.771C127.216 100.99 129.696 97.5116 128.82 87.5428C131.812 79.7939 131.808 75.0437 127.899 66.1762C106.754 65.2148 99.3178 66.7553 86.4336 69.7212C75.4167 72.175 72.747 76.923 68.4144 85.7921Z" fill="#14000C"/>
<path d="M75.1029 86.4314C72.6564 94.3893 73.0613 98.4248 83.3276 103.497C103.684 110.461 106.795 105.533 117.769 102.528C124.975 99.3212 127.078 96.3711 126.335 87.9162C128.873 81.3441 128.869 77.3153 125.554 69.7945C107.62 68.9791 101.313 70.2856 90.3856 72.8011C81.0418 74.8823 78.7775 78.9092 75.1029 86.4314Z" fill="#FF5DD6"/>
<path d="M96.1584 101.384C86.0261 101.121 85.5075 97.4449 85.3344 90.3699C85.4862 85.7737 87.4591 83.4273 92.0888 79.3577C105.295 70.7239 115.128 70.5372 117.767 79.6804C117.897 84.7978 117.646 87.8169 115.681 93.9532C109.75 103.881 104.875 103.027 96.1584 101.384Z" fill="black" stroke="black" stroke-width="0.848487"/>
<path d="M97.8074 98.2557C90.1783 98.0572 89.7878 95.2896 89.6575 89.9625C89.7718 86.5018 91.2573 84.7351 94.7431 81.671C104.687 75.1702 112.091 75.0296 114.077 81.9139C114.175 85.767 113.987 88.0403 112.507 92.6605C108.041 100.136 104.37 99.4927 97.8074 98.2557Z" fill="#040146" stroke="black" stroke-width="0.848487"/>
<path d="M102.481 95.6017C98.0359 95.34 96.1086 94.0739 92.7746 91.6106C97.3029 88.982 99.0868 88.6923 101.722 89.0593L107.599 89.9182C106.655 92.9832 105.649 94.2548 102.481 95.6017Z" fill="#ECE0FF"/>
<path d="M60.4383 56.6696C57.3353 63.8387 57.2963 67.6439 66.3471 73.4341C84.6123 82.0299 88.0227 77.7549 98.5668 76.0853C105.618 73.8384 107.884 71.3043 108.064 63.3426C111.109 57.4754 111.522 53.7178 109.206 46.3616C92.5656 43.7501 86.5486 44.3175 76.0979 45.5355C67.169 46.512 64.6417 50.0338 60.4383 56.6696Z" fill="#14000C"/>
<path d="M65.6744 57.7663C63.0426 63.8466 63.0096 67.0739 70.6859 71.9848C86.1772 79.2752 89.0697 75.6495 98.0126 74.2334C103.993 72.3277 105.915 70.1784 106.068 63.4259C108.65 58.4497 109 55.2627 107.036 49.0237C92.9227 46.8088 87.8195 47.29 78.9559 48.323C71.383 49.1512 69.2395 52.1382 65.6744 57.7663Z" fill="#FF5DD6"/>
<path d="M81.0171 71.4388C73.0258 70.3432 72.9373 67.3904 73.4198 61.7791C73.9423 58.157 75.7082 56.4737 79.7264 53.6601C90.9282 47.9872 98.7222 48.7004 100.009 56.1633C99.6634 60.2224 99.2012 62.5886 97.1091 67.2701C91.5492 74.6035 87.7676 73.5014 81.0171 71.4388Z" fill="black" stroke="black" stroke-width="0.675226"/>
<path d="M82.5967 69.1015C76.5797 68.2766 76.5131 66.0533 76.8764 61.8284C77.2698 59.1011 78.5994 57.8337 81.6249 55.7152C90.0592 51.4439 95.9276 51.9808 96.8962 57.6C96.6363 60.6562 96.2883 62.4378 94.7131 65.9627C90.5268 71.4844 87.6794 70.6545 82.5967 69.1015Z" fill="#040146" stroke="black" stroke-width="0.675226"/>
<path d="M86.5245 67.4128C83.0313 66.8166 81.6177 65.6465 79.1962 63.4062C83.0081 61.7234 84.4445 61.6505 86.497 62.1715L91.0704 63.3653C90.0552 65.707 89.1478 66.6248 86.5245 67.4128Z" fill="#ECE0FF"/>
<path d="M51.4936 39.2655C49.6567 44.0203 49.7302 46.5022 55.7816 50.0422C67.9135 55.172 70.026 52.2962 76.8573 50.9337C81.3963 49.2856 82.8078 47.5745 82.7184 42.3789C84.5512 38.4745 84.7226 36.0138 83.0216 31.2779C72.1045 30.0076 68.1962 30.5338 61.4142 31.5994C55.618 32.468 54.0617 34.8299 51.4936 39.2655Z" fill="#14000C"/>
<path d="M54.9352 39.8392C53.3773 43.8718 53.4396 45.9769 58.572 48.9792C68.8615 53.33 70.6532 50.891 76.447 49.7353C80.2967 48.3375 81.4939 46.8863 81.4181 42.4797C82.9725 39.1683 83.1179 37.0813 81.6752 33.0646C72.416 31.9872 69.1013 32.4335 63.3492 33.3373C58.4333 34.074 57.1134 36.0771 54.9352 39.8392Z" fill="#FF5DD6"/>
<path d="M65.2939 48.3531C60.0553 47.8464 59.9209 45.9235 60.0897 42.2526C60.3362 39.8774 61.4439 38.7341 63.9906 36.7952C71.1466 32.8056 76.2467 33.068 77.2792 37.9004C77.1597 40.5558 76.9198 42.1105 75.6774 45.2171C72.243 50.1428 69.7488 49.5225 65.2939 48.3531Z" fill="black" stroke="black" stroke-width="0.440586"/>
<path d="M66.2654 46.792C62.321 46.4105 62.2198 44.9626 62.3469 42.1986C62.5325 40.4102 63.3665 39.5494 65.284 38.0896C70.6721 35.0856 74.5122 35.2832 75.2896 38.9217C75.1996 40.921 75.019 42.0916 74.0836 44.4307C71.4976 48.1395 69.6196 47.6725 66.2654 46.792Z" fill="#040146" stroke="black" stroke-width="0.440586"/>
<path d="M68.7833 45.5888C66.4902 45.2909 65.5382 44.5647 63.9012 43.167C66.3428 41.9708 67.2774 41.886 68.6292 42.1723L71.6419 42.8319C71.0409 44.385 70.4731 45.0069 68.7833 45.5888Z" fill="#ECE0FF"/>
<path d="M45.8548 28.6504C44.5313 31.8538 44.5423 33.5423 48.6005 36.0439C56.7674 39.722 58.2487 37.8001 62.9141 36.9812C66.0257 35.9322 67.0122 34.7911 67.0331 31.2577C68.3404 28.6322 68.4956 26.9621 67.4137 23.7157C60.012 22.6806 57.3468 22.9769 52.7195 23.5947C48.7655 24.0941 47.6704 25.6753 45.8548 28.6504Z" fill="#14000C"/>
<path d="M48.1825 29.0992C47.06 31.8162 47.0693 33.2482 50.5112 35.3699C57.4378 38.4894 58.6942 36.8594 62.6511 36.1649C65.2902 35.2752 66.1268 34.3074 66.1446 31.3105C67.2533 29.0838 67.385 27.6673 66.4673 24.914C60.1897 24.036 57.9293 24.2874 54.0047 24.8113C50.6512 25.2349 49.7224 26.5759 48.1825 29.0992Z" fill="#FF5DD6"/>
<path d="M55.0925 35.0491C51.5392 34.6223 51.478 33.313 51.6505 30.8201C51.8554 29.2092 52.6264 28.4494 54.3881 27.1714C59.3156 24.5716 62.7787 24.8302 63.4047 28.1315C63.2816 29.9348 63.0941 30.988 62.2007 33.0804C59.7885 36.375 58.1026 35.9141 55.0925 35.0491Z" fill="black" stroke="black" stroke-width="0.299599"/>
<path d="M55.7753 34.0006C53.0999 33.6792 53.0538 32.6934 53.1837 30.8163C53.338 29.6035 53.9184 29.0314 55.2449 28.0691C58.9551 26.1116 61.5625 26.3063 62.0339 28.792C61.9412 30.1498 61.8001 30.9428 61.1274 32.5183C59.3111 34.9989 58.0418 34.6519 55.7753 34.0006Z" fill="#040146" stroke="black" stroke-width="0.299599"/>
<path d="M57.508 33.22C55.9538 32.9814 55.318 32.4727 54.2272 31.4968C55.9058 30.722 56.5425 30.679 57.4569 30.8949L59.4947 31.3907C59.0617 32.437 58.6659 32.8509 57.508 33.22Z" fill="#ECE0FF"/>
<path d="M228.643 219.867C247.256 221.881 255.994 219.269 262.823 194.44C269.533 146.528 257.326 141.756 246.019 118.805C235.87 104.259 228.461 100.871 210.108 106.111C194.516 103.306 185.622 105.029 170.427 115.553C176.262 155.497 181.833 168.868 192.04 191.925C200.613 211.671 210.469 214.956 228.643 219.867Z" fill="#14000C"/>
<path d="M227.42 207.109C243.207 208.817 250.618 206.602 256.41 185.544C262.101 144.908 251.748 140.861 242.158 121.395C233.55 109.058 227.266 106.185 211.7 110.629C198.476 108.25 190.933 109.711 178.046 118.636C182.995 152.515 187.719 163.855 196.376 183.411C203.648 200.158 212.007 202.944 227.42 207.109Z" fill="#FF5DD6"/>
<path d="M247.82 162.277C250.985 181.348 244.288 183.646 231.101 186.525C222.439 187.901 217.332 185.053 208.039 177.853C187.102 156.238 183.201 137.891 199.371 129.649C208.908 127.557 214.652 126.936 226.853 128.401C247.587 135.922 247.749 145.361 247.82 162.277Z" fill="black" stroke="black" stroke-width="1.61826"/>
<path d="M241.369 160.326C243.752 174.685 238.71 176.416 228.781 178.583C222.259 179.619 218.414 177.475 211.417 172.054C195.652 155.779 192.715 141.965 204.89 135.759C212.071 134.184 216.396 133.716 225.583 134.819C241.194 140.482 241.316 147.589 241.369 160.326Z" fill="#040146" stroke="black" stroke-width="1.61826"/>
<path d="M227.064 152.366C228.179 160.785 226.504 164.852 223.095 171.985C216.537 164.454 215.35 161.218 215.085 156.15L214.572 144.833C220.653 145.495 223.397 146.92 227.064 152.366Z" fill="#ECE0FF"/>
<path d="M376.674 337.729C388.949 339.057 394.711 337.334 399.215 320.961C403.64 289.364 395.59 286.217 388.133 271.081C381.44 261.489 376.553 259.254 364.45 262.71C354.168 260.86 348.302 261.996 338.282 268.936C342.13 295.279 345.804 304.096 352.535 319.302C358.189 332.324 364.689 334.49 376.674 337.729Z" fill="#14000C"/>
<path d="M375.868 329.315C386.278 330.442 391.166 328.981 394.985 315.094C398.738 288.295 391.911 285.626 385.586 272.789C379.91 264.653 375.766 262.759 365.501 265.689C356.78 264.121 351.805 265.084 343.306 270.97C346.57 293.312 349.685 300.79 355.394 313.687C360.19 324.731 365.703 326.569 375.868 329.315Z" fill="#FF5DD6"/>
<path d="M389.319 299.751C391.406 312.327 386.99 313.843 378.294 315.741C372.581 316.648 369.214 314.771 363.085 310.022C349.277 295.768 346.705 283.669 357.369 278.233C363.658 276.854 367.446 276.444 375.492 277.41C389.166 282.37 389.272 288.595 389.319 299.751Z" fill="black" stroke="black" stroke-width="1.0672"/>
<path d="M385.065 298.462C386.637 307.932 383.312 309.073 376.764 310.503C372.463 311.186 369.927 309.772 365.313 306.196C354.916 295.464 352.979 286.354 361.009 282.261C365.744 281.222 368.596 280.914 374.655 281.641C384.95 285.376 385.03 290.063 385.065 298.462Z" fill="#040146" stroke="black" stroke-width="1.0672"/>
<path d="M375.632 293.212C376.367 298.764 375.263 301.446 373.014 306.15C368.69 301.183 367.907 299.049 367.733 295.707L367.394 288.244C371.404 288.68 373.214 289.62 375.632 293.212Z" fill="#ECE0FF"/>
<path d="M312.043 272.513C325.705 273.991 332.118 272.074 337.13 253.851C342.055 218.684 333.096 215.182 324.797 198.337C317.348 187.66 311.909 185.174 298.439 189.02C286.995 186.961 280.467 188.226 269.315 195.949C273.597 225.268 277.686 235.081 285.177 252.005C291.47 266.497 298.704 268.908 312.043 272.513Z" fill="#14000C"/>
<path d="M311.144 263.146C322.731 264.399 328.17 262.773 332.421 247.317C336.598 217.492 329 214.521 321.961 200.234C315.643 191.179 311.031 189.07 299.606 192.332C289.9 190.586 284.363 191.659 274.905 198.209C278.537 223.075 282.005 231.398 288.358 245.752C293.696 258.043 299.831 260.088 311.144 263.146Z" fill="#FF5DD6"/>
<path d="M222.993 369.345C233.771 373.272 237.869 377.071 234.909 392.568C225.64 420.725 217.638 420.048 205.215 429.608C195.701 434.861 190.711 434.719 182.038 426.875C172.707 424.201 168.283 420.848 162.774 410.953C176.786 390.569 183.464 384.725 195.312 374.808C205.366 366.271 211.673 367.13 222.993 369.345Z" fill="#14000C"/>
<path d="M218.871 376.026C228.012 379.356 231.488 382.579 228.977 395.722C221.116 419.603 214.33 419.029 203.793 427.137C195.724 431.592 191.491 431.472 184.135 424.819C176.221 422.551 172.469 419.707 167.798 411.315C179.681 394.027 185.345 389.07 195.394 380.659C203.921 373.418 209.27 374.147 218.871 376.026Z" fill="#FF5DD6"/>
<path d="M217.966 406.19C224.864 396.561 221.804 393.486 215.332 388.337C210.942 385.238 207.364 385.423 200.307 386.868C182.95 393.089 175.844 402.122 182.505 411.026C187.182 414.755 190.173 416.651 197.277 419.145C210.711 420.617 213.352 415.472 217.966 406.19Z" fill="black" stroke="black" stroke-width="0.991533"/>
<path d="M213.885 405.523C219.079 398.273 216.775 395.958 211.902 392.081C208.596 389.748 205.902 389.887 200.589 390.975C187.52 395.659 182.169 402.46 187.185 409.165C190.707 411.972 192.958 413.4 198.307 415.278C208.422 416.386 210.411 412.512 213.885 405.523Z" fill="#040146" stroke="black" stroke-width="0.991533"/>
<path d="M203.872 406.029C206.763 401.702 206.941 399.013 206.996 394.169C201.354 396.536 199.826 397.995 198.31 400.71L194.967 406.792C198.489 408.073 200.384 408.032 203.872 406.029Z" fill="#ECE0FF"/>
<path d="M283.086 362.955C290.997 365.837 294.004 368.626 291.832 380.001C285.029 400.667 279.156 400.17 270.037 407.187C263.054 411.042 259.392 410.938 253.026 405.181C246.177 403.218 242.93 400.757 238.887 393.494C249.171 378.533 254.073 374.244 262.769 366.965C270.148 360.699 274.777 361.33 283.086 362.955Z" fill="#14000C"/>
<path d="M280.057 367.856C286.766 370.3 289.317 372.665 287.474 382.313C281.705 399.84 276.723 399.418 268.99 405.37C263.067 408.64 259.961 408.552 254.562 403.669C248.753 402.004 245.999 399.917 242.57 393.757C251.292 381.068 255.45 377.43 262.825 371.257C269.084 365.942 273.01 366.477 280.057 367.856Z" fill="#FF5DD6"/>
<path d="M326.116 230.243C328.44 244.24 323.525 245.927 313.846 248.04C307.488 249.049 303.74 246.959 296.919 241.675C281.551 225.81 278.688 212.344 290.557 206.294C297.556 204.759 301.772 204.303 310.728 205.378C325.946 210.899 326.064 217.826 326.116 230.243Z" fill="black" stroke="black" stroke-width="1.18775"/>
<path d="M321.383 228.803C323.132 239.342 319.431 240.612 312.144 242.203C307.357 242.963 304.535 241.39 299.399 237.41C287.828 225.466 285.672 215.326 294.609 210.771C299.879 209.615 303.053 209.272 309.796 210.082C321.254 214.238 321.344 219.454 321.383 228.803Z" fill="#040146" stroke="black" stroke-width="1.18775"/>
<path d="M264.664 401.925C254.275 404.414 252.747 400.812 250.645 393.655C249.548 388.934 250.919 386.008 254.525 380.604C265.623 368.218 275.585 365.352 280.76 373.944C282.285 379.119 282.852 382.262 282.52 389.045C279.184 400.768 273.987 401.226 264.664 401.925Z" fill="#040146" stroke="black" stroke-width="1.18775"/>
<path d="M310.883 222.962C311.701 229.142 310.472 232.127 307.97 237.362C303.156 231.835 302.285 229.459 302.091 225.739L301.714 217.434C306.177 217.919 308.192 218.965 310.883 222.962Z" fill="#ECE0FF"/>
<path d="M272.55 388.594C268.302 393.156 265.216 394.106 259.585 395.505C260.789 388.275 262.068 386.092 264.815 383.576L270.985 378.003C273.449 381.756 273.923 383.976 272.55 388.594Z" fill="#ECE0FF"/>
<path d="M628.054 118.749C632.258 115.378 633.509 113.07 629.857 106.621C621.491 95.4897 618.033 96.9966 611.066 94.6146C606.041 93.7108 603.842 94.5254 601.165 99.322C597.417 101.918 595.953 104.076 594.993 109.308C604.298 116.267 608.15 117.861 614.915 120.488C620.674 122.772 623.351 121.44 628.054 118.749Z" fill="#14000C"/>
<path d="M625.45 116.938C629.015 114.079 630.076 112.122 626.979 106.652C619.884 97.2115 616.951 98.4897 611.041 96.4694C606.78 95.7029 604.915 96.3937 602.644 100.462C599.465 102.663 598.224 104.494 597.41 108.932C605.301 114.833 608.568 116.185 614.306 118.414C619.191 120.351 621.461 119.221 625.45 116.938Z" fill="#FF5DD6"/>
<path d="M620.499 103.66C625.019 106.905 624.121 108.734 622.017 112C620.53 114.04 618.911 114.497 615.553 114.917C606.894 114.764 602.371 111.816 603.993 106.851C605.513 104.487 606.557 103.193 609.343 101.013C615.098 98.3344 617.048 100.226 620.499 103.66Z" fill="black" stroke="black" stroke-width="0.465756"/>
<path d="M618.787 104.57C622.19 107.013 621.514 108.39 619.93 110.849C618.811 112.386 617.591 112.73 615.063 113.046C608.543 112.931 605.138 110.711 606.359 106.972C607.503 105.192 608.29 104.218 610.387 102.577C614.72 100.56 616.189 101.984 618.787 104.57Z" fill="#040146" stroke="black" stroke-width="0.465756"/>
<path d="M615.841 104.335C617.779 105.825 618.263 106.995 619.018 109.142C616.151 108.939 615.251 108.52 614.168 107.54L611.764 105.338C613.138 104.237 613.987 103.97 615.841 104.335Z" fill="#ECE0FF"/>
<path d="M611.07 107.478L614.504 110.625L609.854 109.839L608.309 108.423L609.625 108.365L611.07 107.478Z" fill="#FEDEFF"/>
<path d="M586.211 173.412C590.078 168.036 590.798 164.892 584.35 158.46C570.779 148.039 567.182 150.963 558.148 150.438C551.903 151.024 549.568 152.713 547.979 159.273C544.397 163.581 543.376 166.618 543.963 173.129C557.271 178.3 562.356 178.919 571.23 179.8C578.801 180.606 581.531 178.147 586.211 173.412Z" fill="#14000C"/>
<path d="M582.075 171.558C585.354 166.998 585.965 164.332 580.497 158.877C568.987 150.038 565.936 152.518 558.274 152.073C552.977 152.57 550.997 154.002 549.649 159.566C546.611 163.22 545.745 165.796 546.243 171.318C557.53 175.704 561.843 176.228 569.369 176.976C575.79 177.659 578.105 175.574 582.075 171.558Z" fill="#FF5DD6"/>
<path d="M571.843 157.467C578.263 159.819 577.802 162.28 576.388 166.84C575.3 169.745 573.533 170.819 569.697 172.423C559.395 175.094 553.07 173.095 553.354 166.682C554.374 163.383 555.184 161.507 557.763 158.009C563.694 152.941 566.626 154.538 571.843 157.467Z" fill="black" stroke="black" stroke-width="0.572329"/>
<path d="M570.116 159.111C574.949 160.882 574.603 162.735 573.538 166.168C572.719 168.355 571.389 169.164 568.5 170.372C560.743 172.383 555.981 170.878 556.195 166.049C556.963 163.565 557.573 162.153 559.515 159.519C563.98 155.703 566.188 156.906 570.116 159.111Z" fill="#040146" stroke="black" stroke-width="0.572329"/>
<path d="M566.552 159.796C569.337 160.922 570.296 162.146 571.896 164.44C568.435 165.144 567.232 164.944 565.627 164.142L562.056 162.326C563.32 160.57 564.237 159.975 566.552 159.796Z" fill="#ECE0FF"/>
<path d="M561.937 165.094L567.039 167.688L561.276 168.289L558.98 167.122L560.519 166.62L561.937 165.094Z" fill="#FEDEFF"/>
<path d="M596.069 156.016C601.127 152.263 602.689 149.622 598.705 141.929C589.421 128.561 585.316 130.17 577.281 127.083C571.452 125.807 568.848 126.662 565.511 132.148C561.019 135.016 559.215 137.473 557.865 143.542C568.429 152.077 572.858 154.108 580.645 157.473C587.273 160.393 590.458 158.953 596.069 156.016Z" fill="#14000C"/>
<path d="M592.85 153.147C597.14 149.964 598.464 147.724 595.086 141.2C587.212 129.862 583.73 131.226 576.916 128.608C571.972 127.526 569.763 128.251 566.933 132.904C563.123 135.336 561.593 137.42 560.448 142.568C569.407 149.807 573.164 151.529 579.769 154.383C585.39 156.859 588.091 155.639 592.85 153.147Z" fill="#FF5DD6"/>
<path d="M587.655 137.415C592.792 141.403 591.663 143.5 589.063 147.222C587.237 149.54 585.325 150.003 581.385 150.347C571.277 149.789 566.124 146.148 568.236 140.419C570.114 137.724 571.391 136.259 574.74 133.834C581.579 130.957 583.775 133.252 587.655 137.415Z" fill="black" stroke="black" stroke-width="0.544411"/>
<path d="M585.61 138.402C589.478 141.405 588.628 142.984 586.67 145.787C585.295 147.532 583.856 147.881 580.889 148.139C573.278 147.719 569.398 144.978 570.988 140.664C572.403 138.635 573.364 137.532 575.886 135.706C581.035 133.54 582.688 135.268 585.61 138.402Z" fill="#040146" stroke="black" stroke-width="0.544411"/>
<path d="M579.503 139.939C581.701 141.764 582.216 143.151 583.003 145.692C579.663 145.329 578.63 144.801 577.408 143.609L574.696 140.931C576.35 139.706 577.353 139.431 579.503 139.939Z" fill="#ECE0FF"/>
<path d="M609.666 139.044C614.587 135.981 616.218 133.676 613.143 126.321C605.63 113.362 601.744 114.529 594.606 111.094C589.355 109.486 586.903 110.075 583.43 114.856C579.094 117.149 577.255 119.268 575.561 124.733C584.609 133.355 588.52 135.551 595.41 139.222C601.269 142.398 604.299 141.317 609.666 139.044Z" fill="#14000C"/>
<path d="M606.932 136.168C611.106 133.57 612.49 131.615 609.881 125.377C603.51 114.386 600.213 115.376 594.16 112.462C589.706 111.099 587.626 111.598 584.68 115.653C581.003 117.598 579.443 119.394 578.006 124.03C585.681 131.343 588.997 133.205 594.841 136.319C599.811 139.012 602.38 138.095 606.932 136.168Z" fill="#FF5DD6"/>
<path d="M603.349 121.35C607.761 125.394 606.568 127.232 603.903 130.452C602.055 132.441 600.266 132.722 596.626 132.741C587.396 131.47 582.943 127.743 585.31 122.647C587.235 120.316 588.517 119.068 591.771 117.096C598.26 114.97 600.102 117.24 603.349 121.35Z" fill="black" stroke="black" stroke-width="0.501033"/>
<path d="M601.4 122.106C604.723 125.15 603.824 126.535 601.818 128.959C600.426 130.457 599.08 130.668 596.339 130.683C589.389 129.726 586.036 126.919 587.819 123.082C589.268 121.327 590.233 120.388 592.683 118.902C597.569 117.302 598.956 119.011 601.4 122.106Z" fill="#040146" stroke="black" stroke-width="0.501033"/>
<path d="M598.291 121.472C600.17 123.311 600.538 124.622 601.069 127.011C598.033 126.428 597.126 125.866 596.094 124.681L593.808 122.021C595.416 121.021 596.357 120.844 598.291 121.472Z" fill="#ECE0FF"/>
<path d="M592.782 124.223L596.047 128.023L591.181 126.589L589.712 124.879L591.125 124.986L592.782 124.223Z" fill="#FEDEFF"/>
<path d="M539.73 241.213C543.773 234.987 544.412 231.427 536.848 224.568C521.093 213.621 517.22 217.087 507.075 216.982C500.112 217.971 497.587 219.987 496.158 227.419C492.376 232.435 491.394 235.89 492.399 243.15C507.579 248.233 513.307 248.654 523.293 249.167C531.815 249.666 534.741 246.766 539.73 241.213Z" fill="#14000C"/>
<path d="M534.998 239.363C538.427 234.082 538.969 231.063 532.553 225.245C519.191 215.961 515.907 218.9 507.302 218.811C501.396 219.65 499.255 221.36 498.043 227.663C494.835 231.917 494.002 234.848 494.855 241.006C507.729 245.316 512.588 245.673 521.057 246.109C528.284 246.532 530.766 244.072 534.998 239.363Z" fill="#FF5DD6"/>
<path d="M522.781 224.126C530.096 226.418 529.711 229.199 528.371 234.38C527.307 237.692 525.386 238.99 521.175 240.99C509.78 244.532 502.589 242.63 502.566 235.433C503.532 231.684 504.34 229.54 507.041 225.484C513.413 219.492 516.782 221.124 522.781 224.126Z" fill="black" stroke="black" stroke-width="0.641709"/>
<path d="M520.934 226.06C526.442 227.786 526.152 229.88 525.143 233.781C524.343 236.275 522.896 237.252 519.725 238.758C511.145 241.425 505.731 239.992 505.713 234.573C506.441 231.751 507.049 230.136 509.083 227.083C513.881 222.571 516.417 223.8 520.934 226.06Z" fill="#040146" stroke="black" stroke-width="0.641709"/>
<path d="M516.983 227.023C520.162 228.134 521.301 229.455 523.216 231.938C519.377 232.911 518.02 232.752 516.179 231.938L512.082 230.096C513.404 228.062 514.4 227.346 516.983 227.023Z" fill="#ECE0FF"/>
<path d="M512.097 233.195L517.949 235.828L511.527 236.809L508.893 235.624L510.59 234.98L512.097 233.195Z" fill="#FEDEFF"/>
<path d="M549.84 221.213C555.305 216.739 556.913 213.699 552.042 205.295C540.93 190.819 536.419 192.84 527.256 189.811C520.659 188.694 517.789 189.79 514.344 196.112C509.466 199.564 507.577 202.411 506.388 209.281C518.675 218.276 523.744 220.314 532.645 223.667C540.223 226.584 543.713 224.802 549.84 221.213Z" fill="#14000C"/>
<path d="M546.081 218.168C550.716 214.374 552.08 211.795 547.949 204.668C538.525 192.39 534.698 194.104 526.927 191.535C521.332 190.587 518.897 191.517 515.976 196.879C511.839 199.806 510.237 202.222 509.229 208.048C519.649 215.677 523.948 217.406 531.497 220.25C537.925 222.723 540.885 221.212 546.081 218.168Z" fill="#FF5DD6"/>
<path d="M539.425 200.822C545.391 205.014 544.239 207.423 541.525 211.731C539.604 214.425 537.488 215.045 533.093 215.64C521.743 215.555 515.777 211.751 517.837 205.223C519.796 202.105 521.148 200.395 524.769 197.501C532.276 193.914 534.857 196.367 539.425 200.822Z" fill="black" stroke="black" stroke-width="0.610406"/>
<path d="M537.19 202.045C541.682 205.201 540.814 207.015 538.771 210.259C537.324 212.287 535.731 212.754 532.422 213.202C523.876 213.138 519.384 210.274 520.935 205.358C522.41 203.01 523.428 201.723 526.155 199.544C531.806 196.843 533.75 198.69 537.19 202.045Z" fill="#040146" stroke="black" stroke-width="0.610406"/>
<path d="M530.428 204.088C532.987 206.015 533.638 207.541 534.655 210.344C530.895 210.116 529.711 209.579 528.278 208.31L525.098 205.455C526.885 203.995 527.994 203.634 530.428 204.088Z" fill="#ECE0FF"/>
<path d="M564.161 201.477C569.51 197.784 571.213 195.116 567.376 187.042C558.271 172.929 553.981 174.444 545.804 170.978C539.837 169.457 537.122 170.248 533.487 175.787C528.754 178.587 526.807 181.057 525.201 187.269C535.795 196.443 540.292 198.693 548.204 202.437C554.936 205.681 558.272 204.309 564.161 201.477Z" fill="#14000C"/>
<path d="M560.949 198.404C565.485 195.272 566.93 193.009 563.675 186.162C555.953 174.192 552.314 175.477 545.379 172.537C540.319 171.247 538.015 171.918 534.933 176.616C530.918 178.991 529.267 181.086 527.905 186.354C536.89 194.135 540.704 196.043 547.415 199.219C553.125 201.97 555.953 200.806 560.949 198.404Z" fill="#FF5DD6"/>
<path d="M556.141 182.001C561.298 186.295 560.06 188.418 557.247 192.166C555.283 194.492 553.295 194.902 549.22 195.118C538.815 194.187 533.628 190.25 536.008 184.416C538.039 181.704 539.408 180.237 542.947 177.855C550.101 175.128 552.285 177.572 556.141 182.001Z" fill="black" stroke="black" stroke-width="0.56177"/>
<path d="M554.003 182.949C557.886 186.181 556.953 187.78 554.836 190.602C553.357 192.353 551.86 192.662 548.792 192.824C540.957 192.124 537.052 189.16 538.844 184.767C540.373 182.724 541.404 181.62 544.068 179.826C549.455 177.773 551.099 179.613 554.003 182.949Z" fill="#040146" stroke="black" stroke-width="0.56177"/>
<path d="M550.485 182.405C552.688 184.365 553.17 185.813 553.892 188.461C550.46 187.97 549.415 187.388 548.195 186.116L545.493 183.259C547.242 182.054 548.286 181.806 550.485 182.405Z" fill="#ECE0FF"/>
<path d="M544.464 185.778L548.324 189.859L542.798 188.513L541.062 186.676L542.65 186.72L544.464 185.778Z" fill="#FEDEFF"/>
<path d="M499.739 315.017C502.533 308.139 502.489 304.523 493.765 299.216C476.226 291.441 473.077 295.576 463.095 297.39C456.444 299.676 454.345 302.132 454.345 309.701C451.579 315.341 451.267 318.92 453.626 325.859C469.492 327.983 475.197 327.314 485.1 325.932C493.563 324.813 495.888 321.412 499.739 315.017Z" fill="#14000C"/>
<path d="M494.743 314.085C497.113 308.251 497.075 305.184 489.676 300.683C474.801 294.09 472.131 297.597 463.664 299.135C458.023 301.074 456.243 303.157 456.243 309.576C453.897 314.36 453.633 317.395 455.633 323.281C469.09 325.082 473.928 324.515 482.327 323.343C489.505 322.393 491.477 319.509 494.743 314.085Z" fill="#FF5DD6"/>
<path d="M479.869 301.43C487.485 302.299 487.632 305.102 487.295 310.444C486.876 313.897 485.234 315.534 481.477 318.294C470.956 323.925 463.536 323.415 462.153 316.352C462.394 312.488 462.782 310.229 464.669 305.737C469.794 298.649 473.41 299.615 479.869 301.43Z" fill="black" stroke="black" stroke-width="0.641709"/>
<path d="M478.421 303.68C484.156 304.334 484.267 306.445 484.013 310.467C483.698 313.067 482.462 314.3 479.633 316.377C471.711 320.617 466.124 320.233 465.082 314.915C465.264 312.006 465.556 310.305 466.977 306.922C470.836 301.586 473.559 302.313 478.421 303.68Z" fill="#040146" stroke="black" stroke-width="0.641709"/>
<path d="M474.723 305.371C478.055 305.862 479.423 306.943 481.772 309.02C478.186 310.701 476.823 310.801 474.862 310.35L470.491 309.314C471.405 307.067 472.248 306.176 474.723 305.371Z" fill="#ECE0FF"/>
<path d="M471.092 312.356L477.336 313.836L471.214 316.012L468.405 315.346L469.949 314.393L471.092 312.356Z" fill="#FEDEFF"/>
<path d="M505.888 293.465C510.409 288.04 511.414 284.75 505.043 277.418C491.397 265.301 487.349 268.138 477.778 266.894C471.09 267.043 468.478 268.662 466.289 275.52C462.151 279.831 460.834 282.985 460.964 289.955C474.728 296.468 480.091 297.512 489.465 299.123C497.458 300.556 500.548 298.147 505.888 293.465Z" fill="#14000C"/>
<path d="M501.624 291.179C505.458 286.578 506.311 283.788 500.907 277.569C489.334 267.292 485.9 269.698 477.783 268.644C472.111 268.769 469.895 270.143 468.039 275.96C464.529 279.616 463.412 282.29 463.523 288.202C475.197 293.726 479.745 294.611 487.695 295.978C494.474 297.193 497.096 295.15 501.624 291.179Z" fill="#FF5DD6"/>
<path d="M491.812 275.404C498.462 278.395 497.785 280.978 495.935 285.721C494.557 288.729 492.596 289.738 488.393 291.152C477.23 293.212 470.653 290.604 471.443 283.804C472.778 280.372 473.783 278.438 476.793 274.912C483.486 269.971 486.484 271.893 491.812 275.404Z" fill="black" stroke="black" stroke-width="0.610406"/>
<path d="M489.846 277.029C494.853 279.28 494.344 281.225 492.95 284.796C491.913 287.061 490.436 287.82 487.272 288.885C478.867 290.436 473.915 288.473 474.509 283.353C475.515 280.768 476.271 279.312 478.537 276.658C483.577 272.938 485.835 274.384 489.846 277.029Z" fill="#040146" stroke="black" stroke-width="0.610406"/>
<path d="M483.595 280.314C486.472 281.722 487.4 283.098 488.928 285.659C485.192 286.145 483.928 285.842 482.281 284.866L478.62 282.663C480.098 280.892 481.119 280.327 483.595 280.314Z" fill="#ECE0FF"/>
<path d="M516.227 271.377C520.781 266.74 521.95 263.798 516.657 256.595C505.051 244.456 501.124 246.754 492.439 244.894C486.293 244.528 483.775 245.817 481.253 251.944C477.133 255.587 475.688 258.381 475.284 264.784C487.421 271.791 492.261 273.152 500.738 275.334C507.962 277.248 510.978 275.27 516.227 271.377Z" fill="#14000C"/>
<path d="M512.489 268.966C516.352 265.034 517.343 262.538 512.854 256.429C503.01 246.133 499.68 248.082 492.314 246.505C487.101 246.195 484.966 247.288 482.826 252.484C479.332 255.574 478.107 257.944 477.764 263.375C488.057 269.318 492.163 270.471 499.353 272.322C505.479 273.946 508.037 272.268 512.489 268.966Z" fill="#FF5DD6"/>
<path d="M504.673 253.763C510.548 257.005 509.733 259.324 507.679 263.535C506.19 266.191 504.315 266.969 500.354 267.951C489.96 269.002 484.123 266.116 485.358 259.938C486.841 256.89 487.908 255.191 490.933 252.183C497.444 248.154 500.05 250.142 504.673 253.763Z" fill="black" stroke="black" stroke-width="0.56177"/>
<path d="M502.747 255.096C507.171 257.537 506.558 259.283 505.011 262.454C503.89 264.453 502.478 265.039 499.496 265.778C491.67 266.57 487.275 264.397 488.205 259.745C489.321 257.45 490.125 256.171 492.402 253.906C497.304 250.873 499.266 252.369 502.747 255.096Z" fill="#040146" stroke="black" stroke-width="0.56177"/>
<path d="M499.194 255.234C501.727 256.743 502.474 258.074 503.684 260.538C500.221 260.703 499.084 260.33 497.647 259.311L494.454 257.016C495.943 255.502 496.922 255.061 499.194 255.234Z" fill="#ECE0FF"/>
<path d="M493.915 259.682L498.477 262.961L492.796 262.682L490.743 261.207L492.311 260.95L493.915 259.682Z" fill="#FEDEFF"/>
<path d="M640.26 103.52C644.105 100.987 645.353 99.1232 642.761 93.3455C636.531 83.2088 633.469 84.2153 627.73 81.6334C623.528 80.4641 621.592 80.9819 618.933 84.8493C615.537 86.7589 614.12 88.4784 612.886 92.8533C620.247 99.5146 623.397 101.178 628.943 103.952C633.661 106.354 636.045 105.434 640.26 103.52Z" fill="#14000C"/>
<path d="M638.191 101.772C641.453 99.6235 642.511 98.0429 640.312 93.1426C635.028 84.5453 632.431 85.3989 627.565 83.2092C624 82.2174 622.359 82.6565 620.103 85.9366C617.223 87.5562 616.021 89.0146 614.974 92.7251C621.218 98.3748 623.889 99.7855 628.593 102.139C632.595 104.176 634.616 103.395 638.191 101.772Z" fill="#FF5DD6"/>
<path d="M635.038 90.0743C638.624 93.1952 637.714 94.6796 635.664 97.2905C634.237 98.9077 632.823 99.1674 629.933 99.2571C622.578 98.4367 618.965 95.5681 620.741 91.473C622.222 89.5831 623.214 88.5657 625.757 86.933C630.867 85.1127 632.375 86.8774 635.038 90.0743Z" fill="black" stroke="black" stroke-width="0.39798"/>
<path d="M633.51 90.7151C636.21 93.065 635.525 94.1827 633.981 96.1485C632.907 97.3662 631.842 97.5617 629.666 97.6292C624.128 97.0115 621.408 94.8517 622.745 91.7683C623.86 90.3453 624.607 89.5793 626.522 88.3499C630.369 86.9793 631.505 88.308 633.51 90.7151Z" fill="#040146" stroke="black" stroke-width="0.39798"/>
<path d="M631.024 90.2819C632.554 91.704 632.873 92.7374 633.344 94.624C630.921 94.2227 630.189 93.7948 629.345 92.8751L627.476 90.8096C628.733 89.9828 629.477 89.8233 631.024 90.2819Z" fill="#ECE0FF"/>
<path d="M626.712 92.5805L629.383 95.5312L625.49 94.4919L624.288 93.1641L625.412 93.2201L626.712 92.5805Z" fill="#FEDEFF"/>
<path d="M653.838 90.862C657.254 88.2363 658.291 86.4121 655.478 81.1973C648.973 72.1627 646.184 73.3108 640.653 71.2928C636.652 70.4882 634.881 71.1034 632.663 74.8938C629.624 76.9075 628.419 78.6087 627.566 82.7754C634.89 88.4896 637.943 89.827 643.307 92.0377C647.874 93.9575 650.035 92.9361 653.838 90.862Z" fill="#14000C"/>
<path d="M651.786 89.368C654.682 87.141 655.562 85.5938 653.176 81.1709C647.659 73.5084 645.294 74.4821 640.603 72.7706C637.209 72.0882 635.707 72.61 633.826 75.8248C631.248 77.5326 630.226 78.9755 629.503 82.5094C635.715 87.3559 638.304 88.4901 642.854 90.3651C646.727 91.9933 648.56 91.1271 651.786 89.368Z" fill="#FF5DD6"/>
<path d="M648.046 78.6759C651.605 81.3437 650.858 82.791 649.123 85.3673C647.901 86.9738 646.599 87.3125 643.908 87.5933C636.989 87.3294 633.422 84.8989 634.8 80.9563C636.053 79.0917 636.909 78.0746 639.171 76.3775C643.815 74.3303 645.343 75.8742 648.046 78.6759Z" fill="black" stroke="black" stroke-width="0.372379"/>
<path d="M646.66 79.375C649.341 81.3837 648.777 82.4734 647.471 84.4132C646.551 85.6228 645.571 85.8779 643.545 86.0893C638.335 85.8906 635.649 84.0605 636.687 81.092C637.63 79.688 638.275 78.9222 639.978 77.6445C643.475 76.103 644.626 77.2655 646.66 79.375Z" fill="#040146" stroke="black" stroke-width="0.372379"/>
<path d="M644.313 79.1358C645.838 80.3584 646.206 81.3011 646.774 83.0295C644.485 82.8203 643.773 82.4709 642.923 81.6702L641.038 79.8701C642.154 79.0129 642.838 78.8134 644.313 79.1358Z" fill="#ECE0FF"/>
<path d="M640.447 81.5692L643.141 84.1406L639.437 83.4362L638.225 82.2791L639.278 82.2547L640.447 81.5692Z" fill="#FEDEFF"/>
<defs>
<linearGradient id="paint0_linear_2083_6870" x1="679.964" y1="247.837" x2="0" y2="247.837" gradientUnits="userSpaceOnUse">
<stop offset="1" stop-color="#FF1A4E"/>
</linearGradient>
</defs>
</svg>
