<svg width="457" height="249" viewBox="0 0 457 249" fill="none" xmlns="http://www.w3.org/2000/svg">
<path d="M10.5019 7.28802C68.2958 -12.7843 115.132 7.5656 215.73 81.3013C220.28 83.2519 222.471 83.6297 222.459 76.3332C219.826 71.3671 217.999 68.4848 225.343 66.4046C234.795 65.2111 237.082 67.1514 236.684 74.9793C235.626 79.8932 235.504 82.266 241.684 81.3013C258.291 67.7761 267.602 60.1981 284.46 47.9013C323.83 22.2586 347.867 11.0742 398.849 4.12517C438.872 3.50513 455.296 7.55664 456.044 35.7162C458.318 52.7762 432.881 77.1682 392.601 117.853L380.585 121.915L392.601 139.064C400.436 149.223 398.442 162.003 390.198 190.061C373.933 232.328 351.075 239.805 306.569 248.73C282.518 249.873 272.454 233.851 254.661 204.502C242.871 182.16 239.719 167.355 236.878 139.064L236.867 140.299C236.552 175.201 236.372 195.148 223.901 201.795C216.012 185.474 213.691 172.325 211.185 150.235C209.166 174.172 192.577 228.749 160.939 246.925L131.14 242.863C87.8083 235.84 74.1878 221.866 61.4489 185.999C48.5233 157.926 76.6985 114.805 73.9452 113.34C71.1918 111.875 59.17 108.64 41.262 86.2618C2.22983 41.4916 -11.5319 20.5626 10.5019 7.28802Z" fill="#E8100C"/>
<path d="M87.3129 180.054C85.1504 182.777 83.6815 183.548 79.6279 180.899C72.6461 174.942 73.6242 172.664 72.1673 167.91C71.6315 164.507 72.1625 163.054 75.2161 161.4C76.885 158.96 78.2608 158.042 81.5777 157.556C85.9129 164.018 86.8938 166.654 88.5074 171.279C89.9109 175.218 89.0488 176.976 87.3129 180.054Z" fill="#14000C"/>
<path d="M85.8445 178.074C84.0105 180.383 82.7647 181.037 79.3267 178.791C73.4052 173.738 74.2347 171.806 72.999 167.774C72.5446 164.888 72.995 163.656 75.5848 162.253C77.0003 160.184 78.1672 159.405 80.9803 158.992C84.6571 164.473 85.4891 166.709 86.8577 170.631C88.048 173.972 87.3168 175.463 85.8445 178.074Z" fill="#E4A10A"/>
<path d="M77.4765 174.35C79.497 177.484 80.6604 176.936 82.7416 175.622C84.0428 174.684 84.3435 173.61 84.6332 171.367C84.5984 165.544 82.7658 162.416 79.613 163.356C78.1068 164.305 77.2809 164.968 75.8818 166.774C74.146 170.559 75.3286 171.927 77.4765 174.35Z" fill="black" stroke="black" stroke-width="0.259332"/>
<path d="M78.0698 173.222C79.5911 175.583 80.4671 175.17 82.0341 174.18C83.0139 173.474 83.2402 172.666 83.4584 170.977C83.4322 166.592 82.0523 164.237 79.6785 164.945C78.5444 165.66 77.9225 166.159 76.8691 167.518C75.5621 170.369 76.4526 171.398 78.0698 173.222Z" fill="#4965E0" stroke="black" stroke-width="0.259332"/>
<path d="M77.9355 171.238C78.8642 172.585 79.6005 172.946 80.9532 173.518C80.8452 171.585 80.5868 170.969 79.9749 170.211L78.5987 168.529C77.8927 169.419 77.7177 169.982 77.9355 171.238Z" fill="#ECE0FF"/>
<path d="M79.9597 168.129L81.9258 170.531L81.4618 167.384L80.5771 166.303L80.5313 167.185L79.9597 168.129Z" fill="#FEDEFF"/>
<path d="M134.273 163.005C132.234 162.45 131.404 161.794 131.572 158.753C132.579 153.153 134.04 153.134 136.057 151.06C137.651 149.87 138.555 149.804 140.307 151.153C142.055 151.494 142.933 152.058 144.162 153.862C142.115 158.052 141.047 159.303 139.142 161.435C137.529 163.268 136.37 163.221 134.273 163.005Z" fill="#E4A10A"/>
<path d="M133.623 156.135C132.423 158.474 133.16 159.106 134.682 160.133C135.703 160.74 136.459 160.62 137.922 160.136C141.443 158.34 142.704 156.131 141.038 154.254C139.938 153.51 139.248 153.145 137.666 152.735C134.765 152.697 134.346 153.924 133.623 156.135Z" fill="black" stroke="black" stroke-width="0.187383"/>
<path d="M134.513 156.199C133.61 157.961 134.165 158.436 135.311 159.21C136.08 159.667 136.649 159.576 137.75 159.212C140.402 157.86 141.351 156.197 140.097 154.784C139.268 154.223 138.749 153.949 137.558 153.64C135.373 153.611 135.058 154.535 134.513 156.199Z" fill="#4965E0" stroke="black" stroke-width="0.187383"/>
<path d="M135.675 155.505C135.18 156.552 135.217 157.167 135.341 158.269C136.476 157.607 136.761 157.242 137.008 156.591L137.55 155.136C136.764 154.922 136.362 154.974 135.675 155.505Z" fill="#ECE0FF"/>
<path d="M138.266 155.944L137.492 158.023L139.241 156.747L139.59 155.811L139.038 156.049L138.266 155.944Z" fill="#FEDEFF"/>
<path d="M126.546 161.827C124.212 161.967 123.125 161.56 122.326 158.214C121.594 151.802 123.132 151.252 124.598 148.28C125.901 146.417 126.836 146.017 129.12 146.839C131.078 146.574 132.187 146.864 134.064 148.366C133.245 153.633 132.518 155.372 131.189 158.365C130.072 160.93 128.831 161.299 126.546 161.827Z" fill="#14000C"/>
<path d="M126.723 160.139C124.743 160.257 123.821 159.912 123.144 157.074C122.523 151.636 123.827 151.169 125.071 148.649C126.176 147.068 126.968 146.73 128.906 147.427C130.566 147.202 131.507 147.448 133.099 148.722C132.404 153.189 131.787 154.664 130.66 157.203C129.713 159.378 128.661 159.691 126.723 160.139Z" fill="#E4A10A"/>
<path d="M124.273 154.047C123.835 156.559 124.667 156.91 126.311 157.383C127.392 157.625 128.037 157.282 129.216 156.389C131.885 153.661 132.414 151.25 130.409 150.044C129.22 149.7 128.503 149.578 126.973 149.689C124.362 150.547 124.32 151.8 124.273 154.047Z" fill="black" stroke="black" stroke-width="0.178242"/>
<path d="M125.081 153.835C124.75 155.726 125.377 155.991 126.615 156.347C127.429 156.529 127.915 156.271 128.802 155.598C130.812 153.544 131.21 151.728 129.7 150.82C128.806 150.562 128.265 150.47 127.113 150.554C125.147 151.199 125.116 152.142 125.081 153.835Z" fill="#4965E0" stroke="black" stroke-width="0.178242"/>
<path d="M127.158 152.751C126.999 153.862 127.2 154.414 127.61 155.385C128.448 154.429 128.604 154.007 128.648 153.336L128.738 151.836C127.975 151.882 127.629 152.052 127.158 152.751Z" fill="#ECE0FF"/>
<path d="M118.564 160.109C116.44 160.424 115.416 160.137 114.449 157.123C113.326 151.284 114.694 150.655 115.826 147.804C116.885 145.987 117.712 145.545 119.86 146.118C121.632 145.717 122.667 145.896 124.49 147.127C124.113 152.038 123.571 153.695 122.567 156.555C121.726 159.003 120.617 159.441 118.564 160.109Z" fill="#14000C"/>
<path d="M118.608 158.546C116.806 158.813 115.938 158.57 115.118 156.014C114.165 151.061 115.326 150.528 116.285 148.11C117.184 146.568 117.885 146.193 119.707 146.68C121.209 146.34 122.087 146.491 123.634 147.536C123.314 151.7 122.854 153.106 122.003 155.531C121.29 157.608 120.349 157.979 118.608 158.546Z" fill="#E4A10A"/>
<path d="M115.938 153.138C115.714 155.483 116.501 155.74 118.038 156.044C119.044 156.18 119.61 155.813 120.625 154.897C122.873 152.175 123.187 149.915 121.268 148.965C120.156 148.745 119.491 148.69 118.099 148.914C115.771 149.911 115.822 151.067 115.938 153.138Z" fill="black" stroke="black" stroke-width="0.16404"/>
<path d="M116.668 152.868C116.5 154.634 117.092 154.827 118.249 155.056C119.007 155.159 119.433 154.882 120.197 154.193C121.89 152.143 122.126 150.441 120.681 149.727C119.844 149.56 119.344 149.519 118.296 149.688C116.543 150.439 116.581 151.309 116.668 152.868Z" fill="#4965E0" stroke="black" stroke-width="0.16404"/>
<path d="M117.375 151.888C117.309 152.923 117.531 153.415 117.976 154.275C118.674 153.329 118.787 152.929 118.78 152.307L118.756 150.92C118.062 151.024 117.757 151.208 117.375 151.888Z" fill="#ECE0FF"/>
<path d="M119.583 151.331L119.617 153.312L120.613 151.645L120.598 150.753L120.232 151.144L119.583 151.331Z" fill="#FEDEFF"/>
<path d="M110.628 161.41C108.233 162.393 106.968 162.346 105.077 159.06C102.286 152.475 103.719 151.338 104.313 147.642C105.086 145.187 105.936 144.427 108.584 144.489C110.545 143.507 111.796 143.42 114.233 144.354C115.04 150.27 114.829 152.386 114.386 156.057C114.029 159.194 112.849 160.031 110.628 161.41Z" fill="#14000C"/>
<path d="M110.286 159.533C108.255 160.366 107.182 160.327 105.577 157.539C103.21 151.955 104.426 150.991 104.929 147.856C105.585 145.774 106.306 145.129 108.552 145.182C110.215 144.348 111.276 144.275 113.343 145.067C114.028 150.085 113.849 151.879 113.473 154.993C113.17 157.653 112.17 158.363 110.286 159.533Z" fill="#E4A10A"/>
<path d="M105.797 153.905C106.132 156.744 107.113 156.822 108.98 156.74C110.187 156.613 110.753 156.016 111.703 154.641C113.629 150.775 113.421 148.012 110.944 147.441C109.594 147.498 108.806 147.624 107.242 148.289C104.783 150.137 105.136 151.489 105.797 153.905Z" fill="black" stroke="black" stroke-width="0.197565"/>
<path d="M106.58 153.384C106.832 155.521 107.571 155.58 108.977 155.518C109.885 155.422 110.311 154.973 111.026 153.938C112.477 151.027 112.32 148.947 110.456 148.516C109.439 148.56 108.845 148.654 107.668 149.155C105.817 150.546 106.082 151.565 106.58 153.384Z" fill="#4965E0" stroke="black" stroke-width="0.197565"/>
<path d="M107.813 151.488C108.047 153.057 108.532 153.711 109.462 154.836C110.186 153.169 110.223 152.53 110.014 151.604L109.533 149.541C108.545 149.947 108.156 150.333 107.813 151.488Z" fill="#ECE0FF"/>
<path d="M102.995 164.673C100.805 166.7 99.5119 167.215 96.8072 164.818C92.4009 159.575 93.5808 157.822 93.2957 153.922C93.4901 151.165 94.1697 150.041 96.8666 148.929C98.6184 147.094 99.8647 146.455 102.558 146.295C104.794 151.759 105.088 153.933 105.519 157.741C105.91 160.986 104.915 162.332 102.995 164.673Z" fill="#14000C"/>
<path d="M102.198 162.982C100.341 164.701 99.2443 165.138 96.9503 163.105C93.2132 158.658 94.2138 157.171 93.9721 153.864C94.1369 151.525 94.7133 150.572 97.0007 149.629C98.4864 148.073 99.5434 147.531 101.827 147.395C103.724 152.029 103.974 153.873 104.339 157.103C104.67 159.855 103.827 160.996 102.198 162.982Z" fill="#E4A10A"/>
<path d="M96.3027 159.434C97.3228 162.079 98.3356 161.721 100.208 160.813C101.399 160.154 101.829 159.316 102.462 157.543C103.487 152.886 102.613 150.26 99.9675 150.794C98.613 151.449 97.8446 151.922 96.4196 153.268C94.3721 156.175 95.0537 157.349 96.3027 159.434Z" fill="black" stroke="black" stroke-width="0.228516"/>
<path d="M96.9704 158.576C97.7385 160.568 98.5011 160.298 99.9106 159.615C100.808 159.118 101.132 158.487 101.608 157.153C102.38 153.646 101.722 151.669 99.7299 152.071C98.71 152.564 98.1314 152.92 97.0585 153.934C95.5169 156.122 96.03 157.007 96.9704 158.576Z" fill="#4965E0" stroke="black" stroke-width="0.228516"/>
<path d="M97.2237 156.98C97.7095 158.121 98.2225 158.46 99.1816 159.01C99.446 157.458 99.3546 156.947 99.011 156.299L98.2341 154.86C97.5188 155.523 97.2797 155.961 97.2237 156.98Z" fill="#ECE0FF"/>
<path d="M99.3746 154.632L100.484 156.688L100.689 154.14L100.189 153.215L99.9941 153.917L99.3746 154.632Z" fill="#FEDEFF"/>
<path d="M95.8272 172.445C93.6064 174.79 92.1782 175.382 88.5916 172.583C82.5178 166.468 83.6 164.436 82.5934 159.902C82.3463 156.699 82.9499 155.396 85.9229 154.117C87.662 151.993 89.0143 151.257 92.1462 151.083C95.7123 157.445 96.4319 159.974 97.5943 164.401C98.6115 168.174 97.6762 169.734 95.8272 172.445Z" fill="#14000C"/>
<path d="M94.6049 170.479C92.7214 172.468 91.5101 172.97 88.4681 170.596C83.3168 165.41 84.2346 163.687 83.3809 159.841C83.1713 157.124 83.6832 156.019 86.2047 154.935C87.6797 153.133 88.8266 152.508 91.483 152.361C94.5074 157.757 95.1178 159.901 96.1036 163.657C96.9664 166.857 96.1731 168.179 94.6049 170.479Z" fill="#E4A10A"/>
<path d="M87.0695 166.315C88.7223 169.394 89.849 168.983 91.8891 167.938C93.1733 167.177 93.5338 166.206 93.9709 164.148C94.3712 158.741 92.8932 155.685 89.8806 156.292C88.4042 157.046 87.5841 157.592 86.1441 159.15C84.2426 162.518 85.2447 163.887 87.0695 166.315Z" fill="black" stroke="black" stroke-width="0.242227"/>
<path d="M87.7073 165.324C88.9518 167.642 89.8001 167.332 91.3362 166.545C92.3031 165.973 92.5745 165.241 92.9036 163.692C93.205 159.621 92.0922 157.319 89.8239 157.777C88.7123 158.345 88.0947 158.756 87.0105 159.929C85.5788 162.464 86.3334 163.495 87.7073 165.324Z" fill="#4965E0" stroke="black" stroke-width="0.242227"/>
<path d="M87.7289 163.47C88.4956 164.798 89.156 165.195 90.3761 165.839C90.4189 164.036 90.2235 163.442 89.7087 162.687L88.5492 161.011C87.8241 161.778 87.6189 162.285 87.7289 163.47Z" fill="#ECE0FF"/>
<path d="M89.8513 160.754L91.5078 163.148L91.3087 160.188L90.5633 159.111L90.455 159.926L89.8513 160.754Z" fill="#FEDEFF"/>
<path d="M70.7271 46.3309C69.1591 40.9095 67.5011 38.7559 60.3003 39.58C47.1308 42.9772 47.2647 46.9123 42.5867 52.5963C39.9567 57.032 39.9106 59.4746 43.329 64.0251C44.3528 68.6894 45.7979 70.9846 50.231 74.0715C59.9272 68.0463 62.7667 65.0191 67.5959 59.6307C71.7502 55.063 71.4949 51.9482 70.7271 46.3309Z" fill="#14000C"/>
<path d="M67.5614 48.0739C66.2315 43.4758 64.8253 41.6493 58.7181 42.3482C47.5485 45.2295 47.6621 48.567 43.6945 53.3878C41.4639 57.1499 41.4249 59.2216 44.3241 63.081C45.1924 67.0369 46.4181 68.9835 50.1779 71.6016C58.4016 66.4915 60.8099 63.924 64.9057 59.3539C68.4291 55.4799 68.2126 52.8382 67.5614 48.0739Z" fill="#E4A10A"/>
<path d="M53.6484 47.308C58.235 44.3255 59.5825 45.9433 61.8092 49.3104C63.1382 51.579 62.9736 53.3188 62.1511 56.7071C58.9006 64.9345 54.584 68.0429 50.6325 64.4325C49.0198 61.9985 48.2138 60.4622 47.2236 56.8924C46.8447 50.2728 49.2725 49.1891 53.6484 47.308Z" fill="black" stroke="black" stroke-width="0.402235"/>
<path d="M53.8673 49.3356C57.3207 47.09 58.3353 48.308 60.0118 50.8433C61.0125 52.5514 60.8886 53.8614 60.2693 56.4126C57.8219 62.6073 54.5717 64.9477 51.5965 62.2294C50.3822 60.3967 49.7753 59.2399 49.0297 56.5521C48.7444 51.5679 50.5725 50.7519 53.8673 49.3356Z" fill="#4965E0" stroke="black" stroke-width="0.402235"/>
<path d="M52.5952 52.0486C54.6518 50.8107 55.8937 50.8312 58.125 50.9987C56.9096 53.6594 56.2042 54.3469 54.9205 54.9785L52.0457 56.3671C51.5344 54.5956 51.5956 53.6719 52.5952 52.0486Z" fill="#ECE0FF"/>
<path d="M53.7486 57.9212L57.8555 55.9375L55.4675 60.0631L53.6194 60.9558L54.0397 59.672L53.7486 57.9212Z" fill="#FEDEFF"/>
<path d="M127.817 101.653C124.05 100.843 122.238 101.232 120.547 106.457C118.601 116.672 121.03 117.948 123.055 123.133C124.947 126.48 126.415 127.361 130.217 126.598C133.36 127.518 135.192 127.325 138.415 125.358C137.709 116.612 136.736 113.612 134.935 108.425C133.428 103.988 131.46 103.08 127.817 101.653Z" fill="#14000C"/>
<path d="M127.913 104.428C124.717 103.741 123.181 104.071 121.746 108.503C120.096 117.166 122.156 118.249 123.874 122.646C125.479 125.485 126.724 126.232 129.948 125.585C132.614 126.365 134.168 126.201 136.901 124.533C136.302 117.115 135.477 114.571 133.95 110.172C132.671 106.408 131.002 105.638 127.913 104.428Z" fill="#E4A10A"/>
<path d="M123.21 113.698C122.796 109.515 124.188 109.153 126.909 108.797C128.69 108.674 129.696 109.392 131.502 111.134C135.506 116.225 136.079 120.266 132.685 121.721C130.717 121.981 129.54 122 127.072 121.438C122.939 119.396 123.02 117.354 123.21 113.698Z" fill="black" stroke="black" stroke-width="0.290639"/>
<path d="M124.509 114.252C124.198 111.102 125.246 110.83 127.294 110.561C128.635 110.469 129.393 111.009 130.753 112.321C133.767 116.154 134.199 119.197 131.643 120.293C130.162 120.488 129.275 120.502 127.417 120.079C124.305 118.542 124.366 117.004 124.509 114.252Z" fill="#4965E0" stroke="black" stroke-width="0.290639"/>
<path d="M125.766 116.069C125.641 114.228 126.031 113.383 126.812 111.911C128.057 113.67 128.259 114.393 128.252 115.493L128.22 117.948C126.989 117.682 126.447 117.319 125.766 116.069Z" fill="#ECE0FF"/>
<path d="M129.685 117.319L129.73 113.812L131.508 116.885L131.487 118.463L130.836 117.728L129.685 117.319Z" fill="#FEDEFF"/>
<path d="M116.306 100.515C113.076 98.6304 111.311 98.4213 108.339 102.586C103.777 111.144 105.654 113.035 106.099 118.307C106.92 121.889 108.026 123.13 111.715 123.616C114.343 125.407 116.074 125.798 119.561 125.026C121.295 116.968 121.22 113.979 120.983 108.776C120.81 104.334 119.254 102.915 116.306 100.515Z" fill="#14000C"/>
<path d="M115.636 103.035C112.896 101.437 111.399 101.26 108.879 104.792C105.01 112.05 106.602 113.654 106.979 118.125C107.676 121.163 108.613 122.216 111.743 122.628C113.971 124.147 115.44 124.479 118.397 123.824C119.868 116.99 119.804 114.455 119.603 110.042C119.456 106.274 118.137 105.071 115.636 103.035Z" fill="#E4A10A"/>
<path d="M108.809 109.901C109.568 106.023 110.941 106.127 113.531 106.645C115.196 107.083 115.921 108.036 117.101 110.153C119.383 115.948 118.808 119.748 115.304 120.008C113.43 119.635 112.347 119.29 110.239 118.027C107.01 114.925 107.64 113.119 108.809 109.901Z" fill="black" stroke="black" stroke-width="0.276462"/>
<path d="M109.84 110.795C110.412 107.875 111.446 107.953 113.395 108.343C114.649 108.673 115.195 109.39 116.084 110.985C117.802 115.348 117.369 118.209 114.73 118.405C113.32 118.124 112.504 117.864 110.917 116.913C108.485 114.578 108.96 113.218 109.84 110.795Z" fill="#4965E0" stroke="black" stroke-width="0.276462"/>
<path d="M112.189 113.829C112.575 112.14 113.162 111.503 114.278 110.423C114.94 112.383 114.928 113.093 114.622 114.077L113.925 116.268C112.87 115.652 112.472 115.159 112.189 113.829Z" fill="#ECE0FF"/>
<path d="M104.058 97.1826C101.221 95.2006 99.6119 94.8683 96.5847 98.4402C91.7833 105.904 93.3763 107.784 93.4124 112.642C93.9151 115.984 94.8439 117.208 98.2033 117.947C100.494 119.795 102.058 120.291 105.32 119.863C107.485 112.631 107.627 109.891 107.776 105.113C107.931 101.036 106.601 99.613 104.058 97.1826Z" fill="#14000C"/>
<path d="M103.26 99.4374C100.853 97.7564 99.4883 97.4746 96.9207 100.504C92.8485 106.835 94.1996 108.429 94.2302 112.549C94.6566 115.383 95.4443 116.421 98.2936 117.048C100.236 118.616 101.563 119.036 104.33 118.673C106.165 112.54 106.286 110.216 106.413 106.163C106.544 102.705 105.416 101.499 103.26 99.4374Z" fill="#E4A10A"/>
<path d="M96.4961 105.164C97.4684 101.678 98.7242 101.883 101.069 102.563C102.57 103.096 103.17 104.026 104.106 106.057C105.795 111.54 104.997 114.97 101.755 114.928C100.059 114.438 99.0864 114.035 97.2374 112.711C94.4862 109.616 95.1934 108.015 96.4961 105.164Z" fill="black" stroke="black" stroke-width="0.254434"/>
<path d="M97.385 106.065C98.1171 103.44 99.0626 103.594 100.828 104.106C101.958 104.508 102.41 105.208 103.114 106.737C104.386 110.866 103.786 113.448 101.345 113.417C100.067 113.047 99.3353 112.744 97.9431 111.748C95.8716 109.417 96.4041 108.211 97.385 106.065Z" fill="#4965E0" stroke="black" stroke-width="0.254434"/>
<path d="M97.8481 107.962C98.3227 106.448 98.9081 105.912 100.011 105.013C100.481 106.859 100.42 107.508 100.069 108.383L99.2725 110.331C98.3456 109.683 98.0148 109.201 97.8481 107.962Z" fill="#ECE0FF"/>
<path d="M100.675 110.353L101.812 107.57L102.307 110.653L101.795 111.905L101.491 111.088L100.675 110.353Z" fill="#FEDEFF"/>
<path d="M93.5193 89.6195C90.6659 86.4965 88.8476 85.6478 84.3596 88.9389C76.7847 96.2538 78.1915 98.9008 77.0005 104.569C76.7463 108.605 77.5341 110.297 81.3199 112.123C83.5597 114.933 85.2846 115.959 89.2515 116.397C93.6482 108.595 94.5127 105.445 95.9028 99.9227C97.1212 95.2185 95.9089 93.1798 93.5193 89.6195Z" fill="#14000C"/>
<path d="M92.0089 92.0052C89.5888 89.3565 88.0466 88.6367 84.2402 91.428C77.8157 97.632 79.0088 99.877 77.9987 104.684C77.7831 108.108 78.4513 109.543 81.6622 111.091C83.5618 113.474 85.0247 114.345 88.3892 114.716C92.1182 108.099 92.8514 105.427 94.0304 100.744C95.0637 96.7539 94.0356 95.0248 92.0089 92.0052Z" fill="#E4A10A"/>
<path d="M82.5505 96.7502C84.5859 92.9691 86.0193 93.568 88.6204 95.0333C90.2595 96.0854 90.7335 97.3405 91.3243 99.9747C91.9298 106.846 90.1151 110.611 86.2915 109.632C84.4092 108.574 83.3613 107.826 81.5104 105.753C79.0423 101.359 80.2856 99.6964 82.5505 96.7502Z" fill="black" stroke="black" stroke-width="0.306432"/>
<path d="M83.3701 98.0499C84.9027 95.203 85.9819 95.6539 87.9404 96.7573C89.1746 97.5494 89.5314 98.4944 89.9763 100.478C90.4321 105.651 89.0658 108.486 86.1868 107.749C84.7696 106.952 83.9806 106.389 82.587 104.829C80.7287 101.52 81.6647 100.268 83.3701 98.0499Z" fill="#4965E0" stroke="black" stroke-width="0.306432"/>
<path d="M84.0793 101.634C85.2743 99.5784 86.3209 99.0022 88.2566 98.0801C88.3668 100.966 88.0681 101.898 87.2625 103.059L85.4475 105.637C84.2705 104.347 83.9308 103.518 84.0793 101.634Z" fill="#ECE0FF"/>
<path d="M84.4967 79.4674C82.5069 75.0117 80.9576 73.3481 75.8071 74.7896C66.6804 79.0356 67.3886 82.3729 64.8408 87.6939C63.6006 91.7415 63.9456 93.8264 67.1568 97.3503C68.6304 101.217 70.0455 103.023 73.7736 105.197C79.947 99.0697 81.559 96.2 84.2635 91.1151C86.6005 86.7985 85.9305 84.1723 84.4967 79.4674Z" fill="#14000C"/>
<path d="M82.4431 81.2786C80.7554 77.4995 79.4414 76.0885 75.0731 77.3111C67.3324 80.9123 67.9331 83.7428 65.7722 88.2557C64.7203 91.6886 65.0129 93.4568 67.7364 96.4457C68.9863 99.7253 70.1865 101.257 73.3484 103.1C78.5842 97.9039 79.9514 95.47 82.2452 91.1574C84.2273 87.4963 83.6591 85.2689 82.4431 81.2786Z" fill="#E4A10A"/>
<path d="M72.1256 82.0488C75.0253 79.0378 76.2638 80.277 78.418 82.9157C79.7439 84.7111 79.8931 86.2096 79.8154 89.1796C78.7084 96.5199 76.0262 99.6104 72.5699 96.9418C71.0104 95.0347 70.1814 93.8092 68.9021 90.8709C67.5981 85.2726 69.2097 84.1003 72.1256 82.0488Z" fill="black" stroke="black" stroke-width="0.354438"/>
<path d="M72.6023 83.7472C74.7856 81.48 75.7181 82.4131 77.3401 84.3999C78.3385 85.7517 78.4507 86.88 78.3923 89.1162C77.5587 94.643 75.5392 96.97 72.9368 94.9607C71.7626 93.5248 71.1384 92.602 70.1752 90.3897C69.1933 86.1745 70.4068 85.2918 72.6023 83.7472Z" fill="#4965E0" stroke="black" stroke-width="0.354438"/>
<path d="M72.0901 86.1932C73.4057 84.9277 74.3192 84.8176 75.9807 84.731C75.5024 87.1217 75.0919 87.7797 74.2488 88.4494L72.3568 89.9273C71.7074 88.4712 71.6091 87.6783 72.0901 86.1932Z" fill="#ECE0FF"/>
<path d="M73.844 91.08L76.5469 88.9688L75.4361 92.7274L74.2198 93.6775L74.3289 92.541L73.844 91.08Z" fill="#FEDEFF"/>
<path d="M78.6036 63.2816C76.7455 58.3533 75.0468 56.4824 68.4254 57.8564C56.456 62.1334 56.8727 65.795 52.9537 71.4932C50.8426 75.8542 50.9814 78.1379 54.492 82.098C55.7888 86.3654 57.3005 88.3863 61.6439 90.8951C70.1947 84.4571 72.6048 81.393 76.6861 75.9581C80.202 71.3458 79.7336 68.4601 78.6036 63.2816Z" fill="#14000C"/>
<path d="M75.7928 65.1743C74.2169 60.9944 72.7762 59.4077 67.1603 60.573C57.0087 64.2005 57.3621 67.306 54.0383 72.1388C52.2478 75.8375 52.3655 77.7744 55.3429 81.1331C56.4428 84.7525 57.7249 86.4664 61.4088 88.5942C68.6609 83.1339 70.7051 80.5352 74.1665 75.9256C77.1485 72.0138 76.7513 69.5663 75.7928 65.1743Z" fill="#E4A10A"/>
<path d="M62.8318 65.6296C66.8667 62.4607 68.2375 63.8574 70.5542 66.8131C71.9561 68.8189 71.9327 70.4566 71.4212 73.6882C69.0161 81.6403 65.2411 84.9041 61.3057 81.8663C59.6281 79.7299 58.7659 78.3637 57.5816 75.115C56.738 68.9683 58.9106 67.7529 62.8318 65.6296Z" fill="black" stroke="black" stroke-width="0.375705"/>
<path d="M63.1864 67.4976C66.2245 65.1116 67.2566 66.1632 69.0009 68.3887C70.0565 69.8989 70.0389 71.132 69.6537 73.5652C67.8428 79.5527 65.0005 82.0102 62.0373 79.7228C60.7742 78.1143 60.125 77.0856 59.2333 74.6395C58.5981 70.0114 60.234 69.0963 63.1864 67.4976Z" fill="#4965E0" stroke="black" stroke-width="0.375705"/>
<path d="M62.2027 70.1432C64.0194 68.815 65.1734 68.7298 67.2566 68.6988C66.3265 71.2842 65.7229 71.9852 64.5785 72.6825L62.0138 74.22C61.4076 72.6095 61.3958 71.7422 62.2027 70.1432Z" fill="#ECE0FF"/>
<path d="M63.7111 75.5246L67.375 73.3281L65.4655 77.3794L63.8167 78.3678L64.1114 77.1342L63.7111 75.5246Z" fill="#FEDEFF"/>
<path d="M36.5818 37.0072C35.9436 41.7027 36.496 43.9691 42.3848 46.1383C53.8027 48.6805 55.0478 45.6614 60.6389 43.1885C64.2074 40.8631 65.0808 39.0391 63.9798 34.2832C64.782 30.3694 64.4439 28.0788 62.0511 24.0332C52.4361 24.8186 49.1874 26.0008 43.58 28.1923C38.7794 30.0265 37.9102 32.474 36.5818 37.0072Z" fill="#14000C"/>
<path d="M39.647 36.9134C39.1057 40.8958 39.5742 42.8181 44.5687 44.6578C54.2527 46.8139 55.3086 44.2534 60.0506 42.156C63.0773 40.1837 63.818 38.6368 62.8842 34.6031C63.5646 31.2837 63.2778 29.3409 61.2484 25.9097C53.0936 26.5758 50.3383 27.5785 45.5824 29.4372C41.5109 30.9928 40.7736 33.0687 39.647 36.9134Z" fill="#E4A10A"/>
<path d="M50.2108 42.8871C45.6172 43.3585 45.1228 41.6164 44.5438 38.2146C44.287 35.989 45.0117 34.7409 46.8139 32.5048C52.1656 27.5608 56.5922 26.8899 58.4306 31.1435C58.8516 33.6038 58.9524 35.0746 58.4992 38.1501C56.5244 43.2883 54.2626 43.1645 50.2108 42.8871Z" fill="black" stroke="black" stroke-width="0.341291"/>
<path d="M50.7333 41.2865C47.2747 41.6414 46.9024 40.3298 46.4665 37.7684C46.2731 36.0926 46.8187 35.1529 48.1757 33.4692C52.2052 29.7467 55.5382 29.2415 56.9224 32.4443C57.2394 34.2967 57.3153 35.4042 56.9741 37.7198C55.4871 41.5886 53.7841 41.4954 50.7333 41.2865Z" fill="#4965E0" stroke="black" stroke-width="0.341291"/>
<path d="M52.6606 39.7233C50.6349 39.8597 49.675 39.363 47.9953 38.3719C49.8538 36.8367 50.6388 36.5917 51.8548 36.6129L54.5691 36.68C54.3597 38.2139 53.9954 38.8867 52.6606 39.7233Z" fill="#ECE0FF"/>
<path d="M30.9215 23.4355C30.028 27.0763 30.2798 28.9137 34.7762 31.1715C43.6317 34.238 44.8689 31.9749 49.5115 30.5468C52.5362 29.0467 53.3799 27.6906 52.8976 23.8403C53.857 20.8309 53.7773 18.9943 52.211 15.5835C44.5128 15.307 41.8362 15.9361 37.2038 17.1409C33.2414 18.1392 32.3496 19.987 30.9215 23.4355Z" fill="#14000C"/>
<path d="M33.3609 23.6502C32.603 26.738 32.8166 28.2964 36.6302 30.2113C44.1408 32.8121 45.1901 30.8927 49.1277 29.6815C51.6931 28.4092 52.4086 27.2591 51.9996 23.9935C52.8133 21.4411 52.7457 19.8834 51.4172 16.9906C44.8881 16.7561 42.618 17.2897 38.6891 18.3114C35.3285 19.1582 34.5721 20.7253 33.3609 23.6502Z" fill="#E4A10A"/>
<path d="M41.2561 29.3383C37.5704 29.282 37.3214 27.8632 37.142 25.1286C37.1215 23.3509 37.7997 22.4348 39.4147 20.8405C44.0709 17.4429 47.6405 17.3264 48.7496 20.8496C48.8811 22.8276 48.8399 23.996 48.2267 26.3773C46.2355 30.2424 44.4501 29.9343 41.2561 29.3383Z" fill="black" stroke="black" stroke-width="0.271599"/>
<path d="M41.8059 28.1167C39.0308 28.0743 38.8433 27.006 38.7082 24.947C38.6928 23.6085 39.2034 22.9187 40.4194 21.7183C43.9253 19.1601 46.6129 19.0724 47.448 21.7252C47.5471 23.2145 47.516 24.0942 47.0544 25.8872C45.5551 28.7974 44.2108 28.5654 41.8059 28.1167Z" fill="#4965E0" stroke="black" stroke-width="0.271599"/>
<path d="M43.4612 27.0704C41.8417 26.9893 41.1206 26.5084 39.8687 25.571C41.4707 24.5343 42.1141 24.4143 43.0777 24.5443L45.2271 24.8499C44.9345 26.0392 44.5898 26.5354 43.4612 27.0704Z" fill="#ECE0FF"/>
<path d="M25.6491 15.564C25.1563 17.9656 25.3652 19.1582 28.3481 20.5079C34.1889 22.2652 34.9392 20.7535 37.9271 19.6929C39.8599 18.6299 40.376 17.7213 39.9679 15.2209C40.519 13.2297 40.4222 12.0329 39.3189 9.84936C34.2997 9.88161 32.5724 10.3663 29.5856 11.2808C27.0301 12.0421 26.4946 13.2731 25.6491 15.564Z" fill="#14000C"/>
<path d="M27.2435 15.6427C26.8256 17.6796 27.0028 18.6911 29.5326 19.8358C34.4865 21.3263 35.1228 20.0441 37.6569 19.1446C39.2962 18.243 39.734 17.4724 39.3878 15.3518C39.8552 13.6629 39.7731 12.6478 38.8374 10.7959C34.5805 10.8233 33.1154 11.2344 30.5823 12.01C28.4148 12.6557 27.9607 13.6997 27.2435 15.6427Z" fill="#E4A10A"/>
<path d="M32.5218 19.1407C30.1206 19.2057 29.9238 18.2863 29.7401 16.506C29.6833 15.3459 30.1025 14.7291 31.1151 13.6436C34.0637 11.2968 36.385 11.1221 37.1933 13.3916C37.3273 14.6793 37.3291 15.4433 36.9881 17.0149C35.7861 19.5933 34.616 19.4415 32.5218 19.1407Z" fill="black" stroke="black" stroke-width="0.177219"/>
<path d="M32.8502 18.3249C31.0422 18.3739 30.8941 17.6817 30.7558 16.3412C30.713 15.4677 31.0286 15.0033 31.791 14.186C34.0111 12.419 35.759 12.2874 36.3676 13.9962C36.4685 14.9658 36.4698 15.541 36.213 16.7243C35.308 18.6657 34.427 18.5514 32.8502 18.3249Z" fill="#4965E0" stroke="black" stroke-width="0.177219"/>
<path d="M33.9014 17.5945C32.845 17.5863 32.3637 17.2923 31.5257 16.7149C32.5434 15.9938 32.9594 15.8976 33.59 15.9559L34.997 16.096C34.8355 16.8805 34.6232 17.214 33.9014 17.5945Z" fill="#ECE0FF"/>
<path d="M22.3515 10.7826C21.9807 12.4058 22.1051 13.2194 24.1146 14.1861C28.0624 15.4775 28.5952 14.4632 30.6437 13.7926C31.9744 13.1029 32.339 12.4943 32.0983 10.789C32.5027 9.44559 32.4545 8.63099 31.7362 7.12931C28.321 7.0673 27.1386 7.36766 25.093 7.93896C23.3431 8.41337 22.9606 9.2406 22.3515 10.7826Z" fill="#14000C"/>
<path d="M23.4309 10.8646C23.1164 12.2412 23.222 12.9313 24.9263 13.7512C28.2745 14.8465 28.7264 13.9862 30.4638 13.4175C31.5924 12.8325 31.9017 12.3163 31.6975 10.87C32.0405 9.7306 31.9997 9.0397 31.3904 7.76607C28.4939 7.71348 27.491 7.96823 25.7561 8.45277C24.272 8.85513 23.9475 9.55674 23.4309 10.8646Z" fill="#E4A10A"/>
<path d="M26.9732 13.3178C25.3386 13.3218 25.2183 12.694 25.1196 11.4815C25.0981 10.6926 25.3924 10.2806 26.0974 9.56017C28.1382 8.0153 29.7201 7.93544 30.2365 9.49059C30.3086 10.3675 30.2985 10.8865 30.0432 11.9484C29.1873 13.6798 28.3935 13.5571 26.9732 13.3178Z" fill="black" stroke="black" stroke-width="0.120509"/>
<path d="M27.2064 12.7741C25.9757 12.7771 25.8851 12.3044 25.8109 11.3915C25.7947 10.7975 26.0163 10.4873 26.5471 9.94484C28.0837 8.78164 29.2747 8.72151 29.6635 9.89245C29.7178 10.5527 29.7102 10.9435 29.518 11.743C28.8736 13.0467 28.2759 12.9543 27.2064 12.7741Z" fill="#4965E0" stroke="black" stroke-width="0.120509"/>
<path d="M118.418 92.2041C126.965 92.0757 130.725 90.2998 132.051 77.9225C131.689 54.4195 125.839 52.8392 119.109 42.4386C113.497 36.023 109.912 34.8269 101.996 38.4379C94.7577 38.0064 90.8638 39.3627 84.7482 45.3353C90.2106 64.2547 93.6722 70.3739 99.9131 80.8909C105.182 89.9071 109.865 90.9092 118.418 92.2041Z" fill="#14000C"/>
<path d="M116.965 86.1154C124.214 86.0066 127.403 84.5003 128.527 74.0027C128.22 54.069 123.259 52.7287 117.551 43.9076C112.791 38.4663 109.75 37.4518 103.037 40.5144C96.8978 40.1485 93.5952 41.2988 88.4083 46.3644C93.0412 62.4106 95.9771 67.6005 101.27 76.5203C105.739 84.1673 109.711 85.0172 116.965 86.1154Z" fill="#E4A10A"/>
<path d="M123.002 63.3027C125.781 72.3128 122.92 73.8169 117.17 75.9843C113.356 77.1594 110.849 76.0878 106.143 73.1642C95.1596 63.977 92.0996 55.3592 98.8171 50.4289C102.975 48.8569 105.525 48.2177 111.137 48.2037C121.031 50.606 121.772 55.1485 123.002 63.3027Z" fill="black" stroke="black" stroke-width="0.650919"/>
<path d="M119.951 62.7329C122.043 69.5169 119.889 70.6495 115.56 72.2814C112.688 73.1661 110.8 72.3593 107.257 70.158C98.9869 63.2406 96.6829 56.7519 101.741 53.0396C104.871 51.856 106.791 51.3748 111.017 51.3642C118.467 53.173 119.025 56.5932 119.951 62.7329Z" fill="#4965E0" stroke="black" stroke-width="0.650919"/>
<path d="M112.924 59.7404C114.024 63.735 113.555 65.7951 112.521 69.4367C109.027 66.192 108.262 64.7014 107.784 62.2728L106.751 56.8457C109.543 56.8055 110.883 57.3308 112.924 59.7404Z" fill="#ECE0FF"/>
<path d="M193.601 140.305C199.237 140.22 201.717 139.049 202.591 130.886C202.352 115.387 198.495 114.345 194.057 107.486C190.356 103.255 187.991 102.466 182.771 104.847C177.998 104.563 175.43 105.457 171.397 109.396C174.999 121.873 177.282 125.908 181.397 132.844C184.872 138.79 187.96 139.451 193.601 140.305Z" fill="#14000C"/>
<path d="M192.641 136.29C197.421 136.218 199.524 135.225 200.266 128.302C200.063 115.156 196.792 114.272 193.027 108.455C189.888 104.867 187.883 104.198 183.456 106.217C179.407 105.976 177.229 106.735 173.808 110.075C176.864 120.657 178.8 124.08 182.29 129.962C185.238 135.005 187.857 135.566 192.641 136.29Z" fill="#E4A10A"/>
<path d="M196.62 121.241C198.453 127.183 196.566 128.175 192.774 129.605C190.259 130.379 188.605 129.673 185.502 127.745C178.259 121.686 176.241 116.003 180.671 112.751C183.412 111.715 185.094 111.293 188.795 111.284C195.32 112.868 195.809 115.864 196.62 121.241Z" fill="black" stroke="black" stroke-width="0.429263"/>
<path d="M194.613 120.862C195.993 125.336 194.572 126.083 191.717 127.159C189.823 127.743 188.578 127.211 186.242 125.759C180.788 121.197 179.268 116.918 182.604 114.47C184.668 113.689 185.934 113.372 188.721 113.365C193.634 114.558 194.002 116.813 194.613 120.862Z" fill="#4965E0" stroke="black" stroke-width="0.429263"/>
<path d="M189.981 118.889C190.706 121.523 190.397 122.881 189.715 125.283C187.411 123.143 186.906 122.16 186.591 120.559L185.91 116.98C187.751 116.953 188.635 117.3 189.981 118.889Z" fill="#ECE0FF"/>
<path d="M159.805 112.665C166.078 112.571 168.838 111.268 169.811 102.183C169.546 84.9327 165.252 83.7728 160.313 76.1391C156.194 71.4303 153.562 70.5523 147.752 73.2027C142.44 72.886 139.582 73.8815 135.093 78.2652C139.102 92.1515 141.643 96.6427 146.223 104.362C150.091 110.98 153.528 111.715 159.805 112.665Z" fill="#14000C"/>
<path d="M158.736 108.199C164.056 108.119 166.397 107.014 167.222 99.3087C166.997 84.678 163.356 83.6943 159.166 77.2199C155.673 73.2261 153.441 72.4815 148.513 74.7294C144.007 74.4608 141.583 75.3051 137.776 79.0231C141.177 90.8005 143.332 94.6097 147.217 101.157C150.497 106.769 153.412 107.393 158.736 108.199Z" fill="#E4A10A"/>
<path d="M126.452 164.622C131.596 165.88 133.715 167.47 133.476 175.119C131.284 189.245 127.624 189.391 122.691 194.736C118.767 197.831 116.504 198.058 112.033 194.787C107.63 194.048 105.395 192.693 102.208 188.246C107.091 177.588 109.693 174.375 114.34 168.892C118.275 164.181 121.184 164.223 126.452 164.622Z" fill="#14000C"/>
<path d="M125.064 168.094C129.427 169.16 131.225 170.509 131.021 176.996C129.163 188.977 126.058 189.101 121.874 193.634C118.546 196.259 116.627 196.451 112.835 193.678C109.101 193.051 107.205 191.901 104.502 188.13C108.644 179.09 110.85 176.365 114.792 171.715C118.129 167.72 120.596 167.755 125.064 168.094Z" fill="#E4A10A"/>
<path d="M126.789 182.689C129.222 177.638 127.622 176.336 124.336 174.235C122.134 172.999 120.532 173.3 117.448 174.414C110.051 178.439 107.482 183.215 111.12 187.116C113.496 188.638 114.98 189.376 118.365 190.159C124.534 190.075 125.363 187.438 126.789 182.689Z" fill="black" stroke="black" stroke-width="0.398829"/>
<path d="M124.897 182.61C126.729 178.807 125.525 177.826 123.05 176.244C121.392 175.314 120.186 175.54 117.864 176.379C112.295 179.41 110.36 183.006 113.099 185.943C114.888 187.09 116.006 187.645 118.554 188.234C123.2 188.172 123.823 186.186 124.897 182.61Z" fill="#4965E0" stroke="black" stroke-width="0.398829"/>
<path d="M120.414 183.444C121.413 181.186 121.303 179.879 120.985 177.539C118.605 179.014 118.018 179.808 117.526 181.207L116.447 184.338C118.128 184.747 118.981 184.615 120.414 183.444Z" fill="#ECE0FF"/>
<path d="M153.127 157.994C156.903 158.916 158.459 160.083 158.283 165.697C156.674 176.066 153.987 176.173 150.367 180.096C147.487 182.368 145.826 182.534 142.544 180.133C139.313 179.591 137.673 178.596 135.333 175.332C138.917 167.51 140.827 165.151 144.238 161.127C147.126 157.67 149.261 157.7 153.127 157.994Z" fill="#14000C"/>
<path d="M152.113 160.539C155.315 161.321 156.634 162.311 156.485 167.072C155.121 175.866 152.842 175.957 149.771 179.284C147.329 181.211 145.92 181.352 143.137 179.316C140.396 178.856 139.005 178.012 137.021 175.244C140.06 168.61 141.68 166.609 144.573 163.197C147.023 160.264 148.833 160.29 152.113 160.539Z" fill="#E4A10A"/>
<path d="M163.163 91.4471C165.203 98.0602 163.103 99.1642 158.883 100.755C156.084 101.617 154.243 100.831 150.79 98.6851C142.728 91.942 140.482 85.6168 145.412 81.9981C148.464 80.8443 150.335 80.3752 154.455 80.3649C161.717 82.1281 162.261 85.4622 163.163 91.4471Z" fill="black" stroke="black" stroke-width="0.477754"/>
<path d="M160.926 91.0336C162.462 96.0129 160.881 96.8441 157.703 98.0419C155.595 98.6913 154.21 98.0991 151.609 96.4834C145.539 91.4063 143.848 86.6437 147.56 83.9191C149.858 83.0503 151.267 82.6971 154.369 82.6893C159.837 84.0169 160.246 86.5273 160.926 91.0336Z" fill="#4965E0" stroke="black" stroke-width="0.477754"/>
<path d="M147.57 177.873C143.056 179.687 142.11 178.041 140.655 174.713C139.826 172.501 140.237 171.009 141.483 168.19C145.617 161.561 149.912 159.59 152.857 163.428C153.912 165.834 154.39 167.316 154.721 170.607C154.044 176.457 151.73 176.985 147.57 177.873Z" fill="#4965E0" stroke="black" stroke-width="0.477754"/>
<path d="M155.773 88.8371C156.58 91.769 156.237 93.281 155.478 95.9538C152.913 93.5723 152.352 92.4783 152.001 90.6957L151.242 86.7124C153.292 86.6829 154.276 87.0685 155.773 88.8371Z" fill="#ECE0FF"/>
<path d="M150.187 170.981C148.592 173.432 147.266 174.072 144.822 175.079C144.854 171.521 145.277 170.393 146.339 169.017L148.731 165.965C150.109 167.63 150.48 168.672 150.187 170.981Z" fill="#ECE0FF"/>
<path d="M364.687 180.054C366.85 182.777 368.318 183.548 372.372 180.899C379.354 174.942 378.376 172.664 379.833 167.91C380.369 164.507 379.837 163.054 376.784 161.4C375.115 158.96 373.739 158.042 370.422 157.556C366.087 164.018 365.106 166.654 363.493 171.279C362.089 175.218 362.951 176.976 364.687 180.054Z" fill="#14000C"/>
<path d="M366.155 178.074C367.99 180.383 369.235 181.037 372.673 178.791C378.595 173.738 377.765 171.806 379.001 167.774C379.455 164.888 379.005 163.656 376.415 162.253C375 160.184 373.833 159.405 371.02 158.992C367.343 164.473 366.511 166.709 365.142 170.631C363.952 173.972 364.683 175.463 366.155 178.074Z" fill="#E4A10A"/>
<path d="M374.523 174.35C372.503 177.484 371.34 176.936 369.258 175.622C367.957 174.684 367.657 173.61 367.367 171.367C367.402 165.544 369.234 162.416 372.387 163.356C373.893 164.305 374.719 164.968 376.118 166.774C377.854 170.559 376.671 171.927 374.523 174.35Z" fill="black" stroke="black" stroke-width="0.259332"/>
<path d="M373.93 173.222C372.409 175.583 371.533 175.17 369.966 174.18C368.986 173.474 368.76 172.666 368.542 170.977C368.568 166.592 369.948 164.237 372.322 164.945C373.456 165.66 374.077 166.159 375.131 167.518C376.438 170.369 375.547 171.398 373.93 173.222Z" fill="#4965E0" stroke="black" stroke-width="0.259332"/>
<path d="M374.064 171.238C373.136 172.585 372.4 172.946 371.047 173.518C371.155 171.585 371.413 170.969 372.025 170.211L373.401 168.529C374.107 169.419 374.282 169.982 374.064 171.238Z" fill="#ECE0FF"/>
<path d="M372.04 168.129L370.074 170.531L370.538 167.384L371.423 166.303L371.469 167.185L372.04 168.129Z" fill="#FEDEFF"/>
<path d="M317.727 163.005C319.766 162.45 320.596 161.794 320.428 158.753C319.421 153.153 317.96 153.134 315.943 151.06C314.349 149.87 313.445 149.804 311.693 151.153C309.945 151.494 309.067 152.058 307.838 153.862C309.885 158.052 310.953 159.303 312.858 161.435C314.471 163.268 315.63 163.221 317.727 163.005Z" fill="#E4A10A"/>
<path d="M318.377 156.135C319.577 158.474 318.84 159.106 317.318 160.133C316.297 160.74 315.541 160.62 314.078 160.136C310.557 158.34 309.296 156.131 310.962 154.254C312.062 153.51 312.752 153.145 314.334 152.735C317.235 152.697 317.654 153.924 318.377 156.135Z" fill="black" stroke="black" stroke-width="0.187383"/>
<path d="M317.487 156.199C318.39 157.961 317.835 158.436 316.689 159.21C315.92 159.667 315.351 159.576 314.25 159.212C311.598 157.86 310.649 156.197 311.903 154.784C312.732 154.223 313.251 153.949 314.442 153.64C316.627 153.611 316.942 154.535 317.487 156.199Z" fill="#4965E0" stroke="black" stroke-width="0.187383"/>
<path d="M316.325 155.505C316.82 156.552 316.783 157.167 316.659 158.269C315.524 157.607 315.239 157.242 314.992 156.591L314.45 155.136C315.236 154.922 315.638 154.974 316.325 155.505Z" fill="#ECE0FF"/>
<path d="M313.734 155.944L314.508 158.023L312.759 156.747L312.41 155.811L312.962 156.049L313.734 155.944Z" fill="#FEDEFF"/>
<path d="M325.454 161.827C327.788 161.967 328.875 161.56 329.674 158.214C330.406 151.802 328.868 151.252 327.402 148.28C326.099 146.417 325.164 146.017 322.88 146.839C320.922 146.574 319.813 146.864 317.936 148.366C318.755 153.633 319.482 155.372 320.811 158.365C321.928 160.93 323.169 161.299 325.454 161.827Z" fill="#14000C"/>
<path d="M325.277 160.139C327.257 160.257 328.179 159.912 328.856 157.074C329.477 151.636 328.173 151.169 326.929 148.649C325.824 147.068 325.032 146.73 323.094 147.427C321.434 147.202 320.493 147.448 318.901 148.722C319.596 153.189 320.213 154.664 321.34 157.203C322.287 159.378 323.339 159.691 325.277 160.139Z" fill="#E4A10A"/>
<path d="M327.727 154.047C328.165 156.559 327.333 156.91 325.689 157.383C324.608 157.625 323.963 157.282 322.784 156.389C320.115 153.661 319.586 151.25 321.591 150.044C322.78 149.7 323.497 149.578 325.027 149.689C327.638 150.547 327.68 151.8 327.727 154.047Z" fill="black" stroke="black" stroke-width="0.178242"/>
<path d="M326.919 153.835C327.25 155.726 326.623 155.991 325.385 156.347C324.571 156.529 324.085 156.271 323.198 155.598C321.188 153.544 320.79 151.728 322.3 150.82C323.194 150.562 323.735 150.47 324.887 150.554C326.853 151.199 326.884 152.142 326.919 153.835Z" fill="#4965E0" stroke="black" stroke-width="0.178242"/>
<path d="M324.842 152.751C325.001 153.862 324.8 154.414 324.39 155.385C323.552 154.429 323.396 154.007 323.352 153.336L323.262 151.836C324.025 151.882 324.371 152.052 324.842 152.751Z" fill="#ECE0FF"/>
<path d="M333.436 160.109C335.56 160.424 336.584 160.137 337.551 157.123C338.674 151.284 337.306 150.655 336.174 147.804C335.115 145.987 334.288 145.545 332.14 146.118C330.368 145.717 329.333 145.896 327.51 147.127C327.887 152.038 328.429 153.695 329.433 156.555C330.274 159.003 331.383 159.441 333.436 160.109Z" fill="#14000C"/>
<path d="M333.392 158.546C335.194 158.813 336.062 158.57 336.882 156.014C337.835 151.061 336.674 150.528 335.715 148.11C334.816 146.568 334.115 146.193 332.293 146.68C330.791 146.34 329.913 146.491 328.366 147.536C328.686 151.7 329.146 153.106 329.997 155.531C330.71 157.608 331.651 157.979 333.392 158.546Z" fill="#E4A10A"/>
<path d="M336.062 153.138C336.286 155.483 335.499 155.74 333.962 156.044C332.956 156.18 332.39 155.813 331.375 154.897C329.127 152.175 328.813 149.915 330.732 148.965C331.844 148.745 332.509 148.69 333.901 148.914C336.229 149.911 336.178 151.067 336.062 153.138Z" fill="black" stroke="black" stroke-width="0.16404"/>
<path d="M335.332 152.868C335.5 154.634 334.908 154.827 333.751 155.056C332.993 155.159 332.567 154.882 331.803 154.193C330.11 152.143 329.874 150.441 331.319 149.727C332.156 149.56 332.656 149.519 333.704 149.688C335.457 150.439 335.419 151.309 335.332 152.868Z" fill="#4965E0" stroke="black" stroke-width="0.16404"/>
<path d="M334.625 151.888C334.691 152.923 334.469 153.415 334.024 154.275C333.326 153.329 333.213 152.929 333.22 152.307L333.244 150.92C333.938 151.024 334.243 151.208 334.625 151.888Z" fill="#ECE0FF"/>
<path d="M332.417 151.331L332.383 153.312L331.387 151.645L331.402 150.753L331.768 151.144L332.417 151.331Z" fill="#FEDEFF"/>
<path d="M341.372 161.41C343.767 162.393 345.032 162.346 346.923 159.06C349.714 152.475 348.281 151.338 347.687 147.642C346.914 145.187 346.064 144.427 343.416 144.489C341.455 143.507 340.204 143.42 337.767 144.354C336.96 150.27 337.171 152.386 337.614 156.057C337.971 159.194 339.151 160.031 341.372 161.41Z" fill="#14000C"/>
<path d="M341.714 159.533C343.745 160.366 344.818 160.327 346.423 157.539C348.79 151.955 347.574 150.991 347.071 147.856C346.415 145.774 345.694 145.129 343.448 145.182C341.785 144.348 340.724 144.275 338.657 145.067C337.972 150.085 338.151 151.879 338.527 154.993C338.83 157.653 339.83 158.363 341.714 159.533Z" fill="#E4A10A"/>
<path d="M346.203 153.905C345.868 156.744 344.887 156.822 343.02 156.74C341.813 156.613 341.247 156.016 340.297 154.641C338.371 150.775 338.579 148.012 341.056 147.441C342.406 147.498 343.194 147.624 344.758 148.289C347.217 150.137 346.864 151.489 346.203 153.905Z" fill="black" stroke="black" stroke-width="0.197565"/>
<path d="M345.42 153.384C345.168 155.521 344.429 155.58 343.023 155.518C342.115 155.422 341.689 154.973 340.974 153.938C339.523 151.027 339.68 148.947 341.544 148.516C342.561 148.56 343.155 148.654 344.332 149.155C346.183 150.546 345.918 151.565 345.42 153.384Z" fill="#4965E0" stroke="black" stroke-width="0.197565"/>
<path d="M344.187 151.488C343.953 153.057 343.468 153.711 342.538 154.836C341.814 153.169 341.777 152.53 341.986 151.604L342.467 149.541C343.455 149.947 343.844 150.333 344.187 151.488Z" fill="#ECE0FF"/>
<path d="M349.005 164.673C351.195 166.7 352.488 167.215 355.193 164.818C359.599 159.575 358.419 157.822 358.704 153.922C358.51 151.165 357.83 150.041 355.133 148.929C353.382 147.094 352.135 146.455 349.442 146.295C347.206 151.759 346.912 153.933 346.481 157.741C346.09 160.986 347.085 162.332 349.005 164.673Z" fill="#14000C"/>
<path d="M349.802 162.982C351.659 164.701 352.756 165.138 355.05 163.105C358.787 158.658 357.786 157.171 358.028 153.864C357.863 151.525 357.287 150.572 354.999 149.629C353.514 148.073 352.457 147.531 350.173 147.395C348.276 152.029 348.026 153.873 347.661 157.103C347.33 159.855 348.173 160.996 349.802 162.982Z" fill="#E4A10A"/>
<path d="M355.697 159.434C354.677 162.079 353.664 161.721 351.792 160.813C350.601 160.154 350.171 159.316 349.538 157.543C348.513 152.886 349.387 150.26 352.032 150.794C353.387 151.449 354.155 151.922 355.58 153.268C357.628 156.175 356.946 157.349 355.697 159.434Z" fill="black" stroke="black" stroke-width="0.228516"/>
<path d="M355.03 158.576C354.261 160.568 353.499 160.298 352.089 159.615C351.192 159.118 350.868 158.487 350.392 157.153C349.62 153.646 350.278 151.669 352.27 152.071C353.29 152.564 353.869 152.92 354.942 153.934C356.483 156.122 355.97 157.007 355.03 158.576Z" fill="#4965E0" stroke="black" stroke-width="0.228516"/>
<path d="M354.776 156.98C354.29 158.121 353.777 158.46 352.818 159.01C352.554 157.458 352.645 156.947 352.989 156.299L353.766 154.86C354.481 155.523 354.72 155.961 354.776 156.98Z" fill="#ECE0FF"/>
<path d="M352.625 154.632L351.516 156.688L351.311 154.14L351.811 153.215L352.006 153.917L352.625 154.632Z" fill="#FEDEFF"/>
<path d="M356.173 172.445C358.394 174.79 359.822 175.382 363.408 172.583C369.482 166.468 368.4 164.436 369.407 159.902C369.654 156.699 369.05 155.396 366.077 154.117C364.338 151.993 362.986 151.257 359.854 151.083C356.288 157.445 355.568 159.974 354.406 164.401C353.388 168.174 354.324 169.734 356.173 172.445Z" fill="#14000C"/>
<path d="M357.395 170.479C359.279 172.468 360.49 172.97 363.532 170.596C368.683 165.41 367.765 163.687 368.619 159.841C368.829 157.124 368.317 156.019 365.795 154.935C364.32 153.133 363.173 152.508 360.517 152.361C357.493 157.757 356.882 159.901 355.896 163.657C355.034 166.857 355.827 168.179 357.395 170.479Z" fill="#E4A10A"/>
<path d="M364.93 166.315C363.278 169.394 362.151 168.983 360.111 167.938C358.827 167.177 358.466 166.206 358.029 164.148C357.629 158.741 359.107 155.685 362.119 156.292C363.596 157.046 364.416 157.592 365.856 159.15C367.757 162.518 366.755 163.887 364.93 166.315Z" fill="black" stroke="black" stroke-width="0.242227"/>
<path d="M364.293 165.324C363.048 167.642 362.2 167.332 360.664 166.545C359.697 165.973 359.425 165.241 359.096 163.692C358.795 159.621 359.908 157.319 362.176 157.777C363.288 158.345 363.905 158.756 364.989 159.929C366.421 162.464 365.667 163.495 364.293 165.324Z" fill="#4965E0" stroke="black" stroke-width="0.242227"/>
<path d="M364.271 163.47C363.504 164.798 362.844 165.195 361.624 165.839C361.581 164.036 361.776 163.442 362.291 162.687L363.451 161.011C364.176 161.778 364.381 162.285 364.271 163.47Z" fill="#ECE0FF"/>
<path d="M362.149 160.754L360.492 163.148L360.691 160.188L361.437 159.111L361.545 159.926L362.149 160.754Z" fill="#FEDEFF"/>
<path d="M381.273 46.3309C382.841 40.9095 384.499 38.7559 391.7 39.58C404.869 42.9772 404.735 46.9123 409.413 52.5963C412.043 57.032 412.089 59.4746 408.671 64.0251C407.647 68.6894 406.202 70.9846 401.769 74.0715C392.073 68.0463 389.233 65.0191 384.404 59.6307C380.25 55.063 380.505 51.9482 381.273 46.3309Z" fill="#14000C"/>
<path d="M384.439 48.0739C385.768 43.4758 387.175 41.6493 393.282 42.3482C404.451 45.2295 404.338 48.567 408.305 53.3878C410.536 57.1499 410.575 59.2216 407.676 63.081C406.808 67.0369 405.582 68.9835 401.822 71.6016C393.598 66.4915 391.19 63.924 387.094 59.3539C383.571 55.4799 383.787 52.8382 384.439 48.0739Z" fill="#E4A10A"/>
<path d="M398.352 47.308C393.765 44.3255 392.417 45.9433 390.191 49.3104C388.862 51.579 389.026 53.3188 389.849 56.7071C393.099 64.9345 397.416 68.0429 401.367 64.4325C402.98 61.9985 403.786 60.4622 404.776 56.8924C405.155 50.2728 402.727 49.1891 398.352 47.308Z" fill="black" stroke="black" stroke-width="0.402235"/>
<path d="M398.133 49.3356C394.679 47.09 393.665 48.308 391.988 50.8433C390.988 52.5514 391.111 53.8614 391.731 56.4126C394.178 62.6073 397.428 64.9477 400.404 62.2294C401.618 60.3967 402.225 59.2399 402.97 56.5521C403.256 51.5679 401.428 50.7519 398.133 49.3356Z" fill="#4965E0" stroke="black" stroke-width="0.402235"/>
<path d="M399.405 52.0486C397.348 50.8107 396.106 50.8312 393.875 50.9987C395.09 53.6594 395.796 54.3469 397.079 54.9785L399.954 56.3671C400.466 54.5956 400.404 53.6719 399.405 52.0486Z" fill="#ECE0FF"/>
<path d="M398.251 57.9212L394.145 55.9375L396.532 60.0631L398.381 60.9558L397.96 59.672L398.251 57.9212Z" fill="#FEDEFF"/>
<path d="M324.183 101.653C327.95 100.843 329.762 101.232 331.453 106.457C333.399 116.672 330.97 117.948 328.945 123.133C327.053 126.48 325.585 127.361 321.783 126.598C318.64 127.518 316.808 127.325 313.585 125.358C314.291 116.612 315.264 113.612 317.065 108.425C318.572 103.988 320.54 103.08 324.183 101.653Z" fill="#14000C"/>
<path d="M324.087 104.428C327.283 103.741 328.819 104.071 330.254 108.503C331.904 117.166 329.844 118.249 328.126 122.646C326.521 125.485 325.276 126.232 322.052 125.585C319.386 126.365 317.832 126.201 315.099 124.533C315.698 117.115 316.523 114.571 318.05 110.172C319.329 106.408 320.998 105.638 324.087 104.428Z" fill="#E4A10A"/>
<path d="M328.79 113.698C329.204 109.515 327.812 109.153 325.091 108.797C323.31 108.674 322.304 109.392 320.498 111.134C316.494 116.225 315.921 120.266 319.315 121.721C321.283 121.981 322.46 122 324.928 121.438C329.061 119.396 328.98 117.354 328.79 113.698Z" fill="black" stroke="black" stroke-width="0.290639"/>
<path d="M327.491 114.252C327.802 111.102 326.754 110.83 324.706 110.561C323.365 110.469 322.607 111.009 321.247 112.321C318.233 116.154 317.801 119.197 320.357 120.293C321.838 120.488 322.725 120.502 324.583 120.079C327.695 118.542 327.634 117.004 327.491 114.252Z" fill="#4965E0" stroke="black" stroke-width="0.290639"/>
<path d="M326.234 116.069C326.359 114.228 325.969 113.383 325.188 111.911C323.943 113.67 323.741 114.393 323.748 115.493L323.78 117.948C325.011 117.682 325.553 117.319 326.234 116.069Z" fill="#ECE0FF"/>
<path d="M322.315 117.319L322.27 113.812L320.492 116.885L320.513 118.463L321.164 117.728L322.315 117.319Z" fill="#FEDEFF"/>
<path d="M335.694 100.515C338.924 98.6304 340.689 98.4213 343.661 102.586C348.223 111.144 346.346 113.035 345.901 118.307C345.08 121.889 343.974 123.13 340.285 123.616C337.657 125.407 335.926 125.798 332.439 125.026C330.705 116.968 330.78 113.979 331.017 108.776C331.19 104.334 332.746 102.915 335.694 100.515Z" fill="#14000C"/>
<path d="M336.364 103.035C339.104 101.437 340.601 101.26 343.121 104.792C346.99 112.05 345.398 113.654 345.021 118.125C344.324 121.163 343.387 122.216 340.257 122.628C338.029 124.147 336.56 124.479 333.603 123.824C332.132 116.99 332.196 114.455 332.397 110.042C332.544 106.274 333.863 105.071 336.364 103.035Z" fill="#E4A10A"/>
<path d="M343.191 109.901C342.432 106.023 341.059 106.127 338.469 106.645C336.804 107.083 336.079 108.036 334.899 110.153C332.617 115.948 333.192 119.748 336.696 120.008C338.57 119.635 339.653 119.29 341.761 118.027C344.99 114.925 344.36 113.119 343.191 109.901Z" fill="black" stroke="black" stroke-width="0.276462"/>
<path d="M342.16 110.795C341.588 107.875 340.554 107.953 338.605 108.343C337.351 108.673 336.805 109.39 335.916 110.985C334.198 115.348 334.631 118.209 337.27 118.405C338.68 118.124 339.496 117.864 341.083 116.913C343.515 114.578 343.04 113.218 342.16 110.795Z" fill="#4965E0" stroke="black" stroke-width="0.276462"/>
<path d="M339.811 113.829C339.425 112.14 338.838 111.503 337.722 110.423C337.06 112.383 337.072 113.093 337.378 114.077L338.075 116.268C339.13 115.652 339.528 115.159 339.811 113.829Z" fill="#ECE0FF"/>
<path d="M347.942 97.1826C350.779 95.2006 352.388 94.8683 355.415 98.4402C360.217 105.904 358.624 107.784 358.588 112.642C358.085 115.984 357.156 117.208 353.797 117.947C351.506 119.795 349.942 120.291 346.68 119.863C344.515 112.631 344.373 109.891 344.224 105.113C344.069 101.036 345.399 99.613 347.942 97.1826Z" fill="#14000C"/>
<path d="M348.74 99.4374C351.147 97.7564 352.512 97.4746 355.079 100.504C359.151 106.835 357.8 108.429 357.77 112.549C357.343 115.383 356.556 116.421 353.706 117.048C351.764 118.616 350.437 119.036 347.67 118.673C345.835 112.54 345.714 110.216 345.587 106.163C345.456 102.705 346.584 101.499 348.74 99.4374Z" fill="#E4A10A"/>
<path d="M355.504 105.164C354.532 101.678 353.276 101.883 350.931 102.563C349.43 103.096 348.83 104.026 347.894 106.057C346.205 111.54 347.003 114.97 350.245 114.928C351.941 114.438 352.914 114.035 354.763 112.711C357.514 109.616 356.807 108.015 355.504 105.164Z" fill="black" stroke="black" stroke-width="0.254434"/>
<path d="M354.615 106.065C353.883 103.44 352.937 103.594 351.172 104.106C350.042 104.508 349.59 105.208 348.886 106.737C347.614 110.866 348.214 113.448 350.655 113.417C351.933 113.047 352.665 112.744 354.057 111.748C356.128 109.417 355.596 108.211 354.615 106.065Z" fill="#4965E0" stroke="black" stroke-width="0.254434"/>
<path d="M354.152 107.962C353.677 106.448 353.092 105.912 351.989 105.013C351.519 106.859 351.58 107.508 351.931 108.383L352.727 110.331C353.654 109.683 353.985 109.201 354.152 107.962Z" fill="#ECE0FF"/>
<path d="M351.325 110.353L350.188 107.57L349.693 110.653L350.205 111.905L350.509 111.088L351.325 110.353Z" fill="#FEDEFF"/>
<path d="M358.481 89.6195C361.334 86.4965 363.152 85.6478 367.64 88.9389C375.215 96.2538 373.809 98.9008 374.999 104.569C375.254 108.605 374.466 110.297 370.68 112.123C368.44 114.933 366.715 115.959 362.748 116.397C358.352 108.595 357.487 105.445 356.097 99.9227C354.879 95.2185 356.091 93.1798 358.481 89.6195Z" fill="#14000C"/>
<path d="M359.991 92.0052C362.411 89.3565 363.953 88.6367 367.76 91.428C374.184 97.632 372.991 99.877 374.001 104.684C374.217 108.108 373.549 109.543 370.338 111.091C368.438 113.474 366.975 114.345 363.611 114.716C359.882 108.099 359.149 105.427 357.97 100.744C356.936 96.7539 357.964 95.0248 359.991 92.0052Z" fill="#E4A10A"/>
<path d="M369.449 96.7502C367.414 92.9691 365.981 93.568 363.38 95.0333C361.74 96.0854 361.267 97.3405 360.676 99.9747C360.07 106.846 361.885 110.611 365.709 109.632C367.591 108.574 368.639 107.826 370.49 105.753C372.958 101.359 371.714 99.6964 369.449 96.7502Z" fill="black" stroke="black" stroke-width="0.306432"/>
<path d="M368.63 98.0499C367.097 95.203 366.018 95.6539 364.06 96.7573C362.825 97.5494 362.469 98.4944 362.024 100.478C361.568 105.651 362.934 108.486 365.813 107.749C367.23 106.952 368.019 106.389 369.413 104.829C371.271 101.52 370.335 100.268 368.63 98.0499Z" fill="#4965E0" stroke="black" stroke-width="0.306432"/>
<path d="M367.921 101.634C366.726 99.5784 365.679 99.0022 363.743 98.0801C363.633 100.966 363.932 101.898 364.737 103.059L366.553 105.637C367.729 104.347 368.069 103.518 367.921 101.634Z" fill="#ECE0FF"/>
<path d="M367.503 79.4674C369.493 75.0117 371.042 73.3481 376.193 74.7896C385.32 79.0356 384.611 82.3729 387.159 87.6939C388.399 91.7415 388.054 93.8264 384.843 97.3503C383.37 101.217 381.954 103.023 378.226 105.197C372.053 99.0697 370.441 96.2 367.737 91.1151C365.4 86.7985 366.07 84.1723 367.503 79.4674Z" fill="#14000C"/>
<path d="M369.557 81.2786C371.245 77.4995 372.559 76.0885 376.927 77.3111C384.668 80.9123 384.067 83.7428 386.228 88.2557C387.28 91.6886 386.987 93.4568 384.264 96.4457C383.014 99.7253 381.814 101.257 378.652 103.1C373.416 97.9039 372.049 95.47 369.755 91.1574C367.773 87.4963 368.341 85.2689 369.557 81.2786Z" fill="#E4A10A"/>
<path d="M379.874 82.0488C376.975 79.0378 375.736 80.277 373.582 82.9157C372.256 84.7111 372.107 86.2096 372.185 89.1796C373.292 96.5199 375.974 99.6104 379.43 96.9418C380.99 95.0347 381.819 93.8092 383.098 90.8709C384.402 85.2726 382.79 84.1003 379.874 82.0488Z" fill="black" stroke="black" stroke-width="0.354438"/>
<path d="M379.398 83.7472C377.214 81.48 376.282 82.4131 374.66 84.3999C373.662 85.7517 373.549 86.88 373.608 89.1162C374.441 94.643 376.461 96.97 379.063 94.9607C380.237 93.5248 380.862 92.602 381.825 90.3897C382.807 86.1745 381.593 85.2918 379.398 83.7472Z" fill="#4965E0" stroke="black" stroke-width="0.354438"/>
<path d="M379.91 86.1932C378.594 84.9277 377.681 84.8176 376.019 84.731C376.498 87.1217 376.908 87.7797 377.751 88.4494L379.643 89.9273C380.293 88.4712 380.391 87.6783 379.91 86.1932Z" fill="#ECE0FF"/>
<path d="M378.156 91.08L375.453 88.9688L376.564 92.7274L377.78 93.6775L377.671 92.541L378.156 91.08Z" fill="#FEDEFF"/>
<path d="M373.396 63.2816C375.254 58.3533 376.953 56.4824 383.575 57.8564C395.544 62.1334 395.127 65.795 399.046 71.4932C401.157 75.8542 401.019 78.1379 397.508 82.098C396.211 86.3654 394.7 88.3863 390.356 90.8951C381.805 84.4571 379.395 81.393 375.314 75.9581C371.798 71.3458 372.266 68.4601 373.396 63.2816Z" fill="#14000C"/>
<path d="M376.207 65.1743C377.783 60.9944 379.224 59.4077 384.84 60.573C394.991 64.2005 394.638 67.306 397.962 72.1388C399.752 75.8375 399.634 77.7744 396.657 81.1331C395.557 84.7525 394.275 86.4664 390.591 88.5942C383.339 83.1339 381.295 80.5352 377.833 75.9256C374.852 72.0138 375.249 69.5663 376.207 65.1743Z" fill="#E4A10A"/>
<path d="M389.168 65.6296C385.133 62.4607 383.762 63.8574 381.446 66.8131C380.044 68.8189 380.067 70.4566 380.579 73.6882C382.984 81.6403 386.759 84.9041 390.694 81.8663C392.372 79.7299 393.234 78.3637 394.418 75.115C395.262 68.9683 393.089 67.7529 389.168 65.6296Z" fill="black" stroke="black" stroke-width="0.375705"/>
<path d="M388.814 67.4976C385.776 65.1116 384.743 66.1632 382.999 68.3887C381.944 69.8989 381.961 71.132 382.346 73.5652C384.157 79.5527 387 82.0102 389.963 79.7228C391.226 78.1143 391.875 77.0856 392.767 74.6395C393.402 70.0114 391.766 69.0963 388.814 67.4976Z" fill="#4965E0" stroke="black" stroke-width="0.375705"/>
<path d="M389.797 70.1432C387.981 68.815 386.827 68.7298 384.743 68.6988C385.674 71.2842 386.277 71.9852 387.421 72.6825L389.986 74.22C390.592 72.6095 390.604 71.7422 389.797 70.1432Z" fill="#ECE0FF"/>
<path d="M388.289 75.5246L384.625 73.3281L386.535 77.3794L388.183 78.3678L387.889 77.1342L388.289 75.5246Z" fill="#FEDEFF"/>
<path d="M415.418 37.0072C416.056 41.7027 415.504 43.9691 409.615 46.1383C398.197 48.6805 396.952 45.6614 391.361 43.1885C387.793 40.8631 386.919 39.0391 388.02 34.2832C387.218 30.3694 387.556 28.0788 389.949 24.0332C399.564 24.8186 402.813 26.0008 408.42 28.1923C413.221 30.0265 414.09 32.474 415.418 37.0072Z" fill="#14000C"/>
<path d="M412.353 36.9134C412.894 40.8958 412.426 42.8181 407.431 44.6578C397.747 46.8139 396.691 44.2534 391.949 42.156C388.923 40.1837 388.182 38.6368 389.116 34.6031C388.435 31.2837 388.722 29.3409 390.752 25.9097C398.906 26.5758 401.662 27.5785 406.418 29.4372C410.489 30.9928 411.226 33.0687 412.353 36.9134Z" fill="#E4A10A"/>
<path d="M401.789 42.8871C406.383 43.3585 406.877 41.6164 407.456 38.2146C407.713 35.989 406.988 34.7409 405.186 32.5048C399.834 27.5608 395.408 26.8899 393.569 31.1435C393.148 33.6038 393.048 35.0746 393.501 38.1501C395.476 43.2883 397.737 43.1645 401.789 42.8871Z" fill="black" stroke="black" stroke-width="0.341291"/>
<path d="M401.267 41.2865C404.725 41.6414 405.098 40.3298 405.534 37.7684C405.727 36.0926 405.181 35.1529 403.824 33.4692C399.795 29.7467 396.462 29.2415 395.078 32.4443C394.761 34.2967 394.685 35.4042 395.026 37.7198C396.513 41.5886 398.216 41.4954 401.267 41.2865Z" fill="#4965E0" stroke="black" stroke-width="0.341291"/>
<path d="M399.339 39.7233C401.365 39.8597 402.325 39.363 404.005 38.3719C402.146 36.8367 401.361 36.5917 400.145 36.6129L397.431 36.68C397.64 38.2139 398.005 38.8867 399.339 39.7233Z" fill="#ECE0FF"/>
<path d="M421.078 23.4355C421.972 27.0763 421.72 28.9137 417.224 31.1715C408.368 34.238 407.131 31.9749 402.489 30.5468C399.464 29.0467 398.62 27.6906 399.102 23.8403C398.143 20.8309 398.223 18.9943 399.789 15.5835C407.487 15.307 410.164 15.9361 414.796 17.1409C418.759 18.1392 419.65 19.987 421.078 23.4355Z" fill="#14000C"/>
<path d="M418.639 23.6502C419.397 26.738 419.183 28.2964 415.37 30.2113C407.859 32.8121 406.81 30.8927 402.872 29.6815C400.307 28.4092 399.591 27.2591 400 23.9935C399.187 21.4411 399.254 19.8834 400.583 16.9906C407.112 16.7561 409.382 17.2897 413.311 18.3114C416.672 19.1582 417.428 20.7253 418.639 23.6502Z" fill="#E4A10A"/>
<path d="M410.744 29.3383C414.43 29.282 414.679 27.8632 414.858 25.1286C414.879 23.3509 414.2 22.4348 412.585 20.8405C407.929 17.4429 404.36 17.3264 403.25 20.8496C403.119 22.8276 403.16 23.996 403.773 26.3773C405.764 30.2424 407.55 29.9343 410.744 29.3383Z" fill="black" stroke="black" stroke-width="0.271599"/>
<path d="M410.194 28.1167C412.969 28.0743 413.157 27.006 413.292 24.947C413.307 23.6085 412.797 22.9187 411.581 21.7183C408.075 19.1601 405.387 19.0724 404.552 21.7252C404.453 23.2145 404.484 24.0942 404.946 25.8872C406.445 28.7974 407.789 28.5654 410.194 28.1167Z" fill="#4965E0" stroke="black" stroke-width="0.271599"/>
<path d="M408.539 27.0704C410.158 26.9893 410.879 26.5084 412.131 25.571C410.529 24.5343 409.886 24.4143 408.922 24.5443L406.773 24.8499C407.065 26.0392 407.41 26.5354 408.539 27.0704Z" fill="#ECE0FF"/>
<path d="M426.351 15.564C426.844 17.9656 426.635 19.1582 423.652 20.5079C417.811 22.2652 417.061 20.7535 414.073 19.6929C412.14 18.6299 411.624 17.7213 412.032 15.2209C411.481 13.2297 411.578 12.0329 412.681 9.84936C417.7 9.88161 419.428 10.3663 422.414 11.2808C424.97 12.0421 425.505 13.2731 426.351 15.564Z" fill="#14000C"/>
<path d="M424.756 15.6427C425.174 17.6796 424.997 18.6911 422.467 19.8358C417.514 21.3263 416.877 20.0441 414.343 19.1446C412.704 18.243 412.266 17.4724 412.612 15.3518C412.145 13.6629 412.227 12.6478 413.163 10.7959C417.42 10.8233 418.885 11.2344 421.418 12.01C423.585 12.6557 424.039 13.6997 424.756 15.6427Z" fill="#E4A10A"/>
<path d="M419.478 19.1407C421.879 19.2057 422.076 18.2863 422.26 16.506C422.317 15.3459 421.898 14.7291 420.885 13.6436C417.936 11.2968 415.615 11.1221 414.807 13.3916C414.673 14.6793 414.671 15.4433 415.012 17.0149C416.214 19.5933 417.384 19.4415 419.478 19.1407Z" fill="black" stroke="black" stroke-width="0.177219"/>
<path d="M419.15 18.3249C420.958 18.3739 421.106 17.6817 421.244 16.3412C421.287 15.4677 420.971 15.0033 420.209 14.186C417.989 12.419 416.241 12.2874 415.632 13.9962C415.532 14.9658 415.53 15.541 415.787 16.7243C416.692 18.6657 417.573 18.5514 419.15 18.3249Z" fill="#4965E0" stroke="black" stroke-width="0.177219"/>
<path d="M418.099 17.5945C419.155 17.5863 419.636 17.2923 420.474 16.7149C419.457 15.9938 419.041 15.8976 418.41 15.9559L417.003 16.096C417.164 16.8805 417.377 17.214 418.099 17.5945Z" fill="#ECE0FF"/>
<path d="M429.649 10.7826C430.019 12.4058 429.895 13.2194 427.885 14.1861C423.938 15.4775 423.405 14.4632 421.356 13.7926C420.026 13.1029 419.661 12.4943 419.902 10.789C419.497 9.44559 419.545 8.63099 420.264 7.12931C423.679 7.0673 424.861 7.36766 426.907 7.93896C428.657 8.41337 429.039 9.2406 429.649 10.7826Z" fill="#14000C"/>
<path d="M428.569 10.8646C428.884 12.2412 428.778 12.9313 427.074 13.7512C423.725 14.8465 423.274 13.9862 421.536 13.4175C420.408 12.8325 420.098 12.3163 420.302 10.87C419.959 9.7306 420 9.0397 420.61 7.76607C423.506 7.71348 424.509 7.96823 426.244 8.45277C427.728 8.85513 428.052 9.55674 428.569 10.8646Z" fill="#E4A10A"/>
<path d="M425.027 13.3178C426.661 13.3218 426.782 12.694 426.88 11.4815C426.902 10.6926 426.608 10.2806 425.903 9.56017C423.862 8.0153 422.28 7.93544 421.764 9.49059C421.691 10.3675 421.702 10.8865 421.957 11.9484C422.813 13.6798 423.607 13.5571 425.027 13.3178Z" fill="black" stroke="black" stroke-width="0.120509"/>
<path d="M424.794 12.7741C426.024 12.7771 426.115 12.3044 426.189 11.3915C426.205 10.7975 425.984 10.4873 425.453 9.94484C423.916 8.78164 422.725 8.72151 422.336 9.89245C422.282 10.5527 422.29 10.9435 422.482 11.743C423.126 13.0467 423.724 12.9543 424.794 12.7741Z" fill="#4965E0" stroke="black" stroke-width="0.120509"/>
<path d="M424.065 12.2988C424.783 12.2756 425.106 12.0678 425.668 11.6616C424.965 11.1888 424.68 11.1304 424.252 11.1805L423.297 11.2992C423.419 11.8295 423.568 12.0524 424.065 12.2988Z" fill="#ECE0FF"/>
<path d="M333.582 92.2041C325.035 92.0757 321.275 90.2998 319.949 77.9225C320.311 54.4195 326.161 52.8392 332.891 42.4386C338.503 36.023 342.088 34.8269 350.004 38.4379C357.242 38.0064 361.136 39.3627 367.252 45.3353C361.789 64.2547 358.328 70.3739 352.087 80.8909C346.818 89.9071 342.135 90.9092 333.582 92.2041Z" fill="#14000C"/>
<path d="M335.035 86.1154C327.786 86.0066 324.597 84.5003 323.473 74.0027C323.78 54.069 328.741 52.7287 334.449 43.9076C339.209 38.4663 342.25 37.4518 348.963 40.5144C355.102 40.1485 358.405 41.2988 363.592 46.3644C358.959 62.4106 356.023 67.6005 350.73 76.5203C346.261 84.1673 342.289 85.0172 335.035 86.1154Z" fill="#E4A10A"/>
<path d="M328.998 63.3027C326.219 72.3128 329.08 73.8169 334.83 75.9843C338.644 77.1594 341.151 76.0878 345.857 73.1642C356.84 63.977 359.9 55.3592 353.183 50.4289C349.025 48.8569 346.475 48.2177 340.863 48.2037C330.969 50.606 330.228 55.1485 328.998 63.3027Z" fill="black" stroke="black" stroke-width="0.650919"/>
<path d="M332.049 62.7329C329.957 69.5169 332.111 70.6495 336.44 72.2814C339.312 73.1661 341.2 72.3593 344.743 70.158C353.013 63.2406 355.317 56.7519 350.259 53.0396C347.129 51.856 345.209 51.3748 340.983 51.3642C333.533 53.173 332.975 56.5932 332.049 62.7329Z" fill="#4965E0" stroke="black" stroke-width="0.650919"/>
<path d="M339.076 59.7404C337.976 63.735 338.445 65.7951 339.479 69.4367C342.973 66.192 343.738 64.7014 344.216 62.2728L345.249 56.8457C342.457 56.8055 341.117 57.3308 339.076 59.7404Z" fill="#ECE0FF"/>
<path d="M258.399 140.305C252.763 140.22 250.283 139.049 249.409 130.886C249.648 115.387 253.505 114.345 257.943 107.486C261.644 103.255 264.009 102.466 269.229 104.847C274.002 104.563 276.57 105.457 280.603 109.396C277.001 121.873 274.718 125.908 270.603 132.844C267.128 138.79 264.04 139.451 258.399 140.305Z" fill="#14000C"/>
<path d="M259.359 136.29C254.579 136.218 252.476 135.225 251.734 128.302C251.937 115.156 255.208 114.272 258.973 108.455C262.112 104.867 264.117 104.198 268.544 106.217C272.593 105.976 274.771 106.735 278.192 110.075C275.136 120.657 273.2 124.08 269.71 129.962C266.762 135.005 264.143 135.566 259.359 136.29Z" fill="#E4A10A"/>
<path d="M255.38 121.241C253.547 127.183 255.434 128.175 259.226 129.605C261.741 130.379 263.395 129.673 266.498 127.745C273.741 121.686 275.759 116.003 271.329 112.751C268.588 111.715 266.906 111.293 263.205 111.284C256.68 112.868 256.191 115.864 255.38 121.241Z" fill="black" stroke="black" stroke-width="0.429263"/>
<path d="M257.387 120.862C256.007 125.336 257.428 126.083 260.283 127.159C262.177 127.743 263.422 127.211 265.758 125.759C271.212 121.197 272.732 116.918 269.396 114.47C267.332 113.689 266.066 113.372 263.279 113.365C258.366 114.558 257.998 116.813 257.387 120.862Z" fill="#4965E0" stroke="black" stroke-width="0.429263"/>
<path d="M262.019 118.889C261.294 121.523 261.603 122.881 262.285 125.283C264.589 123.143 265.094 122.16 265.409 120.559L266.09 116.98C264.249 116.953 263.365 117.3 262.019 118.889Z" fill="#ECE0FF"/>
<path d="M292.195 112.665C285.922 112.571 283.162 111.268 282.189 102.183C282.454 84.9327 286.748 83.7728 291.687 76.1391C295.806 71.4303 298.438 70.5523 304.248 73.2027C309.56 72.886 312.418 73.8815 316.907 78.2652C312.898 92.1515 310.357 96.6427 305.777 104.362C301.909 110.98 298.472 111.715 292.195 112.665Z" fill="#14000C"/>
<path d="M293.264 108.199C287.944 108.119 285.603 107.014 284.778 99.3087C285.003 84.678 288.644 83.6943 292.834 77.2199C296.327 73.2261 298.559 72.4815 303.487 74.7294C307.993 74.4608 310.417 75.3051 314.224 79.0231C310.823 90.8005 308.668 94.6097 304.783 101.157C301.503 106.769 298.588 107.393 293.264 108.199Z" fill="#E4A10A"/>
<path d="M325.548 164.622C320.404 165.88 318.285 167.47 318.524 175.119C320.716 189.245 324.376 189.391 329.309 194.736C333.233 197.831 335.496 198.058 339.967 194.787C344.37 194.048 346.605 192.693 349.792 188.246C344.909 177.588 342.307 174.375 337.66 168.892C333.725 164.181 330.816 164.223 325.548 164.622Z" fill="#14000C"/>
<path d="M326.936 168.094C322.573 169.16 320.775 170.509 320.979 176.996C322.837 188.977 325.942 189.101 330.126 193.634C333.454 196.259 335.373 196.451 339.165 193.678C342.899 193.051 344.795 191.901 347.498 188.13C343.356 179.09 341.15 176.365 337.208 171.715C333.871 167.72 331.404 167.755 326.936 168.094Z" fill="#E4A10A"/>
<path d="M325.211 182.689C322.778 177.638 324.378 176.336 327.664 174.235C329.866 172.999 331.468 173.3 334.552 174.414C341.949 178.439 344.518 183.215 340.88 187.116C338.504 188.638 337.02 189.376 333.635 190.159C327.466 190.075 326.637 187.438 325.211 182.689Z" fill="black" stroke="black" stroke-width="0.398829"/>
<path d="M327.103 182.61C325.271 178.807 326.475 177.826 328.95 176.244C330.608 175.314 331.814 175.54 334.136 176.379C339.705 179.41 341.64 183.006 338.901 185.943C337.112 187.09 335.994 187.645 333.446 188.234C328.8 188.172 328.177 186.186 327.103 182.61Z" fill="#4965E0" stroke="black" stroke-width="0.398829"/>
<path d="M331.586 183.444C330.587 181.186 330.697 179.879 331.015 177.539C333.395 179.014 333.982 179.808 334.474 181.207L335.553 184.338C333.872 184.747 333.019 184.615 331.586 183.444Z" fill="#ECE0FF"/>
<path d="M298.873 157.994C295.097 158.916 293.541 160.083 293.717 165.697C295.326 176.066 298.013 176.173 301.633 180.096C304.513 182.368 306.174 182.534 309.456 180.133C312.687 179.591 314.327 178.596 316.667 175.332C313.083 167.51 311.173 165.151 307.762 161.127C304.874 157.67 302.739 157.7 298.873 157.994Z" fill="#14000C"/>
<path d="M299.887 160.539C296.685 161.321 295.366 162.311 295.515 167.072C296.879 175.866 299.158 175.957 302.229 179.284C304.671 181.211 306.08 181.352 308.863 179.316C311.604 178.856 312.995 178.012 314.979 175.244C311.94 168.61 310.32 166.609 307.427 163.197C304.977 160.264 303.167 160.29 299.887 160.539Z" fill="#E4A10A"/>
<path d="M288.837 91.4471C286.797 98.0602 288.897 99.1642 293.117 100.755C295.916 101.617 297.757 100.831 301.21 98.6851C309.272 91.942 311.518 85.6168 306.588 81.9981C303.536 80.8443 301.665 80.3752 297.545 80.3649C290.283 82.1281 289.739 85.4622 288.837 91.4471Z" fill="black" stroke="black" stroke-width="0.477754"/>
<path d="M291.074 91.0336C289.538 96.0129 291.119 96.8441 294.297 98.0419C296.405 98.6913 297.79 98.0991 300.391 96.4834C306.461 91.4063 308.152 86.6437 304.44 83.9191C302.142 83.0503 300.733 82.6971 297.631 82.6893C292.163 84.0169 291.754 86.5273 291.074 91.0336Z" fill="#4965E0" stroke="black" stroke-width="0.477754"/>
<path d="M304.43 177.873C308.944 179.687 309.89 178.041 311.345 174.713C312.174 172.501 311.763 171.009 310.517 168.19C306.383 161.561 302.088 159.59 299.143 163.428C298.088 165.834 297.61 167.316 297.279 170.607C297.956 176.457 300.27 176.985 304.43 177.873Z" fill="#4965E0" stroke="black" stroke-width="0.477754"/>
<path d="M296.227 88.8371C295.42 91.769 295.763 93.281 296.522 95.9538C299.087 93.5723 299.648 92.4783 299.999 90.6957L300.758 86.7124C298.708 86.6829 297.724 87.0685 296.227 88.8371Z" fill="#ECE0FF"/>
<path d="M301.813 170.981C303.408 173.432 304.734 174.072 307.178 175.079C307.146 171.521 306.723 170.393 305.661 169.017L303.269 165.965C301.891 167.63 301.52 168.672 301.813 170.981Z" fill="#ECE0FF"/>
</svg>
