<svg width="417" height="304" viewBox="0 0 417 304" fill="none" xmlns="http://www.w3.org/2000/svg">
<path d="M1.53571 0C129.578 32.0295 210.875 82.7596 260.008 187.51L265.429 210.331L273.452 181.803L274.041 180.633C301.883 125.377 317.674 94.0375 383.823 46.2595C401.176 32.4128 409.119 28.3988 416.782 34.8485C411.523 48.7948 404.665 60.9125 389.244 86.045C381.587 124.666 371.177 142.162 349.128 171.009C357.126 173.736 360.474 175.793 361.488 181.803C350.339 203.944 341.153 213.978 318.771 226.831C216.85 273.212 139.523 313.858 118.412 301.619C110.15 300.533 116.136 294.86 140.529 278.18C94.5937 265.922 67.1043 258.918 87.1871 251.503C64.7439 243.805 54.8339 229.115 54.8311 225.047C60.0645 206.49 97.0515 199.814 145.083 192.598C107.682 177.741 90.2884 169.312 66.5874 153.893C41.9929 131.081 34.629 116.549 38.1815 86.045C50.8645 47.8435 -10.3305 3.37749 1.53571 0Z" fill="#EE5801"/>
<path d="M81.5378 239.241C78.125 242.284 76.0179 243.005 71.1365 239.041C63.0018 230.473 64.7499 227.792 63.7388 221.626C63.6905 217.295 64.6819 215.57 69.0725 214.006C71.7726 211.235 73.7845 210.315 78.2976 210.249C82.8085 219.015 83.5996 222.462 84.8446 228.493C85.9439 233.634 84.4519 235.685 81.5378 239.241Z" fill="#14000C"/>
<path d="M79.9677 236.538C77.0732 239.118 75.2861 239.73 71.146 236.368C64.2467 229.101 65.7293 226.827 64.8717 221.598C64.8308 217.925 65.6716 216.462 69.3954 215.135C71.6854 212.785 73.3919 212.005 77.2196 211.949C81.0454 219.383 81.7164 222.307 82.7723 227.422C83.7047 231.782 82.4392 233.522 79.9677 236.538Z" fill="#0700C9"/>
<path d="M69.5484 230.526C71.6266 234.765 73.2835 234.271 76.3125 232.971C78.229 232.015 78.8395 230.724 79.664 227.974C80.7562 220.707 78.9267 216.507 74.5436 217.165C72.3518 218.103 71.122 218.795 68.9056 220.818C65.8533 225.256 67.1611 227.155 69.5484 230.526Z" fill="black" stroke="black" stroke-width="0.395184"/>
<path d="M70.5556 229.222C72.1204 232.413 73.368 232.042 75.6486 231.063C77.0917 230.343 77.5513 229.371 78.1721 227.3C78.9944 221.829 77.617 218.667 74.3167 219.162C72.6664 219.868 71.7405 220.389 70.0716 221.913C67.7735 225.254 68.7581 226.683 70.5556 229.222Z" fill="#040146" stroke="black" stroke-width="0.395184"/>
<path d="M70.7699 226.726C71.7434 228.557 72.6536 229.128 74.3436 230.061C74.5776 227.634 74.354 226.822 73.6871 225.777L72.1828 223.456C71.0684 224.451 70.7253 225.123 70.7699 226.726Z" fill="#ECE0FF"/>
<path d="M74.0737 223.168L76.2227 226.484L76.2201 222.483L75.253 220.991L75.0195 222.084L74.0737 223.168Z" fill="#FEDEFF"/>
<path d="M147.421 225.651C144.813 224.626 143.836 223.673 144.654 219.907C147.091 213.089 149.04 213.304 152.133 211.046C154.488 209.822 155.706 209.887 157.775 211.856C160.037 212.567 161.096 213.413 162.38 215.863C158.834 220.753 157.167 222.139 154.213 224.488C151.706 226.51 150.171 226.262 147.421 225.651Z" fill="#0700C9"/>
<path d="M147.898 216.974C145.843 219.696 146.701 220.604 148.527 222.133C149.769 223.057 150.8 223.03 152.842 222.665C157.884 221 159.996 218.451 158.142 215.839C156.823 214.732 155.976 214.164 153.949 213.395C150.092 212.873 149.294 214.335 147.898 216.974Z" fill="black" stroke="black" stroke-width="0.285545"/>
<path d="M149.07 217.191C147.522 219.24 148.168 219.924 149.543 221.075C150.478 221.771 151.254 221.75 152.792 221.476C156.588 220.222 158.178 218.303 156.783 216.336C155.789 215.502 155.152 215.075 153.625 214.496C150.721 214.103 150.121 215.204 149.07 217.191Z" fill="#040146" stroke="black" stroke-width="0.285545"/>
<path d="M150.749 216.522C149.886 217.747 149.815 218.52 149.764 219.914C151.406 219.274 151.856 218.865 152.312 218.094L153.319 216.367C152.314 215.973 151.768 215.971 150.749 216.522Z" fill="#ECE0FF"/>
<path d="M154.118 217.494L152.68 219.961L155.259 218.655L155.906 217.545L155.125 217.751L154.118 217.494Z" fill="#FEDEFF"/>
<path d="M137.35 222.92C134.215 222.714 132.846 222.029 132.436 217.726C132.714 209.611 134.871 209.175 137.405 205.709C139.504 203.598 140.827 203.252 143.71 204.65C146.369 204.638 147.789 205.181 149.996 207.36C147.875 213.795 146.566 215.844 144.211 219.361C142.222 222.377 140.497 222.635 137.35 222.92Z" fill="#14000C"/>
<path d="M137.921 220.841C135.261 220.666 134.1 220.085 133.753 216.436C133.989 209.553 135.818 209.184 137.967 206.243C139.747 204.453 140.87 204.16 143.314 205.346C145.57 205.335 146.774 205.796 148.646 207.644C146.847 213.102 145.737 214.84 143.74 217.822C142.052 220.38 140.59 220.599 137.921 220.841Z" fill="#0700C9"/>
<path d="M135.848 212.846C134.772 215.907 135.812 216.481 137.909 217.339C139.301 217.817 140.228 217.494 141.973 216.573C146.061 213.606 147.237 210.686 144.803 208.855C143.287 208.233 142.355 207.963 140.295 207.852C136.65 208.495 136.349 210.051 135.848 212.846Z" fill="black" stroke="black" stroke-width="0.271616"/>
<path d="M136.972 212.705C136.163 215.01 136.946 215.442 138.525 216.088C139.573 216.448 140.271 216.205 141.585 215.511C144.662 213.277 145.548 211.079 143.715 209.7C142.574 209.232 141.872 209.029 140.321 208.945C137.576 209.429 137.35 210.601 136.972 212.705Z" fill="#040146" stroke="black" stroke-width="0.271616"/>
<path d="M139.952 211.699C139.524 213.059 139.683 213.78 140.04 215.058C141.342 214.002 141.632 213.502 141.823 212.672L142.236 210.816C141.211 210.749 140.716 210.905 139.952 211.699Z" fill="#ECE0FF"/>
<path d="M127.06 219.475C124.169 219.521 122.862 218.996 122.163 215.08C121.809 207.615 123.754 207.054 125.818 203.684C127.585 201.59 128.773 201.174 131.522 202.239C133.96 202.029 135.304 202.42 137.492 204.253C136.029 210.315 134.983 212.293 133.086 215.695C131.488 218.611 129.925 218.977 127.06 219.475Z" fill="#14000C"/>
<path d="M127.427 217.531C124.974 217.57 123.866 217.124 123.273 213.803C122.973 207.472 124.622 206.996 126.373 204.137C127.872 202.362 128.879 202.009 131.21 202.912C133.278 202.734 134.418 203.065 136.274 204.621C135.033 209.762 134.146 211.439 132.537 214.325C131.182 216.798 129.857 217.108 127.427 217.531Z" fill="#0700C9"/>
<path d="M124.926 210.353C124.169 213.241 125.167 213.69 127.154 214.319C128.467 214.653 129.293 214.288 130.825 213.311C134.351 210.283 135.211 207.516 132.84 206.019C131.403 205.563 130.528 205.386 128.631 205.438C125.335 206.302 125.176 207.751 124.926 210.353Z" fill="black" stroke="black" stroke-width="0.249974"/>
<path d="M125.946 210.135C125.376 212.31 126.127 212.647 127.624 213.121C128.613 213.373 129.234 213.097 130.387 212.363C133.043 210.082 133.69 207.999 131.905 206.872C130.823 206.528 130.164 206.395 128.736 206.435C126.254 207.085 126.135 208.176 125.946 210.135Z" fill="#040146" stroke="black" stroke-width="0.249974"/>
<path d="M127.079 209.032C126.788 210.311 126.988 210.96 127.411 212.106C128.527 211.04 128.755 210.559 128.868 209.783L129.107 208.05C128.162 208.066 127.72 208.246 127.079 209.032Z" fill="#ECE0FF"/>
<path d="M130.131 208.696L129.789 211.172L131.441 209.255L131.595 208.141L131.032 208.568L130.131 208.696Z" fill="#FEDEFF"/>
<path d="M116.24 219.796C112.859 220.631 111.183 220.366 109.306 215.959C106.876 207.293 109.007 206.109 110.521 201.596C112.03 198.662 113.311 197.853 116.826 198.362C119.63 197.456 121.313 197.553 124.376 199.114C124.295 206.624 123.601 209.228 122.293 213.733C121.204 217.587 119.469 218.438 116.24 219.796Z" fill="#14000C"/>
<path d="M116.15 217.412C113.282 218.12 111.861 217.896 110.269 214.157C108.208 206.807 110.016 205.803 111.299 201.976C112.579 199.487 113.666 198.801 116.647 199.232C119.026 198.465 120.453 198.546 123.051 199.871C122.982 206.24 122.393 208.449 121.284 212.27C120.36 215.538 118.888 216.26 116.15 217.412Z" fill="#0700C9"/>
<path d="M111.27 209.651C111.161 213.246 112.453 213.503 114.955 213.705C116.587 213.743 117.457 213.091 118.991 211.532C122.314 207.026 122.576 203.546 119.39 202.429C117.579 202.281 116.505 202.309 114.292 202.883C110.656 204.786 110.861 206.53 111.27 209.651Z" fill="black" stroke="black" stroke-width="0.30106"/>
<path d="M112.412 209.133C112.33 211.84 113.303 212.034 115.187 212.186C116.416 212.215 117.071 211.724 118.226 210.55C120.728 207.157 120.925 204.537 118.526 203.696C117.163 203.584 116.354 203.606 114.688 204.038C111.95 205.47 112.105 206.784 112.412 209.133Z" fill="#040146" stroke="black" stroke-width="0.30106"/>
<path d="M114.429 206.967C114.434 208.963 114.952 209.857 115.97 211.411C117.261 209.451 117.435 208.66 117.337 207.471L117.101 204.819C115.706 205.165 115.111 205.583 114.429 206.967Z" fill="#ECE0FF"/>
<path d="M105.43 222.618C102.116 224.788 100.293 225.219 97.1592 221.789C92.3153 214.533 94.2296 212.539 94.6124 207.629C95.4103 204.223 96.5354 202.931 100.345 201.985C103.037 199.983 104.822 199.389 108.44 199.628C110.351 206.807 110.317 209.567 110.147 214.386C110.033 218.496 108.444 220.012 105.43 222.618Z" fill="#14000C"/>
<path d="M104.698 220.393C101.888 222.234 100.342 222.599 97.684 219.69C93.5757 213.536 95.1993 211.844 95.524 207.68C96.2007 204.791 97.1549 203.696 100.386 202.894C102.669 201.195 104.183 200.692 107.252 200.895C108.872 206.983 108.844 209.324 108.699 213.411C108.602 216.897 107.255 218.183 104.698 220.393Z" fill="#0700C9"/>
<path d="M97.5384 214.997C98.38 218.462 99.799 218.181 102.47 217.355C104.186 216.727 104.923 215.752 106.112 213.644C108.388 208.005 107.738 204.587 104.109 204.821C102.177 205.417 101.061 205.881 98.8996 207.328C95.6042 210.618 96.2823 212.194 97.5384 214.997Z" fill="black" stroke="black" stroke-width="0.348225"/>
<path d="M98.5937 214.037C99.2275 216.645 100.296 216.434 102.307 215.812C103.599 215.339 104.154 214.605 105.049 213.018C106.763 208.772 106.273 206.199 103.541 206.375C102.086 206.823 101.246 207.173 99.6186 208.262C97.1374 210.739 97.648 211.926 98.5937 214.037Z" fill="#040146" stroke="black" stroke-width="0.348225"/>
<path d="M99.2461 212.091C99.6702 213.592 100.287 214.099 101.457 214.942C102.113 213.049 102.091 212.397 101.76 211.534L101.006 209.612C99.924 210.322 99.52 210.829 99.2461 212.091Z" fill="#ECE0FF"/>
<path d="M102.568 209.513L103.645 212.258L104.415 209.114L103.931 207.879L103.533 208.723L102.568 209.513Z" fill="#FEDEFF"/>
<path d="M94.365 231.134C90.9485 233.696 88.9305 234.201 84.7003 230.126C77.8059 221.509 79.6447 219.152 79.1904 213.334C79.4875 209.299 80.5464 207.772 84.7562 206.663C87.488 204.298 89.4332 203.6 93.6387 203.895C97.1448 212.409 97.6089 215.68 98.2914 221.391C98.9086 226.263 97.3579 228.054 94.365 231.134Z" fill="#14000C"/>
<path d="M93.1214 228.493C90.2238 230.666 88.5122 231.094 84.9245 227.638C79.0771 220.33 80.6366 218.331 80.2513 213.396C80.5033 209.974 81.4014 208.679 84.9719 207.738C87.2888 205.732 88.9386 205.14 92.5054 205.391C95.4791 212.612 95.8727 215.386 96.4515 220.23C96.975 224.361 95.6598 225.881 93.1214 228.493Z" fill="#0700C9"/>
<path d="M83.9008 222.078C85.5003 226.187 87.0814 225.858 90.0031 224.888C91.8623 224.149 92.5325 222.996 93.5169 220.502C95.1073 213.824 93.7362 209.772 89.6049 210.038C87.4909 210.738 86.2918 211.284 84.0691 212.992C80.878 216.882 81.9452 218.752 83.9008 222.078Z" fill="black" stroke="black" stroke-width="0.369119"/>
<path d="M84.9399 220.937C86.1442 224.031 87.3347 223.783 89.5346 223.053C90.9345 222.496 91.439 221.628 92.1803 219.75C93.3777 214.723 92.3454 211.671 89.2347 211.871C87.643 212.398 86.7401 212.81 85.0666 214.096C82.6639 217.024 83.4674 218.433 84.9399 220.937Z" fill="#040146" stroke="black" stroke-width="0.369119"/>
<path d="M85.3326 218.63C86.0941 220.411 86.8961 221.014 88.3953 222.016C88.8048 219.776 88.6607 219.003 88.1225 217.978L86.9058 215.698C85.7901 216.536 85.4177 217.135 85.3326 218.63Z" fill="#ECE0FF"/>
<path d="M88.6876 215.587L90.4258 218.844L90.7393 215.12L89.9571 213.655L89.6535 214.653L88.6876 215.587Z" fill="#FEDEFF"/>
<path d="M85.5893 69.7899C84.5608 62.7735 82.7735 59.8174 73.0212 59.6703C54.8157 61.7581 54.2246 66.687 46.8823 73.0119C42.5119 78.1141 41.9731 81.1526 45.6365 87.3848C46.0882 93.3683 47.5643 96.4662 52.8654 101.039C66.9584 95.1074 71.3324 91.7956 78.8183 85.8641C85.2447 80.8458 85.5138 76.9201 85.5893 69.7899Z" fill="#14000C"/>
<path d="M81.0278 71.4437C80.1555 65.4929 78.6396 62.9857 70.3683 62.8609C54.9276 64.6316 54.4263 68.8121 48.199 74.1764C44.4924 78.5038 44.0353 81.0808 47.1424 86.3666C47.5255 91.4414 48.7774 94.0688 53.2735 97.947C65.2263 92.9164 68.936 90.1075 75.285 85.0768C80.7355 80.8207 80.9637 77.4911 81.0278 71.4437Z" fill="#0700C9"/>
<path d="M62.6548 68.2165C69.3471 65.2457 70.8257 67.4829 73.1331 72.045C74.4598 75.0907 73.9004 77.2335 72.1423 81.3246C66.2043 91.054 59.847 94.2259 55.2896 89.0791C53.6174 85.7807 52.8442 83.7334 52.2232 79.1203C53.0128 70.8037 56.4585 69.8484 62.6548 68.2165Z" fill="black" stroke="black" stroke-width="0.612947"/>
<path d="M62.5501 70.7761C67.589 68.5392 68.7022 70.2237 70.4396 73.6587C71.4385 75.952 71.0174 77.5654 69.6936 80.6457C65.2226 87.9714 60.4359 90.3596 57.0045 86.4844C55.7454 84.0009 55.1632 82.4594 54.6957 78.986C55.2902 72.724 57.8846 72.0048 62.5501 70.7761Z" fill="#040146" stroke="black" stroke-width="0.612947"/>
<path d="M60.3199 73.9558C63.3013 72.7476 64.9514 72.9758 67.8907 73.5488C65.7517 76.6684 64.6777 77.4107 62.8444 77.9888L58.7437 79.2514C58.409 76.9588 58.6712 75.817 60.3199 73.9558Z" fill="#ECE0FF"/>
<path d="M60.7083 81.4678L66.5664 79.6641L62.5791 84.4192L59.943 85.2309L60.7538 83.6985L60.7083 81.4678Z" fill="#FEDEFF"/>
<path d="M150.818 148.08C145.958 146.456 143.47 146.645 140.195 152.885C135.606 165.306 138.591 167.294 140.276 174.09C142.141 178.572 143.925 179.91 149.138 179.58C153.144 181.239 155.622 181.297 160.299 179.37C161.069 168.348 160.36 164.448 158.976 157.687C157.835 151.907 155.391 150.454 150.818 148.08Z" fill="#14000C"/>
<path d="M150.4 151.561C146.279 150.183 144.168 150.343 141.39 155.636C137.498 166.17 140.03 167.856 141.459 173.62C143.041 177.421 144.554 178.556 148.975 178.276C152.373 179.684 154.475 179.733 158.442 178.098C159.095 168.751 158.493 165.443 157.319 159.709C156.351 154.806 154.279 153.574 150.4 151.561Z" fill="#0700C9"/>
<path d="M142.329 162.359C142.595 157.075 144.519 156.851 148.214 156.851C150.61 156.988 151.809 158.047 153.874 160.515C158.212 167.516 158.185 172.649 153.38 173.91C150.708 173.913 149.136 173.744 145.959 172.641C140.853 169.42 141.361 166.887 142.329 162.359Z" fill="black" stroke="black" stroke-width="0.442892"/>
<path d="M143.94 163.263C144.14 159.284 145.589 159.116 148.371 159.115C150.175 159.219 151.078 160.016 152.633 161.874C155.899 167.146 155.879 171.011 152.261 171.96C150.249 171.962 149.065 171.835 146.673 171.004C142.829 168.579 143.211 166.672 143.94 163.263Z" fill="#040146" stroke="black" stroke-width="0.442892"/>
<path d="M145.267 165.738C145.46 163.422 146.145 162.432 147.473 160.723C148.787 163.12 148.916 164.054 148.691 165.425L148.168 168.481C146.581 167.949 145.93 167.408 145.267 165.738Z" fill="#ECE0FF"/>
<path d="M150.238 167.936L150.984 163.57L152.751 167.692L152.415 169.656L151.691 168.634L150.238 167.936Z" fill="#FEDEFF"/>
<path d="M135.704 144.786C131.77 141.909 129.46 141.36 124.688 146.069C116.937 155.997 119.068 158.662 118.629 165.308C119.024 169.908 120.253 171.637 125.073 172.845C128.222 175.507 130.452 176.277 135.248 175.882C139.132 166.118 139.617 162.378 140.318 155.851C140.956 150.283 139.162 148.26 135.704 144.786Z" fill="#14000C"/>
<path d="M134.319 147.827C130.982 145.387 129.023 144.921 124.976 148.915C118.403 157.335 120.21 159.595 119.838 165.232C120.172 169.134 121.215 170.6 125.302 171.624C127.974 173.882 129.865 174.535 133.932 174.201C137.227 165.919 137.638 162.747 138.233 157.211C138.774 152.489 137.252 150.773 134.319 147.827Z" fill="#0700C9"/>
<path d="M123.882 155.275C125.651 150.563 127.46 150.917 130.808 151.985C132.94 152.802 133.72 154.109 134.878 156.942C136.784 164.541 135.275 169.185 130.557 168.938C128.134 168.168 126.758 167.56 124.198 165.641C120.503 161.247 121.696 159.098 123.882 155.275Z" fill="black" stroke="black" stroke-width="0.421288"/>
<path d="M125.08 156.552C126.412 153.005 127.774 153.271 130.295 154.075C131.9 154.691 132.488 155.675 133.36 157.808C134.795 163.529 133.659 167.026 130.106 166.84C128.282 166.26 127.246 165.803 125.318 164.358C122.536 161.049 123.434 159.431 125.08 156.552Z" fill="#040146" stroke="black" stroke-width="0.421288"/>
<path d="M127.62 160.718C128.464 158.675 129.371 157.976 131.069 156.812C131.567 159.363 131.413 160.247 130.813 161.424L129.455 164.042C128.17 163.101 127.737 162.423 127.62 160.718Z" fill="#ECE0FF"/>
<path d="M120.043 138.631C116.65 135.696 114.572 135.019 109.842 138.98C101.987 147.504 103.741 150.109 102.84 156.172C102.856 160.421 103.854 162.099 108.184 163.569C110.873 166.248 112.86 167.121 117.289 167.119C121.585 158.454 122.311 155.061 123.444 149.126C124.447 144.067 122.953 142.076 120.043 138.631Z" fill="#14000C"/>
<path d="M118.542 141.312C115.664 138.823 113.902 138.249 109.89 141.608C103.228 148.838 104.716 151.047 103.951 156.189C103.965 159.793 104.811 161.216 108.484 162.463C110.765 164.735 112.45 165.475 116.206 165.474C119.85 158.125 120.466 155.247 121.427 150.213C122.277 145.923 121.01 144.234 118.542 141.312Z" fill="#0700C9"/>
<path d="M108.413 147.363C110.389 143.174 112.022 143.635 115.012 144.865C116.906 145.775 117.524 147.033 118.373 149.718C119.551 156.831 117.818 160.978 113.509 160.397C111.345 159.509 110.128 158.848 107.924 156.896C104.865 152.587 106.12 150.705 108.413 147.363Z" fill="black" stroke="black" stroke-width="0.38772"/>
<path d="M109.415 148.624C110.903 145.471 112.133 145.817 114.384 146.744C115.811 147.429 116.276 148.376 116.915 150.398C117.802 155.754 116.497 158.876 113.252 158.438C111.623 157.77 110.707 157.272 109.047 155.802C106.744 152.558 107.689 151.141 109.415 148.624Z" fill="#040146" stroke="black" stroke-width="0.38772"/>
<path d="M109.662 151.071C110.59 149.261 111.475 148.688 113.119 147.747C113.384 150.125 113.177 150.924 112.538 151.959L111.096 154.259C109.988 153.299 109.642 152.644 109.662 151.071Z" fill="#ECE0FF"/>
<path d="M112.956 154.504L115.016 151.219L115.072 155.144L114.145 156.622L113.9 155.553L112.956 154.504Z" fill="#FEDEFF"/>
<path d="M107.488 127.483C104.298 123.123 102.042 121.768 95.4207 125.14C83.901 133.025 85.2572 136.556 82.5627 143.429C81.4349 148.422 82.1533 150.66 86.8391 153.554C89.2729 157.423 91.3698 158.985 96.5679 160.178C103.95 151.167 105.717 147.379 108.648 140.72C111.191 135.052 109.975 132.312 107.488 127.483Z" fill="#14000C"/>
<path d="M105.005 130.215C102.299 126.517 100.386 125.368 94.7699 128.228C84.9997 134.916 86.1499 137.91 83.8646 143.74C82.9081 147.974 83.5175 149.873 87.4916 152.327C89.5558 155.609 91.3342 156.933 95.7429 157.945C102.004 150.303 103.503 147.09 105.989 141.442C108.145 136.635 107.114 134.311 105.005 130.215Z" fill="#0700C9"/>
<path d="M91.4818 134.591C94.9322 130.208 96.7243 131.188 99.9023 133.44C101.88 135.019 102.266 136.662 102.538 140.043C102.001 148.71 98.8476 153.109 93.9461 151.264C91.6458 149.638 90.3963 148.534 88.3362 145.648C85.908 139.765 87.889 137.895 91.4818 134.591Z" fill="black" stroke="black" stroke-width="0.466957"/>
<path d="M92.3162 136.346C94.9141 133.046 96.2635 133.784 98.6563 135.48C100.145 136.669 100.436 137.906 100.641 140.452C100.236 146.977 97.8622 150.29 94.1716 148.901C92.4397 147.676 91.4988 146.845 89.9477 144.672C88.1194 140.242 89.611 138.834 92.3162 136.346Z" fill="#040146" stroke="black" stroke-width="0.466957"/>
<path d="M92.5596 140.926C94.5532 138.557 96.0599 138.009 98.8185 137.175C98.401 140.792 97.8209 141.906 96.5209 143.222L93.5994 146.14C92.2838 144.34 91.9935 143.251 92.5596 140.926Z" fill="#ECE0FF"/>
<path d="M97.4493 113.354C95.67 107.473 93.9318 105.145 86.7896 106.103C73.8029 109.909 74.0938 114.186 69.6598 120.405C67.2166 125.251 67.2684 127.907 70.8566 132.825C72.0633 137.888 73.5951 140.371 78.1358 143.689C87.5565 137.056 90.2647 133.74 94.8612 127.841C98.818 122.839 98.4391 119.455 97.4493 113.354Z" fill="#14000C"/>
<path d="M94.3619 115.274C92.8529 110.286 91.3786 108.312 85.3211 109.124C74.3067 112.352 74.5534 115.98 70.7927 121.255C68.7205 125.364 68.7645 127.617 71.8078 131.788C72.8313 136.082 74.1304 138.188 77.9815 141.003C85.9715 135.377 88.2685 132.565 92.1669 127.561C95.5228 123.319 95.2014 120.449 94.3619 115.274Z" fill="#0700C9"/>
<path d="M80.4701 114.559C84.921 111.278 86.3284 113.025 88.6818 116.667C90.0968 119.122 90.0025 121.015 89.3184 124.706C86.4086 133.679 82.2317 137.095 78.1499 133.204C76.4456 130.571 75.581 128.908 74.4515 125.035C73.8092 117.841 76.185 116.642 80.4701 114.559Z" fill="black" stroke="black" stroke-width="0.540112"/>
<path d="M80.771 116.752C84.1223 114.281 85.182 115.596 86.954 118.339C88.0194 120.187 87.9484 121.613 87.4333 124.392C85.2424 131.148 82.0975 133.72 79.0241 130.79C77.7408 128.808 77.0898 127.555 76.2394 124.639C75.7558 119.222 77.5446 118.32 80.771 116.752Z" fill="#040146" stroke="black" stroke-width="0.540112"/>
<path d="M79.608 119.716C81.6078 118.352 82.8461 118.364 85.0762 118.527C83.9716 121.43 83.2962 122.184 82.0423 122.882L79.2333 124.416C78.6529 122.494 78.677 121.489 79.608 119.716Z" fill="#ECE0FF"/>
<path d="M80.9949 126.09L85.0078 123.898L82.7934 128.404L80.9876 129.391L81.3551 127.991L80.9949 126.09Z" fill="#FEDEFF"/>
<path d="M92.7709 92.2041C91.2596 85.7552 89.3627 83.1451 80.2746 83.7783C63.4956 87.1589 63.3348 91.793 57.0007 98.2593C53.3361 103.353 53.0745 106.224 56.9762 111.735C57.8691 117.268 59.4875 120.034 64.7823 123.872C77.4303 117.238 81.2396 113.811 87.7384 107.699C93.3232 102.521 93.2636 98.8461 92.7709 92.2041Z" fill="#14000C"/>
<path d="M88.653 94.1072C87.3712 88.6377 85.7624 86.4239 78.0545 86.9609C63.8236 89.8282 63.6872 93.7585 58.3151 99.2428C55.207 103.563 54.9851 105.998 58.2943 110.672C59.0516 115.365 60.4242 117.711 64.9149 120.965C75.6421 115.34 78.8729 112.432 84.3848 107.249C89.1215 102.857 89.0709 99.7405 88.653 94.1072Z" fill="#0700C9"/>
<path d="M71.3011 92.562C77.295 89.2685 78.8478 91.2339 81.3556 95.2977C82.8308 98.0276 82.4794 100.066 81.1662 104.013C76.4079 113.536 70.7417 116.991 66.0937 112.56C64.277 109.623 63.3956 107.778 62.4535 103.534C62.5316 95.7312 65.6631 94.57 71.3011 92.562Z" fill="black" stroke="black" stroke-width="0.572519"/>
<path d="M71.4063 94.9487C75.9194 92.4689 77.0885 93.9488 78.9768 97.0085C80.0875 99.064 79.8229 100.599 78.8342 103.57C75.2514 110.741 70.9851 113.342 67.4855 110.006C66.1176 107.794 65.454 106.406 64.7446 103.21C64.8034 97.3349 67.1612 96.4606 71.4063 94.9487Z" fill="#040146" stroke="black" stroke-width="0.572519"/>
<path d="M69.5828 98.0821C72.2622 96.7223 73.816 96.8043 76.5968 97.1055C74.8524 100.178 73.9114 100.953 72.2508 101.636L68.534 103.135C68.0415 101.028 68.1953 99.9446 69.5828 98.0821Z" fill="#ECE0FF"/>
<path d="M70.538 105.04L75.8477 102.898L72.5122 107.639L70.1228 108.602L70.7565 107.112L70.538 105.04Z" fill="#FEDEFF"/>
<path d="M41.9327 52.5839C40.1646 58.3351 40.4572 61.2515 47.8767 64.9173C62.5879 69.9502 64.8366 66.3885 72.7672 64.2169C77.9751 61.8994 79.495 59.7673 78.9583 53.657C80.7921 48.9073 80.7897 45.9957 78.3935 40.5604C65.4331 39.9711 60.8749 40.9154 52.9775 42.7333C46.2247 44.2374 44.5883 47.1476 41.9327 52.5839Z" fill="#14000C"/>
<path d="M46.0328 52.9784C44.5332 57.8562 44.7814 60.3297 51.0741 63.4388C63.5513 67.7074 65.4584 64.6866 72.1846 62.8447C76.6016 60.8791 77.8907 59.0709 77.4356 53.8885C78.9909 49.8601 78.9888 47.3907 76.9565 42.7808C65.9644 42.281 62.0983 43.0819 55.4003 44.6237C49.673 45.8994 48.2852 48.3677 46.0328 52.9784Z" fill="#0700C9"/>
<path d="M58.9371 62.1461C52.7265 61.9845 52.4086 59.7315 52.3025 55.3949C52.3956 52.5777 53.6049 51.1394 56.4426 48.645C64.5375 43.353 70.5647 43.2385 72.1818 48.8428C72.2615 51.9795 72.1081 53.8301 70.9032 57.5912C67.2682 63.6765 64.2798 63.1532 58.9371 62.1461Z" fill="black" stroke="black" stroke-width="0.520077"/>
<path d="M59.9496 60.2218C55.2734 60.1001 55.0341 58.4037 54.9542 55.1385C55.0243 53.0173 55.9348 51.9344 58.0714 50.0562C64.1664 46.0716 68.7045 45.9854 69.9221 50.2052C69.9821 52.5669 69.8666 53.9603 68.9594 56.7922C66.2225 61.3741 63.9723 60.98 59.9496 60.2218Z" fill="#040146" stroke="black" stroke-width="0.520077"/>
<path d="M62.8155 58.5946C60.0907 58.4343 58.9093 57.6582 56.8657 56.1483C59.6414 54.5371 60.7348 54.3596 62.3503 54.5845L65.9526 55.1109C65.3738 56.9896 64.7569 57.7691 62.8155 58.5946Z" fill="#ECE0FF"/>
<path d="M37.0447 34.7399C35.1427 39.1341 35.1188 41.4665 40.6665 45.0156C51.862 50.2844 53.9524 47.6641 60.4154 46.6406C64.7376 45.2635 66.1265 43.7101 66.2369 38.8301C68.1032 35.2338 68.3561 32.9305 66.9367 28.4216C56.737 26.8209 53.0489 27.1687 46.6432 27.9153C41.1702 28.5138 39.6211 30.6725 37.0447 34.7399Z" fill="#14000C"/>
<path d="M40.2565 35.4078C38.6434 39.1347 38.6231 41.1129 43.3283 44.123C52.8236 48.5917 54.5966 46.3693 60.0781 45.5013C63.7439 44.3332 64.9218 43.0158 65.0155 38.8769C66.5984 35.8267 66.8129 33.8733 65.609 30.0491C56.9583 28.6915 53.8303 28.9865 48.3973 29.6196C43.7556 30.1273 42.4417 31.9581 40.2565 35.4078Z" fill="#0700C9"/>
<path d="M49.6602 43.7854C44.762 43.1139 44.7077 41.304 45.0035 37.8646C45.3237 35.6444 46.4061 34.6126 48.8691 32.888C55.7352 29.4109 60.5125 29.848 61.301 34.4224C61.0894 36.9104 60.8061 38.3607 59.5238 41.2302C56.1159 45.7252 53.7979 45.0497 49.6602 43.7854Z" fill="black" stroke="black" stroke-width="0.413878"/>
<path d="M50.6257 42.3569C46.9376 41.8513 46.8968 40.4885 47.1195 37.8989C47.3606 36.2272 48.1756 35.4503 50.0301 34.1518C55.1999 31.5337 58.7969 31.8628 59.3905 35.3071C59.2313 37.1804 59.0179 38.2724 58.0524 40.433C55.4865 43.8175 53.7412 43.3088 50.6257 42.3569Z" fill="#040146" stroke="black" stroke-width="0.413878"/>
<path d="M53.0344 41.3171C50.8932 40.9517 50.0267 40.2344 48.5425 38.8612C50.879 37.8298 51.7594 37.7851 53.0176 38.1045L55.8208 38.8362C55.1985 40.2716 54.6423 40.8341 53.0344 41.3171Z" fill="#ECE0FF"/>
<path d="M31.5636 24.0716C30.4377 26.986 30.4827 28.5073 34.1919 30.6771C41.6281 33.8214 42.923 32.0587 47.1102 31.2235C49.8924 30.2133 50.7576 29.1645 50.7028 25.9799C51.8261 23.5867 51.9312 22.0785 50.8886 19.1756C44.197 18.3969 41.8014 18.7195 37.6444 19.3727C34.0917 19.9051 33.1377 21.3527 31.5636 24.0716Z" fill="#14000C"/>
<path d="M33.6713 24.4232C32.7164 26.895 32.7546 28.1853 35.9005 30.0256C42.2074 32.6924 43.3056 31.1974 46.8569 30.4891C49.2166 29.6323 49.9504 28.7427 49.9039 26.0418C50.8567 24.012 50.9458 22.7328 50.0615 20.2708C44.3861 19.6104 42.3544 19.884 38.8286 20.4379C35.8155 20.8895 35.0064 22.1173 33.6713 24.4232Z" fill="#0700C9"/>
<path d="M40.0222 29.6391C36.8112 29.3285 36.7288 28.1499 36.8322 25.8998C36.9834 24.4439 37.6623 23.7431 39.2233 22.5548C43.6095 20.1093 46.7356 20.2702 47.3685 23.2321C47.2952 24.8598 47.1482 25.8127 46.3867 27.7169C44.2816 30.7361 42.7528 30.3559 40.0222 29.6391Z" fill="black" stroke="black" stroke-width="0.270056"/>
<path d="M40.6169 28.6828C38.1992 28.4489 38.1371 27.5615 38.215 25.8673C38.3288 24.7711 38.84 24.2435 40.0153 23.3487C43.318 21.5074 45.6717 21.6285 46.1483 23.8587C46.0931 25.0842 45.9824 25.8017 45.409 27.2355C43.824 29.5088 42.6728 29.2225 40.6169 28.6828Z" fill="#040146" stroke="black" stroke-width="0.270056"/>
<path d="M42.1596 27.9486C40.7541 27.766 40.1705 27.3209 39.1672 26.4642C40.6637 25.731 41.2366 25.679 42.0652 25.8545L43.9118 26.2588C43.5434 27.2107 43.1954 27.592 42.1596 27.9486Z" fill="#ECE0FF"/>
<path d="M28.1057 17.5654C27.2944 19.529 27.3011 20.5639 29.7886 22.0973C34.7945 24.3517 35.7024 23.1737 38.5621 22.6718C40.4694 22.0288 41.074 21.3293 41.0868 19.1635C41.8881 17.5542 41.9833 16.5306 41.3201 14.5407C36.7833 13.9062 35.1496 14.0879 32.3133 14.4666C29.8898 14.7727 29.2185 15.7418 28.1057 17.5654Z" fill="#14000C"/>
<path d="M29.5307 17.8373C28.8426 19.5026 28.8483 20.3804 30.958 21.6809C35.2037 23.593 35.9738 22.5939 38.3991 22.1682C40.0167 21.6228 40.5296 21.0296 40.5404 19.1927C41.22 17.8278 41.3007 16.9596 40.7383 15.2719C36.8904 14.7338 35.5049 14.8879 33.0993 15.209C31.0438 15.4686 30.4745 16.2906 29.5307 17.8373Z" fill="#0700C9"/>
<path d="M33.7671 21.484C31.5891 21.2224 31.5516 20.4199 31.6573 18.8918C31.7829 17.9045 32.2555 17.4388 33.3353 16.6554C36.3556 15.0619 38.4783 15.2204 38.862 17.2439C38.7866 18.3493 38.6716 18.9948 38.124 20.2773C36.6455 22.2967 35.6121 22.0142 33.7671 21.484Z" fill="black" stroke="black" stroke-width="0.183638"/>
<path d="M34.1865 20.8472C32.5466 20.6502 32.5184 20.0459 32.598 18.8954C32.6926 18.152 33.0484 17.8013 33.8614 17.2115C36.1356 16.0116 37.7338 16.131 38.0227 17.6546C37.9659 18.4869 37.8794 18.9729 37.4671 19.9386C36.3538 21.4591 35.5757 21.2464 34.1865 20.8472Z" fill="#040146" stroke="black" stroke-width="0.183638"/>
<path d="M35.247 20.3629C34.2944 20.2167 33.9046 19.9049 33.236 19.3067C34.2649 18.8318 34.6552 18.8055 35.2157 18.9378L36.4647 19.2417C36.1993 19.883 35.9568 20.1367 35.247 20.3629Z" fill="#ECE0FF"/>
<path d="M140.148 134.763C151.557 135.997 156.913 134.396 161.099 119.178C165.211 89.8102 157.729 86.8853 150.799 72.8176C144.578 63.9016 140.036 61.8251 128.787 65.0366C119.23 63.3176 113.778 64.3737 104.465 70.8239C108.041 95.3078 111.456 103.503 117.712 117.636C122.967 129.739 129.008 131.753 140.148 134.763Z" fill="#14000C"/>
<path d="M139.395 126.949C149.071 127.996 153.614 126.638 157.164 113.731C160.652 88.8228 154.306 86.3421 148.428 74.4108C143.152 66.8488 139.3 65.0876 129.759 67.8115C121.653 66.3535 117.03 67.2492 109.13 72.7198C112.164 93.4855 115.06 100.436 120.366 112.423C124.823 122.688 129.947 124.396 139.395 126.949Z" fill="#0700C9"/>
<path d="M151.901 99.4734C153.841 111.163 149.737 112.571 141.654 114.336C136.344 115.179 133.214 113.434 127.518 109.02C114.684 95.7719 112.293 84.526 122.205 79.4738C128.05 78.1919 131.571 77.8108 139.05 78.709C151.759 83.3189 151.858 89.1044 151.901 99.4734Z" fill="black" stroke="black" stroke-width="0.991905"/>
<path d="M147.947 98.2656C149.407 107.067 146.317 108.128 140.231 109.456C136.233 110.091 133.876 108.777 129.587 105.454C119.924 95.4786 118.124 87.0111 125.587 83.2071C129.988 82.2419 132.639 81.9549 138.27 82.6312C147.839 86.1022 147.914 90.4584 147.947 98.2656Z" fill="#040146" stroke="black" stroke-width="0.991905"/>
<path d="M139.176 93.3872C139.86 98.5479 138.833 101.04 136.743 105.413C132.724 100.797 131.996 98.813 131.834 95.7064L131.519 88.7702C135.247 89.1757 136.929 90.0494 139.176 93.3872Z" fill="#ECE0FF"/>
<path d="M230.879 207.016C238.403 207.83 241.935 206.774 244.695 196.738C247.407 177.371 242.473 175.442 237.902 166.164C233.8 160.285 230.805 158.915 223.386 161.033C217.084 159.899 213.489 160.596 207.347 164.85C209.705 180.996 211.957 186.401 216.083 195.721C219.548 203.703 223.532 205.031 230.879 207.016Z" fill="#14000C"/>
<path d="M230.388 201.851C236.77 202.541 239.765 201.646 242.107 193.134C244.407 176.708 240.222 175.072 236.346 167.204C232.866 162.217 230.326 161.055 224.034 162.852C218.689 161.89 215.639 162.481 210.43 166.088C212.431 179.783 214.34 184.367 217.84 192.272C220.779 199.041 224.158 200.167 230.388 201.851Z" fill="#0700C9"/>
<path d="M238.631 183.735C239.91 191.443 237.203 192.373 231.873 193.536C228.371 194.092 226.307 192.941 222.551 190.031C214.087 181.294 212.511 173.877 219.047 170.546C222.902 169.7 225.224 169.449 230.156 170.041C238.537 173.081 238.602 176.897 238.631 183.735Z" fill="black" stroke="black" stroke-width="0.654134"/>
<path d="M236.024 182.943C236.987 188.747 234.949 189.447 230.936 190.323C228.299 190.742 226.745 189.875 223.917 187.683C217.544 181.105 216.357 175.521 221.278 173.012C224.181 172.376 225.929 172.186 229.643 172.632C235.953 174.922 236.002 177.794 236.024 182.943Z" fill="#040146" stroke="black" stroke-width="0.654134"/>
<path d="M230.241 179.724C230.691 183.127 230.014 184.771 228.636 187.654C225.985 184.61 225.506 183.302 225.399 181.253L225.191 176.679C227.649 176.946 228.759 177.523 230.241 179.724Z" fill="#ECE0FF"/>
<path d="M136.682 226.389C143.289 228.796 145.8 231.124 143.986 240.624C138.305 257.882 133.4 257.467 125.785 263.327C119.954 266.547 116.895 266.46 111.579 261.652C105.859 260.012 103.148 257.957 99.7714 251.892C108.359 239.398 112.453 235.816 119.715 229.737C125.878 224.504 129.744 225.031 136.682 226.389Z" fill="#14000C"/>
<path d="M134.156 230.481C139.759 232.522 141.889 234.498 140.35 242.554C135.532 257.192 131.372 256.84 124.913 261.81C119.967 264.54 117.373 264.467 112.864 260.389C108.014 258.998 105.714 257.256 102.85 252.111C110.134 241.515 113.606 238.476 119.765 233.321C124.992 228.883 128.271 229.33 134.156 230.481Z" fill="#0700C9"/>
<path d="M133.602 248.975C137.83 243.073 135.954 241.188 131.988 238.032C129.296 236.133 127.103 236.246 122.778 237.132C112.139 240.945 107.783 246.481 111.866 251.94C114.733 254.225 116.566 255.387 120.921 256.916C129.155 257.818 130.774 254.664 133.602 248.975Z" fill="black" stroke="black" stroke-width="0.607757"/>
<path d="M131.101 248.565C134.284 244.121 132.872 242.702 129.885 240.325C127.859 238.895 126.208 238.98 122.951 239.647C114.94 242.518 111.66 246.687 114.735 250.797C116.893 252.518 118.273 253.392 121.552 254.543C127.752 255.223 128.971 252.848 131.101 248.565Z" fill="#040146" stroke="black" stroke-width="0.607757"/>
<path d="M124.963 248.879C126.734 246.226 126.844 244.578 126.878 241.609C123.419 243.06 122.483 243.954 121.554 245.618L119.505 249.346C121.663 250.131 122.825 250.106 124.963 248.879Z" fill="#ECE0FF"/>
<path d="M173.517 222.472C178.366 224.239 180.209 225.948 178.878 232.92C174.708 245.587 171.108 245.282 165.519 249.583C161.239 251.947 158.994 251.883 155.092 248.354C150.894 247.151 148.904 245.642 146.426 241.191C152.729 232.021 155.733 229.391 161.064 224.93C165.587 221.089 168.424 221.476 173.517 222.472Z" fill="#14000C"/>
<path d="M171.66 225.476C175.773 226.975 177.336 228.424 176.207 234.338C172.67 245.081 169.617 244.823 164.876 248.47C161.246 250.475 159.342 250.421 156.033 247.428C152.473 246.407 150.785 245.128 148.683 241.352C154.029 233.575 156.577 231.345 161.098 227.561C164.934 224.303 167.341 224.631 171.66 225.476Z" fill="#0700C9"/>
<path d="M162.222 246.362C155.854 247.888 154.918 245.68 153.629 241.293C152.957 238.399 153.797 236.605 156.008 233.293C162.81 225.701 168.916 223.944 172.088 229.211C173.023 232.383 173.37 234.309 173.167 238.467C171.122 245.653 167.937 245.933 162.222 246.362Z" fill="#040146" stroke="black" stroke-width="0.728027"/>
<path d="M167.056 238.185C164.453 240.981 162.561 241.563 159.11 242.421C159.848 237.989 160.632 236.651 162.316 235.109L166.097 231.693C167.608 233.993 167.898 235.354 167.056 238.185Z" fill="#ECE0FF"/>
<path d="M384.961 72.7929C387.538 70.7267 388.305 69.3122 386.066 65.3592C380.939 58.5363 378.819 59.46 374.548 58C371.469 57.446 370.121 57.9453 368.48 60.8854C366.182 62.4765 365.285 63.7993 364.697 67.0064C370.4 71.2715 372.761 72.2487 376.908 73.8591C380.438 75.259 382.079 74.4422 384.961 72.7929Z" fill="#14000C"/>
<path d="M383.367 71.677C385.552 69.9246 386.203 68.7249 384.304 65.3722C379.955 59.5855 378.157 60.3689 374.535 59.1306C371.923 58.6607 370.78 59.0842 369.388 61.5778C367.44 62.9272 366.679 64.0492 366.18 66.7693C371.017 70.3866 373.019 71.2154 376.536 72.5813C379.53 73.7685 380.922 73.0758 383.367 71.677Z" fill="#0700C9"/>
<path d="M380.333 63.5363C383.104 65.5253 382.553 66.6464 381.264 68.6483C380.353 69.8988 379.36 70.1789 377.302 70.4363C371.994 70.3425 369.222 68.5354 370.216 65.4919C371.147 64.043 371.788 63.25 373.495 61.9138C377.023 60.2718 378.218 61.4312 380.333 63.5363Z" fill="black" stroke="black" stroke-width="0.285484"/>
<path d="M379.282 64.0934C381.368 65.591 380.953 66.4351 379.982 67.9423C379.296 68.8839 378.549 69.0948 376.999 69.2886C373.003 69.218 370.915 67.8574 371.664 65.5657C372.365 64.4748 372.848 63.8777 374.133 62.8716C376.789 61.6353 377.689 62.5083 379.282 64.0934Z" fill="#040146" stroke="black" stroke-width="0.285484"/>
<path d="M377.479 63.9481C378.667 64.8614 378.964 65.5781 379.426 66.8941C377.669 66.7696 377.117 66.5129 376.453 65.9125L374.98 64.5624C375.822 63.8878 376.343 63.7242 377.479 63.9481Z" fill="#ECE0FF"/>
<path d="M374.555 65.8759L376.66 67.8047L373.81 67.3228L372.863 66.4549L373.67 66.4197L374.555 65.8759Z" fill="#FEDEFF"/>
<path d="M359.317 106.294C361.687 102.999 362.129 101.072 358.177 97.1296C349.858 90.742 347.653 92.5338 342.116 92.2125C338.288 92.5714 336.857 93.6065 335.883 97.6277C333.687 100.268 333.061 102.13 333.421 106.12C341.578 109.29 344.695 109.669 350.135 110.21C354.775 110.704 356.448 109.196 359.317 106.294Z" fill="#14000C"/>
<path d="M356.778 105.158C358.788 102.363 359.163 100.729 355.811 97.3855C348.756 91.9679 346.886 93.4876 342.189 93.2151C338.943 93.5195 337.729 94.3974 336.903 97.8079C335.04 100.047 334.509 101.626 334.815 105.011C341.733 107.699 344.377 108.021 348.99 108.479C352.926 108.898 354.345 107.62 356.778 105.158Z" fill="#0700C9"/>
<path d="M350.509 96.5202C354.444 97.9621 354.162 99.4707 353.295 102.265C352.628 104.046 351.545 104.705 349.194 105.687C342.879 107.325 339.002 106.099 339.176 102.169C339.801 100.147 340.298 98.9968 341.879 96.8525C345.514 93.7465 347.311 94.7251 350.509 96.5202Z" fill="black" stroke="black" stroke-width="0.350807"/>
<path d="M349.449 97.5262C352.412 98.6118 352.199 99.7477 351.547 101.852C351.045 103.193 350.229 103.689 348.459 104.428C343.704 105.662 340.785 104.739 340.916 101.779C341.387 100.257 341.761 99.3909 342.951 97.7763C345.688 95.4377 347.042 96.1745 349.449 97.5262Z" fill="#040146" stroke="black" stroke-width="0.350807"/>
<path d="M347.263 97.9507C348.97 98.6405 349.558 99.3911 350.539 100.797C348.417 101.228 347.68 101.106 346.696 100.614L344.507 99.5012C345.282 98.4252 345.844 98.0599 347.263 97.9507Z" fill="#ECE0FF"/>
<path d="M344.439 101.199L347.566 102.789L344.034 103.158L342.627 102.442L343.57 102.135L344.439 101.199Z" fill="#FEDEFF"/>
<path d="M365.356 95.6335C368.456 93.3329 369.413 91.7143 366.972 86.999C361.281 78.805 358.765 79.7912 353.84 77.8988C350.267 77.117 348.671 77.6412 346.626 81.0035C343.872 82.7614 342.767 84.2673 341.939 87.9877C348.414 93.2191 351.129 94.4639 355.902 96.5264C359.964 98.3161 361.917 97.4339 365.356 95.6335Z" fill="#14000C"/>
<path d="M363.387 93.8696C366.016 91.9184 366.828 90.5456 364.757 86.5464C359.931 79.5968 357.797 80.4332 353.62 78.8282C350.589 78.1651 349.236 78.6097 347.501 81.4614C345.166 82.9524 344.228 84.2296 343.526 87.3849C349.018 91.8219 351.32 92.8777 355.369 94.627C358.814 96.1448 360.47 95.3966 363.387 93.8696Z" fill="#0700C9"/>
<path d="M360.202 84.2246C363.351 86.6691 362.659 87.9545 361.065 90.2363C359.946 91.6571 358.774 91.9408 356.359 92.1514C350.163 91.8095 347.004 89.5774 348.299 86.0659C349.45 84.4143 350.233 83.5161 352.286 82.03C356.478 80.2665 357.823 81.6731 360.202 84.2246Z" fill="black" stroke="black" stroke-width="0.333695"/>
<path d="M358.946 84.8363C361.317 86.6769 360.796 87.6447 359.596 89.3628C358.753 90.4326 357.871 90.6462 356.052 90.8047C351.387 90.5473 349.009 88.8667 349.983 86.2227C350.85 84.9791 351.44 84.3028 352.985 83.1839C356.142 81.8561 357.155 82.9151 358.946 84.8363Z" fill="#040146" stroke="black" stroke-width="0.333695"/>
<path d="M355.206 85.7794C356.554 86.8981 356.87 87.7483 357.352 89.3056C355.305 89.0833 354.672 88.7594 353.922 88.029L352.261 86.3874C353.274 85.6364 353.889 85.468 355.206 85.7794Z" fill="#ECE0FF"/>
<path d="M373.693 85.227C376.709 83.3496 377.709 81.9368 375.824 77.4283C371.219 69.485 368.837 70.2006 364.462 68.095C361.243 67.1096 359.74 67.4705 357.611 70.401C354.954 71.8067 353.827 73.105 352.788 76.4553C358.334 81.7401 360.731 83.0858 364.954 85.3361C368.546 87.2827 370.403 86.6201 373.693 85.227Z" fill="#14000C"/>
<path d="M372.015 83.4644C374.574 81.8721 375.422 80.6739 373.823 76.8501C369.917 70.1131 367.897 70.72 364.186 68.9342C361.457 68.0984 360.181 68.4045 358.376 70.89C356.122 72.0822 355.166 73.1833 354.285 76.0249C358.989 80.5071 361.022 81.6484 364.604 83.5569C367.65 85.2079 369.225 84.646 372.015 83.4644Z" fill="#0700C9"/>
<path d="M369.817 74.3781C372.522 76.8568 371.79 77.9839 370.157 79.9572C369.024 81.1764 367.928 81.3486 365.697 81.3604C360.039 80.5815 357.309 78.2969 358.761 75.1732C359.941 73.7447 360.726 72.9796 362.72 71.7706C366.698 70.4679 367.827 71.8591 369.817 74.3781Z" fill="black" stroke="black" stroke-width="0.307106"/>
<path d="M368.626 74.846C370.662 76.7123 370.111 77.5609 368.882 79.0467C368.028 79.9647 367.203 80.0944 365.523 80.1032C361.263 79.5168 359.208 77.7966 360.301 75.4446C361.189 74.3691 361.781 73.793 363.282 72.8827C366.277 71.9018 367.127 72.9493 368.626 74.846Z" fill="#040146" stroke="black" stroke-width="0.307106"/>
<path d="M366.72 74.4587C367.872 75.5861 368.098 76.3896 368.423 77.8543C366.562 77.4966 366.006 77.152 365.373 76.4257L363.972 74.7953C364.958 74.1825 365.535 74.0742 366.72 74.4587Z" fill="#ECE0FF"/>
<path d="M363.342 76.1395L365.344 78.4688L362.361 77.5897L361.461 76.5415L362.327 76.6071L363.342 76.1395Z" fill="#FEDEFF"/>
<path d="M330.823 147.853C333.301 144.036 333.693 141.854 329.056 137.65C319.4 130.94 317.026 133.064 310.807 133C306.539 133.606 304.992 134.842 304.115 139.397C301.797 142.472 301.195 144.59 301.812 149.04C311.116 152.155 314.627 152.413 320.748 152.728C325.971 153.034 327.765 151.256 330.823 147.853Z" fill="#14000C"/>
<path d="M327.926 146.715C330.027 143.478 330.36 141.628 326.427 138.062C318.237 132.371 316.224 134.173 310.949 134.118C307.329 134.632 306.017 135.68 305.274 139.544C303.308 142.152 302.797 143.948 303.32 147.722C311.211 150.364 314.189 150.583 319.38 150.85C323.811 151.109 325.332 149.602 327.926 146.715Z" fill="#0700C9"/>
<path d="M320.434 137.381C324.918 138.786 324.682 140.49 323.86 143.666C323.209 145.696 322.031 146.492 319.45 147.718C312.465 149.889 308.058 148.723 308.043 144.311C308.636 142.013 309.131 140.699 310.787 138.213C314.692 134.541 316.757 135.541 320.434 137.381Z" fill="black" stroke="black" stroke-width="0.393334"/>
<path d="M319.302 138.564C322.678 139.622 322.501 140.905 321.882 143.297C321.391 144.825 320.505 145.424 318.561 146.347C313.302 147.982 309.984 147.104 309.973 143.782C310.419 142.052 310.791 141.063 312.038 139.191C314.979 136.426 316.534 137.179 319.302 138.564Z" fill="#040146" stroke="black" stroke-width="0.393334"/>
<path d="M316.883 139.153C318.832 139.835 319.53 140.644 320.703 142.166C318.351 142.762 317.518 142.665 316.39 142.166L313.879 141.037C314.689 139.79 315.3 139.351 316.883 139.153Z" fill="#ECE0FF"/>
<path d="M313.886 142.941L317.473 144.555L313.536 145.156L311.922 144.43L312.962 144.035L313.886 142.941Z" fill="#FEDEFF"/>
<path d="M337.023 135.589C340.372 132.847 341.358 130.983 338.372 125.833C331.562 116.959 328.796 118.198 323.18 116.341C319.137 115.656 317.377 116.329 315.266 120.204C312.276 122.319 311.118 124.065 310.389 128.276C317.92 133.789 321.027 135.038 326.483 137.094C331.128 138.881 333.267 137.789 337.023 135.589Z" fill="#14000C"/>
<path d="M334.719 133.726C337.559 131.4 338.395 129.819 335.863 125.451C330.087 117.925 327.741 118.976 322.978 117.401C319.549 116.82 318.056 117.39 316.265 120.677C313.73 122.471 312.748 123.952 312.13 127.523C318.517 132.199 321.152 133.259 325.779 135.002C329.719 136.518 331.533 135.592 334.719 133.726Z" fill="#0700C9"/>
<path d="M330.638 123.096C334.295 125.666 333.588 127.142 331.925 129.783C330.748 131.434 329.451 131.814 326.757 132.178C319.8 132.126 316.143 129.795 317.405 125.793C318.607 123.882 319.435 122.834 321.655 121.06C326.256 118.862 327.838 120.365 330.638 123.096Z" fill="black" stroke="black" stroke-width="0.374147"/>
<path d="M329.269 123.839C332.023 125.774 331.491 126.885 330.238 128.873C329.352 130.117 328.375 130.403 326.347 130.677C321.108 130.638 318.355 128.883 319.306 125.87C320.21 124.431 320.834 123.642 322.505 122.306C325.97 120.651 327.161 121.783 329.269 123.839Z" fill="#040146" stroke="black" stroke-width="0.374147"/>
<path d="M325.123 125.098C326.692 126.279 327.091 127.214 327.714 128.933C325.409 128.793 324.684 128.464 323.805 127.686L321.856 125.936C322.951 125.041 323.631 124.819 325.123 125.098Z" fill="#ECE0FF"/>
<path d="M345.801 123.495C349.079 121.232 350.123 119.596 347.771 114.647C342.19 105.997 339.561 106.926 334.548 104.801C330.891 103.869 329.227 104.353 326.999 107.749C324.098 109.465 322.904 110.979 321.92 114.787C328.414 120.41 331.17 121.789 336.02 124.084C340.146 126.072 342.19 125.231 345.801 123.495Z" fill="#14000C"/>
<path d="M343.829 121.611C346.609 119.691 347.495 118.304 345.5 114.107C340.767 106.77 338.537 107.557 334.286 105.755C331.184 104.965 329.772 105.376 327.883 108.256C325.422 109.711 324.41 110.996 323.575 114.225C329.083 118.994 331.42 120.164 335.534 122.11C339.033 123.796 340.767 123.083 343.829 121.611Z" fill="#0700C9"/>
<path d="M340.886 111.558C344.047 114.189 343.288 115.491 341.564 117.788C340.36 119.214 339.142 119.465 336.644 119.597C330.266 119.027 327.087 116.614 328.545 113.038C329.791 111.375 330.629 110.477 332.798 109.016C337.184 107.345 338.522 108.843 340.886 111.558Z" fill="black" stroke="black" stroke-width="0.344335"/>
<path d="M339.573 112.14C341.953 114.122 341.382 115.101 340.084 116.831C339.177 117.905 338.26 118.094 336.379 118.194C331.577 117.764 329.183 115.947 330.281 113.255C331.219 112.003 331.85 111.326 333.484 110.226C336.786 108.968 337.793 110.096 339.573 112.14Z" fill="#040146" stroke="black" stroke-width="0.344335"/>
<path d="M337.418 111.81C338.768 113.011 339.064 113.899 339.506 115.522C337.403 115.221 336.762 114.864 336.015 114.085L334.358 112.333C335.43 111.594 336.07 111.442 337.418 111.81Z" fill="#ECE0FF"/>
<path d="M333.728 113.873L336.094 116.375L332.707 115.55L331.642 114.424L332.616 114.451L333.728 113.873Z" fill="#FEDEFF"/>
<path d="M306.314 193.09C308.026 188.874 307.999 186.657 302.651 183.405C291.901 178.639 289.971 181.174 283.853 182.285C279.776 183.687 278.489 185.192 278.489 189.831C276.794 193.288 276.603 195.482 278.048 199.736C287.774 201.037 291.27 200.628 297.341 199.781C302.528 199.094 303.953 197.01 306.314 193.09Z" fill="#14000C"/>
<path d="M303.249 192.524C304.702 188.948 304.679 187.068 300.144 184.309C291.026 180.268 289.389 182.417 284.2 183.36C280.742 184.548 279.651 185.825 279.651 189.76C278.213 192.692 278.051 194.553 279.277 198.16C287.525 199.264 290.491 198.917 295.639 198.198C300.038 197.616 301.247 195.848 303.249 192.524Z" fill="#0700C9"/>
<path d="M294.134 184.763C298.802 185.296 298.893 187.014 298.686 190.289C298.429 192.405 297.423 193.409 295.12 195.1C288.671 198.551 284.122 198.239 283.275 193.91C283.423 191.541 283.661 190.157 284.817 187.403C287.958 183.059 290.175 183.651 294.134 184.763Z" fill="black" stroke="black" stroke-width="0.393334"/>
<path d="M293.248 186.143C296.763 186.544 296.831 187.838 296.675 190.303C296.482 191.897 295.724 192.652 293.99 193.926C289.135 196.525 285.71 196.289 285.072 193.03C285.183 191.246 285.362 190.204 286.233 188.131C288.598 184.86 290.267 185.306 293.248 186.143Z" fill="#040146" stroke="black" stroke-width="0.393334"/>
<path d="M290.98 187.175C293.023 187.476 293.861 188.139 295.301 189.412C293.103 190.442 292.268 190.504 291.066 190.227L288.386 189.592C288.947 188.215 289.463 187.669 290.98 187.175Z" fill="#ECE0FF"/>
<path d="M288.755 191.46L292.582 192.367L288.83 193.701L287.108 193.293L288.055 192.709L288.755 191.46Z" fill="#FEDEFF"/>
<path d="M310.083 179.875C312.854 176.549 313.47 174.533 309.565 170.039C301.201 162.612 298.719 164.351 292.853 163.588C288.753 163.679 287.152 164.672 285.811 168.876C283.274 171.518 282.467 173.451 282.547 177.723C290.984 181.715 294.271 182.355 300.017 183.343C304.916 184.221 306.81 182.744 310.083 179.875Z" fill="#14000C"/>
<path d="M307.467 178.479C309.817 175.659 310.34 173.949 307.028 170.137C299.934 163.838 297.829 165.313 292.854 164.666C289.377 164.743 288.019 165.585 286.881 169.15C284.73 171.392 284.045 173.031 284.113 176.655C291.269 180.04 294.057 180.583 298.93 181.421C303.085 182.165 304.691 180.913 307.467 178.479Z" fill="#0700C9"/>
<path d="M301.455 168.808C305.532 170.641 305.117 172.225 303.982 175.132C303.138 176.975 301.936 177.594 299.359 178.461C292.517 179.723 288.486 178.125 288.97 173.957C289.789 171.853 290.405 170.668 292.249 168.506C296.352 165.478 298.19 166.656 301.455 168.808Z" fill="black" stroke="black" stroke-width="0.374147"/>
<path d="M300.25 169.803C303.32 171.183 303.007 172.376 302.153 174.564C301.517 175.953 300.612 176.418 298.672 177.071C293.521 178.022 290.485 176.818 290.85 173.68C291.466 172.096 291.93 171.203 293.319 169.576C296.408 167.296 297.791 168.183 300.25 169.803Z" fill="#040146" stroke="black" stroke-width="0.374147"/>
<path d="M296.415 171.818C298.179 172.682 298.747 173.525 299.684 175.095C297.394 175.393 296.619 175.207 295.61 174.608L293.366 173.258C294.272 172.172 294.898 171.827 296.415 171.818Z" fill="#ECE0FF"/>
<path d="M316.419 166.342C319.21 163.5 319.927 161.697 316.682 157.281C309.568 149.841 307.161 151.249 301.838 150.109C298.07 149.885 296.527 150.675 294.981 154.43C292.456 156.664 291.571 158.376 291.323 162.301C298.762 166.596 301.729 167.43 306.925 168.767C311.353 169.94 313.201 168.728 316.419 166.342Z" fill="#14000C"/>
<path d="M314.125 164.861C316.493 162.45 317.101 160.921 314.349 157.176C308.315 150.865 306.274 152.06 301.759 151.093C298.564 150.903 297.255 151.573 295.944 154.758C293.802 156.652 293.051 158.104 292.841 161.433C299.15 165.076 301.667 165.783 306.074 166.917C309.829 167.913 311.397 166.885 314.125 164.861Z" fill="#0700C9"/>
<path d="M309.337 155.546C312.939 157.533 312.439 158.954 311.18 161.536C310.267 163.163 309.118 163.64 306.69 164.242C300.319 164.887 296.742 163.117 297.499 159.33C298.407 157.462 299.061 156.421 300.916 154.578C304.906 152.108 306.504 153.326 309.337 155.546Z" fill="black" stroke="black" stroke-width="0.344335"/>
<path d="M308.157 156.362C310.868 157.858 310.492 158.928 309.544 160.872C308.857 162.098 307.992 162.457 306.164 162.91C301.367 163.395 298.673 162.063 299.243 159.212C299.927 157.805 300.42 157.021 301.816 155.633C304.821 153.773 306.023 154.691 308.157 156.362Z" fill="#040146" stroke="black" stroke-width="0.344335"/>
<path d="M305.977 156.443C307.53 157.368 307.988 158.184 308.729 159.694C306.607 159.795 305.91 159.567 305.029 158.942L303.072 157.535C303.984 156.607 304.584 156.337 305.977 156.443Z" fill="#ECE0FF"/>
<path d="M302.743 159.17L305.539 161.18L302.057 161.009L300.799 160.104L301.76 159.947L302.743 159.17Z" fill="#FEDEFF"/>
<path d="M392.446 63.4556C394.803 61.9031 395.568 60.7608 393.979 57.2194C390.16 51.0061 388.283 51.623 384.766 50.0405C382.19 49.3238 381.004 49.6411 379.373 52.0117C377.292 53.1821 376.423 54.2361 375.667 56.9177C380.179 61.0007 382.11 62.0203 385.51 63.7208C388.401 65.1931 389.862 64.629 392.446 63.4556Z" fill="#14000C"/>
<path d="M391.175 62.3821C393.174 61.0655 393.823 60.0966 392.475 57.093C389.236 51.8233 387.645 52.3466 384.662 51.0044C382.477 50.3965 381.471 50.6656 380.088 52.6762C378.322 53.6689 377.586 54.5628 376.945 56.8371C380.771 60.3001 382.409 61.1648 385.292 62.6071C387.745 63.8558 388.984 63.3774 391.175 62.3821Z" fill="#0700C9"/>
<path d="M389.243 55.2147C391.441 57.1276 390.883 58.0375 389.627 59.6379C388.752 60.6291 387.885 60.7883 386.114 60.8433C381.606 60.3404 379.391 58.5821 380.48 56.072C381.387 54.9136 381.995 54.29 383.554 53.2893C386.686 52.1735 387.611 53.2551 389.243 55.2147Z" fill="black" stroke="black" stroke-width="0.24394"/>
<path d="M388.307 55.6065C389.962 57.0468 389.542 57.7319 388.596 58.9369C387.937 59.6833 387.285 59.8031 385.951 59.8445C382.556 59.4659 380.889 58.142 381.709 56.252C382.392 55.3798 382.85 54.9103 384.024 54.1568C386.382 53.3167 387.078 54.1311 388.307 55.6065Z" fill="#040146" stroke="black" stroke-width="0.24394"/>
<path d="M386.784 55.3377C387.721 56.2093 387.917 56.8428 388.205 57.9992C386.72 57.7532 386.272 57.4909 385.755 56.9272L384.609 55.6611C385.379 55.1544 385.835 55.0566 386.784 55.3377Z" fill="#ECE0FF"/>
<path d="M384.14 56.746L385.777 58.5547L383.391 57.9176L382.655 57.1037L383.344 57.1381L384.14 56.746Z" fill="#FEDEFF"/>
<path d="M400.77 55.6902C402.864 54.0807 403.5 52.9626 401.775 49.7662C397.788 44.2285 396.079 44.9322 392.689 43.6953C390.236 43.2021 389.15 43.5792 387.791 45.9025C385.928 47.1368 385.189 48.1795 384.667 50.7335C389.156 54.236 391.027 55.0557 394.315 56.4108C397.114 57.5875 398.439 56.9614 400.77 55.6902Z" fill="#14000C"/>
<path d="M399.51 54.7815C401.285 53.4165 401.825 52.4681 400.362 49.7571C396.98 45.0604 395.53 45.6572 392.655 44.6082C390.575 44.1899 389.654 44.5097 388.501 46.4802C386.921 47.527 386.295 48.4114 385.852 50.5775C389.659 53.5481 391.246 54.2434 394.035 55.3927C396.409 56.3906 397.533 55.8597 399.51 54.7815Z" fill="#0700C9"/>
<path d="M397.217 48.2266C399.399 49.8618 398.941 50.7489 397.877 52.328C397.128 53.3128 396.33 53.5204 394.681 53.6925C390.44 53.5307 388.253 52.041 389.098 49.6244C389.866 48.4814 390.391 47.858 391.777 46.8178C394.624 45.563 395.561 46.5093 397.217 48.2266Z" fill="black" stroke="black" stroke-width="0.228249"/>
<path d="M396.367 48.6516C398.009 49.8828 397.664 50.5508 396.863 51.7397C396.3 52.4812 395.699 52.6375 394.457 52.7671C391.263 52.6453 389.617 51.5236 390.253 49.704C390.832 48.8435 391.227 48.3741 392.271 47.5909C394.414 46.646 395.119 47.3586 396.367 48.6516Z" fill="#040146" stroke="black" stroke-width="0.228249"/>
<path d="M394.929 48.5075C395.864 49.2569 396.09 49.8347 396.438 50.8941C395.035 50.7659 394.598 50.5517 394.077 50.0609L392.922 48.9576C393.606 48.4322 394.025 48.3099 394.929 48.5075Z" fill="#ECE0FF"/>
<path d="M392.56 50.002L394.211 51.5781L391.941 51.1464L391.198 50.4371L391.843 50.4222L392.56 50.002Z" fill="#FEDEFF"/>
</svg>
