<svg width="54" height="54" viewBox="0 0 54 54" fill="none" xmlns="http://www.w3.org/2000/svg">
<path d="M51.5836 -0.00312514C32.4981 12.5536 28.5967 21.5233 25.9173 38.7348L25.783 40.6028L24.8855 38.9817L20.7613 33.2108C18.3139 29.8441 16.7012 28.1049 13.3471 25.3272C6.37505 20.3067 2.10233 17.067 0.30768 18.0984C-1.18733 17.9631 3.0908 22.5584 6.23401 26.6574L6.5838 28.0903C8.32558 32.5424 10.3479 34.6626 14.0607 38.4068L12.7803 40.4161C13.7087 41.7468 14.3365 42.4488 15.7894 43.5538L23.5308 47.8203C38.6998 51.8346 48.4423 54.505 48.4066 53.3598C49.455 52.2901 47.6105 51.0892 45.0098 49.1176C47.9243 48.0005 49.336 47.0866 50.2932 43.436C52.8007 41.8602 53.2139 40.6243 53.1294 38.1275C48.6274 36.3449 45.9255 35.7053 40.7523 35.1835C43.7976 32.8904 45.4555 31.2775 48.2548 27.3477C51.797 22.2702 51.1425 18.898 49.9863 12.9412L49.966 12.8363C52.1395 5.64209 54.3454 0.212268 51.5836 -0.00312514Z" fill="#C44F0A"/>
</svg>
