<svg width="54" height="54" viewBox="0 0 54 54" fill="none" xmlns="http://www.w3.org/2000/svg">
<path d="M1.55701 -0.00312514C20.6425 12.5536 24.5439 21.5233 27.2234 38.7348L27.3577 40.6028L28.2551 38.9817L32.3793 33.2108C34.8267 29.8441 36.4394 28.1049 39.7936 25.3272C46.7656 20.3067 51.0383 17.067 52.8329 18.0984C54.328 17.9631 50.0498 22.5584 46.9066 26.6574L46.5568 28.0903C44.815 32.5424 42.7927 34.6626 39.0799 38.4068L40.3603 40.4161C39.432 41.7468 38.8042 42.4488 37.3512 43.5538L29.6098 47.8203C14.4408 51.8346 4.69836 54.505 4.73407 53.3598C3.68563 52.2901 5.53012 51.0892 8.13086 49.1176C5.21631 48.0005 3.80463 47.0866 2.84742 43.436C0.339891 41.8602 -0.0733123 40.6243 0.0112266 38.1275C4.51323 36.3449 7.21513 35.7053 12.3883 35.1835C9.34307 32.8904 7.68511 31.2775 4.88585 27.3477C1.34359 22.2702 1.9981 18.898 3.15428 12.9412L3.17464 12.8363C1.00113 5.64209 -1.20475 0.212268 1.55701 -0.00312514Z" fill="#FF5DD6"/>
</svg>
