<svg width="440" height="312" viewBox="0 0 440 312" fill="none" xmlns="http://www.w3.org/2000/svg">
<path d="M166.143 103.543C220.918 142.207 224.059 170.733 201.954 228.487C185.702 251.555 162.054 253.614 124.111 260.449C79.3701 257.596 48.7991 246.423 51.8722 219.976C37.3858 205.139 32.1281 195.969 50.4548 171.369C39.8342 168.015 34.5509 164.571 26.0963 156.18C-1.14563 126.783 -5.49583 110.965 36.2381 84.7445C86.5906 74.2284 115.087 80.2029 166.143 103.543Z" fill="#EE6E01"/>
<path d="M199.372 175.567C194.705 185.233 190.977 190.392 178.575 198.358C141.539 200.543 131.247 195.118 132.202 169.981C145.951 146.134 157.615 148.232 173.605 145.653C194.684 148.836 198.194 157.002 199.372 175.567Z" fill="#120608"/>
<path d="M170.203 157.934C188.126 162.603 202.274 170.029 179.304 195.115C150.908 200.684 145.646 193.501 145.53 172.01C151.263 158.538 156.74 155.563 170.203 157.934Z" fill="#2765E0"/>
<path d="M265.423 100.092C207.867 140.719 204.567 170.693 227.794 231.378C244.871 255.617 269.719 257.781 309.588 264.962C356.6 261.964 388.723 250.224 385.493 222.436C400.715 206.845 406.24 197.21 386.983 171.361C398.142 167.836 403.694 164.218 412.578 155.401C441.202 124.512 445.773 107.891 401.921 80.3397C349.013 69.2899 319.07 75.5677 265.423 100.092Z" fill="#EE6E01"/>
<mask id="path-5-outside-1_2083_10809" maskUnits="userSpaceOnUse" x="158.41" y="32" width="52" height="104" fill="black">
<rect fill="white" x="158.41" y="32" width="52" height="104"/>
<path d="M198.042 65.0411C198.042 55.1045 196.252 47.2716 192.671 41.5424C189.001 35.8132 182.735 32.9486 173.872 32.9486C171.903 32.9486 169.844 33.3067 167.696 34.0228C165.458 34.6495 163.533 35.7237 161.922 37.2455C160.31 38.6778 159.505 40.5577 159.505 42.8852C159.505 44.586 159.997 46.0183 160.982 47.1821C161.877 48.3458 163.22 48.9277 165.01 48.9277C167.158 49.0172 168.68 48.3906 169.575 47.0478C170.381 45.6155 170.784 44.407 170.784 43.4223C170.784 42.8852 170.739 42.3481 170.65 41.811C170.56 41.2739 170.381 40.692 170.113 40.0654C170.739 39.2597 171.634 38.6778 172.798 38.3197C173.872 37.9617 174.902 37.7826 175.887 37.7826C178.662 37.7826 180.81 38.5883 182.332 40.1996C183.854 41.811 184.928 43.8251 185.555 46.2421C186.181 48.6592 186.494 51.1657 186.494 53.7617V67.8609H168.367V73.0978L186.494 73.5006L186.36 120.767C186.36 122.557 186.405 124.168 186.494 125.601C186.494 126.943 186.629 128.376 186.897 129.897C185.465 129.808 184.077 129.763 182.735 129.763C181.302 129.674 179.87 129.584 178.438 129.495V135H205.831V130.972C203.055 130.972 201.131 130.3 200.057 128.957C198.982 127.525 198.356 125.601 198.177 123.184C197.998 120.677 197.908 117.812 197.908 114.59L198.042 73.6349L209.053 73.9034V67.8609H198.042V65.0411Z"/>
</mask>
<path d="M198.042 65.0411C198.042 55.1045 196.252 47.2716 192.671 41.5424C189.001 35.8132 182.735 32.9486 173.872 32.9486C171.903 32.9486 169.844 33.3067 167.696 34.0228C165.458 34.6495 163.533 35.7237 161.922 37.2455C160.31 38.6778 159.505 40.5577 159.505 42.8852C159.505 44.586 159.997 46.0183 160.982 47.1821C161.877 48.3458 163.22 48.9277 165.01 48.9277C167.158 49.0172 168.68 48.3906 169.575 47.0478C170.381 45.6155 170.784 44.407 170.784 43.4223C170.784 42.8852 170.739 42.3481 170.65 41.811C170.56 41.2739 170.381 40.692 170.113 40.0654C170.739 39.2597 171.634 38.6778 172.798 38.3197C173.872 37.9617 174.902 37.7826 175.887 37.7826C178.662 37.7826 180.81 38.5883 182.332 40.1996C183.854 41.811 184.928 43.8251 185.555 46.2421C186.181 48.6592 186.494 51.1657 186.494 53.7617V67.8609H168.367V73.0978L186.494 73.5006L186.36 120.767C186.36 122.557 186.405 124.168 186.494 125.601C186.494 126.943 186.629 128.376 186.897 129.897C185.465 129.808 184.077 129.763 182.735 129.763C181.302 129.674 179.87 129.584 178.438 129.495V135H205.831V130.972C203.055 130.972 201.131 130.3 200.057 128.957C198.982 127.525 198.356 125.601 198.177 123.184C197.998 120.677 197.908 117.812 197.908 114.59L198.042 73.6349L209.053 73.9034V67.8609H198.042V65.0411Z" fill="white"/>
<path d="M192.671 41.5424L193.425 41.0595L193.43 41.068L192.671 41.5424ZM167.696 34.0228L167.979 34.8721L167.958 34.879L167.937 34.8849L167.696 34.0228ZM161.922 37.2455L162.536 37.8963L162.526 37.9056L162.516 37.9146L161.922 37.2455ZM160.982 47.1821L161.665 46.6039L161.678 46.6198L161.691 46.6363L160.982 47.1821ZM165.01 48.9277V48.0325H165.029L165.047 48.0333L165.01 48.9277ZM169.575 47.0478L170.356 47.4867L170.339 47.5162L170.32 47.5444L169.575 47.0478ZM170.65 41.811L169.767 41.9581L169.767 41.9581L170.65 41.811ZM170.113 40.0654L169.29 40.418L169.082 39.9326L169.406 39.5158L170.113 40.0654ZM172.798 38.3197L173.081 39.169L173.071 39.1723L173.061 39.1753L172.798 38.3197ZM182.332 40.1996L182.983 39.585L182.983 39.585L182.332 40.1996ZM185.555 46.2421L186.421 46.0175L186.421 46.0175L185.555 46.2421ZM186.494 67.8609H187.39V68.7561H186.494V67.8609ZM168.367 67.8609H167.472V66.9657H168.367V67.8609ZM168.367 73.0978L168.347 73.9927L167.472 73.9733V73.0978H168.367ZM186.494 73.5006L186.514 72.6056L187.392 72.6251L187.39 73.5032L186.494 73.5006ZM186.36 120.767L185.465 120.767L185.465 120.764L186.36 120.767ZM186.494 125.601L187.388 125.545L187.39 125.573V125.601H186.494ZM186.897 129.897L187.779 129.742L187.977 130.862L186.841 130.791L186.897 129.897ZM182.735 129.763V130.658H182.707L182.679 130.657L182.735 129.763ZM178.438 129.495H177.543V128.542L178.494 128.601L178.438 129.495ZM178.438 135V135.895H177.543V135H178.438ZM205.831 135H206.726V135.895H205.831V135ZM205.831 130.972V130.076H206.726V130.972H205.831ZM200.057 128.957L199.358 129.517L199.349 129.506L199.34 129.495L200.057 128.957ZM198.177 123.184L197.284 123.25L197.284 123.247L198.177 123.184ZM197.908 114.59L197.013 114.59L197.013 114.587L197.908 114.59ZM198.042 73.6349L197.147 73.632L197.15 72.7177L198.064 72.74L198.042 73.6349ZM209.053 73.9034H209.948V74.8207L209.031 74.7984L209.053 73.9034ZM209.053 67.8609V66.9657H209.948V67.8609H209.053ZM198.042 67.8609V68.7561H197.147V67.8609H198.042ZM198.042 65.0411H197.147C197.147 55.1981 195.371 47.5518 191.912 42.0169L192.671 41.5424L193.43 41.068C197.133 46.9914 198.938 55.0109 198.938 65.0411H198.042ZM192.671 41.5424L191.917 42.0253C188.461 36.6297 182.534 33.8438 173.872 33.8438V32.9486V32.0534C182.936 32.0534 189.541 34.9967 193.425 41.0595L192.671 41.5424ZM173.872 32.9486V33.8438C172.012 33.8438 170.049 34.1819 167.979 34.8721L167.696 34.0228L167.412 33.1736C169.639 32.4315 171.793 32.0534 173.872 32.0534V32.9486ZM167.696 34.0228L167.937 34.8849C165.832 35.4743 164.037 36.479 162.536 37.8963L161.922 37.2455L161.307 36.5947C163.029 34.9684 165.083 33.8246 167.454 33.1608L167.696 34.0228ZM161.922 37.2455L162.516 37.9146C161.113 39.1624 160.4 40.7905 160.4 42.8852H159.505H158.609C158.609 40.3249 159.508 38.1933 161.327 36.5764L161.922 37.2455ZM159.505 42.8852H160.4C160.4 44.4005 160.833 45.6206 161.665 46.6039L160.982 47.1821L160.298 47.7603C159.161 46.416 158.609 44.7716 158.609 42.8852H159.505ZM160.982 47.1821L161.691 46.6363C162.379 47.531 163.43 48.0325 165.01 48.0325V48.9277V49.8229C163.01 49.8229 161.374 49.1607 160.272 47.7279L160.982 47.1821ZM165.01 48.9277L165.047 48.0333C167 48.1147 168.165 47.5494 168.831 46.5513L169.575 47.0478L170.32 47.5444C169.195 49.2318 167.316 49.9198 164.973 49.8221L165.01 48.9277ZM169.575 47.0478L168.795 46.6089C169.57 45.2314 169.889 44.1826 169.889 43.4223H170.784H171.679C171.679 44.6315 171.192 45.9997 170.356 47.4867L169.575 47.0478ZM170.784 43.4223H169.889C169.889 42.9352 169.848 42.4473 169.767 41.9581L170.65 41.811L171.533 41.6638C171.63 42.2489 171.679 42.8352 171.679 43.4223H170.784ZM170.65 41.811L169.767 41.9581C169.691 41.5068 169.537 40.9945 169.29 40.418L170.113 40.0654L170.935 39.7127C171.225 40.3895 171.429 41.0409 171.533 41.6638L170.65 41.811ZM170.113 40.0654L169.406 39.5158C170.166 38.5388 171.23 37.8656 172.535 37.4641L172.798 38.3197L173.061 39.1753C172.039 39.49 171.313 39.9806 170.819 40.6149L170.113 40.0654ZM172.798 38.3197L172.515 37.4705C173.667 37.0865 174.792 36.8874 175.887 36.8874V37.7826V38.6778C175.011 38.6778 174.078 38.8369 173.081 39.169L172.798 38.3197ZM175.887 37.7826V36.8874C178.842 36.8874 181.251 37.7516 182.983 39.585L182.332 40.1996L181.681 40.8143C180.369 39.425 178.481 38.6778 175.887 38.6778V37.7826ZM182.332 40.1996L182.983 39.585C184.621 41.3193 185.761 43.4732 186.421 46.0175L185.555 46.2421L184.688 46.4668C184.094 44.1771 183.087 42.3026 181.681 40.8143L182.332 40.1996ZM185.555 46.2421L186.421 46.0175C187.067 48.5107 187.39 51.0929 187.39 53.7617H186.494H185.599C185.599 51.2385 185.295 48.8076 184.688 46.4668L185.555 46.2421ZM186.494 53.7617H187.39V67.8609H186.494H185.599V53.7617H186.494ZM186.494 67.8609V68.7561H168.367V67.8609V66.9657H186.494V67.8609ZM168.367 67.8609H169.262V73.0978H168.367H167.472V67.8609H168.367ZM168.367 73.0978L168.387 72.2028L186.514 72.6056L186.494 73.5006L186.475 74.3956L168.347 73.9927L168.367 73.0978ZM186.494 73.5006L187.39 73.5032L187.255 120.769L186.36 120.767L185.465 120.764L185.599 73.4981L186.494 73.5006ZM186.36 120.767H187.255C187.255 122.543 187.3 124.135 187.388 125.545L186.494 125.601L185.601 125.656C185.51 124.202 185.465 122.571 185.465 120.767H186.36ZM186.494 125.601H187.39C187.39 126.884 187.518 128.264 187.779 129.742L186.897 129.897L186.016 130.053C185.739 128.487 185.599 127.003 185.599 125.601H186.494ZM186.897 129.897L186.841 130.791C185.427 130.702 184.058 130.658 182.735 130.658V129.763V128.868C184.097 128.868 185.504 128.913 186.953 129.004L186.897 129.897ZM182.735 129.763L182.679 130.657C181.247 130.567 179.814 130.478 178.382 130.388L178.438 129.495L178.494 128.601C179.926 128.691 181.358 128.78 182.791 128.87L182.735 129.763ZM178.438 129.495H179.333V135H178.438H177.543V129.495H178.438ZM178.438 135V134.105H205.831V135V135.895H178.438V135ZM205.831 135H204.935V130.972H205.831H206.726V135H205.831ZM205.831 130.972V131.867C202.949 131.867 200.684 131.174 199.358 129.517L200.057 128.957L200.756 128.398C201.578 129.426 203.161 130.076 205.831 130.076V130.972ZM200.057 128.957L199.34 129.495C198.133 127.885 197.471 125.779 197.284 123.25L198.177 123.184L199.069 123.117C199.24 125.422 199.831 127.165 200.773 128.42L200.057 128.957ZM198.177 123.184L197.284 123.247C197.103 120.715 197.013 117.828 197.013 114.59H197.908H198.803C198.803 117.797 198.892 120.639 199.07 123.12L198.177 123.184ZM197.908 114.59L197.013 114.587L197.147 73.632L198.042 73.6349L198.938 73.6378L198.803 114.593L197.908 114.59ZM198.042 73.6349L198.064 72.74L209.075 73.0085L209.053 73.9034L209.031 74.7984L198.021 74.5298L198.042 73.6349ZM209.053 73.9034H208.158V67.8609H209.053H209.948V73.9034H209.053ZM209.053 67.8609V68.7561H198.042V67.8609V66.9657H209.053V67.8609ZM198.042 67.8609H197.147V65.0411H198.042H198.938V67.8609H198.042Z" fill="white" mask="url(#path-5-outside-1_2083_10809)"/>
<mask id="path-7-outside-2_2083_10809" maskUnits="userSpaceOnUse" x="201.172" y="32" width="52" height="104" fill="black">
<rect fill="white" x="201.172" y="32" width="52" height="104"/>
<path d="M213.54 65.0411C213.54 55.1045 215.33 47.2716 218.911 41.5424C222.581 35.8132 228.847 32.9486 237.71 32.9486C239.679 32.9486 241.738 33.3067 243.886 34.0228C246.124 34.6495 248.049 35.7237 249.66 37.2455C251.272 38.6778 252.077 40.5577 252.077 42.8852C252.077 44.586 251.585 46.0183 250.6 47.1821C249.705 48.3458 248.362 48.9277 246.572 48.9277C244.424 49.0172 242.902 48.3906 242.007 47.0478C241.201 45.6155 240.798 44.407 240.798 43.4223C240.798 42.8852 240.843 42.3481 240.932 41.811C241.022 41.2739 241.201 40.692 241.469 40.0654C240.843 39.2597 239.948 38.6778 238.784 38.3197C237.71 37.9617 236.68 37.7826 235.696 37.7826C232.92 37.7826 230.772 38.5883 229.25 40.1996C227.728 41.811 226.654 43.8251 226.028 46.2421C225.401 48.6592 225.088 51.1657 225.088 53.7617V67.8609H243.215V73.0978L225.088 73.5006L225.222 120.767C225.222 122.557 225.177 124.168 225.088 125.601C225.088 126.943 224.953 128.376 224.685 129.897C226.117 129.808 227.505 129.763 228.847 129.763C230.28 129.674 231.712 129.584 233.144 129.495V135H205.752V130.972C208.527 130.972 210.451 130.3 211.525 128.957C212.6 127.525 213.226 125.601 213.405 123.184C213.584 120.677 213.674 117.812 213.674 114.59L213.54 73.6349L202.529 73.9034V67.8609H213.54V65.0411Z"/>
</mask>
<path d="M213.54 65.0411C213.54 55.1045 215.33 47.2716 218.911 41.5424C222.581 35.8132 228.847 32.9486 237.71 32.9486C239.679 32.9486 241.738 33.3067 243.886 34.0228C246.124 34.6495 248.049 35.7237 249.66 37.2455C251.272 38.6778 252.077 40.5577 252.077 42.8852C252.077 44.586 251.585 46.0183 250.6 47.1821C249.705 48.3458 248.362 48.9277 246.572 48.9277C244.424 49.0172 242.902 48.3906 242.007 47.0478C241.201 45.6155 240.798 44.407 240.798 43.4223C240.798 42.8852 240.843 42.3481 240.932 41.811C241.022 41.2739 241.201 40.692 241.469 40.0654C240.843 39.2597 239.948 38.6778 238.784 38.3197C237.71 37.9617 236.68 37.7826 235.696 37.7826C232.92 37.7826 230.772 38.5883 229.25 40.1996C227.728 41.811 226.654 43.8251 226.028 46.2421C225.401 48.6592 225.088 51.1657 225.088 53.7617V67.8609H243.215V73.0978L225.088 73.5006L225.222 120.767C225.222 122.557 225.177 124.168 225.088 125.601C225.088 126.943 224.953 128.376 224.685 129.897C226.117 129.808 227.505 129.763 228.847 129.763C230.28 129.674 231.712 129.584 233.144 129.495V135H205.752V130.972C208.527 130.972 210.451 130.3 211.525 128.957C212.6 127.525 213.226 125.601 213.405 123.184C213.584 120.677 213.674 117.812 213.674 114.59L213.54 73.6349L202.529 73.9034V67.8609H213.54V65.0411Z" fill="white"/>
<path d="M218.911 41.5424L218.157 41.0595L218.152 41.068L218.911 41.5424ZM243.886 34.0228L243.603 34.8721L243.624 34.879L243.645 34.8849L243.886 34.0228ZM249.66 37.2455L249.046 37.8963L249.056 37.9056L249.066 37.9146L249.66 37.2455ZM250.6 47.1821L249.917 46.6039L249.904 46.6198L249.891 46.6363L250.6 47.1821ZM246.572 48.9277V48.0325H246.553L246.535 48.0333L246.572 48.9277ZM242.007 47.0478L241.226 47.4867L241.243 47.5162L241.262 47.5444L242.007 47.0478ZM240.932 41.811L241.815 41.9581L241.815 41.9581L240.932 41.811ZM241.469 40.0654L242.292 40.418L242.5 39.9326L242.176 39.5158L241.469 40.0654ZM238.784 38.3197L238.501 39.169L238.511 39.1723L238.521 39.1753L238.784 38.3197ZM229.25 40.1996L228.599 39.585L228.599 39.585L229.25 40.1996ZM226.028 46.2421L225.161 46.0175L225.161 46.0175L226.028 46.2421ZM225.088 67.8609H224.192V68.7561H225.088V67.8609ZM243.215 67.8609H244.11V66.9657H243.215V67.8609ZM243.215 73.0978L243.235 73.9927L244.11 73.9733V73.0978H243.215ZM225.088 73.5006L225.068 72.6056L224.19 72.6251L224.192 73.5032L225.088 73.5006ZM225.222 120.767L226.117 120.767L226.117 120.764L225.222 120.767ZM225.088 125.601L224.194 125.545L224.192 125.573V125.601H225.088ZM224.685 129.897L223.803 129.742L223.606 130.862L224.741 130.791L224.685 129.897ZM228.847 129.763V130.658H228.875L228.903 130.657L228.847 129.763ZM233.144 129.495H234.039V128.542L233.088 128.601L233.144 129.495ZM233.144 135V135.895H234.039V135H233.144ZM205.752 135H204.856V135.895H205.752V135ZM205.752 130.972V130.076H204.856V130.972H205.752ZM211.525 128.957L212.224 129.517L212.233 129.506L212.242 129.495L211.525 128.957ZM213.405 123.184L214.298 123.25L214.298 123.247L213.405 123.184ZM213.674 114.59L214.569 114.59L214.569 114.587L213.674 114.59ZM213.54 73.6349L214.435 73.632L214.432 72.7177L213.518 72.74L213.54 73.6349ZM202.529 73.9034H201.634V74.8207L202.551 74.7984L202.529 73.9034ZM202.529 67.8609V66.9657H201.634V67.8609H202.529ZM213.54 67.8609V68.7561H214.435V67.8609H213.54ZM213.54 65.0411H214.435C214.435 55.1981 216.211 47.5518 219.67 42.0169L218.911 41.5424L218.152 41.068C214.449 46.9914 212.644 55.0109 212.644 65.0411H213.54ZM218.911 41.5424L219.665 42.0253C223.121 36.6297 229.049 33.8438 237.71 33.8438V32.9486V32.0534C228.646 32.0534 222.041 34.9967 218.157 41.0595L218.911 41.5424ZM237.71 32.9486V33.8438C239.57 33.8438 241.533 34.1819 243.603 34.8721L243.886 34.0228L244.17 33.1736C241.943 32.4315 239.789 32.0534 237.71 32.0534V32.9486ZM243.886 34.0228L243.645 34.8849C245.75 35.4743 247.545 36.479 249.046 37.8963L249.66 37.2455L250.275 36.5947C248.553 34.9684 246.499 33.8246 244.128 33.1608L243.886 34.0228ZM249.66 37.2455L249.066 37.9146C250.469 39.1624 251.182 40.7905 251.182 42.8852H252.077H252.973C252.973 40.3249 252.074 38.1933 250.255 36.5764L249.66 37.2455ZM252.077 42.8852H251.182C251.182 44.4005 250.749 45.6206 249.917 46.6039L250.6 47.1821L251.284 47.7603C252.421 46.416 252.973 44.7716 252.973 42.8852H252.077ZM250.6 47.1821L249.891 46.6363C249.203 47.531 248.152 48.0325 246.572 48.0325V48.9277V49.8229C248.572 49.8229 250.208 49.1607 251.31 47.7279L250.6 47.1821ZM246.572 48.9277L246.535 48.0333C244.582 48.1147 243.417 47.5494 242.751 46.5513L242.007 47.0478L241.262 47.5444C242.387 49.2318 244.266 49.9198 246.609 49.8221L246.572 48.9277ZM242.007 47.0478L242.787 46.6089C242.012 45.2314 241.693 44.1826 241.693 43.4223H240.798H239.903C239.903 44.6315 240.39 45.9997 241.226 47.4867L242.007 47.0478ZM240.798 43.4223H241.693C241.693 42.9352 241.734 42.4473 241.815 41.9581L240.932 41.811L240.049 41.6638C239.952 42.2489 239.903 42.8352 239.903 43.4223H240.798ZM240.932 41.811L241.815 41.9581C241.891 41.5068 242.045 40.9945 242.292 40.418L241.469 40.0654L240.647 39.7127C240.357 40.3895 240.153 41.0409 240.049 41.6638L240.932 41.811ZM241.469 40.0654L242.176 39.5158C241.416 38.5388 240.352 37.8656 239.047 37.4641L238.784 38.3197L238.521 39.1753C239.543 39.49 240.269 39.9806 240.763 40.6149L241.469 40.0654ZM238.784 38.3197L239.067 37.4705C237.915 37.0865 236.79 36.8874 235.696 36.8874V37.7826V38.6778C236.571 38.6778 237.504 38.8369 238.501 39.169L238.784 38.3197ZM235.696 37.7826V36.8874C232.74 36.8874 230.331 37.7516 228.599 39.585L229.25 40.1996L229.901 40.8143C231.213 39.425 233.101 38.6778 235.696 38.6778V37.7826ZM229.25 40.1996L228.599 39.585C226.961 41.3193 225.821 43.4732 225.161 46.0175L226.028 46.2421L226.894 46.4668C227.488 44.1771 228.495 42.3026 229.901 40.8143L229.25 40.1996ZM226.028 46.2421L225.161 46.0175C224.515 48.5107 224.192 51.0929 224.192 53.7617H225.088H225.983C225.983 51.2385 226.287 48.8076 226.894 46.4668L226.028 46.2421ZM225.088 53.7617H224.192V67.8609H225.088H225.983V53.7617H225.088ZM225.088 67.8609V68.7561H243.215V67.8609V66.9657H225.088V67.8609ZM243.215 67.8609H242.32V73.0978H243.215H244.11V67.8609H243.215ZM243.215 73.0978L243.195 72.2028L225.068 72.6056L225.088 73.5006L225.107 74.3956L243.235 73.9927L243.215 73.0978ZM225.088 73.5006L224.192 73.5032L224.327 120.769L225.222 120.767L226.117 120.764L225.983 73.4981L225.088 73.5006ZM225.222 120.767H224.327C224.327 122.543 224.282 124.135 224.194 125.545L225.088 125.601L225.981 125.656C226.072 124.202 226.117 122.571 226.117 120.767H225.222ZM225.088 125.601H224.192C224.192 126.884 224.064 128.264 223.803 129.742L224.685 129.897L225.566 130.053C225.843 128.487 225.983 127.003 225.983 125.601H225.088ZM224.685 129.897L224.741 130.791C226.156 130.702 227.524 130.658 228.847 130.658V129.763V128.868C227.485 128.868 226.079 128.913 224.629 129.004L224.685 129.897ZM228.847 129.763L228.903 130.657C230.335 130.567 231.768 130.478 233.2 130.388L233.144 129.495L233.088 128.601C231.656 128.691 230.224 128.78 228.792 128.87L228.847 129.763ZM233.144 129.495H232.249V135H233.144H234.039V129.495H233.144ZM233.144 135V134.105H205.752V135V135.895H233.144V135ZM205.752 135H206.647V130.972H205.752H204.856V135H205.752ZM205.752 130.972V131.867C208.633 131.867 210.898 131.174 212.224 129.517L211.525 128.957L210.826 128.398C210.004 129.426 208.421 130.076 205.752 130.076V130.972ZM211.525 128.957L212.242 129.495C213.449 127.885 214.111 125.779 214.298 123.25L213.405 123.184L212.513 123.117C212.342 125.422 211.751 127.165 210.809 128.42L211.525 128.957ZM213.405 123.184L214.298 123.247C214.479 120.715 214.569 117.828 214.569 114.59H213.674H212.779C212.779 117.797 212.69 120.639 212.512 123.12L213.405 123.184ZM213.674 114.59L214.569 114.587L214.435 73.632L213.54 73.6349L212.644 73.6378L212.779 114.593L213.674 114.59ZM213.54 73.6349L213.518 72.74L202.507 73.0085L202.529 73.9034L202.551 74.7984L213.561 74.5298L213.54 73.6349ZM202.529 73.9034H203.424V67.8609H202.529H201.634V73.9034H202.529ZM202.529 67.8609V68.7561H213.54V67.8609V66.9657H202.529V67.8609ZM213.54 67.8609H214.435V65.0411H213.54H212.644V67.8609H213.54Z" fill="white" mask="url(#path-7-outside-2_2083_10809)"/>
<mask id="path-9-outside-3_2083_10809" maskUnits="userSpaceOnUse" x="207.11" y="155.645" width="134.046" height="134.632" fill="black">
<rect fill="white" x="207.11" y="155.645" width="134.046" height="134.632"/>
<path d="M229.763 213.223L257.273 266.878C259.142 270.399 260.595 273.166 261.634 275.178C262.724 277.24 263.709 278.95 264.587 280.306C263.836 280.974 263.111 281.667 262.411 282.385C261.711 283.103 260.986 283.796 260.235 284.464L263.62 287.763L281.838 269.067L279.299 266.593C276.246 269.418 273.83 270.564 272.051 270.03C270.321 269.444 268.318 267.242 266.04 263.422C263.505 259.252 261.377 255.329 259.659 251.654C257.94 247.98 255.991 244.131 253.812 240.107C252.203 237.14 250.775 234.348 249.525 231.731C248.326 229.062 246.896 226.169 245.235 223.05L245.385 222.896C246.507 223.49 247.68 224.133 248.904 224.826C250.178 225.468 251.427 226.085 252.65 226.677C253.873 227.268 254.995 227.811 256.014 228.304C257.084 228.847 257.951 229.292 258.614 229.638C264.578 232.65 270.364 235.538 275.97 238.301C281.678 241.063 286.672 243.48 290.953 245.552C295.286 247.674 298.421 249.279 300.359 250.368L302.759 247.906C301.516 245.795 300.011 243.029 298.245 239.608C296.479 236.187 294.635 232.59 292.712 228.817C290.789 225.043 288.946 221.497 287.181 218.177C285.466 214.806 284.089 212.115 283.05 210.102C281.442 207.135 279.884 204.167 278.377 201.199C276.92 198.179 275.311 195.161 273.55 192.146L273.775 191.915C275.712 192.903 277.777 193.965 279.969 195.101C282.212 196.186 284.48 197.296 286.773 198.432C291.868 200.796 296.098 202.818 299.462 204.496C302.876 206.124 305.679 207.505 307.872 208.642C310.114 209.727 312.026 210.69 313.607 211.53C315.289 212.369 316.92 213.159 318.499 213.898C319.671 214.44 320.919 215.006 322.243 215.596C323.669 216.186 325.068 216.649 326.439 216.986C325.389 217.961 324.338 218.937 323.287 219.913C322.287 220.939 321.262 221.94 320.211 222.915L323.596 226.214L338.815 210.596L336.276 208.122C334.372 209.666 332.638 210.676 331.074 211.152C329.56 211.577 327.659 211.424 325.37 210.694C323.082 209.964 319.823 208.588 315.593 206.567C306.319 202.129 297.197 197.74 288.227 193.399C279.359 189.057 270.417 184.843 261.4 180.756L259.151 183.064L281.145 227.295C282.029 229.056 282.887 230.792 283.72 232.504C284.602 234.163 285.46 235.849 286.292 237.56C284.61 236.721 282.903 235.907 281.171 235.119C279.489 234.28 277.807 233.441 276.124 232.602L231.937 210.992L229.763 213.223Z"/>
</mask>
<path d="M229.763 213.223L257.273 266.878C259.142 270.399 260.595 273.166 261.634 275.178C262.724 277.24 263.709 278.95 264.587 280.306C263.836 280.974 263.111 281.667 262.411 282.385C261.711 283.103 260.986 283.796 260.235 284.464L263.62 287.763L281.838 269.067L279.299 266.593C276.246 269.418 273.83 270.564 272.051 270.03C270.321 269.444 268.318 267.242 266.04 263.422C263.505 259.252 261.377 255.329 259.659 251.654C257.94 247.98 255.991 244.131 253.812 240.107C252.203 237.14 250.775 234.348 249.525 231.731C248.326 229.062 246.896 226.169 245.235 223.05L245.385 222.896C246.507 223.49 247.68 224.133 248.904 224.826C250.178 225.468 251.427 226.085 252.65 226.677C253.873 227.268 254.995 227.811 256.014 228.304C257.084 228.847 257.951 229.292 258.614 229.638C264.578 232.65 270.364 235.538 275.97 238.301C281.678 241.063 286.672 243.48 290.953 245.552C295.286 247.674 298.421 249.279 300.359 250.368L302.759 247.906C301.516 245.795 300.011 243.029 298.245 239.608C296.479 236.187 294.635 232.59 292.712 228.817C290.789 225.043 288.946 221.497 287.181 218.177C285.466 214.806 284.089 212.115 283.05 210.102C281.442 207.135 279.884 204.167 278.377 201.199C276.92 198.179 275.311 195.161 273.55 192.146L273.775 191.915C275.712 192.903 277.777 193.965 279.969 195.101C282.212 196.186 284.48 197.296 286.773 198.432C291.868 200.796 296.098 202.818 299.462 204.496C302.876 206.124 305.679 207.505 307.872 208.642C310.114 209.727 312.026 210.69 313.607 211.53C315.289 212.369 316.92 213.159 318.499 213.898C319.671 214.44 320.919 215.006 322.243 215.596C323.669 216.186 325.068 216.649 326.439 216.986C325.389 217.961 324.338 218.937 323.287 219.913C322.287 220.939 321.262 221.94 320.211 222.915L323.596 226.214L338.815 210.596L336.276 208.122C334.372 209.666 332.638 210.676 331.074 211.152C329.56 211.577 327.659 211.424 325.37 210.694C323.082 209.964 319.823 208.588 315.593 206.567C306.319 202.129 297.197 197.74 288.227 193.399C279.359 189.057 270.417 184.843 261.4 180.756L259.151 183.064L281.145 227.295C282.029 229.056 282.887 230.792 283.72 232.504C284.602 234.163 285.46 235.849 286.292 237.56C284.61 236.721 282.903 235.907 281.171 235.119C279.489 234.28 277.807 233.441 276.124 232.602L231.937 210.992L229.763 213.223Z" fill="white"/>
<path d="M229.763 213.223L228.966 213.631L228.672 213.059L229.121 212.598L229.763 213.223ZM257.273 266.878L256.482 267.298L256.476 267.287L257.273 266.878ZM261.634 275.178L260.843 275.597L260.839 275.589L261.634 275.178ZM264.587 280.306L265.339 279.819L265.756 280.464L265.182 280.974L264.587 280.306ZM260.235 284.464L259.61 285.105L258.922 284.434L259.64 283.795L260.235 284.464ZM263.62 287.763L264.261 288.388L263.637 289.029L262.996 288.404L263.62 287.763ZM281.838 269.067L282.463 268.426L283.104 269.051L282.479 269.692L281.838 269.067ZM279.299 266.593L278.691 265.936L279.315 265.359L279.924 265.952L279.299 266.593ZM272.051 270.03L271.794 270.887L271.779 270.883L271.764 270.878L272.051 270.03ZM266.04 263.422L266.805 262.957L266.809 262.964L266.04 263.422ZM259.659 251.654L260.469 251.275L260.469 251.275L259.659 251.654ZM253.812 240.107L254.599 239.681L254.599 239.681L253.812 240.107ZM249.525 231.731L248.717 232.116L248.713 232.107L248.709 232.098L249.525 231.731ZM245.235 223.05L244.445 223.471L244.137 222.894L244.594 222.425L245.235 223.05ZM245.385 222.896L244.744 222.272L245.211 221.792L245.803 222.105L245.385 222.896ZM248.904 224.826L248.501 225.625L248.482 225.616L248.463 225.605L248.904 224.826ZM252.65 226.677L253.04 225.871L253.04 225.871L252.65 226.677ZM256.014 228.304L256.404 227.498L256.411 227.502L256.419 227.506L256.014 228.304ZM258.614 229.638L258.21 230.437L258.2 230.432L258.614 229.638ZM275.97 238.301L275.58 239.107L275.575 239.104L275.97 238.301ZM290.953 245.552L291.343 244.746L291.347 244.748L290.953 245.552ZM300.359 250.368L301.001 250.993L300.521 251.485L299.921 251.149L300.359 250.368ZM302.759 247.906L303.53 247.452L303.877 248.041L303.4 248.531L302.759 247.906ZM292.712 228.817L293.51 228.41L293.51 228.41L292.712 228.817ZM287.181 218.177L286.39 218.598L286.386 218.59L286.383 218.583L287.181 218.177ZM283.05 210.102L283.837 209.676L283.841 209.684L283.845 209.692L283.05 210.102ZM278.377 201.199L277.579 201.604L277.575 201.596L277.571 201.588L278.377 201.199ZM273.55 192.146L272.777 192.597L272.433 192.009L272.909 191.521L273.55 192.146ZM273.775 191.915L273.134 191.29L273.594 190.818L274.181 191.117L273.775 191.915ZM279.969 195.101L279.579 195.907L279.568 195.902L279.557 195.896L279.969 195.101ZM286.773 198.432L286.396 199.243L286.386 199.239L286.376 199.234L286.773 198.432ZM299.462 204.496L299.077 205.305L299.07 205.301L299.062 205.298L299.462 204.496ZM307.872 208.642L307.482 209.448L307.471 209.442L307.46 209.436L307.872 208.642ZM313.607 211.53L313.207 212.331L313.197 212.326L313.186 212.321L313.607 211.53ZM318.499 213.898L318.123 214.71L318.12 214.709L318.499 213.898ZM322.243 215.596L321.901 216.424L321.89 216.419L321.879 216.414L322.243 215.596ZM326.439 216.986L326.653 216.116L328.265 216.512L327.049 217.642L326.439 216.986ZM323.287 219.913L322.646 219.288L322.661 219.272L322.678 219.257L323.287 219.913ZM320.211 222.915L319.586 223.557L318.912 222.9L319.602 222.259L320.211 222.915ZM323.596 226.214L324.237 226.839L323.613 227.48L322.971 226.855L323.596 226.214ZM338.815 210.596L339.44 209.955L340.081 210.58L339.456 211.221L338.815 210.596ZM336.276 208.122L335.712 207.427L336.331 206.925L336.901 207.481L336.276 208.122ZM331.074 211.152L331.334 212.009L331.325 212.011L331.316 212.014L331.074 211.152ZM325.37 210.694L325.643 209.841L325.643 209.841L325.37 210.694ZM315.593 206.567L315.207 207.374L315.207 207.374L315.593 206.567ZM288.227 193.399L287.837 194.205L287.834 194.203L288.227 193.399ZM261.4 180.756L260.759 180.131L261.197 179.681L261.769 179.941L261.4 180.756ZM259.151 183.064L258.349 183.463L258.066 182.894L258.51 182.439L259.151 183.064ZM281.145 227.295L280.345 227.697L280.344 227.694L281.145 227.295ZM283.72 232.504L282.929 232.924L282.922 232.91L282.915 232.895L283.72 232.504ZM286.292 237.56L287.097 237.168L288.249 239.537L285.892 238.361L286.292 237.56ZM281.171 235.119L280.8 235.934L280.785 235.928L280.771 235.92L281.171 235.119ZM276.124 232.602L276.518 231.798L276.524 231.801L276.124 232.602ZM231.937 210.992L231.296 210.367L231.748 209.903L232.33 210.188L231.937 210.992ZM229.763 213.223L230.559 212.815L258.069 266.47L257.273 266.878L256.476 267.287L228.966 213.631L229.763 213.223ZM257.273 266.878L258.063 266.459C259.933 269.981 261.388 272.751 262.43 274.768L261.634 275.178L260.839 275.589C259.802 273.581 258.35 270.818 256.482 267.298L257.273 266.878ZM261.634 275.178L262.426 274.76C263.508 276.808 264.479 278.492 265.339 279.819L264.587 280.306L263.836 280.792C262.938 279.407 261.941 277.673 260.843 275.597L261.634 275.178ZM264.587 280.306L265.182 280.974C264.447 281.628 263.737 282.307 263.052 283.01L262.411 282.385L261.77 281.76C262.485 281.027 263.225 280.319 263.992 279.637L264.587 280.306ZM262.411 282.385L263.052 283.01C262.338 283.743 261.597 284.451 260.83 285.133L260.235 284.464L259.64 283.795C260.375 283.141 261.085 282.463 261.77 281.76L262.411 282.385ZM260.235 284.464L260.86 283.823L264.245 287.122L263.62 287.763L262.996 288.404L259.61 285.105L260.235 284.464ZM263.62 287.763L262.979 287.138L281.197 268.443L281.838 269.067L282.479 269.692L264.261 288.388L263.62 287.763ZM281.838 269.067L281.213 269.709L278.674 267.235L279.299 266.593L279.924 265.952L282.463 268.426L281.838 269.067ZM279.299 266.593L279.907 267.25C278.347 268.694 276.904 269.753 275.581 270.38C274.26 271.006 272.973 271.241 271.794 270.887L272.051 270.03L272.308 269.172C272.909 269.352 273.719 269.281 274.814 268.762C275.908 268.244 277.199 267.317 278.691 265.936L279.299 266.593ZM272.051 270.03L271.764 270.878C270.692 270.515 269.635 269.692 268.589 268.541C267.532 267.38 266.427 265.82 265.271 263.881L266.04 263.422L266.809 262.964C267.931 264.845 268.966 266.295 269.913 267.336C270.87 268.389 271.681 268.959 272.338 269.182L272.051 270.03ZM266.04 263.422L265.275 263.888C262.726 259.695 260.583 255.743 258.848 252.034L259.659 251.654L260.469 251.275C262.172 254.915 264.283 258.809 266.805 262.957L266.04 263.422ZM259.659 251.654L258.848 252.034C257.137 248.377 255.196 244.543 253.025 240.534L253.812 240.107L254.599 239.681C256.785 243.718 258.742 247.583 260.469 251.275L259.659 251.654ZM253.812 240.107L253.025 240.534C251.41 237.555 249.974 234.749 248.717 232.116L249.525 231.731L250.333 231.345C251.575 233.947 252.997 236.725 254.599 239.681L253.812 240.107ZM249.525 231.731L248.709 232.098C247.519 229.451 246.098 226.575 244.445 223.471L245.235 223.05L246.025 222.629C247.693 225.762 249.133 228.674 250.342 231.364L249.525 231.731ZM245.235 223.05L244.594 222.425L244.744 222.272L245.385 222.896L246.026 223.521L245.876 223.675L245.235 223.05ZM245.385 222.896L245.803 222.105C246.933 222.703 248.114 223.35 249.345 224.047L248.904 224.826L248.463 225.605C247.245 224.915 246.08 224.276 244.966 223.688L245.385 222.896ZM248.904 224.826L249.307 224.026C250.577 224.666 251.822 225.281 253.04 225.871L252.65 226.677L252.26 227.482C251.033 226.888 249.78 226.269 248.501 225.625L248.904 224.826ZM252.65 226.677L253.04 225.871C254.263 226.463 255.385 227.005 256.404 227.498L256.014 228.304L255.624 229.11C254.605 228.617 253.484 228.074 252.26 227.482L252.65 226.677ZM256.014 228.304L256.419 227.506C257.491 228.05 258.361 228.496 259.028 228.844L258.614 229.638L258.2 230.432C257.541 230.088 256.678 229.645 255.609 229.103L256.014 228.304ZM258.614 229.638L259.018 228.839C264.979 231.85 270.762 234.736 276.366 237.498L275.97 238.301L275.575 239.104C269.965 236.339 264.177 233.45 258.21 230.437L258.614 229.638ZM275.97 238.301L276.36 237.496C282.068 240.258 287.062 242.675 291.343 244.746L290.953 245.552L290.563 246.358C286.283 244.286 281.288 241.869 275.58 239.107L275.97 238.301ZM290.953 245.552L291.347 244.748C295.681 246.871 298.836 248.485 300.798 249.588L300.359 250.368L299.921 251.149C298.006 250.073 294.89 248.477 290.56 246.356L290.953 245.552ZM300.359 250.368L299.718 249.743L302.117 247.281L302.759 247.906L303.4 248.531L301.001 250.993L300.359 250.368ZM302.759 247.906L301.987 248.36C300.733 246.229 299.22 243.447 297.45 240.019L298.245 239.608L299.041 239.198C300.803 242.611 302.299 245.361 303.53 247.452L302.759 247.906ZM298.245 239.608L297.45 240.019C295.683 236.597 293.838 232.998 291.914 229.223L292.712 228.817L293.51 228.41C295.432 232.183 297.275 235.778 299.041 239.198L298.245 239.608ZM292.712 228.817L291.914 229.223C289.994 225.454 288.152 221.912 286.39 218.598L287.181 218.177L287.971 217.757C289.739 221.082 291.585 224.633 293.51 228.41L292.712 228.817ZM287.181 218.177L286.383 218.583C284.668 215.213 283.292 212.523 282.255 210.513L283.05 210.102L283.845 209.692C284.886 211.706 286.263 214.4 287.979 217.771L287.181 218.177ZM283.05 210.102L282.263 210.529C280.651 207.555 279.089 204.58 277.579 201.604L278.377 201.199L279.175 200.794C280.678 203.755 282.232 206.716 283.837 209.676L283.05 210.102ZM278.377 201.199L277.571 201.588C276.124 198.59 274.526 195.593 272.777 192.597L273.55 192.146L274.323 191.694C276.095 194.73 277.715 197.768 279.183 200.81L278.377 201.199ZM273.55 192.146L272.909 191.521L273.134 191.29L273.775 191.915L274.416 192.54L274.191 192.77L273.55 192.146ZM273.775 191.915L274.181 191.117C276.121 192.106 278.187 193.169 280.381 194.306L279.969 195.101L279.557 195.896C277.366 194.76 275.303 193.699 273.368 192.712L273.775 191.915ZM279.969 195.101L280.359 194.295C282.604 195.382 284.874 196.493 287.17 197.629L286.773 198.432L286.376 199.234C284.085 198.1 281.819 196.991 279.579 195.907L279.969 195.101ZM286.773 198.432L287.15 197.62C292.249 199.986 296.487 202.012 299.862 203.695L299.462 204.496L299.062 205.298C295.708 203.624 291.487 201.606 286.396 199.243L286.773 198.432ZM299.462 204.496L299.847 203.688C303.266 205.318 306.079 206.704 308.284 207.847L307.872 208.642L307.46 209.436C305.28 208.306 302.486 206.929 299.077 205.305L299.462 204.496ZM307.872 208.642L308.262 207.836C310.511 208.924 312.433 209.892 314.027 210.74L313.607 211.53L313.186 212.321C311.619 211.487 309.718 210.529 307.482 209.448L307.872 208.642ZM313.607 211.53L314.006 210.729C315.682 211.565 317.306 212.351 318.878 213.087L318.499 213.898L318.12 214.709C316.533 213.966 314.895 213.173 313.207 212.331L313.607 211.53ZM318.499 213.898L318.875 213.085C320.042 213.625 321.287 214.19 322.608 214.779L322.243 215.596L321.879 216.414C320.551 215.822 319.299 215.254 318.123 214.71L318.499 213.898ZM322.243 215.596L322.585 214.769C323.973 215.343 325.329 215.791 326.653 216.116L326.439 216.986L326.226 217.855C324.807 217.506 323.365 217.029 321.901 216.424L322.243 215.596ZM326.439 216.986L327.049 217.642C325.998 218.617 324.947 219.593 323.896 220.569L323.287 219.913L322.678 219.257C323.729 218.281 324.779 217.305 325.83 216.33L326.439 216.986ZM323.287 219.913L323.928 220.538C322.918 221.574 321.882 222.585 320.82 223.571L320.211 222.915L319.602 222.259C320.642 221.294 321.656 220.303 322.646 219.288L323.287 219.913ZM320.211 222.915L320.836 222.274L324.221 225.573L323.596 226.214L322.971 226.855L319.586 223.557L320.211 222.915ZM323.596 226.214L322.955 225.589L338.174 209.971L338.815 210.596L339.456 211.221L324.237 226.839L323.596 226.214ZM338.815 210.596L338.19 211.237L335.651 208.763L336.276 208.122L336.901 207.481L339.44 209.955L338.815 210.596ZM336.276 208.122L336.84 208.818C334.886 210.401 333.05 211.486 331.334 212.009L331.074 211.152L330.813 210.296C332.226 209.866 333.857 208.931 335.712 207.427L336.276 208.122ZM331.074 211.152L331.316 212.014C329.566 212.505 327.472 212.304 325.098 211.547L325.37 210.694L325.643 209.841C327.846 210.544 329.554 210.649 330.832 210.29L331.074 211.152ZM325.37 210.694L325.098 211.547C322.75 210.798 319.446 209.4 315.207 207.374L315.593 206.567L315.979 205.759C320.2 207.776 323.414 209.131 325.643 209.841L325.37 210.694ZM315.593 206.567L315.207 207.374C305.931 202.936 296.808 198.546 287.837 194.205L288.227 193.399L288.617 192.593C297.586 196.933 306.706 201.322 315.98 205.759L315.593 206.567ZM288.227 193.399L287.834 194.203C278.974 189.865 270.039 185.654 261.03 181.571L261.4 180.756L261.769 179.941C270.794 184.031 279.745 188.249 288.621 192.595L288.227 193.399ZM261.4 180.756L262.041 181.381L259.792 183.689L259.151 183.064L258.51 182.439L260.759 180.131L261.4 180.756ZM259.151 183.064L259.952 182.666L281.947 226.897L281.145 227.295L280.344 227.694L258.349 183.463L259.151 183.064ZM281.145 227.295L281.946 226.894C282.831 228.658 283.691 230.397 284.525 232.112L283.72 232.504L282.915 232.895C282.084 231.188 281.227 229.455 280.345 227.697L281.145 227.295ZM283.72 232.504L284.51 232.083C285.398 233.753 286.26 235.448 287.097 237.168L286.292 237.56L285.487 237.952C284.659 236.25 283.807 234.574 282.929 232.924L283.72 232.504ZM286.292 237.56L285.892 238.361C284.22 237.527 282.523 236.718 280.8 235.934L281.171 235.119L281.541 234.305C283.283 235.097 285 235.915 286.692 236.759L286.292 237.56ZM281.171 235.119L280.771 235.92C279.089 235.081 277.407 234.242 275.725 233.403L276.124 232.602L276.524 231.801C278.206 232.64 279.888 233.479 281.57 234.318L281.171 235.119ZM276.124 232.602L275.731 233.406L231.543 211.796L231.937 210.992L232.33 210.188L276.518 231.798L276.124 232.602ZM231.937 210.992L232.578 211.617L230.404 213.848L229.763 213.223L229.121 212.598L231.296 210.367L231.937 210.992Z" fill="white" mask="url(#path-9-outside-3_2083_10809)"/>
<mask id="path-11-outside-4_2083_10809" maskUnits="userSpaceOnUse" x="72.8193" y="154.515" width="133.953" height="134.71" fill="black">
<rect fill="white" x="72.8193" y="154.515" width="133.953" height="134.71"/>
<path d="M150.846 177.808L96.3977 203.714C92.8229 205.477 90.0144 206.848 87.9721 207.827C85.8784 208.856 84.1408 209.789 82.7593 210.627C82.1138 209.856 81.4426 209.111 80.7456 208.39C80.0486 207.669 79.3774 206.924 78.7318 206.153L75.3342 209.439L93.4808 228.203L96.0291 225.739C93.296 222.604 92.2227 220.155 92.8094 218.392C93.4458 216.681 95.7066 214.743 99.592 212.58C103.836 210.169 107.82 208.159 111.544 206.55C115.268 204.941 119.173 203.107 123.26 201.049C126.273 199.529 129.107 198.184 131.76 197.012C134.463 195.893 137.397 194.549 140.564 192.981L140.713 193.136C140.087 194.24 139.409 195.393 138.68 196.597C138.001 197.851 137.347 199.081 136.719 200.286C136.091 201.491 135.516 202.596 134.992 203.6C134.417 204.654 133.947 205.507 133.582 206.159C130.394 212.032 127.336 217.729 124.407 223.251C121.477 228.874 118.913 233.795 116.715 238.012C114.466 242.28 112.769 245.366 111.622 247.271L114.012 249.742C116.159 248.563 118.968 247.141 122.44 245.477C125.912 243.813 129.562 242.076 133.391 240.267C137.22 238.457 140.819 236.719 144.19 235.053C147.61 233.439 150.342 232.143 152.384 231.164C155.397 229.645 158.41 228.176 161.422 226.757C164.484 225.39 167.548 223.872 170.615 222.201L170.839 222.433C169.794 224.34 168.671 226.372 167.47 228.53C166.319 230.739 165.142 232.973 163.939 235.232C161.424 240.255 159.278 244.422 157.5 247.735C155.773 251.1 154.308 253.861 153.107 256.018C151.956 258.228 150.937 260.11 150.05 261.665C149.161 263.321 148.324 264.928 147.538 266.485C146.962 267.64 146.359 268.871 145.729 270.177C145.098 271.585 144.594 272.969 144.216 274.33C143.272 273.251 142.328 272.172 141.384 271.092C140.388 270.063 139.418 269.008 138.474 267.929L135.076 271.215L150.236 286.89L152.784 284.426C151.297 282.476 150.339 280.713 149.91 279.136C149.53 277.61 149.739 275.714 150.537 273.448C151.334 271.183 152.806 267.966 154.953 263.798C159.664 254.659 164.322 245.672 168.926 236.835C173.529 228.099 178.007 219.286 182.36 210.394L180.119 208.078L135.255 228.75C133.469 229.581 131.708 230.388 129.973 231.169C128.287 232.002 126.577 232.809 124.842 233.59C125.731 231.934 126.595 230.251 127.434 228.544C128.322 226.887 129.211 225.231 130.1 223.574L153.011 180.047L150.846 177.808Z"/>
</mask>
<path d="M150.846 177.808L96.3977 203.714C92.8229 205.477 90.0144 206.848 87.9721 207.827C85.8784 208.856 84.1408 209.789 82.7593 210.627C82.1138 209.856 81.4426 209.111 80.7456 208.39C80.0486 207.669 79.3774 206.924 78.7318 206.153L75.3342 209.439L93.4808 228.203L96.0291 225.739C93.296 222.604 92.2227 220.155 92.8094 218.392C93.4458 216.681 95.7066 214.743 99.592 212.58C103.836 210.169 107.82 208.159 111.544 206.55C115.268 204.941 119.173 203.107 123.26 201.049C126.273 199.529 129.107 198.184 131.76 197.012C134.463 195.893 137.397 194.549 140.564 192.981L140.713 193.136C140.087 194.24 139.409 195.393 138.68 196.597C138.001 197.851 137.347 199.081 136.719 200.286C136.091 201.491 135.516 202.596 134.992 203.6C134.417 204.654 133.947 205.507 133.582 206.159C130.394 212.032 127.336 217.729 124.407 223.251C121.477 228.874 118.913 233.795 116.715 238.012C114.466 242.28 112.769 245.366 111.622 247.271L114.012 249.742C116.159 248.563 118.968 247.141 122.44 245.477C125.912 243.813 129.562 242.076 133.391 240.267C137.22 238.457 140.819 236.719 144.19 235.053C147.61 233.439 150.342 232.143 152.384 231.164C155.397 229.645 158.41 228.176 161.422 226.757C164.484 225.39 167.548 223.872 170.615 222.201L170.839 222.433C169.794 224.34 168.671 226.372 167.47 228.53C166.319 230.739 165.142 232.973 163.939 235.232C161.424 240.255 159.278 244.422 157.5 247.735C155.773 251.1 154.308 253.861 153.107 256.018C151.956 258.228 150.937 260.11 150.05 261.665C149.161 263.321 148.324 264.928 147.538 266.485C146.962 267.64 146.359 268.871 145.729 270.177C145.098 271.585 144.594 272.969 144.216 274.33C143.272 273.251 142.328 272.172 141.384 271.092C140.388 270.063 139.418 269.008 138.474 267.929L135.076 271.215L150.236 286.89L152.784 284.426C151.297 282.476 150.339 280.713 149.91 279.136C149.53 277.61 149.739 275.714 150.537 273.448C151.334 271.183 152.806 267.966 154.953 263.798C159.664 254.659 164.322 245.672 168.926 236.835C173.529 228.099 178.007 219.286 182.36 210.394L180.119 208.078L135.255 228.75C133.469 229.581 131.708 230.388 129.973 231.169C128.287 232.002 126.577 232.809 124.842 233.59C125.731 231.934 126.595 230.251 127.434 228.544C128.322 226.887 129.211 225.231 130.1 223.574L153.011 180.047L150.846 177.808Z" fill="white"/>
<path d="M150.846 177.808L150.461 176.999L151.042 176.723L151.489 177.185L150.846 177.808ZM96.3977 203.714L96.0016 202.911L96.0131 202.905L96.3977 203.714ZM87.9721 207.827L87.5774 207.024L87.5853 207.02L87.9721 207.827ZM82.7593 210.627L83.2236 211.392L82.5666 211.791L82.0731 211.202L82.7593 210.627ZM78.7318 206.153L78.1095 205.51L78.8006 204.841L79.418 205.578L78.7318 206.153ZM75.3342 209.439L74.6907 210.061L74.0684 209.418L74.7119 208.795L75.3342 209.439ZM93.4808 228.203L94.1032 228.847L93.4597 229.469L92.8373 228.826L93.4808 228.203ZM96.0291 225.739L96.7039 225.151L97.2625 225.791L96.6514 226.382L96.0291 225.739ZM92.8094 218.392L91.96 218.109L91.9649 218.094L91.9703 218.08L92.8094 218.392ZM99.592 212.58L100.034 213.358L100.027 213.362L99.592 212.58ZM111.544 206.55L111.899 207.372L111.899 207.372L111.544 206.55ZM123.26 201.049L123.663 201.848L123.662 201.848L123.26 201.049ZM131.76 197.012L131.398 196.194L131.408 196.189L131.417 196.185L131.76 197.012ZM140.564 192.981L140.167 192.179L140.753 191.889L141.207 192.359L140.564 192.981ZM140.713 193.136L141.357 192.514L141.822 192.995L141.492 193.578L140.713 193.136ZM138.68 196.597L137.893 196.17L137.903 196.151L137.914 196.133L138.68 196.597ZM136.719 200.286L137.513 200.7L137.513 200.7L136.719 200.286ZM134.992 203.6L135.786 204.014L135.782 204.021L135.778 204.029L134.992 203.6ZM133.582 206.159L132.795 205.732L132.801 205.722L133.582 206.159ZM124.407 223.251L123.614 222.837L123.617 222.832L124.407 223.251ZM116.715 238.012L117.509 238.426L117.507 238.43L116.715 238.012ZM111.622 247.271L110.979 247.894L110.501 247.399L110.855 246.81L111.622 247.271ZM114.012 249.742L114.443 250.527L113.844 250.856L113.369 250.365L114.012 249.742ZM133.391 240.267L133.774 241.076L133.774 241.076L133.391 240.267ZM144.19 235.053L143.793 234.251L143.801 234.247L143.808 234.244L144.19 235.053ZM152.384 231.164L152.787 231.964L152.779 231.968L152.771 231.971L152.384 231.164ZM161.422 226.757L161.041 225.947L161.049 225.944L161.057 225.94L161.422 226.757ZM170.615 222.201L170.186 221.415L170.785 221.089L171.258 221.579L170.615 222.201ZM170.839 222.433L171.482 221.81L171.941 222.284L171.624 222.863L170.839 222.433ZM167.47 228.53L166.676 228.116L166.682 228.105L166.688 228.094L167.47 228.53ZM163.939 235.232L163.139 234.831L163.144 234.821L163.149 234.811L163.939 235.232ZM157.5 247.735L156.704 247.326L156.708 247.319L156.712 247.312L157.5 247.735ZM153.107 256.018L152.314 255.605L152.319 255.594L152.325 255.583L153.107 256.018ZM150.05 261.665L149.261 261.242L149.267 261.232L149.273 261.221L150.05 261.665ZM147.538 266.485L146.737 266.085L146.739 266.082L147.538 266.485ZM145.729 270.177L144.913 269.811L144.918 269.8L144.923 269.789L145.729 270.177ZM144.216 274.33L145.079 274.569L144.636 276.169L143.543 274.92L144.216 274.33ZM141.384 271.092L142.027 270.47L142.043 270.486L142.058 270.503L141.384 271.092ZM138.474 267.929L137.852 267.285L138.528 266.631L139.148 267.339L138.474 267.929ZM135.076 271.215L134.433 271.837L133.81 271.193L134.454 270.571L135.076 271.215ZM150.236 286.89L150.858 287.534L150.215 288.156L149.592 287.512L150.236 286.89ZM152.784 284.426L153.496 283.883L153.979 284.516L153.406 285.069L152.784 284.426ZM149.91 279.136L149.046 279.371L149.043 279.361L149.041 279.352L149.91 279.136ZM150.537 273.448L151.381 273.746L151.381 273.746L150.537 273.448ZM154.953 263.798L154.157 263.388L154.157 263.388L154.953 263.798ZM168.926 236.835L168.132 236.421L168.134 236.418L168.926 236.835ZM182.36 210.394L183.003 209.772L183.44 210.224L183.164 210.788L182.36 210.394ZM180.119 208.078L179.745 207.265L180.321 206.999L180.763 207.455L180.119 208.078ZM135.255 228.75L134.878 227.939L134.88 227.937L135.255 228.75ZM129.973 231.169L129.576 230.366L129.591 230.359L129.605 230.353L129.973 231.169ZM124.842 233.59L125.21 234.406L122.808 235.488L124.053 233.167L124.842 233.59ZM127.434 228.544L126.63 228.149L126.637 228.134L126.645 228.12L127.434 228.544ZM130.1 223.574L130.892 223.991L130.889 223.997L130.1 223.574ZM153.011 180.047L153.655 179.425L154.105 179.891L153.804 180.464L153.011 180.047ZM150.846 177.808L151.23 178.616L96.7823 204.522L96.3977 203.714L96.0131 202.905L150.461 176.999L150.846 177.808ZM96.3977 203.714L96.7937 204.517C93.2178 206.281 90.4058 207.653 88.359 208.634L87.9721 207.827L87.5853 207.02C89.623 206.043 92.428 204.674 96.0016 202.911L96.3977 203.714ZM87.9721 207.827L88.3669 208.631C86.2874 209.652 84.575 210.573 83.2236 211.392L82.7593 210.627L82.2951 209.861C83.7067 209.005 85.4694 208.059 87.5774 207.024L87.9721 207.827ZM82.7593 210.627L82.0731 211.202C81.4413 210.447 80.7843 209.718 80.1021 209.012L80.7456 208.39L81.3891 207.768C82.1009 208.504 82.7864 209.265 83.4455 210.052L82.7593 210.627ZM80.7456 208.39L80.1021 209.012C79.3903 208.276 78.7048 207.515 78.0456 206.728L78.7318 206.153L79.418 205.578C80.0499 206.332 80.7069 207.062 81.3891 207.768L80.7456 208.39ZM78.7318 206.153L79.3542 206.797L75.9565 210.082L75.3342 209.439L74.7119 208.795L78.1095 205.51L78.7318 206.153ZM75.3342 209.439L75.9777 208.817L94.1243 227.581L93.4808 228.203L92.8373 228.826L74.6907 210.061L75.3342 209.439ZM93.4808 228.203L92.8585 227.56L95.4068 225.095L96.0291 225.739L96.6514 226.382L94.1032 228.847L93.4808 228.203ZM96.0291 225.739L95.3543 226.327C93.9573 224.725 92.9419 223.251 92.3544 221.91C91.7675 220.571 91.5713 219.277 91.96 218.109L92.8094 218.392L93.6588 218.675C93.4608 219.269 93.5079 220.082 93.9942 221.191C94.48 222.3 95.3678 223.618 96.7039 225.151L96.0291 225.739ZM92.8094 218.392L91.9703 218.08C92.3649 217.019 93.2189 215.988 94.3998 214.976C95.592 213.954 97.1844 212.896 99.1565 211.798L99.592 212.58L100.027 213.362C98.1142 214.427 96.6335 215.419 95.5648 216.335C94.4848 217.261 93.8903 218.054 93.6484 218.704L92.8094 218.392ZM99.592 212.58L99.1498 211.801C103.417 209.378 107.43 207.353 111.189 205.728L111.544 206.55L111.899 207.372C108.21 208.966 104.255 210.96 100.034 213.358L99.592 212.58ZM111.544 206.55L111.189 205.729C114.895 204.127 118.784 202.301 122.857 200.249L123.26 201.049L123.662 201.848C119.562 203.914 115.641 205.755 111.899 207.372L111.544 206.55ZM123.26 201.049L122.857 200.249C125.882 198.724 128.729 197.372 131.398 196.194L131.76 197.012L132.121 197.831C129.484 198.995 126.665 200.334 123.663 201.848L123.26 201.049ZM131.76 197.012L131.417 196.185C134.098 195.075 137.015 193.74 140.167 192.179L140.564 192.981L140.961 193.784C137.78 195.359 134.827 196.711 132.102 197.84L131.76 197.012ZM140.564 192.981L141.207 192.359L141.357 192.514L140.713 193.136L140.07 193.758L139.92 193.604L140.564 192.981ZM140.713 193.136L141.492 193.578C140.861 194.69 140.179 195.851 139.446 197.06L138.68 196.597L137.914 196.133C138.64 194.936 139.313 193.79 139.935 192.694L140.713 193.136ZM138.68 196.597L139.467 197.023C138.79 198.274 138.139 199.499 137.513 200.7L136.719 200.286L135.925 199.873C136.555 198.663 137.211 197.429 137.893 196.17L138.68 196.597ZM136.719 200.286L137.513 200.7C136.885 201.905 136.309 203.009 135.786 204.014L134.992 203.6L134.198 203.186C134.722 202.182 135.297 201.078 135.925 199.873L136.719 200.286ZM134.992 203.6L135.778 204.029C135.203 205.084 134.731 205.94 134.363 206.597L133.582 206.159L132.801 205.722C133.164 205.074 133.632 204.224 134.206 203.171L134.992 203.6ZM133.582 206.159L134.369 206.586C131.182 212.456 128.125 218.151 125.198 223.67L124.407 223.251L123.617 222.832C126.547 217.307 129.606 211.607 132.795 205.732L133.582 206.159ZM124.407 223.251L125.201 223.665C122.271 229.288 119.707 234.208 117.509 238.426L116.715 238.012L115.922 237.599C118.119 233.381 120.683 228.461 123.614 222.837L124.407 223.251ZM116.715 238.012L117.507 238.43C115.257 242.699 113.55 245.804 112.39 247.733L111.622 247.271L110.855 246.81C111.988 244.928 113.675 241.86 115.923 237.595L116.715 238.012ZM111.622 247.271L112.266 246.649L114.656 249.12L114.012 249.742L113.369 250.365L110.979 247.894L111.622 247.271ZM114.012 249.742L113.581 248.958C115.748 247.767 118.574 246.337 122.053 244.67L122.44 245.477L122.827 246.284C119.363 247.945 116.57 249.359 114.443 250.527L114.012 249.742ZM122.44 245.477L122.053 244.67C125.527 243.005 129.178 241.268 133.008 239.457L133.391 240.267L133.774 241.076C129.946 242.885 126.297 244.621 122.827 246.284L122.44 245.477ZM133.391 240.267L133.008 239.457C136.833 237.649 140.428 235.914 143.793 234.251L144.19 235.053L144.587 235.856C141.211 237.524 137.606 239.264 133.774 241.076L133.391 240.267ZM144.19 235.053L143.808 234.244C147.228 232.63 149.957 231.335 151.997 230.357L152.384 231.164L152.771 231.971C150.726 232.951 147.993 234.249 144.572 235.863L144.19 235.053ZM152.384 231.164L151.981 230.365C155.001 228.842 158.021 227.369 161.041 225.947L161.422 226.757L161.803 227.567C158.799 228.982 155.793 230.447 152.787 231.964L152.384 231.164ZM161.422 226.757L161.057 225.94C164.096 224.583 167.14 223.075 170.186 221.415L170.615 222.201L171.043 222.987C167.956 224.669 164.871 226.198 161.787 227.575L161.422 226.757ZM170.615 222.201L171.258 221.579L171.482 221.81L170.839 222.433L170.195 223.055L169.971 222.823L170.615 222.201ZM170.839 222.433L171.624 222.863C170.578 224.772 169.454 226.806 168.252 228.965L167.47 228.53L166.688 228.094C167.888 225.938 169.01 223.908 170.054 222.002L170.839 222.433ZM167.47 228.53L168.264 228.943C167.111 231.155 165.933 233.391 164.729 235.653L163.939 235.232L163.149 234.811C164.35 232.555 165.526 230.323 166.676 228.116L167.47 228.53ZM163.939 235.232L164.74 235.633C162.222 240.66 160.072 244.836 158.289 248.158L157.5 247.735L156.712 247.312C158.484 244.009 160.626 239.85 163.139 234.831L163.939 235.232ZM157.5 247.735L158.297 248.144C156.567 251.513 155.097 254.284 153.89 256.454L153.107 256.018L152.325 255.583C153.52 253.437 154.979 250.686 156.704 247.326L157.5 247.735ZM153.107 256.018L153.901 256.432C152.747 258.648 151.722 260.541 150.828 262.109L150.05 261.665L149.273 261.221C150.152 259.679 151.166 257.807 152.314 255.605L153.107 256.018ZM150.05 261.665L150.839 262.088C149.954 263.739 149.12 265.339 148.338 266.888L147.538 266.485L146.739 266.082C147.529 264.518 148.369 262.904 149.261 261.242L150.05 261.665ZM147.538 266.485L148.339 266.885C147.765 268.036 147.164 269.263 146.536 270.566L145.729 270.177L144.923 269.789C145.554 268.479 146.159 267.245 146.737 266.085L147.538 266.485ZM145.729 270.177L146.546 270.544C145.932 271.914 145.443 273.256 145.079 274.569L144.216 274.33L143.354 274.091C143.744 272.683 144.264 271.256 144.913 269.811L145.729 270.177ZM144.216 274.33L143.543 274.92C142.598 273.84 141.654 272.761 140.71 271.682L141.384 271.092L142.058 270.503C143.002 271.582 143.946 272.662 144.89 273.741L144.216 274.33ZM141.384 271.092L140.74 271.714C139.734 270.674 138.754 269.609 137.8 268.518L138.474 267.929L139.148 267.339C140.082 268.407 141.042 269.451 142.027 270.47L141.384 271.092ZM138.474 267.929L139.096 268.572L135.699 271.858L135.076 271.215L134.454 270.571L137.852 267.285L138.474 267.929ZM135.076 271.215L135.72 270.592L150.879 286.268L150.236 286.89L149.592 287.512L134.433 271.837L135.076 271.215ZM150.236 286.89L149.613 286.247L152.162 283.782L152.784 284.426L153.406 285.069L150.858 287.534L150.236 286.89ZM152.784 284.426L152.072 284.969C150.547 282.969 149.517 281.101 149.046 279.371L149.91 279.136L150.774 278.901C151.161 280.325 152.047 281.984 153.496 283.883L152.784 284.426ZM149.91 279.136L149.041 279.352C148.602 277.589 148.865 275.501 149.692 273.151L150.537 273.448L151.381 273.746C150.613 275.927 150.458 277.631 150.778 278.92L149.91 279.136ZM150.537 273.448L149.692 273.151C150.511 270.826 152.006 267.565 154.157 263.388L154.953 263.798L155.748 264.208C153.607 268.367 152.158 271.54 151.381 273.746L150.537 273.448ZM154.953 263.798L154.157 263.388C158.869 254.248 163.527 245.259 168.133 236.421L168.926 236.835L169.72 237.249C165.116 246.084 160.459 255.071 155.748 264.208L154.953 263.798ZM168.926 236.835L168.134 236.418C172.733 227.69 177.207 218.884 181.556 210.001L182.36 210.394L183.164 210.788C178.807 219.687 174.326 228.509 169.718 237.252L168.926 236.835ZM182.36 210.394L181.716 211.017L179.476 208.7L180.119 208.078L180.763 207.455L183.003 209.772L182.36 210.394ZM180.119 208.078L180.494 208.891L135.63 229.563L135.255 228.75L134.88 227.937L179.745 207.265L180.119 208.078ZM135.255 228.75L135.633 229.562C133.843 230.395 132.079 231.202 130.34 231.985L129.973 231.169L129.605 230.353C131.337 229.573 133.094 228.768 134.878 227.939L135.255 228.75ZM129.973 231.169L130.369 231.972C128.674 232.809 126.954 233.621 125.21 234.406L124.842 233.59L124.475 232.774C126.2 231.997 127.901 231.194 129.576 230.366L129.973 231.169ZM124.842 233.59L124.053 233.167C124.937 231.52 125.796 229.847 126.63 228.149L127.434 228.544L128.237 228.938C127.394 230.656 126.525 232.347 125.631 234.013L124.842 233.59ZM127.434 228.544L126.645 228.12C127.534 226.464 128.422 224.807 129.311 223.151L130.1 223.574L130.889 223.997C130 225.654 129.111 227.31 128.222 228.967L127.434 228.544ZM130.1 223.574L129.308 223.157L152.219 179.63L153.011 180.047L153.804 180.464L130.892 223.991L130.1 223.574ZM153.011 180.047L152.368 180.669L150.202 178.43L150.846 177.808L151.489 177.185L153.655 179.425L153.011 180.047Z" fill="white" mask="url(#path-11-outside-4_2083_10809)"/>
<path d="M225.399 176.421C229.998 186.539 233.693 191.93 246.059 200.198C283.163 202.192 293.525 196.408 292.772 170.004C279.185 145.061 267.477 147.36 251.47 144.781C230.316 148.297 226.731 156.906 225.399 176.421Z" fill="#120608"/>
<path d="M256.956 155.561C237.79 159.867 222.719 166.936 247.764 191.915C278.33 197.821 283.867 190.853 283.659 169.76C277.297 156.448 271.371 153.443 256.956 155.561Z" fill="#2765E0"/>
<mask id="path-15-outside-5_2083_10809" maskUnits="userSpaceOnUse" x="211.496" y="48.9906" width="151.389" height="167.335" fill="black">
<rect fill="white" x="211.496" y="48.9906" width="151.389" height="167.335"/>
<path d="M258.979 181.801L333.392 169.825C338.3 168.964 342.151 168.305 344.944 167.847C347.817 167.348 350.229 166.838 352.181 166.317C352.685 167.468 353.228 168.598 353.812 169.707C354.395 170.817 354.939 171.947 355.443 173.098L360.672 170.348L345.485 141.468L341.563 143.53C343.742 148.251 344.17 151.565 342.848 153.475C341.484 155.304 338.091 156.835 332.671 158.068C326.733 159.471 321.248 160.484 316.216 161.108C311.183 161.732 305.855 162.561 300.23 163.598C296.081 164.363 292.21 164.983 288.616 165.457C284.98 165.852 280.988 166.435 276.639 167.204L276.514 166.967C277.652 165.862 278.87 164.716 280.167 163.528C281.423 162.261 282.638 161.015 283.814 159.79C284.991 158.564 286.069 157.441 287.049 156.42C288.108 155.357 288.972 154.499 289.639 153.844C295.524 147.917 301.192 142.155 306.643 136.558C312.132 130.839 316.934 125.836 321.051 121.547C325.247 117.216 328.367 114.109 330.41 112.225L328.41 108.422C325.421 109.084 321.551 109.804 316.802 110.582C312.053 111.36 307.064 112.163 301.836 112.991C296.607 113.819 291.679 114.641 287.05 115.457C282.38 116.193 278.649 116.79 275.855 117.248C271.706 118.013 267.577 118.719 263.465 119.363C259.313 119.929 255.103 120.676 250.838 121.604L250.65 121.248C252.573 119.326 254.633 117.282 256.831 115.115C258.988 112.868 261.184 110.601 263.419 108.313C268.199 103.169 272.236 98.9223 275.531 95.5713C278.784 92.141 281.51 89.3423 283.708 87.175C285.864 84.9285 287.747 83.0279 289.357 81.4733C291.005 79.7978 292.573 78.164 294.062 76.5718C295.159 75.3881 296.314 74.1231 297.528 72.7768C298.779 71.3097 299.87 69.8258 300.8 68.3251C301.554 69.9514 302.308 71.5777 303.062 73.204C303.896 74.7886 304.689 76.3941 305.443 78.0203L310.673 75.2704L297.985 51.1446L294.063 53.207C295.163 56.0675 295.694 58.5193 295.656 60.5622C295.576 62.5259 294.66 64.727 292.908 67.1655C291.156 69.6039 288.261 72.9467 284.224 77.1938C275.365 86.5051 266.623 95.6537 257.998 104.64C249.411 113.505 240.946 122.508 232.604 131.648L234.479 135.214L295.558 126.154C297.993 125.783 300.389 125.434 302.745 125.105C305.059 124.698 307.394 124.329 309.749 124.001C308.102 125.676 306.475 127.392 304.869 129.146C303.222 130.822 301.575 132.497 299.927 134.173L257.166 178.355L258.979 181.801Z"/>
</mask>
<path d="M258.979 181.801L333.392 169.825C338.3 168.964 342.151 168.305 344.944 167.847C347.817 167.348 350.229 166.838 352.181 166.317C352.685 167.468 353.228 168.598 353.812 169.707C354.395 170.817 354.939 171.947 355.443 173.098L360.672 170.348L345.485 141.468L341.563 143.53C343.742 148.251 344.17 151.565 342.848 153.475C341.484 155.304 338.091 156.835 332.671 158.068C326.733 159.471 321.248 160.484 316.216 161.108C311.183 161.732 305.855 162.561 300.23 163.598C296.081 164.363 292.21 164.983 288.616 165.457C284.98 165.852 280.988 166.435 276.639 167.204L276.514 166.967C277.652 165.862 278.87 164.716 280.167 163.528C281.423 162.261 282.638 161.015 283.814 159.79C284.991 158.564 286.069 157.441 287.049 156.42C288.108 155.357 288.972 154.499 289.639 153.844C295.524 147.917 301.192 142.155 306.643 136.558C312.132 130.839 316.934 125.836 321.051 121.547C325.247 117.216 328.367 114.109 330.41 112.225L328.41 108.422C325.421 109.084 321.551 109.804 316.802 110.582C312.053 111.36 307.064 112.163 301.836 112.991C296.607 113.819 291.679 114.641 287.05 115.457C282.38 116.193 278.649 116.79 275.855 117.248C271.706 118.013 267.577 118.719 263.465 119.363C259.313 119.929 255.103 120.676 250.838 121.604L250.65 121.248C252.573 119.326 254.633 117.282 256.831 115.115C258.988 112.868 261.184 110.601 263.419 108.313C268.199 103.169 272.236 98.9223 275.531 95.5713C278.784 92.141 281.51 89.3423 283.708 87.175C285.864 84.9285 287.747 83.0279 289.357 81.4733C291.005 79.7978 292.573 78.164 294.062 76.5718C295.159 75.3881 296.314 74.1231 297.528 72.7768C298.779 71.3097 299.87 69.8258 300.8 68.3251C301.554 69.9514 302.308 71.5777 303.062 73.204C303.896 74.7886 304.689 76.3941 305.443 78.0203L310.673 75.2704L297.985 51.1446L294.063 53.207C295.163 56.0675 295.694 58.5193 295.656 60.5622C295.576 62.5259 294.66 64.727 292.908 67.1655C291.156 69.6039 288.261 72.9467 284.224 77.1938C275.365 86.5051 266.623 95.6537 257.998 104.64C249.411 113.505 240.946 122.508 232.604 131.648L234.479 135.214L295.558 126.154C297.993 125.783 300.389 125.434 302.745 125.105C305.059 124.698 307.394 124.329 309.749 124.001C308.102 125.676 306.475 127.392 304.869 129.146C303.222 130.822 301.575 132.497 299.927 134.173L257.166 178.355L258.979 181.801Z" fill="white"/>
<path d="M258.979 181.801L259.121 182.685L258.486 182.787L258.186 182.218L258.979 181.801ZM333.392 169.825L333.547 170.707L333.535 170.709L333.392 169.825ZM344.944 167.847L345.097 168.729L345.089 168.73L344.944 167.847ZM352.181 166.317L351.95 165.452L352.692 165.254L353 165.958L352.181 166.317ZM355.443 173.098L355.859 173.89L355.009 174.337L354.623 173.457L355.443 173.098ZM360.672 170.348L361.464 169.931L361.881 170.723L361.089 171.14L360.672 170.348ZM345.485 141.468L345.068 140.676L345.86 140.259L346.277 141.051L345.485 141.468ZM341.563 143.53L340.75 143.906L340.394 143.134L341.146 142.738L341.563 143.53ZM342.848 153.475L343.584 153.984L343.575 153.997L343.565 154.01L342.848 153.475ZM332.671 158.068L332.465 157.197L332.473 157.195L332.671 158.068ZM316.216 161.108L316.106 160.219L316.106 160.219L316.216 161.108ZM300.23 163.598L300.067 162.717L300.068 162.717L300.23 163.598ZM288.616 165.457L288.733 166.345L288.722 166.346L288.712 166.347L288.616 165.457ZM276.639 167.204L276.795 168.086L276.151 168.2L275.846 167.621L276.639 167.204ZM276.514 166.967L275.721 167.383L275.41 166.791L275.89 166.324L276.514 166.967ZM280.167 163.528L280.803 164.158L280.788 164.174L280.772 164.189L280.167 163.528ZM283.814 159.79L283.169 159.17L283.169 159.17L283.814 159.79ZM287.049 156.42L286.403 155.8L286.409 155.794L286.415 155.788L287.049 156.42ZM289.639 153.844L290.274 154.475L290.266 154.483L289.639 153.844ZM306.643 136.558L307.289 137.178L307.284 137.182L306.643 136.558ZM321.051 121.547L320.405 120.927L320.408 120.924L321.051 121.547ZM330.41 112.225L331.202 111.809L331.523 112.418L331.017 112.884L330.41 112.225ZM328.41 108.422L328.217 107.548L328.884 107.401L329.202 108.006L328.41 108.422ZM301.836 112.991L301.696 112.107L301.696 112.107L301.836 112.991ZM287.05 115.457L287.206 116.338L287.198 116.34L287.19 116.341L287.05 115.457ZM275.855 117.248L275.693 116.367L275.702 116.366L275.71 116.364L275.855 117.248ZM263.465 119.363L263.604 120.248L263.595 120.249L263.586 120.25L263.465 119.363ZM250.838 121.604L251.028 122.479L250.363 122.624L250.046 122.021L250.838 121.604ZM250.65 121.248L249.858 121.664L249.551 121.081L250.018 120.615L250.65 121.248ZM256.831 115.115L257.477 115.735L257.469 115.744L257.46 115.752L256.831 115.115ZM263.419 108.313L264.075 108.922L264.067 108.93L264.059 108.938L263.419 108.313ZM275.531 95.5713L276.181 96.1873L276.175 96.1931L276.169 96.1989L275.531 95.5713ZM283.708 87.175L284.354 87.7949L284.345 87.8038L284.336 87.8124L283.708 87.175ZM289.357 81.4733L289.995 82.1009L289.987 82.1092L289.979 82.1173L289.357 81.4733ZM294.062 76.5718L294.718 77.1803L294.716 77.1833L294.062 76.5718ZM297.528 72.7768L298.209 73.3577L298.201 73.3671L298.193 73.3762L297.528 72.7768ZM300.8 68.3251L300.039 67.8535L300.914 66.4425L301.612 67.9486L300.8 68.3251ZM303.062 73.204L302.27 73.6206L302.26 73.6008L302.25 73.5806L303.062 73.204ZM305.443 78.0203L305.86 78.8127L305.027 79.2507L304.631 78.3969L305.443 78.0203ZM310.673 75.2704L311.465 74.8537L311.882 75.646L311.089 76.0627L310.673 75.2704ZM297.985 51.1446L297.569 50.3522L298.361 49.9356L298.778 50.7279L297.985 51.1446ZM294.063 53.207L293.228 53.5283L292.942 52.7852L293.647 52.4147L294.063 53.207ZM295.656 60.5622L296.551 60.579L296.551 60.5888L296.55 60.5986L295.656 60.5622ZM292.908 67.1655L292.181 66.6431L292.181 66.6431L292.908 67.1655ZM284.224 77.1938L284.873 77.8106L284.873 77.8109L284.224 77.1938ZM257.998 104.64L258.644 105.26L258.641 105.263L257.998 104.64ZM232.604 131.648L231.812 132.065L231.519 131.509L231.943 131.045L232.604 131.648ZM234.479 135.214L234.61 136.099L233.982 136.192L233.687 135.63L234.479 135.214ZM295.558 126.154L295.693 127.039L295.69 127.039L295.558 126.154ZM302.745 125.105L302.9 125.987L302.884 125.99L302.868 125.992L302.745 125.105ZM309.749 124.001L309.626 123.114L312.234 122.75L310.388 124.629L309.749 124.001ZM304.869 129.146L305.53 129.751L305.519 129.762L305.508 129.774L304.869 129.146ZM299.927 134.173L299.284 133.55L299.289 133.545L299.927 134.173ZM257.166 178.355L256.374 178.772L256.072 178.198L256.523 177.732L257.166 178.355ZM258.979 181.801L258.837 180.918L333.25 168.942L333.392 169.825L333.535 170.709L259.121 182.685L258.979 181.801ZM333.392 169.825L333.238 168.944C338.146 168.082 342.001 167.422 344.799 166.963L344.944 167.847L345.089 168.73C342.3 169.187 338.454 169.846 333.547 170.707L333.392 169.825ZM344.944 167.847L344.791 166.965C347.648 166.468 350.032 165.964 351.95 165.452L352.181 166.317L352.411 167.182C350.426 167.712 347.986 168.227 345.097 168.729L344.944 167.847ZM352.181 166.317L353 165.958C353.496 167.089 354.031 168.2 354.604 169.291L353.812 169.707L353.019 170.124C352.426 168.996 351.873 167.847 351.361 166.676L352.181 166.317ZM353.812 169.707L354.604 169.291C355.197 170.419 355.75 171.568 356.263 172.738L355.443 173.098L354.623 173.457C354.127 172.325 353.593 171.214 353.019 170.124L353.812 169.707ZM355.443 173.098L355.026 172.305L360.255 169.555L360.672 170.348L361.089 171.14L355.859 173.89L355.443 173.098ZM360.672 170.348L359.88 170.764L344.692 141.885L345.485 141.468L346.277 141.051L361.464 169.931L360.672 170.348ZM345.485 141.468L345.901 142.26L341.979 144.323L341.563 143.53L341.146 142.738L345.068 140.676L345.485 141.468ZM341.563 143.53L342.376 143.155C343.484 145.557 344.176 147.659 344.406 149.442C344.636 151.224 344.417 152.781 343.584 153.984L342.848 153.475L342.112 152.965C342.601 152.259 342.829 151.204 342.63 149.671C342.433 148.14 341.82 146.224 340.75 143.906L341.563 143.53ZM342.848 153.475L343.565 154.01C342.753 155.1 341.405 156.018 339.649 156.811C337.879 157.61 335.612 158.317 332.869 158.941L332.671 158.068L332.473 157.195C335.15 156.586 337.29 155.911 338.912 155.179C340.548 154.441 341.579 153.679 342.13 152.94L342.848 153.475ZM332.671 158.068L332.877 158.939C326.914 160.348 321.396 161.368 316.326 161.996L316.216 161.108L316.106 160.219C321.1 159.6 326.553 158.594 332.465 157.197L332.671 158.068ZM316.216 161.108L316.326 161.996C311.313 162.617 306.002 163.445 300.392 164.478L300.23 163.598L300.068 162.717C305.708 161.678 311.054 160.846 316.106 160.219L316.216 161.108ZM300.23 163.598L300.392 164.478C296.231 165.246 292.344 165.869 288.733 166.345L288.616 165.457L288.499 164.57C292.075 164.098 295.931 163.481 300.067 162.717L300.23 163.598ZM288.616 165.457L288.712 166.347C285.1 166.74 281.128 167.319 276.795 168.086L276.639 167.204L276.483 166.323C280.847 165.55 284.86 164.965 288.519 164.567L288.616 165.457ZM276.639 167.204L275.846 167.621L275.721 167.383L276.514 166.967L277.306 166.55L277.431 166.788L276.639 167.204ZM276.514 166.967L275.89 166.324C277.036 165.213 278.26 164.061 279.563 162.868L280.167 163.528L280.772 164.189C279.48 165.371 278.269 166.511 277.137 167.609L276.514 166.967ZM280.167 163.528L279.531 162.898C280.783 161.634 281.996 160.392 283.169 159.17L283.814 159.79L284.46 160.41C283.281 161.639 282.062 162.888 280.803 164.158L280.167 163.528ZM283.814 159.79L283.169 159.17C284.345 157.944 285.423 156.821 286.403 155.8L287.049 156.42L287.695 157.04C286.715 158.061 285.636 159.184 284.46 160.41L283.814 159.79ZM287.049 156.42L286.415 155.788C287.475 154.724 288.341 153.863 289.012 153.205L289.639 153.844L290.266 154.483C289.602 155.134 288.741 155.99 287.683 157.052L287.049 156.42ZM289.639 153.844L289.004 153.213C294.887 147.289 300.553 141.529 306.002 135.933L306.643 136.558L307.284 137.182C301.831 142.782 296.161 148.546 290.274 154.475L289.639 153.844ZM306.643 136.558L305.997 135.938C311.486 130.219 316.289 125.216 320.405 120.927L321.051 121.547L321.697 122.167C317.58 126.456 312.778 131.459 307.289 137.178L306.643 136.558ZM321.051 121.547L320.408 120.924C324.605 116.592 327.74 113.469 329.803 111.567L330.41 112.225L331.017 112.884C328.993 114.749 325.888 117.841 321.694 122.17L321.051 121.547ZM330.41 112.225L329.618 112.642L327.618 108.839L328.41 108.422L329.202 108.006L331.202 111.809L330.41 112.225ZM328.41 108.422L328.604 109.296C325.591 109.963 321.704 110.686 316.947 111.466L316.802 110.582L316.657 109.699C321.398 108.922 325.25 108.205 328.217 107.548L328.41 108.422ZM316.802 110.582L316.947 111.466C312.196 112.244 307.206 113.047 301.976 113.875L301.836 112.991L301.696 112.107C306.923 111.279 311.91 110.477 316.657 109.699L316.802 110.582ZM301.836 112.991L301.976 113.875C296.751 114.703 291.828 115.524 287.206 116.338L287.05 115.457L286.895 114.575C291.529 113.758 296.462 112.936 301.696 112.107L301.836 112.991ZM287.05 115.457L287.19 116.341C282.521 117.077 278.791 117.674 276 118.131L275.855 117.248L275.71 116.364C278.507 115.906 282.24 115.309 286.911 114.572L287.05 115.457ZM275.855 117.248L276.018 118.128C271.861 118.895 267.723 119.602 263.604 120.248L263.465 119.363L263.327 118.479C267.43 117.836 271.552 117.132 275.693 116.367L275.855 117.248ZM263.465 119.363L263.586 120.25C259.458 120.813 255.272 121.556 251.028 122.479L250.838 121.604L250.647 120.73C254.935 119.797 259.167 119.045 263.345 118.476L263.465 119.363ZM250.838 121.604L250.046 122.021L249.858 121.664L250.65 121.248L251.443 120.831L251.63 121.188L250.838 121.604ZM250.65 121.248L250.018 120.615C251.942 118.692 254.004 116.646 256.203 114.477L256.831 115.115L257.46 115.752C255.263 117.918 253.204 119.961 251.283 121.881L250.65 121.248ZM256.831 115.115L256.186 114.495C258.344 112.246 260.541 109.977 262.779 107.687L263.419 108.313L264.059 108.938C261.826 111.225 259.632 113.49 257.477 115.735L256.831 115.115ZM263.419 108.313L262.763 107.703C267.546 102.557 271.59 98.3028 274.893 94.9436L275.531 95.5713L276.169 96.1989C272.883 99.5418 268.851 103.782 264.075 108.922L263.419 108.313ZM275.531 95.5713L274.882 94.9553C278.138 91.5211 280.872 88.7145 283.079 86.5376L283.708 87.175L284.336 87.8124C282.148 89.97 279.43 92.7609 276.181 96.1873L275.531 95.5713ZM283.708 87.175L283.062 86.5551C285.223 84.3033 287.115 82.3942 288.735 80.8293L289.357 81.4733L289.979 82.1173C288.38 83.6616 286.505 85.5536 284.354 87.7949L283.708 87.175ZM289.357 81.4733L288.719 80.8457C290.361 79.1751 291.924 77.5467 293.408 75.9603L294.062 76.5718L294.716 77.1833C293.221 78.7813 291.648 80.4205 289.995 82.1009L289.357 81.4733ZM294.062 76.5718L293.405 75.9633C294.499 74.783 295.652 73.521 296.863 72.1774L297.528 72.7768L298.193 73.3762C296.976 74.7252 295.818 75.9932 294.718 77.1803L294.062 76.5718ZM297.528 72.7768L296.847 72.1959C298.071 70.76 299.135 69.3124 300.039 67.8535L300.8 68.3251L301.561 68.7968C300.605 70.3391 299.487 71.8593 298.209 73.3577L297.528 72.7768ZM300.8 68.3251L301.612 67.9486C302.366 69.5748 303.12 71.2011 303.874 72.8274L303.062 73.204L302.25 73.5806C301.496 71.9543 300.742 70.328 299.988 68.7017L300.8 68.3251ZM303.062 73.204L303.855 72.7873C304.695 74.3852 305.495 76.004 306.256 77.6438L305.443 78.0203L304.631 78.3969C303.884 76.7841 303.096 75.1921 302.27 73.6206L303.062 73.204ZM305.443 78.0203L305.027 77.228L310.256 74.4781L310.673 75.2704L311.089 76.0627L305.86 78.8127L305.443 78.0203ZM310.673 75.2704L309.88 75.687L297.193 51.5612L297.985 51.1446L298.778 50.7279L311.465 74.8537L310.673 75.2704ZM297.985 51.1446L298.402 51.9369L294.48 53.9993L294.063 53.207L293.647 52.4147L297.569 50.3522L297.985 51.1446ZM294.063 53.207L294.899 52.8858C296.021 55.8054 296.592 58.3779 296.551 60.579L295.656 60.5622L294.761 60.5455C294.796 58.6607 294.305 56.3297 293.228 53.5283L294.063 53.207ZM295.656 60.5622L296.55 60.5986C296.46 62.8068 295.439 65.177 293.635 67.6878L292.908 67.1655L292.181 66.6431C293.881 64.277 294.691 62.245 294.761 60.5258L295.656 60.5622ZM292.908 67.1655L293.635 67.6878C291.846 70.1775 288.917 73.5561 284.873 77.8106L284.224 77.1938L283.575 76.5771C287.606 72.3373 290.466 69.0303 292.181 66.6431L292.908 67.1655ZM284.224 77.1938L284.873 77.8109C276.013 87.123 267.27 96.2726 258.644 105.26L257.998 104.64L257.352 104.02C265.977 95.0348 274.718 85.8871 283.576 76.5768L284.224 77.1938ZM257.998 104.64L258.641 105.263C250.06 114.121 241.601 123.118 233.265 132.252L232.604 131.648L231.943 131.045C240.291 121.898 248.761 112.889 257.355 104.017L257.998 104.64ZM232.604 131.648L233.396 131.232L235.271 134.797L234.479 135.214L233.687 135.63L231.812 132.065L232.604 131.648ZM234.479 135.214L234.348 134.328L295.427 125.268L295.558 126.154L295.69 127.039L234.61 136.099L234.479 135.214ZM295.558 126.154L295.424 125.269C297.862 124.898 300.261 124.548 302.621 124.219L302.745 125.105L302.868 125.992C300.516 126.32 298.124 126.669 295.693 127.039L295.558 126.154ZM302.745 125.105L302.589 124.224C304.914 123.814 307.259 123.444 309.626 123.114L309.749 124.001L309.873 124.888C307.528 125.215 305.203 125.581 302.9 125.987L302.745 125.105ZM309.749 124.001L310.388 124.629C308.748 126.296 307.129 128.004 305.53 129.751L304.869 129.146L304.209 128.542C305.822 126.779 307.456 125.056 309.111 123.373L309.749 124.001ZM304.869 129.146L305.508 129.774C303.86 131.449 302.213 133.125 300.565 134.8L299.927 134.173L299.289 133.545C300.936 131.87 302.584 130.194 304.231 128.519L304.869 129.146ZM299.927 134.173L300.57 134.795L257.81 178.977L257.166 178.355L256.523 177.732L299.284 133.55L299.927 134.173ZM257.166 178.355L257.959 177.938L259.771 181.385L258.979 181.801L258.186 182.218L256.374 178.772L257.166 178.355Z" fill="white" mask="url(#path-15-outside-5_2083_10809)"/>
<mask id="path-17-outside-6_2083_10809" maskUnits="userSpaceOnUse" x="47.0055" y="43.1495" width="157.909" height="168.852" fill="black">
<rect fill="white" x="47.0055" y="43.1495" width="157.909" height="168.852"/>
<path d="M149.321 179.202L76.4015 160.134C71.5993 158.805 67.8299 157.779 65.0932 157.055C62.2816 156.282 59.9296 155.543 58.0372 154.837C57.4249 155.934 56.7752 157.007 56.088 158.055C55.4009 159.103 54.7511 160.176 54.1388 161.273L49.1979 158.033L67.0888 130.746L70.7945 133.175C68.1723 137.665 67.4275 140.923 68.5604 142.95C69.7423 144.903 72.9718 146.752 78.2489 148.5C84.0243 150.467 89.3867 152.002 94.336 153.106C99.2854 154.21 104.51 155.548 110.009 157.12C114.065 158.281 117.859 159.27 121.391 160.087C124.972 160.829 128.89 161.792 133.145 162.976L133.292 162.751C132.265 161.543 131.162 160.285 129.986 158.978C128.858 157.596 127.767 156.239 126.714 154.906C125.661 153.574 124.696 152.352 123.818 151.241C122.866 150.082 122.089 149.144 121.488 148.429C116.199 141.964 111.111 135.684 106.222 129.589C101.308 123.37 97.0085 117.928 93.3229 113.264C89.5624 108.55 86.7556 105.158 84.9024 103.086L87.2584 99.4931C90.1706 100.439 93.9529 101.527 98.6054 102.758C103.258 103.989 108.146 105.267 113.271 106.593C118.396 107.92 123.223 109.211 127.751 110.467C132.329 111.649 135.986 112.601 138.723 113.325C142.779 114.486 146.822 115.585 150.852 116.621C154.931 117.583 159.049 118.731 163.206 120.065L163.427 119.728C161.698 117.631 159.843 115.398 157.863 113.03C155.933 110.586 153.965 108.119 151.96 105.626C147.696 100.048 144.085 95.4323 141.127 91.7804C138.219 88.0535 135.774 85.0059 133.795 82.6375C131.864 80.1943 130.172 78.1216 128.719 76.4196C127.24 74.5936 125.836 72.8167 124.507 71.0889C123.529 69.8053 122.501 68.4352 121.422 66.9786C120.317 65.398 119.374 63.8162 118.592 62.2331C117.685 63.7795 116.778 65.3258 115.872 66.8721C114.89 68.3694 113.946 69.8912 113.039 71.4375L108.098 68.198L123.044 45.4023L126.75 47.832C125.38 50.5736 124.616 52.963 124.458 55.0002C124.349 56.9625 125.049 59.2414 126.559 61.8368C128.069 64.4323 130.629 68.0377 134.24 72.6529C142.163 82.772 149.986 92.718 157.708 102.491C165.405 112.14 172.965 121.914 180.391 131.814L178.182 135.182L118.255 120.298C115.867 119.695 113.516 119.118 111.203 118.564C108.939 117.936 106.65 117.345 104.337 116.792C105.816 118.618 107.27 120.481 108.7 122.382C110.179 124.208 111.658 126.034 113.136 127.86L151.456 175.945L149.321 179.202Z"/>
</mask>
<path d="M149.321 179.202L76.4015 160.134C71.5993 158.805 67.8299 157.779 65.0932 157.055C62.2816 156.282 59.9296 155.543 58.0372 154.837C57.4249 155.934 56.7752 157.007 56.088 158.055C55.4009 159.103 54.7511 160.176 54.1388 161.273L49.1979 158.033L67.0888 130.746L70.7945 133.175C68.1723 137.665 67.4275 140.923 68.5604 142.95C69.7423 144.903 72.9718 146.752 78.2489 148.5C84.0243 150.467 89.3867 152.002 94.336 153.106C99.2854 154.21 104.51 155.548 110.009 157.12C114.065 158.281 117.859 159.27 121.391 160.087C124.972 160.829 128.89 161.792 133.145 162.976L133.292 162.751C132.265 161.543 131.162 160.285 129.986 158.978C128.858 157.596 127.767 156.239 126.714 154.906C125.661 153.574 124.696 152.352 123.818 151.241C122.866 150.082 122.089 149.144 121.488 148.429C116.199 141.964 111.111 135.684 106.222 129.589C101.308 123.37 97.0085 117.928 93.3229 113.264C89.5624 108.55 86.7556 105.158 84.9024 103.086L87.2584 99.4931C90.1706 100.439 93.9529 101.527 98.6054 102.758C103.258 103.989 108.146 105.267 113.271 106.593C118.396 107.92 123.223 109.211 127.751 110.467C132.329 111.649 135.986 112.601 138.723 113.325C142.779 114.486 146.822 115.585 150.852 116.621C154.931 117.583 159.049 118.731 163.206 120.065L163.427 119.728C161.698 117.631 159.843 115.398 157.863 113.03C155.933 110.586 153.965 108.119 151.96 105.626C147.696 100.048 144.085 95.4323 141.127 91.7804C138.219 88.0535 135.774 85.0059 133.795 82.6375C131.864 80.1943 130.172 78.1216 128.719 76.4196C127.24 74.5936 125.836 72.8167 124.507 71.0889C123.529 69.8053 122.501 68.4352 121.422 66.9786C120.317 65.398 119.374 63.8162 118.592 62.2331C117.685 63.7795 116.778 65.3258 115.872 66.8721C114.89 68.3694 113.946 69.8912 113.039 71.4375L108.098 68.198L123.044 45.4023L126.75 47.832C125.38 50.5736 124.616 52.963 124.458 55.0002C124.349 56.9625 125.049 59.2414 126.559 61.8368C128.069 64.4323 130.629 68.0377 134.24 72.6529C142.163 82.772 149.986 92.718 157.708 102.491C165.405 112.14 172.965 121.914 180.391 131.814L178.182 135.182L118.255 120.298C115.867 119.695 113.516 119.118 111.203 118.564C108.939 117.936 106.65 117.345 104.337 116.792C105.816 118.618 107.27 120.481 108.7 122.382C110.179 124.208 111.658 126.034 113.136 127.86L151.456 175.945L149.321 179.202Z" fill="white"/>
<path d="M149.321 179.202L149.094 180.068L149.717 180.23L150.069 179.693L149.321 179.202ZM76.4015 160.134L76.1627 160.997L76.175 161L76.4015 160.134ZM65.0932 157.055L64.8559 157.918L64.8643 157.92L65.0932 157.055ZM58.0372 154.837L58.35 153.998L57.63 153.73L57.2555 154.401L58.0372 154.837ZM54.1388 161.273L53.648 162.021L54.452 162.549L54.9205 161.709L54.1388 161.273ZM49.1979 158.033L48.4493 157.542L47.9584 158.291L48.707 158.782L49.1979 158.033ZM67.0888 130.746L67.5796 129.997L66.831 129.506L66.3402 130.255L67.0888 130.746ZM70.7945 133.175L71.5675 133.627L71.9962 132.893L71.2853 132.427L70.7945 133.175ZM68.5604 142.95L67.7789 143.387L67.7865 143.401L67.7946 143.414L68.5604 142.95ZM78.2489 148.5L78.5375 147.652L78.5303 147.65L78.2489 148.5ZM94.336 153.106L94.531 152.232L94.531 152.232L94.336 153.106ZM110.009 157.12L110.255 156.259L110.255 156.259L110.009 157.12ZM121.391 160.087L121.189 160.959L121.199 160.961L121.209 160.963L121.391 160.087ZM133.145 162.976L132.905 163.838L133.535 164.014L133.893 163.467L133.145 162.976ZM133.292 162.751L134.04 163.242L134.408 162.682L133.974 162.172L133.292 162.751ZM129.986 158.978L129.292 159.544L129.306 159.561L129.32 159.577L129.986 158.978ZM126.714 154.906L127.417 154.351L127.417 154.351L126.714 154.906ZM123.818 151.241L124.521 150.686L124.515 150.68L124.51 150.673L123.818 151.241ZM121.488 148.429L120.795 148.996L120.802 149.005L121.488 148.429ZM106.222 129.589L105.52 130.144L105.524 130.149L106.222 129.589ZM93.3229 113.264L94.0253 112.709L94.0227 112.706L93.3229 113.264ZM84.9024 103.086L84.1538 102.596L83.7767 103.171L84.2352 103.683L84.9024 103.086ZM87.2584 99.4931L87.535 98.6417L86.8847 98.4305L86.5098 99.0023L87.2584 99.4931ZM113.271 106.593L113.496 105.727L113.496 105.727L113.271 106.593ZM127.751 110.467L127.512 111.33L127.52 111.332L127.528 111.334L127.751 110.467ZM138.723 113.325L138.969 112.465L138.96 112.462L138.952 112.46L138.723 113.325ZM150.852 116.621L150.629 117.488L150.638 117.491L150.647 117.493L150.852 116.621ZM163.206 120.065L162.932 120.917L163.581 121.125L163.955 120.556L163.206 120.065ZM163.427 119.728L164.175 120.219L164.537 119.667L164.118 119.158L163.427 119.728ZM157.863 113.03L157.161 113.585L157.169 113.594L157.177 113.604L157.863 113.03ZM151.96 105.626L151.248 106.17L151.255 106.179L151.262 106.187L151.96 105.626ZM141.127 91.7804L140.422 92.3311L140.427 92.3375L140.432 92.3438L141.127 91.7804ZM133.795 82.6375L133.092 83.1925L133.1 83.2022L133.108 83.2116L133.795 82.6375ZM128.719 76.4196L128.024 76.983L128.031 76.992L128.038 77.0008L128.719 76.4196ZM124.507 71.0889L123.795 71.6315L123.798 71.6347L124.507 71.0889ZM121.422 66.9786L120.688 67.4913L120.695 67.5014L120.702 67.5113L121.422 66.9786ZM118.592 62.2331L119.395 61.8367L118.66 60.3483L117.82 61.7803L118.592 62.2331ZM115.872 66.8721L116.62 67.363L116.633 67.3443L116.644 67.325L115.872 66.8721ZM113.039 71.4375L112.548 72.1861L113.335 72.7021L113.811 71.8904L113.039 71.4375ZM108.098 68.198L107.349 67.7072L106.859 68.4558L107.607 68.9466L108.098 68.198ZM123.044 45.4023L123.535 44.6537L122.786 44.1629L122.295 44.9115L123.044 45.4023ZM126.75 47.832L127.551 48.232L127.906 47.5198L127.24 47.0833L126.75 47.832ZM124.458 55.0002L123.566 54.9309L123.565 54.9407L123.565 54.9505L124.458 55.0002ZM126.559 61.8368L127.333 61.3868L127.333 61.3868L126.559 61.8368ZM134.24 72.6529L133.535 73.2045L133.535 73.2048L134.24 72.6529ZM157.708 102.491L157.006 103.046L157.008 103.049L157.708 102.491ZM180.391 131.814L181.139 132.304L181.484 131.779L181.107 131.276L180.391 131.814ZM178.182 135.182L177.966 136.051L178.582 136.204L178.931 135.673L178.182 135.182ZM118.255 120.298L118.036 121.166L118.039 121.167L118.255 120.298ZM111.203 118.564L110.964 119.427L110.979 119.431L110.995 119.435L111.203 118.564ZM104.337 116.792L104.545 115.921L101.983 115.309L103.641 117.355L104.337 116.792ZM108.7 122.382L107.984 122.92L107.994 122.933L108.004 122.946L108.7 122.382ZM113.136 127.86L113.837 127.302L113.832 127.297L113.136 127.86ZM151.456 175.945L152.205 176.436L152.56 175.894L152.156 175.387L151.456 175.945ZM149.321 179.202L149.547 178.336L76.628 159.268L76.4015 160.134L76.175 161L149.094 180.068L149.321 179.202ZM76.4015 160.134L76.6402 159.271C71.8369 157.942 68.0637 156.914 65.3221 156.189L65.0932 157.055L64.8643 157.92C67.5962 158.643 71.3618 159.668 76.1628 160.996L76.4015 160.134ZM65.0932 157.055L65.3305 156.192C62.5343 155.423 60.2094 154.691 58.35 153.998L58.0372 154.837L57.7245 155.676C59.6499 156.394 62.029 157.141 64.8559 157.918L65.0932 157.055ZM58.0372 154.837L57.2555 154.401C56.6536 155.479 56.0149 156.534 55.3394 157.564L56.088 158.055L56.8367 158.546C57.5355 157.48 58.1963 156.389 58.8189 155.273L58.0372 154.837ZM56.088 158.055L55.3394 157.564C54.6405 158.63 53.9798 159.721 53.3571 160.836L54.1388 161.273L54.9205 161.709C55.5225 160.63 56.1612 159.576 56.8367 158.546L56.088 158.055ZM54.1388 161.273L54.6297 160.524L49.6887 157.285L49.1979 158.033L48.707 158.782L53.648 162.021L54.1388 161.273ZM49.1979 158.033L49.9465 158.524L67.8374 131.237L67.0888 130.746L66.3402 130.255L48.4493 157.542L49.1979 158.033ZM67.0888 130.746L66.598 131.494L70.3037 133.924L70.7945 133.175L71.2853 132.427L67.5796 129.997L67.0888 130.746ZM70.7945 133.175L70.0215 132.724C68.687 135.009 67.7972 137.034 67.3966 138.787C66.9963 140.538 67.0652 142.11 67.7789 143.387L68.5604 142.95L69.3418 142.514C68.9227 141.764 68.7975 140.693 69.142 139.186C69.4861 137.68 70.2797 135.832 71.5675 133.627L70.7945 133.175ZM68.5604 142.95L67.7946 143.414C68.499 144.577 69.7516 145.621 71.424 146.579C73.1094 147.544 75.2971 148.465 77.9676 149.349L78.2489 148.5L78.5303 147.65C75.9237 146.787 73.858 145.91 72.3139 145.025C70.7568 144.133 69.8037 143.275 69.3262 142.487L68.5604 142.95ZM78.2489 148.5L77.9603 149.347C83.7605 151.322 89.1545 152.867 94.1411 153.98L94.336 153.106L94.531 152.232C89.6188 151.137 84.2881 149.611 78.5375 147.652L78.2489 148.5ZM94.336 153.106L94.1411 153.98C99.0714 155.08 104.279 156.413 109.763 157.981L110.009 157.12L110.255 156.259C104.741 154.683 99.4995 153.341 94.531 152.232L94.336 153.106ZM110.009 157.12L109.763 157.981C113.831 159.145 117.64 160.138 121.189 160.959L121.391 160.087L121.593 159.215C118.078 158.401 114.299 157.416 110.255 156.259L110.009 157.12ZM121.391 160.087L121.209 160.963C124.767 161.701 128.665 162.659 132.905 163.838L133.145 162.976L133.385 162.114C129.114 160.925 125.177 159.957 121.573 159.21L121.391 160.087ZM133.145 162.976L133.893 163.467L134.04 163.242L133.292 162.751L132.543 162.261L132.396 162.485L133.145 162.976ZM133.292 162.751L133.974 162.172C132.941 160.956 131.833 159.691 130.651 158.379L129.986 158.978L129.32 159.577C130.492 160.878 131.589 162.13 132.61 163.331L133.292 162.751ZM129.986 158.978L130.679 158.412C129.554 157.034 128.466 155.68 127.417 154.351L126.714 154.906L126.012 155.461C127.068 156.798 128.161 158.159 129.292 159.544L129.986 158.978ZM126.714 154.906L127.417 154.351C126.363 153.019 125.398 151.797 124.521 150.686L123.818 151.241L123.116 151.796C123.993 152.907 124.959 154.129 126.012 155.461L126.714 154.906ZM123.818 151.241L124.51 150.673C123.557 149.512 122.777 148.572 122.173 147.853L121.488 148.429L120.802 149.005C121.401 149.717 122.175 150.651 123.127 151.81L123.818 151.241ZM121.488 148.429L122.181 147.862C116.894 141.399 111.807 135.122 106.921 129.029L106.222 129.589L105.524 130.149C110.414 136.247 115.505 142.529 120.795 148.996L121.488 148.429ZM106.222 129.589L106.925 129.034C102.011 122.815 97.7109 117.373 94.0253 112.709L93.3229 113.264L92.6205 113.819C96.3061 118.483 100.606 123.925 105.52 130.144L106.222 129.589ZM93.3229 113.264L94.0227 112.706C90.2609 107.99 87.4408 104.581 85.5695 102.49L84.9024 103.086L84.2352 103.683C86.0705 105.735 88.864 109.11 92.6231 113.822L93.3229 113.264ZM84.9024 103.086L85.651 103.577L88.007 99.9839L87.2584 99.4931L86.5098 99.0023L84.1538 102.596L84.9024 103.086ZM87.2584 99.4931L86.9818 100.344C89.916 101.298 93.7159 102.391 98.3764 103.623L98.6054 102.758L98.8343 101.893C94.1899 100.664 90.4252 99.5805 87.535 98.6417L87.2584 99.4931ZM98.6054 102.758L98.3764 103.623C103.031 104.854 107.921 106.133 113.047 107.46L113.271 106.593L113.496 105.727C108.372 104.401 103.485 103.123 98.8343 101.893L98.6054 102.758ZM113.271 106.593L113.047 107.46C118.168 108.785 122.989 110.075 127.512 111.33L127.751 110.467L127.991 109.605C123.457 108.347 118.625 107.054 113.496 105.727L113.271 106.593ZM127.751 110.467L127.528 111.334C132.104 112.515 135.76 113.468 138.494 114.191L138.723 113.325L138.952 112.46C136.212 111.735 132.553 110.782 127.975 109.6L127.751 110.467ZM138.723 113.325L138.476 114.186C142.54 115.349 146.591 116.45 150.629 117.488L150.852 116.621L151.075 115.754C147.053 114.72 143.017 113.623 138.969 112.465L138.723 113.325ZM150.852 116.621L150.647 117.493C154.702 118.449 158.797 119.59 162.932 120.917L163.206 120.065L163.479 119.212C159.301 117.872 155.161 116.718 151.058 115.75L150.852 116.621ZM163.206 120.065L163.955 120.556L164.175 120.219L163.427 119.728L162.678 119.237L162.457 119.574L163.206 120.065ZM163.427 119.728L164.118 119.158C162.387 117.06 160.531 114.825 158.55 112.455L157.863 113.03L157.177 113.604C159.155 115.971 161.008 118.202 162.736 120.297L163.427 119.728ZM157.863 113.03L158.566 112.475C156.634 110.029 154.664 107.559 152.657 105.065L151.96 105.626L151.262 106.187C153.266 108.678 155.232 111.143 157.161 113.585L157.863 113.03ZM151.96 105.626L152.671 105.083C148.404 99.5003 144.788 94.8778 141.823 91.2169L141.127 91.7804L140.432 92.3438C143.382 95.9869 146.988 100.595 151.248 106.17L151.96 105.626ZM141.127 91.7804L141.833 91.2296C138.921 87.4985 136.47 84.4423 134.482 82.0634L133.795 82.6375L133.108 83.2116C135.079 85.5695 137.516 88.6085 140.422 92.3311L141.127 91.7804ZM133.795 82.6375L134.497 82.0825C132.562 79.6335 130.863 77.5516 129.4 75.8383L128.719 76.4196L128.038 77.0008C129.482 78.6917 131.166 80.755 133.092 83.1925L133.795 82.6375ZM128.719 76.4196L129.415 75.8562C127.94 74.0355 126.541 72.2645 125.217 70.543L124.507 71.0889L123.798 71.6347C125.132 73.3689 126.54 75.1517 128.024 76.983L128.719 76.4196ZM124.507 71.0889L125.219 70.5463C124.244 69.2663 123.218 67.8995 122.141 66.4458L121.422 66.9786L120.702 67.5113C121.783 68.9709 122.814 70.3443 123.795 71.6315L124.507 71.0889ZM121.422 66.9786L122.155 66.4658C121.074 64.9188 120.155 63.3758 119.395 61.8367L118.592 62.2331L117.789 62.6295C118.593 64.2566 119.56 65.8771 120.688 67.4913L121.422 66.9786ZM118.592 62.2331L117.82 61.7803C116.913 63.3266 116.006 64.873 115.099 66.4193L115.872 66.8721L116.644 67.325C117.551 65.7786 118.458 64.2323 119.364 62.686L118.592 62.2331ZM115.872 66.8721L115.123 66.3813C114.133 67.891 113.181 69.4255 112.267 70.9847L113.039 71.4375L113.811 71.8904C114.71 70.3569 115.647 68.8477 116.62 67.363L115.872 66.8721ZM113.039 71.4375L113.53 70.6889L108.589 67.4494L108.098 68.198L107.607 68.9466L112.548 72.1861L113.039 71.4375ZM108.098 68.198L108.847 68.6888L123.793 45.8932L123.044 45.4023L122.295 44.9115L107.349 67.7072L108.098 68.198ZM123.044 45.4023L122.553 46.151L126.259 48.5806L126.75 47.832L127.24 47.0833L123.535 44.6537L123.044 45.4023ZM126.75 47.832L125.949 47.432C124.551 50.2302 123.736 52.736 123.566 54.9309L124.458 55.0002L125.351 55.0695C125.497 53.19 126.209 50.917 127.551 48.232L126.75 47.832ZM124.458 55.0002L123.565 54.9505C123.442 57.1572 124.231 59.6145 125.785 62.2869L126.559 61.8368L127.333 61.3868C125.868 58.8683 125.257 56.7679 125.352 55.0499L124.458 55.0002ZM126.559 61.8368L125.785 62.2869C127.327 64.9369 129.918 68.5812 133.535 73.2045L134.24 72.6529L134.945 72.1013C131.34 67.4941 128.811 63.9276 127.333 61.3868L126.559 61.8368ZM134.24 72.6529L133.535 73.2048C141.459 83.3249 149.283 93.2719 157.006 103.046L157.708 102.491L158.411 101.936C150.689 92.1641 142.867 82.2191 134.944 72.101L134.24 72.6529ZM157.708 102.491L157.008 103.049C164.699 112.691 172.255 122.458 179.675 132.351L180.391 131.814L181.107 131.276C173.676 121.37 166.11 111.589 158.408 101.933L157.708 102.491ZM180.391 131.814L179.642 131.323L177.433 134.692L178.182 135.182L178.931 135.673L181.139 132.304L180.391 131.814ZM178.182 135.182L178.398 134.314L118.471 119.429L118.255 120.298L118.039 121.167L177.966 136.051L178.182 135.182ZM118.255 120.298L118.474 119.43C116.083 118.827 113.728 118.248 111.411 117.694L111.203 118.564L110.995 119.435C113.304 119.987 115.652 120.564 118.036 121.166L118.255 120.298ZM111.203 118.564L111.442 117.702C109.168 117.071 106.869 116.477 104.545 115.921L104.337 116.792L104.128 117.663C106.431 118.213 108.71 118.801 110.964 119.427L111.203 118.564ZM104.337 116.792L103.641 117.355C105.113 119.173 106.561 121.028 107.984 122.92L108.7 122.382L109.415 121.844C107.979 119.935 106.518 118.063 105.032 116.229L104.337 116.792ZM108.7 122.382L108.004 122.946C109.483 124.772 110.962 126.598 112.441 128.424L113.136 127.86L113.832 127.297C112.353 125.471 110.874 123.645 109.395 121.819L108.7 122.382ZM113.136 127.86L112.436 128.418L150.756 176.503L151.456 175.945L152.156 175.387L113.837 127.302L113.136 127.86ZM151.456 175.945L150.707 175.454L148.572 178.711L149.321 179.202L150.069 179.693L152.205 176.436L151.456 175.945Z" fill="white" mask="url(#path-17-outside-6_2083_10809)"/>
</svg>
