<svg width="1091" height="306" viewBox="0 0 1091 306" fill="none" xmlns="http://www.w3.org/2000/svg">
<path d="M989.935 153.138C1003.35 164.162 998.03 173.127 989.935 188.815L978.091 289.55L899.16 274.86L903.108 213.998L907.025 188.815C903.789 179.327 903.239 174.529 907.025 167.827C931.143 154.435 943.293 146.993 952.429 134.25C955.852 126.368 956.297 121.142 952.429 109.064C943.504 110.512 938.668 110.386 930.714 104.867L934.662 90.1763L930.714 83.8803L940.584 81.7816V73.3869L932.688 69.1896C936.058 58.6963 940.353 54.3791 952.429 50.3025C973.288 45.6298 984.194 49.0519 995.858 64.9933L995.949 65.2312C1001.89 80.745 1005.25 89.5161 989.935 119.559C989.74 130.197 990.889 135.828 995.858 144.743C983.041 141.035 981.017 136.471 978.091 127.954V134.25C978.996 143.799 980.992 148.383 989.935 153.138Z" fill="#D9D9D9"/>
<path d="M1062.54 117.831C1064.14 126.482 1068.72 129.182 1081.9 131.073L1082.7 305.375L978.497 289.312L981.768 178.136L994.162 159.651C1004.23 148.28 1010.64 141.158 1026.84 122.943L1019.26 112.193L1009.39 111.864L1009.76 99.2786L1013.96 91.0192L1010.13 86.6927C1014.45 82.0567 1016.68 80.5301 1020.25 78.6302L1014.57 70.0427C1017.25 64.1075 1028.82 55.8184 1028.82 55.8184C1047.85 47.6213 1057.41 47.8968 1072.04 63.5548C1082.86 82.3539 1078 94.7204 1062.54 117.831Z" fill="#D9D9D9"/>
<path d="M64.6921 70.2266C74.2497 77.6166 70.4607 83.6265 64.6921 94.1427L56.2511 161.67L0 151.822L2.81365 111.024L5.60532 94.1427C3.29891 87.7825 2.9068 84.5664 5.60532 80.0737C22.7928 71.0964 31.4521 66.1075 37.9623 57.5652C40.4022 52.2818 40.7195 48.7784 37.9623 40.6826C31.602 41.6532 28.1558 41.5684 22.4872 37.8689L25.3009 28.0211L22.4872 23.8007L29.5214 22.3938V16.7665L23.8941 13.9529C26.2957 6.91879 29.3565 4.02482 37.9623 1.29211C52.828 -1.84023 60.6005 0.453736 68.9125 11.1399L68.9775 11.2994C73.2107 21.6989 75.6041 27.5786 64.6921 47.7174C64.5525 54.8483 65.3713 58.6232 68.9125 64.5993C59.7785 62.1136 58.3362 59.0542 56.2511 53.3447V57.5652C56.8962 63.9662 58.3186 67.0395 64.6921 70.2266Z" fill="#D9D9D9"/>
<path d="M116.438 46.5593C117.576 52.3585 120.842 54.168 130.236 55.4359L130.803 172.277L56.542 161.51L58.873 86.9842L67.7057 74.5929C74.8802 66.9701 79.4497 62.1959 90.9956 49.9861L85.5909 42.7795L78.5602 42.5596L78.8241 34.1227L81.8123 28.5861L79.088 25.6859C82.1657 22.5782 83.7516 21.5549 86.2946 20.2813L82.2522 14.5248C84.1607 10.5461 92.403 4.98959 92.403 4.98959C105.969 -0.505254 112.781 -0.320536 123.206 10.1756C130.915 22.7774 127.456 31.0672 116.438 46.5593Z" fill="#D9D9D9"/>
<path d="M315.497 91.1651C327.579 100.507 322.789 108.104 315.497 121.398L304.827 206.76L233.719 194.311L237.276 142.738L240.805 121.398C237.889 113.358 237.393 109.292 240.805 103.613C262.531 92.2646 273.478 85.958 281.707 75.1596C284.792 68.4808 285.193 64.0521 281.707 53.8181C273.667 55.0451 269.311 54.9378 262.145 50.2613L265.702 37.8125L262.145 32.4774L271.037 30.699V23.5854L263.924 20.0286C266.959 11.1368 270.829 7.47846 281.707 4.024C300.499 0.0643592 310.325 2.9642 320.832 16.4727L320.914 16.6744C326.265 29.8205 329.291 37.2531 315.497 62.7109C315.321 71.7252 316.356 76.4971 320.832 84.0516C309.286 80.9093 307.462 77.0419 304.827 69.8244V75.1596C305.642 83.2513 307.44 87.1362 315.497 91.1651Z" fill="#D9D9D9"/>
<path d="M380.911 61.2469C382.35 68.5778 386.479 70.8652 398.353 72.468L399.071 220.169L305.196 206.557L308.143 112.349L319.308 96.6846C328.378 87.0485 334.154 81.0134 348.749 65.5788L341.917 56.4688L333.03 56.1908L333.363 45.5257L337.141 38.5268L333.697 34.8605C337.587 30.9321 339.592 29.6385 342.807 28.0285L337.697 20.7516C340.109 15.7221 350.528 8.69804 350.528 8.69804C367.678 1.75193 376.289 1.98543 389.467 15.2538C399.212 31.1839 394.84 41.6631 380.911 61.2469Z" fill="#D9D9D9"/>
<path d="M182.372 85.634C192.403 93.39 188.427 99.6975 182.372 110.734L173.513 181.605L114.477 171.27L117.43 128.452L120.359 110.734C117.939 104.059 117.527 100.684 120.359 95.9688C138.398 86.5469 147.486 81.3109 154.319 72.3456C156.88 66.8006 157.213 63.1237 154.319 54.6269C147.644 55.6456 144.027 55.5566 138.077 51.6739L141.03 41.3385L138.077 36.909L145.46 35.4325V29.5265L139.554 26.5735C142.074 19.1911 145.287 16.1538 154.319 13.2858C169.921 9.99832 178.078 12.4059 186.802 23.6212L186.87 23.7887C191.313 34.7032 193.825 40.874 182.372 62.0101C182.226 69.4942 183.085 73.456 186.802 79.7281C177.215 77.1193 175.702 73.9083 173.513 67.9161V72.3456C174.19 79.0636 175.683 82.2891 182.372 85.634Z" fill="#D9D9D9"/>
<path d="M236.681 60.7947C237.876 66.8811 241.304 68.7802 251.162 70.1109L251.758 192.739L173.819 181.438L176.266 103.222L185.536 90.2165C193.066 82.2162 197.861 77.2056 209.979 64.3912L204.307 56.8277L196.928 56.5969L197.205 47.7422L200.341 41.9315L197.482 38.8876C200.712 35.626 202.376 34.552 205.045 33.2153L200.803 27.1737C202.806 22.9981 211.456 17.1664 211.456 17.1664C225.694 11.3994 232.843 11.5933 243.785 22.6092C251.875 35.8351 248.245 44.5354 236.681 60.7947Z" fill="#D9D9D9"/>
<path d="M799.015 118.57C813.62 129.862 807.83 139.046 799.015 155.116L786.116 258.302L700.16 243.254L704.46 180.911L708.726 155.116C705.201 145.397 704.602 140.482 708.726 133.617C734.989 119.899 748.221 112.275 758.17 99.2221C761.898 91.1487 762.383 85.7952 758.17 73.4241C748.451 74.9073 743.184 74.7777 734.522 69.1246L738.822 54.0764L734.522 47.6271L745.271 45.4774V36.8784L736.672 32.5789C740.342 21.8303 745.019 17.4081 758.17 13.2323C780.886 8.44579 792.763 11.9512 805.464 28.2805L805.563 28.5243C812.032 44.4155 815.689 53.4001 799.015 84.1739C798.802 95.0705 800.053 100.839 805.464 109.971C791.507 106.172 789.303 101.497 786.116 92.7729V99.2221C787.102 109.003 789.276 113.7 799.015 118.57Z" fill="#D9D9D9"/>
<path d="M878.088 82.4042C879.827 91.2659 884.818 94.0309 899.171 95.9684L900.039 274.512L786.562 258.058L790.124 144.177L803.621 125.242C814.584 113.594 821.567 106.298 839.21 87.6406L830.951 76.6283L820.207 76.2923L820.611 63.4001L825.177 54.9398L821.014 50.508C825.717 45.7592 828.14 44.1954 832.026 42.2492L825.849 33.4528C828.765 27.3731 841.36 18.8823 841.36 18.8823C862.091 10.4857 872.5 10.768 888.43 26.807C900.209 46.0636 894.925 58.731 878.088 82.4042Z" fill="#D9D9D9"/>
<path d="M633.866 109.8C648.893 120.052 642.936 128.39 633.866 142.979L620.596 236.659L532.16 222.997L536.584 166.398L540.973 142.979C537.347 134.155 536.73 129.694 540.973 123.461C567.994 111.007 581.608 104.086 591.843 92.235C595.679 84.9054 596.178 80.0451 591.843 68.8138C581.844 70.1604 576.426 70.0427 567.514 64.9104L571.937 51.2486L567.514 45.3936L578.572 43.4419V35.6351L569.725 31.7318C573.501 21.9734 578.313 17.9586 591.843 14.1675C615.214 9.82205 627.434 13.0045 640.502 27.8293L640.604 28.0506C647.259 42.4778 651.022 50.6347 633.866 78.5732C633.647 88.4659 634.934 93.7028 640.502 101.993C626.142 98.545 623.874 94.3007 620.596 86.3799V92.235C621.61 101.115 623.846 105.379 633.866 109.8Z" fill="#D9D9D9"/>
<path d="M715.22 76.9666C717.009 85.0118 722.144 87.5221 736.912 89.2811L737.805 251.375L621.054 236.437L624.719 133.048L638.605 115.857C649.885 105.282 657.068 98.6592 675.22 81.7206L666.724 71.7228L655.67 71.4178L656.085 59.7134L660.783 52.0325L656.5 48.009C661.339 43.6977 663.832 42.278 667.83 40.5111L661.474 32.5251C664.475 27.0056 677.433 19.297 677.433 19.297C698.762 11.6741 709.471 11.9303 725.861 26.4916C737.98 43.974 732.543 55.4744 715.22 76.9666Z" fill="#D9D9D9"/>
<path d="M466.312 97.762C480.074 107.8 474.618 115.963 466.312 130.247L454.157 221.967L373.16 208.591L377.212 153.176L381.231 130.247C377.91 121.608 377.346 117.239 381.231 111.137C405.98 98.9434 418.449 92.167 427.823 80.5643C431.336 73.388 431.793 68.6294 427.823 57.6331C418.665 58.9515 413.702 58.8362 405.54 53.8114L409.591 40.4354L405.54 34.7028L415.669 32.7919V25.1485L407.566 21.3268C411.024 11.7726 415.431 7.84181 427.823 4.13004C449.228 -0.124541 460.42 2.9913 472.389 17.506L472.482 17.7227C478.578 31.8481 482.024 39.8343 466.312 67.1883C466.111 76.8741 467.29 82.0014 472.389 90.1186C459.237 86.7423 457.16 82.5868 454.157 74.8317V80.5643C455.086 89.2587 457.134 93.433 466.312 97.762Z" fill="#D9D9D9"/>
<path d="M540.823 65.6153C542.462 73.4922 547.165 75.95 560.69 77.6722L561.508 236.375L454.577 221.749L457.934 120.523L470.652 103.693C480.983 93.3387 487.563 86.8541 504.188 70.2698L496.406 60.4812L486.282 60.1825L486.662 48.723L490.965 41.2028L487.042 37.2635C491.474 33.0424 493.757 31.6524 497.419 29.9225L491.598 22.1036C494.346 16.6995 506.215 9.15223 506.215 9.15223C525.749 1.68873 535.557 1.93963 550.569 16.1963C561.668 33.313 556.689 44.5727 540.823 65.6153Z" fill="#D9D9D9"/>
</svg>
