<svg width="74" height="92" viewBox="0 0 74 92" fill="none" xmlns="http://www.w3.org/2000/svg">
<path d="M44.1326 88.7071C58.1408 90.2226 64.717 88.2567 69.8564 69.5711C74.9063 33.5126 65.7196 29.9213 57.2098 12.6486C49.5717 1.70123 43.9954 -0.848403 30.1833 3.09486C18.4489 0.984153 11.7551 2.28085 0.319656 10.2006C4.71113 40.2627 8.90338 50.3253 16.5851 67.6783C23.0376 82.5387 30.4551 85.0111 44.1326 88.7071Z" fill="#14000C"/>
<path d="M43.2133 79.103C55.0942 80.3884 60.6717 78.721 65.0306 62.8731C69.3135 32.2907 61.522 29.2448 54.3045 14.5952C47.8264 5.31037 43.097 3.14794 31.3824 6.49236C21.4301 4.7022 15.7528 5.80197 6.05402 12.519C9.77859 38.0157 13.3342 46.5501 19.8493 61.2678C25.3219 73.8715 31.6129 75.9683 43.2133 79.103Z" fill="#FF5DD6"/>
<path d="M58.5648 45.3656C60.9469 59.7178 55.9073 61.4478 45.9828 63.6145C39.4636 64.6496 35.6204 62.5067 28.6266 57.0877C12.8689 40.8207 9.93329 27.0128 22.1028 20.8095C29.2799 19.2355 33.6031 18.7676 42.7858 19.8704C58.3898 25.5306 58.5115 32.6342 58.5648 45.3656Z" fill="black" stroke="black" stroke-width="1.21789"/>
<path d="M53.7093 43.8938C55.5029 54.7002 51.7084 56.0028 44.2358 57.6342C39.3272 58.4136 36.4335 56.8001 31.1675 52.7199C19.3029 40.4718 17.0926 30.0752 26.2555 25.4045C31.6595 24.2194 34.9146 23.8671 41.8286 24.6974C53.5776 28.9592 53.6692 34.3078 53.7093 43.8938Z" fill="#040146" stroke="black" stroke-width="1.21789"/>
<path d="M42.9454 37.9057C43.7847 44.2422 42.5241 47.3027 39.9583 52.6711C35.0228 47.0032 34.1298 44.5677 33.9307 40.7533L33.544 32.2369C38.1205 32.7347 40.1863 33.8075 42.9454 37.9057Z" fill="#ECE0FF"/>
<path d="M44.1326 88.7071C58.1408 90.2226 64.717 88.2567 69.8564 69.5711C74.9063 33.5126 65.7196 29.9213 57.2098 12.6486C49.5717 1.70123 43.9954 -0.848403 30.1833 3.09486C18.4489 0.984153 11.7551 2.28085 0.319656 10.2006C4.71113 40.2627 8.90338 50.3253 16.5851 67.6783C23.0376 82.5387 30.4551 85.0111 44.1326 88.7071Z" fill="#14000C"/>
<path d="M43.2133 79.103C55.0942 80.3884 60.6717 78.721 65.0306 62.8731C69.3135 32.2907 61.522 29.2448 54.3045 14.5952C47.8264 5.31037 43.097 3.14794 31.3824 6.49236C21.4301 4.7022 15.7528 5.80197 6.05402 12.519C9.77859 38.0157 13.3342 46.5501 19.8493 61.2678C25.3219 73.8715 31.6129 75.9683 43.2133 79.103Z" fill="#FF5DD6"/>
<path d="M58.5648 45.3656C60.9469 59.7178 55.9073 61.4478 45.9828 63.6145C39.4636 64.6496 35.6204 62.5067 28.6266 57.0877C12.8689 40.8207 9.93329 27.0128 22.1028 20.8095C29.2799 19.2355 33.6031 18.7676 42.7858 19.8704C58.3898 25.5306 58.5115 32.6342 58.5648 45.3656Z" fill="black" stroke="black" stroke-width="1.21789"/>
<path d="M53.7093 43.8938C55.5029 54.7002 51.7084 56.0028 44.2358 57.6342C39.3272 58.4136 36.4335 56.8001 31.1675 52.7199C19.3029 40.4718 17.0926 30.0752 26.2555 25.4045C31.6595 24.2194 34.9146 23.8671 41.8286 24.6974C53.5776 28.9592 53.6692 34.3078 53.7093 43.8938Z" fill="#040146" stroke="black" stroke-width="1.21789"/>
<path d="M42.9454 37.9057C43.7847 44.2422 42.5241 47.3027 39.9583 52.6711C35.0228 47.0032 34.1298 44.5677 33.9307 40.7533L33.544 32.2369C38.1205 32.7347 40.1863 33.8075 42.9454 37.9057Z" fill="#ECE0FF"/>
</svg>
