<svg width="61" height="77" viewBox="0 0 61 77" fill="none" xmlns="http://www.w3.org/2000/svg">
<path d="M36.8609 74.0877C48.5604 75.3535 54.0528 73.7115 58.3451 58.1055C62.5627 27.9898 54.8901 24.9904 47.7828 10.5644C41.4036 1.42129 36.7463 -0.70814 25.2106 2.58524C15.4101 0.822395 9.81948 1.90538 0.268737 8.51986C3.93645 33.6274 7.43778 42.0316 13.8535 56.5247C19.2426 68.936 25.4375 71.0008 36.8609 74.0877Z" fill="#14000C"/>
<path d="M36.0932 66.0686C46.016 67.1421 50.6742 65.7495 54.3147 52.5135C57.8918 26.9713 51.3844 24.4274 45.3564 12.1922C39.946 4.43766 35.996 2.63162 26.2122 5.42485C17.9001 3.92972 13.1584 4.84824 5.05812 10.4582C8.16883 31.7528 11.1384 38.8807 16.5798 51.1728C21.1505 61.6992 26.4046 63.4505 36.0932 66.0686Z" fill="#2863EC"/>
<path d="M48.9126 37.8863C50.902 49.8731 46.693 51.3179 38.4042 53.1276C32.9595 53.9921 29.7496 52.2023 23.9084 47.6764C10.7478 34.0904 8.29602 22.5582 18.4599 17.3773C24.4541 16.0627 28.0648 15.6719 35.7341 16.593C48.7664 21.3203 48.8681 27.2532 48.9126 37.8863Z" fill="black" stroke="black" stroke-width="1.01717"/>
<path d="M44.8584 36.6601C46.3563 45.6855 43.1872 46.7734 36.9462 48.1359C32.8466 48.7869 30.4298 47.4393 26.0317 44.0315C16.1225 33.8021 14.2765 25.1189 21.9293 21.218C26.4426 20.2282 29.1612 19.934 34.9357 20.6275C44.7483 24.1869 44.8249 28.654 44.8584 36.6601Z" fill="#040146" stroke="black" stroke-width="1.01717"/>
<path d="M35.8671 31.6548C36.5681 36.9469 35.5153 39.503 33.3724 43.9866C29.2503 39.2529 28.5044 37.2188 28.3381 34.033L28.0152 26.9202C31.8374 27.336 33.5627 28.232 35.8671 31.6548Z" fill="#ECE0FF"/>
</svg>
