<svg width="65" height="82" viewBox="0 0 65 82" fill="none" xmlns="http://www.w3.org/2000/svg">
<path d="M39.2779 78.9399C51.7447 80.2887 57.5972 78.539 62.171 61.9097C66.6652 29.8191 58.4894 26.623 50.9161 11.2511C44.1186 1.50841 39.1559 -0.760654 26.8637 2.74868C16.4206 0.870249 10.4633 2.02425 0.28631 9.07246C4.19453 35.8265 7.92546 44.7817 14.7619 60.2252C20.5044 73.4503 27.1055 75.6506 39.2779 78.9399Z" fill="#14000C"/>
<path d="M38.4577 70.3925C49.0311 71.5364 53.9949 70.0525 57.8741 55.9485C61.6857 28.7314 54.7516 26.0207 48.3284 12.9832C42.5632 4.72014 38.3542 2.79567 27.9287 5.77206C19.0716 4.17889 14.019 5.15765 5.38751 11.1355C8.70221 33.8265 11.8665 41.4218 17.6647 54.5199C22.5351 65.7366 28.1338 67.6027 38.4577 70.3925Z" fill="#F60B0B"/>
<path d="M52.1198 40.3668C54.2397 53.1396 49.7547 54.6792 40.9223 56.6075C35.1205 57.5287 31.7002 55.6216 25.476 50.7989C11.4523 36.322 8.83978 24.0335 19.6701 18.5129C26.0574 17.1121 29.9049 16.6957 38.0771 17.6772C51.964 22.7145 52.0723 29.0364 52.1198 40.3668Z" fill="black" stroke="black" stroke-width="1.08387"/>
<path d="M47.7998 39.0528C49.3959 48.67 46.019 49.8292 39.3687 51.2811C35.0003 51.9747 32.425 50.5388 27.7385 46.9076C17.1795 36.0073 15.2124 26.7548 23.367 22.5981C28.1763 21.5434 31.0732 21.2298 37.2264 21.9688C47.6825 25.7616 47.764 30.5217 47.7998 39.0528Z" fill="#040146" stroke="black" stroke-width="1.08387"/>
<path d="M38.2188 33.7227C38.9658 39.3618 37.8439 42.0855 35.5605 46.8632C31.1681 41.819 30.3734 39.6515 30.1962 36.2569L29.8521 28.6776C33.9249 29.1207 35.7634 30.0754 38.2188 33.7227Z" fill="#ECE0FF"/>
</svg>
