<svg width="70" height="87" viewBox="0 0 70 87" fill="none" xmlns="http://www.w3.org/2000/svg">
<path d="M42.075 84.5627C55.4296 86.0075 61.6989 84.1333 66.5985 66.3197C71.4127 31.9438 62.6547 28.5201 54.542 12.0534C47.2604 1.61694 41.9443 -0.813714 28.7767 2.94555C17.5899 0.933334 11.2084 2.16951 0.306624 9.71967C4.49318 38.379 8.4898 47.972 15.813 64.5153C21.9645 78.6822 29.0358 81.0392 42.075 84.5627Z" fill="#14000C"/>
<path d="M41.197 75.4081C52.5235 76.6335 57.8407 75.044 61.9962 59.9356C66.0793 30.7802 58.6513 27.8765 51.7707 13.9105C45.5949 5.05895 41.0861 2.99742 29.9182 6.18578C20.4303 4.47916 15.018 5.52761 5.77177 11.9312C9.32253 36.2381 12.7122 44.3743 18.9233 58.4052C24.1406 70.4207 30.138 72.4197 41.197 75.4081Z" fill="#F0D506"/>
<path d="M55.8328 43.2412C58.1037 56.9237 53.2993 58.5729 43.8379 60.6385C37.6229 61.6253 33.9591 59.5824 27.2916 54.4163C12.2692 38.9084 9.47061 25.7448 21.0722 19.831C27.9144 18.3304 32.0359 17.8844 40.79 18.9358C55.6659 24.3318 55.782 31.104 55.8328 43.2412Z" fill="black" stroke="black" stroke-width="1.16106"/>
<path d="M51.2064 41.8381C52.9162 52.1402 49.2988 53.382 42.1749 54.9373C37.4954 55.6803 34.7367 54.1421 29.7165 50.2523C18.4055 38.5758 16.2983 28.6643 25.0337 24.2116C30.1854 23.0818 33.2887 22.7459 39.88 23.5375C51.0807 27.6004 51.1681 32.6995 51.2064 41.8381Z" fill="#040146" stroke="black" stroke-width="1.16106"/>
<path d="M40.9428 36.1258C41.7429 42.1666 40.5412 45.0842 38.0951 50.2022C33.3899 44.7988 32.5386 42.4769 32.3488 38.8405L31.9801 30.7215C36.3431 31.1961 38.3125 32.2189 40.9428 36.1258Z" fill="#ECE0FF"/>
</svg>
