<svg width="1349" height="176" viewBox="0 0 1349 176" fill="none" xmlns="http://www.w3.org/2000/svg">
<path d="M744.708 29.1705L757.167 70.146C765.922 77.7964 768.211 82.8953 769.788 92.7306C770.742 106.276 766.072 111.694 752.298 115.637C740.803 115.942 735.661 111.734 727.568 100.537L702.623 65.8048C699.407 60.0843 698.603 56.5577 700.439 49.1593L693.265 25.5674L700.83 26.7917L706.493 45.4169L709.824 42.1781C714.226 37.4322 717.841 36.5366 725.412 36.6729L747.567 57.4948L739.261 30.1778L744.708 29.1705Z" fill="#322F2F"/>
<ellipse cx="16.6202" cy="18.1693" rx="16.6202" ry="18.1693" transform="matrix(-0.983332 0.181817 0.290906 0.956752 761.598 73.2656)" fill="#D9D9D9"/>
<path d="M450.13 21.5494L435.876 70.1622C425.315 78.3721 422.634 84.3219 420.949 96.1809C420.126 112.678 426.004 119.957 443.031 126.652C457.166 128.576 463.376 124.105 473.032 111.453L502.791 72.1854C506.596 65.5977 507.492 61.3774 505.046 52.0496L513.253 24.0603L503.989 24.5434L497.51 46.6402L493.333 42.216C487.801 35.7977 483.336 34.2114 474.036 33.3582L447.348 55.9285L456.851 23.5199L450.13 21.5494Z" fill="#322F2F"/>
<circle cx="445.473" cy="99.5797" r="20.9022" transform="rotate(16.3421 445.473 99.5797)" fill="#D9D9D9"/>
<path d="M300.884 31.5369L306.91 72.9918C314.422 81.5323 315.905 86.7828 315.948 96.5572C314.796 109.867 309.318 114.561 295.024 116.686C283.558 115.551 279.102 110.813 272.798 98.9013L253.401 61.9712C251.093 55.9999 250.841 52.4654 253.811 45.4893L250.341 21.6213L257.666 23.7557L260.405 42.5988L264.216 39.8595C269.325 35.7861 273.054 35.3642 280.554 36.4398L299.334 59.4759L295.317 31.8394L300.884 31.5369Z" fill="#322F2F"/>
<ellipse cx="16.7275" cy="17.7717" rx="16.7275" ry="17.7717" transform="matrix(-0.998528 0.0542439 0.143852 0.989599 310.816 76.5781)" fill="#D9D9D9"/>
<path d="M1227.59 37.1341L1224.33 103.161C1213.32 116.811 1211.72 125.18 1213.22 140.737C1217.26 161.913 1227.04 169.343 1250.95 172.616C1269.67 170.723 1276.25 163.149 1284.73 144.141L1310.77 85.2145C1313.61 75.6928 1313.46 70.0653 1307.44 58.9843L1309.32 20.9688L1297.59 24.4215L1296.1 54.4337L1289.38 50.1027C1280.3 43.658 1274.09 43.0147 1261.9 44.7835L1234.64 81.5912L1236.82 37.5733L1227.59 37.1341Z" fill="#322F2F"/>
<ellipse cx="27.9176" cy="28.1112" rx="27.9176" ry="28.1112" transform="matrix(-0.998869 0.0475412 0.0493933 0.998779 1272.54 108.641)" fill="#D9D9D9"/>
<path d="M97.4018 18.1179L100.218 58.1844C106.862 66.805 107.915 71.9217 107.246 81.2883C105.165 93.9723 99.5254 98.1496 85.5468 99.3501C74.5391 97.5935 70.574 92.7944 65.3428 81.0143L49.2657 44.5018C47.4672 38.6463 47.4807 35.2456 50.8598 28.7357L49.2385 5.66712L56.1677 8.1396L57.4477 26.3516L61.3322 23.9499C66.5691 20.3458 70.2067 20.1593 77.3821 21.6277L93.8723 44.7935L91.9949 18.0825L97.4018 18.1179Z" fill="#322F2F"/>
<ellipse cx="16.2209" cy="17.0398" rx="16.2209" ry="17.0398" transform="matrix(-0.999979 -0.00654022 0.0701097 0.997539 103.738 61.8438)" fill="#D9D9D9"/>
<path d="M948.038 33.6284L931.176 91.1338C918.731 100.86 915.565 107.9 913.561 121.925C912.564 141.432 919.47 150.029 939.499 157.916C956.131 160.166 963.448 154.869 974.835 139.891L1009.93 93.4094C1014.42 85.6133 1015.48 80.6217 1012.62 69.5966L1022.33 36.4874L1011.42 37.0747L1003.76 63.2135L998.85 57.9897C992.35 50.4102 987.098 48.5423 976.153 47.5497L944.703 74.2836L955.944 35.9466L948.038 33.6284Z" fill="#322F2F"/>
<ellipse cx="941.254" cy="126.888" rx="24.506" ry="25.9476" transform="rotate(16.3421 941.254 126.888)" fill="#D9D9D9"/>
<path d="M0 0L1342.36 5.43323L1348.23 38.1346L4.1393 12.9475L0 0Z" fill="#423E3E"/>
</svg>
